G04*
G04 #@! TF.GenerationSoftware,Altium Limited,Altium Designer,21.8.1 (53)*
G04*
G04 Layer_Color=65535*
%FSLAX25Y25*%
%MOIN*%
G70*
G04*
G04 #@! TF.SameCoordinates,E365CCBF-B7D7-418C-B8C5-68AE61ABE827*
G04*
G04*
G04 #@! TF.FilePolarity,Positive*
G04*
G01*
G75*
%ADD10C,0.00787*%
%ADD11C,0.01000*%
%ADD12C,0.00394*%
D10*
X217874Y130000D02*
G03*
X217087Y130000I-394J0D01*
G01*
D02*
G03*
X217874Y130000I394J0D01*
G01*
X124929Y264575D02*
G03*
X124929Y264575I-252J0D01*
G01*
X216575Y239347D02*
G03*
X216575Y239347I-252J0D01*
G01*
X216830Y128291D02*
G03*
X216830Y128291I-252J0D01*
G01*
X124929Y153575D02*
G03*
X124929Y153575I-252J0D01*
G01*
X216575Y202346D02*
G03*
X216575Y202346I-252J0D01*
G01*
X124929Y227575D02*
G03*
X124929Y227575I-252J0D01*
G01*
Y190575D02*
G03*
X124929Y190575I-252J0D01*
G01*
X216575Y165347D02*
G03*
X216575Y165347I-252J0D01*
G01*
X101949Y240543D02*
Y263378D01*
X118681Y264165D02*
Y267709D01*
Y236213D02*
Y239756D01*
X110315Y236213D02*
X118681D01*
X110315Y267709D02*
X118681D01*
X177130Y288177D02*
X180870D01*
X175752Y289063D02*
Y296937D01*
X173587D02*
X175752D01*
X173587Y289063D02*
Y296937D01*
Y289063D02*
X175752D01*
X239051Y240543D02*
Y263378D01*
X222319Y236213D02*
Y239756D01*
Y264165D02*
Y267709D01*
X230685D01*
X222319Y236213D02*
X230685D01*
X222575Y125157D02*
X230941D01*
X222575Y156653D02*
X230941D01*
X222575Y153110D02*
Y156653D01*
Y125157D02*
Y128701D01*
X239307Y129488D02*
Y152323D01*
X110315Y156709D02*
X118681D01*
X110315Y125213D02*
X118681D01*
Y128756D01*
Y153165D02*
Y156709D01*
X101949Y129543D02*
Y152378D01*
X222319Y199213D02*
X230685D01*
X222319Y230709D02*
X230685D01*
X222319Y227165D02*
Y230709D01*
Y199213D02*
Y202756D01*
X239051Y203543D02*
Y226378D01*
X110315Y230709D02*
X118681D01*
X110315Y199213D02*
X118681D01*
Y202756D01*
Y227165D02*
Y230709D01*
X101949Y203543D02*
Y226378D01*
X110315Y193709D02*
X118681D01*
X110315Y162213D02*
X118681D01*
Y165756D01*
Y190165D02*
Y193709D01*
X101949Y166543D02*
Y189378D01*
X222319Y162213D02*
X230685D01*
X222319Y193709D02*
X230685D01*
X222319Y190165D02*
Y193709D01*
Y162213D02*
Y165756D01*
X239051Y166543D02*
Y189378D01*
D11*
X239000Y126000D02*
G03*
X241000Y128000I0J2000D01*
G01*
X112000Y126000D02*
X239000D01*
X150006Y121230D02*
X149173Y122063D01*
X147507D01*
X146674Y121230D01*
Y120396D01*
X147507Y119563D01*
X149173D01*
X150006Y118730D01*
Y117897D01*
X149173Y117064D01*
X147507D01*
X146674Y117897D01*
X151673Y122063D02*
Y117064D01*
Y119563D01*
X152506Y120396D01*
X154172D01*
X155005Y119563D01*
Y117064D01*
X156671Y120396D02*
Y117897D01*
X157504Y117064D01*
X160003D01*
Y116231D01*
X159170Y115398D01*
X158337D01*
X160003Y117064D02*
Y120396D01*
X166668Y117064D02*
Y122063D01*
X168334Y120396D01*
X170000Y122063D01*
Y117064D01*
X171666D02*
X173332D01*
X172499D01*
Y120396D01*
X171666D01*
X175831D02*
Y117064D01*
Y118730D01*
X176664Y119563D01*
X177498Y120396D01*
X178331D01*
X180830D02*
Y117064D01*
Y118730D01*
X181663Y119563D01*
X182496Y120396D01*
X183329D01*
X186661Y117064D02*
X188327D01*
X189161Y117897D01*
Y119563D01*
X188327Y120396D01*
X186661D01*
X185828Y119563D01*
Y117897D01*
X186661Y117064D01*
X190827Y120396D02*
Y117064D01*
Y118730D01*
X191660Y119563D01*
X192493Y120396D01*
X193326D01*
X160836Y110332D02*
Y107000D01*
Y108666D01*
X161669Y109499D01*
X162502Y110332D01*
X163336D01*
X168334Y107000D02*
X166668D01*
X165835Y107833D01*
Y109499D01*
X166668Y110332D01*
X168334D01*
X169167Y109499D01*
Y108666D01*
X165835D01*
X170833Y110332D02*
X172499Y107000D01*
X174165Y110332D01*
X175831Y107000D02*
Y110332D01*
X177498Y111998D01*
X179164Y110332D01*
Y107000D01*
Y109499D01*
X175831D01*
D12*
X125000Y105000D02*
X215000D01*
Y305000D01*
X125000D02*
X215000D01*
X125000Y105000D02*
Y305000D01*
X223402Y273213D02*
X228468D01*
X223402D02*
Y275181D01*
Y292898D02*
X228468D01*
X223402Y290929D02*
Y292898D01*
X240134Y279118D02*
Y288961D01*
M02*
