M48
;Layer_Color=9474304
;FILE_FORMAT=2:5
INCH,LZ
;TYPE=PLATED
T1F00S00C0.01000
T2F00S00C0.01200
T3F00S00C0.04370
T4F00S00C0.10000
T5F00S00C0.12598
%
T01
X0113Y0147
X0227Y0135
X0226Y0172
Y0209
Y0246
X0112Y0258
X0114Y0221
X0113Y0184
T02
X0112Y0139
X0228Y0144
X0229Y018
Y0217
Y0254
X0234
X0215122Y0253997
X0221Y0292
X0185Y0293
X0165Y0292
X0163963Y0288762
X0181209Y0273209
X0181Y02696
X0173Y0232
X0159Y0224
X0153
X0121Y0236
X0112Y025
X0121Y0266
X0112Y0213
X012Y0196
X0112Y0176
X0119941Y0164164
X0151Y03
T03
X021Y013
Y014
Y015
Y016
Y017
Y018
Y019
Y02
Y021
Y022
Y023
Y024
Y025
Y026
Y027
Y028
X013
Y027
Y026
Y025
Y024
Y023
Y022
Y021
Y02
Y019
Y018
Y017
T04
X0135Y0115
X0205
Y0295
X0135
T05
X0112Y0112
X0228
X0227Y0302
X0111Y0299
M30
