G04*
G04 #@! TF.GenerationSoftware,Altium Limited,Altium Designer,21.8.1 (53)*
G04*
G04 Layer_Color=16711935*
%FSLAX25Y25*%
%MOIN*%
G70*
G04*
G04 #@! TF.SameCoordinates,E365CCBF-B7D7-418C-B8C5-68AE61ABE827*
G04*
G04*
G04 #@! TF.FilePolarity,Negative*
G04*
G01*
G75*
%ADD23C,0.15800*%
%ADD24C,0.07355*%
%ADD25C,0.03200*%
%ADD26C,0.13398*%
%ADD32C,0.02000*%
D23*
X135000Y295000D02*
D03*
X205000D02*
D03*
X135000Y115000D02*
D03*
X205000D02*
D03*
D24*
X210000Y130000D02*
D03*
Y140000D02*
D03*
Y150000D02*
D03*
Y160000D02*
D03*
Y170000D02*
D03*
Y180000D02*
D03*
Y190000D02*
D03*
Y200000D02*
D03*
Y210000D02*
D03*
Y220000D02*
D03*
Y230000D02*
D03*
Y240000D02*
D03*
Y250000D02*
D03*
Y260000D02*
D03*
Y270000D02*
D03*
Y280000D02*
D03*
X130000D02*
D03*
Y270000D02*
D03*
Y260000D02*
D03*
Y250000D02*
D03*
Y240000D02*
D03*
Y230000D02*
D03*
Y220000D02*
D03*
Y210000D02*
D03*
Y200000D02*
D03*
Y190000D02*
D03*
Y180000D02*
D03*
Y170000D02*
D03*
D25*
X173000Y232000D02*
D03*
X153000Y224000D02*
D03*
X159000D02*
D03*
D26*
X112000Y112000D02*
D03*
X111000Y299000D02*
D03*
X228000Y112000D02*
D03*
X227000Y302000D02*
D03*
D32*
X119941Y164164D02*
D03*
M02*
