G04*
G04 #@! TF.GenerationSoftware,Altium Limited,Altium Designer,21.8.1 (53)*
G04*
G04 Layer_Color=8388736*
%FSLAX25Y25*%
%MOIN*%
G70*
G04*
G04 #@! TF.SameCoordinates,E365CCBF-B7D7-418C-B8C5-68AE61ABE827*
G04*
G04*
G04 #@! TF.FilePolarity,Negative*
G04*
G01*
G75*
%ADD18R,0.07887X0.05524*%
%ADD19R,0.06902X0.03162*%
%ADD20R,0.04540X0.02572*%
%ADD21R,0.03359X0.03320*%
%ADD22R,0.03556X0.03162*%
%ADD23C,0.15800*%
%ADD24C,0.07355*%
%ADD25C,0.03200*%
%ADD26C,0.13398*%
D18*
X105000Y266921D02*
D03*
Y237000D02*
D03*
X236000D02*
D03*
Y266921D02*
D03*
X236256Y155866D02*
D03*
Y125945D02*
D03*
X236000Y274000D02*
D03*
Y292110D02*
D03*
X105000Y126000D02*
D03*
Y155921D02*
D03*
X236000Y229921D02*
D03*
Y200000D02*
D03*
X105000D02*
D03*
Y229921D02*
D03*
Y163000D02*
D03*
Y192921D02*
D03*
X236000D02*
D03*
Y163000D02*
D03*
D19*
X120256Y242118D02*
D03*
Y246055D02*
D03*
Y249992D02*
D03*
Y253929D02*
D03*
Y257866D02*
D03*
Y261803D02*
D03*
X220744D02*
D03*
Y257866D02*
D03*
Y253929D02*
D03*
Y249992D02*
D03*
Y246055D02*
D03*
Y242118D02*
D03*
X221000Y131063D02*
D03*
Y135000D02*
D03*
Y138937D02*
D03*
Y142874D02*
D03*
Y146811D02*
D03*
Y150748D02*
D03*
X220740Y279118D02*
D03*
Y283055D02*
D03*
Y286992D02*
D03*
X120256Y150803D02*
D03*
Y146866D02*
D03*
Y142929D02*
D03*
Y138992D02*
D03*
Y135055D02*
D03*
Y131118D02*
D03*
X220744Y205118D02*
D03*
Y209055D02*
D03*
Y212992D02*
D03*
Y216929D02*
D03*
Y220866D02*
D03*
Y224803D02*
D03*
X120256D02*
D03*
Y220866D02*
D03*
Y216929D02*
D03*
Y212992D02*
D03*
Y209055D02*
D03*
Y205118D02*
D03*
Y187803D02*
D03*
Y183866D02*
D03*
Y179929D02*
D03*
Y175992D02*
D03*
Y172055D02*
D03*
Y168118D02*
D03*
X220744D02*
D03*
Y172055D02*
D03*
Y175992D02*
D03*
Y179929D02*
D03*
Y183866D02*
D03*
Y187803D02*
D03*
D20*
X170339Y290441D02*
D03*
Y293000D02*
D03*
Y295559D02*
D03*
X179000D02*
D03*
Y293000D02*
D03*
Y290441D02*
D03*
D21*
X156228Y300000D02*
D03*
X159772D02*
D03*
D22*
X155835Y289000D02*
D03*
X160165D02*
D03*
X155835Y294000D02*
D03*
X160165D02*
D03*
D23*
X135000Y295000D02*
D03*
X205000D02*
D03*
X135000Y115000D02*
D03*
X205000D02*
D03*
D24*
X210000Y130000D02*
D03*
Y140000D02*
D03*
Y150000D02*
D03*
Y160000D02*
D03*
Y170000D02*
D03*
Y180000D02*
D03*
Y190000D02*
D03*
Y200000D02*
D03*
Y210000D02*
D03*
Y220000D02*
D03*
Y230000D02*
D03*
Y240000D02*
D03*
Y250000D02*
D03*
Y260000D02*
D03*
Y270000D02*
D03*
Y280000D02*
D03*
X130000D02*
D03*
Y270000D02*
D03*
Y260000D02*
D03*
Y250000D02*
D03*
Y240000D02*
D03*
Y230000D02*
D03*
Y220000D02*
D03*
Y210000D02*
D03*
Y200000D02*
D03*
Y190000D02*
D03*
Y180000D02*
D03*
Y170000D02*
D03*
D25*
X173000Y232000D02*
D03*
X153000Y224000D02*
D03*
X159000D02*
D03*
D26*
X112000Y112000D02*
D03*
X111000Y299000D02*
D03*
X228000Y112000D02*
D03*
X227000Y302000D02*
D03*
M02*
