G04*
G04 #@! TF.GenerationSoftware,Altium Limited,Altium Designer,21.8.1 (53)*
G04*
G04 Layer_Physical_Order=1*
G04 Layer_Color=255*
%FSLAX25Y25*%
%MOIN*%
G70*
G04*
G04 #@! TF.SameCoordinates,E365CCBF-B7D7-418C-B8C5-68AE61ABE827*
G04*
G04*
G04 #@! TF.FilePolarity,Positive*
G04*
G01*
G75*
%ADD11C,0.01000*%
%ADD13R,0.07087X0.04724*%
%ADD14R,0.06102X0.02362*%
%ADD15R,0.03740X0.01772*%
%ADD16R,0.02559X0.02520*%
%ADD17R,0.02756X0.02362*%
%ADD27C,0.01200*%
%ADD28C,0.15000*%
%ADD29C,0.06555*%
%ADD30C,0.02400*%
%ADD31C,0.12598*%
D11*
X160165Y289000D02*
X167913D01*
X174418Y280000D02*
X181209Y273209D01*
X147000Y280000D02*
X174418D01*
X147000Y291000D02*
X153000Y297000D01*
X220772Y172028D02*
X225972D01*
X226000Y172000D01*
X220744Y172055D02*
X220772Y172028D01*
X220744Y209055D02*
X220772Y209028D01*
X225972D01*
X226000Y209000D01*
X225972Y246028D02*
X226000Y246000D01*
X220744Y246055D02*
X220772Y246028D01*
X225972D01*
X108000Y262414D02*
X108586Y263000D01*
X108000Y254087D02*
X110043Y252043D01*
X108000Y254087D02*
Y262414D01*
X108586Y263000D02*
X113000D01*
X120189Y257933D02*
X120256Y257866D01*
X112067Y257933D02*
X120189D01*
X112000Y258000D02*
X112067Y257933D01*
X120189Y220933D02*
X120256Y220866D01*
X114067Y220933D02*
X120189D01*
X114000Y221000D02*
X114067Y220933D01*
X110043Y217000D02*
Y248138D01*
X109300Y248882D02*
X110043Y248138D01*
X113067Y183933D02*
X120189D01*
X120256Y183866D01*
X113000Y184000D02*
X113067Y183933D01*
X110043Y180000D02*
Y211138D01*
X109300Y211882D02*
X110043Y211138D01*
X130000Y270000D02*
X181000D01*
X158713Y295256D02*
X159968Y294000D01*
X158713Y295256D02*
Y295802D01*
X157515Y297000D02*
X158713Y295802D01*
X159968Y294000D02*
X160165D01*
X153000Y297000D02*
X157515D01*
X130000Y280000D02*
X147000D01*
X151000Y300000D02*
X156228D01*
X147000Y280000D02*
Y291000D01*
X179000Y293000D02*
X185000D01*
X166000D02*
X170339D01*
X165000Y292000D02*
X166000Y293000D01*
X160165Y294000D02*
X163043D01*
X164602Y295559D01*
X170339D01*
X167913Y289000D02*
X169354Y290441D01*
X170339D01*
X220795Y283000D02*
X228000D01*
X220740Y283055D02*
X220795Y283000D01*
X230000Y275000D02*
Y281000D01*
X228000Y283000D02*
X230000Y281000D01*
X225000Y270000D02*
X230000Y275000D01*
X210000Y270000D02*
X225000D01*
X220740Y291740D02*
X221000Y292000D01*
X220740Y286992D02*
Y291740D01*
X234000Y251000D02*
Y254000D01*
X230957Y247957D02*
X234000Y251000D01*
X181000Y269600D02*
Y270000D01*
X220744Y253929D02*
X229000D01*
X113000Y263000D02*
X130000Y280000D01*
X216000Y222476D02*
X217072Y223547D01*
X216000Y196000D02*
Y222476D01*
X210000Y190000D02*
X216000Y196000D01*
X110043Y214862D02*
Y217000D01*
X109300Y211882D02*
Y214118D01*
X110043Y214862D01*
X112000Y213000D02*
X120248D01*
X120256Y212992D01*
X110043Y177862D02*
Y180000D01*
X109300Y174882D02*
X110043Y174138D01*
Y152022D02*
Y174138D01*
X109300Y174882D02*
Y177118D01*
X110043Y177862D01*
X112000Y176000D02*
X112043D01*
X112051Y175992D01*
X120256D01*
X112004Y138996D02*
X120252D01*
X120256Y138992D01*
X112000Y139000D02*
X112004Y138996D01*
X110043Y251862D02*
Y252043D01*
X109300Y251118D02*
X110043Y251862D01*
X109300Y248882D02*
Y251118D01*
X112000Y250000D02*
X112043D01*
X112051Y249992D02*
X120256D01*
X112043Y250000D02*
X112051Y249992D01*
X111929Y253929D02*
X120256D01*
X110043Y252043D02*
X111929Y253929D01*
X230957Y181862D02*
Y213000D01*
Y176000D02*
Y178138D01*
X231700Y178882D02*
Y181118D01*
X230957Y178138D02*
X231700Y178882D01*
X230957Y181862D02*
X231700Y181118D01*
X228957Y180000D02*
X229000D01*
X228886Y179929D02*
X228957Y180000D01*
X220744Y179929D02*
X228886D01*
X230957Y160017D02*
Y176000D01*
X220744Y175992D02*
X230949D01*
X230957Y176000D01*
Y218862D02*
Y247957D01*
Y215138D02*
X231700Y215882D01*
X230957Y218862D02*
X231700Y218118D01*
X230957Y213000D02*
Y215138D01*
X231700Y215882D02*
Y218118D01*
X228929Y216929D02*
X229000Y217000D01*
X220744Y216929D02*
X228929D01*
X230949Y212992D02*
X230957Y213000D01*
X220744Y212992D02*
X230949D01*
X231000Y143000D02*
Y159973D01*
X226937Y138937D02*
X231000Y143000D01*
X226874Y142874D02*
X228000Y144000D01*
X221000Y142874D02*
X226874D01*
X110043Y180000D02*
X110114Y179929D01*
X120256D01*
X110043Y217000D02*
X110114Y216929D01*
X120256D01*
X110000Y146000D02*
Y151978D01*
X110043Y152022D01*
X110000Y146000D02*
X113071Y142929D01*
X120256D01*
X220744Y249992D02*
X228921D01*
X230957Y247957D01*
Y160017D02*
X231000Y159973D01*
X221000Y138937D02*
X226937D01*
X217618Y223547D02*
X218874Y224803D01*
X220744D01*
X217072Y223547D02*
X217618D01*
X217122Y187122D02*
X220063D01*
X220744Y187803D01*
X210000Y180000D02*
X217122Y187122D01*
X210000Y170000D02*
X221000Y159000D01*
Y150748D02*
Y159000D01*
X120122Y147000D02*
X120256Y146866D01*
X113000Y147000D02*
X120122D01*
X221000Y135000D02*
X227000D01*
D13*
X105000Y266921D02*
D03*
Y237000D02*
D03*
X236000D02*
D03*
Y266921D02*
D03*
X236256Y155866D02*
D03*
Y125945D02*
D03*
X236000Y274000D02*
D03*
Y292110D02*
D03*
X105000Y126000D02*
D03*
Y155921D02*
D03*
X236000Y229921D02*
D03*
Y200000D02*
D03*
X105000D02*
D03*
Y229921D02*
D03*
Y163000D02*
D03*
Y192921D02*
D03*
X236000D02*
D03*
Y163000D02*
D03*
D14*
X120256Y242118D02*
D03*
Y246055D02*
D03*
Y249992D02*
D03*
Y253929D02*
D03*
Y257866D02*
D03*
Y261803D02*
D03*
X220744D02*
D03*
Y257866D02*
D03*
Y253929D02*
D03*
Y249992D02*
D03*
Y246055D02*
D03*
Y242118D02*
D03*
X221000Y131063D02*
D03*
Y135000D02*
D03*
Y138937D02*
D03*
Y142874D02*
D03*
Y146811D02*
D03*
Y150748D02*
D03*
X220740Y279118D02*
D03*
Y283055D02*
D03*
Y286992D02*
D03*
X120256Y150803D02*
D03*
Y146866D02*
D03*
Y142929D02*
D03*
Y138992D02*
D03*
Y135055D02*
D03*
Y131118D02*
D03*
X220744Y205118D02*
D03*
Y209055D02*
D03*
Y212992D02*
D03*
Y216929D02*
D03*
Y220866D02*
D03*
Y224803D02*
D03*
X120256D02*
D03*
Y220866D02*
D03*
Y216929D02*
D03*
Y212992D02*
D03*
Y209055D02*
D03*
Y205118D02*
D03*
Y187803D02*
D03*
Y183866D02*
D03*
Y179929D02*
D03*
Y175992D02*
D03*
Y172055D02*
D03*
Y168118D02*
D03*
X220744D02*
D03*
Y172055D02*
D03*
Y175992D02*
D03*
Y179929D02*
D03*
Y183866D02*
D03*
Y187803D02*
D03*
D15*
X170339Y290441D02*
D03*
Y293000D02*
D03*
Y295559D02*
D03*
X179000D02*
D03*
Y293000D02*
D03*
Y290441D02*
D03*
D16*
X156228Y300000D02*
D03*
X159772D02*
D03*
D17*
X155835Y289000D02*
D03*
X160165D02*
D03*
X155835Y294000D02*
D03*
X160165D02*
D03*
D27*
X191000Y291000D02*
X193878Y288122D01*
X189220Y289220D02*
X191000Y291000D01*
X193878Y274878D02*
Y288122D01*
X191000Y291000D02*
Y295000D01*
X185213Y296000D02*
X190000D01*
X191000Y295000D01*
X120419Y261803D02*
X124905D01*
X179000Y289220D02*
X189220D01*
X202497Y175000D02*
X211898D01*
X202497Y175000D02*
X202497Y175000D01*
X202497Y147503D02*
Y229848D01*
Y147503D02*
X211025Y138975D01*
X202497Y184878D02*
X202497Y184878D01*
X211878D01*
X211025Y136975D02*
Y138975D01*
X220915Y131148D02*
X221000Y131063D01*
X216852Y131148D02*
X220915D01*
X211025Y136975D02*
X216852Y131148D01*
X158000Y285000D02*
X176000D01*
X156270Y286730D02*
X158000Y285000D01*
X176000D02*
X179000Y288000D01*
Y289220D01*
X179241Y295800D02*
X185013D01*
X179000Y295559D02*
X179241Y295800D01*
X185013D02*
X185213Y296000D01*
X155835Y289000D02*
X156270Y288565D01*
Y286730D02*
Y288565D01*
X155835Y289000D02*
Y294000D01*
X159772Y299000D02*
X178000D01*
X179000Y298000D01*
Y295559D02*
Y298000D01*
X128102Y265000D02*
X184000D01*
X120256Y261803D02*
X120419D01*
X124905D02*
X128102Y265000D01*
X119941Y151118D02*
X120256Y150803D01*
X119941Y151118D02*
Y164164D01*
X120000Y188059D02*
Y196000D01*
Y188059D02*
X120256Y187803D01*
X120419Y261803D02*
X121000Y262384D01*
Y266000D01*
X120256Y224803D02*
Y235256D01*
X121000Y236000D01*
X214630Y274878D02*
X218870Y279118D01*
X193878Y274878D02*
X214630D01*
X218870Y279118D02*
X220740D01*
X184000Y265000D02*
X193878Y274878D01*
X184000Y265000D02*
X204122Y244878D01*
X214780Y242118D02*
X218874D01*
X212020Y244878D02*
X214780Y242118D01*
X204122Y244878D02*
X212020D01*
X206649Y234000D02*
Y234419D01*
X207352Y235122D02*
X212020D01*
X202497Y229848D02*
X206649Y234000D01*
Y234419D02*
X207352Y235122D01*
X212020D02*
X215157Y238259D01*
Y238401D01*
X218874Y242118D01*
X220744D01*
X141000Y200000D02*
X173000Y232000D01*
X150000Y140000D02*
Y205000D01*
X185000Y240000D02*
X210000D01*
X150000Y205000D02*
X185000Y240000D01*
X125220Y242118D02*
X127980Y244878D01*
X132122D01*
X153000Y224000D01*
X120256Y242118D02*
X125220D01*
X141118Y205118D02*
X159000Y223000D01*
Y224000D01*
X120256Y205118D02*
X141118D01*
X141000Y171000D02*
Y200000D01*
X135122Y165122D02*
X141000Y171000D01*
X120256Y168118D02*
X124984D01*
X127980Y165122D01*
X135122D01*
X141118Y131118D02*
X150000Y140000D01*
X120256Y131118D02*
X141118D01*
X217030Y260647D02*
X217480Y261097D01*
X217715Y261222D02*
X218293D01*
X217590Y261097D02*
X217715Y261222D01*
X217030Y260647D02*
X217030D01*
X218293Y261222D02*
X218874Y261803D01*
X215122Y258738D02*
X217030Y260647D01*
X217480Y261097D02*
X217590D01*
X218874Y261803D02*
X220744D01*
X215122Y253997D02*
Y258738D01*
X220744Y194298D02*
Y205118D01*
X216093Y189647D02*
X220744Y194298D01*
X216093Y189093D02*
Y189647D01*
X211878Y184878D02*
X216093Y189093D01*
X214878Y168821D02*
Y172020D01*
X215581Y168118D02*
X220744D01*
X214878Y168821D02*
X215581Y168118D01*
X211898Y175000D02*
X214878Y172020D01*
D28*
X135000Y295000D02*
D03*
X205000D02*
D03*
X135000Y115000D02*
D03*
X205000D02*
D03*
D29*
X210000Y130000D02*
D03*
Y140000D02*
D03*
Y150000D02*
D03*
Y160000D02*
D03*
Y170000D02*
D03*
Y180000D02*
D03*
Y190000D02*
D03*
Y200000D02*
D03*
Y210000D02*
D03*
Y220000D02*
D03*
Y230000D02*
D03*
Y240000D02*
D03*
Y250000D02*
D03*
Y260000D02*
D03*
Y270000D02*
D03*
Y280000D02*
D03*
X130000D02*
D03*
Y270000D02*
D03*
Y260000D02*
D03*
Y250000D02*
D03*
Y240000D02*
D03*
Y230000D02*
D03*
Y220000D02*
D03*
Y210000D02*
D03*
Y200000D02*
D03*
Y190000D02*
D03*
Y180000D02*
D03*
Y170000D02*
D03*
D30*
X181209Y273209D02*
D03*
X226000Y172000D02*
D03*
Y209000D02*
D03*
Y246000D02*
D03*
X112000Y258000D02*
D03*
X114000Y221000D02*
D03*
X113000Y184000D02*
D03*
X163963Y288762D02*
D03*
X151000Y300000D02*
D03*
X185000Y293000D02*
D03*
X165000Y292000D02*
D03*
X221000D02*
D03*
X234000Y254000D02*
D03*
X181000Y269600D02*
D03*
X119941Y164164D02*
D03*
X120000Y196000D02*
D03*
X121000Y266000D02*
D03*
Y236000D02*
D03*
X173000Y232000D02*
D03*
X153000Y224000D02*
D03*
X159000D02*
D03*
X215122Y253997D02*
D03*
X112000Y213000D02*
D03*
Y176000D02*
D03*
Y139000D02*
D03*
Y250000D02*
D03*
X229000Y180000D02*
D03*
Y217000D02*
D03*
Y254000D02*
D03*
X228000Y144000D02*
D03*
X227000Y135000D02*
D03*
X113000Y147000D02*
D03*
D31*
X112000Y112000D02*
D03*
X111000Y299000D02*
D03*
X228000Y112000D02*
D03*
X227000Y302000D02*
D03*
M02*
