G04*
G04 #@! TF.GenerationSoftware,Altium Limited,Altium Designer,21.8.1 (53)*
G04*
G04 Layer_Physical_Order=2*
G04 Layer_Color=16711680*
%FSLAX25Y25*%
%MOIN*%
G70*
G04*
G04 #@! TF.SameCoordinates,E365CCBF-B7D7-418C-B8C5-68AE61ABE827*
G04*
G04*
G04 #@! TF.FilePolarity,Positive*
G04*
G01*
G75*
%ADD11C,0.01000*%
%ADD27C,0.01200*%
%ADD28C,0.15000*%
%ADD29C,0.06555*%
%ADD30C,0.02400*%
%ADD31C,0.12598*%
G36*
X242000Y100000D02*
X100000D01*
Y311000D01*
X242000D01*
Y100000D01*
D02*
G37*
%LPC*%
G36*
X151500Y302174D02*
Y300500D01*
X153174D01*
X152865Y301246D01*
X152246Y301865D01*
X151500Y302174D01*
D02*
G37*
G36*
X150500D02*
X149754Y301865D01*
X149135Y301246D01*
X148826Y300500D01*
X150500D01*
Y302174D01*
D02*
G37*
G36*
X153174Y299500D02*
X151500D01*
Y297826D01*
X152246Y298135D01*
X152865Y298754D01*
X153174Y299500D01*
D02*
G37*
G36*
X150500D02*
X148826D01*
X149135Y298754D01*
X149754Y298135D01*
X150500Y297826D01*
Y299500D01*
D02*
G37*
G36*
X227719Y309299D02*
X226281D01*
X224871Y309019D01*
X223542Y308469D01*
X222347Y307670D01*
X221330Y306653D01*
X220532Y305457D01*
X219981Y304129D01*
X219701Y302719D01*
Y301281D01*
X219981Y299871D01*
X220532Y298542D01*
X221330Y297347D01*
X222347Y296330D01*
X223542Y295532D01*
X224871Y294981D01*
X226281Y294701D01*
X227719D01*
X229129Y294981D01*
X230457Y295532D01*
X231653Y296330D01*
X232670Y297347D01*
X233469Y298542D01*
X234019Y299871D01*
X234299Y301281D01*
Y302719D01*
X234019Y304129D01*
X233469Y305457D01*
X232670Y306653D01*
X231653Y307670D01*
X230457Y308469D01*
X229129Y309019D01*
X227719Y309299D01*
D02*
G37*
G36*
X185500Y295174D02*
Y293500D01*
X187174D01*
X186865Y294246D01*
X186246Y294865D01*
X185500Y295174D01*
D02*
G37*
G36*
X184500D02*
X183754Y294865D01*
X183135Y294246D01*
X182826Y293500D01*
X184500D01*
Y295174D01*
D02*
G37*
G36*
X221000Y295529D02*
X220415Y295413D01*
X219919Y295081D01*
X219587Y294585D01*
X219471Y294000D01*
Y293582D01*
X219135Y293246D01*
X218826Y292500D01*
X223174D01*
X222865Y293246D01*
X222529Y293582D01*
Y294000D01*
X222413Y294585D01*
X222081Y295081D01*
X221585Y295413D01*
X221000Y295529D01*
D02*
G37*
G36*
X165500Y294174D02*
Y292500D01*
X167174D01*
X166865Y293246D01*
X166246Y293865D01*
X165500Y294174D01*
D02*
G37*
G36*
X111719Y306299D02*
X110281D01*
X108871Y306019D01*
X107543Y305469D01*
X106347Y304670D01*
X105330Y303653D01*
X104532Y302457D01*
X103981Y301129D01*
X103701Y299719D01*
Y298281D01*
X103981Y296871D01*
X104532Y295543D01*
X105330Y294347D01*
X106347Y293330D01*
X107543Y292531D01*
X108871Y291981D01*
X110281Y291701D01*
X111719D01*
X113129Y291981D01*
X114457Y292531D01*
X115653Y293330D01*
X116670Y294347D01*
X117469Y295543D01*
X118019Y296871D01*
X118299Y298281D01*
Y299719D01*
X118019Y301129D01*
X117469Y302457D01*
X116670Y303653D01*
X115653Y304670D01*
X114457Y305469D01*
X113129Y306019D01*
X111719Y306299D01*
D02*
G37*
G36*
X187174Y292500D02*
X185500D01*
Y290826D01*
X186246Y291135D01*
X186865Y291754D01*
X187174Y292500D01*
D02*
G37*
G36*
X184500D02*
X182826D01*
X183135Y291754D01*
X183754Y291135D01*
X184500Y290826D01*
Y292500D01*
D02*
G37*
G36*
X223174Y291500D02*
X221500D01*
Y289826D01*
X222246Y290135D01*
X222865Y290754D01*
X223174Y291500D01*
D02*
G37*
G36*
X220500D02*
X218826D01*
X219135Y290754D01*
X219754Y290135D01*
X220500Y289826D01*
Y291500D01*
D02*
G37*
G36*
X205837Y303500D02*
X204163D01*
X202521Y303173D01*
X200974Y302533D01*
X199582Y301602D01*
X198398Y300418D01*
X197467Y299026D01*
X196827Y297479D01*
X196500Y295837D01*
Y294163D01*
X196827Y292521D01*
X197467Y290974D01*
X198398Y289582D01*
X199582Y288398D01*
X200974Y287467D01*
X202521Y286827D01*
X204163Y286500D01*
X205837D01*
X207479Y286827D01*
X209026Y287467D01*
X210418Y288398D01*
X211602Y289582D01*
X212533Y290974D01*
X213173Y292521D01*
X213500Y294163D01*
Y295837D01*
X213173Y297479D01*
X212533Y299026D01*
X211602Y300418D01*
X210418Y301602D01*
X209026Y302533D01*
X207479Y303173D01*
X205837Y303500D01*
D02*
G37*
G36*
X135837D02*
X134163D01*
X132521Y303173D01*
X130974Y302533D01*
X129582Y301602D01*
X128398Y300418D01*
X127467Y299026D01*
X126827Y297479D01*
X126500Y295837D01*
Y294163D01*
X126827Y292521D01*
X127467Y290974D01*
X128398Y289582D01*
X129582Y288398D01*
X130974Y287467D01*
X132521Y286827D01*
X134163Y286500D01*
X135837D01*
X137479Y286827D01*
X139026Y287467D01*
X140418Y288398D01*
X141602Y289582D01*
X142533Y290974D01*
X143173Y292521D01*
X143500Y294163D01*
Y295837D01*
X143173Y297479D01*
X142533Y299026D01*
X141602Y300418D01*
X140418Y301602D01*
X139026Y302533D01*
X137479Y303173D01*
X135837Y303500D01*
D02*
G37*
G36*
X210563Y284278D02*
X210500D01*
Y280500D01*
X214278D01*
Y280563D01*
X213986Y281651D01*
X213423Y282627D01*
X212627Y283423D01*
X211651Y283986D01*
X210563Y284278D01*
D02*
G37*
G36*
X209500D02*
X209437D01*
X208349Y283986D01*
X207373Y283423D01*
X206577Y282627D01*
X206014Y281651D01*
X205722Y280563D01*
Y280500D01*
X209500D01*
Y284278D01*
D02*
G37*
G36*
X130563D02*
X129437D01*
X128349Y283986D01*
X127374Y283423D01*
X126577Y282627D01*
X126014Y281651D01*
X125722Y280563D01*
Y279437D01*
X126014Y278349D01*
X126577Y277374D01*
X127374Y276577D01*
X128349Y276014D01*
X129437Y275722D01*
X130563D01*
X131651Y276014D01*
X132626Y276577D01*
X133423Y277374D01*
X133986Y278349D01*
X134278Y279437D01*
Y280563D01*
X133986Y281651D01*
X133423Y282627D01*
X132626Y283423D01*
X131651Y283986D01*
X130563Y284278D01*
D02*
G37*
G36*
Y274278D02*
X129437D01*
X128349Y273986D01*
X127374Y273423D01*
X126577Y272626D01*
X126014Y271651D01*
X125981Y271529D01*
X112000D01*
X111512Y271432D01*
X111415Y271413D01*
X110919Y271081D01*
X103919Y264081D01*
X103587Y263585D01*
X103471Y263000D01*
Y257000D01*
X103587Y256415D01*
X103919Y255919D01*
X109800Y250037D01*
Y249562D01*
X110135Y248754D01*
X110471Y248418D01*
Y224575D01*
X108662Y222766D01*
X108330Y222270D01*
X108214Y221685D01*
Y213000D01*
Y176000D01*
Y141257D01*
X108330Y140671D01*
X108662Y140175D01*
X109800Y139037D01*
Y138562D01*
X110135Y137754D01*
X110754Y137135D01*
X111562Y136800D01*
X112438D01*
X113246Y137135D01*
X113865Y137754D01*
X114200Y138562D01*
Y139438D01*
X113865Y140246D01*
X113246Y140865D01*
X112438Y141200D01*
X111963D01*
X111273Y141890D01*
Y145616D01*
X111754Y145135D01*
X112500Y144826D01*
Y147000D01*
Y149174D01*
X111754Y148865D01*
X111273Y148384D01*
Y173920D01*
X111562Y173800D01*
X112438D01*
X113246Y174135D01*
X113865Y174754D01*
X114200Y175562D01*
Y176438D01*
X113865Y177246D01*
X113246Y177865D01*
X112438Y178200D01*
X111562D01*
X111273Y178080D01*
Y182616D01*
X111754Y182135D01*
X112500Y181826D01*
Y184000D01*
Y186174D01*
X111754Y185865D01*
X111273Y185384D01*
Y210920D01*
X111562Y210800D01*
X112438D01*
X113246Y211135D01*
X113865Y211754D01*
X114200Y212562D01*
Y213438D01*
X113865Y214246D01*
X113246Y214865D01*
X112438Y215200D01*
X111562D01*
X111273Y215080D01*
Y221052D01*
X111900Y221679D01*
X111826Y221500D01*
X113500D01*
Y223174D01*
X113211Y223055D01*
X113413Y223356D01*
X113529Y223942D01*
Y248418D01*
X113865Y248754D01*
X114200Y249562D01*
Y250438D01*
X113865Y251246D01*
X113246Y251865D01*
X112438Y252200D01*
X111963D01*
X106529Y257633D01*
Y262367D01*
X112634Y268471D01*
X125981D01*
X126014Y268349D01*
X126577Y267373D01*
X127374Y266577D01*
X128349Y266014D01*
X129437Y265722D01*
X130563D01*
X131651Y266014D01*
X132626Y266577D01*
X133423Y267373D01*
X133986Y268349D01*
X134278Y269437D01*
Y270563D01*
X133986Y271651D01*
X133423Y272626D01*
X132626Y273423D01*
X131651Y273986D01*
X130563Y274278D01*
D02*
G37*
G36*
X112500Y260174D02*
Y258500D01*
X114174D01*
X113865Y259246D01*
X113246Y259865D01*
X112500Y260174D01*
D02*
G37*
G36*
X111500D02*
X110754Y259865D01*
X110135Y259246D01*
X109826Y258500D01*
X111500D01*
Y260174D01*
D02*
G37*
G36*
X114174Y257500D02*
X112500D01*
Y255826D01*
X113246Y256135D01*
X113865Y256754D01*
X114174Y257500D01*
D02*
G37*
G36*
X111500D02*
X109826D01*
X110135Y256754D01*
X110754Y256135D01*
X111500Y255826D01*
Y257500D01*
D02*
G37*
G36*
X130563Y264278D02*
X129437D01*
X128349Y263986D01*
X127374Y263423D01*
X126577Y262627D01*
X126014Y261651D01*
X125722Y260563D01*
Y259437D01*
X126014Y258349D01*
X126577Y257373D01*
X127374Y256577D01*
X128349Y256014D01*
X129437Y255722D01*
X130563D01*
X131651Y256014D01*
X132626Y256577D01*
X133423Y257373D01*
X133986Y258349D01*
X134278Y259437D01*
Y260563D01*
X133986Y261651D01*
X133423Y262627D01*
X132626Y263423D01*
X131651Y263986D01*
X130563Y264278D01*
D02*
G37*
G36*
X215559Y256197D02*
X214684D01*
X213875Y255862D01*
X213256Y255243D01*
X212922Y254435D01*
Y253559D01*
X213227Y252823D01*
X212627Y253423D01*
X211651Y253986D01*
X210563Y254278D01*
X209437D01*
X208349Y253986D01*
X207373Y253423D01*
X206577Y252626D01*
X206014Y251651D01*
X205722Y250563D01*
Y249437D01*
X206014Y248349D01*
X206577Y247374D01*
X207373Y246577D01*
X208349Y246014D01*
X209437Y245722D01*
X210563D01*
X211651Y246014D01*
X212627Y246577D01*
X213423Y247374D01*
X213490Y247490D01*
Y242510D01*
X213423Y242627D01*
X212627Y243423D01*
X211651Y243986D01*
X210563Y244278D01*
X209437D01*
X208349Y243986D01*
X207373Y243423D01*
X206577Y242627D01*
X206014Y241651D01*
X205722Y240563D01*
Y239437D01*
X206014Y238349D01*
X206577Y237373D01*
X207373Y236577D01*
X208349Y236014D01*
X209437Y235722D01*
X210563D01*
X211651Y236014D01*
X212627Y236577D01*
X213423Y237373D01*
X213490Y237490D01*
Y232510D01*
X213423Y232627D01*
X212627Y233423D01*
X211651Y233986D01*
X210563Y234278D01*
X209437D01*
X208349Y233986D01*
X207373Y233423D01*
X206577Y232627D01*
X206014Y231651D01*
X206009Y231631D01*
X192728D01*
X191206Y233154D01*
X190677Y233507D01*
X190053Y233631D01*
X174480D01*
X174246Y233865D01*
X173438Y234200D01*
X172562D01*
X171754Y233865D01*
X171135Y233246D01*
X170800Y232438D01*
Y231562D01*
X171135Y230754D01*
X171754Y230135D01*
X172562Y229800D01*
X173438D01*
X174246Y230135D01*
X174480Y230369D01*
X189377D01*
X190899Y228847D01*
X191428Y228493D01*
X192053Y228369D01*
X206009D01*
X206014Y228349D01*
X206577Y227374D01*
X207373Y226577D01*
X208349Y226014D01*
X209437Y225722D01*
X210563D01*
X211651Y226014D01*
X212627Y226577D01*
X213423Y227374D01*
X213490Y227490D01*
Y222510D01*
X213423Y222626D01*
X212627Y223423D01*
X211651Y223986D01*
X210563Y224278D01*
X209437D01*
X208349Y223986D01*
X207373Y223423D01*
X206577Y222626D01*
X206014Y221651D01*
X206009Y221631D01*
X163676D01*
X161200Y224107D01*
Y224438D01*
X160865Y225246D01*
X160246Y225865D01*
X159438Y226200D01*
X158562D01*
X157754Y225865D01*
X157135Y225246D01*
X156800Y224438D01*
Y223562D01*
X157135Y222754D01*
X157754Y222135D01*
X158562Y221800D01*
X158893D01*
X161846Y218847D01*
X162376Y218493D01*
X163000Y218369D01*
X206009D01*
X206014Y218349D01*
X206577Y217373D01*
X207373Y216577D01*
X208349Y216014D01*
X209437Y215722D01*
X210563D01*
X211651Y216014D01*
X212627Y216577D01*
X213423Y217373D01*
X213490Y217490D01*
Y212510D01*
X213423Y212627D01*
X212627Y213423D01*
X211651Y213986D01*
X210563Y214278D01*
X209437D01*
X208349Y213986D01*
X207373Y213423D01*
X206577Y212627D01*
X206014Y211651D01*
X206009Y211631D01*
X167676D01*
X155200Y224107D01*
Y224438D01*
X154865Y225246D01*
X154246Y225865D01*
X153438Y226200D01*
X152562D01*
X151754Y225865D01*
X151135Y225246D01*
X150800Y224438D01*
Y223562D01*
X151135Y222754D01*
X151754Y222135D01*
X152562Y221800D01*
X152893D01*
X165847Y208846D01*
X166376Y208493D01*
X167000Y208369D01*
X206009D01*
X206014Y208349D01*
X206577Y207373D01*
X207373Y206577D01*
X208349Y206014D01*
X209437Y205722D01*
X210563D01*
X211651Y206014D01*
X212627Y206577D01*
X213423Y207373D01*
X213490Y207490D01*
Y205797D01*
X211669Y203976D01*
X211651Y203986D01*
X210563Y204278D01*
X209437D01*
X208349Y203986D01*
X207373Y203423D01*
X206577Y202626D01*
X206014Y201651D01*
X205722Y200563D01*
Y199437D01*
X206014Y198349D01*
X206577Y197373D01*
X207373Y196577D01*
X208349Y196014D01*
X209437Y195722D01*
X210563D01*
X211651Y196014D01*
X212627Y196577D01*
X213423Y197373D01*
X213986Y198349D01*
X214278Y199437D01*
Y200563D01*
X213986Y201651D01*
X213976Y201669D01*
X216275Y203968D01*
X216629Y204497D01*
X216753Y205121D01*
Y252517D01*
X216986Y252751D01*
X217321Y253559D01*
Y254435D01*
X216986Y255243D01*
X216368Y255862D01*
X215559Y256197D01*
D02*
G37*
G36*
X164500Y294174D02*
X163754Y293865D01*
X163135Y293246D01*
X163123Y293218D01*
X162919Y293081D01*
X162587Y292585D01*
X162471Y292000D01*
X162587Y291415D01*
X162919Y290919D01*
X163111Y290790D01*
X162717Y290627D01*
X162098Y290008D01*
X161763Y289200D01*
Y288324D01*
X162098Y287516D01*
X162702Y286912D01*
Y286369D01*
X162818Y285784D01*
X163150Y285287D01*
X178800Y269637D01*
Y269162D01*
X179135Y268354D01*
X179754Y267735D01*
X180562Y267400D01*
X181438D01*
X182246Y267735D01*
X182865Y268354D01*
X182913Y268471D01*
X202610D01*
X207384Y263696D01*
X207599Y263553D01*
X207373Y263423D01*
X206577Y262627D01*
X206014Y261651D01*
X205722Y260563D01*
Y259437D01*
X206014Y258349D01*
X206577Y257373D01*
X207373Y256577D01*
X208349Y256014D01*
X209437Y255722D01*
X210563D01*
X211651Y256014D01*
X212627Y256577D01*
X213423Y257373D01*
X213986Y258349D01*
X214278Y259437D01*
Y260563D01*
X213986Y261651D01*
X213423Y262627D01*
X212801Y263248D01*
X217589D01*
X226800Y254037D01*
Y253562D01*
X227135Y252754D01*
X227754Y252135D01*
X227771Y252128D01*
Y247341D01*
X227246Y247865D01*
X226500Y248174D01*
Y246000D01*
Y243826D01*
X227246Y244135D01*
X227771Y244659D01*
Y218872D01*
X227754Y218865D01*
X227135Y218246D01*
X226800Y217438D01*
Y216562D01*
X227135Y215754D01*
X227754Y215135D01*
X227771Y215128D01*
Y210341D01*
X227246Y210865D01*
X226500Y211174D01*
Y209000D01*
Y206826D01*
X227246Y207135D01*
X227771Y207659D01*
Y181872D01*
X227754Y181865D01*
X227135Y181246D01*
X226800Y180438D01*
Y179562D01*
X227135Y178754D01*
X227754Y178135D01*
X227771Y178128D01*
Y173341D01*
X227246Y173865D01*
X226500Y174174D01*
Y172000D01*
X226000D01*
Y171500D01*
X223826D01*
X224135Y170754D01*
X224754Y170135D01*
X225562Y169800D01*
X226438D01*
X226471Y169814D01*
X226471Y169812D01*
Y145582D01*
X226135Y145246D01*
X225800Y144438D01*
Y143562D01*
X226135Y142754D01*
X226754Y142135D01*
X227562Y141800D01*
X228438D01*
X229246Y142135D01*
X229865Y142754D01*
X230200Y143562D01*
Y144438D01*
X229865Y145246D01*
X229529Y145582D01*
Y169179D01*
X230381Y170031D01*
X230713Y170527D01*
X230829Y171112D01*
Y178718D01*
X230865Y178754D01*
X231200Y179562D01*
Y180438D01*
X230865Y181246D01*
X230829Y181282D01*
Y215718D01*
X230865Y215754D01*
X231200Y216562D01*
Y217438D01*
X230865Y218246D01*
X230829Y218282D01*
Y252718D01*
X230865Y252754D01*
X231200Y253562D01*
Y254438D01*
X231059Y254778D01*
X231800Y254037D01*
Y253562D01*
X232135Y252754D01*
X232754Y252135D01*
X233562Y251800D01*
X234438D01*
X235246Y252135D01*
X235865Y252754D01*
X236200Y253562D01*
Y254438D01*
X235865Y255246D01*
X235246Y255865D01*
X234438Y256200D01*
X233963D01*
X219325Y270838D01*
X218829Y271169D01*
X218244Y271286D01*
X217634D01*
X213060Y275859D01*
X212564Y276190D01*
X212112Y276280D01*
X212627Y276577D01*
X213423Y277374D01*
X213986Y278349D01*
X214278Y279437D01*
Y279500D01*
X210000D01*
X205722D01*
Y279437D01*
X206014Y278349D01*
X206577Y277374D01*
X207373Y276577D01*
X207841Y276307D01*
X197568D01*
X196982Y276190D01*
X196486Y275859D01*
X195157Y274529D01*
X183000D01*
X182455Y275074D01*
X181647Y275409D01*
X180772D01*
X179963Y275074D01*
X179344Y274455D01*
X179041Y273722D01*
X165760Y287002D01*
Y287448D01*
X165828Y287516D01*
X166163Y288324D01*
Y289200D01*
X165845Y289969D01*
X166246Y290135D01*
X166865Y290754D01*
X167174Y291500D01*
X165000D01*
Y292000D01*
X164500D01*
Y294174D01*
D02*
G37*
G36*
X225500Y248174D02*
X224754Y247865D01*
X224135Y247246D01*
X223826Y246500D01*
X225500D01*
Y248174D01*
D02*
G37*
G36*
X130563Y254278D02*
X129437D01*
X128349Y253986D01*
X127374Y253423D01*
X126577Y252626D01*
X126014Y251651D01*
X125722Y250563D01*
Y249437D01*
X126014Y248349D01*
X126577Y247374D01*
X127374Y246577D01*
X128349Y246014D01*
X129437Y245722D01*
X130563D01*
X131651Y246014D01*
X132626Y246577D01*
X133423Y247374D01*
X133986Y248349D01*
X134278Y249437D01*
Y250563D01*
X133986Y251651D01*
X133423Y252626D01*
X132626Y253423D01*
X131651Y253986D01*
X130563Y254278D01*
D02*
G37*
G36*
X225500Y245500D02*
X223826D01*
X224135Y244754D01*
X224754Y244135D01*
X225500Y243826D01*
Y245500D01*
D02*
G37*
G36*
X130563Y244278D02*
X129437D01*
X128349Y243986D01*
X127374Y243423D01*
X126577Y242627D01*
X126014Y241651D01*
X125722Y240563D01*
Y239437D01*
X126014Y238349D01*
X126577Y237373D01*
X127374Y236577D01*
X128349Y236014D01*
X129437Y235722D01*
X130563D01*
X131651Y236014D01*
X132626Y236577D01*
X133423Y237373D01*
X133986Y238349D01*
X134278Y239437D01*
Y240563D01*
X133986Y241651D01*
X133423Y242627D01*
X132626Y243423D01*
X131651Y243986D01*
X130563Y244278D01*
D02*
G37*
G36*
Y234278D02*
X129437D01*
X128349Y233986D01*
X127374Y233423D01*
X126577Y232627D01*
X126014Y231651D01*
X125722Y230563D01*
Y229437D01*
X126014Y228349D01*
X126577Y227374D01*
X127374Y226577D01*
X128349Y226014D01*
X129437Y225722D01*
X130563D01*
X131651Y226014D01*
X132626Y226577D01*
X133423Y227374D01*
X133986Y228349D01*
X134278Y229437D01*
Y230563D01*
X133986Y231651D01*
X133423Y232627D01*
X132626Y233423D01*
X131651Y233986D01*
X130563Y234278D01*
D02*
G37*
G36*
X114500Y223174D02*
Y221500D01*
X116174D01*
X115865Y222246D01*
X115246Y222865D01*
X114500Y223174D01*
D02*
G37*
G36*
X116174Y220500D02*
X114500D01*
Y218826D01*
X115246Y219135D01*
X115865Y219754D01*
X116174Y220500D01*
D02*
G37*
G36*
X113500D02*
X111826D01*
X112135Y219754D01*
X112754Y219135D01*
X113500Y218826D01*
Y220500D01*
D02*
G37*
G36*
X130563Y224278D02*
X129437D01*
X128349Y223986D01*
X127374Y223423D01*
X126577Y222626D01*
X126014Y221651D01*
X125722Y220563D01*
Y219437D01*
X126014Y218349D01*
X126577Y217373D01*
X127374Y216577D01*
X128349Y216014D01*
X129437Y215722D01*
X130563D01*
X131651Y216014D01*
X132626Y216577D01*
X133423Y217373D01*
X133986Y218349D01*
X134278Y219437D01*
Y220563D01*
X133986Y221651D01*
X133423Y222626D01*
X132626Y223423D01*
X131651Y223986D01*
X130563Y224278D01*
D02*
G37*
G36*
X225500Y211174D02*
X224754Y210865D01*
X224135Y210246D01*
X223826Y209500D01*
X225500D01*
Y211174D01*
D02*
G37*
G36*
Y208500D02*
X223826D01*
X224135Y207754D01*
X224754Y207135D01*
X225500Y206826D01*
Y208500D01*
D02*
G37*
G36*
X130563Y214278D02*
X129437D01*
X128349Y213986D01*
X127374Y213423D01*
X126577Y212627D01*
X126014Y211651D01*
X125722Y210563D01*
Y209437D01*
X126014Y208349D01*
X126577Y207373D01*
X127374Y206577D01*
X128349Y206014D01*
X129437Y205722D01*
X130563D01*
X131651Y206014D01*
X132626Y206577D01*
X133423Y207373D01*
X133986Y208349D01*
X134278Y209437D01*
Y210563D01*
X133986Y211651D01*
X133423Y212627D01*
X132626Y213423D01*
X131651Y213986D01*
X130563Y214278D01*
D02*
G37*
G36*
Y204278D02*
X129437D01*
X128349Y203986D01*
X127374Y203423D01*
X126577Y202626D01*
X126014Y201651D01*
X125722Y200563D01*
Y199437D01*
X126014Y198349D01*
X126577Y197373D01*
X127374Y196577D01*
X128349Y196014D01*
X129437Y195722D01*
X130563D01*
X131651Y196014D01*
X132626Y196577D01*
X133423Y197373D01*
X133986Y198349D01*
X134278Y199437D01*
Y200563D01*
X133986Y201651D01*
X133423Y202626D01*
X132626Y203423D01*
X131651Y203986D01*
X130563Y204278D01*
D02*
G37*
G36*
X210563Y194278D02*
X209437D01*
X208349Y193986D01*
X207373Y193423D01*
X206577Y192627D01*
X206014Y191651D01*
X205722Y190563D01*
Y189437D01*
X206014Y188349D01*
X206577Y187373D01*
X207373Y186577D01*
X208349Y186014D01*
X209437Y185722D01*
X210563D01*
X211651Y186014D01*
X212627Y186577D01*
X213423Y187373D01*
X213986Y188349D01*
X214278Y189437D01*
Y190563D01*
X213986Y191651D01*
X213423Y192627D01*
X212627Y193423D01*
X211651Y193986D01*
X210563Y194278D01*
D02*
G37*
G36*
X130563D02*
X129437D01*
X128349Y193986D01*
X127374Y193423D01*
X126577Y192627D01*
X126014Y191651D01*
X125722Y190563D01*
Y189437D01*
X126014Y188349D01*
X126577Y187373D01*
X127374Y186577D01*
X128349Y186014D01*
X129437Y185722D01*
X130563D01*
X131651Y186014D01*
X132626Y186577D01*
X133423Y187373D01*
X133986Y188349D01*
X134278Y189437D01*
Y190563D01*
X133986Y191651D01*
X133423Y192627D01*
X132626Y193423D01*
X131651Y193986D01*
X130563Y194278D01*
D02*
G37*
G36*
X113500Y186174D02*
Y184500D01*
X115174D01*
X114865Y185246D01*
X114246Y185865D01*
X113500Y186174D01*
D02*
G37*
G36*
X115174Y183500D02*
X113500D01*
Y181826D01*
X114246Y182135D01*
X114865Y182754D01*
X115174Y183500D01*
D02*
G37*
G36*
X210563Y184278D02*
X209437D01*
X208349Y183986D01*
X207373Y183423D01*
X206577Y182626D01*
X206014Y181651D01*
X205722Y180563D01*
Y179437D01*
X206014Y178349D01*
X206577Y177374D01*
X207373Y176577D01*
X208349Y176014D01*
X209437Y175722D01*
X210563D01*
X211651Y176014D01*
X212627Y176577D01*
X213423Y177374D01*
X213986Y178349D01*
X214278Y179437D01*
Y180563D01*
X213986Y181651D01*
X213423Y182626D01*
X212627Y183423D01*
X211651Y183986D01*
X210563Y184278D01*
D02*
G37*
G36*
X130563D02*
X129437D01*
X128349Y183986D01*
X127374Y183423D01*
X126577Y182626D01*
X126014Y181651D01*
X125722Y180563D01*
Y179437D01*
X126014Y178349D01*
X126577Y177374D01*
X127374Y176577D01*
X128349Y176014D01*
X129437Y175722D01*
X130563D01*
X131651Y176014D01*
X132626Y176577D01*
X133423Y177374D01*
X133986Y178349D01*
X134278Y179437D01*
Y180563D01*
X133986Y181651D01*
X133423Y182626D01*
X132626Y183423D01*
X131651Y183986D01*
X130563Y184278D01*
D02*
G37*
G36*
X225500Y174174D02*
X224754Y173865D01*
X224135Y173246D01*
X223826Y172500D01*
X225500D01*
Y174174D01*
D02*
G37*
G36*
X210563Y174278D02*
X209437D01*
X208349Y173986D01*
X207373Y173423D01*
X206577Y172626D01*
X206014Y171651D01*
X205722Y170563D01*
Y169437D01*
X206014Y168349D01*
X206577Y167374D01*
X207373Y166577D01*
X208349Y166014D01*
X209437Y165722D01*
X210563D01*
X211651Y166014D01*
X212627Y166577D01*
X213423Y167374D01*
X213986Y168349D01*
X214278Y169437D01*
Y170563D01*
X213986Y171651D01*
X213423Y172626D01*
X212627Y173423D01*
X211651Y173986D01*
X210563Y174278D01*
D02*
G37*
G36*
X130563D02*
X129437D01*
X128349Y173986D01*
X127374Y173423D01*
X126577Y172626D01*
X126014Y171651D01*
X125722Y170563D01*
Y169437D01*
X126014Y168349D01*
X126577Y167374D01*
X127374Y166577D01*
X128349Y166014D01*
X129437Y165722D01*
X130563D01*
X131651Y166014D01*
X132626Y166577D01*
X133423Y167374D01*
X133986Y168349D01*
X134278Y169437D01*
Y170563D01*
X133986Y171651D01*
X133423Y172626D01*
X132626Y173423D01*
X131651Y173986D01*
X130563Y174278D01*
D02*
G37*
G36*
X121438Y268200D02*
X120562D01*
X119754Y267865D01*
X119135Y267246D01*
X118800Y266438D01*
Y265562D01*
X119135Y264754D01*
X119369Y264520D01*
Y237480D01*
X119135Y237246D01*
X118800Y236438D01*
Y235562D01*
X119135Y234754D01*
X119369Y234520D01*
Y203676D01*
X118846Y203153D01*
X118493Y202624D01*
X118369Y202000D01*
Y197480D01*
X118135Y197246D01*
X117800Y196438D01*
Y195562D01*
X118135Y194754D01*
X118369Y194520D01*
Y165703D01*
X118076Y165410D01*
X117741Y164602D01*
Y163727D01*
X118076Y162918D01*
X118695Y162299D01*
X119503Y161964D01*
X120378D01*
X121187Y162299D01*
X121320Y162432D01*
X121624Y162493D01*
X122153Y162847D01*
X122507Y163376D01*
X122631Y164000D01*
X122507Y164624D01*
X122153Y165154D01*
X121631Y165676D01*
Y194520D01*
X121865Y194754D01*
X122200Y195562D01*
Y196438D01*
X121865Y197246D01*
X121631Y197480D01*
Y201324D01*
X122153Y201847D01*
X122507Y202376D01*
X122631Y203000D01*
Y234520D01*
X122865Y234754D01*
X123200Y235562D01*
Y236438D01*
X122865Y237246D01*
X122631Y237480D01*
Y264520D01*
X122865Y264754D01*
X123200Y265562D01*
Y266438D01*
X122865Y267246D01*
X122246Y267865D01*
X121438Y268200D01*
D02*
G37*
G36*
X210563Y164278D02*
X210500D01*
Y160500D01*
X214278D01*
Y160563D01*
X213986Y161651D01*
X213423Y162627D01*
X212627Y163423D01*
X211651Y163986D01*
X210563Y164278D01*
D02*
G37*
G36*
X209500D02*
X209437D01*
X208349Y163986D01*
X207373Y163423D01*
X206577Y162627D01*
X206014Y161651D01*
X205722Y160563D01*
Y160500D01*
X209500D01*
Y164278D01*
D02*
G37*
G36*
X214278Y159500D02*
X210500D01*
Y155722D01*
X210563D01*
X211651Y156014D01*
X212627Y156577D01*
X213423Y157373D01*
X213986Y158349D01*
X214278Y159437D01*
Y159500D01*
D02*
G37*
G36*
X209500D02*
X205722D01*
Y159437D01*
X206014Y158349D01*
X206577Y157373D01*
X207373Y156577D01*
X208349Y156014D01*
X209437Y155722D01*
X209500D01*
Y159500D01*
D02*
G37*
G36*
X113500Y149174D02*
Y147500D01*
X115174D01*
X114865Y148246D01*
X114246Y148865D01*
X113500Y149174D01*
D02*
G37*
G36*
X210563Y154278D02*
X209437D01*
X208349Y153986D01*
X207373Y153423D01*
X206577Y152627D01*
X206014Y151651D01*
X205722Y150563D01*
Y149437D01*
X206014Y148349D01*
X206577Y147373D01*
X207373Y146577D01*
X208349Y146014D01*
X209437Y145722D01*
X210563D01*
X211651Y146014D01*
X212627Y146577D01*
X213423Y147373D01*
X213986Y148349D01*
X214278Y149437D01*
Y150563D01*
X213986Y151651D01*
X213423Y152627D01*
X212627Y153423D01*
X211651Y153986D01*
X210563Y154278D01*
D02*
G37*
G36*
X115174Y146500D02*
X113500D01*
Y144826D01*
X114246Y145135D01*
X114865Y145754D01*
X115174Y146500D01*
D02*
G37*
G36*
X210563Y144278D02*
X209437D01*
X208349Y143986D01*
X207373Y143423D01*
X206577Y142627D01*
X206014Y141651D01*
X205722Y140563D01*
Y139437D01*
X206014Y138349D01*
X206577Y137373D01*
X207373Y136577D01*
X208349Y136014D01*
X209437Y135722D01*
X210563D01*
X211651Y136014D01*
X212627Y136577D01*
X213423Y137373D01*
X213986Y138349D01*
X214278Y139437D01*
Y140563D01*
X213986Y141651D01*
X213423Y142627D01*
X212627Y143423D01*
X211651Y143986D01*
X210563Y144278D01*
D02*
G37*
G36*
X227500Y137174D02*
Y135500D01*
X229174D01*
X228865Y136246D01*
X228246Y136865D01*
X227500Y137174D01*
D02*
G37*
G36*
X226500D02*
X225754Y136865D01*
X225135Y136246D01*
X224826Y135500D01*
X226500D01*
Y137174D01*
D02*
G37*
G36*
X229174Y134500D02*
X227500D01*
Y132826D01*
X228246Y133135D01*
X228865Y133754D01*
X229174Y134500D01*
D02*
G37*
G36*
X226500D02*
X224826D01*
X225135Y133754D01*
X225754Y133135D01*
X226500Y132826D01*
Y134500D01*
D02*
G37*
G36*
X210563Y134278D02*
X209437D01*
X208349Y133986D01*
X207373Y133423D01*
X206577Y132626D01*
X206014Y131651D01*
X205722Y130563D01*
Y129437D01*
X206014Y128349D01*
X206577Y127374D01*
X207373Y126577D01*
X208349Y126014D01*
X209437Y125722D01*
X210563D01*
X211651Y126014D01*
X212627Y126577D01*
X213423Y127374D01*
X213986Y128349D01*
X214278Y129437D01*
Y130563D01*
X213986Y131651D01*
X213423Y132626D01*
X212627Y133423D01*
X211651Y133986D01*
X210563Y134278D01*
D02*
G37*
G36*
X205837Y123500D02*
X204163D01*
X202521Y123173D01*
X200974Y122533D01*
X199582Y121602D01*
X198398Y120418D01*
X197467Y119026D01*
X196827Y117479D01*
X196500Y115837D01*
Y114163D01*
X196827Y112521D01*
X197467Y110974D01*
X198398Y109582D01*
X199582Y108398D01*
X200974Y107467D01*
X202521Y106827D01*
X204163Y106500D01*
X205837D01*
X207479Y106827D01*
X209026Y107467D01*
X210418Y108398D01*
X211602Y109582D01*
X212533Y110974D01*
X213173Y112521D01*
X213500Y114163D01*
Y115837D01*
X213173Y117479D01*
X212533Y119026D01*
X211602Y120418D01*
X210418Y121602D01*
X209026Y122533D01*
X207479Y123173D01*
X205837Y123500D01*
D02*
G37*
G36*
X135837D02*
X134163D01*
X132521Y123173D01*
X130974Y122533D01*
X129582Y121602D01*
X128398Y120418D01*
X127467Y119026D01*
X126827Y117479D01*
X126500Y115837D01*
Y114163D01*
X126827Y112521D01*
X127467Y110974D01*
X128398Y109582D01*
X129582Y108398D01*
X130974Y107467D01*
X132521Y106827D01*
X134163Y106500D01*
X135837D01*
X137479Y106827D01*
X139026Y107467D01*
X140418Y108398D01*
X141602Y109582D01*
X142533Y110974D01*
X143173Y112521D01*
X143500Y114163D01*
Y115837D01*
X143173Y117479D01*
X142533Y119026D01*
X141602Y120418D01*
X140418Y121602D01*
X139026Y122533D01*
X137479Y123173D01*
X135837Y123500D01*
D02*
G37*
G36*
X228719Y119299D02*
X227281D01*
X225871Y119019D01*
X224542Y118468D01*
X223347Y117670D01*
X222330Y116653D01*
X221532Y115457D01*
X220981Y114129D01*
X220701Y112719D01*
Y111281D01*
X220981Y109871D01*
X221532Y108543D01*
X222330Y107347D01*
X223347Y106330D01*
X224542Y105532D01*
X225871Y104981D01*
X227281Y104701D01*
X228719D01*
X230129Y104981D01*
X231457Y105532D01*
X232653Y106330D01*
X233670Y107347D01*
X234469Y108543D01*
X235019Y109871D01*
X235299Y111281D01*
Y112719D01*
X235019Y114129D01*
X234469Y115457D01*
X233670Y116653D01*
X232653Y117670D01*
X231457Y118468D01*
X230129Y119019D01*
X228719Y119299D01*
D02*
G37*
G36*
X112719D02*
X111281D01*
X109871Y119019D01*
X108543Y118468D01*
X107347Y117670D01*
X106330Y116653D01*
X105532Y115457D01*
X104981Y114129D01*
X104701Y112719D01*
Y111281D01*
X104981Y109871D01*
X105532Y108543D01*
X106330Y107347D01*
X107347Y106330D01*
X108543Y105532D01*
X109871Y104981D01*
X111281Y104701D01*
X112719D01*
X114129Y104981D01*
X115457Y105532D01*
X116653Y106330D01*
X117670Y107347D01*
X118468Y108543D01*
X119019Y109871D01*
X119299Y111281D01*
Y112719D01*
X119019Y114129D01*
X118468Y115457D01*
X117670Y116653D01*
X116653Y117670D01*
X115457Y118468D01*
X114129Y119019D01*
X112719Y119299D01*
D02*
G37*
%LPD*%
G36*
X213490Y252517D02*
Y252510D01*
X213480Y252527D01*
X213490Y252517D01*
D02*
G37*
G36*
X206577Y272626D02*
X206014Y271651D01*
X205722Y270563D01*
Y269684D01*
X204325Y271081D01*
X203829Y271413D01*
X203243Y271529D01*
X196086D01*
X196375Y271587D01*
X196872Y271919D01*
X198201Y273248D01*
X207199D01*
X206577Y272626D01*
D02*
G37*
G36*
X215919Y268675D02*
X216415Y268343D01*
X217000Y268227D01*
X217610D01*
X229778Y256059D01*
X229438Y256200D01*
X228963D01*
X219304Y265859D01*
X218808Y266191D01*
X218222Y266307D01*
X212159D01*
X212627Y266577D01*
X213423Y267373D01*
X213986Y268349D01*
X214278Y269437D01*
Y270316D01*
X215919Y268675D01*
D02*
G37*
D11*
X163963Y288762D02*
X164231Y288494D01*
Y286369D02*
Y288494D01*
X181418Y273000D02*
X195790D01*
X181209Y273209D02*
X181418Y273000D01*
X164231Y286369D02*
X181000Y269600D01*
X228000Y169812D02*
X229300Y171112D01*
Y253700D01*
X229000Y254000D02*
X229300Y253700D01*
X228000Y144000D02*
Y169812D01*
X109743Y213000D02*
Y221685D01*
X112000Y223942D01*
Y250000D01*
X109743Y176000D02*
Y213000D01*
X181000Y270000D02*
X203243D01*
X185000Y293000D02*
X185268Y293268D01*
X164000Y292000D02*
X165000D01*
X221000D02*
Y294000D01*
X217000Y269757D02*
X218244D01*
X234000Y254000D01*
X211979Y274778D02*
X217000Y269757D01*
X195790Y273000D02*
X197568Y274778D01*
X211979D01*
X181000Y269600D02*
Y270000D01*
X218222Y264778D02*
X229000Y254000D01*
X208466Y264778D02*
X218222D01*
X203243Y270000D02*
X208466Y264778D01*
X105000Y263000D02*
X112000Y270000D01*
X130000D01*
X105000Y257000D02*
Y263000D01*
Y257000D02*
X112000Y250000D01*
X109743Y213000D02*
X112000D01*
X109743Y141257D02*
Y176000D01*
X112000D01*
X109743Y141257D02*
X112000Y139000D01*
D27*
X153000Y224000D02*
X167000Y210000D01*
X120000Y165000D02*
X121000Y164000D01*
X119941Y164164D02*
X120105Y164000D01*
X121000D01*
X120000Y165000D02*
Y196000D01*
Y202000D01*
X121000Y203000D01*
Y236000D01*
Y266000D01*
X173000Y232000D02*
X190053D01*
X167000Y210000D02*
X210000D01*
X159000Y224000D02*
X163000Y220000D01*
X210000D01*
X190053Y232000D02*
X192053Y230000D01*
X210000D01*
X215122Y205121D02*
Y253997D01*
X210000Y200000D02*
X215122Y205121D01*
D28*
X135000Y295000D02*
D03*
X205000D02*
D03*
X135000Y115000D02*
D03*
X205000D02*
D03*
D29*
X210000Y130000D02*
D03*
Y140000D02*
D03*
Y150000D02*
D03*
Y160000D02*
D03*
Y170000D02*
D03*
Y180000D02*
D03*
Y190000D02*
D03*
Y200000D02*
D03*
Y210000D02*
D03*
Y220000D02*
D03*
Y230000D02*
D03*
Y240000D02*
D03*
Y250000D02*
D03*
Y260000D02*
D03*
Y270000D02*
D03*
Y280000D02*
D03*
X130000D02*
D03*
Y270000D02*
D03*
Y260000D02*
D03*
Y250000D02*
D03*
Y240000D02*
D03*
Y230000D02*
D03*
Y220000D02*
D03*
Y210000D02*
D03*
Y200000D02*
D03*
Y190000D02*
D03*
Y180000D02*
D03*
Y170000D02*
D03*
D30*
X181209Y273209D02*
D03*
X226000Y172000D02*
D03*
Y209000D02*
D03*
Y246000D02*
D03*
X112000Y258000D02*
D03*
X114000Y221000D02*
D03*
X113000Y184000D02*
D03*
X163963Y288762D02*
D03*
X151000Y300000D02*
D03*
X185000Y293000D02*
D03*
X165000Y292000D02*
D03*
X221000D02*
D03*
X234000Y254000D02*
D03*
X181000Y269600D02*
D03*
X119941Y164164D02*
D03*
X120000Y196000D02*
D03*
X121000Y266000D02*
D03*
Y236000D02*
D03*
X173000Y232000D02*
D03*
X153000Y224000D02*
D03*
X159000D02*
D03*
X215122Y253997D02*
D03*
X112000Y213000D02*
D03*
Y176000D02*
D03*
Y139000D02*
D03*
Y250000D02*
D03*
X229000Y180000D02*
D03*
Y217000D02*
D03*
Y254000D02*
D03*
X228000Y144000D02*
D03*
X227000Y135000D02*
D03*
X113000Y147000D02*
D03*
D31*
X112000Y112000D02*
D03*
X111000Y299000D02*
D03*
X228000Y112000D02*
D03*
X227000Y302000D02*
D03*
M02*
