0
SECTION
2
HEADER
9
$ACADVER
1
AC1027
9
$ACADMAINTVER
70
8
9
$DWGCODEPAGE
3
ANSI_1252
9
$LASTSAVEDBY
1
macc
9
$REQUIREDVERSIONS
160
0
9
$INSBASE
10
0.0
20
0.0
30
0.0
9
$EXTMIN
10
1.000000000000000E+20
20
1.000000000000000E+20
30
1.000000000000000E+20
9
$EXTMAX
10
-1.000000000000000E+20
20
-1.000000000000000E+20
30
-1.000000000000000E+20
9
$LIMMIN
10
0.0
20
0.0
9
$LIMMAX
10
12.0
20
9.0
9
$ORTHOMODE
70
0
9
$REGENMODE
70
1
9
$FILLMODE
70
1
9
$QTEXTMODE
70
0
9
$MIRRTEXT
70
0
9
$LTSCALE
40
1.0
9
$ATTMODE
70
1
9
$TEXTSIZE
40
0.2
9
$TRACEWID
40
0.05
9
$TEXTSTYLE
7
STANDARD
9
$CLAYER
8
0
9
$CELTYPE
6
ByLayer
9
$CECOLOR
62
256
9
$CELTSCALE
40
1.0
9
$DISPSILH
70
0
9
$DIMSCALE
40
1.0
9
$DIMASZ
40
0.18
9
$DIMEXO
40
0.0625
9
$DIMDLI
40
0.38
9
$DIMRND
40
0.0
9
$DIMDLE
40
0.0
9
$DIMEXE
40
0.18
9
$DIMTP
40
0.0
9
$DIMTM
40
0.0
9
$DIMTXT
40
0.18
9
$DIMCEN
40
0.09
9
$DIMTSZ
40
0.0
9
$DIMTOL
70
0
9
$DIMLIM
70
0
9
$DIMTIH
70
1
9
$DIMTOH
70
1
9
$DIMSE1
70
0
9
$DIMSE2
70
0
9
$DIMTAD
70
0
9
$DIMZIN
70
0
9
$DIMBLK
1

9
$DIMASO
70
1
9
$DIMSHO
70
1
9
$DIMPOST
1

9
$DIMAPOST
1

9
$DIMALT
70
0
9
$DIMALTD
70
2
9
$DIMALTF
40
25.4
9
$DIMLFAC
40
1.0
9
$DIMTOFL
70
0
9
$DIMTVP
40
0.0
9
$DIMTIX
70
0
9
$DIMSOXD
70
0
9
$DIMSAH
70
0
9
$DIMBLK1
1

9
$DIMBLK2
1

9
$DIMSTYLE
2
STANDARD
9
$DIMCLRD
70
0
9
$DIMCLRE
70
0
9
$DIMCLRT
70
0
9
$DIMTFAC
40
1.0
9
$DIMGAP
40
0.09
9
$DIMJUST
70
0
9
$DIMSD1
70
0
9
$DIMSD2
70
0
9
$DIMTOLJ
70
1
9
$DIMTZIN
70
0
9
$DIMALTZ
70
0
9
$DIMALTTZ
70
0
9
$DIMUPT
70
0
9
$DIMDEC
70
4
9
$DIMTDEC
70
4
9
$DIMALTU
70
2
9
$DIMALTTD
70
2
9
$DIMTXSTY
7
STANDARD
9
$DIMAUNIT
70
0
9
$DIMADEC
70
0
9
$DIMALTRND
40
0.0
9
$DIMAZIN
70
0
9
$DIMDSEP
70
46
9
$DIMATFIT
70
3
9
$DIMFRAC
70
0
9
$DIMLDRBLK
1

9
$DIMLUNIT
70
2
9
$DIMLWD
70
-2
9
$DIMLWE
70
-2
9
$DIMTMOVE
70
0
9
$DIMFXL
40
1.0
9
$DIMFXLON
70
0
9
$DIMJOGANG
40
0.7853981633974483
9
$DIMTFILL
70
0
9
$DIMTFILLCLR
70
0
9
$DIMARCSYM
70
0
9
$DIMLTYPE
6

9
$DIMLTEX1
6

9
$DIMLTEX2
6

9
$DIMTXTDIRECTION
70
0
9
$LUNITS
70
2
9
$LUPREC
70
4
9
$SKETCHINC
40
0.1
9
$FILLETRAD
40
0.0
9
$AUNITS
70
0
9
$AUPREC
70
0
9
$MENU
1
.
9
$ELEVATION
40
0.0
9
$PELEVATION
40
0.0
9
$THICKNESS
40
0.0
9
$LIMCHECK
70
0
9
$CHAMFERA
40
0.0
9
$CHAMFERB
40
0.0
9
$CHAMFERC
40
0.0
9
$CHAMFERD
40
0.0
9
$SKPOLY
70
0
9
$TDCREATE
40
2458312.067262384
9
$TDUCREATE
40
2458311.983929051
9
$TDUPDATE
40
2458312.961305069
9
$TDUUPDATE
40
2458312.877971736
9
$TDINDWG
40
0.0045230903
9
$TDUSRTIMER
40
0.0045219676
9
$USRTIMER
70
1
9
$ANGBASE
50
0.0
9
$ANGDIR
70
0
9
$PDMODE
70
0
9
$PDSIZE
40
0.0
9
$PLINEWID
40
0.0
9
$SPLFRAME
70
0
9
$SPLINETYPE
70
6
9
$SPLINESEGS
70
8
9
$HANDSEED
5
1058
9
$SURFTAB1
70
6
9
$SURFTAB2
70
6
9
$SURFTYPE
70
6
9
$SURFU
70
6
9
$SURFV
70
6
9
$UCSBASE
2

9
$UCSNAME
2

9
$UCSORG
10
0.0
20
0.0
30
0.0
9
$UCSXDIR
10
1.0
20
0.0
30
0.0
9
$UCSYDIR
10
0.0
20
1.0
30
0.0
9
$UCSORTHOREF
2

9
$UCSORTHOVIEW
70
0
9
$UCSORGTOP
10
0.0
20
0.0
30
0.0
9
$UCSORGBOTTOM
10
0.0
20
0.0
30
0.0
9
$UCSORGLEFT
10
0.0
20
0.0
30
0.0
9
$UCSORGRIGHT
10
0.0
20
0.0
30
0.0
9
$UCSORGFRONT
10
0.0
20
0.0
30
0.0
9
$UCSORGBACK
10
0.0
20
0.0
30
0.0
9
$PUCSBASE
2

9
$PUCSNAME
2

9
$PUCSORG
10
0.0
20
0.0
30
0.0
9
$PUCSXDIR
10
1.0
20
0.0
30
0.0
9
$PUCSYDIR
10
0.0
20
1.0
30
0.0
9
$PUCSORTHOREF
2

9
$PUCSORTHOVIEW
70
0
9
$PUCSORGTOP
10
0.0
20
0.0
30
0.0
9
$PUCSORGBOTTOM
10
0.0
20
0.0
30
0.0
9
$PUCSORGLEFT
10
0.0
20
0.0
30
0.0
9
$PUCSORGRIGHT
10
0.0
20
0.0
30
0.0
9
$PUCSORGFRONT
10
0.0
20
0.0
30
0.0
9
$PUCSORGBACK
10
0.0
20
0.0
30
0.0
9
$USERI1
70
0
9
$USERI2
70
0
9
$USERI3
70
0
9
$USERI4
70
0
9
$USERI5
70
0
9
$USERR1
40
0.0
9
$USERR2
40
0.0
9
$USERR3
40
0.0
9
$USERR4
40
0.0
9
$USERR5
40
0.0
9
$WORLDVIEW
70
1
9
$SHADEDGE
70
3
9
$SHADEDIF
70
70
9
$TILEMODE
70
1
9
$MAXACTVP
70
64
9
$PINSBASE
10
0.0
20
0.0
30
0.0
9
$PLIMCHECK
70
0
9
$PEXTMIN
10
0.0
20
0.0
30
0.0
9
$PEXTMAX
10
0.0
20
0.0
30
0.0
9
$PLIMMIN
10
0.0
20
0.0
9
$PLIMMAX
10
12.0
20
9.0
9
$UNITMODE
70
0
9
$VISRETAIN
70
1
9
$PLINEGEN
70
0
9
$PSLTSCALE
70
1
9
$TREEDEPTH
70
3020
9
$CMLSTYLE
2
Standard
9
$CMLJUST
70
0
9
$CMLSCALE
40
1.0
9
$PROXYGRAPHICS
70
1
9
$MEASUREMENT
70
0
9
$CELWEIGHT
370
-1
9
$ENDCAPS
280
0
9
$JOINSTYLE
280
0
9
$LWDISPLAY
290
0
9
$INSUNITS
70
0
9
$HYPERLINKBASE
1

9
$STYLESHEET
1

9
$XEDIT
290
1
9
$CEPSNTYPE
380
0
9
$PSTYLEMODE
290
1
9
$FINGERPRINTGUID
2
{4B4ED3CC-337F-6143-9B17-EFB0F3F01845}
9
$VERSIONGUID
2
{A4861B96-12DA-254C-ACF2-0C3CF0F63D02}
9
$EXTNAMES
290
1
9
$PSVPSCALE
40
0.0
9
$OLESTARTUP
290
0
9
$SORTENTS
280
127
9
$INDEXCTL
280
0
9
$HIDETEXT
280
0
9
$XCLIPFRAME
280
2
9
$HALOGAP
280
0
9
$OBSCOLOR
70
257
9
$OBSLTYPE
280
0
9
$INTERSECTIONDISPLAY
280
0
9
$INTERSECTIONCOLOR
70
257
9
$DIMASSOC
280
1
9
$PROJECTNAME
1

9
$CAMERADISPLAY
290
0
9
$LENSLENGTH
40
50.0
9
$CAMERAHEIGHT
40
0.0
9
$STEPSPERSEC
40
2.0
9
$STEPSIZE
40
6.0
9
$3DDWFPREC
40
2.0
9
$PSOLWIDTH
40
0.25
9
$PSOLHEIGHT
40
4.0
9
$LOFTANG1
40
1.570796326794896
9
$LOFTANG2
40
1.570796326794896
9
$LOFTMAG1
40
0.0
9
$LOFTMAG2
40
0.0
9
$LOFTPARAM
70
7
9
$LOFTNORMALS
280
1
9
$LATITUDE
40
37.795
9
$LONGITUDE
40
-122.394
9
$NORTHDIRECTION
40
0.0
9
$TIMEZONE
70
-8000
9
$LIGHTGLYPHDISPLAY
280
1
9
$TILEMODELIGHTSYNCH
280
1
9
$CMATERIAL
347
222
9
$SOLIDHIST
280
0
9
$SHOWHIST
280
1
9
$DWFFRAME
280
2
9
$DGNFRAME
280
0
9
$REALWORLDSCALE
290
1
9
$INTERFERECOLOR
62
1
9
$INTERFEREOBJVS
345
244
9
$INTERFEREVPVS
346
241
9
$CSHADOW
280
0
9
$SHADOWPLANELOCATION
40
0.0
0
ENDSEC
0
SECTION
2
CLASSES
0
CLASS
1
ACDBDICTIONARYWDFLT
2
AcDbDictionaryWithDefault
3
ObjectDBX Classes
90
0
91
1
280
0
281
0
0
CLASS
1
MATERIAL
2
AcDbMaterial
3
ObjectDBX Classes
90
1153
91
3
280
0
281
0
0
CLASS
1
VISUALSTYLE
2
AcDbVisualStyle
3
ObjectDBX Classes
90
4095
91
24
280
0
281
0
0
CLASS
1
SCALE
2
AcDbScale
3
ObjectDBX Classes
90
1153
91
17
280
0
281
0
0
CLASS
1
TABLESTYLE
2
AcDbTableStyle
3
ObjectDBX Classes
90
4095
91
1
280
0
281
0
0
CLASS
1
MLEADERSTYLE
2
AcDbMLeaderStyle
3
ACDB_MLEADERSTYLE_CLASS
90
4095
91
1
280
0
281
0
0
CLASS
1
ACDBSECTIONVIEWSTYLE
2
AcDbSectionViewStyle
3
ObjectDBX Classes
90
1025
91
1
280
0
281
0
0
CLASS
1
ACDBDETAILVIEWSTYLE
2
AcDbDetailViewStyle
3
ObjectDBX Classes
90
1025
91
1
280
0
281
0
0
CLASS
1
DICTIONARYVAR
2
AcDbDictionaryVar
3
ObjectDBX Classes
90
0
91
9
280
0
281
0
0
CLASS
1
CELLSTYLEMAP
2
AcDbCellStyleMap
3
ObjectDBX Classes
90
1152
91
2
280
0
281
0
0
ENDSEC
0
SECTION
2
TABLES
0
TABLE
2
VPORT
5
219
330
0
100
AcDbSymbolTable
70
1
0
VPORT
5
285
330
219
100
AcDbSymbolTableRecord
100
AcDbViewportTableRecord
2
*ACTIVE
70
0
10
0.0
20
0.0
11
1.0
21
1.0
12
60.85393284500712
22
1.602311788490737
13
0.0
23
0.0
14
0.5
24
0.5
15
0.5
25
0.5
16
0.0
26
0.0
36
1.0
17
0.0
27
0.0
37
0.0
40
135.7601553851812
41
1.367970660146699
42
50.0
43
0.0
44
0.0
50
0.0
51
0.0
71
0
72
1000
73
1
74
3
75
0
76
1
77
0
78
0
281
0
65
1
110
0.0
120
0.0
130
0.0
111
1.0
121
0.0
131
0.0
112
0.0
122
1.0
132
0.0
79
0
146
0.0
348
240
60
3
61
5
292
1
282
0
141
0.0
142
0.0
63
250
421
3355443
1001
ACAD_NAV_VCDISPLAY
1070
3
0
ENDTAB
0
TABLE
2
LTYPE
5
216
330
0
100
AcDbSymbolTable
70
2
0
LTYPE
5
26B
330
216
100
AcDbSymbolTableRecord
100
AcDbLinetypeTableRecord
2
ByBlock
70
0
3

72
65
73
0
40
0.0
0
LTYPE
5
26C
330
216
100
AcDbSymbolTableRecord
100
AcDbLinetypeTableRecord
2
ByLayer
70
0
3

72
65
73
0
40
0.0
0
LTYPE
5
26D
330
216
100
AcDbSymbolTableRecord
100
AcDbLinetypeTableRecord
2
CONTINUOUS
70
0
3
Solid line
72
65
73
0
40
0.0
0
LTYPE
5
103D
330
216
100
AcDbSymbolTableRecord
100
AcDbLinetypeTableRecord
2
DOTTED
70
0
3
Dotted . . . . . . . . . . . . . . . . . . . .
72
65
73
2
40
3.0
49
0.0
74
0
49
-3.0
74
0
0
ENDTAB
0
TABLE
2
LAYER
5
213
102
{ACAD_XDICTIONARY
360
297
102
}
330
0
100
AcDbSymbolTable
70
4
0
LAYER
5
265
102
{ACAD_XDICTIONARY
360
292
102
}
330
213
100
AcDbSymbolTableRecord
100
AcDbLayerTableRecord
2
0
70
0
62
7
6
CONTINUOUS
370
-3
390
220
347
232
348
0
0
LAYER
5
2FB
330
213
100
AcDbSymbolTableRecord
100
AcDbLayerTableRecord
2
gear
70
0
62
7
6
CONTINUOUS
370
-3
390
220
347
232
348
0
1001
AcAecLayerStandard
1000

1000

1001
AcCmTransparency
1071
0
0
LAYER
5
2FE
330
213
100
AcDbSymbolTableRecord
100
AcDbLayerTableRecord
2
gear_texts
70
0
62
7
6
CONTINUOUS
370
-3
390
220
347
232
348
0
1001
AcAecLayerStandard
1000

1000

1001
AcCmTransparency
1071
0
0
LAYER
5
2FF
330
213
100
AcDbSymbolTableRecord
100
AcDbLayerTableRecord
2
gear_guides
70
0
62
5
6
CONTINUOUS
370
-3
390
220
347
232
348
0
1001
AcAecLayerStandard
1000

1000

1001
AcCmTransparency
1071
0
0
ENDTAB
0
TABLE
2
STYLE
5
214
330
0
100
AcDbSymbolTable
70
3
0
STYLE
5
266
330
214
100
AcDbSymbolTableRecord
100
AcDbTextStyleTableRecord
2
STANDARD
70
0
40
0.0
41
1.0
50
0.0
71
0
42
0.2
3
txt
4

0
STYLE
5
26A
330
214
100
AcDbSymbolTableRecord
100
AcDbTextStyleTableRecord
2
ANNOTATIVE
70
0
40
0.0
41
1.0
50
0.0
71
0
42
0.2
3
txt
4

1001
ACADANNOTATIVE
1000
AnnotativeData
1002
{
1070
1
1070
1
1002
}
0
STYLE
5
301
330
214
100
AcDbSymbolTableRecord
100
AcDbTextStyleTableRecord
2

70
1
40
0.0
41
1.0
50
0.0
71
0
42
0.2
3
ltypeshp.shx
4

0
ENDTAB
0
TABLE
2
VIEW
5
217
330
0
100
AcDbSymbolTable
70
1
0
ENDTAB
0
TABLE
2
UCS
5
218
330
0
100
AcDbSymbolTable
70
0
0
ENDTAB
0
TABLE
2
APPID
5
21A
330
0
100
AcDbSymbolTable
70
10
0
APPID
5
267
330
21A
100
AcDbSymbolTableRecord
100
AcDbRegAppTableRecord
2
ACAD
70
0
0
APPID
5
26E
330
21A
100
AcDbSymbolTableRecord
100
AcDbRegAppTableRecord
2
ACADANNOTATIVE
70
0
0
APPID
5
286
330
21A
100
AcDbSymbolTableRecord
100
AcDbRegAppTableRecord
2
ACADANNOPO
70
0
0
APPID
5
287
330
21A
100
AcDbSymbolTableRecord
100
AcDbRegAppTableRecord
2
ACAD_DSTYLE_DIMJAG
70
0
0
APPID
5
288
330
21A
100
AcDbSymbolTableRecord
100
AcDbRegAppTableRecord
2
ACAD_DSTYLE_DIMTALN
70
0
0
APPID
5
289
330
21A
100
AcDbSymbolTableRecord
100
AcDbRegAppTableRecord
2
ACAD_MLEADERVER
70
0
0
APPID
5
28A
330
21A
100
AcDbSymbolTableRecord
100
AcDbRegAppTableRecord
2
ACAD_NAV_VCDISPLAY
70
0
0
APPID
5
2E7
330
21A
100
AcDbSymbolTableRecord
100
AcDbRegAppTableRecord
2
ACAD_EXEMPT_FROM_CAD_STANDARDS
70
0
0
APPID
5
2FC
330
21A
100
AcDbSymbolTableRecord
100
AcDbRegAppTableRecord
2
AcAecLayerStandard
70
0
0
APPID
5
2FD
330
21A
100
AcDbSymbolTableRecord
100
AcDbRegAppTableRecord
2
AcCmTransparency
70
0
0
ENDTAB
0
TABLE
2
DIMSTYLE
5
21B
330
0
100
AcDbSymbolTable
70
2
100
AcDbDimStyleTable
71
1
340
268
0
DIMSTYLE
105
268
330
21B
100
AcDbSymbolTableRecord
100
AcDbDimStyleTableRecord
2
STANDARD
70
0
279
2
340
266
0
DIMSTYLE
105
269
330
21B
100
AcDbSymbolTableRecord
100
AcDbDimStyleTableRecord
2
ANNOTATIVE
70
0
40
0.0
279
2
340
266
1001
ACADANNOTATIVE
1000
AnnotativeData
1002
{
1070
1
1070
1
1002
}
0
ENDTAB
0
TABLE
2
BLOCK_RECORD
5
212
330
0
100
AcDbSymbolTable
70
2
0
BLOCK_RECORD
5
281
330
212
100
AcDbSymbolTableRecord
100
AcDbBlockTableRecord
2
*Model_Space
340
284
70
0
280
1
281
0
0
BLOCK_RECORD
5
27D
330
212
100
AcDbSymbolTableRecord
100
AcDbBlockTableRecord
2
*Paper_Space
340
280
70
0
280
1
281
0
0
BLOCK_RECORD
5
28C
330
212
100
AcDbSymbolTableRecord
100
AcDbBlockTableRecord
2
$MODEL_SPACE
340
0
70
0
280
1
281
0
0
BLOCK_RECORD
5
28E
330
212
100
AcDbSymbolTableRecord
100
AcDbBlockTableRecord
2
$PAPER_SPACE
340
0
70
0
280
1
281
0
0
ENDTAB
0
ENDSEC
0
SECTION
2
BLOCKS
0
BLOCK
5
282
330
281
100
AcDbEntity
8
0
100
AcDbBlockBegin
2
*Model_Space
70
0
10
0.0
20
0.0
30
0.0
3
*Model_Space
1

0
ENDBLK
5
283
330
281
100
AcDbEntity
8
0
100
AcDbBlockEnd
0
BLOCK
5
27E
330
27D
100
AcDbEntity
67
1
8
0
100
AcDbBlockBegin
2
*Paper_Space
70
0
10
0.0
20
0.0
30
0.0
3
*Paper_Space
1

0
ENDBLK
5
27F
330
27D
100
AcDbEntity
67
1
8
0
100
AcDbBlockEnd
0
BLOCK
5
28D
330
28C
100
AcDbEntity
8
0
100
AcDbBlockBegin
2
$MODEL_SPACE
70
0
10
0.0
20
0.0
30
0.0
3
$MODEL_SPACE
1

0
ENDBLK
5
21
330
28C
100
AcDbEntity
8
0
100
AcDbBlockEnd
0
BLOCK
5
28F
330
28E
100
AcDbEntity
8
0
100
AcDbBlockBegin
2
$PAPER_SPACE
70
0
10
0.0
20
0.0
30
0.0
3
$PAPER_SPACE
1

0
ENDBLK
5
5B
330
28E
100
AcDbEntity
8
0
100
AcDbBlockEnd
0
ENDSEC
0
SECTION
2
ENTITIES
0
LWPOLYLINE
5
1000
100
AcDbEntity
100
AcDbPolyline
90
2624
70
1
43
0
10
3.7125
20
0
10
3.7139577
20
0.0296921
10
3.725055
20
0.0331091
10
3.7365183
20
0.0367762
10
3.7483434
20
0.0407017
10
3.760526
20
0.044894
10
3.7730616
20
0.0493612
10
3.7859456
20
0.0541116
10
3.7991734
20
0.0591532
10
3.81274
20
0.0644943
10
3.8266403
20
0.0701426
10
3.8408694
20
0.0761061
10
3.8554219
20
0.0823926
10
3.8702925
20
0.0890099
10
3.8854755
20
0.0959657
10
3.9009653
20
0.1032675
10
3.9167562
20
0.1109228
10
3.9328422
20
0.118939
10
3.9492173
20
0.1273235
10
3.9658753
20
0.1360835
10
3.9828099
20
0.1452262
10
4.0000148
20
0.1547585
10
4.0174834
20
0.1646875
10
4.035209
20
0.17502
10
4.0531848
20
0.1857629
10
4.0714041
20
0.1969226
10
4.0898597
20
0.2085059
10
4.1085446
20
0.2205191
10
4.1274516
20
0.2329687
10
4.1465733
20
0.2458608
10
4.1659022
20
0.2592017
10
4.1854309
20
0.2729972
10
4.2051516
20
0.2872534
10
4.2250565
20
0.3019761
10
4.2350756
20
0.3095141
10
4.2375872
20
0.3114171
10
4.2382155
20
0.3118941
10
4.2383726
20
0.3120134
10
4.2384512
20
0.312073
10
4.2384904
20
0.3121029
10
4.2385226
20
0.3121322
10
4.2297904
20
0.4139722
10
4.2297538
20
0.4139956
10
4.22971
20
0.4140183
10
4.2296224
20
0.4140637
10
4.2294473
20
0.4141546
10
4.228747
20
0.4145176
10
4.2259481
20
0.4159653
10
4.214792
20
0.4216876
10
4.1926713
20
0.4328069
10
4.1708115
20
0.4434978
10
4.1492194
20
0.4537675
10
4.1279015
20
0.4636232
10
4.1068643
20
0.4730719
10
4.0861139
20
0.4821211
10
4.0656567
20
0.4907782
10
4.0454985
20
0.4990505
10
4.0256454
20
0.5069458
10
4.0061031
20
0.5144717
10
3.9868773
20
0.5216359
10
3.9679734
20
0.5284462
10
3.949397
20
0.5349105
10
3.9311531
20
0.5410368
10
3.913247
20
0.5468332
10
3.8956836
20
0.5523076
10
3.8784677
20
0.5574685
10
3.8616041
20
0.5623238
10
3.8450974
20
0.5668821
10
3.8289518
20
0.5711516
10
3.8131719
20
0.5751409
10
3.7977616
20
0.5788583
10
3.782725
20
0.5823125
10
3.768066
20
0.585512
10
3.7537882
20
0.5884655
10
3.7398953
20
0.5911818
10
3.7263906
20
0.5936695
10
3.7132775
20
0.5959375
10
3.700559
20
0.5979946
10
3.6882383
20
0.5998498
10
3.6763181
20
0.6015119
10
3.664801
20
0.6029899
10
3.65831
20
0.6320004
10
3.6411654
20
0.7242728
10
3.6368024
20
0.7536788
10
3.6470198
20
0.7591951
10
3.6575475
20
0.7650281
10
3.6683795
20
0.7711852
10
3.6795102
20
0.7776736
10
3.6909334
20
0.7845005
10
3.7026431
20
0.7916732
10
3.7146331
20
0.7991986
10
3.726897
20
0.8070837
10
3.7394284
20
0.8153353
10
3.7522206
20
0.8239602
10
3.7652671
20
0.832965
10
3.7785609
20
0.8423562
10
3.7920952
20
0.8521404
10
3.8058629
20
0.8623238
10
3.8198569
20
0.8729127
10
3.8340699
20
0.8839131
10
3.8484946
20
0.8953311
10
3.8631235
20
0.9071726
10
3.8779491
20
0.9194434
10
3.8929637
20
0.932149
10
3.9081596
20
0.9452952
10
3.9235288
20
0.9588873
10
3.9390635
20
0.9729306
10
3.9547555
20
0.9874303
10
3.9705967
20
1.0023916
10
3.986579
20
1.0178192
10
4.0026939
20
1.0337181
10
4.018933
20
1.050093
10
4.0352878
20
1.0669484
10
4.0517499
20
1.0842887
10
4.0683104
20
1.1021183
10
4.0849606
20
1.1204413
10
4.0933166
20
1.1297892
10
4.0954087
20
1.1321456
10
4.0959319
20
1.1327359
10
4.0960627
20
1.1328836
10
4.0961281
20
1.1329574
10
4.0961608
20
1.1329944
10
4.0961866
20
1.1330294
10
4.0677542
20
1.231209
10
4.0677137
20
1.2312248
10
4.0676663
20
1.2312386
10
4.0675716
20
1.231266
10
4.0673821
20
1.2313209
10
4.0666244
20
1.2315403
10
4.0635969
20
1.2324142
10
4.0515388
20
1.2358502
10
4.0276738
20
1.2424402
10
4.0041484
20
1.2486611
10
3.9809677
20
1.2545211
10
3.9581367
20
1.2600284
10
3.9356603
20
1.2651914
10
3.9135432
20
1.2700186
10
3.8917901
20
1.2745183
10
3.8704055
20
1.278699
10
3.8493935
20
1.2825695
10
3.8287585
20
1.2861382
10
3.8085044
20
1.289414
10
3.7886352
20
1.2924054
10
3.7691545
20
1.2951215
10
3.7500661
20
1.2975709
10
3.7313732
20
1.2997625
10
3.7130792
20
1.3017054
10
3.6951873
20
1.3034084
10
3.6777005
20
1.3048805
10
3.6606217
20
1.3061309
10
3.6439535
20
1.3071686
10
3.6276984
20
1.3080026
10
3.611859
20
1.3086422
10
3.5964375
20
1.3090965
10
3.5814359
20
1.3093748
10
3.5668563
20
1.3094861
10
3.5527004
20
1.3094398
10
3.5389699
20
1.3092451
10
3.5256662
20
1.3089112
10
3.5127909
20
1.3084476
10
3.5003449
20
1.3078634
10
3.4883295
20
1.3071681
10
3.4767454
20
1.3063708
10
3.4647194
20
1.3335576
10
3.4299028
20
1.4207122
10
3.4198868
20
1.448702
10
3.4288318
20
1.4561057
10
3.4380191
20
1.4638804
10
3.4474419
20
1.4720324
10
3.4570928
20
1.4805676
10
3.4669647
20
1.4894919
10
3.4770501
20
1.4988112
10
3.4873416
20
1.5085312
10
3.4978315
20
1.5186573
10
3.5085123
20
1.5291951
10
3.5193761
20
1.54015
10
3.5304151
20
1.551527
10
3.5416214
20
1.5633313
10
3.5529868
20
1.5755678
10
3.5645032
20
1.5882415
10
3.5761626
20
1.601357
10
3.5879564
20
1.6149189
10
3.5998764
20
1.6289316
10
3.6119141
20
1.6433995
10
3.6240609
20
1.6583269
10
3.6363083
20
1.6737176
10
3.6486475
20
1.6895757
10
3.6610697
20
1.7059051
10
3.6735661
20
1.7227092
10
3.6861279
20
1.7399917
10
3.6987459
20
1.7577559
10
3.7114113
20
1.7760051
10
3.7241148
20
1.7947424
10
3.7368473
20
1.8139707
10
3.7495996
20
1.8336929
10
3.7623624
20
1.8539116
10
3.7751263
20
1.8746294
10
3.787882
20
1.8958487
10
3.7942538
20
1.906647
10
3.7958459
20
1.9093663
10
3.7962439
20
1.9100474
10
3.7963434
20
1.9102177
10
3.7963931
20
1.9103029
10
3.796418
20
1.9103455
10
3.7964364
20
1.9103849
10
3.7493965
20
2.0011312
10
3.7493537
20
2.0011388
10
3.7493045
20
2.001143
10
3.7492063
20
2.0011515
10
3.7490097
20
2.0011683
10
3.7482238
20
2.0012357
10
3.745084
20
2.0015021
10
3.7325872
20
2.0025197
10
3.7078951
20
2.0043272
10
3.6836081
20
2.005839
10
3.6597296
20
2.0070641
10
3.6362628
20
2.0080115
10
3.6132111
20
2.0086904
10
3.5905773
20
2.0091099
10
3.5683643
20
2.0092793
10
3.5465749
20
2.0092078
10
3.5252116
20
2.0089047
10
3.5042769
20
2.0083792
10
3.4837729
20
2.0076406
10
3.4637019
20
2.0066983
10
3.4440656
20
2.0055616
10
3.4248661
20
2.00424
10
3.4061048
20
2.0027427
10
3.3877833
20
2.0010793
10
3.369903
20
1.999259
10
3.352465
20
1.9972914
10
3.3354704
20
1.9951858
10
3.31892
20
1.9929517
10
3.3028146
20
1.9905986
10
3.2871547
20
1.9881358
10
3.2719409
20
1.9855728
10
3.2571733
20
1.982919
10
3.2428521
20
1.9801838
10
3.2289772
20
1.9773767
10
3.2155485
20
1.974507
10
3.2025656
20
1.9715842
10
3.1900281
20
1.9686176
10
3.1779353
20
1.9656166
10
3.1662864
20
1.9625905
10
3.1550804
20
1.9595486
10
3.1379816
20
1.9838669
10
3.0868309
20
2.0625545
10
3.0715469
20
2.0880524
10
3.0788756
20
2.0970589
10
3.0863696
20
2.1064766
10
3.094021
20
2.1163103
10
3.1018213
20
2.1265643
10
3.1097625
20
2.137243
10
3.117836
20
2.1483508
10
3.1260334
20
2.1598918
10
3.1343463
20
2.1718698
10
3.142766
20
2.1842889
10
3.1512839
20
2.1971526
10
3.1598913
20
2.2104646
10
3.1685793
20
2.2242283
10
3.1773391
20
2.2384471
10
3.1861618
20
2.253124
10
3.1950383
20
2.2682621
10
3.2039598
20
2.2838642
10
3.212917
20
2.2999332
10
3.2219008
20
2.3164716
10
3.2309021
20
2.3334818
10
3.2399115
20
2.3509662
10
3.2489198
20
2.3689268
10
3.2579177
20
2.3873658
10
3.2668957
20
2.406285
10
3.2758444
20
2.4256861
10
3.2847544
20
2.4455706
10
3.2936162
20
2.4659401
10
3.3024201
20
2.4867956
10
3.3111567
20
2.5081385
10
3.3198164
20
2.5299696
10
3.3283895
20
2.5522897
10
3.3368663
20
2.5750995
10
3.3452372
20
2.5983996
10
3.3493799
20
2.6102335
10
3.3504109
20
2.6132112
10
3.3506683
20
2.6139568
10
3.3507327
20
2.6141433
10
3.3507649
20
2.6142365
10
3.3507809
20
2.6142832
10
3.3507914
20
2.6143254
10
3.2869516
20
2.694151
10
3.2869081
20
2.6941501
10
3.2868591
20
2.6941446
10
3.286761
20
2.6941337
10
3.286565
20
2.694112
10
3.285781
20
2.6940247
10
3.2826495
20
2.6936735
10
3.2701944
20
2.6922334
10
3.2456241
20
2.6891891
10
3.2215088
20
2.6859337
10
3.1978501
20
2.6824767
10
3.1746495
20
2.6788278
10
3.1519082
20
2.6749965
10
3.1296274
20
2.6709923
10
3.1078082
20
2.6668249
10
3.0864515
20
2.6625039
10
3.0655578
20
2.6580388
10
3.0451278
20
2.6534392
10
3.0251619
20
2.6487147
10
3.0056604
20
2.6438749
10
2.9866232
20
2.6389292
10
2.9680504
20
2.6338873
10
2.9499417
20
2.6287587
10
2.9322968
20
2.6235528
10
2.9151152
20
2.6182793
10
2.8983961
20
2.6129475
10
2.8821388
20
2.6075669
10
2.8663423
20
2.6021469
10
2.8510054
20
2.596697
10
2.8361269
20
2.5912264
10
2.8217054
20
2.5857445
10
2.8077393
20
2.5802607
10
2.7942269
20
2.5747842
10
2.7811663
20
2.5693242
10
2.7685554
20
2.5638898
10
2.7563922
20
2.5584904
10
2.7446744
20
2.5531348
10
2.7333994
20
2.5478323
10
2.7225647
20
2.5425917
10
2.7121675
20
2.5374221
10
2.6906529
20
2.5579373
10
2.6251339
20
2.6251339
10
2.6051692
20
2.6471602
10
2.6106
20
2.6574234
10
2.6161127
20
2.6681221
10
2.6216986
20
2.6792595
10
2.6273486
20
2.6908382
10
2.6330538
20
2.7028611
10
2.6388052
20
2.7153305
10
2.6445936
20
2.7282489
10
2.6504099
20
2.7416186
10
2.6562451
20
2.7554416
10
2.6620897
20
2.7697199
10
2.6679346
20
2.7844554
10
2.6737705
20
2.7996496
10
2.679588
20
2.8153041
10
2.6853779
20
2.8314202
10
2.6911306
20
2.8479991
10
2.6968368
20
2.865042
10
2.702487
20
2.8825496
10
2.7080717
20
2.9005229
10
2.7135815
20
2.9189623
10
2.7190068
20
2.9378684
10
2.7243381
20
2.9572414
10
2.7295658
20
2.9770815
10
2.7346803
20
2.9973887
10
2.7396721
20
3.0181628
10
2.7445316
20
3.0394035
10
2.7492492
20
3.0611104
10
2.7538153
20
3.0832828
10
2.7582202
20
3.1059199
10
2.7624545
20
3.129021
10
2.7665084
20
3.1525847
10
2.7703723
20
3.17661
10
2.7740368
20
3.2010955
10
2.7757912
20
3.2135102
10
2.7762215
20
3.2166318
10
2.7763285
20
3.2174133
10
2.7763552
20
3.2176088
10
2.7763686
20
3.2177065
10
2.7763753
20
3.2177554
10
2.7763773
20
3.2177988
10
2.6981909
20
3.283636
10
2.6981485
20
3.2836267
10
2.6981015
20
3.2836118
10
2.6980074
20
3.283582
10
2.6978194
20
3.2835224
10
2.6970675
20
3.2832839
10
2.6940647
20
3.2823284
10
2.6821298
20
3.2784862
10
2.6586256
20
3.2707069
10
2.6356088
20
3.2628094
10
2.6130791
20
3.2548033
10
2.5910361
20
3.2466983
10
2.5694792
20
3.2385039
10
2.5484078
20
3.23023
10
2.5278208
20
3.221886
10
2.5077174
20
3.2134815
10
2.4880963
20
3.205026
10
2.4689563
20
3.1965291
10
2.4502957
20
3.1880002
10
2.4321131
20
3.1794488
10
2.4144065
20
3.1708842
10
2.3971742
20
3.1623158
10
2.380414
20
3.1537529
10
2.3641238
20
3.1452047
10
2.3483011
20
3.1366805
10
2.3329435
20
3.1281895
10
2.3180482
20
3.1197406
10
2.3036126
20
3.111343
10
2.2896337
20
3.1030057
10
2.2761084
20
3.0947376
10
2.2630334
20
3.0865476
10
2.2504055
20
3.0784445
10
2.2382211
20
3.0704371
10
2.2264767
20
3.0625339
10
2.2151683
20
3.0547438
10
2.2042922
20
3.0470751
10
2.1938443
20
3.0395365
10
2.1838205
20
3.0321362
10
2.1742163
20
3.0248826
10
2.1650274
20
3.0177839
10
2.139924
20
3.0337076
10
2.0625545
20
3.0868309
10
2.0386763
20
3.104539
10
2.0420004
20
3.1156645
10
2.04532
20
3.1272332
10
2.0486258
20
3.1392463
10
2.0519083
20
3.1517048
10
2.0551584
20
3.1646097
10
2.0583666
20
3.1779615
10
2.0615235
20
3.191761
10
2.0646198
20
3.2060085
10
2.0676461
20
3.2207043
10
2.0705928
20
3.2358485
10
2.0734507
20
3.2514411
10
2.0762102
20
3.2674818
10
2.0788619
20
3.2839705
10
2.0813964
20
3.3009064
10
2.0838042
20
3.3182891
10
2.0860759
20
3.3361177
10
2.0882019
20
3.3543913
10
2.090173
20
3.3731087
10
2.0919795
20
3.3922688
10
2.0936122
20
3.41187
10
2.0950615
20
3.4319108
10
2.0963181
20
3.4523896
10
2.0973727
20
3.4733043
10
2.0982157
20
3.4946531
10
2.098838
20
3.5164337
10
2.0992302
20
3.5386439
10
2.0993829
20
3.5612811
10
2.0992869
20
3.5843426
10
2.098933
20
3.6078258
10
2.0983119
20
3.6317277
10
2.0974145
20
3.6560452
10
2.0962317
20
3.680775
10
2.0955304
20
3.6932935
10
2.0953434
20
3.6964391
10
2.0952959
20
3.6972265
10
2.095284
20
3.6974234
10
2.0952781
20
3.6975218
10
2.0952751
20
3.6975711
10
2.0952686
20
3.6976141
10
2.0057403
20
3.7469328
10
2.0057005
20
3.7469154
10
2.0056573
20
3.7468916
10
2.0055709
20
3.746844
10
2.0053981
20
3.7467489
10
2.0047072
20
3.7463682
10
2.0019485
20
3.7448454
10
1.9909925
20
3.7387486
10
1.9694576
20
3.7265334
10
1.9484238
20
3.7142972
10
1.9278889
20
3.7020496
10
1.9078507
20
3.6897999
10
1.8883066
20
3.6775575
10
1.8692542
20
3.6653317
10
1.8506907
20
3.6531317
10
1.8326132
20
3.6409667
10
1.8150187
20
3.6288458
10
1.7979041
20
3.6167782
10
1.781266
20
3.6047727
10
1.765101
20
3.5928383
10
1.7494056
20
3.5809839
10
1.734176
20
3.5692183
10
1.7194084
20
3.5575502
10
1.7050988
20
3.5459882
10
1.6912431
20
3.5345409
10
1.6778371
20
3.5232169
10
1.6648764
20
3.5120244
10
1.6523564
20
3.500972
10
1.6402726
20
3.4900677
10
1.6286202
20
3.4793198
10
1.6173943
20
3.4687364
10
1.6065899
20
3.4583254
10
1.5962018
20
3.4480947
10
1.5862248
20
3.4380523
10
1.5766535
20
3.4282056
10
1.5674825
20
3.4185625
10
1.5587061
20
3.4091304
10
1.5503185
20
3.3999168
10
1.542314
20
3.3909288
10
1.5346866
20
3.3821739
10
1.506959
20
3.3928942
10
1.4207122
20
3.4299028
10
1.3938381
20
3.4426122
10
1.394928
20
3.4541724
10
1.3959269
20
3.4661664
10
1.3968254
20
3.4785936
10
1.3976144
20
3.4914532
10
1.3982844
20
3.5047441
10
1.3988261
20
3.5184653
10
1.3992302
20
3.5326155
10
1.3994875
20
3.5471933
10
1.3995886
20
3.5621971
10
1.3995242
20
3.5776252
10
1.3992852
20
3.5934757
10
1.3988623
20
3.6097466
10
1.3982463
20
3.6264357
10
1.3974281
20
3.6435408
10
1.3963984
20
3.6610592
10
1.3951482
20
3.6789884
10
1.3936684
20
3.6973256
10
1.39195
20
3.7160679
10
1.3899839
20
3.7352122
10
1.3877612
20
3.7547553
10
1.3852729
20
3.7746938
10
1.3825102
20
3.7950242
10
1.3794642
20
3.8157429
10
1.3761261
20
3.8368459
10
1.3724872
20
3.8583294
10
1.3685389
20
3.8801893
10
1.3642723
20
3.9024213
10
1.3596791
20
3.9250211
10
1.3547507
20
3.947984
10
1.3494785
20
3.9713054
10
1.3438543
20
3.9949806
10
1.3378696
20
4.0190045
10
1.3347395
20
4.0311456
10
1.3339425
20
4.0341943
10
1.3337423
20
4.0349573
10
1.3336922
20
4.0351481
10
1.3336672
20
4.0352435
10
1.3336546
20
4.0352912
10
1.3336398
20
4.0353321
10
1.2362103
20
4.0662371
10
1.2361746
20
4.0662122
10
1.2361369
20
4.0661805
10
1.2360614
20
4.0661169
10
1.2359105
20
4.0659899
10
1.2353071
20
4.0654818
10
1.2328985
20
4.06345
10
1.2233425
20
4.0553329
10
1.2046044
20
4.0391512
10
1.1863619
20
4.0230467
10
1.168611
20
4.0070282
10
1.1513476
20
3.9911046
10
1.1345675
20
3.9752846
10
1.1182663
20
3.9595768
10
1.1024396
20
3.9439896
10
1.0870827
20
3.9285317
10
1.0721909
20
3.9132112
10
1.0577594
20
3.8980365
10
1.0437832
20
3.8830157
10
1.0302571
20
3.868157
10
1.0171759
20
3.8534684
10
1.0045343
20
3.8389577
10
0.9923268
20
3.8246328
10
0.9805478
20
3.8105013
10
0.9691916
20
3.7965709
10
0.9582524
20
3.782849
10
0.9477243
20
3.7693431
10
0.9376011
20
3.7560605
10
0.9278768
20
3.7430083
10
0.9185451
20
3.7301937
10
0.9095996
20
3.7176235
10
0.9010339
20
3.7053048
10
0.8928413
20
3.6932441
10
0.8850152
20
3.6814482
10
0.8775488
20
3.6699235
10
0.8704353
20
3.6586765
10
0.8636676
20
3.6477134
10
0.8572387
20
3.6370404
10
0.8511415
20
3.6266636
10
0.8453686
20
3.6165889
10
0.8160824
20
3.6216938
10
0.7242728
20
3.6411654
10
0.6954356
20
3.6483877
10
0.6942492
20
3.6599384
10
0.692889
20
3.6718968
10
0.6913459
20
3.6842605
10
0.6896109
20
3.6970269
10
0.6876751
20
3.7101932
10
0.6855295
20
3.7237564
10
0.6831653
20
3.7377136
10
0.6805736
20
3.7520614
10
0.6777457
20
3.7667967
10
0.6746727
20
3.7819158
10
0.671346
20
3.7974151
10
0.667757
20
3.8132908
10
0.6638969
20
3.8295391
10
0.6597573
20
3.8461558
10
0.6553298
20
3.8631368
10
0.6506058
20
3.8804776
10
0.645577
20
3.8981738
10
0.6402352
20
3.9162207
10
0.634572
20
3.9346136
10
0.6285793
20
3.9533475
10
0.622249
20
3.9724175
10
0.6155731
20
3.9918183
10
0.6085437
20
4.0115446
10
0.6011527
20
4.0315909
10
0.5933925
20
4.0519517
10
0.5852554
20
4.0726213
10
0.5767336
20
4.0935937
10
0.5678196
20
4.1148631
10
0.558506
20
4.1364233
10
0.5487854
20
4.1582681
10
0.5386504
20
4.1803911
10
0.5280939
20
4.2027859
10
0.5226554
20
4.2140831
10
0.5212789
20
4.2169176
10
0.5209337
20
4.2176269
10
0.5208474
20
4.2178043
10
0.5208042
20
4.2178929
10
0.5207826
20
4.2179373
10
0.5207601
20
4.2179745
10
0.4191733
20
4.2292782
10
0.4191432
20
4.2292468
10
0.4191124
20
4.2292083
10
0.4190508
20
4.2291313
10
0.4189275
20
4.2289772
10
0.4184349
20
4.2283612
10
0.416469
20
4.2258985
10
0.4086801
20
4.2160731
10
0.393459
20
4.1965467
10
0.3787088
20
4.1771927
10
0.364424
20
4.158019
10
0.3505989
20
4.1390335
10
0.3372275
20
4.1202438
10
0.324304
20
4.1016576
10
0.3118223
20
4.0832823
10
0.2997762
20
4.0651253
10
0.2881594
20
4.047194
10
0.2769657
20
4.0294954
10
0.2661884
20
4.0120367
10
0.255821
20
3.9948247
10
0.2458568
20
3.9778663
10
0.236289
20
3.9611681
10
0.2271107
20
3.9447369
10
0.218315
20
3.928579
10
0.2098947
20
3.9127007
10
0.2018426
20
3.8971084
10
0.1941517
20
3.8818081
10
0.1868143
20
3.8668058
10
0.1798232
20
3.8521073
10
0.1731708
20
3.8377183
10
0.1668495
20
3.8236445
10
0.1608517
20
3.8098914
10
0.1551694
20
3.7964641
10
0.149795
20
3.7833681
10
0.1447204
20
3.7706082
10
0.1399378
20
3.7581895
10
0.1354389
20
3.7461168
10
0.1312158
20
3.7343947
10
0.1272601
20
3.7230278
10
0.1235636
20
3.7120204
10
0.0938442
20
3.7113137
10
0
20
3.7125
10
-0.0296921
20
3.7139577
10
-0.0331091
20
3.725055
10
-0.0367762
20
3.7365183
10
-0.0407017
20
3.7483434
10
-0.044894
20
3.760526
10
-0.0493612
20
3.7730616
10
-0.0541116
20
3.7859456
10
-0.0591532
20
3.7991734
10
-0.0644943
20
3.81274
10
-0.0701426
20
3.8266403
10
-0.0761061
20
3.8408694
10
-0.0823926
20
3.8554219
10
-0.0890099
20
3.8702925
10
-0.0959657
20
3.8854755
10
-0.1032675
20
3.9009653
10
-0.1109228
20
3.9167562
10
-0.118939
20
3.9328422
10
-0.1273235
20
3.9492173
10
-0.1360835
20
3.9658753
10
-0.1452262
20
3.9828099
10
-0.1547585
20
4.0000148
10
-0.1646875
20
4.0174834
10
-0.17502
20
4.035209
10
-0.1857629
20
4.0531848
10
-0.1969226
20
4.0714041
10
-0.2085059
20
4.0898597
10
-0.2205191
20
4.1085446
10
-0.2329687
20
4.1274516
10
-0.2458608
20
4.1465733
10
-0.2592017
20
4.1659022
10
-0.2729972
20
4.1854309
10
-0.2872534
20
4.2051516
10
-0.3019761
20
4.2250565
10
-0.3095141
20
4.2350756
10
-0.3114171
20
4.2375872
10
-0.3118941
20
4.2382155
10
-0.3120134
20
4.2383726
10
-0.312073
20
4.2384512
10
-0.3121029
20
4.2384904
10
-0.3121322
20
4.2385226
10
-0.4139722
20
4.2297904
10
-0.4139956
20
4.2297538
10
-0.4140183
20
4.22971
10
-0.4140637
20
4.2296224
10
-0.4141546
20
4.2294473
10
-0.4145176
20
4.228747
10
-0.4159653
20
4.2259481
10
-0.4216876
20
4.214792
10
-0.4328069
20
4.1926713
10
-0.4434978
20
4.1708115
10
-0.4537675
20
4.1492194
10
-0.4636232
20
4.1279015
10
-0.4730719
20
4.1068643
10
-0.4821211
20
4.0861139
10
-0.4907782
20
4.0656567
10
-0.4990505
20
4.0454985
10
-0.5069458
20
4.0256454
10
-0.5144717
20
4.0061031
10
-0.5216359
20
3.9868773
10
-0.5284462
20
3.9679734
10
-0.5349105
20
3.949397
10
-0.5410368
20
3.9311531
10
-0.5468332
20
3.913247
10
-0.5523076
20
3.8956836
10
-0.5574685
20
3.8784677
10
-0.5623238
20
3.8616041
10
-0.5668821
20
3.8450974
10
-0.5711516
20
3.8289518
10
-0.5751409
20
3.8131719
10
-0.5788583
20
3.7977616
10
-0.5823125
20
3.782725
10
-0.585512
20
3.768066
10
-0.5884655
20
3.7537882
10
-0.5911818
20
3.7398953
10
-0.5936695
20
3.7263906
10
-0.5959375
20
3.7132775
10
-0.5979946
20
3.700559
10
-0.5998498
20
3.6882383
10
-0.6015119
20
3.6763181
10
-0.6029899
20
3.664801
10
-0.6320004
20
3.65831
10
-0.7242728
20
3.6411654
10
-0.7536788
20
3.6368024
10
-0.7591951
20
3.6470198
10
-0.7650281
20
3.6575475
10
-0.7711852
20
3.6683795
10
-0.7776736
20
3.6795102
10
-0.7845005
20
3.6909334
10
-0.7916732
20
3.7026431
10
-0.7991986
20
3.7146331
10
-0.8070837
20
3.726897
10
-0.8153353
20
3.7394284
10
-0.8239602
20
3.7522206
10
-0.832965
20
3.7652671
10
-0.8423562
20
3.7785609
10
-0.8521404
20
3.7920952
10
-0.8623238
20
3.8058629
10
-0.8729127
20
3.8198569
10
-0.8839131
20
3.8340699
10
-0.8953311
20
3.8484946
10
-0.9071726
20
3.8631235
10
-0.9194434
20
3.8779491
10
-0.932149
20
3.8929637
10
-0.9452952
20
3.9081596
10
-0.9588873
20
3.9235288
10
-0.9729306
20
3.9390635
10
-0.9874303
20
3.9547555
10
-1.0023916
20
3.9705967
10
-1.0178192
20
3.986579
10
-1.0337181
20
4.0026939
10
-1.050093
20
4.018933
10
-1.0669484
20
4.0352878
10
-1.0842887
20
4.0517499
10
-1.1021183
20
4.0683104
10
-1.1204413
20
4.0849606
10
-1.1297892
20
4.0933166
10
-1.1321456
20
4.0954087
10
-1.1327359
20
4.0959319
10
-1.1328836
20
4.0960627
10
-1.1329574
20
4.0961281
10
-1.1329944
20
4.0961608
10
-1.1330294
20
4.0961866
10
-1.231209
20
4.0677542
10
-1.2312248
20
4.0677137
10
-1.2312386
20
4.0676663
10
-1.231266
20
4.0675716
10
-1.2313209
20
4.0673821
10
-1.2315403
20
4.0666244
10
-1.2324142
20
4.0635969
10
-1.2358502
20
4.0515388
10
-1.2424402
20
4.0276738
10
-1.2486611
20
4.0041484
10
-1.2545211
20
3.9809677
10
-1.2600284
20
3.9581367
10
-1.2651914
20
3.9356603
10
-1.2700186
20
3.9135432
10
-1.2745183
20
3.8917901
10
-1.278699
20
3.8704055
10
-1.2825695
20
3.8493935
10
-1.2861382
20
3.8287585
10
-1.289414
20
3.8085044
10
-1.2924054
20
3.7886352
10
-1.2951215
20
3.7691545
10
-1.2975709
20
3.7500661
10
-1.2997625
20
3.7313732
10
-1.3017054
20
3.7130792
10
-1.3034084
20
3.6951873
10
-1.3048805
20
3.6777005
10
-1.3061309
20
3.6606217
10
-1.3071686
20
3.6439535
10
-1.3080026
20
3.6276984
10
-1.3086422
20
3.611859
10
-1.3090965
20
3.5964375
10
-1.3093748
20
3.5814359
10
-1.3094861
20
3.5668563
10
-1.3094398
20
3.5527004
10
-1.3092451
20
3.5389699
10
-1.3089112
20
3.5256662
10
-1.3084476
20
3.5127909
10
-1.3078634
20
3.5003449
10
-1.3071681
20
3.4883295
10
-1.3063708
20
3.4767454
10
-1.3335576
20
3.4647194
10
-1.4207122
20
3.4299028
10
-1.448702
20
3.4198868
10
-1.4561057
20
3.4288318
10
-1.4638804
20
3.4380191
10
-1.4720324
20
3.4474419
10
-1.4805676
20
3.4570928
10
-1.4894919
20
3.4669647
10
-1.4988112
20
3.4770501
10
-1.5085312
20
3.4873416
10
-1.5186573
20
3.4978315
10
-1.5291951
20
3.5085123
10
-1.54015
20
3.5193761
10
-1.551527
20
3.5304151
10
-1.5633313
20
3.5416214
10
-1.5755678
20
3.5529868
10
-1.5882415
20
3.5645032
10
-1.601357
20
3.5761626
10
-1.6149189
20
3.5879564
10
-1.6289316
20
3.5998764
10
-1.6433995
20
3.6119141
10
-1.6583269
20
3.6240609
10
-1.6737176
20
3.6363083
10
-1.6895757
20
3.6486475
10
-1.7059051
20
3.6610697
10
-1.7227092
20
3.6735661
10
-1.7399917
20
3.6861279
10
-1.7577559
20
3.6987459
10
-1.7760051
20
3.7114113
10
-1.7947424
20
3.7241148
10
-1.8139707
20
3.7368473
10
-1.8336929
20
3.7495996
10
-1.8539116
20
3.7623624
10
-1.8746294
20
3.7751263
10
-1.8958487
20
3.787882
10
-1.906647
20
3.7942538
10
-1.9093663
20
3.7958459
10
-1.9100474
20
3.7962439
10
-1.9102177
20
3.7963434
10
-1.9103029
20
3.7963931
10
-1.9103455
20
3.796418
10
-1.9103849
20
3.7964364
10
-2.0011312
20
3.7493965
10
-2.0011388
20
3.7493537
10
-2.001143
20
3.7493045
10
-2.0011515
20
3.7492063
10
-2.0011683
20
3.7490097
10
-2.0012357
20
3.7482238
10
-2.0015021
20
3.745084
10
-2.0025197
20
3.7325872
10
-2.0043272
20
3.7078951
10
-2.005839
20
3.6836081
10
-2.0070641
20
3.6597296
10
-2.0080115
20
3.6362628
10
-2.0086904
20
3.6132111
10
-2.0091099
20
3.5905773
10
-2.0092793
20
3.5683643
10
-2.0092078
20
3.5465749
10
-2.0089047
20
3.5252116
10
-2.0083792
20
3.5042769
10
-2.0076406
20
3.4837729
10
-2.0066983
20
3.4637019
10
-2.0055616
20
3.4440656
10
-2.00424
20
3.4248661
10
-2.0027427
20
3.4061048
10
-2.0010793
20
3.3877833
10
-1.999259
20
3.369903
10
-1.9972914
20
3.352465
10
-1.9951858
20
3.3354704
10
-1.9929517
20
3.31892
10
-1.9905986
20
3.3028146
10
-1.9881358
20
3.2871547
10
-1.9855728
20
3.2719409
10
-1.982919
20
3.2571733
10
-1.9801838
20
3.2428521
10
-1.9773767
20
3.2289772
10
-1.974507
20
3.2155485
10
-1.9715842
20
3.2025656
10
-1.9686176
20
3.1900281
10
-1.9656166
20
3.1779353
10
-1.9625905
20
3.1662864
10
-1.9595486
20
3.1550804
10
-1.9838669
20
3.1379816
10
-2.0625545
20
3.0868309
10
-2.0880524
20
3.0715469
10
-2.0970589
20
3.0788756
10
-2.1064766
20
3.0863696
10
-2.1163103
20
3.094021
10
-2.1265643
20
3.1018213
10
-2.137243
20
3.1097625
10
-2.1483508
20
3.117836
10
-2.1598918
20
3.1260334
10
-2.1718698
20
3.1343463
10
-2.1842889
20
3.142766
10
-2.1971526
20
3.1512839
10
-2.2104646
20
3.1598913
10
-2.2242283
20
3.1685793
10
-2.2384471
20
3.1773391
10
-2.253124
20
3.1861618
10
-2.2682621
20
3.1950383
10
-2.2838642
20
3.2039598
10
-2.2999332
20
3.212917
10
-2.3164716
20
3.2219008
10
-2.3334818
20
3.2309021
10
-2.3509662
20
3.2399115
10
-2.3689268
20
3.2489198
10
-2.3873658
20
3.2579177
10
-2.406285
20
3.2668957
10
-2.4256861
20
3.2758444
10
-2.4455706
20
3.2847544
10
-2.4659401
20
3.2936162
10
-2.4867956
20
3.3024201
10
-2.5081385
20
3.3111567
10
-2.5299696
20
3.3198164
10
-2.5522897
20
3.3283895
10
-2.5750995
20
3.3368663
10
-2.5983996
20
3.3452372
10
-2.6102335
20
3.3493799
10
-2.6132112
20
3.3504109
10
-2.6139568
20
3.3506683
10
-2.6141433
20
3.3507327
10
-2.6142365
20
3.3507649
10
-2.6142832
20
3.3507809
10
-2.6143254
20
3.3507914
10
-2.694151
20
3.2869516
10
-2.6941501
20
3.2869081
10
-2.6941446
20
3.2868591
10
-2.6941337
20
3.286761
10
-2.694112
20
3.286565
10
-2.6940247
20
3.285781
10
-2.6936735
20
3.2826495
10
-2.6922334
20
3.2701944
10
-2.6891891
20
3.2456241
10
-2.6859337
20
3.2215088
10
-2.6824767
20
3.1978501
10
-2.6788278
20
3.1746495
10
-2.6749965
20
3.1519082
10
-2.6709923
20
3.1296274
10
-2.6668249
20
3.1078082
10
-2.6625039
20
3.0864515
10
-2.6580388
20
3.0655578
10
-2.6534392
20
3.0451278
10
-2.6487147
20
3.0251619
10
-2.6438749
20
3.0056604
10
-2.6389292
20
2.9866232
10
-2.6338873
20
2.9680504
10
-2.6287587
20
2.9499417
10
-2.6235528
20
2.9322968
10
-2.6182793
20
2.9151152
10
-2.6129475
20
2.8983961
10
-2.6075669
20
2.8821388
10
-2.6021469
20
2.8663423
10
-2.596697
20
2.8510054
10
-2.5912264
20
2.8361269
10
-2.5857445
20
2.8217054
10
-2.5802607
20
2.8077393
10
-2.5747842
20
2.7942269
10
-2.5693242
20
2.7811663
10
-2.5638898
20
2.7685554
10
-2.5584904
20
2.7563922
10
-2.5531348
20
2.7446744
10
-2.5478323
20
2.7333994
10
-2.5425917
20
2.7225647
10
-2.5374221
20
2.7121675
10
-2.5579373
20
2.6906529
10
-2.6251339
20
2.6251339
10
-2.6471602
20
2.6051692
10
-2.6574234
20
2.6106
10
-2.6681221
20
2.6161127
10
-2.6792595
20
2.6216986
10
-2.6908382
20
2.6273486
10
-2.7028611
20
2.6330538
10
-2.7153305
20
2.6388052
10
-2.7282489
20
2.6445936
10
-2.7416186
20
2.6504099
10
-2.7554416
20
2.6562451
10
-2.7697199
20
2.6620897
10
-2.7844554
20
2.6679346
10
-2.7996496
20
2.6737705
10
-2.8153041
20
2.679588
10
-2.8314202
20
2.6853779
10
-2.8479991
20
2.6911306
10
-2.865042
20
2.6968368
10
-2.8825496
20
2.702487
10
-2.9005229
20
2.7080717
10
-2.9189623
20
2.7135815
10
-2.9378684
20
2.7190068
10
-2.9572414
20
2.7243381
10
-2.9770815
20
2.7295658
10
-2.9973887
20
2.7346803
10
-3.0181628
20
2.7396721
10
-3.0394035
20
2.7445316
10
-3.0611104
20
2.7492492
10
-3.0832828
20
2.7538153
10
-3.1059199
20
2.7582202
10
-3.129021
20
2.7624545
10
-3.1525847
20
2.7665084
10
-3.17661
20
2.7703723
10
-3.2010955
20
2.7740368
10
-3.2135102
20
2.7757912
10
-3.2166318
20
2.7762215
10
-3.2174133
20
2.7763285
10
-3.2176088
20
2.7763552
10
-3.2177065
20
2.7763686
10
-3.2177554
20
2.7763753
10
-3.2177988
20
2.7763773
10
-3.283636
20
2.6981909
10
-3.2836267
20
2.6981485
10
-3.2836118
20
2.6981015
10
-3.283582
20
2.6980074
10
-3.2835224
20
2.6978194
10
-3.2832839
20
2.6970675
10
-3.2823284
20
2.6940647
10
-3.2784862
20
2.6821298
10
-3.2707069
20
2.6586256
10
-3.2628094
20
2.6356088
10
-3.2548033
20
2.6130791
10
-3.2466983
20
2.5910361
10
-3.2385039
20
2.5694792
10
-3.23023
20
2.5484078
10
-3.221886
20
2.5278208
10
-3.2134815
20
2.5077174
10
-3.205026
20
2.4880963
10
-3.1965291
20
2.4689563
10
-3.1880002
20
2.4502957
10
-3.1794488
20
2.4321131
10
-3.1708842
20
2.4144065
10
-3.1623158
20
2.3971742
10
-3.1537529
20
2.380414
10
-3.1452047
20
2.3641238
10
-3.1366805
20
2.3483011
10
-3.1281895
20
2.3329435
10
-3.1197406
20
2.3180482
10
-3.111343
20
2.3036126
10
-3.1030057
20
2.2896337
10
-3.0947376
20
2.2761084
10
-3.0865476
20
2.2630334
10
-3.0784445
20
2.2504055
10
-3.0704371
20
2.2382211
10
-3.0625339
20
2.2264767
10
-3.0547438
20
2.2151683
10
-3.0470751
20
2.2042922
10
-3.0395365
20
2.1938443
10
-3.0321362
20
2.1838205
10
-3.0248826
20
2.1742163
10
-3.0177839
20
2.1650274
10
-3.0337076
20
2.139924
10
-3.0868309
20
2.0625545
10
-3.104539
20
2.0386763
10
-3.1156645
20
2.0420004
10
-3.1272332
20
2.04532
10
-3.1392463
20
2.0486258
10
-3.1517048
20
2.0519083
10
-3.1646097
20
2.0551584
10
-3.1779615
20
2.0583666
10
-3.191761
20
2.0615235
10
-3.2060085
20
2.0646198
10
-3.2207043
20
2.0676461
10
-3.2358485
20
2.0705928
10
-3.2514411
20
2.0734507
10
-3.2674818
20
2.0762102
10
-3.2839705
20
2.0788619
10
-3.3009064
20
2.0813964
10
-3.3182891
20
2.0838042
10
-3.3361177
20
2.0860759
10
-3.3543913
20
2.0882019
10
-3.3731087
20
2.090173
10
-3.3922688
20
2.0919795
10
-3.41187
20
2.0936122
10
-3.4319108
20
2.0950615
10
-3.4523896
20
2.0963181
10
-3.4733043
20
2.0973727
10
-3.4946531
20
2.0982157
10
-3.5164337
20
2.098838
10
-3.5386439
20
2.0992302
10
-3.5612811
20
2.0993829
10
-3.5843426
20
2.0992869
10
-3.6078258
20
2.098933
10
-3.6317277
20
2.0983119
10
-3.6560452
20
2.0974145
10
-3.680775
20
2.0962317
10
-3.6932935
20
2.0955304
10
-3.6964391
20
2.0953434
10
-3.6972265
20
2.0952959
10
-3.6974234
20
2.095284
10
-3.6975218
20
2.0952781
10
-3.6975711
20
2.0952751
10
-3.6976141
20
2.0952686
10
-3.7469328
20
2.0057403
10
-3.7469154
20
2.0057005
10
-3.7468916
20
2.0056573
10
-3.746844
20
2.0055709
10
-3.7467489
20
2.0053981
10
-3.7463682
20
2.0047072
10
-3.7448454
20
2.0019485
10
-3.7387486
20
1.9909925
10
-3.7265334
20
1.9694576
10
-3.7142972
20
1.9484238
10
-3.7020496
20
1.9278889
10
-3.6897999
20
1.9078507
10
-3.6775575
20
1.8883066
10
-3.6653317
20
1.8692542
10
-3.6531317
20
1.8506907
10
-3.6409667
20
1.8326132
10
-3.6288458
20
1.8150187
10
-3.6167782
20
1.7979041
10
-3.6047727
20
1.781266
10
-3.5928383
20
1.765101
10
-3.5809839
20
1.7494056
10
-3.5692183
20
1.734176
10
-3.5575502
20
1.7194084
10
-3.5459882
20
1.7050988
10
-3.5345409
20
1.6912431
10
-3.5232169
20
1.6778371
10
-3.5120244
20
1.6648764
10
-3.500972
20
1.6523564
10
-3.4900677
20
1.6402726
10
-3.4793198
20
1.6286202
10
-3.4687364
20
1.6173943
10
-3.4583254
20
1.6065899
10
-3.4480947
20
1.5962018
10
-3.4380523
20
1.5862248
10
-3.4282056
20
1.5766535
10
-3.4185625
20
1.5674825
10
-3.4091304
20
1.5587061
10
-3.3999168
20
1.5503185
10
-3.3909288
20
1.542314
10
-3.3821739
20
1.5346866
10
-3.3928942
20
1.506959
10
-3.4299028
20
1.4207122
10
-3.4426122
20
1.3938381
10
-3.4541724
20
1.394928
10
-3.4661664
20
1.3959269
10
-3.4785936
20
1.3968254
10
-3.4914532
20
1.3976144
10
-3.5047441
20
1.3982844
10
-3.5184653
20
1.3988261
10
-3.5326155
20
1.3992302
10
-3.5471933
20
1.3994875
10
-3.5621971
20
1.3995886
10
-3.5776252
20
1.3995242
10
-3.5934757
20
1.3992852
10
-3.6097466
20
1.3988623
10
-3.6264357
20
1.3982463
10
-3.6435408
20
1.3974281
10
-3.6610592
20
1.3963984
10
-3.6789884
20
1.3951482
10
-3.6973256
20
1.3936684
10
-3.7160679
20
1.39195
10
-3.7352122
20
1.3899839
10
-3.7547553
20
1.3877612
10
-3.7746938
20
1.3852729
10
-3.7950242
20
1.3825102
10
-3.8157429
20
1.3794642
10
-3.8368459
20
1.3761261
10
-3.8583294
20
1.3724872
10
-3.8801893
20
1.3685389
10
-3.9024213
20
1.3642723
10
-3.9250211
20
1.3596791
10
-3.947984
20
1.3547507
10
-3.9713054
20
1.3494785
10
-3.9949806
20
1.3438543
10
-4.0190045
20
1.3378696
10
-4.0311456
20
1.3347395
10
-4.0341943
20
1.3339425
10
-4.0349573
20
1.3337423
10
-4.0351481
20
1.3336922
10
-4.0352435
20
1.3336672
10
-4.0352912
20
1.3336546
10
-4.0353321
20
1.3336398
10
-4.0662371
20
1.2362103
10
-4.0662122
20
1.2361746
10
-4.0661805
20
1.2361369
10
-4.0661169
20
1.2360614
10
-4.0659899
20
1.2359105
10
-4.0654818
20
1.2353071
10
-4.06345
20
1.2328985
10
-4.0553329
20
1.2233425
10
-4.0391512
20
1.2046044
10
-4.0230467
20
1.1863619
10
-4.0070282
20
1.168611
10
-3.9911046
20
1.1513476
10
-3.9752846
20
1.1345675
10
-3.9595768
20
1.1182663
10
-3.9439896
20
1.1024396
10
-3.9285317
20
1.0870827
10
-3.9132112
20
1.0721909
10
-3.8980365
20
1.0577594
10
-3.8830157
20
1.0437832
10
-3.868157
20
1.0302571
10
-3.8534684
20
1.0171759
10
-3.8389577
20
1.0045343
10
-3.8246328
20
0.9923268
10
-3.8105013
20
0.9805478
10
-3.7965709
20
0.9691916
10
-3.782849
20
0.9582524
10
-3.7693431
20
0.9477243
10
-3.7560605
20
0.9376011
10
-3.7430083
20
0.9278768
10
-3.7301937
20
0.9185451
10
-3.7176235
20
0.9095996
10
-3.7053048
20
0.9010339
10
-3.6932441
20
0.8928413
10
-3.6814482
20
0.8850152
10
-3.6699235
20
0.8775488
10
-3.6586765
20
0.8704353
10
-3.6477134
20
0.8636676
10
-3.6370404
20
0.8572387
10
-3.6266636
20
0.8511415
10
-3.6165889
20
0.8453686
10
-3.6216938
20
0.8160824
10
-3.6411654
20
0.7242728
10
-3.6483877
20
0.6954356
10
-3.6599384
20
0.6942492
10
-3.6718968
20
0.692889
10
-3.6842605
20
0.6913459
10
-3.6970269
20
0.6896109
10
-3.7101932
20
0.6876751
10
-3.7237564
20
0.6855295
10
-3.7377136
20
0.6831653
10
-3.7520614
20
0.6805736
10
-3.7667967
20
0.6777457
10
-3.7819158
20
0.6746727
10
-3.7974151
20
0.671346
10
-3.8132908
20
0.667757
10
-3.8295391
20
0.6638969
10
-3.8461558
20
0.6597573
10
-3.8631368
20
0.6553298
10
-3.8804776
20
0.6506058
10
-3.8981738
20
0.645577
10
-3.9162207
20
0.6402352
10
-3.9346136
20
0.634572
10
-3.9533475
20
0.6285793
10
-3.9724175
20
0.622249
10
-3.9918183
20
0.6155731
10
-4.0115446
20
0.6085437
10
-4.0315909
20
0.6011527
10
-4.0519517
20
0.5933925
10
-4.0726213
20
0.5852554
10
-4.0935937
20
0.5767336
10
-4.1148631
20
0.5678196
10
-4.1364233
20
0.558506
10
-4.1582681
20
0.5487854
10
-4.1803911
20
0.5386504
10
-4.2027859
20
0.5280939
10
-4.2140831
20
0.5226554
10
-4.2169176
20
0.5212789
10
-4.2176269
20
0.5209337
10
-4.2178043
20
0.5208474
10
-4.2178929
20
0.5208042
10
-4.2179373
20
0.5207826
10
-4.2179745
20
0.5207601
10
-4.2292782
20
0.4191733
10
-4.2292468
20
0.4191432
10
-4.2292083
20
0.4191124
10
-4.2291313
20
0.4190508
10
-4.2289772
20
0.4189275
10
-4.2283612
20
0.4184349
10
-4.2258985
20
0.416469
10
-4.2160731
20
0.4086801
10
-4.1965467
20
0.393459
10
-4.1771927
20
0.3787088
10
-4.158019
20
0.364424
10
-4.1390335
20
0.3505989
10
-4.1202438
20
0.3372275
10
-4.1016576
20
0.324304
10
-4.0832823
20
0.3118223
10
-4.0651253
20
0.2997762
10
-4.047194
20
0.2881594
10
-4.0294954
20
0.2769657
10
-4.0120367
20
0.2661884
10
-3.9948247
20
0.255821
10
-3.9778663
20
0.2458568
10
-3.9611681
20
0.236289
10
-3.9447369
20
0.2271107
10
-3.928579
20
0.218315
10
-3.9127007
20
0.2098947
10
-3.8971084
20
0.2018426
10
-3.8818081
20
0.1941517
10
-3.8668058
20
0.1868143
10
-3.8521073
20
0.1798232
10
-3.8377183
20
0.1731708
10
-3.8236445
20
0.1668495
10
-3.8098914
20
0.1608517
10
-3.7964641
20
0.1551694
10
-3.7833681
20
0.149795
10
-3.7706082
20
0.1447204
10
-3.7581895
20
0.1399378
10
-3.7461168
20
0.1354389
10
-3.7343947
20
0.1312158
10
-3.7230278
20
0.1272601
10
-3.7120204
20
0.1235636
10
-3.7113137
20
0.0938442
10
-3.7125
20
0
10
-3.7139577
20
-0.0296921
10
-3.725055
20
-0.0331091
10
-3.7365183
20
-0.0367762
10
-3.7483434
20
-0.0407017
10
-3.760526
20
-0.044894
10
-3.7730616
20
-0.0493612
10
-3.7859456
20
-0.0541116
10
-3.7991734
20
-0.0591532
10
-3.81274
20
-0.0644943
10
-3.8266403
20
-0.0701426
10
-3.8408694
20
-0.0761061
10
-3.8554219
20
-0.0823926
10
-3.8702925
20
-0.0890099
10
-3.8854755
20
-0.0959657
10
-3.9009653
20
-0.1032675
10
-3.9167562
20
-0.1109228
10
-3.9328422
20
-0.118939
10
-3.9492173
20
-0.1273235
10
-3.9658753
20
-0.1360835
10
-3.9828099
20
-0.1452262
10
-4.0000148
20
-0.1547585
10
-4.0174834
20
-0.1646875
10
-4.035209
20
-0.17502
10
-4.0531848
20
-0.1857629
10
-4.0714041
20
-0.1969226
10
-4.0898597
20
-0.2085059
10
-4.1085446
20
-0.2205191
10
-4.1274516
20
-0.2329687
10
-4.1465733
20
-0.2458608
10
-4.1659022
20
-0.2592017
10
-4.1854309
20
-0.2729972
10
-4.2051516
20
-0.2872534
10
-4.2250565
20
-0.3019761
10
-4.2350756
20
-0.3095141
10
-4.2375872
20
-0.3114171
10
-4.2382155
20
-0.3118941
10
-4.2383726
20
-0.3120134
10
-4.2384512
20
-0.312073
10
-4.2384904
20
-0.3121029
10
-4.2385226
20
-0.3121322
10
-4.2297904
20
-0.4139722
10
-4.2297538
20
-0.4139956
10
-4.22971
20
-0.4140183
10
-4.2296224
20
-0.4140637
10
-4.2294473
20
-0.4141546
10
-4.228747
20
-0.4145176
10
-4.2259481
20
-0.4159653
10
-4.214792
20
-0.4216876
10
-4.1926713
20
-0.4328069
10
-4.1708115
20
-0.4434978
10
-4.1492194
20
-0.4537675
10
-4.1279015
20
-0.4636232
10
-4.1068643
20
-0.4730719
10
-4.0861139
20
-0.4821211
10
-4.0656567
20
-0.4907782
10
-4.0454985
20
-0.4990505
10
-4.0256454
20
-0.5069458
10
-4.0061031
20
-0.5144717
10
-3.9868773
20
-0.5216359
10
-3.9679734
20
-0.5284462
10
-3.949397
20
-0.5349105
10
-3.9311531
20
-0.5410368
10
-3.913247
20
-0.5468332
10
-3.8956836
20
-0.5523076
10
-3.8784677
20
-0.5574685
10
-3.8616041
20
-0.5623238
10
-3.8450974
20
-0.5668821
10
-3.8289518
20
-0.5711516
10
-3.8131719
20
-0.5751409
10
-3.7977616
20
-0.5788583
10
-3.782725
20
-0.5823125
10
-3.768066
20
-0.585512
10
-3.7537882
20
-0.5884655
10
-3.7398953
20
-0.5911818
10
-3.7263906
20
-0.5936695
10
-3.7132775
20
-0.5959375
10
-3.700559
20
-0.5979946
10
-3.6882383
20
-0.5998498
10
-3.6763181
20
-0.6015119
10
-3.664801
20
-0.6029899
10
-3.65831
20
-0.6320004
10
-3.6411654
20
-0.7242728
10
-3.6368024
20
-0.7536788
10
-3.6470198
20
-0.7591951
10
-3.6575475
20
-0.7650281
10
-3.6683795
20
-0.7711852
10
-3.6795102
20
-0.7776736
10
-3.6909334
20
-0.7845005
10
-3.7026431
20
-0.7916732
10
-3.7146331
20
-0.7991986
10
-3.726897
20
-0.8070837
10
-3.7394284
20
-0.8153353
10
-3.7522206
20
-0.8239602
10
-3.7652671
20
-0.832965
10
-3.7785609
20
-0.8423562
10
-3.7920952
20
-0.8521404
10
-3.8058629
20
-0.8623238
10
-3.8198569
20
-0.8729127
10
-3.8340699
20
-0.8839131
10
-3.8484946
20
-0.8953311
10
-3.8631235
20
-0.9071726
10
-3.8779491
20
-0.9194434
10
-3.8929637
20
-0.932149
10
-3.9081596
20
-0.9452952
10
-3.9235288
20
-0.9588873
10
-3.9390635
20
-0.9729306
10
-3.9547555
20
-0.9874303
10
-3.9705967
20
-1.0023916
10
-3.986579
20
-1.0178192
10
-4.0026939
20
-1.0337181
10
-4.018933
20
-1.050093
10
-4.0352878
20
-1.0669484
10
-4.0517499
20
-1.0842887
10
-4.0683104
20
-1.1021183
10
-4.0849606
20
-1.1204413
10
-4.0933166
20
-1.1297892
10
-4.0954087
20
-1.1321456
10
-4.0959319
20
-1.1327359
10
-4.0960627
20
-1.1328836
10
-4.0961281
20
-1.1329574
10
-4.0961608
20
-1.1329944
10
-4.0961866
20
-1.1330294
10
-4.0677542
20
-1.231209
10
-4.0677137
20
-1.2312248
10
-4.0676663
20
-1.2312386
10
-4.0675716
20
-1.231266
10
-4.0673821
20
-1.2313209
10
-4.0666244
20
-1.2315403
10
-4.0635969
20
-1.2324142
10
-4.0515388
20
-1.2358502
10
-4.0276738
20
-1.2424402
10
-4.0041484
20
-1.2486611
10
-3.9809677
20
-1.2545211
10
-3.9581367
20
-1.2600284
10
-3.9356603
20
-1.2651914
10
-3.9135432
20
-1.2700186
10
-3.8917901
20
-1.2745183
10
-3.8704055
20
-1.278699
10
-3.8493935
20
-1.2825695
10
-3.8287585
20
-1.2861382
10
-3.8085044
20
-1.289414
10
-3.7886352
20
-1.2924054
10
-3.7691545
20
-1.2951215
10
-3.7500661
20
-1.2975709
10
-3.7313732
20
-1.2997625
10
-3.7130792
20
-1.3017054
10
-3.6951873
20
-1.3034084
10
-3.6777005
20
-1.3048805
10
-3.6606217
20
-1.3061309
10
-3.6439535
20
-1.3071686
10
-3.6276984
20
-1.3080026
10
-3.611859
20
-1.3086422
10
-3.5964375
20
-1.3090965
10
-3.5814359
20
-1.3093748
10
-3.5668563
20
-1.3094861
10
-3.5527004
20
-1.3094398
10
-3.5389699
20
-1.3092451
10
-3.5256662
20
-1.3089112
10
-3.5127909
20
-1.3084476
10
-3.5003449
20
-1.3078634
10
-3.4883295
20
-1.3071681
10
-3.4767454
20
-1.3063708
10
-3.4647194
20
-1.3335576
10
-3.4299028
20
-1.4207122
10
-3.4198868
20
-1.448702
10
-3.4288318
20
-1.4561057
10
-3.4380191
20
-1.4638804
10
-3.4474419
20
-1.4720324
10
-3.4570928
20
-1.4805676
10
-3.4669647
20
-1.4894919
10
-3.4770501
20
-1.4988112
10
-3.4873416
20
-1.5085312
10
-3.4978315
20
-1.5186573
10
-3.5085123
20
-1.5291951
10
-3.5193761
20
-1.54015
10
-3.5304151
20
-1.551527
10
-3.5416214
20
-1.5633313
10
-3.5529868
20
-1.5755678
10
-3.5645032
20
-1.5882415
10
-3.5761626
20
-1.601357
10
-3.5879564
20
-1.6149189
10
-3.5998764
20
-1.6289316
10
-3.6119141
20
-1.6433995
10
-3.6240609
20
-1.6583269
10
-3.6363083
20
-1.6737176
10
-3.6486475
20
-1.6895757
10
-3.6610697
20
-1.7059051
10
-3.6735661
20
-1.7227092
10
-3.6861279
20
-1.7399917
10
-3.6987459
20
-1.7577559
10
-3.7114113
20
-1.7760051
10
-3.7241148
20
-1.7947424
10
-3.7368473
20
-1.8139707
10
-3.7495996
20
-1.8336929
10
-3.7623624
20
-1.8539116
10
-3.7751263
20
-1.8746294
10
-3.787882
20
-1.8958487
10
-3.7942538
20
-1.906647
10
-3.7958459
20
-1.9093663
10
-3.7962439
20
-1.9100474
10
-3.7963434
20
-1.9102177
10
-3.7963931
20
-1.9103029
10
-3.796418
20
-1.9103455
10
-3.7964364
20
-1.9103849
10
-3.7493965
20
-2.0011312
10
-3.7493537
20
-2.0011388
10
-3.7493045
20
-2.001143
10
-3.7492063
20
-2.0011515
10
-3.7490097
20
-2.0011683
10
-3.7482238
20
-2.0012357
10
-3.745084
20
-2.0015021
10
-3.7325872
20
-2.0025197
10
-3.7078951
20
-2.0043272
10
-3.6836081
20
-2.005839
10
-3.6597296
20
-2.0070641
10
-3.6362628
20
-2.0080115
10
-3.6132111
20
-2.0086904
10
-3.5905773
20
-2.0091099
10
-3.5683643
20
-2.0092793
10
-3.5465749
20
-2.0092078
10
-3.5252116
20
-2.0089047
10
-3.5042769
20
-2.0083792
10
-3.4837729
20
-2.0076406
10
-3.4637019
20
-2.0066983
10
-3.4440656
20
-2.0055616
10
-3.4248661
20
-2.00424
10
-3.4061048
20
-2.0027427
10
-3.3877833
20
-2.0010793
10
-3.369903
20
-1.999259
10
-3.352465
20
-1.9972914
10
-3.3354704
20
-1.9951858
10
-3.31892
20
-1.9929517
10
-3.3028146
20
-1.9905986
10
-3.2871547
20
-1.9881358
10
-3.2719409
20
-1.9855728
10
-3.2571733
20
-1.982919
10
-3.2428521
20
-1.9801838
10
-3.2289772
20
-1.9773767
10
-3.2155485
20
-1.974507
10
-3.2025656
20
-1.9715842
10
-3.1900281
20
-1.9686176
10
-3.1779353
20
-1.9656166
10
-3.1662864
20
-1.9625905
10
-3.1550804
20
-1.9595486
10
-3.1379816
20
-1.9838669
10
-3.0868309
20
-2.0625545
10
-3.0715469
20
-2.0880524
10
-3.0788756
20
-2.0970589
10
-3.0863696
20
-2.1064766
10
-3.094021
20
-2.1163103
10
-3.1018213
20
-2.1265643
10
-3.1097625
20
-2.137243
10
-3.117836
20
-2.1483508
10
-3.1260334
20
-2.1598918
10
-3.1343463
20
-2.1718698
10
-3.142766
20
-2.1842889
10
-3.1512839
20
-2.1971526
10
-3.1598913
20
-2.2104646
10
-3.1685793
20
-2.2242283
10
-3.1773391
20
-2.2384471
10
-3.1861618
20
-2.253124
10
-3.1950383
20
-2.2682621
10
-3.2039598
20
-2.2838642
10
-3.212917
20
-2.2999332
10
-3.2219008
20
-2.3164716
10
-3.2309021
20
-2.3334818
10
-3.2399115
20
-2.3509662
10
-3.2489198
20
-2.3689268
10
-3.2579177
20
-2.3873658
10
-3.2668957
20
-2.406285
10
-3.2758444
20
-2.4256861
10
-3.2847544
20
-2.4455706
10
-3.2936162
20
-2.4659401
10
-3.3024201
20
-2.4867956
10
-3.3111567
20
-2.5081385
10
-3.3198164
20
-2.5299696
10
-3.3283895
20
-2.5522897
10
-3.3368663
20
-2.5750995
10
-3.3452372
20
-2.5983996
10
-3.3493799
20
-2.6102335
10
-3.3504109
20
-2.6132112
10
-3.3506683
20
-2.6139568
10
-3.3507327
20
-2.6141433
10
-3.3507649
20
-2.6142365
10
-3.3507809
20
-2.6142832
10
-3.3507914
20
-2.6143254
10
-3.2869516
20
-2.694151
10
-3.2869081
20
-2.6941501
10
-3.2868591
20
-2.6941446
10
-3.286761
20
-2.6941337
10
-3.286565
20
-2.694112
10
-3.285781
20
-2.6940247
10
-3.2826495
20
-2.6936735
10
-3.2701944
20
-2.6922334
10
-3.2456241
20
-2.6891891
10
-3.2215088
20
-2.6859337
10
-3.1978501
20
-2.6824767
10
-3.1746495
20
-2.6788278
10
-3.1519082
20
-2.6749965
10
-3.1296274
20
-2.6709923
10
-3.1078082
20
-2.6668249
10
-3.0864515
20
-2.6625039
10
-3.0655578
20
-2.6580388
10
-3.0451278
20
-2.6534392
10
-3.0251619
20
-2.6487147
10
-3.0056604
20
-2.6438749
10
-2.9866232
20
-2.6389292
10
-2.9680504
20
-2.6338873
10
-2.9499417
20
-2.6287587
10
-2.9322968
20
-2.6235528
10
-2.9151152
20
-2.6182793
10
-2.8983961
20
-2.6129475
10
-2.8821388
20
-2.6075669
10
-2.8663423
20
-2.6021469
10
-2.8510054
20
-2.596697
10
-2.8361269
20
-2.5912264
10
-2.8217054
20
-2.5857445
10
-2.8077393
20
-2.5802607
10
-2.7942269
20
-2.5747842
10
-2.7811663
20
-2.5693242
10
-2.7685554
20
-2.5638898
10
-2.7563922
20
-2.5584904
10
-2.7446744
20
-2.5531348
10
-2.7333994
20
-2.5478323
10
-2.7225647
20
-2.5425917
10
-2.7121675
20
-2.5374221
10
-2.6906529
20
-2.5579373
10
-2.6251339
20
-2.6251339
10
-2.6051692
20
-2.6471602
10
-2.6106
20
-2.6574234
10
-2.6161127
20
-2.6681221
10
-2.6216986
20
-2.6792595
10
-2.6273486
20
-2.6908382
10
-2.6330538
20
-2.7028611
10
-2.6388052
20
-2.7153305
10
-2.6445936
20
-2.7282489
10
-2.6504099
20
-2.7416186
10
-2.6562451
20
-2.7554416
10
-2.6620897
20
-2.7697199
10
-2.6679346
20
-2.7844554
10
-2.6737705
20
-2.7996496
10
-2.679588
20
-2.8153041
10
-2.6853779
20
-2.8314202
10
-2.6911306
20
-2.8479991
10
-2.6968368
20
-2.865042
10
-2.702487
20
-2.8825496
10
-2.7080717
20
-2.9005229
10
-2.7135815
20
-2.9189623
10
-2.7190068
20
-2.9378684
10
-2.7243381
20
-2.9572414
10
-2.7295658
20
-2.9770815
10
-2.7346803
20
-2.9973887
10
-2.7396721
20
-3.0181628
10
-2.7445316
20
-3.0394035
10
-2.7492492
20
-3.0611104
10
-2.7538153
20
-3.0832828
10
-2.7582202
20
-3.1059199
10
-2.7624545
20
-3.129021
10
-2.7665084
20
-3.1525847
10
-2.7703723
20
-3.17661
10
-2.7740368
20
-3.2010955
10
-2.7757912
20
-3.2135102
10
-2.7762215
20
-3.2166318
10
-2.7763285
20
-3.2174133
10
-2.7763552
20
-3.2176088
10
-2.7763686
20
-3.2177065
10
-2.7763753
20
-3.2177554
10
-2.7763773
20
-3.2177988
10
-2.6981909
20
-3.283636
10
-2.6981485
20
-3.2836267
10
-2.6981015
20
-3.2836118
10
-2.6980074
20
-3.283582
10
-2.6978194
20
-3.2835224
10
-2.6970675
20
-3.2832839
10
-2.6940647
20
-3.2823284
10
-2.6821298
20
-3.2784862
10
-2.6586256
20
-3.2707069
10
-2.6356088
20
-3.2628094
10
-2.6130791
20
-3.2548033
10
-2.5910361
20
-3.2466983
10
-2.5694792
20
-3.2385039
10
-2.5484078
20
-3.23023
10
-2.5278208
20
-3.221886
10
-2.5077174
20
-3.2134815
10
-2.4880963
20
-3.205026
10
-2.4689563
20
-3.1965291
10
-2.4502957
20
-3.1880002
10
-2.4321131
20
-3.1794488
10
-2.4144065
20
-3.1708842
10
-2.3971742
20
-3.1623158
10
-2.380414
20
-3.1537529
10
-2.3641238
20
-3.1452047
10
-2.3483011
20
-3.1366805
10
-2.3329435
20
-3.1281895
10
-2.3180482
20
-3.1197406
10
-2.3036126
20
-3.111343
10
-2.2896337
20
-3.1030057
10
-2.2761084
20
-3.0947376
10
-2.2630334
20
-3.0865476
10
-2.2504055
20
-3.0784445
10
-2.2382211
20
-3.0704371
10
-2.2264767
20
-3.0625339
10
-2.2151683
20
-3.0547438
10
-2.2042922
20
-3.0470751
10
-2.1938443
20
-3.0395365
10
-2.1838205
20
-3.0321362
10
-2.1742163
20
-3.0248826
10
-2.1650274
20
-3.0177839
10
-2.139924
20
-3.0337076
10
-2.0625545
20
-3.0868309
10
-2.0386763
20
-3.104539
10
-2.0420004
20
-3.1156645
10
-2.04532
20
-3.1272332
10
-2.0486258
20
-3.1392463
10
-2.0519083
20
-3.1517048
10
-2.0551584
20
-3.1646097
10
-2.0583666
20
-3.1779615
10
-2.0615235
20
-3.191761
10
-2.0646198
20
-3.2060085
10
-2.0676461
20
-3.2207043
10
-2.0705928
20
-3.2358485
10
-2.0734507
20
-3.2514411
10
-2.0762102
20
-3.2674818
10
-2.0788619
20
-3.2839705
10
-2.0813964
20
-3.3009064
10
-2.0838042
20
-3.3182891
10
-2.0860759
20
-3.3361177
10
-2.0882019
20
-3.3543913
10
-2.090173
20
-3.3731087
10
-2.0919795
20
-3.3922688
10
-2.0936122
20
-3.41187
10
-2.0950615
20
-3.4319108
10
-2.0963181
20
-3.4523896
10
-2.0973727
20
-3.4733043
10
-2.0982157
20
-3.4946531
10
-2.098838
20
-3.5164337
10
-2.0992302
20
-3.5386439
10
-2.0993829
20
-3.5612811
10
-2.0992869
20
-3.5843426
10
-2.098933
20
-3.6078258
10
-2.0983119
20
-3.6317277
10
-2.0974145
20
-3.6560452
10
-2.0962317
20
-3.680775
10
-2.0955304
20
-3.6932935
10
-2.0953434
20
-3.6964391
10
-2.0952959
20
-3.6972265
10
-2.095284
20
-3.6974234
10
-2.0952781
20
-3.6975218
10
-2.0952751
20
-3.6975711
10
-2.0952686
20
-3.6976141
10
-2.0057403
20
-3.7469328
10
-2.0057005
20
-3.7469154
10
-2.0056573
20
-3.7468916
10
-2.0055709
20
-3.746844
10
-2.0053981
20
-3.7467489
10
-2.0047072
20
-3.7463682
10
-2.0019485
20
-3.7448454
10
-1.9909925
20
-3.7387486
10
-1.9694576
20
-3.7265334
10
-1.9484238
20
-3.7142972
10
-1.9278889
20
-3.7020496
10
-1.9078507
20
-3.6897999
10
-1.8883066
20
-3.6775575
10
-1.8692542
20
-3.6653317
10
-1.8506907
20
-3.6531317
10
-1.8326132
20
-3.6409667
10
-1.8150187
20
-3.6288458
10
-1.7979041
20
-3.6167782
10
-1.781266
20
-3.6047727
10
-1.765101
20
-3.5928383
10
-1.7494056
20
-3.5809839
10
-1.734176
20
-3.5692183
10
-1.7194084
20
-3.5575502
10
-1.7050988
20
-3.5459882
10
-1.6912431
20
-3.5345409
10
-1.6778371
20
-3.5232169
10
-1.6648764
20
-3.5120244
10
-1.6523564
20
-3.500972
10
-1.6402726
20
-3.4900677
10
-1.6286202
20
-3.4793198
10
-1.6173943
20
-3.4687364
10
-1.6065899
20
-3.4583254
10
-1.5962018
20
-3.4480947
10
-1.5862248
20
-3.4380523
10
-1.5766535
20
-3.4282056
10
-1.5674825
20
-3.4185625
10
-1.5587061
20
-3.4091304
10
-1.5503185
20
-3.3999168
10
-1.542314
20
-3.3909288
10
-1.5346866
20
-3.3821739
10
-1.506959
20
-3.3928942
10
-1.4207122
20
-3.4299028
10
-1.3938381
20
-3.4426122
10
-1.394928
20
-3.4541724
10
-1.3959269
20
-3.4661664
10
-1.3968254
20
-3.4785936
10
-1.3976144
20
-3.4914532
10
-1.3982844
20
-3.5047441
10
-1.3988261
20
-3.5184653
10
-1.3992302
20
-3.5326155
10
-1.3994875
20
-3.5471933
10
-1.3995886
20
-3.5621971
10
-1.3995242
20
-3.5776252
10
-1.3992852
20
-3.5934757
10
-1.3988623
20
-3.6097466
10
-1.3982463
20
-3.6264357
10
-1.3974281
20
-3.6435408
10
-1.3963984
20
-3.6610592
10
-1.3951482
20
-3.6789884
10
-1.3936684
20
-3.6973256
10
-1.39195
20
-3.7160679
10
-1.3899839
20
-3.7352122
10
-1.3877612
20
-3.7547553
10
-1.3852729
20
-3.7746938
10
-1.3825102
20
-3.7950242
10
-1.3794642
20
-3.8157429
10
-1.3761261
20
-3.8368459
10
-1.3724872
20
-3.8583294
10
-1.3685389
20
-3.8801893
10
-1.3642723
20
-3.9024213
10
-1.3596791
20
-3.9250211
10
-1.3547507
20
-3.947984
10
-1.3494785
20
-3.9713054
10
-1.3438543
20
-3.9949806
10
-1.3378696
20
-4.0190045
10
-1.3347395
20
-4.0311456
10
-1.3339425
20
-4.0341943
10
-1.3337423
20
-4.0349573
10
-1.3336922
20
-4.0351481
10
-1.3336672
20
-4.0352435
10
-1.3336546
20
-4.0352912
10
-1.3336398
20
-4.0353321
10
-1.2362103
20
-4.0662371
10
-1.2361746
20
-4.0662122
10
-1.2361369
20
-4.0661805
10
-1.2360614
20
-4.0661169
10
-1.2359105
20
-4.0659899
10
-1.2353071
20
-4.0654818
10
-1.2328985
20
-4.06345
10
-1.2233425
20
-4.0553329
10
-1.2046044
20
-4.0391512
10
-1.1863619
20
-4.0230467
10
-1.168611
20
-4.0070282
10
-1.1513476
20
-3.9911046
10
-1.1345675
20
-3.9752846
10
-1.1182663
20
-3.9595768
10
-1.1024396
20
-3.9439896
10
-1.0870827
20
-3.9285317
10
-1.0721909
20
-3.9132112
10
-1.0577594
20
-3.8980365
10
-1.0437832
20
-3.8830157
10
-1.0302571
20
-3.868157
10
-1.0171759
20
-3.8534684
10
-1.0045343
20
-3.8389577
10
-0.9923268
20
-3.8246328
10
-0.9805478
20
-3.8105013
10
-0.9691916
20
-3.7965709
10
-0.9582524
20
-3.782849
10
-0.9477243
20
-3.7693431
10
-0.9376011
20
-3.7560605
10
-0.9278768
20
-3.7430083
10
-0.9185451
20
-3.7301937
10
-0.9095996
20
-3.7176235
10
-0.9010339
20
-3.7053048
10
-0.8928413
20
-3.6932441
10
-0.8850152
20
-3.6814482
10
-0.8775488
20
-3.6699235
10
-0.8704353
20
-3.6586765
10
-0.8636676
20
-3.6477134
10
-0.8572387
20
-3.6370404
10
-0.8511415
20
-3.6266636
10
-0.8453686
20
-3.6165889
10
-0.8160824
20
-3.6216938
10
-0.7242728
20
-3.6411654
10
-0.6954356
20
-3.6483877
10
-0.6942492
20
-3.6599384
10
-0.692889
20
-3.6718968
10
-0.6913459
20
-3.6842605
10
-0.6896109
20
-3.6970269
10
-0.6876751
20
-3.7101932
10
-0.6855295
20
-3.7237564
10
-0.6831653
20
-3.7377136
10
-0.6805736
20
-3.7520614
10
-0.6777457
20
-3.7667967
10
-0.6746727
20
-3.7819158
10
-0.671346
20
-3.7974151
10
-0.667757
20
-3.8132908
10
-0.6638969
20
-3.8295391
10
-0.6597573
20
-3.8461558
10
-0.6553298
20
-3.8631368
10
-0.6506058
20
-3.8804776
10
-0.645577
20
-3.8981738
10
-0.6402352
20
-3.9162207
10
-0.634572
20
-3.9346136
10
-0.6285793
20
-3.9533475
10
-0.622249
20
-3.9724175
10
-0.6155731
20
-3.9918183
10
-0.6085437
20
-4.0115446
10
-0.6011527
20
-4.0315909
10
-0.5933925
20
-4.0519517
10
-0.5852554
20
-4.0726213
10
-0.5767336
20
-4.0935937
10
-0.5678196
20
-4.1148631
10
-0.558506
20
-4.1364233
10
-0.5487854
20
-4.1582681
10
-0.5386504
20
-4.1803911
10
-0.5280939
20
-4.2027859
10
-0.5226554
20
-4.2140831
10
-0.5212789
20
-4.2169176
10
-0.5209337
20
-4.2176269
10
-0.5208474
20
-4.2178043
10
-0.5208042
20
-4.2178929
10
-0.5207826
20
-4.2179373
10
-0.5207601
20
-4.2179745
10
-0.4191733
20
-4.2292782
10
-0.4191432
20
-4.2292468
10
-0.4191124
20
-4.2292083
10
-0.4190508
20
-4.2291313
10
-0.4189275
20
-4.2289772
10
-0.4184349
20
-4.2283612
10
-0.416469
20
-4.2258985
10
-0.4086801
20
-4.2160731
10
-0.393459
20
-4.1965467
10
-0.3787088
20
-4.1771927
10
-0.364424
20
-4.158019
10
-0.3505989
20
-4.1390335
10
-0.3372275
20
-4.1202438
10
-0.324304
20
-4.1016576
10
-0.3118223
20
-4.0832823
10
-0.2997762
20
-4.0651253
10
-0.2881594
20
-4.047194
10
-0.2769657
20
-4.0294954
10
-0.2661884
20
-4.0120367
10
-0.255821
20
-3.9948247
10
-0.2458568
20
-3.9778663
10
-0.236289
20
-3.9611681
10
-0.2271107
20
-3.9447369
10
-0.218315
20
-3.928579
10
-0.2098947
20
-3.9127007
10
-0.2018426
20
-3.8971084
10
-0.1941517
20
-3.8818081
10
-0.1868143
20
-3.8668058
10
-0.1798232
20
-3.8521073
10
-0.1731708
20
-3.8377183
10
-0.1668495
20
-3.8236445
10
-0.1608517
20
-3.8098914
10
-0.1551694
20
-3.7964641
10
-0.149795
20
-3.7833681
10
-0.1447204
20
-3.7706082
10
-0.1399378
20
-3.7581895
10
-0.1354389
20
-3.7461168
10
-0.1312158
20
-3.7343947
10
-0.1272601
20
-3.7230278
10
-0.1235636
20
-3.7120204
10
-0.0938442
20
-3.7113137
10
0
20
-3.7125
10
0.0296921
20
-3.7139577
10
0.0331091
20
-3.725055
10
0.0367762
20
-3.7365183
10
0.0407017
20
-3.7483434
10
0.044894
20
-3.760526
10
0.0493612
20
-3.7730616
10
0.0541116
20
-3.7859456
10
0.0591532
20
-3.7991734
10
0.0644943
20
-3.81274
10
0.0701426
20
-3.8266403
10
0.0761061
20
-3.8408694
10
0.0823926
20
-3.8554219
10
0.0890099
20
-3.8702925
10
0.0959657
20
-3.8854755
10
0.1032675
20
-3.9009653
10
0.1109228
20
-3.9167562
10
0.118939
20
-3.9328422
10
0.1273235
20
-3.9492173
10
0.1360835
20
-3.9658753
10
0.1452262
20
-3.9828099
10
0.1547585
20
-4.0000148
10
0.1646875
20
-4.0174834
10
0.17502
20
-4.035209
10
0.1857629
20
-4.0531848
10
0.1969226
20
-4.0714041
10
0.2085059
20
-4.0898597
10
0.2205191
20
-4.1085446
10
0.2329687
20
-4.1274516
10
0.2458608
20
-4.1465733
10
0.2592017
20
-4.1659022
10
0.2729972
20
-4.1854309
10
0.2872534
20
-4.2051516
10
0.3019761
20
-4.2250565
10
0.3095141
20
-4.2350756
10
0.3114171
20
-4.2375872
10
0.3118941
20
-4.2382155
10
0.3120134
20
-4.2383726
10
0.312073
20
-4.2384512
10
0.3121029
20
-4.2384904
10
0.3121322
20
-4.2385226
10
0.4139722
20
-4.2297904
10
0.4139956
20
-4.2297538
10
0.4140183
20
-4.22971
10
0.4140637
20
-4.2296224
10
0.4141546
20
-4.2294473
10
0.4145176
20
-4.228747
10
0.4159653
20
-4.2259481
10
0.4216876
20
-4.214792
10
0.4328069
20
-4.1926713
10
0.4434978
20
-4.1708115
10
0.4537675
20
-4.1492194
10
0.4636232
20
-4.1279015
10
0.4730719
20
-4.1068643
10
0.4821211
20
-4.0861139
10
0.4907782
20
-4.0656567
10
0.4990505
20
-4.0454985
10
0.5069458
20
-4.0256454
10
0.5144717
20
-4.0061031
10
0.5216359
20
-3.9868773
10
0.5284462
20
-3.9679734
10
0.5349105
20
-3.949397
10
0.5410368
20
-3.9311531
10
0.5468332
20
-3.913247
10
0.5523076
20
-3.8956836
10
0.5574685
20
-3.8784677
10
0.5623238
20
-3.8616041
10
0.5668821
20
-3.8450974
10
0.5711516
20
-3.8289518
10
0.5751409
20
-3.8131719
10
0.5788583
20
-3.7977616
10
0.5823125
20
-3.782725
10
0.585512
20
-3.768066
10
0.5884655
20
-3.7537882
10
0.5911818
20
-3.7398953
10
0.5936695
20
-3.7263906
10
0.5959375
20
-3.7132775
10
0.5979946
20
-3.700559
10
0.5998498
20
-3.6882383
10
0.6015119
20
-3.6763181
10
0.6029899
20
-3.664801
10
0.6320004
20
-3.65831
10
0.7242728
20
-3.6411654
10
0.7536788
20
-3.6368024
10
0.7591951
20
-3.6470198
10
0.7650281
20
-3.6575475
10
0.7711852
20
-3.6683795
10
0.7776736
20
-3.6795102
10
0.7845005
20
-3.6909334
10
0.7916732
20
-3.7026431
10
0.7991986
20
-3.7146331
10
0.8070837
20
-3.726897
10
0.8153353
20
-3.7394284
10
0.8239602
20
-3.7522206
10
0.832965
20
-3.7652671
10
0.8423562
20
-3.7785609
10
0.8521404
20
-3.7920952
10
0.8623238
20
-3.8058629
10
0.8729127
20
-3.8198569
10
0.8839131
20
-3.8340699
10
0.8953311
20
-3.8484946
10
0.9071726
20
-3.8631235
10
0.9194434
20
-3.8779491
10
0.932149
20
-3.8929637
10
0.9452952
20
-3.9081596
10
0.9588873
20
-3.9235288
10
0.9729306
20
-3.9390635
10
0.9874303
20
-3.9547555
10
1.0023916
20
-3.9705967
10
1.0178192
20
-3.986579
10
1.0337181
20
-4.0026939
10
1.050093
20
-4.018933
10
1.0669484
20
-4.0352878
10
1.0842887
20
-4.0517499
10
1.1021183
20
-4.0683104
10
1.1204413
20
-4.0849606
10
1.1297892
20
-4.0933166
10
1.1321456
20
-4.0954087
10
1.1327359
20
-4.0959319
10
1.1328836
20
-4.0960627
10
1.1329574
20
-4.0961281
10
1.1329944
20
-4.0961608
10
1.1330294
20
-4.0961866
10
1.231209
20
-4.0677542
10
1.2312248
20
-4.0677137
10
1.2312386
20
-4.0676663
10
1.231266
20
-4.0675716
10
1.2313209
20
-4.0673821
10
1.2315403
20
-4.0666244
10
1.2324142
20
-4.0635969
10
1.2358502
20
-4.0515388
10
1.2424402
20
-4.0276738
10
1.2486611
20
-4.0041484
10
1.2545211
20
-3.9809677
10
1.2600284
20
-3.9581367
10
1.2651914
20
-3.9356603
10
1.2700186
20
-3.9135432
10
1.2745183
20
-3.8917901
10
1.278699
20
-3.8704055
10
1.2825695
20
-3.8493935
10
1.2861382
20
-3.8287585
10
1.289414
20
-3.8085044
10
1.2924054
20
-3.7886352
10
1.2951215
20
-3.7691545
10
1.2975709
20
-3.7500661
10
1.2997625
20
-3.7313732
10
1.3017054
20
-3.7130792
10
1.3034084
20
-3.6951873
10
1.3048805
20
-3.6777005
10
1.3061309
20
-3.6606217
10
1.3071686
20
-3.6439535
10
1.3080026
20
-3.6276984
10
1.3086422
20
-3.611859
10
1.3090965
20
-3.5964375
10
1.3093748
20
-3.5814359
10
1.3094861
20
-3.5668563
10
1.3094398
20
-3.5527004
10
1.3092451
20
-3.5389699
10
1.3089112
20
-3.5256662
10
1.3084476
20
-3.5127909
10
1.3078634
20
-3.5003449
10
1.3071681
20
-3.4883295
10
1.3063708
20
-3.4767454
10
1.3335576
20
-3.4647194
10
1.4207122
20
-3.4299028
10
1.448702
20
-3.4198868
10
1.4561057
20
-3.4288318
10
1.4638804
20
-3.4380191
10
1.4720324
20
-3.4474419
10
1.4805676
20
-3.4570928
10
1.4894919
20
-3.4669647
10
1.4988112
20
-3.4770501
10
1.5085312
20
-3.4873416
10
1.5186573
20
-3.4978315
10
1.5291951
20
-3.5085123
10
1.54015
20
-3.5193761
10
1.551527
20
-3.5304151
10
1.5633313
20
-3.5416214
10
1.5755678
20
-3.5529868
10
1.5882415
20
-3.5645032
10
1.601357
20
-3.5761626
10
1.6149189
20
-3.5879564
10
1.6289316
20
-3.5998764
10
1.6433995
20
-3.6119141
10
1.6583269
20
-3.6240609
10
1.6737176
20
-3.6363083
10
1.6895757
20
-3.6486475
10
1.7059051
20
-3.6610697
10
1.7227092
20
-3.6735661
10
1.7399917
20
-3.6861279
10
1.7577559
20
-3.6987459
10
1.7760051
20
-3.7114113
10
1.7947424
20
-3.7241148
10
1.8139707
20
-3.7368473
10
1.8336929
20
-3.7495996
10
1.8539116
20
-3.7623624
10
1.8746294
20
-3.7751263
10
1.8958487
20
-3.787882
10
1.906647
20
-3.7942538
10
1.9093663
20
-3.7958459
10
1.9100474
20
-3.7962439
10
1.9102177
20
-3.7963434
10
1.9103029
20
-3.7963931
10
1.9103455
20
-3.796418
10
1.9103849
20
-3.7964364
10
2.0011312
20
-3.7493965
10
2.0011388
20
-3.7493537
10
2.001143
20
-3.7493045
10
2.0011515
20
-3.7492063
10
2.0011683
20
-3.7490097
10
2.0012357
20
-3.7482238
10
2.0015021
20
-3.745084
10
2.0025197
20
-3.7325872
10
2.0043272
20
-3.7078951
10
2.005839
20
-3.6836081
10
2.0070641
20
-3.6597296
10
2.0080115
20
-3.6362628
10
2.0086904
20
-3.6132111
10
2.0091099
20
-3.5905773
10
2.0092793
20
-3.5683643
10
2.0092078
20
-3.5465749
10
2.0089047
20
-3.5252116
10
2.0083792
20
-3.5042769
10
2.0076406
20
-3.4837729
10
2.0066983
20
-3.4637019
10
2.0055616
20
-3.4440656
10
2.00424
20
-3.4248661
10
2.0027427
20
-3.4061048
10
2.0010793
20
-3.3877833
10
1.999259
20
-3.369903
10
1.9972914
20
-3.352465
10
1.9951858
20
-3.3354704
10
1.9929517
20
-3.31892
10
1.9905986
20
-3.3028146
10
1.9881358
20
-3.2871547
10
1.9855728
20
-3.2719409
10
1.982919
20
-3.2571733
10
1.9801838
20
-3.2428521
10
1.9773767
20
-3.2289772
10
1.974507
20
-3.2155485
10
1.9715842
20
-3.2025656
10
1.9686176
20
-3.1900281
10
1.9656166
20
-3.1779353
10
1.9625905
20
-3.1662864
10
1.9595486
20
-3.1550804
10
1.9838669
20
-3.1379816
10
2.0625545
20
-3.0868309
10
2.0880524
20
-3.0715469
10
2.0970589
20
-3.0788756
10
2.1064766
20
-3.0863696
10
2.1163103
20
-3.094021
10
2.1265643
20
-3.1018213
10
2.137243
20
-3.1097625
10
2.1483508
20
-3.117836
10
2.1598918
20
-3.1260334
10
2.1718698
20
-3.1343463
10
2.1842889
20
-3.142766
10
2.1971526
20
-3.1512839
10
2.2104646
20
-3.1598913
10
2.2242283
20
-3.1685793
10
2.2384471
20
-3.1773391
10
2.253124
20
-3.1861618
10
2.2682621
20
-3.1950383
10
2.2838642
20
-3.2039598
10
2.2999332
20
-3.212917
10
2.3164716
20
-3.2219008
10
2.3334818
20
-3.2309021
10
2.3509662
20
-3.2399115
10
2.3689268
20
-3.2489198
10
2.3873658
20
-3.2579177
10
2.406285
20
-3.2668957
10
2.4256861
20
-3.2758444
10
2.4455706
20
-3.2847544
10
2.4659401
20
-3.2936162
10
2.4867956
20
-3.3024201
10
2.5081385
20
-3.3111567
10
2.5299696
20
-3.3198164
10
2.5522897
20
-3.3283895
10
2.5750995
20
-3.3368663
10
2.5983996
20
-3.3452372
10
2.6102335
20
-3.3493799
10
2.6132112
20
-3.3504109
10
2.6139568
20
-3.3506683
10
2.6141433
20
-3.3507327
10
2.6142365
20
-3.3507649
10
2.6142832
20
-3.3507809
10
2.6143254
20
-3.3507914
10
2.694151
20
-3.2869516
10
2.6941501
20
-3.2869081
10
2.6941446
20
-3.2868591
10
2.6941337
20
-3.286761
10
2.694112
20
-3.286565
10
2.6940247
20
-3.285781
10
2.6936735
20
-3.2826495
10
2.6922334
20
-3.2701944
10
2.6891891
20
-3.2456241
10
2.6859337
20
-3.2215088
10
2.6824767
20
-3.1978501
10
2.6788278
20
-3.1746495
10
2.6749965
20
-3.1519082
10
2.6709923
20
-3.1296274
10
2.6668249
20
-3.1078082
10
2.6625039
20
-3.0864515
10
2.6580388
20
-3.0655578
10
2.6534392
20
-3.0451278
10
2.6487147
20
-3.0251619
10
2.6438749
20
-3.0056604
10
2.6389292
20
-2.9866232
10
2.6338873
20
-2.9680504
10
2.6287587
20
-2.9499417
10
2.6235528
20
-2.9322968
10
2.6182793
20
-2.9151152
10
2.6129475
20
-2.8983961
10
2.6075669
20
-2.8821388
10
2.6021469
20
-2.8663423
10
2.596697
20
-2.8510054
10
2.5912264
20
-2.8361269
10
2.5857445
20
-2.8217054
10
2.5802607
20
-2.8077393
10
2.5747842
20
-2.7942269
10
2.5693242
20
-2.7811663
10
2.5638898
20
-2.7685554
10
2.5584904
20
-2.7563922
10
2.5531348
20
-2.7446744
10
2.5478323
20
-2.7333994
10
2.5425917
20
-2.7225647
10
2.5374221
20
-2.7121675
10
2.5579373
20
-2.6906529
10
2.6251339
20
-2.6251339
10
2.6471602
20
-2.6051692
10
2.6574234
20
-2.6106
10
2.6681221
20
-2.6161127
10
2.6792595
20
-2.6216986
10
2.6908382
20
-2.6273486
10
2.7028611
20
-2.6330538
10
2.7153305
20
-2.6388052
10
2.7282489
20
-2.6445936
10
2.7416186
20
-2.6504099
10
2.7554416
20
-2.6562451
10
2.7697199
20
-2.6620897
10
2.7844554
20
-2.6679346
10
2.7996496
20
-2.6737705
10
2.8153041
20
-2.679588
10
2.8314202
20
-2.6853779
10
2.8479991
20
-2.6911306
10
2.865042
20
-2.6968368
10
2.8825496
20
-2.702487
10
2.9005229
20
-2.7080717
10
2.9189623
20
-2.7135815
10
2.9378684
20
-2.7190068
10
2.9572414
20
-2.7243381
10
2.9770815
20
-2.7295658
10
2.9973887
20
-2.7346803
10
3.0181628
20
-2.7396721
10
3.0394035
20
-2.7445316
10
3.0611104
20
-2.7492492
10
3.0832828
20
-2.7538153
10
3.1059199
20
-2.7582202
10
3.129021
20
-2.7624545
10
3.1525847
20
-2.7665084
10
3.17661
20
-2.7703723
10
3.2010955
20
-2.7740368
10
3.2135102
20
-2.7757912
10
3.2166318
20
-2.7762215
10
3.2174133
20
-2.7763285
10
3.2176088
20
-2.7763552
10
3.2177065
20
-2.7763686
10
3.2177554
20
-2.7763753
10
3.2177988
20
-2.7763773
10
3.283636
20
-2.6981909
10
3.2836267
20
-2.6981485
10
3.2836118
20
-2.6981015
10
3.283582
20
-2.6980074
10
3.2835224
20
-2.6978194
10
3.2832839
20
-2.6970675
10
3.2823284
20
-2.6940647
10
3.2784862
20
-2.6821298
10
3.2707069
20
-2.6586256
10
3.2628094
20
-2.6356088
10
3.2548033
20
-2.6130791
10
3.2466983
20
-2.5910361
10
3.2385039
20
-2.5694792
10
3.23023
20
-2.5484078
10
3.221886
20
-2.5278208
10
3.2134815
20
-2.5077174
10
3.205026
20
-2.4880963
10
3.1965291
20
-2.4689563
10
3.1880002
20
-2.4502957
10
3.1794488
20
-2.4321131
10
3.1708842
20
-2.4144065
10
3.1623158
20
-2.3971742
10
3.1537529
20
-2.380414
10
3.1452047
20
-2.3641238
10
3.1366805
20
-2.3483011
10
3.1281895
20
-2.3329435
10
3.1197406
20
-2.3180482
10
3.111343
20
-2.3036126
10
3.1030057
20
-2.2896337
10
3.0947376
20
-2.2761084
10
3.0865476
20
-2.2630334
10
3.0784445
20
-2.2504055
10
3.0704371
20
-2.2382211
10
3.0625339
20
-2.2264767
10
3.0547438
20
-2.2151683
10
3.0470751
20
-2.2042922
10
3.0395365
20
-2.1938443
10
3.0321362
20
-2.1838205
10
3.0248826
20
-2.1742163
10
3.0177839
20
-2.1650274
10
3.0337076
20
-2.139924
10
3.0868309
20
-2.0625545
10
3.104539
20
-2.0386763
10
3.1156645
20
-2.0420004
10
3.1272332
20
-2.04532
10
3.1392463
20
-2.0486258
10
3.1517048
20
-2.0519083
10
3.1646097
20
-2.0551584
10
3.1779615
20
-2.0583666
10
3.191761
20
-2.0615235
10
3.2060085
20
-2.0646198
10
3.2207043
20
-2.0676461
10
3.2358485
20
-2.0705928
10
3.2514411
20
-2.0734507
10
3.2674818
20
-2.0762102
10
3.2839705
20
-2.0788619
10
3.3009064
20
-2.0813964
10
3.3182891
20
-2.0838042
10
3.3361177
20
-2.0860759
10
3.3543913
20
-2.0882019
10
3.3731087
20
-2.090173
10
3.3922688
20
-2.0919795
10
3.41187
20
-2.0936122
10
3.4319108
20
-2.0950615
10
3.4523896
20
-2.0963181
10
3.4733043
20
-2.0973727
10
3.4946531
20
-2.0982157
10
3.5164337
20
-2.098838
10
3.5386439
20
-2.0992302
10
3.5612811
20
-2.0993829
10
3.5843426
20
-2.0992869
10
3.6078258
20
-2.098933
10
3.6317277
20
-2.0983119
10
3.6560452
20
-2.0974145
10
3.680775
20
-2.0962317
10
3.6932935
20
-2.0955304
10
3.6964391
20
-2.0953434
10
3.6972265
20
-2.0952959
10
3.6974234
20
-2.095284
10
3.6975218
20
-2.0952781
10
3.6975711
20
-2.0952751
10
3.6976141
20
-2.0952686
10
3.7469328
20
-2.0057403
10
3.7469154
20
-2.0057005
10
3.7468916
20
-2.0056573
10
3.746844
20
-2.0055709
10
3.7467489
20
-2.0053981
10
3.7463682
20
-2.0047072
10
3.7448454
20
-2.0019485
10
3.7387486
20
-1.9909925
10
3.7265334
20
-1.9694576
10
3.7142972
20
-1.9484238
10
3.7020496
20
-1.9278889
10
3.6897999
20
-1.9078507
10
3.6775575
20
-1.8883066
10
3.6653317
20
-1.8692542
10
3.6531317
20
-1.8506907
10
3.6409667
20
-1.8326132
10
3.6288458
20
-1.8150187
10
3.6167782
20
-1.7979041
10
3.6047727
20
-1.781266
10
3.5928383
20
-1.765101
10
3.5809839
20
-1.7494056
10
3.5692183
20
-1.734176
10
3.5575502
20
-1.7194084
10
3.5459882
20
-1.7050988
10
3.5345409
20
-1.6912431
10
3.5232169
20
-1.6778371
10
3.5120244
20
-1.6648764
10
3.500972
20
-1.6523564
10
3.4900677
20
-1.6402726
10
3.4793198
20
-1.6286202
10
3.4687364
20
-1.6173943
10
3.4583254
20
-1.6065899
10
3.4480947
20
-1.5962018
10
3.4380523
20
-1.5862248
10
3.4282056
20
-1.5766535
10
3.4185625
20
-1.5674825
10
3.4091304
20
-1.5587061
10
3.3999168
20
-1.5503185
10
3.3909288
20
-1.542314
10
3.3821739
20
-1.5346866
10
3.3928942
20
-1.506959
10
3.4299028
20
-1.4207122
10
3.4426122
20
-1.3938381
10
3.4541724
20
-1.394928
10
3.4661664
20
-1.3959269
10
3.4785936
20
-1.3968254
10
3.4914532
20
-1.3976144
10
3.5047441
20
-1.3982844
10
3.5184653
20
-1.3988261
10
3.5326155
20
-1.3992302
10
3.5471933
20
-1.3994875
10
3.5621971
20
-1.3995886
10
3.5776252
20
-1.3995242
10
3.5934757
20
-1.3992852
10
3.6097466
20
-1.3988623
10
3.6264357
20
-1.3982463
10
3.6435408
20
-1.3974281
10
3.6610592
20
-1.3963984
10
3.6789884
20
-1.3951482
10
3.6973256
20
-1.3936684
10
3.7160679
20
-1.39195
10
3.7352122
20
-1.3899839
10
3.7547553
20
-1.3877612
10
3.7746938
20
-1.3852729
10
3.7950242
20
-1.3825102
10
3.8157429
20
-1.3794642
10
3.8368459
20
-1.3761261
10
3.8583294
20
-1.3724872
10
3.8801893
20
-1.3685389
10
3.9024213
20
-1.3642723
10
3.9250211
20
-1.3596791
10
3.947984
20
-1.3547507
10
3.9713054
20
-1.3494785
10
3.9949806
20
-1.3438543
10
4.0190045
20
-1.3378696
10
4.0311456
20
-1.3347395
10
4.0341943
20
-1.3339425
10
4.0349573
20
-1.3337423
10
4.0351481
20
-1.3336922
10
4.0352435
20
-1.3336672
10
4.0352912
20
-1.3336546
10
4.0353321
20
-1.3336398
10
4.0662371
20
-1.2362103
10
4.0662122
20
-1.2361746
10
4.0661805
20
-1.2361369
10
4.0661169
20
-1.2360614
10
4.0659899
20
-1.2359105
10
4.0654818
20
-1.2353071
10
4.06345
20
-1.2328985
10
4.0553329
20
-1.2233425
10
4.0391512
20
-1.2046044
10
4.0230467
20
-1.1863619
10
4.0070282
20
-1.168611
10
3.9911046
20
-1.1513476
10
3.9752846
20
-1.1345675
10
3.9595768
20
-1.1182663
10
3.9439896
20
-1.1024396
10
3.9285317
20
-1.0870827
10
3.9132112
20
-1.0721909
10
3.8980365
20
-1.0577594
10
3.8830157
20
-1.0437832
10
3.868157
20
-1.0302571
10
3.8534684
20
-1.0171759
10
3.8389577
20
-1.0045343
10
3.8246328
20
-0.9923268
10
3.8105013
20
-0.9805478
10
3.7965709
20
-0.9691916
10
3.782849
20
-0.9582524
10
3.7693431
20
-0.9477243
10
3.7560605
20
-0.9376011
10
3.7430083
20
-0.9278768
10
3.7301937
20
-0.9185451
10
3.7176235
20
-0.9095996
10
3.7053048
20
-0.9010339
10
3.6932441
20
-0.8928413
10
3.6814482
20
-0.8850152
10
3.6699235
20
-0.8775488
10
3.6586765
20
-0.8704353
10
3.6477134
20
-0.8636676
10
3.6370404
20
-0.8572387
10
3.6266636
20
-0.8511415
10
3.6165889
20
-0.8453686
10
3.6216938
20
-0.8160824
10
3.6411654
20
-0.7242728
10
3.6483877
20
-0.6954356
10
3.6599384
20
-0.6942492
10
3.6718968
20
-0.692889
10
3.6842605
20
-0.6913459
10
3.6970269
20
-0.6896109
10
3.7101932
20
-0.6876751
10
3.7237564
20
-0.6855295
10
3.7377136
20
-0.6831653
10
3.7520614
20
-0.6805736
10
3.7667967
20
-0.6777457
10
3.7819158
20
-0.6746727
10
3.7974151
20
-0.671346
10
3.8132908
20
-0.667757
10
3.8295391
20
-0.6638969
10
3.8461558
20
-0.6597573
10
3.8631368
20
-0.6553298
10
3.8804776
20
-0.6506058
10
3.8981738
20
-0.645577
10
3.9162207
20
-0.6402352
10
3.9346136
20
-0.634572
10
3.9533475
20
-0.6285793
10
3.9724175
20
-0.622249
10
3.9918183
20
-0.6155731
10
4.0115446
20
-0.6085437
10
4.0315909
20
-0.6011527
10
4.0519517
20
-0.5933925
10
4.0726213
20
-0.5852554
10
4.0935937
20
-0.5767336
10
4.1148631
20
-0.5678196
10
4.1364233
20
-0.558506
10
4.1582681
20
-0.5487854
10
4.1803911
20
-0.5386504
10
4.2027859
20
-0.5280939
10
4.2140831
20
-0.5226554
10
4.2169176
20
-0.5212789
10
4.2176269
20
-0.5209337
10
4.2178043
20
-0.5208474
10
4.2178929
20
-0.5208042
10
4.2179373
20
-0.5207826
10
4.2179745
20
-0.5207601
10
4.2292782
20
-0.4191733
10
4.2292468
20
-0.4191432
10
4.2292083
20
-0.4191124
10
4.2291313
20
-0.4190508
10
4.2289772
20
-0.4189275
10
4.2283612
20
-0.4184349
10
4.2258985
20
-0.416469
10
4.2160731
20
-0.4086801
10
4.1965467
20
-0.393459
10
4.1771927
20
-0.3787088
10
4.158019
20
-0.364424
10
4.1390335
20
-0.3505989
10
4.1202438
20
-0.3372275
10
4.1016576
20
-0.324304
10
4.0832823
20
-0.3118223
10
4.0651253
20
-0.2997762
10
4.047194
20
-0.2881594
10
4.0294954
20
-0.2769657
10
4.0120367
20
-0.2661884
10
3.9948247
20
-0.255821
10
3.9778663
20
-0.2458568
10
3.9611681
20
-0.236289
10
3.9447369
20
-0.2271107
10
3.928579
20
-0.218315
10
3.9127007
20
-0.2098947
10
3.8971084
20
-0.2018426
10
3.8818081
20
-0.1941517
10
3.8668058
20
-0.1868143
10
3.8521073
20
-0.1798232
10
3.8377183
20
-0.1731708
10
3.8236445
20
-0.1668495
10
3.8098914
20
-0.1608517
10
3.7964641
20
-0.1551694
10
3.7833681
20
-0.149795
10
3.7706082
20
-0.1447204
10
3.7581895
20
-0.1399378
10
3.7461168
20
-0.1354389
10
3.7343947
20
-0.1312158
10
3.7230278
20
-0.1272601
10
3.7120204
20
-0.1235636
10
3.7113137
20
-0.0938442
8
gear
0
LWPOLYLINE
5
1004
100
AcDbEntity
100
AcDbPolyline
90
5
70
0
43
0
10
2.7690563
20
1.9943629
10
2.7514167
20
2.0186289
10
2.7335644
20
2.0427389
10
2.7155008
20
2.066691
10
2.6972274
20
2.0904833
8
gear_texts
0
LWPOLYLINE
5
1005
100
AcDbEntity
100
AcDbPolyline
90
2
70
0
43
0
10
2.6855017
20
2.0068226
10
2.781627
20
2.0786552
8
gear_texts
0
LWPOLYLINE
5
1006
100
AcDbEntity
100
AcDbPolyline
90
5
70
0
43
0
10
2.817743
20
2.0294287
10
2.7756049
20
2.0363751
10
2.7335644
20
2.0427389
10
2.6916283
20
2.0485222
10
2.6498036
20
2.0537276
8
gear_texts
0
LWPOLYLINE
5
1007
100
AcDbEntity
100
AcDbPolyline
90
5
70
0
43
0
10
2.7203696
20
1.9592972
10
2.7272284
20
2.0008827
10
2.7335644
20
2.0427389
10
2.7393734
20
2.0848597
10
2.7446512
20
2.1272391
8
gear_texts
0
LWPOLYLINE
5
1008
100
AcDbEntity
100
AcDbPolyline
90
3
70
0
43
0
10
2.8529879
20
1.9795748
10
2.8950775
20
1.9713022
10
2.7462941
20
1.8699933
8
gear_texts
0
LWPOLYLINE
5
1009
100
AcDbEntity
100
AcDbPolyline
90
3
70
0
43
0
10
2.7626273
20
1.8457781
10
2.7462941
20
1.8699933
10
2.7297487
20
1.894064
8
gear_texts
0
LWPOLYLINE
5
1010
100
AcDbEntity
100
AcDbPolyline
90
7
70
0
43
0
10
3.0865587
20
1.6554944
10
2.9279347
20
1.5704155
10
2.9534834
20
1.6177121
10
2.9784237
20
1.6655776
10
3.0027477
20
1.7140049
10
3.0264473
20
1.7629869
10
2.8709126
20
1.6723837
8
gear_texts
0
LWPOLYLINE
5
1011
100
AcDbEntity
100
AcDbPolyline
90
5
70
0
43
0
10
3.1152518
20
1.4649274
10
3.1022531
20
1.4922573
10
3.0890147
20
1.5194718
10
3.0755375
20
1.5465689
10
3.0618226
20
1.5735465
8
gear_texts
0
LWPOLYLINE
5
1012
100
AcDbEntity
100
AcDbPolyline
90
5
70
0
43
0
10
3.0609555
20
1.4393949
10
3.0481834
20
1.4662484
10
3.0351756
20
1.4929886
10
3.0219333
20
1.5196135
10
3.0084575
20
1.5461209
8
gear_texts
0
LWPOLYLINE
5
1013
100
AcDbEntity
100
AcDbPolyline
90
13
70
0
43
0
10
3.1678944
20
1.4222171
10
3.2077502
20
1.4063588
10
3.2199897
20
1.3781048
10
3.2319803
20
1.3497443
10
3.2159376
20
1.3099623
10
3.1881542
20
1.2986452
10
3.1489315
20
1.3150614
10
3.1325872
20
1.2760108
10
3.1048037
20
1.2646937
10
3.0658828
20
1.2803784
10
3.0545084
20
1.3072814
10
3.0428979
20
1.3340834
10
3.0584207
20
1.3730692
8
gear_texts
0
LWPOLYLINE
5
1014
100
AcDbEntity
100
AcDbPolyline
90
2
70
0
43
0
10
3.137249
20
1.3426931
10
3.1489315
20
1.3150614
8
gear_texts
0
LWPOLYLINE
5
1015
100
AcDbEntity
100
AcDbPolyline
90
15
70
0
43
0
10
3.1388222
20
1.0894042
10
3.1291239
20
1.1169558
10
3.1191837
20
1.144421
10
3.1090024
20
1.1717978
10
3.0985809
20
1.1990841
10
3.1545372
20
1.220738
10
3.1932192
20
1.2035396
10
3.2036762
20
1.1754211
10
3.2138857
20
1.1472119
10
3.2521882
20
1.1287506
10
3.2805297
20
1.1385872
10
3.2986475
20
1.177468
10
3.2881688
20
1.2064213
10
3.277436
20
1.2352813
10
3.2384717
20
1.2532188
8
gear_texts
0
LWPOLYLINE
5
1016
100
AcDbEntity
100
AcDbPolyline
90
11
70
0
43
0
10
3.2865571
20
0.9185306
10
3.294505
20
0.8896027
10
3.3021983
20
0.860606
10
3.3096364
20
0.8315428
10
3.3459775
20
0.8094696
10
3.3751363
20
0.8165238
10
3.3969235
20
0.8534736
10
3.3892892
20
0.8833033
10
3.3813931
20
0.9130648
10
3.3732356
20
0.9427556
10
3.1998787
20
0.8943057
8
gear_texts
0
LWPOLYLINE
5
1017
100
AcDbEntity
100
AcDbPolyline
90
2
70
0
43
0
10
3.2425786
20
0.7243553
10
3.359692
20
0.7505171
8
gear_texts
0
LWPOLYLINE
5
1018
100
AcDbEntity
100
AcDbPolyline
90
2
70
0
43
0
10
3.3889704
20
0.7570576
10
3.4182487
20
0.763598
8
gear_texts
0
LWPOLYLINE
5
1019
100
AcDbEntity
100
AcDbPolyline
90
4
70
0
43
0
10
3.3058412
20
0.5573778
10
3.271276
20
0.5811706
10
3.2955307
20
0.6154133
10
3.4429818
20
0.6429486
8
gear_texts
0
LWPOLYLINE
5
1020
100
AcDbEntity
100
AcDbPolyline
90
5
70
0
43
0
10
3.3945887
20
0.5723409
10
3.389426
20
0.602161
10
3.3840013
20
0.6319344
10
3.3783152
20
0.6616591
10
3.3723679
20
0.6913326
8
gear_texts
0
LWPOLYLINE
5
1021
100
AcDbEntity
100
AcDbPolyline
90
10
70
0
43
0
10
3.3008256
20
0.3788882
10
3.2973673
20
0.4078915
10
3.293654
20
0.4368632
10
3.2896862
20
0.4658011
10
3.3151298
20
0.4991699
10
3.374461
20
0.5081036
10
3.4085011
20
0.4826246
10
3.4126122
20
0.4526415
10
3.4164595
20
0.4226234
10
3.4200428
20
0.3925727
8
gear_texts
0
LWPOLYLINE
5
1022
100
AcDbEntity
100
AcDbPolyline
90
6
70
0
43
0
10
3.3666966
20
0.3265893
10
3.3993217
20
0.2996137
10
3.4317304
20
0.2720895
10
3.4339898
20
0.2419103
10
3.4060405
20
0.2098675
10
3.3162109
20
0.2043325
8
gear_texts
0
LWPOLYLINE
5
1023
100
AcDbEntity
100
AcDbPolyline
90
2
70
0
43
0
10
3.3069769
20
0.3207962
10
3.4861359
20
0.3381756
8
gear_texts
0
LWPOLYLINE
5
1024
100
AcDbEntity
100
AcDbPolyline
90
10
70
0
43
0
10
3.3225
20
0
10
3.3223716
20
-0.0292084
10
3.3219865
20
-0.0584146
10
3.3213446
20
-0.0876162
10
3.3504274
20
-0.1178658
10
3.4703532
20
-0.1220847
10
3.501282
20
-0.0923629
10
3.5019586
20
-0.0615792
10
3.5023647
20
-0.0307908
10
3.5025
20
0
8
gear_texts
0
LWPOLYLINE
5
1025
100
AcDbEntity
100
AcDbPolyline
90
2
70
0
43
0
10
3.5023647
20
-0.0307908
10
3.3223716
20
-0.0292084
8
gear_texts
0
LWPOLYLINE
5
1026
100
AcDbEntity
100
AcDbPolyline
90
5
70
0
43
0
10
3.4292058
20
-0.3022477
10
3.4317304
20
-0.2720895
10
3.4339898
20
-0.2419103
10
3.4359837
20
-0.2117125
10
3.4377121
20
-0.1814982
8
gear_texts
0
LWPOLYLINE
5
1027
100
AcDbEntity
100
AcDbPolyline
90
5
70
0
43
0
10
3.3694375
20
-0.2969798
10
3.3719181
20
-0.2673472
10
3.3741381
20
-0.237694
10
3.3760973
20
-0.2080225
10
3.3777956
20
-0.1783349
8
gear_texts
0
LWPOLYLINE
5
1028
100
AcDbEntity
100
AcDbPolyline
90
19
70
0
43
0
10
3.3902385
20
-0.3891516
10
3.3636954
20
-0.3561737
10
3.3338622
20
-0.3530147
10
3.3008256
20
-0.3788882
10
3.2973673
20
-0.4078915
10
3.293654
20
-0.4368632
10
3.31939
20
-0.470007
10
3.3490937
20
-0.4742129
10
3.3828726
20
-0.4486969
10
3.3866865
20
-0.4189404
10
3.3902385
20
-0.3891516
10
3.4233618
20
-0.3624916
10
3.453195
20
-0.3656506
10
3.4796514
20
-0.3994149
10
3.4760057
20
-0.4299894
10
3.4720913
20
-0.4605307
10
3.4382048
20
-0.4868305
10
3.4085011
20
-0.4826246
10
3.3828726
20
-0.4486969
8
gear_texts
0
LWPOLYLINE
5
1029
100
AcDbEntity
100
AcDbPolyline
90
11
70
0
43
0
10
3.3429791
20
-0.6853079
10
3.3368253
20
-0.7146699
10
3.3304136
20
-0.7439766
10
3.3237446
20
-0.7732259
10
3.3459775
20
-0.8094696
10
3.3751363
20
-0.8165238
10
3.4114038
20
-0.7936187
10
3.4182487
20
-0.763598
10
3.4248295
20
-0.7335184
10
3.4311456
20
-0.703382
10
3.2548126
20
-0.6672339
8
gear_texts
0
LWPOLYLINE
5
1030
100
AcDbEntity
100
AcDbPolyline
90
5
70
0
43
0
10
3.2986463
20
-0.984753
10
3.3071759
20
-0.9557163
10
3.3154499
20
-0.9266056
10
3.3234677
20
-0.8974234
10
3.3312286
20
-0.8681718
8
gear_texts
0
LWPOLYLINE
5
1031
100
AcDbEntity
100
AcDbPolyline
90
5
70
0
43
0
10
3.2411536
20
-0.9675896
10
3.2495345
20
-0.9390589
10
3.2576643
20
-0.9104556
10
3.2655423
20
-0.881782
10
3.273168
20
-0.8530403
8
gear_texts
0
LWPOLYLINE
5
1032
100
AcDbEntity
100
AcDbPolyline
90
9
70
0
43
0
10
3.1856317
20
-1.1371265
10
3.1955052
20
-1.1090774
10
3.2051317
20
-1.0809425
10
3.2145106
20
-1.0527242
10
3.2236409
20
-1.0244244
10
3.252524
20
-1.0651732
10
3.2809368
20
-1.1065081
10
3.3088713
20
-1.1484238
10
3.1388222
20
-1.0894042
8
gear_texts
0
LWPOLYLINE
5
1033
100
AcDbEntity
100
AcDbPolyline
90
11
70
0
43
0
10
3.137249
20
-1.3426931
10
3.125324
20
-1.3702211
10
3.1131575
20
-1.3976432
10
3.1007504
20
-1.4249572
10
3.1152518
20
-1.4649274
10
3.1424
20
-1.4776937
10
3.1825285
20
-1.4625385
10
3.1952628
20
-1.4345041
10
3.2077502
20
-1.4063588
10
3.2199897
20
-1.3781048
10
3.0545084
20
-1.3072814
8
gear_texts
0
LWPOLYLINE
5
1034
100
AcDbEntity
100
AcDbPolyline
90
7
70
0
43
0
10
2.9813366
20
-1.4665055
10
3.0351756
20
-1.4929886
10
3.0755375
20
-1.5465689
10
3.1151877
20
-1.6009722
10
3.0478711
20
-1.6004025
10
2.9808094
20
-1.5987751
10
2.9279347
20
-1.5704155
8
gear_texts
0
LWPOLYLINE
5
1035
100
AcDbEntity
100
AcDbPolyline
90
5
70
0
43
0
10
3.0351756
20
-1.4929886
10
3.0219333
20
-1.5196135
10
3.0084575
20
-1.5461209
10
2.9947492
20
-1.5725087
10
2.9808094
20
-1.5987751
8
gear_texts
0
LWPOLYLINE
5
1036
100
AcDbEntity
100
AcDbPolyline
90
5
70
0
43
0
10
2.9436776
20
-1.784816
10
2.9592544
20
-1.7588689
10
2.9746024
20
-1.7327858
10
2.9897205
20
-1.7065689
10
3.0046076
20
-1.68022
8
gear_texts
0
LWPOLYLINE
5
1037
100
AcDbEntity
100
AcDbPolyline
90
5
70
0
43
0
10
2.8923717
20
-1.7537081
10
2.907677
20
-1.7282132
10
2.9227575
20
-1.7025848
10
2.9376121
20
-1.6768248
10
2.9522397
20
-1.6509351
8
gear_texts
0
LWPOLYLINE
5
1038
100
AcDbEntity
100
AcDbPolyline
90
15
70
0
43
0
10
2.7462941
20
-1.8699933
10
2.7626273
20
-1.8457781
10
2.7787469
20
-1.8214203
10
2.7946518
20
-1.7969217
10
2.8103407
20
-1.7722842
10
2.8610918
20
-1.8042893
10
2.8703534
20
-1.8455968
10
2.8540177
20
-1.870759
10
2.8374614
20
-1.8957766
10
2.845483
20
-1.9375326
10
2.8702803
20
-1.9544174
10
2.9122955
20
-1.9457751
10
2.9292885
20
-1.9200977
10
2.9460551
20
-1.8942718
10
2.9372184
20
-1.852297
8
gear_texts
0
LWPOLYLINE
5
1039
100
AcDbEntity
100
AcDbPolyline
90
7
70
0
43
0
10
2.8599716
20
-2.0218974
10
2.8420863
20
-2.0469615
10
2.8239815
20
-2.0718675
10
2.8056584
20
-2.0966133
10
2.7871184
20
-2.1211971
10
2.7335644
20
-2.0427389
10
2.6788518
20
-1.9653903
8
gear_texts
0
LINE
5
1001
100
AcDbEntity
100
AcDbLine
10
0.1
20
0
30
0
11
-0.1
21
0
31
0
8
gear_guides
0
LINE
5
1002
100
AcDbEntity
100
AcDbLine
10
0
20
0.1
30
0
11
0
21
-0.1
31
0
8
gear_guides
0
CIRCLE
5
1003
100
AcDbEntity
100
AcDbCircle
10
3.9853766
20
0.3417209
30
0
40
0.098125
8
gear_guides
0
CIRCLE
5
1040
100
AcDbEntity
100
AcDbCircle
10
0
20
0
30
0
40
4
8
gear_guides
0
CIRCLE
5
1041
100
AcDbEntity
100
AcDbCircle
10
0
20
0
30
0
40
4.25
8
gear_guides
0
CIRCLE
5
1042
100
AcDbEntity
100
AcDbCircle
10
0
20
0
30
0
40
3.5640261
8
gear_guides
0
ENDSEC
0
SECTION
2
OBJECTS
0
DICTIONARY
5
21D
330
0
100
AcDbDictionary
281
1
3
ACAD_CIP_PREVIOUS_PRODUCT_INFO
350
291
3
ACAD_COLOR
350
273
3
ACAD_DETAILVIEWSTYLE
350
27B
3
ACAD_GROUP
350
21E
3
ACAD_LAYOUT
350
272
3
ACAD_MATERIAL
350
221
3
ACAD_MLEADERSTYLE
350
276
3
ACAD_MLINESTYLE
350
26F
3
ACAD_PLOTSETTINGS
350
271
3
ACAD_PLOTSTYLENAME
350
21F
3
ACAD_SCALELIST
350
253
3
ACAD_SECTIONVIEWSTYLE
350
278
3
ACAD_TABLESTYLE
350
274
3
ACAD_VISUALSTYLE
350
23A
3
ACDB_RECOMPOSE_DATA
350
1057
3
AcDbVariableDictionary
350
29D
0
DICTIONARY
5
297
330
213
100
AcDbDictionary
280
1
281
1
3
ACAD_LAYERSTATES
360
298
0
DICTIONARY
5
292
330
265
100
AcDbDictionary
280
1
281
1
3
ADSK_XREC_LAYER_RECONCILED
360
293
0
XRECORD
5
291
102
{ACAD_REACTORS
330
21D
102
}
330
21D
100
AcDbXrecord
280
1
300
ACDMAC
300
2013
300
ACDMAC_F_S
0
DICTIONARY
5
273
102
{ACAD_REACTORS
330
21D
102
}
330
21D
100
AcDbDictionary
281
1
0
DICTIONARY
5
27B
102
{ACAD_REACTORS
330
21D
102
}
330
21D
100
AcDbDictionary
281
1
3
Imperial24
350
27C
0
DICTIONARY
5
21E
102
{ACAD_REACTORS
330
21D
102
}
330
21D
100
AcDbDictionary
281
1
0
DICTIONARY
5
272
102
{ACAD_REACTORS
330
21D
102
}
330
21D
100
AcDbDictionary
281
1
3
Layout1
350
280
3
Model
350
284
0
DICTIONARY
5
221
102
{ACAD_REACTORS
330
21D
102
}
330
21D
100
AcDbDictionary
281
1
3
ByBlock
350
22A
3
ByLayer
350
222
3
Global
350
232
0
DICTIONARY
5
276
102
{ACAD_REACTORS
330
21D
102
}
330
21D
100
AcDbDictionary
281
1
3
Standard
350
277
0
DICTIONARY
5
26F
102
{ACAD_REACTORS
330
21D
102
}
330
21D
100
AcDbDictionary
281
1
3
Standard
350
270
0
DICTIONARY
5
271
102
{ACAD_REACTORS
330
21D
102
}
330
21D
100
AcDbDictionary
281
1
0
ACDBDICTIONARYWDFLT
5
21F
102
{ACAD_REACTORS
330
21D
102
}
330
21D
100
AcDbDictionary
281
1
3
Normal
350
220
100
AcDbDictionaryWithDefault
340
220
0
DICTIONARY
5
253
102
{ACAD_REACTORS
330
21D
102
}
330
21D
100
AcDbDictionary
281
1
3
A0
350
254
3
A1
350
255
3
A2
350
256
3
A3
350
257
3
A4
350
258
3
A5
350
259
3
A6
350
25A
3
A7
350
25B
3
A8
350
25C
3
A9
350
25D
3
B0
350
25E
3
B1
350
25F
3
B2
350
260
3
B3
350
261
3
B4
350
262
3
B5
350
263
3
B6
350
264
0
DICTIONARY
5
278
102
{ACAD_REACTORS
330
21D
102
}
330
21D
100
AcDbDictionary
281
1
3
Imperial24
350
27A
0
DICTIONARY
5
274
102
{ACAD_REACTORS
330
21D
102
}
330
21D
100
AcDbDictionary
281
1
3
Standard
350
275
0
DICTIONARY
5
23A
102
{ACAD_REACTORS
330
21D
102
}
330
21D
100
AcDbDictionary
281
1
3
2dWireframe
350
240
3
Basic
350
23F
3
Brighten
350
246
3
ColorChange
350
24A
3
Conceptual
350
243
3
Dim
350
245
3
EdgeColorOff
350
252
3
Facepattern
350
249
3
Flat
350
23B
3
FlatWithEdges
350
23C
3
Gouraud
350
23D
3
GouraudWithEdges
350
23E
3
Hidden
350
242
3
JitterOff
350
250
3
Linepattern
350
248
3
OverhangOff
350
251
3
Realistic
350
244
3
Shaded
350
24F
3
Shaded with edges
350
24E
3
Shades of Gray
350
24B
3
Sketchy
350
24C
3
Thicken
350
247
3
Wireframe
350
241
3
X-Ray
350
24D
0
XRECORD
5
1057
102
{ACAD_REACTORS
330
21D
102
}
330
21D
100
AcDbXrecord
280
1
90
1
330
275
0
DICTIONARY
5
29D
102
{ACAD_REACTORS
330
21D
102
}
330
21D
100
AcDbDictionary
281
1
3
CANNOSCALE
350
2A3
3
CMLEADERSTYLE
350
29F
3
CTABLESTYLE
350
29E
3
CVIEWDETAILSTYLE
350
2A0
3
CVIEWSECTIONSTYLE
350
2A1
3
LAYEREVAL
350
2A5
3
LAYERNOTIFY
350
2A6
3
LIGHTINGUNITS
350
2A4
3
MSLTSCALE
350
2A2
0
DICTIONARY
5
298
102
{ACAD_REACTORS
330
297
102
}
330
297
100
AcDbDictionary
281
1
0
XRECORD
5
293
102
{ACAD_REACTORS
330
292
102
}
330
292
100
AcDbXrecord
280
1
290
1
0
ACDBDETAILVIEWSTYLE
5
27C
102
{ACAD_REACTORS
330
27B
102
}
330
27B
100
AcDbModelDocViewStyle
70
0
3
Imperial24
290
0
100
AcDbDetailViewStyle
70
0
71
0
90
3
71
1
340
266
62
256
40
0.24
340
0
62
256
40
0.24
300

40
0.36
280
3
71
2
340
26D
90
25
62
256
71
3
340
266
62
256
40
0.24
90
1
40
0.75
90
1
300
%<AcVar ViewType  "%tc1">% %<AcVar ViewDetailId>%PSCALE %<AcVar ViewScale  "%sn">%
71
4
340
26D
90
25
62
256
340
26D
90
25
62
256
280
0
0
LAYOUT
5
280
102
{ACAD_REACTORS
330
272
102
}
330
272
100
AcDbPlotSettings
1

2
HP_LaserJet_P1505
4

6

40
0.0
41
0.0
42
0.0
43
0.0
44
0.0
45
0.0
46
0.0
47
0.0
48
0.0
49
0.0
140
0.0
141
0.0
142
1.0
143
1.0
70
688
72
0
73
0
74
5
7

75
16
147
1.0
76
0
77
2
78
300
148
0.0
149
0.0
100
AcDbLayout
1
Layout1
70
1
71
1
10
0.0
20
0.0
11
12.0
21
9.0
12
0.0
22
0.0
32
0.0
14
0.0
24
0.0
34
0.0
15
0.0
25
0.0
35
0.0
146
0.0
13
0.0
23
0.0
33
0.0
16
1.0
26
0.0
36
0.0
17
0.0
27
1.0
37
0.0
76
0
330
27D
0
LAYOUT
5
284
102
{ACAD_REACTORS
330
272
102
}
330
272
100
AcDbPlotSettings
1

2
HP_LaserJet_P1505
4

6

40
0.0
41
0.0
42
0.0
43
0.0
44
0.0
45
0.0
46
0.0
47
0.0
48
0.0
49
0.0
140
0.0
141
0.0
142
1.0
143
1.0
70
1712
72
0
73
0
74
0
7

75
0
147
1.0
76
0
77
2
78
300
148
0.0
149
0.0
100
AcDbLayout
1
Model
70
1
71
0
10
0.0
20
0.0
11
12.0
21
9.0
12
0.0
22
0.0
32
0.0
14
0.0
24
0.0
34
0.0
15
0.0
25
0.0
35
0.0
146
0.0
13
0.0
23
0.0
33
0.0
16
1.0
26
0.0
36
0.0
17
0.0
27
1.0
37
0.0
76
0
330
281
331
285
0
MATERIAL
5
22A
102
{ACAD_XDICTIONARY
360
22B
102
}
102
{ACAD_REACTORS
330
221
102
}
330
221
100
AcDbMaterial
1
ByBlock
72
0
43
0.0208333333333333
43
0.0
43
0.0
43
0.0
43
0.0
43
0.0208333333333333
43
0.0
43
0.0
43
0.0
43
0.0
43
1.0
43
0.0
43
0.0
43
0.0
43
0.0
43
1.0
77
0
47
0.0208333333333333
47
0.0
47
0.0
47
0.0
47
0.0
47
0.0208333333333333
47
0.0
47
0.0
47
0.0
47
0.0
47
1.0
47
0.0
47
0.0
47
0.0
47
0.0
47
1.0
171
0
49
0.0208333333333333
49
0.0
49
0.0
49
0.0
49
0.0
49
0.0208333333333333
49
0.0
49
0.0
49
0.0
49
0.0
49
1.0
49
0.0
49
0.0
49
0.0
49
0.0
49
1.0
175
0
142
0.0208333333333333
142
0.0
142
0.0
142
0.0
142
0.0
142
0.0208333333333333
142
0.0
142
0.0
142
0.0
142
0.0
142
1.0
142
0.0
142
0.0
142
0.0
142
0.0
142
1.0
179
0
144
0.0208333333333333
144
0.0
144
0.0
144
0.0
144
0.0
144
0.0208333333333333
144
0.0
144
0.0
144
0.0
144
0.0
144
1.0
144
0.0
144
0.0
144
0.0
144
0.0
144
1.0
147
0.0208333333333333
147
0.0
147
0.0
147
0.0
147
0.0
147
0.0208333333333333
147
0.0
147
0.0
147
0.0
147
0.0
147
1.0
147
0.0
147
0.0
147
0.0
147
0.0
147
1.0
0
MATERIAL
5
222
102
{ACAD_XDICTIONARY
360
223
102
}
102
{ACAD_REACTORS
330
221
102
}
330
221
100
AcDbMaterial
1
ByLayer
72
0
43
0.0208333333333333
43
0.0
43
0.0
43
0.0
43
0.0
43
0.0208333333333333
43
0.0
43
0.0
43
0.0
43
0.0
43
1.0
43
0.0
43
0.0
43
0.0
43
0.0
43
1.0
77
0
47
0.0208333333333333
47
0.0
47
0.0
47
0.0
47
0.0
47
0.0208333333333333
47
0.0
47
0.0
47
0.0
47
0.0
47
1.0
47
0.0
47
0.0
47
0.0
47
0.0
47
1.0
171
0
49
0.0208333333333333
49
0.0
49
0.0
49
0.0
49
0.0
49
0.0208333333333333
49
0.0
49
0.0
49
0.0
49
0.0
49
1.0
49
0.0
49
0.0
49
0.0
49
0.0
49
1.0
175
0
142
0.0208333333333333
142
0.0
142
0.0
142
0.0
142
0.0
142
0.0208333333333333
142
0.0
142
0.0
142
0.0
142
0.0
142
1.0
142
0.0
142
0.0
142
0.0
142
0.0
142
1.0
179
0
144
0.0208333333333333
144
0.0
144
0.0
144
0.0
144
0.0
144
0.0208333333333333
144
0.0
144
0.0
144
0.0
144
0.0
144
1.0
144
0.0
144
0.0
144
0.0
144
0.0
144
1.0
147
0.0208333333333333
147
0.0
147
0.0
147
0.0
147
0.0
147
0.0208333333333333
147
0.0
147
0.0
147
0.0
147
0.0
147
1.0
147
0.0
147
0.0
147
0.0
147
0.0
147
1.0
0
MATERIAL
5
232
102
{ACAD_XDICTIONARY
360
233
102
}
102
{ACAD_REACTORS
330
221
102
}
330
221
100
AcDbMaterial
1
Global
72
0
43
0.0208333333333333
43
0.0
43
0.0
43
0.0
43
0.0
43
0.0208333333333333
43
0.0
43
0.0
43
0.0
43
0.0
43
1.0
43
0.0
43
0.0
43
0.0
43
0.0
43
1.0
77
0
47
0.0208333333333333
47
0.0
47
0.0
47
0.0
47
0.0
47
0.0208333333333333
47
0.0
47
0.0
47
0.0
47
0.0
47
1.0
47
0.0
47
0.0
47
0.0
47
0.0
47
1.0
171
0
49
0.0208333333333333
49
0.0
49
0.0
49
0.0
49
0.0
49
0.0208333333333333
49
0.0
49
0.0
49
0.0
49
0.0
49
1.0
49
0.0
49
0.0
49
0.0
49
0.0
49
1.0
175
0
142
0.0208333333333333
142
0.0
142
0.0
142
0.0
142
0.0
142
0.0208333333333333
142
0.0
142
0.0
142
0.0
142
0.0
142
1.0
142
0.0
142
0.0
142
0.0
142
0.0
142
1.0
179
0
144
0.0208333333333333
144
0.0
144
0.0
144
0.0
144
0.0
144
0.0208333333333333
144
0.0
144
0.0
144
0.0
144
0.0
144
1.0
144
0.0
144
0.0
144
0.0
144
0.0
144
1.0
147
0.0208333333333333
147
0.0
147
0.0
147
0.0
147
0.0
147
0.0208333333333333
147
0.0
147
0.0
147
0.0
147
0.0
147
1.0
147
0.0
147
0.0
147
0.0
147
0.0
147
1.0
0
MLEADERSTYLE
5
277
102
{ACAD_REACTORS
330
276
102
}
330
276
100
AcDbMLeaderStyle
179
2
170
2
171
1
172
0
90
2
40
0.0
41
0.0
173
1
91
-1056964608
340
26B
92
-2
290
1
42
0.09
291
1
43
0.36
3
Standard
44
0.18
300

342
266
174
1
178
6
175
1
176
0
93
-1056964608
45
0.18
292
0
297
0
46
0.18
94
-1056964608
47
1.0
49
1.0
140
1.0
293
1
141
0.0
294
1
177
0
142
1.0
295
0
296
0
143
0.125
271
0
272
9
273
9
298
0
0
MLINESTYLE
5
270
102
{ACAD_REACTORS
330
26F
102
}
330
26F
100
AcDbMlineStyle
2
STANDARD
70
0
3

62
256
51
90.0
52
90.0
71
2
49
0.5
62
256
6
BYLAYER
49
-0.5
62
256
6
BYLAYER
0
ACDBPLACEHOLDER
5
220
102
{ACAD_REACTORS
330
21F
102
}
330
21F
0
SCALE
5
254
102
{ACAD_REACTORS
330
253
102
}
330
253
100
AcDbScale
70
0
300
1:1
140
1.0
141
1.0
290
1
0
SCALE
5
255
102
{ACAD_REACTORS
330
253
102
}
330
253
100
AcDbScale
70
0
300
1/128" = 1'-0"
140
0.0078125
141
12.0
290
0
0
SCALE
5
256
102
{ACAD_REACTORS
330
253
102
}
330
253
100
AcDbScale
70
0
300
1/64" = 1'-0"
140
0.015625
141
12.0
290
0
0
SCALE
5
257
102
{ACAD_REACTORS
330
253
102
}
330
253
100
AcDbScale
70
0
300
1/32" = 1'-0"
140
0.03125
141
12.0
290
0
0
SCALE
5
258
102
{ACAD_REACTORS
330
253
102
}
330
253
100
AcDbScale
70
0
300
1/16" = 1'-0"
140
0.0625
141
12.0
290
0
0
SCALE
5
259
102
{ACAD_REACTORS
330
253
102
}
330
253
100
AcDbScale
70
0
300
3/32" = 1'-0"
140
0.09375
141
12.0
290
0
0
SCALE
5
25A
102
{ACAD_REACTORS
330
253
102
}
330
253
100
AcDbScale
70
0
300
1/8" = 1'-0"
140
0.125
141
12.0
290
0
0
SCALE
5
25B
102
{ACAD_REACTORS
330
253
102
}
330
253
100
AcDbScale
70
0
300
3/16" = 1'-0"
140
0.1875
141
12.0
290
0
0
SCALE
5
25C
102
{ACAD_REACTORS
330
253
102
}
330
253
100
AcDbScale
70
0
300
1/4" = 1'-0"
140
0.25
141
12.0
290
0
0
SCALE
5
25D
102
{ACAD_REACTORS
330
253
102
}
330
253
100
AcDbScale
70
0
300
3/8" = 1'-0"
140
0.375
141
12.0
290
0
0
SCALE
5
25E
102
{ACAD_REACTORS
330
253
102
}
330
253
100
AcDbScale
70
0
300
1/2" = 1'-0"
140
0.5
141
12.0
290
0
0
SCALE
5
25F
102
{ACAD_REACTORS
330
253
102
}
330
253
100
AcDbScale
70
0
300
3/4" = 1'-0"
140
0.75
141
12.0
290
0
0
SCALE
5
260
102
{ACAD_REACTORS
330
253
102
}
330
253
100
AcDbScale
70
0
300
1" = 1'-0"
140
1.0
141
12.0
290
0
0
SCALE
5
261
102
{ACAD_REACTORS
330
253
102
}
330
253
100
AcDbScale
70
0
300
1-1/2" = 1'-0"
140
1.5
141
12.0
290
0
0
SCALE
5
262
102
{ACAD_REACTORS
330
253
102
}
330
253
100
AcDbScale
70
0
300
3" = 1'-0"
140
3.0
141
12.0
290
0
0
SCALE
5
263
102
{ACAD_REACTORS
330
253
102
}
330
253
100
AcDbScale
70
0
300
6" = 1'-0"
140
6.0
141
12.0
290
0
0
SCALE
5
264
102
{ACAD_REACTORS
330
253
102
}
330
253
100
AcDbScale
70
0
300
1'-0" = 1'-0"
140
12.0
141
12.0
290
0
0
ACDBSECTIONVIEWSTYLE
5
27A
102
{ACAD_REACTORS
330
278
102
}
330
278
100
AcDbModelDocViewStyle
70
0
3
Imperial24
290
0
100
AcDbSectionViewStyle
70
0
71
0
90
78
71
1
340
266
62
256
40
0.24
340
0
340
0
62
256
40
0.24
300
I, O, Q, S, X, Z
40
0.48
90
3
40
0.18
90
1
71
2
340
279
90
25
62
256
340
26D
90
50
62
256
40
0.24
40
0.0
40
0.24
71
3
340
266
62
256
40
0.24
90
1
40
0.75
90
1
300
%<AcVar ViewType  "%tc1">% %<AcVar ViewSectionStartId>%-%<AcVar ViewSectionEndId>%PSCALE %<AcVar ViewScale  "%sn">%
71
4
62
256
62
257
300
ANSI31
40
1.0
90
0
290
0
290
0
90
6
40
0.0
40
1.570796326794896
40
0.2617993877991494
40
1.308996938995747
40
-0.2617993877991494
40
1.832595714594044
0
TABLESTYLE
5
275
102
{ACAD_XDICTIONARY
360
2A7
102
}
102
{ACAD_REACTORS
330
274
102
}
330
274
100
AcDbTableStyle
280
0
3
Standard
70
0
71
0
40
0.06
41
0.06
280
0
281
0
7
STANDARD
140
0.18
170
2
62
0
63
7
283
0
90
512
91
0
1

274
-2
284
1
64
0
275
-2
285
1
65
0
276
-2
286
1
66
0
277
-2
287
1
67
0
278
-2
288
1
68
0
279
-2
289
1
69
0
7
STANDARD
140
0.25
170
5
62
0
63
7
283
0
90
512
91
0
1

274
-2
284
1
64
0
275
-2
285
1
65
0
276
-2
286
1
66
0
277
-2
287
1
67
0
278
-2
288
1
68
0
279
-2
289
1
69
0
7
STANDARD
140
0.18
170
5
62
0
63
7
283
0
90
512
91
0
1

274
-2
284
1
64
0
275
-2
285
1
65
0
276
-2
286
1
66
0
277
-2
287
1
67
0
278
-2
288
1
68
0
279
-2
289
1
69
0
0
VISUALSTYLE
5
240
102
{ACAD_REACTORS
330
23A
102
}
330
23A
100
AcDbVisualStyle
2
2dWireframe
70
4
177
3
291
0
70
58
90
0
176
1
90
2
176
1
90
0
176
1
90
0
176
1
40
0.6
176
1
40
30.0
176
1
62
7
420
16777215
176
1
90
1
176
1
90
4
176
1
62
7
176
1
62
257
176
1
90
1
176
1
90
1
176
1
40
1.0
176
1
90
0
176
1
62
257
176
1
40
1.0
176
1
90
1
176
1
90
6
176
1
90
2
176
1
62
7
176
1
90
5
176
1
90
0
176
1
90
0
176
1
290
0
176
1
90
1
176
1
40
0.0
176
1
90
0
176
1
290
1
176
1
290
1
176
1
290
0
176
1
290
0
176
1
290
0
176
1
290
0
176
1
290
0
176
1
290
0
176
1
290
0
176
1
90
50
176
1
40
0.0
176
1
40
1.0
176
1
90
0
176
1
62
18
176
1
90
50
176
1
90
3
176
1
62
5
420
255
176
1
290
0
176
1
90
50
176
1
90
50
176
1
90
50
176
1
290
0
176
1
90
50
176
1
62
256
176
0
40
1.0
176
0
90
2
176
1
1
strokes_ogs.tif
176
1
290
0
176
1
40
1.0
176
1
40
1.0
176
1
1001
ACAD
1000
AcDbSavedByObjectVersion
1070
0
0
VISUALSTYLE
5
23F
102
{ACAD_REACTORS
330
23A
102
}
330
23A
100
AcDbVisualStyle
2
Basic
70
7
177
3
291
1
70
58
90
1
176
1
90
0
176
1
90
1
176
1
90
0
176
1
40
0.6
176
1
40
30.0
176
1
62
7
420
16777215
176
1
90
0
176
1
90
4
176
1
62
7
176
1
62
257
176
1
90
1
176
1
90
1
176
1
40
1.0
176
1
90
8
176
1
62
7
176
1
40
1.0
176
1
90
1
176
1
90
6
176
1
90
2
176
1
62
7
176
1
90
5
176
1
90
0
176
1
90
0
176
1
290
0
176
1
90
1
176
1
40
0.0
176
1
90
0
176
1
290
0
176
1
290
1
176
1
290
1
176
1
290
0
176
1
290
0
176
1
290
0
176
1
290
0
176
1
290
0
176
1
290
0
176
1
90
50
176
1
40
0.0
176
1
40
1.0
176
1
90
0
176
1
62
18
176
1
90
50
176
1
90
3
176
1
62
5
420
255
176
1
290
0
176
1
90
50
176
1
90
50
176
1
90
50
176
1
290
0
176
1
90
50
176
1
62
256
176
0
40
1.0
176
0
90
2
176
1
1
strokes_ogs.tif
176
1
290
0
176
1
40
1.0
176
1
40
1.0
176
1
1001
ACAD
1000
AcDbSavedByObjectVersion
1070
0
0
VISUALSTYLE
5
246
102
{ACAD_REACTORS
330
23A
102
}
330
23A
100
AcDbVisualStyle
2
Brighten
70
12
177
3
291
1
70
58
90
2
176
1
90
2
176
1
90
0
176
1
90
0
176
1
40
0.6
176
1
40
30.0
176
1
62
7
420
16777215
176
1
90
1
176
1
90
4
176
1
62
7
176
1
62
257
176
1
90
1
176
1
90
1
176
1
40
1.0
176
1
90
8
176
1
62
7
176
1
40
1.0
176
1
90
1
176
1
90
6
176
1
90
2
176
1
62
7
176
1
90
5
176
1
90
0
176
1
90
0
176
1
290
0
176
1
90
1
176
1
40
50.0
176
1
90
0
176
1
290
0
176
1
290
1
176
1
290
1
176
1
290
0
176
1
290
0
176
1
290
0
176
1
290
0
176
1
290
0
176
1
290
0
176
1
90
50
176
1
40
0.0
176
1
40
1.0
176
1
90
0
176
1
62
18
176
1
90
50
176
1
90
3
176
1
62
5
420
255
176
1
290
0
176
1
90
50
176
1
90
50
176
1
90
50
176
1
290
0
176
1
90
50
176
1
62
256
176
0
40
1.0
176
0
90
2
176
1
1
strokes_ogs.tif
176
1
290
0
176
1
40
1.0
176
1
40
1.0
176
1
1001
ACAD
1000
AcDbSavedByObjectVersion
1070
0
0
VISUALSTYLE
5
24A
102
{ACAD_REACTORS
330
23A
102
}
330
23A
100
AcDbVisualStyle
2
ColorChange
70
16
177
3
291
1
70
58
90
2
176
1
90
2
176
1
90
3
176
1
90
0
176
1
40
0.6
176
1
40
30.0
176
1
62
8
420
8421504
176
1
90
1
176
1
90
4
176
1
62
7
176
1
62
257
176
1
90
1
176
1
90
1
176
1
40
1.0
176
1
90
8
176
1
62
8
420
8421504
176
1
40
1.0
176
1
90
1
176
1
90
6
176
1
90
2
176
1
62
7
176
1
90
5
176
1
90
0
176
1
90
0
176
1
290
0
176
1
90
1
176
1
40
0.0
176
1
90
0
176
1
290
0
176
1
290
1
176
1
290
1
176
1
290
0
176
1
290
0
176
1
290
0
176
1
290
0
176
1
290
0
176
1
290
0
176
1
90
50
176
1
40
0.0
176
1
40
1.0
176
1
90
0
176
1
62
18
176
1
90
50
176
1
90
3
176
1
62
5
420
255
176
1
290
0
176
1
90
50
176
1
90
50
176
1
90
50
176
1
290
0
176
1
90
50
176
1
62
256
176
0
40
1.0
176
0
90
2
176
1
1
strokes_ogs.tif
176
1
290
0
176
1
40
1.0
176
1
40
1.0
176
1
1001
ACAD
1000
AcDbSavedByObjectVersion
1070
0
0
VISUALSTYLE
5
243
102
{ACAD_REACTORS
330
23A
102
}
330
23A
100
AcDbVisualStyle
2
Conceptual
70
9
177
3
291
0
70
58
90
3
176
1
90
2
176
1
90
0
176
1
90
0
176
1
40
0.6
176
1
40
30.0
176
1
62
7
420
16777215
176
1
90
2
176
1
90
2
176
1
62
7
176
1
62
257
176
1
90
1
176
1
90
1
176
1
40
179.0
176
1
90
8
176
1
62
7
176
1
40
1.0
176
1
90
1
176
1
90
6
176
1
90
2
176
1
62
7
176
1
90
3
176
1
90
0
176
1
90
0
176
1
290
0
176
1
90
1
176
1
40
0.0
176
1
90
0
176
1
290
0
176
1
290
1
176
1
290
1
176
1
290
0
176
1
290
0
176
1
290
0
176
1
290
0
176
1
290
0
176
1
290
0
176
1
90
50
176
1
40
0.0
176
1
40
1.0
176
1
90
0
176
1
62
18
176
1
90
50
176
1
90
3
176
1
62
5
420
255
176
1
290
0
176
1
90
50
176
1
90
50
176
1
90
50
176
1
290
0
176
1
90
50
176
1
62
256
176
0
40
1.0
176
0
90
2
176
1
1
strokes_ogs.tif
176
1
290
0
176
1
40
1.0
176
1
40
1.0
176
1
1001
ACAD
1000
AcDbSavedByObjectVersion
1070
0
0
VISUALSTYLE
5
245
102
{ACAD_REACTORS
330
23A
102
}
330
23A
100
AcDbVisualStyle
2
Dim
70
11
177
3
291
1
70
58
90
2
176
1
90
2
176
1
90
0
176
1
90
0
176
1
40
0.6
176
1
40
30.0
176
1
62
7
420
16777215
176
1
90
1
176
1
90
4
176
1
62
7
176
1
62
257
176
1
90
1
176
1
90
1
176
1
40
1.0
176
1
90
8
176
1
62
7
176
1
40
1.0
176
1
90
1
176
1
90
6
176
1
90
2
176
1
62
7
176
1
90
5
176
1
90
0
176
1
90
0
176
1
290
0
176
1
90
1
176
1
40
-50.0
176
1
90
0
176
1
290
0
176
1
290
1
176
1
290
1
176
1
290
0
176
1
290
0
176
1
290
0
176
1
290
0
176
1
290
0
176
1
290
0
176
1
90
50
176
1
40
0.0
176
1
40
1.0
176
1
90
0
176
1
62
18
176
1
90
50
176
1
90
3
176
1
62
5
420
255
176
1
290
0
176
1
90
50
176
1
90
50
176
1
90
50
176
1
290
0
176
1
90
50
176
1
62
256
176
0
40
1.0
176
0
90
2
176
1
1
strokes_ogs.tif
176
1
290
0
176
1
40
1.0
176
1
40
1.0
176
1
1001
ACAD
1000
AcDbSavedByObjectVersion
1070
0
0
VISUALSTYLE
5
252
102
{ACAD_REACTORS
330
23A
102
}
330
23A
100
AcDbVisualStyle
2
EdgeColorOff
70
22
177
3
291
1
70
58
90
2
176
0
90
2
176
0
90
0
176
0
90
0
176
0
40
0.6
176
0
40
30.0
176
0
62
7
420
16777215
176
0
90
1
176
0
90
4
176
0
62
7
176
0
62
257
176
0
90
1
176
0
90
1
176
0
40
1.0
176
0
90
8
176
2
62
7
176
0
40
1.0
176
0
90
1
176
0
90
6
176
0
90
2
176
0
62
7
176
0
90
5
176
0
90
0
176
0
90
0
176
0
290
0
176
0
90
1
176
0
40
0.0
176
0
90
0
176
0
290
0
176
1
290
1
176
1
290
1
176
1
290
0
176
1
290
0
176
1
290
0
176
1
290
0
176
1
290
0
176
1
290
0
176
1
90
50
176
0
40
0.0
176
0
40
1.0
176
0
90
0
176
0
62
18
176
0
90
50
176
0
90
3
176
0
62
5
420
255
176
0
290
0
176
1
90
50
176
0
90
50
176
0
90
50
176
0
290
0
176
1
90
50
176
0
62
256
176
0
40
1.0
176
0
90
2
176
0
1
strokes_ogs.tif
176
0
290
0
176
1
40
1.0
176
0
40
1.0
176
0
1001
ACAD
1000
AcDbSavedByObjectVersion
1070
0
0
VISUALSTYLE
5
249
102
{ACAD_REACTORS
330
23A
102
}
330
23A
100
AcDbVisualStyle
2
Facepattern
70
15
177
3
291
1
70
58
90
2
176
1
90
2
176
1
90
0
176
1
90
0
176
1
40
0.6
176
1
40
30.0
176
1
62
7
420
16777215
176
1
90
1
176
1
90
4
176
1
62
7
176
1
62
257
176
1
90
1
176
1
90
1
176
1
40
1.0
176
1
90
8
176
1
62
7
176
1
40
1.0
176
1
90
1
176
1
90
6
176
1
90
2
176
1
62
7
176
1
90
5
176
1
90
0
176
1
90
0
176
1
290
0
176
1
90
1
176
1
40
0.0
176
1
90
0
176
1
290
0
176
1
290
1
176
1
290
1
176
1
290
0
176
1
290
0
176
1
290
0
176
1
290
0
176
1
290
0
176
1
290
0
176
1
90
50
176
1
40
0.0
176
1
40
1.0
176
1
90
0
176
1
62
18
176
1
90
50
176
1
90
3
176
1
62
5
420
255
176
1
290
0
176
1
90
50
176
1
90
50
176
1
90
50
176
1
290
0
176
1
90
50
176
1
62
256
176
0
40
1.0
176
0
90
2
176
1
1
strokes_ogs.tif
176
1
290
0
176
1
40
1.0
176
1
40
1.0
176
1
1001
ACAD
1000
AcDbSavedByObjectVersion
1070
0
0
VISUALSTYLE
5
23B
102
{ACAD_REACTORS
330
23A
102
}
330
23A
100
AcDbVisualStyle
2
Flat
70
0
177
3
291
1
70
58
90
2
176
1
90
1
176
1
90
1
176
1
90
2
176
1
40
0.6
176
1
40
30.0
176
1
62
7
420
16777215
176
1
90
0
176
1
90
0
176
1
62
7
176
1
62
257
176
1
90
1
176
1
90
1
176
1
40
1.0
176
1
90
8
176
1
62
7
176
1
40
1.0
176
1
90
1
176
1
90
6
176
1
90
2
176
1
62
7
176
1
90
5
176
1
90
0
176
1
90
0
176
1
290
0
176
1
90
13
176
1
40
0.0
176
1
90
0
176
1
290
0
176
1
290
1
176
1
290
1
176
1
290
0
176
1
290
0
176
1
290
0
176
1
290
0
176
1
290
0
176
1
290
0
176
1
90
50
176
1
40
0.0
176
1
40
1.0
176
1
90
0
176
1
62
18
176
1
90
50
176
1
90
3
176
1
62
5
420
255
176
1
290
0
176
1
90
50
176
1
90
50
176
1
90
50
176
1
290
0
176
1
90
50
176
1
62
256
176
0
40
1.0
176
0
90
2
176
1
1
strokes_ogs.tif
176
1
290
0
176
1
40
1.0
176
1
40
1.0
176
1
1001
ACAD
1000
AcDbSavedByObjectVersion
1070
0
0
VISUALSTYLE
5
23C
102
{ACAD_REACTORS
330
23A
102
}
330
23A
100
AcDbVisualStyle
2
FlatWithEdges
70
1
177
3
291
1
70
58
90
2
176
1
90
1
176
1
90
1
176
1
90
2
176
1
40
0.6
176
1
40
30.0
176
1
62
7
420
16777215
176
1
90
1
176
1
90
0
176
1
62
7
176
1
62
257
176
1
90
1
176
1
90
1
176
1
40
1.0
176
1
90
0
176
1
62
257
176
1
40
1.0
176
1
90
1
176
1
90
6
176
1
90
2
176
1
62
7
176
1
90
5
176
1
90
0
176
1
90
0
176
1
290
0
176
1
90
13
176
1
40
0.0
176
1
90
0
176
1
290
0
176
1
290
1
176
1
290
1
176
1
290
0
176
1
290
0
176
1
290
0
176
1
290
0
176
1
290
0
176
1
290
0
176
1
90
50
176
1
40
0.0
176
1
40
1.0
176
1
90
0
176
1
62
18
176
1
90
50
176
1
90
3
176
1
62
5
420
255
176
1
290
0
176
1
90
50
176
1
90
50
176
1
90
50
176
1
290
0
176
1
90
50
176
1
62
256
176
0
40
1.0
176
0
90
2
176
1
1
strokes_ogs.tif
176
1
290
0
176
1
40
1.0
176
1
40
1.0
176
1
1001
ACAD
1000
AcDbSavedByObjectVersion
1070
0
0
VISUALSTYLE
5
23D
102
{ACAD_REACTORS
330
23A
102
}
330
23A
100
AcDbVisualStyle
2
Gouraud
70
2
177
3
291
1
70
58
90
2
176
1
90
2
176
1
90
1
176
1
90
2
176
1
40
0.6
176
1
40
30.0
176
1
62
7
420
16777215
176
1
90
0
176
1
90
0
176
1
62
7
176
1
62
257
176
1
90
1
176
1
90
1
176
1
40
1.0
176
1
90
0
176
1
62
7
176
1
40
1.0
176
1
90
1
176
1
90
6
176
1
90
2
176
1
62
7
176
1
90
5
176
1
90
0
176
1
90
0
176
1
290
0
176
1
90
13
176
1
40
0.0
176
1
90
0
176
1
290
0
176
1
290
1
176
1
290
1
176
1
290
0
176
1
290
0
176
1
290
0
176
1
290
0
176
1
290
0
176
1
290
0
176
1
90
50
176
1
40
0.0
176
1
40
1.0
176
1
90
0
176
1
62
18
176
1
90
50
176
1
90
3
176
1
62
5
420
255
176
1
290
0
176
1
90
50
176
1
90
50
176
1
90
50
176
1
290
0
176
1
90
50
176
1
62
256
176
0
40
1.0
176
0
90
2
176
1
1
strokes_ogs.tif
176
1
290
0
176
1
40
1.0
176
1
40
1.0
176
1
1001
ACAD
1000
AcDbSavedByObjectVersion
1070
0
0
VISUALSTYLE
5
23E
102
{ACAD_REACTORS
330
23A
102
}
330
23A
100
AcDbVisualStyle
2
GouraudWithEdges
70
3
177
3
291
1
70
58
90
2
176
1
90
2
176
1
90
1
176
1
90
2
176
1
40
0.6
176
1
40
30.0
176
1
62
7
420
16777215
176
1
90
1
176
1
90
0
176
1
62
7
176
1
62
257
176
1
90
1
176
1
90
1
176
1
40
1.0
176
1
90
0
176
1
62
257
176
1
40
1.0
176
1
90
1
176
1
90
6
176
1
90
2
176
1
62
7
176
1
90
5
176
1
90
0
176
1
90
0
176
1
290
0
176
1
90
13
176
1
40
0.0
176
1
90
0
176
1
290
0
176
1
290
1
176
1
290
1
176
1
290
0
176
1
290
0
176
1
290
0
176
1
290
0
176
1
290
0
176
1
290
0
176
1
90
50
176
1
40
0.0
176
1
40
1.0
176
1
90
0
176
1
62
18
176
1
90
50
176
1
90
3
176
1
62
5
420
255
176
1
290
0
176
1
90
50
176
1
90
50
176
1
90
50
176
1
290
0
176
1
90
50
176
1
62
256
176
0
40
1.0
176
0
90
2
176
1
1
strokes_ogs.tif
176
1
290
0
176
1
40
1.0
176
1
40
1.0
176
1
1001
ACAD
1000
AcDbSavedByObjectVersion
1070
0
0
VISUALSTYLE
5
242
102
{ACAD_REACTORS
330
23A
102
}
330
23A
100
AcDbVisualStyle
2
Hidden
70
6
177
3
291
0
70
58
90
1
176
1
90
2
176
1
90
2
176
1
90
0
176
1
40
0.6
176
1
40
30.0
176
1
62
7
420
16777215
176
1
90
2
176
1
90
2
176
1
62
7
176
1
62
257
176
1
90
2
176
1
90
1
176
1
40
40.0
176
1
90
0
176
1
62
257
176
1
40
1.0
176
1
90
1
176
1
90
6
176
1
90
2
176
1
62
7
176
1
90
3
176
1
90
0
176
1
90
0
176
1
290
0
176
1
90
1
176
1
40
0.0
176
1
90
0
176
1
290
0
176
1
290
1
176
1
290
1
176
1
290
0
176
1
290
0
176
1
290
0
176
1
290
0
176
1
290
0
176
1
290
0
176
1
90
50
176
1
40
0.0
176
1
40
1.0
176
1
90
0
176
1
62
18
176
1
90
50
176
1
90
3
176
1
62
5
420
255
176
1
290
0
176
1
90
50
176
1
90
50
176
1
90
50
176
1
290
0
176
1
90
50
176
1
62
256
176
0
40
1.0
176
0
90
2
176
1
1
strokes_ogs.tif
176
1
290
0
176
1
40
1.0
176
1
40
1.0
176
1
1001
ACAD
1000
AcDbSavedByObjectVersion
1070
0
0
VISUALSTYLE
5
250
102
{ACAD_REACTORS
330
23A
102
}
330
23A
100
AcDbVisualStyle
2
JitterOff
70
20
177
3
291
1
70
58
90
2
176
0
90
2
176
0
90
0
176
0
90
0
176
0
40
0.6
176
0
40
30.0
176
0
62
7
420
16777215
176
0
90
1
176
0
90
4
176
0
62
7
176
0
62
257
176
0
90
1
176
0
90
1
176
0
40
1.0
176
0
90
10
176
2
62
7
176
0
40
1.0
176
0
90
1
176
0
90
6
176
0
90
2
176
0
62
7
176
0
90
5
176
0
90
0
176
0
90
0
176
0
290
0
176
0
90
1
176
0
40
0.0
176
0
90
0
176
0
290
0
176
1
290
1
176
1
290
1
176
1
290
0
176
1
290
0
176
1
290
0
176
1
290
0
176
1
290
0
176
1
290
0
176
1
90
50
176
0
40
0.0
176
0
40
1.0
176
0
90
0
176
0
62
18
176
0
90
50
176
0
90
3
176
0
62
5
420
255
176
0
290
0
176
1
90
50
176
0
90
50
176
0
90
50
176
0
290
0
176
1
90
50
176
0
62
256
176
0
40
1.0
176
0
90
2
176
0
1
strokes_ogs.tif
176
0
290
0
176
1
40
1.0
176
0
40
1.0
176
0
1001
ACAD
1000
AcDbSavedByObjectVersion
1070
0
0
VISUALSTYLE
5
248
102
{ACAD_REACTORS
330
23A
102
}
330
23A
100
AcDbVisualStyle
2
Linepattern
70
14
177
3
291
1
70
58
90
2
176
1
90
2
176
1
90
0
176
1
90
0
176
1
40
0.6
176
1
40
30.0
176
1
62
7
420
16777215
176
1
90
1
176
1
90
4
176
1
62
7
176
1
62
257
176
1
90
7
176
1
90
7
176
1
40
1.0
176
1
90
8
176
1
62
7
176
1
40
1.0
176
1
90
1
176
1
90
6
176
1
90
2
176
1
62
7
176
1
90
5
176
1
90
0
176
1
90
0
176
1
290
0
176
1
90
1
176
1
40
0.0
176
1
90
0
176
1
290
0
176
1
290
1
176
1
290
1
176
1
290
0
176
1
290
0
176
1
290
0
176
1
290
0
176
1
290
0
176
1
290
0
176
1
90
50
176
1
40
0.0
176
1
40
1.0
176
1
90
0
176
1
62
18
176
1
90
50
176
1
90
3
176
1
62
5
420
255
176
1
290
0
176
1
90
50
176
1
90
50
176
1
90
50
176
1
290
0
176
1
90
50
176
1
62
256
176
0
40
1.0
176
0
90
2
176
1
1
strokes_ogs.tif
176
1
290
0
176
1
40
1.0
176
1
40
1.0
176
1
1001
ACAD
1000
AcDbSavedByObjectVersion
1070
0
0
VISUALSTYLE
5
251
102
{ACAD_REACTORS
330
23A
102
}
330
23A
100
AcDbVisualStyle
2
OverhangOff
70
21
177
3
291
1
70
58
90
2
176
0
90
2
176
0
90
0
176
0
90
0
176
0
40
0.6
176
0
40
30.0
176
0
62
7
420
16777215
176
0
90
1
176
0
90
4
176
0
62
7
176
0
62
257
176
0
90
1
176
0
90
1
176
0
40
1.0
176
0
90
9
176
2
62
7
176
0
40
1.0
176
0
90
1
176
0
90
6
176
0
90
2
176
0
62
7
176
0
90
5
176
0
90
0
176
0
90
0
176
0
290
0
176
0
90
1
176
0
40
0.0
176
0
90
0
176
0
290
0
176
1
290
1
176
1
290
1
176
1
290
0
176
1
290
0
176
1
290
0
176
1
290
0
176
1
290
0
176
1
290
0
176
1
90
50
176
0
40
0.0
176
0
40
1.0
176
0
90
0
176
0
62
18
176
0
90
50
176
0
90
3
176
0
62
5
420
255
176
0
290
0
176
1
90
50
176
0
90
50
176
0
90
50
176
0
290
0
176
1
90
50
176
0
62
256
176
0
40
1.0
176
0
90
2
176
0
1
strokes_ogs.tif
176
0
290
0
176
1
40
1.0
176
0
40
1.0
176
0
1001
ACAD
1000
AcDbSavedByObjectVersion
1070
0
0
VISUALSTYLE
5
244
102
{ACAD_REACTORS
330
23A
102
}
330
23A
100
AcDbVisualStyle
2
Realistic
70
8
177
3
291
0
70
58
90
2
176
1
90
3
176
1
90
0
176
1
90
2
176
1
40
0.6
176
1
40
30.0
176
1
62
7
420
16777215
176
1
90
0
176
1
90
0
176
1
62
7
176
1
62
257
176
1
90
1
176
1
90
1
176
1
40
1.0
176
1
90
8
176
1
62
257
176
1
40
1.0
176
1
90
1
176
1
90
6
176
1
90
2
176
1
62
7
176
1
90
3
176
1
90
0
176
1
90
0
176
1
290
0
176
1
90
13
176
1
40
0.0
176
1
90
0
176
1
290
0
176
1
290
1
176
1
290
1
176
1
290
0
176
1
290
0
176
1
290
0
176
1
290
0
176
1
290
0
176
1
290
0
176
1
90
50
176
1
40
0.0
176
1
40
1.0
176
1
90
0
176
1
62
18
176
1
90
50
176
1
90
3
176
1
62
5
420
255
176
1
290
0
176
1
90
50
176
1
90
50
176
1
90
50
176
1
290
0
176
1
90
50
176
1
62
256
176
0
40
1.0
176
0
90
2
176
1
1
strokes_ogs.tif
176
1
290
0
176
1
40
1.0
176
1
40
1.0
176
1
1001
ACAD
1000
AcDbSavedByObjectVersion
1070
0
0
VISUALSTYLE
5
24F
102
{ACAD_REACTORS
330
23A
102
}
330
23A
100
AcDbVisualStyle
2
Shaded
70
27
177
3
291
0
70
58
90
2
176
1
90
2
176
1
90
1
176
1
90
2
176
1
40
0.6
176
1
40
30.0
176
1
62
7
420
16777215
176
1
90
0
176
1
90
4
176
1
62
7
176
1
62
257
176
1
90
1
176
1
90
1
176
1
40
1.0
176
1
90
8
176
1
62
257
176
1
40
1.0
176
1
90
1
176
1
90
6
176
1
90
2
176
1
62
8
420
7895160
176
1
90
3
176
1
90
0
176
1
90
0
176
1
290
0
176
1
90
5
176
1
40
0.0
176
1
90
0
176
1
290
0
176
1
290
1
176
1
290
1
176
1
290
0
176
1
290
0
176
1
290
0
176
1
290
0
176
1
290
0
176
1
290
0
176
1
90
50
176
1
40
0.0
176
1
40
1.0
176
1
90
0
176
1
62
18
176
1
90
50
176
1
90
3
176
1
62
5
420
255
176
1
290
0
176
1
90
50
176
1
90
50
176
1
90
50
176
1
290
0
176
1
90
50
176
1
62
256
176
0
40
1.0
176
0
90
2
176
1
1
strokes_ogs.tif
176
1
290
0
176
1
40
1.0
176
1
40
1.0
176
1
1001
ACAD
1000
AcDbSavedByObjectVersion
1070
0
0
VISUALSTYLE
5
24E
102
{ACAD_REACTORS
330
23A
102
}
330
23A
100
AcDbVisualStyle
2
Shaded with edges
70
26
177
3
291
0
70
58
90
2
176
1
90
2
176
1
90
1
176
1
90
2
176
1
40
0.6
176
1
40
30.0
176
1
62
7
420
16777215
176
1
90
1
176
1
90
10
176
1
62
7
176
1
62
257
176
1
90
2
176
1
90
1
176
1
40
1.0
176
1
90
8
176
1
62
257
176
1
40
1.0
176
1
90
1
176
1
90
6
176
1
90
2
176
1
62
7
176
1
90
3
176
1
90
0
176
1
90
0
176
1
290
0
176
1
90
5
176
1
40
0.0
176
1
90
0
176
1
290
0
176
1
290
1
176
1
290
1
176
1
290
0
176
1
290
0
176
1
290
0
176
1
290
0
176
1
290
0
176
1
290
0
176
1
90
50
176
1
40
0.0
176
1
40
1.0
176
1
90
0
176
1
62
18
176
1
90
50
176
1
90
3
176
1
62
5
420
255
176
1
290
0
176
1
90
50
176
1
90
50
176
1
90
50
176
1
290
0
176
1
90
50
176
1
62
256
176
0
40
1.0
176
0
90
2
176
1
1
strokes_ogs.tif
176
1
290
0
176
1
40
1.0
176
1
40
1.0
176
1
1001
ACAD
1000
AcDbSavedByObjectVersion
1070
0
0
VISUALSTYLE
5
24B
102
{ACAD_REACTORS
330
23A
102
}
330
23A
100
AcDbVisualStyle
2
Shades of Gray
70
23
177
3
291
0
70
58
90
2
176
1
90
2
176
1
90
3
176
1
90
0
176
1
40
0.6
176
1
40
30.0
176
1
62
7
420
16777215
176
1
90
2
176
1
90
2
176
1
62
7
176
1
62
7
176
1
90
1
176
1
90
1
176
1
40
40.0
176
1
90
8
176
1
62
7
176
1
40
1.0
176
1
90
1
176
1
90
6
176
1
90
2
176
1
62
7
176
1
90
3
176
1
90
0
176
1
90
0
176
1
290
0
176
1
90
1
176
1
40
0.0
176
1
90
0
176
1
290
0
176
1
290
1
176
1
290
1
176
1
290
0
176
1
290
0
176
1
290
0
176
1
290
0
176
1
290
0
176
1
290
0
176
1
90
50
176
1
40
0.0
176
1
40
1.0
176
1
90
0
176
1
62
18
176
1
90
50
176
1
90
3
176
1
62
5
420
255
176
1
290
0
176
1
90
50
176
1
90
50
176
1
90
50
176
1
290
0
176
1
90
50
176
1
62
256
176
0
40
1.0
176
0
90
2
176
1
1
strokes_ogs.tif
176
1
290
0
176
1
40
1.0
176
1
40
1.0
176
1
1001
ACAD
1000
AcDbSavedByObjectVersion
1070
0
0
VISUALSTYLE
5
24C
102
{ACAD_REACTORS
330
23A
102
}
330
23A
100
AcDbVisualStyle
2
Sketchy
70
24
177
3
291
0
70
58
90
1
176
1
90
2
176
1
90
2
176
1
90
0
176
1
40
0.6
176
1
40
30.0
176
1
62
7
420
16777215
176
1
90
2
176
1
90
2
176
1
62
7
176
1
62
7
176
1
90
1
176
1
90
1
176
1
40
40.0
176
1
90
11
176
1
62
7
176
1
40
1.0
176
1
90
1
176
1
90
6
176
1
90
2
176
1
62
7
176
1
90
6
176
1
90
0
176
1
90
0
176
1
290
0
176
1
90
1
176
1
40
0.0
176
1
90
0
176
1
290
0
176
1
290
1
176
1
290
1
176
1
290
0
176
1
290
0
176
1
290
0
176
1
290
0
176
1
290
0
176
1
290
0
176
1
90
50
176
1
40
0.0
176
1
40
1.0
176
1
90
0
176
1
62
18
176
1
90
50
176
1
90
3
176
1
62
5
420
255
176
1
290
0
176
1
90
50
176
1
90
50
176
1
90
50
176
1
290
0
176
1
90
50
176
1
62
256
176
0
40
1.0
176
0
90
2
176
1
1
strokes_ogs.tif
176
1
290
0
176
1
40
1.0
176
1
40
1.0
176
1
1001
ACAD
1000
AcDbSavedByObjectVersion
1070
0
0
VISUALSTYLE
5
247
102
{ACAD_REACTORS
330
23A
102
}
330
23A
100
AcDbVisualStyle
2
Thicken
70
13
177
3
291
1
70
58
90
2
176
1
90
2
176
1
90
0
176
1
90
0
176
1
40
0.6
176
1
40
30.0
176
1
62
7
420
16777215
176
1
90
1
176
1
90
4
176
1
62
7
176
1
62
257
176
1
90
1
176
1
90
1
176
1
40
1.0
176
1
90
12
176
1
62
7
176
1
40
1.0
176
1
90
1
176
1
90
6
176
1
90
2
176
1
62
7
176
1
90
5
176
1
90
0
176
1
90
0
176
1
290
0
176
1
90
1
176
1
40
0.0
176
1
90
0
176
1
290
0
176
1
290
1
176
1
290
1
176
1
290
0
176
1
290
0
176
1
290
0
176
1
290
0
176
1
290
0
176
1
290
0
176
1
90
50
176
1
40
0.0
176
1
40
1.0
176
1
90
0
176
1
62
18
176
1
90
50
176
1
90
3
176
1
62
5
420
255
176
1
290
0
176
1
90
50
176
1
90
50
176
1
90
50
176
1
290
0
176
1
90
50
176
1
62
256
176
0
40
1.0
176
0
90
2
176
1
1
strokes_ogs.tif
176
1
290
0
176
1
40
1.0
176
1
40
1.0
176
1
1001
ACAD
1000
AcDbSavedByObjectVersion
1070
0
0
VISUALSTYLE
5
241
102
{ACAD_REACTORS
330
23A
102
}
330
23A
100
AcDbVisualStyle
2
Wireframe
70
5
177
3
291
0
70
58
90
0
176
1
90
2
176
1
90
0
176
1
90
0
176
1
40
0.6
176
1
40
30.0
176
1
62
7
420
16777215
176
1
90
1
176
1
90
4
176
1
62
7
176
1
62
257
176
1
90
1
176
1
90
1
176
1
40
1.0
176
1
90
0
176
1
62
257
176
1
40
1.0
176
1
90
1
176
1
90
6
176
1
90
2
176
1
62
7
176
1
90
3
176
1
90
0
176
1
90
0
176
1
290
0
176
1
90
1
176
1
40
0.0
176
1
90
0
176
1
290
0
176
1
290
1
176
1
290
1
176
1
290
0
176
1
290
0
176
1
290
0
176
1
290
0
176
1
290
0
176
1
290
0
176
1
90
50
176
1
40
0.0
176
1
40
1.0
176
1
90
0
176
1
62
18
176
1
90
50
176
1
90
3
176
1
62
5
420
255
176
1
290
0
176
1
90
50
176
1
90
50
176
1
90
50
176
1
290
0
176
1
90
50
176
1
62
256
176
0
40
1.0
176
0
90
2
176
1
1
strokes_ogs.tif
176
1
290
0
176
1
40
1.0
176
1
40
1.0
176
1
1001
ACAD
1000
AcDbSavedByObjectVersion
1070
0
0
VISUALSTYLE
5
24D
102
{ACAD_REACTORS
330
23A
102
}
330
23A
100
AcDbVisualStyle
2
X-Ray
70
25
177
3
291
0
70
58
90
2
176
1
90
2
176
1
90
1
176
1
90
1
176
1
40
0.5
176
1
40
30.0
176
1
62
7
420
16777215
176
1
90
1
176
1
90
0
176
1
62
7
176
1
62
257
176
1
90
1
176
1
90
1
176
1
40
1.0
176
1
90
8
176
1
62
7
176
1
40
1.0
176
1
90
1
176
1
90
6
176
1
90
2
176
1
62
7
176
1
90
3
176
1
90
0
176
1
90
0
176
1
290
0
176
1
90
13
176
1
40
0.0
176
1
90
0
176
1
290
0
176
1
290
1
176
1
290
1
176
1
290
0
176
1
290
0
176
1
290
0
176
1
290
0
176
1
290
0
176
1
290
0
176
1
90
50
176
1
40
0.0
176
1
40
1.0
176
1
90
0
176
1
62
18
176
1
90
50
176
1
90
3
176
1
62
5
420
255
176
1
290
0
176
1
90
50
176
1
90
50
176
1
90
50
176
1
290
0
176
1
90
50
176
1
62
256
176
0
40
1.0
176
0
90
2
176
1
1
strokes_ogs.tif
176
1
290
0
176
1
40
1.0
176
1
40
1.0
176
1
1001
ACAD
1000
AcDbSavedByObjectVersion
1070
0
0
DICTIONARYVAR
5
2A3
102
{ACAD_REACTORS
330
29D
102
}
330
29D
100
DictionaryVariables
280
0
1
1:1
0
DICTIONARYVAR
5
29F
102
{ACAD_REACTORS
330
29D
102
}
330
29D
100
DictionaryVariables
280
0
1
STANDARD
0
DICTIONARYVAR
5
29E
102
{ACAD_REACTORS
330
29D
102
}
330
29D
100
DictionaryVariables
280
0
1
STANDARD
0
DICTIONARYVAR
5
2A0
102
{ACAD_REACTORS
330
29D
102
}
330
29D
100
DictionaryVariables
280
0
1
Imperial24
0
DICTIONARYVAR
5
2A1
102
{ACAD_REACTORS
330
29D
102
}
330
29D
100
DictionaryVariables
280
0
1
Imperial24
0
DICTIONARYVAR
5
2A5
102
{ACAD_REACTORS
330
29D
102
}
330
29D
100
DictionaryVariables
280
0
1
1
0
DICTIONARYVAR
5
2A6
102
{ACAD_REACTORS
330
29D
102
}
330
29D
100
DictionaryVariables
280
0
1
15
0
DICTIONARYVAR
5
2A4
102
{ACAD_REACTORS
330
29D
102
}
330
29D
100
DictionaryVariables
280
0
1
0
0
DICTIONARYVAR
5
2A2
102
{ACAD_REACTORS
330
29D
102
}
330
29D
100
DictionaryVariables
280
0
1
0
0
DICTIONARY
5
22B
330
22A
100
AcDbDictionary
280
1
281
1
3
BUMPTILE
360
22D
3
DIFFUSETILE
360
22C
3
OPACITYTILE
360
230
3
REFLECTIONTILE
360
22F
3
REFRACTIONTILE
360
231
3
SPECULARTILE
360
22E
0
DICTIONARY
5
223
330
222
100
AcDbDictionary
280
1
281
1
3
BUMPTILE
360
225
3
DIFFUSETILE
360
224
3
OPACITYTILE
360
228
3
REFLECTIONTILE
360
227
3
REFRACTIONTILE
360
229
3
SPECULARTILE
360
226
0
DICTIONARY
5
233
330
232
100
AcDbDictionary
280
1
281
1
3
BUMPTILE
360
235
3
DIFFUSETILE
360
234
3
OPACITYTILE
360
238
3
REFLECTIONTILE
360
237
3
REFRACTIONTILE
360
239
3
SPECULARTILE
360
236
0
DICTIONARY
5
2A7
330
275
100
AcDbDictionary
280
1
281
1
3
ACAD_ROUNDTRIP_2008_TABLESTYLE_CELLSTYLEMAP
360
1056
0
XRECORD
5
22D
102
{ACAD_REACTORS
330
22B
102
}
330
22B
100
AcDbXrecord
280
1
270
1
271
1
0
XRECORD
5
22C
102
{ACAD_REACTORS
330
22B
102
}
330
22B
100
AcDbXrecord
280
1
270
1
271
1
0
XRECORD
5
230
102
{ACAD_REACTORS
330
22B
102
}
330
22B
100
AcDbXrecord
280
1
270
1
271
1
0
XRECORD
5
22F
102
{ACAD_REACTORS
330
22B
102
}
330
22B
100
AcDbXrecord
280
1
270
1
271
1
0
XRECORD
5
231
102
{ACAD_REACTORS
330
22B
102
}
330
22B
100
AcDbXrecord
280
1
270
1
271
1
0
XRECORD
5
22E
102
{ACAD_REACTORS
330
22B
102
}
330
22B
100
AcDbXrecord
280
1
270
1
271
1
0
XRECORD
5
225
102
{ACAD_REACTORS
330
223
102
}
330
223
100
AcDbXrecord
280
1
270
1
271
1
0
XRECORD
5
224
102
{ACAD_REACTORS
330
223
102
}
330
223
100
AcDbXrecord
280
1
270
1
271
1
0
XRECORD
5
228
102
{ACAD_REACTORS
330
223
102
}
330
223
100
AcDbXrecord
280
1
270
1
271
1
0
XRECORD
5
227
102
{ACAD_REACTORS
330
223
102
}
330
223
100
AcDbXrecord
280
1
270
1
271
1
0
XRECORD
5
229
102
{ACAD_REACTORS
330
223
102
}
330
223
100
AcDbXrecord
280
1
270
1
271
1
0
XRECORD
5
226
102
{ACAD_REACTORS
330
223
102
}
330
223
100
AcDbXrecord
280
1
270
1
271
1
0
XRECORD
5
235
102
{ACAD_REACTORS
330
233
102
}
330
233
100
AcDbXrecord
280
1
270
1
271
1
0
XRECORD
5
234
102
{ACAD_REACTORS
330
233
102
}
330
233
100
AcDbXrecord
280
1
270
1
271
1
0
XRECORD
5
238
102
{ACAD_REACTORS
330
233
102
}
330
233
100
AcDbXrecord
280
1
270
1
271
1
0
XRECORD
5
237
102
{ACAD_REACTORS
330
233
102
}
330
233
100
AcDbXrecord
280
1
270
1
271
1
0
XRECORD
5
239
102
{ACAD_REACTORS
330
233
102
}
330
233
100
AcDbXrecord
280
1
270
1
271
1
0
XRECORD
5
236
102
{ACAD_REACTORS
330
233
102
}
330
233
100
AcDbXrecord
280
1
270
1
271
1
0
CELLSTYLEMAP
5
1056
102
{ACAD_REACTORS
330
2A7
102
}
330
2A7
100
AcDbCellStyleMap
90
3
300
CELLSTYLE
1
TABLEFORMAT_BEGIN
90
5
170
1
91
0
92
32768
62
257
93
1
300
CONTENTFORMAT
1
CONTENTFORMAT_BEGIN
90
0
91
0
92
512
93
0
300

40
0.0
140
1.0
94
5
62
0
340
266
144
0.25
309
CONTENTFORMAT_END
171
1
301
MARGIN
1
CELLMARGIN_BEGIN
40
0.06
40
0.06
40
0.06
40
0.06
40
0.18
40
0.18
309
CELLMARGIN_END
94
6
95
1
302
GRIDFORMAT
1
GRIDFORMAT_BEGIN
90
0
91
1
62
0
92
-2
340
0
93
0
40
0.045
309
GRIDFORMAT_END
95
2
302
GRIDFORMAT
1
GRIDFORMAT_BEGIN
90
0
91
1
62
0
92
-2
340
0
93
0
40
0.045
309
GRIDFORMAT_END
95
4
302
GRIDFORMAT
1
GRIDFORMAT_BEGIN
90
0
91
1
62
0
92
-2
340
0
93
0
40
0.045
309
GRIDFORMAT_END
95
8
302
GRIDFORMAT
1
GRIDFORMAT_BEGIN
90
0
91
1
62
0
92
-2
340
0
93
0
40
0.045
309
GRIDFORMAT_END
95
16
302
GRIDFORMAT
1
GRIDFORMAT_BEGIN
90
0
91
1
62
0
92
-2
340
0
93
0
40
0.045
309
GRIDFORMAT_END
95
32
302
GRIDFORMAT
1
GRIDFORMAT_BEGIN
90
0
91
1
62
0
92
-2
340
0
93
0
40
0.045
309
GRIDFORMAT_END
309
TABLEFORMAT_END
1
CELLSTYLE_BEGIN
90
1
91
1
300
_TITLE
309
CELLSTYLE_END
300
CELLSTYLE
1
TABLEFORMAT_BEGIN
90
5
170
1
91
0
92
0
62
257
93
1
300
CONTENTFORMAT
1
CONTENTFORMAT_BEGIN
90
0
91
0
92
512
93
0
300

40
0.0
140
1.0
94
5
62
0
340
266
144
0.18
309
CONTENTFORMAT_END
171
1
301
MARGIN
1
CELLMARGIN_BEGIN
40
0.06
40
0.06
40
0.06
40
0.06
40
0.18
40
0.18
309
CELLMARGIN_END
94
6
95
1
302
GRIDFORMAT
1
GRIDFORMAT_BEGIN
90
0
91
1
62
0
92
-2
340
0
93
0
40
0.045
309
GRIDFORMAT_END
95
2
302
GRIDFORMAT
1
GRIDFORMAT_BEGIN
90
0
91
1
62
0
92
-2
340
0
93
0
40
0.045
309
GRIDFORMAT_END
95
4
302
GRIDFORMAT
1
GRIDFORMAT_BEGIN
90
0
91
1
62
0
92
-2
340
0
93
0
40
0.045
309
GRIDFORMAT_END
95
8
302
GRIDFORMAT
1
GRIDFORMAT_BEGIN
90
0
91
1
62
0
92
-2
340
0
93
0
40
0.045
309
GRIDFORMAT_END
95
16
302
GRIDFORMAT
1
GRIDFORMAT_BEGIN
90
0
91
1
62
0
92
-2
340
0
93
0
40
0.045
309
GRIDFORMAT_END
95
32
302
GRIDFORMAT
1
GRIDFORMAT_BEGIN
90
0
91
1
62
0
92
-2
340
0
93
0
40
0.045
309
GRIDFORMAT_END
309
TABLEFORMAT_END
1
CELLSTYLE_BEGIN
90
2
91
1
300
_HEADER
309
CELLSTYLE_END
300
CELLSTYLE
1
TABLEFORMAT_BEGIN
90
5
170
1
91
0
92
0
62
257
93
1
300
CONTENTFORMAT
1
CONTENTFORMAT_BEGIN
90
0
91
0
92
512
93
0
300

40
0.0
140
1.0
94
2
62
0
340
266
144
0.18
309
CONTENTFORMAT_END
171
1
301
MARGIN
1
CELLMARGIN_BEGIN
40
0.06
40
0.06
40
0.06
40
0.06
40
0.18
40
0.18
309
CELLMARGIN_END
94
6
95
1
302
GRIDFORMAT
1
GRIDFORMAT_BEGIN
90
0
91
1
62
0
92
-2
340
0
93
0
40
0.045
309
GRIDFORMAT_END
95
2
302
GRIDFORMAT
1
GRIDFORMAT_BEGIN
90
0
91
1
62
0
92
-2
340
0
93
0
40
0.045
309
GRIDFORMAT_END
95
4
302
GRIDFORMAT
1
GRIDFORMAT_BEGIN
90
0
91
1
62
0
92
-2
340
0
93
0
40
0.045
309
GRIDFORMAT_END
95
8
302
GRIDFORMAT
1
GRIDFORMAT_BEGIN
90
0
91
1
62
0
92
-2
340
0
93
0
40
0.045
309
GRIDFORMAT_END
95
16
302
GRIDFORMAT
1
GRIDFORMAT_BEGIN
90
0
91
1
62
0
92
-2
340
0
93
0
40
0.045
309
GRIDFORMAT_END
95
32
302
GRIDFORMAT
1
GRIDFORMAT_BEGIN
90
0
91
1
62
0
92
-2
340
0
93
0
40
0.045
309
GRIDFORMAT_END
309
TABLEFORMAT_END
1
CELLSTYLE_BEGIN
90
3
91
2
300
_DATA
309
CELLSTYLE_END
0
ENDSEC
0
SECTION
2
ACDSDATA
70
2
71
2
0
ACDSSCHEMA
90
0
1
AcDb_Thumbnail_Schema
2
AcDbDs::ID
280
10
91
8
2
Thumbnail_Data
280
15
91
0
101
ACDSRECORD
95
0
90
1
2
AcDbDs::TreatedAsObjectData
280
1
291
1
101
ACDSRECORD
95
0
90
2
2
AcDbDs::Legacy
280
1
291
1
101
ACDSRECORD
1
AcDbDs::ID
90
3
2
AcDs:Indexable
280
1
291
1
101
ACDSRECORD
1
AcDbDs::ID
90
4
2
AcDbDs::HandleAttribute
280
7
282
1
0
ACDSSCHEMA
90
1
1
AcDbDs::TreatedAsObjectDataSchema
2
AcDbDs::TreatedAsObjectData
280
1
91
0
0
ACDSSCHEMA
90
2
1
AcDbDs::LegacySchema
2
AcDbDs::Legacy
280
1
91
0
0
ACDSSCHEMA
90
3
1
AcDbDs::IndexedPropertySchema
2
AcDs:Indexable
280
1
91
0
0
ACDSSCHEMA
90
4
1
AcDbDs::HandleAttributeSchema
2
AcDbDs::HandleAttribute
280
7
91
1
284
1
0
ACDSRECORD
90
0
2
AcDbDs::ID
280
10
320
284
2
Thumbnail_Data
280
15
94
1130
310
89504E470D0A1A0A0000000D4948445200000100000000BB0803000000BDD6B05600000300504C54452128300000000000000000000000000000000000000000000000000000000000000000330000660000990000CC0000FF0033000033330033660033990033CC0033FF0066000066330066660066990066CC0066FF0099
310
000099330099660099990099CC0099FF00CC0000CC3300CC6600CC9900CCCC00CCFF00FF0000FF3300FF6600FF9900FFCC00FFFF3300003300333300663300993300CC3300FF3333003333333333663333993333CC3333FF3366003366333366663366993366CC3366FF3399003399333399663399993399CC3399FF33CC00
310
33CC3333CC6633CC9933CCCC33CCFF33FF0033FF3333FF6633FF9933FFCC33FFFF6600006600336600666600996600CC6600FF6633006633336633666633996633CC6633FF6666006666336666666666996666CC6666FF6699006699336699666699996699CC6699FF66CC0066CC3366CC6666CC9966CCCC66CCFF66FF0066
310
FF3366FF6666FF9966FFCC66FFFF9900009900339900669900999900CC9900FF9933009933339933669933999933CC9933FF9966009966339966669966999966CC9966FF9999009999339999669999999999CC9999FF99CC0099CC3399CC6699CC9999CCCC99CCFF99FF0099FF3399FF6699FF9999FFCC99FFFFCC0000CC00
310
33CC0066CC0099CC00CCCC00FFCC3300CC3333CC3366CC3399CC33CCCC33FFCC6600CC6633CC6666CC6699CC66CCCC66FFCC9900CC9933CC9966CC9999CC99CCCC99FFCCCC00CCCC33CCCC66CCCC99CCCCCCCCCCFFCCFF00CCFF33CCFF66CCFF99CCFFCCCCFFFFFF0000FF0033FF0066FF0099FF00CCFF00FFFF3300FF3333
310
FF3366FF3399FF33CCFF33FFFF6600FF6633FF6666FF6699FF66CCFF66FFFF9900FF9933FF9966FF9999FF99CCFF99FFFFCC00FFCC33FFCC66FFCC99FFCCCCFFCCFFFFFF00FFFF33FFFF66FFFF99FFFFCCFFFFFF0000000D0D0D1A1A1A2828283535354343435050505D5D5D6B6B6B787878868686939393A1A1A1AEAEAEBB
310
BBBBC9C9C9D6D6D6E4E4E4F1F1F1FFFFFF000000000000000000000000000000000000000000000000000000000000544354A80000004549444154789CEDC13101000000C2A0F54F6D094FA000000000000000000000000000000000000000000000000000000000000000000000000000000000000000000000E062BBBB00
310
01006808E50000000049454E44AE4260824BBACA0DB465ABDB4063B2B20534072BDA4047AC9A0DF4A42AD9407A015D99E20BA8D8407A019D89143066171752C0D0E513E84D54AE01050C5E7F7B0A18BA7C020A18BA7C02F105C4FF0C2920FE4024FE484C01F1C7E2F11723AEC65C8EBA1E372071982F7D48A87EFCC5989C41
310
49A3B22F9BB861E9DF3E73F299D3F25FC9D901000000000000000000000000000000000000000000E0344F3123803F1ED9B2780000000049454E44AE426082FADAD667F149BFC5000000000000000000000000000000000000000070A90F51C3A687E5D1137C0000000049454E44AE426082
0
ENDSEC
0
EOF
