0
SECTION
2
HEADER
9
$ACADVER
1
AC1027
9
$ACADMAINTVER
70
8
9
$DWGCODEPAGE
3
ANSI_1252
9
$LASTSAVEDBY
1
macc
9
$REQUIREDVERSIONS
160
0
9
$INSBASE
10
0.0
20
0.0
30
0.0
9
$EXTMIN
10
1.000000000000000E+20
20
1.000000000000000E+20
30
1.000000000000000E+20
9
$EXTMAX
10
-1.000000000000000E+20
20
-1.000000000000000E+20
30
-1.000000000000000E+20
9
$LIMMIN
10
0.0
20
0.0
9
$LIMMAX
10
12.0
20
9.0
9
$ORTHOMODE
70
0
9
$REGENMODE
70
1
9
$FILLMODE
70
1
9
$QTEXTMODE
70
0
9
$MIRRTEXT
70
0
9
$LTSCALE
40
1.0
9
$ATTMODE
70
1
9
$TEXTSIZE
40
0.2
9
$TRACEWID
40
0.05
9
$TEXTSTYLE
7
STANDARD
9
$CLAYER
8
0
9
$CELTYPE
6
ByLayer
9
$CECOLOR
62
256
9
$CELTSCALE
40
1.0
9
$DISPSILH
70
0
9
$DIMSCALE
40
1.0
9
$DIMASZ
40
0.18
9
$DIMEXO
40
0.0625
9
$DIMDLI
40
0.38
9
$DIMRND
40
0.0
9
$DIMDLE
40
0.0
9
$DIMEXE
40
0.18
9
$DIMTP
40
0.0
9
$DIMTM
40
0.0
9
$DIMTXT
40
0.18
9
$DIMCEN
40
0.09
9
$DIMTSZ
40
0.0
9
$DIMTOL
70
0
9
$DIMLIM
70
0
9
$DIMTIH
70
1
9
$DIMTOH
70
1
9
$DIMSE1
70
0
9
$DIMSE2
70
0
9
$DIMTAD
70
0
9
$DIMZIN
70
0
9
$DIMBLK
1

9
$DIMASO
70
1
9
$DIMSHO
70
1
9
$DIMPOST
1

9
$DIMAPOST
1

9
$DIMALT
70
0
9
$DIMALTD
70
2
9
$DIMALTF
40
25.4
9
$DIMLFAC
40
1.0
9
$DIMTOFL
70
0
9
$DIMTVP
40
0.0
9
$DIMTIX
70
0
9
$DIMSOXD
70
0
9
$DIMSAH
70
0
9
$DIMBLK1
1

9
$DIMBLK2
1

9
$DIMSTYLE
2
STANDARD
9
$DIMCLRD
70
0
9
$DIMCLRE
70
0
9
$DIMCLRT
70
0
9
$DIMTFAC
40
1.0
9
$DIMGAP
40
0.09
9
$DIMJUST
70
0
9
$DIMSD1
70
0
9
$DIMSD2
70
0
9
$DIMTOLJ
70
1
9
$DIMTZIN
70
0
9
$DIMALTZ
70
0
9
$DIMALTTZ
70
0
9
$DIMUPT
70
0
9
$DIMDEC
70
4
9
$DIMTDEC
70
4
9
$DIMALTU
70
2
9
$DIMALTTD
70
2
9
$DIMTXSTY
7
STANDARD
9
$DIMAUNIT
70
0
9
$DIMADEC
70
0
9
$DIMALTRND
40
0.0
9
$DIMAZIN
70
0
9
$DIMDSEP
70
46
9
$DIMATFIT
70
3
9
$DIMFRAC
70
0
9
$DIMLDRBLK
1

9
$DIMLUNIT
70
2
9
$DIMLWD
70
-2
9
$DIMLWE
70
-2
9
$DIMTMOVE
70
0
9
$DIMFXL
40
1.0
9
$DIMFXLON
70
0
9
$DIMJOGANG
40
0.7853981633974483
9
$DIMTFILL
70
0
9
$DIMTFILLCLR
70
0
9
$DIMARCSYM
70
0
9
$DIMLTYPE
6

9
$DIMLTEX1
6

9
$DIMLTEX2
6

9
$DIMTXTDIRECTION
70
0
9
$LUNITS
70
2
9
$LUPREC
70
4
9
$SKETCHINC
40
0.1
9
$FILLETRAD
40
0.0
9
$AUNITS
70
0
9
$AUPREC
70
0
9
$MENU
1
.
9
$ELEVATION
40
0.0
9
$PELEVATION
40
0.0
9
$THICKNESS
40
0.0
9
$LIMCHECK
70
0
9
$CHAMFERA
40
0.0
9
$CHAMFERB
40
0.0
9
$CHAMFERC
40
0.0
9
$CHAMFERD
40
0.0
9
$SKPOLY
70
0
9
$TDCREATE
40
2458312.067262384
9
$TDUCREATE
40
2458311.983929051
9
$TDUPDATE
40
2458312.961305069
9
$TDUUPDATE
40
2458312.877971736
9
$TDINDWG
40
0.0045230903
9
$TDUSRTIMER
40
0.0045219676
9
$USRTIMER
70
1
9
$ANGBASE
50
0.0
9
$ANGDIR
70
0
9
$PDMODE
70
0
9
$PDSIZE
40
0.0
9
$PLINEWID
40
0.0
9
$SPLFRAME
70
0
9
$SPLINETYPE
70
6
9
$SPLINESEGS
70
8
9
$HANDSEED
5
1058
9
$SURFTAB1
70
6
9
$SURFTAB2
70
6
9
$SURFTYPE
70
6
9
$SURFU
70
6
9
$SURFV
70
6
9
$UCSBASE
2

9
$UCSNAME
2

9
$UCSORG
10
0.0
20
0.0
30
0.0
9
$UCSXDIR
10
1.0
20
0.0
30
0.0
9
$UCSYDIR
10
0.0
20
1.0
30
0.0
9
$UCSORTHOREF
2

9
$UCSORTHOVIEW
70
0
9
$UCSORGTOP
10
0.0
20
0.0
30
0.0
9
$UCSORGBOTTOM
10
0.0
20
0.0
30
0.0
9
$UCSORGLEFT
10
0.0
20
0.0
30
0.0
9
$UCSORGRIGHT
10
0.0
20
0.0
30
0.0
9
$UCSORGFRONT
10
0.0
20
0.0
30
0.0
9
$UCSORGBACK
10
0.0
20
0.0
30
0.0
9
$PUCSBASE
2

9
$PUCSNAME
2

9
$PUCSORG
10
0.0
20
0.0
30
0.0
9
$PUCSXDIR
10
1.0
20
0.0
30
0.0
9
$PUCSYDIR
10
0.0
20
1.0
30
0.0
9
$PUCSORTHOREF
2

9
$PUCSORTHOVIEW
70
0
9
$PUCSORGTOP
10
0.0
20
0.0
30
0.0
9
$PUCSORGBOTTOM
10
0.0
20
0.0
30
0.0
9
$PUCSORGLEFT
10
0.0
20
0.0
30
0.0
9
$PUCSORGRIGHT
10
0.0
20
0.0
30
0.0
9
$PUCSORGFRONT
10
0.0
20
0.0
30
0.0
9
$PUCSORGBACK
10
0.0
20
0.0
30
0.0
9
$USERI1
70
0
9
$USERI2
70
0
9
$USERI3
70
0
9
$USERI4
70
0
9
$USERI5
70
0
9
$USERR1
40
0.0
9
$USERR2
40
0.0
9
$USERR3
40
0.0
9
$USERR4
40
0.0
9
$USERR5
40
0.0
9
$WORLDVIEW
70
1
9
$SHADEDGE
70
3
9
$SHADEDIF
70
70
9
$TILEMODE
70
1
9
$MAXACTVP
70
64
9
$PINSBASE
10
0.0
20
0.0
30
0.0
9
$PLIMCHECK
70
0
9
$PEXTMIN
10
0.0
20
0.0
30
0.0
9
$PEXTMAX
10
0.0
20
0.0
30
0.0
9
$PLIMMIN
10
0.0
20
0.0
9
$PLIMMAX
10
12.0
20
9.0
9
$UNITMODE
70
0
9
$VISRETAIN
70
1
9
$PLINEGEN
70
0
9
$PSLTSCALE
70
1
9
$TREEDEPTH
70
3020
9
$CMLSTYLE
2
Standard
9
$CMLJUST
70
0
9
$CMLSCALE
40
1.0
9
$PROXYGRAPHICS
70
1
9
$MEASUREMENT
70
0
9
$CELWEIGHT
370
-1
9
$ENDCAPS
280
0
9
$JOINSTYLE
280
0
9
$LWDISPLAY
290
0
9
$INSUNITS
70
0
9
$HYPERLINKBASE
1

9
$STYLESHEET
1

9
$XEDIT
290
1
9
$CEPSNTYPE
380
0
9
$PSTYLEMODE
290
1
9
$FINGERPRINTGUID
2
{4B4ED3CC-337F-6143-9B17-EFB0F3F01845}
9
$VERSIONGUID
2
{A4861B96-12DA-254C-ACF2-0C3CF0F63D02}
9
$EXTNAMES
290
1
9
$PSVPSCALE
40
0.0
9
$OLESTARTUP
290
0
9
$SORTENTS
280
127
9
$INDEXCTL
280
0
9
$HIDETEXT
280
0
9
$XCLIPFRAME
280
2
9
$HALOGAP
280
0
9
$OBSCOLOR
70
257
9
$OBSLTYPE
280
0
9
$INTERSECTIONDISPLAY
280
0
9
$INTERSECTIONCOLOR
70
257
9
$DIMASSOC
280
1
9
$PROJECTNAME
1

9
$CAMERADISPLAY
290
0
9
$LENSLENGTH
40
50.0
9
$CAMERAHEIGHT
40
0.0
9
$STEPSPERSEC
40
2.0
9
$STEPSIZE
40
6.0
9
$3DDWFPREC
40
2.0
9
$PSOLWIDTH
40
0.25
9
$PSOLHEIGHT
40
4.0
9
$LOFTANG1
40
1.570796326794896
9
$LOFTANG2
40
1.570796326794896
9
$LOFTMAG1
40
0.0
9
$LOFTMAG2
40
0.0
9
$LOFTPARAM
70
7
9
$LOFTNORMALS
280
1
9
$LATITUDE
40
37.795
9
$LONGITUDE
40
-122.394
9
$NORTHDIRECTION
40
0.0
9
$TIMEZONE
70
-8000
9
$LIGHTGLYPHDISPLAY
280
1
9
$TILEMODELIGHTSYNCH
280
1
9
$CMATERIAL
347
222
9
$SOLIDHIST
280
0
9
$SHOWHIST
280
1
9
$DWFFRAME
280
2
9
$DGNFRAME
280
0
9
$REALWORLDSCALE
290
1
9
$INTERFERECOLOR
62
1
9
$INTERFEREOBJVS
345
244
9
$INTERFEREVPVS
346
241
9
$CSHADOW
280
0
9
$SHADOWPLANELOCATION
40
0.0
0
ENDSEC
0
SECTION
2
CLASSES
0
CLASS
1
ACDBDICTIONARYWDFLT
2
AcDbDictionaryWithDefault
3
ObjectDBX Classes
90
0
91
1
280
0
281
0
0
CLASS
1
MATERIAL
2
AcDbMaterial
3
ObjectDBX Classes
90
1153
91
3
280
0
281
0
0
CLASS
1
VISUALSTYLE
2
AcDbVisualStyle
3
ObjectDBX Classes
90
4095
91
24
280
0
281
0
0
CLASS
1
SCALE
2
AcDbScale
3
ObjectDBX Classes
90
1153
91
17
280
0
281
0
0
CLASS
1
TABLESTYLE
2
AcDbTableStyle
3
ObjectDBX Classes
90
4095
91
1
280
0
281
0
0
CLASS
1
MLEADERSTYLE
2
AcDbMLeaderStyle
3
ACDB_MLEADERSTYLE_CLASS
90
4095
91
1
280
0
281
0
0
CLASS
1
ACDBSECTIONVIEWSTYLE
2
AcDbSectionViewStyle
3
ObjectDBX Classes
90
1025
91
1
280
0
281
0
0
CLASS
1
ACDBDETAILVIEWSTYLE
2
AcDbDetailViewStyle
3
ObjectDBX Classes
90
1025
91
1
280
0
281
0
0
CLASS
1
DICTIONARYVAR
2
AcDbDictionaryVar
3
ObjectDBX Classes
90
0
91
9
280
0
281
0
0
CLASS
1
CELLSTYLEMAP
2
AcDbCellStyleMap
3
ObjectDBX Classes
90
1152
91
2
280
0
281
0
0
ENDSEC
0
SECTION
2
TABLES
0
TABLE
2
VPORT
5
219
330
0
100
AcDbSymbolTable
70
1
0
VPORT
5
285
330
219
100
AcDbSymbolTableRecord
100
AcDbViewportTableRecord
2
*ACTIVE
70
0
10
0.0
20
0.0
11
1.0
21
1.0
12
60.85393284500712
22
1.602311788490737
13
0.0
23
0.0
14
0.5
24
0.5
15
0.5
25
0.5
16
0.0
26
0.0
36
1.0
17
0.0
27
0.0
37
0.0
40
135.7601553851812
41
1.367970660146699
42
50.0
43
0.0
44
0.0
50
0.0
51
0.0
71
0
72
1000
73
1
74
3
75
0
76
1
77
0
78
0
281
0
65
1
110
0.0
120
0.0
130
0.0
111
1.0
121
0.0
131
0.0
112
0.0
122
1.0
132
0.0
79
0
146
0.0
348
240
60
3
61
5
292
1
282
0
141
0.0
142
0.0
63
250
421
3355443
1001
ACAD_NAV_VCDISPLAY
1070
3
0
ENDTAB
0
TABLE
2
LTYPE
5
216
330
0
100
AcDbSymbolTable
70
2
0
LTYPE
5
26B
330
216
100
AcDbSymbolTableRecord
100
AcDbLinetypeTableRecord
2
ByBlock
70
0
3

72
65
73
0
40
0.0
0
LTYPE
5
26C
330
216
100
AcDbSymbolTableRecord
100
AcDbLinetypeTableRecord
2
ByLayer
70
0
3

72
65
73
0
40
0.0
0
LTYPE
5
26D
330
216
100
AcDbSymbolTableRecord
100
AcDbLinetypeTableRecord
2
CONTINUOUS
70
0
3
Solid line
72
65
73
0
40
0.0
0
LTYPE
5
103D
330
216
100
AcDbSymbolTableRecord
100
AcDbLinetypeTableRecord
2
DOTTED
70
0
3
Dotted . . . . . . . . . . . . . . . . . . . .
72
65
73
2
40
3.0
49
0.0
74
0
49
-3.0
74
0
0
ENDTAB
0
TABLE
2
LAYER
5
213
102
{ACAD_XDICTIONARY
360
297
102
}
330
0
100
AcDbSymbolTable
70
4
0
LAYER
5
265
102
{ACAD_XDICTIONARY
360
292
102
}
330
213
100
AcDbSymbolTableRecord
100
AcDbLayerTableRecord
2
0
70
0
62
7
6
CONTINUOUS
370
-3
390
220
347
232
348
0
0
LAYER
5
2FB
330
213
100
AcDbSymbolTableRecord
100
AcDbLayerTableRecord
2
gear
70
0
62
7
6
CONTINUOUS
370
-3
390
220
347
232
348
0
1001
AcAecLayerStandard
1000

1000

1001
AcCmTransparency
1071
0
0
LAYER
5
2FE
330
213
100
AcDbSymbolTableRecord
100
AcDbLayerTableRecord
2
gear_texts
70
0
62
7
6
CONTINUOUS
370
-3
390
220
347
232
348
0
1001
AcAecLayerStandard
1000

1000

1001
AcCmTransparency
1071
0
0
LAYER
5
2FF
330
213
100
AcDbSymbolTableRecord
100
AcDbLayerTableRecord
2
gear_guides
70
0
62
5
6
CONTINUOUS
370
-3
390
220
347
232
348
0
1001
AcAecLayerStandard
1000

1000

1001
AcCmTransparency
1071
0
0
ENDTAB
0
TABLE
2
STYLE
5
214
330
0
100
AcDbSymbolTable
70
3
0
STYLE
5
266
330
214
100
AcDbSymbolTableRecord
100
AcDbTextStyleTableRecord
2
STANDARD
70
0
40
0.0
41
1.0
50
0.0
71
0
42
0.2
3
txt
4

0
STYLE
5
26A
330
214
100
AcDbSymbolTableRecord
100
AcDbTextStyleTableRecord
2
ANNOTATIVE
70
0
40
0.0
41
1.0
50
0.0
71
0
42
0.2
3
txt
4

1001
ACADANNOTATIVE
1000
AnnotativeData
1002
{
1070
1
1070
1
1002
}
0
STYLE
5
301
330
214
100
AcDbSymbolTableRecord
100
AcDbTextStyleTableRecord
2

70
1
40
0.0
41
1.0
50
0.0
71
0
42
0.2
3
ltypeshp.shx
4

0
ENDTAB
0
TABLE
2
VIEW
5
217
330
0
100
AcDbSymbolTable
70
1
0
ENDTAB
0
TABLE
2
UCS
5
218
330
0
100
AcDbSymbolTable
70
0
0
ENDTAB
0
TABLE
2
APPID
5
21A
330
0
100
AcDbSymbolTable
70
10
0
APPID
5
267
330
21A
100
AcDbSymbolTableRecord
100
AcDbRegAppTableRecord
2
ACAD
70
0
0
APPID
5
26E
330
21A
100
AcDbSymbolTableRecord
100
AcDbRegAppTableRecord
2
ACADANNOTATIVE
70
0
0
APPID
5
286
330
21A
100
AcDbSymbolTableRecord
100
AcDbRegAppTableRecord
2
ACADANNOPO
70
0
0
APPID
5
287
330
21A
100
AcDbSymbolTableRecord
100
AcDbRegAppTableRecord
2
ACAD_DSTYLE_DIMJAG
70
0
0
APPID
5
288
330
21A
100
AcDbSymbolTableRecord
100
AcDbRegAppTableRecord
2
ACAD_DSTYLE_DIMTALN
70
0
0
APPID
5
289
330
21A
100
AcDbSymbolTableRecord
100
AcDbRegAppTableRecord
2
ACAD_MLEADERVER
70
0
0
APPID
5
28A
330
21A
100
AcDbSymbolTableRecord
100
AcDbRegAppTableRecord
2
ACAD_NAV_VCDISPLAY
70
0
0
APPID
5
2E7
330
21A
100
AcDbSymbolTableRecord
100
AcDbRegAppTableRecord
2
ACAD_EXEMPT_FROM_CAD_STANDARDS
70
0
0
APPID
5
2FC
330
21A
100
AcDbSymbolTableRecord
100
AcDbRegAppTableRecord
2
AcAecLayerStandard
70
0
0
APPID
5
2FD
330
21A
100
AcDbSymbolTableRecord
100
AcDbRegAppTableRecord
2
AcCmTransparency
70
0
0
ENDTAB
0
TABLE
2
DIMSTYLE
5
21B
330
0
100
AcDbSymbolTable
70
2
100
AcDbDimStyleTable
71
1
340
268
0
DIMSTYLE
105
268
330
21B
100
AcDbSymbolTableRecord
100
AcDbDimStyleTableRecord
2
STANDARD
70
0
279
2
340
266
0
DIMSTYLE
105
269
330
21B
100
AcDbSymbolTableRecord
100
AcDbDimStyleTableRecord
2
ANNOTATIVE
70
0
40
0.0
279
2
340
266
1001
ACADANNOTATIVE
1000
AnnotativeData
1002
{
1070
1
1070
1
1002
}
0
ENDTAB
0
TABLE
2
BLOCK_RECORD
5
212
330
0
100
AcDbSymbolTable
70
2
0
BLOCK_RECORD
5
281
330
212
100
AcDbSymbolTableRecord
100
AcDbBlockTableRecord
2
*Model_Space
340
284
70
0
280
1
281
0
0
BLOCK_RECORD
5
27D
330
212
100
AcDbSymbolTableRecord
100
AcDbBlockTableRecord
2
*Paper_Space
340
280
70
0
280
1
281
0
0
BLOCK_RECORD
5
28C
330
212
100
AcDbSymbolTableRecord
100
AcDbBlockTableRecord
2
$MODEL_SPACE
340
0
70
0
280
1
281
0
0
BLOCK_RECORD
5
28E
330
212
100
AcDbSymbolTableRecord
100
AcDbBlockTableRecord
2
$PAPER_SPACE
340
0
70
0
280
1
281
0
0
ENDTAB
0
ENDSEC
0
SECTION
2
BLOCKS
0
BLOCK
5
282
330
281
100
AcDbEntity
8
0
100
AcDbBlockBegin
2
*Model_Space
70
0
10
0.0
20
0.0
30
0.0
3
*Model_Space
1

0
ENDBLK
5
283
330
281
100
AcDbEntity
8
0
100
AcDbBlockEnd
0
BLOCK
5
27E
330
27D
100
AcDbEntity
67
1
8
0
100
AcDbBlockBegin
2
*Paper_Space
70
0
10
0.0
20
0.0
30
0.0
3
*Paper_Space
1

0
ENDBLK
5
27F
330
27D
100
AcDbEntity
67
1
8
0
100
AcDbBlockEnd
0
BLOCK
5
28D
330
28C
100
AcDbEntity
8
0
100
AcDbBlockBegin
2
$MODEL_SPACE
70
0
10
0.0
20
0.0
30
0.0
3
$MODEL_SPACE
1

0
ENDBLK
5
21
330
28C
100
AcDbEntity
8
0
100
AcDbBlockEnd
0
BLOCK
5
28F
330
28E
100
AcDbEntity
8
0
100
AcDbBlockBegin
2
$PAPER_SPACE
70
0
10
0.0
20
0.0
30
0.0
3
$PAPER_SPACE
1

0
ENDBLK
5
5B
330
28E
100
AcDbEntity
8
0
100
AcDbBlockEnd
0
ENDSEC
0
SECTION
2
ENTITIES
0
LWPOLYLINE
5
1000
100
AcDbEntity
100
AcDbPolyline
90
3040
70
1
43
0
10
4.7125
20
0
10
4.7131581
20
0.0605567
10
4.7259381
20
0.0652211
10
4.7389947
20
0.070116
10
4.7523247
20
0.0752466
10
4.7659249
20
0.0806178
10
4.7797923
20
0.0862349
10
4.7939234
20
0.0921029
10
4.8083149
20
0.0982269
10
4.8229635
20
0.1046117
10
4.8378656
20
0.1112624
10
4.8530177
20
0.1181839
10
4.8684161
20
0.125381
10
4.8840573
20
0.1328585
10
4.8999375
20
0.1406211
10
4.9160527
20
0.1486738
10
4.9323993
20
0.157021
10
4.9489732
20
0.1656675
10
4.9657704
20
0.1746178
10
4.9827869
20
0.1838765
10
5.0000185
20
0.1934481
10
5.0174611
20
0.2033371
10
5.0351104
20
0.2135477
10
5.0529621
20
0.2240845
10
5.0710118
20
0.2349516
10
5.0892551
20
0.2461533
10
5.1076875
20
0.2576938
10
5.1263045
20
0.2695773
10
5.1451015
20
0.2818078
10
5.1640738
20
0.2943894
10
5.1832166
20
0.307326
10
5.2025253
20
0.3206216
10
5.2219949
20
0.3342801
10
5.2317886
20
0.3412465
10
5.2366999
20
0.3447643
10
5.2379292
20
0.3456473
10
5.238544
20
0.3460894
10
5.2385784
20
0.3461168
10
5.2304456
20
0.4527021
10
5.2304075
20
0.4527239
10
5.2297327
20
0.4530676
10
5.2283836
20
0.4537539
10
5.2229955
20
0.4564858
10
5.2122582
20
0.4618857
10
5.1909417
20
0.472432
10
5.1698393
20
0.4826441
10
5.1489553
20
0.4925266
10
5.1282937
20
0.502084
10
5.1078587
20
0.511321
10
5.0876543
20
0.5202423
10
5.0676843
20
0.5288526
10
5.0479526
20
0.5371567
10
5.0284631
20
0.5451594
10
5.0092194
20
0.5528657
10
4.9902252
20
0.5602803
10
4.9714842
20
0.5674083
10
4.9529998
20
0.5742547
10
4.9347756
20
0.5808244
10
4.9168148
20
0.5871226
10
4.899121
20
0.5931543
10
4.8816972
20
0.5989248
10
4.8645467
20
0.6044391
10
4.8476726
20
0.6097026
10
4.831078
20
0.6147204
10
4.8147659
20
0.6194978
10
4.798739
20
0.6240403
10
4.7830004
20
0.628353
10
4.7675527
20
0.6324414
10
4.7523986
20
0.6363109
10
4.7375408
20
0.639967
10
4.7229818
20
0.6434151
10
4.708724
20
0.6466607
10
4.6947699
20
0.6497093
10
4.6811219
20
0.6525666
10
4.667782
20
0.655238
10
4.6579438
20
0.7149938
10
4.6544813
20
0.7371974
10
4.6456581
20
0.7971115
10
4.6575512
20
0.8037178
10
4.6696812
20
0.8105949
10
4.6820445
20
0.8177475
10
4.6946371
20
0.8251802
10
4.707455
20
0.8328975
10
4.7204941
20
0.8409038
10
4.7337505
20
0.8492037
10
4.7472199
20
0.8578015
10
4.7608981
20
0.8667015
10
4.7747809
20
0.8759081
10
4.788864
20
0.8854254
10
4.8031428
20
0.8952576
10
4.8176131
20
0.905409
10
4.8322703
20
0.9158834
10
4.8471098
20
0.9266851
10
4.862127
20
0.9378178
10
4.8773173
20
0.9492856
10
4.8926759
20
0.9610923
10
4.908198
20
0.9732417
10
4.9238789
20
0.9857375
10
4.9397136
20
0.9985834
10
4.9556972
20
1.011783
10
4.9718247
20
1.0253399
10
4.9880911
20
1.0392576
10
5.0044912
20
1.0535395
10
5.02102
20
1.0681891
10
5.0376723
20
1.0832095
10
5.0544428
20
1.0986041
10
5.0713262
20
1.114376
10
5.0883173
20
1.1305285
10
5.1054106
20
1.1470645
10
5.1139939
20
1.1554773
10
5.1182944
20
1.15972
10
5.1193704
20
1.1607845
10
5.1199086
20
1.1613173
10
5.1199382
20
1.1613497
10
5.0952319
20
1.2653505
10
5.0951909
20
1.2653662
10
5.0944706
20
1.2656
10
5.0930308
20
1.2660668
10
5.0872816
20
1.2679222
10
5.0758318
20
1.2715759
10
5.0531279
20
1.2786578
10
5.0306878
20
1.285443
10
5.008515
20
1.2919368
10
4.9866127
20
1.2981444
10
4.9649843
20
1.3040709
10
4.943633
20
1.3097217
10
4.9225619
20
1.315102
10
4.9017741
20
1.3202172
10
4.8812726
20
1.3250725
10
4.8610603
20
1.3296735
10
4.8411401
20
1.3340255
10
4.8215147
20
1.338134
10
4.8021869
20
1.3420045
10
4.7831593
20
1.3456425
10
4.7644345
20
1.3490534
10
4.7460149
20
1.352243
10
4.7279029
20
1.3552167
10
4.710101
20
1.3579803
10
4.6926113
20
1.3605392
10
4.675436
20
1.3628993
10
4.6585773
20
1.3650661
10
4.6420372
20
1.3670455
10
4.6258177
20
1.368843
10
4.6099206
20
1.3704645
10
4.5943477
20
1.3719158
10
4.5791009
20
1.3732026
10
4.5641817
20
1.3743307
10
4.5495918
20
1.3753059
10
4.5353326
20
1.3761342
10
4.5214056
20
1.3768212
10
4.5078121
20
1.3773729
10
4.4887471
20
1.434854
10
4.4818538
20
1.4562426
10
4.4637666
20
1.5140388
10
4.4744798
20
1.5224242
10
4.4853847
20
1.5311142
10
4.4964769
20
1.5401128
10
4.5077517
20
1.5494239
10
4.5192045
20
1.5590513
10
4.5308307
20
1.5689989
10
4.5426254
20
1.5792703
10
4.554584
20
1.5898693
10
4.5667016
20
1.6007995
10
4.5789732
20
1.6120645
10
4.5913941
20
1.6236677
10
4.603959
20
1.6356126
10
4.6166631
20
1.6479026
10
4.6295013
20
1.660541
10
4.6424683
20
1.6735311
10
4.6555591
20
1.686876
10
4.6687684
20
1.7005789
10
4.6820909
20
1.7146428
10
4.6955214
20
1.7290708
10
4.7090545
20
1.7438658
10
4.7226847
20
1.7590306
10
4.7364066
20
1.7745681
10
4.7502148
20
1.790481
10
4.7641037
20
1.806772
10
4.7780677
20
1.8234436
10
4.7921014
20
1.8404985
10
4.8061989
20
1.8579389
10
4.8203547
20
1.8757675
10
4.834563
20
1.8939864
10
4.848818
20
1.912598
10
4.8631141
20
1.9316044
10
4.8702756
20
1.9412563
10
4.8738595
20
1.9461196
10
4.8747558
20
1.9473393
10
4.8752039
20
1.9479497
10
4.8752281
20
1.9479863
10
4.8345567
20
2.0468419
10
4.8345137
20
2.0468509
10
4.8337657
20
2.0469692
10
4.8322706
20
2.047205
10
4.826302
20
2.0481381
10
4.8144216
20
2.0499558
10
4.7908894
20
2.0533987
10
4.7676641
20
2.05659
10
4.7447484
20
2.0595353
10
4.7221447
20
2.0622402
10
4.6998555
20
2.0647103
10
4.6778831
20
2.0669514
10
4.6562297
20
2.0689692
10
4.6348977
20
2.0707695
10
4.613889
20
2.072358
10
4.5932058
20
2.0737404
10
4.5728501
20
2.0749226
10
4.5528236
20
2.0759105
10
4.5331283
20
2.0767098
10
4.5137659
20
2.0773263
10
4.4947379
20
2.0777661
10
4.4760461
20
2.0780349
10
4.457692
20
2.0781387
10
4.4396769
20
2.0780834
10
4.4220022
20
2.0778749
10
4.4046692
20
2.0775191
10
4.3876791
20
2.0770219
10
4.371033
20
2.0763895
10
4.3547319
20
2.0756276
10
4.3387769
20
2.0747423
10
4.3231688
20
2.0737396
10
4.3079084
20
2.0726254
10
4.2929964
20
2.0714057
10
4.2784335
20
2.0700866
10
4.2642203
20
2.068674
10
4.2503573
20
2.0671739
10
4.2368448
20
2.0655924
10
4.2090225
20
2.1193833
10
4.1988682
20
2.1394302
10
4.1719624
20
2.1936854
10
4.1812319
20
2.2036435
10
4.1906432
20
2.2139324
10
4.2001911
20
2.2245554
10
4.2098705
20
2.2355156
10
4.2196762
20
2.2468162
10
4.2296031
20
2.25846
10
4.2396459
20
2.2704501
10
4.2497992
20
2.2827893
10
4.2600577
20
2.2954806
10
4.270416
20
2.3085265
10
4.2808688
20
2.3219299
10
4.2914105
20
2.3356934
10
4.3020356
20
2.3498194
10
4.3127386
20
2.3643105
10
4.3235139
20
2.3791692
10
4.3343559
20
2.3943976
10
4.345259
20
2.4099982
10
4.3562174
20
2.4259731
10
4.3672255
20
2.4423245
10
4.3782775
20
2.4590543
10
4.3893676
20
2.4761647
10
4.40049
20
2.4936575
10
4.4116388
20
2.5115345
10
4.4228083
20
2.5297976
10
4.4339924
20
2.5484485
10
4.4451853
20
2.5674887
10
4.4563809
20
2.5869198
10
4.4675734
20
2.6067433
10
4.4787567
20
2.6269606
10
4.4899248
20
2.647573
10
4.5010716
20
2.6685818
10
4.5066351
20
2.6792352
10
4.509414
20
2.6845992
10
4.5101085
20
2.6859441
10
4.5104556
20
2.6866171
10
4.5104738
20
2.6866571
10
4.4548387
20
2.7779331
10
4.4547948
20
2.7779353
10
4.4540375
20
2.7779351
10
4.4525239
20
2.7779342
10
4.4464828
20
2.7779221
10
4.4344644
20
2.7778589
10
4.4106833
20
2.7775782
10
4.3872447
20
2.777097
10
4.3641504
20
2.7764212
10
4.3414018
20
2.7755567
10
4.3190006
20
2.7745097
10
4.2969481
20
2.773286
10
4.2752457
20
2.7718916
10
4.2538947
20
2.7703326
10
4.2328962
20
2.7686151
10
4.2122514
20
2.7667449
10
4.1919613
20
2.7647282
10
4.1720269
20
2.7625711
10
4.152449
20
2.7602795
10
4.1332285
20
2.7578596
10
4.114366
20
2.7553173
10
4.0958623
20
2.7526588
10
4.0777179
20
2.7498901
10
4.0599332
20
2.7470172
10
4.0425088
20
2.7440463
10
4.0254448
20
2.7409834
10
4.0087417
20
2.7378346
10
3.9923994
20
2.7346059
10
3.9764183
20
2.7313033
10
3.9607982
20
2.727933
10
3.9455391
20
2.724501
10
3.9306408
20
2.7210133
10
3.9161032
20
2.7174759
10
3.901926
20
2.7138949
10
3.8881088
20
2.7102762
10
3.8746511
20
2.7066259
10
3.8615524
20
2.7029501
10
3.8256579
20
2.7517264
10
3.8124926
20
2.769938
10
3.7774307
20
2.8193162
10
3.7850282
20
2.8306017
10
3.7927141
20
2.8422363
10
3.8004826
20
2.8542221
10
3.8083283
20
2.8665616
10
3.8162455
20
2.8792569
10
3.8242287
20
2.8923103
10
3.8322722
20
2.9057238
10
3.8403702
20
2.9194995
10
3.848517
20
2.9336392
10
3.856707
20
2.948145
10
3.8649343
20
2.9630185
10
3.8731931
20
2.9782616
10
3.8814776
20
2.9938759
10
3.889782
20
3.0098629
10
3.8981002
20
3.0262242
10
3.9064265
20
3.0429613
10
3.9147548
20
3.0600754
10
3.9230793
20
3.0775679
10
3.931394
20
3.09544
10
3.9396928
20
3.1136928
10
3.9479697
20
3.1323274
10
3.9562186
20
3.1513447
10
3.9644337
20
3.1707457
10
3.9726086
20
3.1905313
10
3.9807374
20
3.2107021
10
3.9888139
20
3.2312588
10
3.9968321
20
3.2522021
10
4.0047857
20
3.2735324
10
4.0126686
20
3.2952503
10
4.0204747
20
3.317356
10
4.0281977
20
3.3398498
10
4.0320262
20
3.3512424
10
4.0339318
20
3.3569751
10
4.0344073
20
3.3584121
10
4.0346449
20
3.3591311
10
4.0346566
20
3.3591734
10
3.9654277
20
3.4406225
10
3.9653841
20
3.4406178
10
3.9646361
20
3.4404991
10
3.9631413
20
3.4402614
10
3.9571765
20
3.4393045
10
3.9453159
20
3.4373619
10
3.9218715
20
3.4333645
10
3.8987968
20
3.4292226
10
3.8760925
20
3.4249423
10
3.8537592
20
3.4205299
10
3.8317976
20
3.4159914
10
3.810208
20
3.411333
10
3.788991
20
3.4065608
10
3.7681467
20
3.401681
10
3.7476754
20
3.3966997
10
3.7275773
20
3.391623
10
3.7078525
20
3.3864571
10
3.688501
20
3.381208
10
3.6695226
20
3.375882
10
3.6509173
20
3.3704851
10
3.6326848
20
3.3650234
10
3.6148247
20
3.359503
10
3.5973368
20
3.35393
10
3.5802205
20
3.3483104
10
3.5634754
20
3.3426502
10
3.5471006
20
3.3369557
10
3.5310957
20
3.3312327
10
3.5154598
20
3.3254872
10
3.500192
20
3.3197253
10
3.4852914
20
3.313953
10
3.4707571
20
3.3081762
10
3.4565879
20
3.3024008
10
3.4427826
20
3.2966328
10
3.4293401
20
3.290878
10
3.4162591
20
3.2851424
10
3.4035381
20
3.2794319
10
3.3911757
20
3.2737521
10
3.3480929
20
3.3163128
10
3.3322407
20
3.3322407
10
3.289886
20
3.3755261
10
3.2956246
20
3.3878612
10
3.3013958
20
3.4005548
10
3.3071937
20
3.4136084
10
3.3130124
20
3.4270232
10
3.3188462
20
3.4408008
10
3.3246891
20
3.4549423
10
3.3305352
20
3.469449
10
3.3363785
20
3.4843218
10
3.3422131
20
3.499562
10
3.3480331
20
3.5151703
10
3.3538323
20
3.5311478
10
3.3596049
20
3.5474952
10
3.3653448
20
3.5642132
10
3.371046
20
3.5813025
10
3.3767024
20
3.5987636
10
3.3823079
20
3.6165971
10
3.3878565
20
3.6348034
10
3.393342
20
3.6533827
10
3.3987585
20
3.6723355
10
3.4040997
20
3.6916618
10
3.4093596
20
3.7113617
10
3.4145321
20
3.7314354
10
3.419611
20
3.7518827
10
3.4245901
20
3.7727034
10
3.4294635
20
3.7938975
10
3.4342248
20
3.8154646
10
3.4388679
20
3.8374044
10
3.4433868
20
3.8597163
10
3.4477753
20
3.8823999
10
3.4520272
20
3.9054546
10
3.4561363
20
3.9288797
10
3.4581355
20
3.9407309
10
3.4591208
20
3.9466911
10
3.4593657
20
3.9481848
10
3.4594879
20
3.9489322
10
3.4594928
20
3.9489758
10
3.3783748
20
4.0185923
10
3.3783324
20
4.0185808
10
3.3776123
20
4.0183466
10
3.376173
20
4.017878
10
3.3704313
20
4.0159997
10
3.3590206
20
4.0122256
10
3.3364902
20
4.0046099
10
3.3143475
20
3.9969093
10
3.2925923
20
3.9891301
10
3.2712243
20
3.9812783
10
3.250243
20
3.9733601
10
3.229648
20
3.9653817
10
3.2094387
20
3.9573492
10
3.1896144
20
3.9492686
10
3.1701744
20
3.9411462
10
3.1511179
20
3.932988
10
3.1324441
20
3.9248001
10
3.1141519
20
3.9165884
10
3.0962404
20
3.9083591
10
3.0787084
20
3.9001181
10
3.0615548
20
3.8918715
10
3.0447782
20
3.8836251
10
3.0283774
20
3.875385
10
3.0123509
20
3.867157
10
2.9966974
20
3.858947
10
2.9814151
20
3.850761
10
2.9665025
20
3.8426047
10
2.9519578
20
3.834484
10
2.9377794
20
3.8264047
10
2.9239652
20
3.8183724
10
2.9105135
20
3.810393
10
2.8974222
20
3.8024722
10
2.8846893
20
3.7946156
10
2.8723125
20
3.7868288
10
2.8602898
20
3.7791175
10
2.8486188
20
3.7714873
10
2.8372971
20
3.7639436
10
2.7880867
20
3.7992406
10
2.769938
20
3.8124926
10
2.7213334
20
3.8486193
10
2.7250717
20
3.8617003
10
2.7287861
20
3.8751404
10
2.7324706
20
3.8889402
10
2.7361192
20
3.9031002
10
2.7397259
20
3.9176208
10
2.7432846
20
3.9325022
10
2.7467894
20
3.9477448
10
2.7502341
20
3.9633486
10
2.7536128
20
3.9793139
10
2.7569194
20
3.9956405
10
2.7601479
20
4.0123285
10
2.7632921
20
4.0293776
10
2.7663461
20
4.0467877
10
2.7693037
20
4.0645585
10
2.7721589
20
4.0826895
10
2.7749056
20
4.1011803
10
2.7775378
20
4.1200304
10
2.7800494
20
4.1392392
10
2.7824343
20
4.1588059
10
2.7846865
20
4.1787298
10
2.7867999
20
4.1990101
10
2.7887685
20
4.2196457
10
2.7905861
20
4.2406358
10
2.7922469
20
4.2619791
10
2.7937447
20
4.2836746
10
2.7950736
20
4.305721
10
2.7962275
20
4.328117
10
2.7972004
20
4.3508612
10
2.7979863
20
4.373952
10
2.7985793
20
4.397388
10
2.7989734
20
4.4211675
10
2.7990939
20
4.4331855
10
2.7991348
20
4.4392265
10
2.799143
20
4.4407401
10
2.7991467
20
4.4414974
10
2.7991448
20
4.4415412
10
2.7081351
20
4.497611
10
2.708095
20
4.497593
10
2.7074203
20
4.4972491
10
2.7060722
20
4.4965611
10
2.7006949
20
4.4938077
10
2.6900151
20
4.4882951
10
2.6689534
20
4.4772486
10
2.648288
20
4.4661789
10
2.6280176
20
4.4550922
10
2.608141
20
4.4439943
10
2.5886567
20
4.4328915
10
2.5695633
20
4.4217895
10
2.5508594
20
4.4106944
10
2.5325432
20
4.3996122
10
2.5146132
20
4.3885487
10
2.4970676
20
4.3775099
10
2.4799045
20
4.3665015
10
2.4631221
20
4.3555294
10
2.4467185
20
4.3445994
10
2.4306915
20
4.3337173
10
2.4150391
20
4.3228888
10
2.3997591
20
4.3121195
10
2.3848493
20
4.3014152
10
2.3703073
20
4.2907814
10
2.3561307
20
4.2802237
10
2.3423172
20
4.2697478
10
2.3288641
20
4.2593591
10
2.3157689
20
4.2490631
10
2.3030289
20
4.2388652
10
2.2906413
20
4.2287709
10
2.2786035
20
4.2187854
10
2.2669124
20
4.2089142
10
2.2555653
20
4.1991624
10
2.2445591
20
4.1895354
10
2.2338906
20
4.1800382
10
2.2235569
20
4.1706762
10
2.2135547
20
4.1614542
10
2.1594285
20
4.1886185
10
2.1394302
20
4.1988682
10
2.0857726
20
4.2269467
10
2.0874186
20
4.2404515
10
2.0889847
20
4.2543072
10
2.0904651
20
4.2685135
10
2.0918536
20
4.2830699
10
2.0931444
20
4.2979759
10
2.0943313
20
4.3132308
10
2.0954085
20
4.328834
10
2.0963699
20
4.3447846
10
2.0972094
20
4.3610819
10
2.0979213
20
4.3777248
10
2.0984994
20
4.3947123
10
2.0989379
20
4.4120434
10
2.0992307
20
4.4297169
10
2.0993719
20
4.4477315
10
2.0993557
20
4.466086
10
2.099176
20
4.4847789
10
2.098827
20
4.5038086
10
2.0983027
20
4.5231738
10
2.0975973
20
4.5428727
10
2.096705
20
4.5629037
10
2.0956199
20
4.5832648
10
2.0943361
20
4.6039544
10
2.0928478
20
4.6249704
10
2.0911493
20
4.6463107
10
2.0892348
20
4.6679735
10
2.0870984
20
4.6899563
10
2.0847346
20
4.7122571
10
2.0821376
20
4.7348734
10
2.0793016
20
4.7578029
10
2.0762211
20
4.7810431
10
2.0728904
20
4.8045915
10
2.0711294
20
4.8164804
10
2.0702248
20
4.8224534
10
2.0699961
20
4.8239497
10
2.0698813
20
4.8246982
10
2.0698725
20
4.8247412
10
1.9712121
20
4.8658836
10
1.9711753
20
4.8658596
10
1.9705628
20
4.8654143
10
1.9693388
20
4.8645239
10
1.9644585
20
4.8609632
10
1.9547726
20
4.8538478
10
1.9356982
20
4.8396425
10
1.9170189
20
4.8254764
10
1.8987324
20
4.8113551
10
1.8808365
20
4.7972845
10
1.863329
20
4.7832703
10
1.8462075
20
4.7693182
10
1.8294694
20
4.7554338
10
1.8131124
20
4.7416227
10
1.7971339
20
4.7278906
10
1.7815311
20
4.7142429
10
1.7663014
20
4.7006852
10
1.7514421
20
4.6872228
10
1.7369502
20
4.6738613
10
1.7228229
20
4.660606
10
1.7090572
20
4.6474622
10
1.69565
20
4.6344352
10
1.6825982
20
4.6215302
10
1.6698988
20
4.6087525
10
1.6575483
20
4.5961071
10
1.6455436
20
4.5835993
10
1.6338813
20
4.5712339
10
1.622558
20
4.5590161
10
1.6115701
20
4.5469508
10
1.6009142
20
4.5350429
10
1.5905867
20
4.5232973
10
1.5805838
20
4.5117187
10
1.5709018
20
4.5003119
10
1.5615371
20
4.4890816
10
1.5524857
20
4.4780325
10
1.5437438
20
4.4671692
10
1.5353073
20
4.4564961
10
1.4775981
20
4.4748587
10
1.4562426
20
4.4818538
10
1.3988531
20
4.5011927
10
1.3983662
20
4.5147887
10
1.3977456
20
4.5287188
10
1.3969854
20
4.5429818
10
1.3960797
20
4.5575762
10
1.3950227
20
4.5725006
10
1.3938087
20
4.5877534
10
1.3924317
20
4.603333
10
1.390886
20
4.6192376
10
1.3891658
20
4.6354656
10
1.3872654
20
4.6520149
10
1.3851789
20
4.6688837
10
1.3829008
20
4.6860701
10
1.3804253
20
4.7035718
10
1.3777467
20
4.7213867
10
1.3748593
20
4.7395126
10
1.3717577
20
4.7579473
10
1.368436
20
4.7766882
10
1.3648888
20
4.7957329
10
1.3611106
20
4.8150789
10
1.3570957
20
4.8347237
10
1.3528387
20
4.8546644
10
1.3483342
20
4.8748984
10
1.3435766
20
4.8954228
10
1.3385606
20
4.9162348
10
1.3332809
20
4.9373313
10
1.327732
20
4.9587093
10
1.3219087
20
4.9803657
10
1.3158056
20
5.0022973
10
1.3094176
20
5.0245009
10
1.3027394
20
5.0469731
10
1.295766
20
5.0697105
10
1.2921669
20
5.0811776
10
1.2903389
20
5.0869355
10
1.289879
20
5.0883776
10
1.2896486
20
5.089099
10
1.2896331
20
5.08914
10
1.1857513
20
5.114342
10
1.1857187
20
5.1143125
10
1.1851834
20
5.1137769
10
1.1841138
20
5.112706
10
1.1798506
20
5.1084257
10
1.171397
20
5.0998827
10
1.1547797
20
5.0828684
10
1.1385464
20
5.0659546
10
1.1226941
20
5.0491466
10
1.1072197
20
5.0324497
10
1.09212
20
5.0158692
10
1.0773918
20
4.9994105
10
1.0630319
20
4.9830786
10
1.0490368
20
4.9668788
10
1.0354031
20
4.9508161
10
1.0221274
20
4.9348956
10
1.0092062
20
4.9191223
10
0.9966357
20
4.9035012
10
0.9844125
20
4.8880372
10
0.9725327
20
4.8727351
10
0.9609926
20
4.8575997
10
0.9497883
20
4.8426357
10
0.9389161
20
4.8278479
10
0.9283718
20
4.8132408
10
0.9181516
20
4.7988191
10
0.9082514
20
4.7845873
10
0.898667
20
4.7705498
10
0.8893944
20
4.7567111
10
0.8804292
20
4.7430754
10
0.8717673
20
4.7296472
10
0.8634043
20
4.7164306
10
0.8553359
20
4.7034297
10
0.8475575
20
4.6906488
10
0.8400649
20
4.6780918
10
0.8328534
20
4.6657628
10
0.8259185
20
4.6536656
10
0.8192556
20
4.6418042
10
0.7593843
20
4.650913
10
0.7371974
20
4.6544813
10
0.6774892
20
4.6646044
10
0.6748815
20
4.6779568
10
0.6720893
20
4.6916184
10
0.6691072
20
4.7055868
10
0.6659296
20
4.7198599
10
0.662551
20
4.7344352
10
0.6589658
20
4.7493103
10
0.6551686
20
4.7644826
10
0.6511539
20
4.7799497
10
0.6469163
20
4.7957087
10
0.6424504
20
4.811757
10
0.6377508
20
4.8280918
10
0.6328121
20
4.8447101
10
0.6276292
20
4.8616091
10
0.6221967
20
4.8787857
10
0.6165094
20
4.8962368
10
0.6105621
20
4.9139592
10
0.6043496
20
4.9319498
10
0.5978669
20
4.9502051
10
0.5911087
20
4.9687219
10
0.5840702
20
4.9874967
10
0.5767462
20
5.006526
10
0.5691318
20
5.0258063
10
0.5612221
20
5.0453337
10
0.5530122
20
5.0651048
10
0.5444972
20
5.0851156
10
0.5356724
20
5.1053624
10
0.5265329
20
5.1258412
10
0.5170741
20
5.1465481
10
0.5072914
20
5.167479
10
0.49718
20
5.1886298
10
0.4867355
20
5.2099964
10
0.4813868
20
5.2207593
10
0.4786807
20
5.2261604
10
0.4780008
20
5.2275127
10
0.4776604
20
5.2281892
10
0.4776387
20
5.2282274
10
0.3710934
20
5.2368683
10
0.3710658
20
5.2368341
10
0.3706208
20
5.2362214
10
0.3697319
20
5.2349963
10
0.3661908
20
5.2301018
10
0.3591777
20
5.2203415
10
0.3454266
20
5.2009372
10
0.3320391
20
5.1816922
10
0.3190113
20
5.1626112
10
0.3063394
20
5.1436992
10
0.2940194
20
5.1249608
10
0.2820473
20
5.1064006
10
0.270419
20
5.0880234
10
0.2591304
20
5.0698337
10
0.2481773
20
5.0518361
10
0.2375556
20
5.0340348
10
0.2272609
20
5.0164344
10
0.2172889
20
4.9990392
10
0.2076352
20
4.9818534
10
0.1982955
20
4.9648812
10
0.1892652
20
4.9481269
10
0.1805397
20
4.9315944
10
0.1721146
20
4.9152879
10
0.1639853
20
4.8992112
10
0.1561469
20
4.8833682
10
0.1485949
20
4.8677629
10
0.1413245
20
4.8523989
10
0.1343309
20
4.83728
10
0.1276092
20
4.8224098
10
0.1211546
20
4.8077918
10
0.1149621
20
4.7934297
10
0.1090267
20
4.7793267
10
0.1033436
20
4.7654863
10
0.0979075
20
4.7519118
10
0.0927135
20
4.7386065
10
0.0877564
20
4.7255734
10
0.083031
20
4.7128157
10
0.0224719
20
4.7124464
10
0
20
4.7125
10
-0.0605567
20
4.7131581
10
-0.0652211
20
4.7259381
10
-0.070116
20
4.7389947
10
-0.0752466
20
4.7523247
10
-0.0806178
20
4.7659249
10
-0.0862349
20
4.7797923
10
-0.0921029
20
4.7939234
10
-0.0982269
20
4.8083149
10
-0.1046117
20
4.8229635
10
-0.1112624
20
4.8378656
10
-0.1181839
20
4.8530177
10
-0.125381
20
4.8684161
10
-0.1328585
20
4.8840573
10
-0.1406211
20
4.8999375
10
-0.1486738
20
4.9160527
10
-0.157021
20
4.9323993
10
-0.1656675
20
4.9489732
10
-0.1746178
20
4.9657704
10
-0.1838765
20
4.9827869
10
-0.1934481
20
5.0000185
10
-0.2033371
20
5.0174611
10
-0.2135477
20
5.0351104
10
-0.2240845
20
5.0529621
10
-0.2349516
20
5.0710118
10
-0.2461533
20
5.0892551
10
-0.2576938
20
5.1076875
10
-0.2695773
20
5.1263045
10
-0.2818078
20
5.1451015
10
-0.2943894
20
5.1640738
10
-0.307326
20
5.1832166
10
-0.3206216
20
5.2025253
10
-0.3342801
20
5.2219949
10
-0.3412465
20
5.2317886
10
-0.3447643
20
5.2366999
10
-0.3456473
20
5.2379292
10
-0.3460894
20
5.238544
10
-0.3461168
20
5.2385784
10
-0.4527021
20
5.2304456
10
-0.4527239
20
5.2304075
10
-0.4530676
20
5.2297327
10
-0.4537539
20
5.2283836
10
-0.4564858
20
5.2229955
10
-0.4618857
20
5.2122582
10
-0.472432
20
5.1909417
10
-0.4826441
20
5.1698393
10
-0.4925266
20
5.1489553
10
-0.502084
20
5.1282937
10
-0.511321
20
5.1078587
10
-0.5202423
20
5.0876543
10
-0.5288526
20
5.0676843
10
-0.5371567
20
5.0479526
10
-0.5451594
20
5.0284631
10
-0.5528657
20
5.0092194
10
-0.5602803
20
4.9902252
10
-0.5674083
20
4.9714842
10
-0.5742547
20
4.9529998
10
-0.5808244
20
4.9347756
10
-0.5871226
20
4.9168148
10
-0.5931543
20
4.899121
10
-0.5989248
20
4.8816972
10
-0.6044391
20
4.8645467
10
-0.6097026
20
4.8476726
10
-0.6147204
20
4.831078
10
-0.6194978
20
4.8147659
10
-0.6240403
20
4.798739
10
-0.628353
20
4.7830004
10
-0.6324414
20
4.7675527
10
-0.6363109
20
4.7523986
10
-0.639967
20
4.7375408
10
-0.6434151
20
4.7229818
10
-0.6466607
20
4.708724
10
-0.6497093
20
4.6947699
10
-0.6525666
20
4.6811219
10
-0.655238
20
4.667782
10
-0.7149938
20
4.6579438
10
-0.7371974
20
4.6544813
10
-0.7971115
20
4.6456581
10
-0.8037178
20
4.6575512
10
-0.8105949
20
4.6696812
10
-0.8177475
20
4.6820445
10
-0.8251802
20
4.6946371
10
-0.8328975
20
4.707455
10
-0.8409038
20
4.7204941
10
-0.8492037
20
4.7337505
10
-0.8578015
20
4.7472199
10
-0.8667015
20
4.7608981
10
-0.8759081
20
4.7747809
10
-0.8854254
20
4.788864
10
-0.8952576
20
4.8031428
10
-0.905409
20
4.8176131
10
-0.9158834
20
4.8322703
10
-0.9266851
20
4.8471098
10
-0.9378178
20
4.862127
10
-0.9492856
20
4.8773173
10
-0.9610923
20
4.8926759
10
-0.9732417
20
4.908198
10
-0.9857375
20
4.9238789
10
-0.9985834
20
4.9397136
10
-1.011783
20
4.9556972
10
-1.0253399
20
4.9718247
10
-1.0392576
20
4.9880911
10
-1.0535395
20
5.0044912
10
-1.0681891
20
5.02102
10
-1.0832095
20
5.0376723
10
-1.0986041
20
5.0544428
10
-1.114376
20
5.0713262
10
-1.1305285
20
5.0883173
10
-1.1470645
20
5.1054106
10
-1.1554773
20
5.1139939
10
-1.15972
20
5.1182944
10
-1.1607845
20
5.1193704
10
-1.1613173
20
5.1199086
10
-1.1613497
20
5.1199382
10
-1.2653505
20
5.0952319
10
-1.2653662
20
5.0951909
10
-1.2656
20
5.0944706
10
-1.2660668
20
5.0930308
10
-1.2679222
20
5.0872816
10
-1.2715759
20
5.0758318
10
-1.2786578
20
5.0531279
10
-1.285443
20
5.0306878
10
-1.2919368
20
5.008515
10
-1.2981444
20
4.9866127
10
-1.3040709
20
4.9649843
10
-1.3097217
20
4.943633
10
-1.315102
20
4.9225619
10
-1.3202172
20
4.9017741
10
-1.3250725
20
4.8812726
10
-1.3296735
20
4.8610603
10
-1.3340255
20
4.8411401
10
-1.338134
20
4.8215147
10
-1.3420045
20
4.8021869
10
-1.3456425
20
4.7831593
10
-1.3490534
20
4.7644345
10
-1.352243
20
4.7460149
10
-1.3552167
20
4.7279029
10
-1.3579803
20
4.710101
10
-1.3605392
20
4.6926113
10
-1.3628993
20
4.675436
10
-1.3650661
20
4.6585773
10
-1.3670455
20
4.6420372
10
-1.368843
20
4.6258177
10
-1.3704645
20
4.6099206
10
-1.3719158
20
4.5943477
10
-1.3732026
20
4.5791009
10
-1.3743307
20
4.5641817
10
-1.3753059
20
4.5495918
10
-1.3761342
20
4.5353326
10
-1.3768212
20
4.5214056
10
-1.3773729
20
4.5078121
10
-1.434854
20
4.4887471
10
-1.4562426
20
4.4818538
10
-1.5140388
20
4.4637666
10
-1.5224242
20
4.4744798
10
-1.5311142
20
4.4853847
10
-1.5401128
20
4.4964769
10
-1.5494239
20
4.5077517
10
-1.5590513
20
4.5192045
10
-1.5689989
20
4.5308307
10
-1.5792703
20
4.5426254
10
-1.5898693
20
4.554584
10
-1.6007995
20
4.5667016
10
-1.6120645
20
4.5789732
10
-1.6236677
20
4.5913941
10
-1.6356126
20
4.603959
10
-1.6479026
20
4.6166631
10
-1.660541
20
4.6295013
10
-1.6735311
20
4.6424683
10
-1.686876
20
4.6555591
10
-1.7005789
20
4.6687684
10
-1.7146428
20
4.6820909
10
-1.7290708
20
4.6955214
10
-1.7438658
20
4.7090545
10
-1.7590306
20
4.7226847
10
-1.7745681
20
4.7364066
10
-1.790481
20
4.7502148
10
-1.806772
20
4.7641037
10
-1.8234436
20
4.7780677
10
-1.8404985
20
4.7921014
10
-1.8579389
20
4.8061989
10
-1.8757675
20
4.8203547
10
-1.8939864
20
4.834563
10
-1.912598
20
4.848818
10
-1.9316044
20
4.8631141
10
-1.9412563
20
4.8702756
10
-1.9461196
20
4.8738595
10
-1.9473393
20
4.8747558
10
-1.9479497
20
4.8752039
10
-1.9479863
20
4.8752281
10
-2.0468419
20
4.8345567
10
-2.0468509
20
4.8345137
10
-2.0469692
20
4.8337657
10
-2.047205
20
4.8322706
10
-2.0481381
20
4.826302
10
-2.0499558
20
4.8144216
10
-2.0533987
20
4.7908894
10
-2.05659
20
4.7676641
10
-2.0595353
20
4.7447484
10
-2.0622402
20
4.7221447
10
-2.0647103
20
4.6998555
10
-2.0669514
20
4.6778831
10
-2.0689692
20
4.6562297
10
-2.0707695
20
4.6348977
10
-2.072358
20
4.613889
10
-2.0737404
20
4.5932058
10
-2.0749226
20
4.5728501
10
-2.0759105
20
4.5528236
10
-2.0767098
20
4.5331283
10
-2.0773263
20
4.5137659
10
-2.0777661
20
4.4947379
10
-2.0780349
20
4.4760461
10
-2.0781387
20
4.457692
10
-2.0780834
20
4.4396769
10
-2.0778749
20
4.4220022
10
-2.0775191
20
4.4046692
10
-2.0770219
20
4.3876791
10
-2.0763895
20
4.371033
10
-2.0756276
20
4.3547319
10
-2.0747423
20
4.3387769
10
-2.0737396
20
4.3231688
10
-2.0726254
20
4.3079084
10
-2.0714057
20
4.2929964
10
-2.0700866
20
4.2784335
10
-2.068674
20
4.2642203
10
-2.0671739
20
4.2503573
10
-2.0655924
20
4.2368448
10
-2.1193833
20
4.2090225
10
-2.1394302
20
4.1988682
10
-2.1936854
20
4.1719624
10
-2.2036435
20
4.1812319
10
-2.2139324
20
4.1906432
10
-2.2245554
20
4.2001911
10
-2.2355156
20
4.2098705
10
-2.2468162
20
4.2196762
10
-2.25846
20
4.2296031
10
-2.2704501
20
4.2396459
10
-2.2827893
20
4.2497992
10
-2.2954806
20
4.2600577
10
-2.3085265
20
4.270416
10
-2.3219299
20
4.2808688
10
-2.3356934
20
4.2914105
10
-2.3498194
20
4.3020356
10
-2.3643105
20
4.3127386
10
-2.3791692
20
4.3235139
10
-2.3943976
20
4.3343559
10
-2.4099982
20
4.345259
10
-2.4259731
20
4.3562174
10
-2.4423245
20
4.3672255
10
-2.4590543
20
4.3782775
10
-2.4761647
20
4.3893676
10
-2.4936575
20
4.40049
10
-2.5115345
20
4.4116388
10
-2.5297976
20
4.4228083
10
-2.5484485
20
4.4339924
10
-2.5674887
20
4.4451853
10
-2.5869198
20
4.4563809
10
-2.6067433
20
4.4675734
10
-2.6269606
20
4.4787567
10
-2.647573
20
4.4899248
10
-2.6685818
20
4.5010716
10
-2.6792352
20
4.5066351
10
-2.6845992
20
4.509414
10
-2.6859441
20
4.5101085
10
-2.6866171
20
4.5104556
10
-2.6866571
20
4.5104738
10
-2.7779331
20
4.4548387
10
-2.7779353
20
4.4547948
10
-2.7779351
20
4.4540375
10
-2.7779342
20
4.4525239
10
-2.7779221
20
4.4464828
10
-2.7778589
20
4.4344644
10
-2.7775782
20
4.4106833
10
-2.777097
20
4.3872447
10
-2.7764212
20
4.3641504
10
-2.7755567
20
4.3414018
10
-2.7745097
20
4.3190006
10
-2.773286
20
4.2969481
10
-2.7718916
20
4.2752457
10
-2.7703326
20
4.2538947
10
-2.7686151
20
4.2328962
10
-2.7667449
20
4.2122514
10
-2.7647282
20
4.1919613
10
-2.7625711
20
4.1720269
10
-2.7602795
20
4.152449
10
-2.7578596
20
4.1332285
10
-2.7553173
20
4.114366
10
-2.7526588
20
4.0958623
10
-2.7498901
20
4.0777179
10
-2.7470172
20
4.0599332
10
-2.7440463
20
4.0425088
10
-2.7409834
20
4.0254448
10
-2.7378346
20
4.0087417
10
-2.7346059
20
3.9923994
10
-2.7313033
20
3.9764183
10
-2.727933
20
3.9607982
10
-2.724501
20
3.9455391
10
-2.7210133
20
3.9306408
10
-2.7174759
20
3.9161032
10
-2.7138949
20
3.901926
10
-2.7102762
20
3.8881088
10
-2.7066259
20
3.8746511
10
-2.7029501
20
3.8615524
10
-2.7517264
20
3.8256579
10
-2.769938
20
3.8124926
10
-2.8193162
20
3.7774307
10
-2.8306017
20
3.7850282
10
-2.8422363
20
3.7927141
10
-2.8542221
20
3.8004826
10
-2.8665616
20
3.8083283
10
-2.8792569
20
3.8162455
10
-2.8923103
20
3.8242287
10
-2.9057238
20
3.8322722
10
-2.9194995
20
3.8403702
10
-2.9336392
20
3.848517
10
-2.948145
20
3.856707
10
-2.9630185
20
3.8649343
10
-2.9782616
20
3.8731931
10
-2.9938759
20
3.8814776
10
-3.0098629
20
3.889782
10
-3.0262242
20
3.8981002
10
-3.0429613
20
3.9064265
10
-3.0600754
20
3.9147548
10
-3.0775679
20
3.9230793
10
-3.09544
20
3.931394
10
-3.1136928
20
3.9396928
10
-3.1323274
20
3.9479697
10
-3.1513447
20
3.9562186
10
-3.1707457
20
3.9644337
10
-3.1905313
20
3.9726086
10
-3.2107021
20
3.9807374
10
-3.2312588
20
3.9888139
10
-3.2522021
20
3.9968321
10
-3.2735324
20
4.0047857
10
-3.2952503
20
4.0126686
10
-3.317356
20
4.0204747
10
-3.3398498
20
4.0281977
10
-3.3512424
20
4.0320262
10
-3.3569751
20
4.0339318
10
-3.3584121
20
4.0344073
10
-3.3591311
20
4.0346449
10
-3.3591734
20
4.0346566
10
-3.4406225
20
3.9654277
10
-3.4406178
20
3.9653841
10
-3.4404991
20
3.9646361
10
-3.4402614
20
3.9631413
10
-3.4393045
20
3.9571765
10
-3.4373619
20
3.9453159
10
-3.4333645
20
3.9218715
10
-3.4292226
20
3.8987968
10
-3.4249423
20
3.8760925
10
-3.4205299
20
3.8537592
10
-3.4159914
20
3.8317976
10
-3.411333
20
3.810208
10
-3.4065608
20
3.788991
10
-3.401681
20
3.7681467
10
-3.3966997
20
3.7476754
10
-3.391623
20
3.7275773
10
-3.3864571
20
3.7078525
10
-3.381208
20
3.688501
10
-3.375882
20
3.6695226
10
-3.3704851
20
3.6509173
10
-3.3650234
20
3.6326848
10
-3.359503
20
3.6148247
10
-3.35393
20
3.5973368
10
-3.3483104
20
3.5802205
10
-3.3426502
20
3.5634754
10
-3.3369557
20
3.5471006
10
-3.3312327
20
3.5310957
10
-3.3254872
20
3.5154598
10
-3.3197253
20
3.500192
10
-3.313953
20
3.4852914
10
-3.3081762
20
3.4707571
10
-3.3024008
20
3.4565879
10
-3.2966328
20
3.4427826
10
-3.290878
20
3.4293401
10
-3.2851424
20
3.4162591
10
-3.2794319
20
3.4035381
10
-3.2737521
20
3.3911757
10
-3.3163128
20
3.3480929
10
-3.3322407
20
3.3322407
10
-3.3755261
20
3.289886
10
-3.3878612
20
3.2956246
10
-3.4005548
20
3.3013958
10
-3.4136084
20
3.3071937
10
-3.4270232
20
3.3130124
10
-3.4408008
20
3.3188462
10
-3.4549423
20
3.3246891
10
-3.469449
20
3.3305352
10
-3.4843218
20
3.3363785
10
-3.499562
20
3.3422131
10
-3.5151703
20
3.3480331
10
-3.5311478
20
3.3538323
10
-3.5474952
20
3.3596049
10
-3.5642132
20
3.3653448
10
-3.5813025
20
3.371046
10
-3.5987636
20
3.3767024
10
-3.6165971
20
3.3823079
10
-3.6348034
20
3.3878565
10
-3.6533827
20
3.393342
10
-3.6723355
20
3.3987585
10
-3.6916618
20
3.4040997
10
-3.7113617
20
3.4093596
10
-3.7314354
20
3.4145321
10
-3.7518827
20
3.419611
10
-3.7727034
20
3.4245901
10
-3.7938975
20
3.4294635
10
-3.8154646
20
3.4342248
10
-3.8374044
20
3.4388679
10
-3.8597163
20
3.4433868
10
-3.8823999
20
3.4477753
10
-3.9054546
20
3.4520272
10
-3.9288797
20
3.4561363
10
-3.9407309
20
3.4581355
10
-3.9466911
20
3.4591208
10
-3.9481848
20
3.4593657
10
-3.9489322
20
3.4594879
10
-3.9489758
20
3.4594928
10
-4.0185923
20
3.3783748
10
-4.0185808
20
3.3783324
10
-4.0183466
20
3.3776123
10
-4.017878
20
3.376173
10
-4.0159997
20
3.3704313
10
-4.0122256
20
3.3590206
10
-4.0046099
20
3.3364902
10
-3.9969093
20
3.3143475
10
-3.9891301
20
3.2925923
10
-3.9812783
20
3.2712243
10
-3.9733601
20
3.250243
10
-3.9653817
20
3.229648
10
-3.9573492
20
3.2094387
10
-3.9492686
20
3.1896144
10
-3.9411462
20
3.1701744
10
-3.932988
20
3.1511179
10
-3.9248001
20
3.1324441
10
-3.9165884
20
3.1141519
10
-3.9083591
20
3.0962404
10
-3.9001181
20
3.0787084
10
-3.8918715
20
3.0615548
10
-3.8836251
20
3.0447782
10
-3.875385
20
3.0283774
10
-3.867157
20
3.0123509
10
-3.858947
20
2.9966974
10
-3.850761
20
2.9814151
10
-3.8426047
20
2.9665025
10
-3.834484
20
2.9519578
10
-3.8264047
20
2.9377794
10
-3.8183724
20
2.9239652
10
-3.810393
20
2.9105135
10
-3.8024722
20
2.8974222
10
-3.7946156
20
2.8846893
10
-3.7868288
20
2.8723125
10
-3.7791175
20
2.8602898
10
-3.7714873
20
2.8486188
10
-3.7639436
20
2.8372971
10
-3.7992406
20
2.7880867
10
-3.8124926
20
2.769938
10
-3.8486193
20
2.7213334
10
-3.8617003
20
2.7250717
10
-3.8751404
20
2.7287861
10
-3.8889402
20
2.7324706
10
-3.9031002
20
2.7361192
10
-3.9176208
20
2.7397259
10
-3.9325022
20
2.7432846
10
-3.9477448
20
2.7467894
10
-3.9633486
20
2.7502341
10
-3.9793139
20
2.7536128
10
-3.9956405
20
2.7569194
10
-4.0123285
20
2.7601479
10
-4.0293776
20
2.7632921
10
-4.0467877
20
2.7663461
10
-4.0645585
20
2.7693037
10
-4.0826895
20
2.7721589
10
-4.1011803
20
2.7749056
10
-4.1200304
20
2.7775378
10
-4.1392392
20
2.7800494
10
-4.1588059
20
2.7824343
10
-4.1787298
20
2.7846865
10
-4.1990101
20
2.7867999
10
-4.2196457
20
2.7887685
10
-4.2406358
20
2.7905861
10
-4.2619791
20
2.7922469
10
-4.2836746
20
2.7937447
10
-4.305721
20
2.7950736
10
-4.328117
20
2.7962275
10
-4.3508612
20
2.7972004
10
-4.373952
20
2.7979863
10
-4.397388
20
2.7985793
10
-4.4211675
20
2.7989734
10
-4.4331855
20
2.7990939
10
-4.4392265
20
2.7991348
10
-4.4407401
20
2.799143
10
-4.4414974
20
2.7991467
10
-4.4415412
20
2.7991448
10
-4.497611
20
2.7081351
10
-4.497593
20
2.708095
10
-4.4972491
20
2.7074203
10
-4.4965611
20
2.7060722
10
-4.4938077
20
2.7006949
10
-4.4882951
20
2.6900151
10
-4.4772486
20
2.6689534
10
-4.4661789
20
2.648288
10
-4.4550922
20
2.6280176
10
-4.4439943
20
2.608141
10
-4.4328915
20
2.5886567
10
-4.4217895
20
2.5695633
10
-4.4106944
20
2.5508594
10
-4.3996122
20
2.5325432
10
-4.3885487
20
2.5146132
10
-4.3775099
20
2.4970676
10
-4.3665015
20
2.4799045
10
-4.3555294
20
2.4631221
10
-4.3445994
20
2.4467185
10
-4.3337173
20
2.4306915
10
-4.3228888
20
2.4150391
10
-4.3121195
20
2.3997591
10
-4.3014152
20
2.3848493
10
-4.2907814
20
2.3703073
10
-4.2802237
20
2.3561307
10
-4.2697478
20
2.3423172
10
-4.2593591
20
2.3288641
10
-4.2490631
20
2.3157689
10
-4.2388652
20
2.3030289
10
-4.2287709
20
2.2906413
10
-4.2187854
20
2.2786035
10
-4.2089142
20
2.2669124
10
-4.1991624
20
2.2555653
10
-4.1895354
20
2.2445591
10
-4.1800382
20
2.2338906
10
-4.1706762
20
2.2235569
10
-4.1614542
20
2.2135547
10
-4.1886185
20
2.1594285
10
-4.1988682
20
2.1394302
10
-4.2269467
20
2.0857726
10
-4.2404515
20
2.0874186
10
-4.2543072
20
2.0889847
10
-4.2685135
20
2.0904651
10
-4.2830699
20
2.0918536
10
-4.2979759
20
2.0931444
10
-4.3132308
20
2.0943313
10
-4.328834
20
2.0954085
10
-4.3447846
20
2.0963699
10
-4.3610819
20
2.0972094
10
-4.3777248
20
2.0979213
10
-4.3947123
20
2.0984994
10
-4.4120434
20
2.0989379
10
-4.4297169
20
2.0992307
10
-4.4477315
20
2.0993719
10
-4.466086
20
2.0993557
10
-4.4847789
20
2.099176
10
-4.5038086
20
2.098827
10
-4.5231738
20
2.0983027
10
-4.5428727
20
2.0975973
10
-4.5629037
20
2.096705
10
-4.5832648
20
2.0956199
10
-4.6039544
20
2.0943361
10
-4.6249704
20
2.0928478
10
-4.6463107
20
2.0911493
10
-4.6679735
20
2.0892348
10
-4.6899563
20
2.0870984
10
-4.7122571
20
2.0847346
10
-4.7348734
20
2.0821376
10
-4.7578029
20
2.0793016
10
-4.7810431
20
2.0762211
10
-4.8045915
20
2.0728904
10
-4.8164804
20
2.0711294
10
-4.8224534
20
2.0702248
10
-4.8239497
20
2.0699961
10
-4.8246982
20
2.0698813
10
-4.8247412
20
2.0698725
10
-4.8658836
20
1.9712121
10
-4.8658596
20
1.9711753
10
-4.8654143
20
1.9705628
10
-4.8645239
20
1.9693388
10
-4.8609632
20
1.9644585
10
-4.8538478
20
1.9547726
10
-4.8396425
20
1.9356982
10
-4.8254764
20
1.9170189
10
-4.8113551
20
1.8987324
10
-4.7972845
20
1.8808365
10
-4.7832703
20
1.863329
10
-4.7693182
20
1.8462075
10
-4.7554338
20
1.8294694
10
-4.7416227
20
1.8131124
10
-4.7278906
20
1.7971339
10
-4.7142429
20
1.7815311
10
-4.7006852
20
1.7663014
10
-4.6872228
20
1.7514421
10
-4.6738613
20
1.7369502
10
-4.660606
20
1.7228229
10
-4.6474622
20
1.7090572
10
-4.6344352
20
1.69565
10
-4.6215302
20
1.6825982
10
-4.6087525
20
1.6698988
10
-4.5961071
20
1.6575483
10
-4.5835993
20
1.6455436
10
-4.5712339
20
1.6338813
10
-4.5590161
20
1.622558
10
-4.5469508
20
1.6115701
10
-4.5350429
20
1.6009142
10
-4.5232973
20
1.5905867
10
-4.5117187
20
1.5805838
10
-4.5003119
20
1.5709018
10
-4.4890816
20
1.5615371
10
-4.4780325
20
1.5524857
10
-4.4671692
20
1.5437438
10
-4.4564961
20
1.5353073
10
-4.4748587
20
1.4775981
10
-4.4818538
20
1.4562426
10
-4.5011927
20
1.3988531
10
-4.5147887
20
1.3983662
10
-4.5287188
20
1.3977456
10
-4.5429818
20
1.3969854
10
-4.5575762
20
1.3960797
10
-4.5725006
20
1.3950227
10
-4.5877534
20
1.3938087
10
-4.603333
20
1.3924317
10
-4.6192376
20
1.390886
10
-4.6354656
20
1.3891658
10
-4.6520149
20
1.3872654
10
-4.6688837
20
1.3851789
10
-4.6860701
20
1.3829008
10
-4.7035718
20
1.3804253
10
-4.7213867
20
1.3777467
10
-4.7395126
20
1.3748593
10
-4.7579473
20
1.3717577
10
-4.7766882
20
1.368436
10
-4.7957329
20
1.3648888
10
-4.8150789
20
1.3611106
10
-4.8347237
20
1.3570957
10
-4.8546644
20
1.3528387
10
-4.8748984
20
1.3483342
10
-4.8954228
20
1.3435766
10
-4.9162348
20
1.3385606
10
-4.9373313
20
1.3332809
10
-4.9587093
20
1.327732
10
-4.9803657
20
1.3219087
10
-5.0022973
20
1.3158056
10
-5.0245009
20
1.3094176
10
-5.0469731
20
1.3027394
10
-5.0697105
20
1.295766
10
-5.0811776
20
1.2921669
10
-5.0869355
20
1.2903389
10
-5.0883776
20
1.289879
10
-5.089099
20
1.2896486
10
-5.08914
20
1.2896331
10
-5.114342
20
1.1857513
10
-5.1143125
20
1.1857187
10
-5.1137769
20
1.1851834
10
-5.112706
20
1.1841138
10
-5.1084257
20
1.1798506
10
-5.0998827
20
1.171397
10
-5.0828684
20
1.1547797
10
-5.0659546
20
1.1385464
10
-5.0491466
20
1.1226941
10
-5.0324497
20
1.1072197
10
-5.0158692
20
1.09212
10
-4.9994105
20
1.0773918
10
-4.9830786
20
1.0630319
10
-4.9668788
20
1.0490368
10
-4.9508161
20
1.0354031
10
-4.9348956
20
1.0221274
10
-4.9191223
20
1.0092062
10
-4.9035012
20
0.9966357
10
-4.8880372
20
0.9844125
10
-4.8727351
20
0.9725327
10
-4.8575997
20
0.9609926
10
-4.8426357
20
0.9497883
10
-4.8278479
20
0.9389161
10
-4.8132408
20
0.9283718
10
-4.7988191
20
0.9181516
10
-4.7845873
20
0.9082514
10
-4.7705498
20
0.898667
10
-4.7567111
20
0.8893944
10
-4.7430754
20
0.8804292
10
-4.7296472
20
0.8717673
10
-4.7164306
20
0.8634043
10
-4.7034297
20
0.8553359
10
-4.6906488
20
0.8475575
10
-4.6780918
20
0.8400649
10
-4.6657628
20
0.8328534
10
-4.6536656
20
0.8259185
10
-4.6418042
20
0.8192556
10
-4.650913
20
0.7593843
10
-4.6544813
20
0.7371974
10
-4.6646044
20
0.6774892
10
-4.6779568
20
0.6748815
10
-4.6916184
20
0.6720893
10
-4.7055868
20
0.6691072
10
-4.7198599
20
0.6659296
10
-4.7344352
20
0.662551
10
-4.7493103
20
0.6589658
10
-4.7644826
20
0.6551686
10
-4.7799497
20
0.6511539
10
-4.7957087
20
0.6469163
10
-4.811757
20
0.6424504
10
-4.8280918
20
0.6377508
10
-4.8447101
20
0.6328121
10
-4.8616091
20
0.6276292
10
-4.8787857
20
0.6221967
10
-4.8962368
20
0.6165094
10
-4.9139592
20
0.6105621
10
-4.9319498
20
0.6043496
10
-4.9502051
20
0.5978669
10
-4.9687219
20
0.5911087
10
-4.9874967
20
0.5840702
10
-5.006526
20
0.5767462
10
-5.0258063
20
0.5691318
10
-5.0453337
20
0.5612221
10
-5.0651048
20
0.5530122
10
-5.0851156
20
0.5444972
10
-5.1053624
20
0.5356724
10
-5.1258412
20
0.5265329
10
-5.1465481
20
0.5170741
10
-5.167479
20
0.5072914
10
-5.1886298
20
0.49718
10
-5.2099964
20
0.4867355
10
-5.2207593
20
0.4813868
10
-5.2261604
20
0.4786807
10
-5.2275127
20
0.4780008
10
-5.2281892
20
0.4776604
10
-5.2282274
20
0.4776387
10
-5.2368683
20
0.3710934
10
-5.2368341
20
0.3710658
10
-5.2362214
20
0.3706208
10
-5.2349963
20
0.3697319
10
-5.2301018
20
0.3661908
10
-5.2203415
20
0.3591777
10
-5.2009372
20
0.3454266
10
-5.1816922
20
0.3320391
10
-5.1626112
20
0.3190113
10
-5.1436992
20
0.3063394
10
-5.1249608
20
0.2940194
10
-5.1064006
20
0.2820473
10
-5.0880234
20
0.270419
10
-5.0698337
20
0.2591304
10
-5.0518361
20
0.2481773
10
-5.0340348
20
0.2375556
10
-5.0164344
20
0.2272609
10
-4.9990392
20
0.2172889
10
-4.9818534
20
0.2076352
10
-4.9648812
20
0.1982955
10
-4.9481269
20
0.1892652
10
-4.9315944
20
0.1805397
10
-4.9152879
20
0.1721146
10
-4.8992112
20
0.1639853
10
-4.8833682
20
0.1561469
10
-4.8677629
20
0.1485949
10
-4.8523989
20
0.1413245
10
-4.83728
20
0.1343309
10
-4.8224098
20
0.1276092
10
-4.8077918
20
0.1211546
10
-4.7934297
20
0.1149621
10
-4.7793267
20
0.1090267
10
-4.7654863
20
0.1033436
10
-4.7519118
20
0.0979075
10
-4.7386065
20
0.0927135
10
-4.7255734
20
0.0877564
10
-4.7128157
20
0.083031
10
-4.7124464
20
0.0224719
10
-4.7125
20
0
10
-4.7131581
20
-0.0605567
10
-4.7259381
20
-0.0652211
10
-4.7389947
20
-0.070116
10
-4.7523247
20
-0.0752466
10
-4.7659249
20
-0.0806178
10
-4.7797923
20
-0.0862349
10
-4.7939234
20
-0.0921029
10
-4.8083149
20
-0.0982269
10
-4.8229635
20
-0.1046117
10
-4.8378656
20
-0.1112624
10
-4.8530177
20
-0.1181839
10
-4.8684161
20
-0.125381
10
-4.8840573
20
-0.1328585
10
-4.8999375
20
-0.1406211
10
-4.9160527
20
-0.1486738
10
-4.9323993
20
-0.157021
10
-4.9489732
20
-0.1656675
10
-4.9657704
20
-0.1746178
10
-4.9827869
20
-0.1838765
10
-5.0000185
20
-0.1934481
10
-5.0174611
20
-0.2033371
10
-5.0351104
20
-0.2135477
10
-5.0529621
20
-0.2240845
10
-5.0710118
20
-0.2349516
10
-5.0892551
20
-0.2461533
10
-5.1076875
20
-0.2576938
10
-5.1263045
20
-0.2695773
10
-5.1451015
20
-0.2818078
10
-5.1640738
20
-0.2943894
10
-5.1832166
20
-0.307326
10
-5.2025253
20
-0.3206216
10
-5.2219949
20
-0.3342801
10
-5.2317886
20
-0.3412465
10
-5.2366999
20
-0.3447643
10
-5.2379292
20
-0.3456473
10
-5.238544
20
-0.3460894
10
-5.2385784
20
-0.3461168
10
-5.2304456
20
-0.4527021
10
-5.2304075
20
-0.4527239
10
-5.2297327
20
-0.4530676
10
-5.2283836
20
-0.4537539
10
-5.2229955
20
-0.4564858
10
-5.2122582
20
-0.4618857
10
-5.1909417
20
-0.472432
10
-5.1698393
20
-0.4826441
10
-5.1489553
20
-0.4925266
10
-5.1282937
20
-0.502084
10
-5.1078587
20
-0.511321
10
-5.0876543
20
-0.5202423
10
-5.0676843
20
-0.5288526
10
-5.0479526
20
-0.5371567
10
-5.0284631
20
-0.5451594
10
-5.0092194
20
-0.5528657
10
-4.9902252
20
-0.5602803
10
-4.9714842
20
-0.5674083
10
-4.9529998
20
-0.5742547
10
-4.9347756
20
-0.5808244
10
-4.9168148
20
-0.5871226
10
-4.899121
20
-0.5931543
10
-4.8816972
20
-0.5989248
10
-4.8645467
20
-0.6044391
10
-4.8476726
20
-0.6097026
10
-4.831078
20
-0.6147204
10
-4.8147659
20
-0.6194978
10
-4.798739
20
-0.6240403
10
-4.7830004
20
-0.628353
10
-4.7675527
20
-0.6324414
10
-4.7523986
20
-0.6363109
10
-4.7375408
20
-0.639967
10
-4.7229818
20
-0.6434151
10
-4.708724
20
-0.6466607
10
-4.6947699
20
-0.6497093
10
-4.6811219
20
-0.6525666
10
-4.667782
20
-0.655238
10
-4.6579438
20
-0.7149938
10
-4.6544813
20
-0.7371974
10
-4.6456581
20
-0.7971115
10
-4.6575512
20
-0.8037178
10
-4.6696812
20
-0.8105949
10
-4.6820445
20
-0.8177475
10
-4.6946371
20
-0.8251802
10
-4.707455
20
-0.8328975
10
-4.7204941
20
-0.8409038
10
-4.7337505
20
-0.8492037
10
-4.7472199
20
-0.8578015
10
-4.7608981
20
-0.8667015
10
-4.7747809
20
-0.8759081
10
-4.788864
20
-0.8854254
10
-4.8031428
20
-0.8952576
10
-4.8176131
20
-0.905409
10
-4.8322703
20
-0.9158834
10
-4.8471098
20
-0.9266851
10
-4.862127
20
-0.9378178
10
-4.8773173
20
-0.9492856
10
-4.8926759
20
-0.9610923
10
-4.908198
20
-0.9732417
10
-4.9238789
20
-0.9857375
10
-4.9397136
20
-0.9985834
10
-4.9556972
20
-1.011783
10
-4.9718247
20
-1.0253399
10
-4.9880911
20
-1.0392576
10
-5.0044912
20
-1.0535395
10
-5.02102
20
-1.0681891
10
-5.0376723
20
-1.0832095
10
-5.0544428
20
-1.0986041
10
-5.0713262
20
-1.114376
10
-5.0883173
20
-1.1305285
10
-5.1054106
20
-1.1470645
10
-5.1139939
20
-1.1554773
10
-5.1182944
20
-1.15972
10
-5.1193704
20
-1.1607845
10
-5.1199086
20
-1.1613173
10
-5.1199382
20
-1.1613497
10
-5.0952319
20
-1.2653505
10
-5.0951909
20
-1.2653662
10
-5.0944706
20
-1.2656
10
-5.0930308
20
-1.2660668
10
-5.0872816
20
-1.2679222
10
-5.0758318
20
-1.2715759
10
-5.0531279
20
-1.2786578
10
-5.0306878
20
-1.285443
10
-5.008515
20
-1.2919368
10
-4.9866127
20
-1.2981444
10
-4.9649843
20
-1.3040709
10
-4.943633
20
-1.3097217
10
-4.9225619
20
-1.315102
10
-4.9017741
20
-1.3202172
10
-4.8812726
20
-1.3250725
10
-4.8610603
20
-1.3296735
10
-4.8411401
20
-1.3340255
10
-4.8215147
20
-1.338134
10
-4.8021869
20
-1.3420045
10
-4.7831593
20
-1.3456425
10
-4.7644345
20
-1.3490534
10
-4.7460149
20
-1.352243
10
-4.7279029
20
-1.3552167
10
-4.710101
20
-1.3579803
10
-4.6926113
20
-1.3605392
10
-4.675436
20
-1.3628993
10
-4.6585773
20
-1.3650661
10
-4.6420372
20
-1.3670455
10
-4.6258177
20
-1.368843
10
-4.6099206
20
-1.3704645
10
-4.5943477
20
-1.3719158
10
-4.5791009
20
-1.3732026
10
-4.5641817
20
-1.3743307
10
-4.5495918
20
-1.3753059
10
-4.5353326
20
-1.3761342
10
-4.5214056
20
-1.3768212
10
-4.5078121
20
-1.3773729
10
-4.4887471
20
-1.434854
10
-4.4818538
20
-1.4562426
10
-4.4637666
20
-1.5140388
10
-4.4744798
20
-1.5224242
10
-4.4853847
20
-1.5311142
10
-4.4964769
20
-1.5401128
10
-4.5077517
20
-1.5494239
10
-4.5192045
20
-1.5590513
10
-4.5308307
20
-1.5689989
10
-4.5426254
20
-1.5792703
10
-4.554584
20
-1.5898693
10
-4.5667016
20
-1.6007995
10
-4.5789732
20
-1.6120645
10
-4.5913941
20
-1.6236677
10
-4.603959
20
-1.6356126
10
-4.6166631
20
-1.6479026
10
-4.6295013
20
-1.660541
10
-4.6424683
20
-1.6735311
10
-4.6555591
20
-1.686876
10
-4.6687684
20
-1.7005789
10
-4.6820909
20
-1.7146428
10
-4.6955214
20
-1.7290708
10
-4.7090545
20
-1.7438658
10
-4.7226847
20
-1.7590306
10
-4.7364066
20
-1.7745681
10
-4.7502148
20
-1.790481
10
-4.7641037
20
-1.806772
10
-4.7780677
20
-1.8234436
10
-4.7921014
20
-1.8404985
10
-4.8061989
20
-1.8579389
10
-4.8203547
20
-1.8757675
10
-4.834563
20
-1.8939864
10
-4.848818
20
-1.912598
10
-4.8631141
20
-1.9316044
10
-4.8702756
20
-1.9412563
10
-4.8738595
20
-1.9461196
10
-4.8747558
20
-1.9473393
10
-4.8752039
20
-1.9479497
10
-4.8752281
20
-1.9479863
10
-4.8345567
20
-2.0468419
10
-4.8345137
20
-2.0468509
10
-4.8337657
20
-2.0469692
10
-4.8322706
20
-2.047205
10
-4.826302
20
-2.0481381
10
-4.8144216
20
-2.0499558
10
-4.7908894
20
-2.0533987
10
-4.7676641
20
-2.05659
10
-4.7447484
20
-2.0595353
10
-4.7221447
20
-2.0622402
10
-4.6998555
20
-2.0647103
10
-4.6778831
20
-2.0669514
10
-4.6562297
20
-2.0689692
10
-4.6348977
20
-2.0707695
10
-4.613889
20
-2.072358
10
-4.5932058
20
-2.0737404
10
-4.5728501
20
-2.0749226
10
-4.5528236
20
-2.0759105
10
-4.5331283
20
-2.0767098
10
-4.5137659
20
-2.0773263
10
-4.4947379
20
-2.0777661
10
-4.4760461
20
-2.0780349
10
-4.457692
20
-2.0781387
10
-4.4396769
20
-2.0780834
10
-4.4220022
20
-2.0778749
10
-4.4046692
20
-2.0775191
10
-4.3876791
20
-2.0770219
10
-4.371033
20
-2.0763895
10
-4.3547319
20
-2.0756276
10
-4.3387769
20
-2.0747423
10
-4.3231688
20
-2.0737396
10
-4.3079084
20
-2.0726254
10
-4.2929964
20
-2.0714057
10
-4.2784335
20
-2.0700866
10
-4.2642203
20
-2.068674
10
-4.2503573
20
-2.0671739
10
-4.2368448
20
-2.0655924
10
-4.2090225
20
-2.1193833
10
-4.1988682
20
-2.1394302
10
-4.1719624
20
-2.1936854
10
-4.1812319
20
-2.2036435
10
-4.1906432
20
-2.2139324
10
-4.2001911
20
-2.2245554
10
-4.2098705
20
-2.2355156
10
-4.2196762
20
-2.2468162
10
-4.2296031
20
-2.25846
10
-4.2396459
20
-2.2704501
10
-4.2497992
20
-2.2827893
10
-4.2600577
20
-2.2954806
10
-4.270416
20
-2.3085265
10
-4.2808688
20
-2.3219299
10
-4.2914105
20
-2.3356934
10
-4.3020356
20
-2.3498194
10
-4.3127386
20
-2.3643105
10
-4.3235139
20
-2.3791692
10
-4.3343559
20
-2.3943976
10
-4.345259
20
-2.4099982
10
-4.3562174
20
-2.4259731
10
-4.3672255
20
-2.4423245
10
-4.3782775
20
-2.4590543
10
-4.3893676
20
-2.4761647
10
-4.40049
20
-2.4936575
10
-4.4116388
20
-2.5115345
10
-4.4228083
20
-2.5297976
10
-4.4339924
20
-2.5484485
10
-4.4451853
20
-2.5674887
10
-4.4563809
20
-2.5869198
10
-4.4675734
20
-2.6067433
10
-4.4787567
20
-2.6269606
10
-4.4899248
20
-2.647573
10
-4.5010716
20
-2.6685818
10
-4.5066351
20
-2.6792352
10
-4.509414
20
-2.6845992
10
-4.5101085
20
-2.6859441
10
-4.5104556
20
-2.6866171
10
-4.5104738
20
-2.6866571
10
-4.4548387
20
-2.7779331
10
-4.4547948
20
-2.7779353
10
-4.4540375
20
-2.7779351
10
-4.4525239
20
-2.7779342
10
-4.4464828
20
-2.7779221
10
-4.4344644
20
-2.7778589
10
-4.4106833
20
-2.7775782
10
-4.3872447
20
-2.777097
10
-4.3641504
20
-2.7764212
10
-4.3414018
20
-2.7755567
10
-4.3190006
20
-2.7745097
10
-4.2969481
20
-2.773286
10
-4.2752457
20
-2.7718916
10
-4.2538947
20
-2.7703326
10
-4.2328962
20
-2.7686151
10
-4.2122514
20
-2.7667449
10
-4.1919613
20
-2.7647282
10
-4.1720269
20
-2.7625711
10
-4.152449
20
-2.7602795
10
-4.1332285
20
-2.7578596
10
-4.114366
20
-2.7553173
10
-4.0958623
20
-2.7526588
10
-4.0777179
20
-2.7498901
10
-4.0599332
20
-2.7470172
10
-4.0425088
20
-2.7440463
10
-4.0254448
20
-2.7409834
10
-4.0087417
20
-2.7378346
10
-3.9923994
20
-2.7346059
10
-3.9764183
20
-2.7313033
10
-3.9607982
20
-2.727933
10
-3.9455391
20
-2.724501
10
-3.9306408
20
-2.7210133
10
-3.9161032
20
-2.7174759
10
-3.901926
20
-2.7138949
10
-3.8881088
20
-2.7102762
10
-3.8746511
20
-2.7066259
10
-3.8615524
20
-2.7029501
10
-3.8256579
20
-2.7517264
10
-3.8124926
20
-2.769938
10
-3.7774307
20
-2.8193162
10
-3.7850282
20
-2.8306017
10
-3.7927141
20
-2.8422363
10
-3.8004826
20
-2.8542221
10
-3.8083283
20
-2.8665616
10
-3.8162455
20
-2.8792569
10
-3.8242287
20
-2.8923103
10
-3.8322722
20
-2.9057238
10
-3.8403702
20
-2.9194995
10
-3.848517
20
-2.9336392
10
-3.856707
20
-2.948145
10
-3.8649343
20
-2.9630185
10
-3.8731931
20
-2.9782616
10
-3.8814776
20
-2.9938759
10
-3.889782
20
-3.0098629
10
-3.8981002
20
-3.0262242
10
-3.9064265
20
-3.0429613
10
-3.9147548
20
-3.0600754
10
-3.9230793
20
-3.0775679
10
-3.931394
20
-3.09544
10
-3.9396928
20
-3.1136928
10
-3.9479697
20
-3.1323274
10
-3.9562186
20
-3.1513447
10
-3.9644337
20
-3.1707457
10
-3.9726086
20
-3.1905313
10
-3.9807374
20
-3.2107021
10
-3.9888139
20
-3.2312588
10
-3.9968321
20
-3.2522021
10
-4.0047857
20
-3.2735324
10
-4.0126686
20
-3.2952503
10
-4.0204747
20
-3.317356
10
-4.0281977
20
-3.3398498
10
-4.0320262
20
-3.3512424
10
-4.0339318
20
-3.3569751
10
-4.0344073
20
-3.3584121
10
-4.0346449
20
-3.3591311
10
-4.0346566
20
-3.3591734
10
-3.9654277
20
-3.4406225
10
-3.9653841
20
-3.4406178
10
-3.9646361
20
-3.4404991
10
-3.9631413
20
-3.4402614
10
-3.9571765
20
-3.4393045
10
-3.9453159
20
-3.4373619
10
-3.9218715
20
-3.4333645
10
-3.8987968
20
-3.4292226
10
-3.8760925
20
-3.4249423
10
-3.8537592
20
-3.4205299
10
-3.8317976
20
-3.4159914
10
-3.810208
20
-3.411333
10
-3.788991
20
-3.4065608
10
-3.7681467
20
-3.401681
10
-3.7476754
20
-3.3966997
10
-3.7275773
20
-3.391623
10
-3.7078525
20
-3.3864571
10
-3.688501
20
-3.381208
10
-3.6695226
20
-3.375882
10
-3.6509173
20
-3.3704851
10
-3.6326848
20
-3.3650234
10
-3.6148247
20
-3.359503
10
-3.5973368
20
-3.35393
10
-3.5802205
20
-3.3483104
10
-3.5634754
20
-3.3426502
10
-3.5471006
20
-3.3369557
10
-3.5310957
20
-3.3312327
10
-3.5154598
20
-3.3254872
10
-3.500192
20
-3.3197253
10
-3.4852914
20
-3.313953
10
-3.4707571
20
-3.3081762
10
-3.4565879
20
-3.3024008
10
-3.4427826
20
-3.2966328
10
-3.4293401
20
-3.290878
10
-3.4162591
20
-3.2851424
10
-3.4035381
20
-3.2794319
10
-3.3911757
20
-3.2737521
10
-3.3480929
20
-3.3163128
10
-3.3322407
20
-3.3322407
10
-3.289886
20
-3.3755261
10
-3.2956246
20
-3.3878612
10
-3.3013958
20
-3.4005548
10
-3.3071937
20
-3.4136084
10
-3.3130124
20
-3.4270232
10
-3.3188462
20
-3.4408008
10
-3.3246891
20
-3.4549423
10
-3.3305352
20
-3.469449
10
-3.3363785
20
-3.4843218
10
-3.3422131
20
-3.499562
10
-3.3480331
20
-3.5151703
10
-3.3538323
20
-3.5311478
10
-3.3596049
20
-3.5474952
10
-3.3653448
20
-3.5642132
10
-3.371046
20
-3.5813025
10
-3.3767024
20
-3.5987636
10
-3.3823079
20
-3.6165971
10
-3.3878565
20
-3.6348034
10
-3.393342
20
-3.6533827
10
-3.3987585
20
-3.6723355
10
-3.4040997
20
-3.6916618
10
-3.4093596
20
-3.7113617
10
-3.4145321
20
-3.7314354
10
-3.419611
20
-3.7518827
10
-3.4245901
20
-3.7727034
10
-3.4294635
20
-3.7938975
10
-3.4342248
20
-3.8154646
10
-3.4388679
20
-3.8374044
10
-3.4433868
20
-3.8597163
10
-3.4477753
20
-3.8823999
10
-3.4520272
20
-3.9054546
10
-3.4561363
20
-3.9288797
10
-3.4581355
20
-3.9407309
10
-3.4591208
20
-3.9466911
10
-3.4593657
20
-3.9481848
10
-3.4594879
20
-3.9489322
10
-3.4594928
20
-3.9489758
10
-3.3783748
20
-4.0185923
10
-3.3783324
20
-4.0185808
10
-3.3776123
20
-4.0183466
10
-3.376173
20
-4.017878
10
-3.3704313
20
-4.0159997
10
-3.3590206
20
-4.0122256
10
-3.3364902
20
-4.0046099
10
-3.3143475
20
-3.9969093
10
-3.2925923
20
-3.9891301
10
-3.2712243
20
-3.9812783
10
-3.250243
20
-3.9733601
10
-3.229648
20
-3.9653817
10
-3.2094387
20
-3.9573492
10
-3.1896144
20
-3.9492686
10
-3.1701744
20
-3.9411462
10
-3.1511179
20
-3.932988
10
-3.1324441
20
-3.9248001
10
-3.1141519
20
-3.9165884
10
-3.0962404
20
-3.9083591
10
-3.0787084
20
-3.9001181
10
-3.0615548
20
-3.8918715
10
-3.0447782
20
-3.8836251
10
-3.0283774
20
-3.875385
10
-3.0123509
20
-3.867157
10
-2.9966974
20
-3.858947
10
-2.9814151
20
-3.850761
10
-2.9665025
20
-3.8426047
10
-2.9519578
20
-3.834484
10
-2.9377794
20
-3.8264047
10
-2.9239652
20
-3.8183724
10
-2.9105135
20
-3.810393
10
-2.8974222
20
-3.8024722
10
-2.8846893
20
-3.7946156
10
-2.8723125
20
-3.7868288
10
-2.8602898
20
-3.7791175
10
-2.8486188
20
-3.7714873
10
-2.8372971
20
-3.7639436
10
-2.7880867
20
-3.7992406
10
-2.769938
20
-3.8124926
10
-2.7213334
20
-3.8486193
10
-2.7250717
20
-3.8617003
10
-2.7287861
20
-3.8751404
10
-2.7324706
20
-3.8889402
10
-2.7361192
20
-3.9031002
10
-2.7397259
20
-3.9176208
10
-2.7432846
20
-3.9325022
10
-2.7467894
20
-3.9477448
10
-2.7502341
20
-3.9633486
10
-2.7536128
20
-3.9793139
10
-2.7569194
20
-3.9956405
10
-2.7601479
20
-4.0123285
10
-2.7632921
20
-4.0293776
10
-2.7663461
20
-4.0467877
10
-2.7693037
20
-4.0645585
10
-2.7721589
20
-4.0826895
10
-2.7749056
20
-4.1011803
10
-2.7775378
20
-4.1200304
10
-2.7800494
20
-4.1392392
10
-2.7824343
20
-4.1588059
10
-2.7846865
20
-4.1787298
10
-2.7867999
20
-4.1990101
10
-2.7887685
20
-4.2196457
10
-2.7905861
20
-4.2406358
10
-2.7922469
20
-4.2619791
10
-2.7937447
20
-4.2836746
10
-2.7950736
20
-4.305721
10
-2.7962275
20
-4.328117
10
-2.7972004
20
-4.3508612
10
-2.7979863
20
-4.373952
10
-2.7985793
20
-4.397388
10
-2.7989734
20
-4.4211675
10
-2.7990939
20
-4.4331855
10
-2.7991348
20
-4.4392265
10
-2.799143
20
-4.4407401
10
-2.7991467
20
-4.4414974
10
-2.7991448
20
-4.4415412
10
-2.7081351
20
-4.497611
10
-2.708095
20
-4.497593
10
-2.7074203
20
-4.4972491
10
-2.7060722
20
-4.4965611
10
-2.7006949
20
-4.4938077
10
-2.6900151
20
-4.4882951
10
-2.6689534
20
-4.4772486
10
-2.648288
20
-4.4661789
10
-2.6280176
20
-4.4550922
10
-2.608141
20
-4.4439943
10
-2.5886567
20
-4.4328915
10
-2.5695633
20
-4.4217895
10
-2.5508594
20
-4.4106944
10
-2.5325432
20
-4.3996122
10
-2.5146132
20
-4.3885487
10
-2.4970676
20
-4.3775099
10
-2.4799045
20
-4.3665015
10
-2.4631221
20
-4.3555294
10
-2.4467185
20
-4.3445994
10
-2.4306915
20
-4.3337173
10
-2.4150391
20
-4.3228888
10
-2.3997591
20
-4.3121195
10
-2.3848493
20
-4.3014152
10
-2.3703073
20
-4.2907814
10
-2.3561307
20
-4.2802237
10
-2.3423172
20
-4.2697478
10
-2.3288641
20
-4.2593591
10
-2.3157689
20
-4.2490631
10
-2.3030289
20
-4.2388652
10
-2.2906413
20
-4.2287709
10
-2.2786035
20
-4.2187854
10
-2.2669124
20
-4.2089142
10
-2.2555653
20
-4.1991624
10
-2.2445591
20
-4.1895354
10
-2.2338906
20
-4.1800382
10
-2.2235569
20
-4.1706762
10
-2.2135547
20
-4.1614542
10
-2.1594285
20
-4.1886185
10
-2.1394302
20
-4.1988682
10
-2.0857726
20
-4.2269467
10
-2.0874186
20
-4.2404515
10
-2.0889847
20
-4.2543072
10
-2.0904651
20
-4.2685135
10
-2.0918536
20
-4.2830699
10
-2.0931444
20
-4.2979759
10
-2.0943313
20
-4.3132308
10
-2.0954085
20
-4.328834
10
-2.0963699
20
-4.3447846
10
-2.0972094
20
-4.3610819
10
-2.0979213
20
-4.3777248
10
-2.0984994
20
-4.3947123
10
-2.0989379
20
-4.4120434
10
-2.0992307
20
-4.4297169
10
-2.0993719
20
-4.4477315
10
-2.0993557
20
-4.466086
10
-2.099176
20
-4.4847789
10
-2.098827
20
-4.5038086
10
-2.0983027
20
-4.5231738
10
-2.0975973
20
-4.5428727
10
-2.096705
20
-4.5629037
10
-2.0956199
20
-4.5832648
10
-2.0943361
20
-4.6039544
10
-2.0928478
20
-4.6249704
10
-2.0911493
20
-4.6463107
10
-2.0892348
20
-4.6679735
10
-2.0870984
20
-4.6899563
10
-2.0847346
20
-4.7122571
10
-2.0821376
20
-4.7348734
10
-2.0793016
20
-4.7578029
10
-2.0762211
20
-4.7810431
10
-2.0728904
20
-4.8045915
10
-2.0711294
20
-4.8164804
10
-2.0702248
20
-4.8224534
10
-2.0699961
20
-4.8239497
10
-2.0698813
20
-4.8246982
10
-2.0698725
20
-4.8247412
10
-1.9712121
20
-4.8658836
10
-1.9711753
20
-4.8658596
10
-1.9705628
20
-4.8654143
10
-1.9693388
20
-4.8645239
10
-1.9644585
20
-4.8609632
10
-1.9547726
20
-4.8538478
10
-1.9356982
20
-4.8396425
10
-1.9170189
20
-4.8254764
10
-1.8987324
20
-4.8113551
10
-1.8808365
20
-4.7972845
10
-1.863329
20
-4.7832703
10
-1.8462075
20
-4.7693182
10
-1.8294694
20
-4.7554338
10
-1.8131124
20
-4.7416227
10
-1.7971339
20
-4.7278906
10
-1.7815311
20
-4.7142429
10
-1.7663014
20
-4.7006852
10
-1.7514421
20
-4.6872228
10
-1.7369502
20
-4.6738613
10
-1.7228229
20
-4.660606
10
-1.7090572
20
-4.6474622
10
-1.69565
20
-4.6344352
10
-1.6825982
20
-4.6215302
10
-1.6698988
20
-4.6087525
10
-1.6575483
20
-4.5961071
10
-1.6455436
20
-4.5835993
10
-1.6338813
20
-4.5712339
10
-1.622558
20
-4.5590161
10
-1.6115701
20
-4.5469508
10
-1.6009142
20
-4.5350429
10
-1.5905867
20
-4.5232973
10
-1.5805838
20
-4.5117187
10
-1.5709018
20
-4.5003119
10
-1.5615371
20
-4.4890816
10
-1.5524857
20
-4.4780325
10
-1.5437438
20
-4.4671692
10
-1.5353073
20
-4.4564961
10
-1.4775981
20
-4.4748587
10
-1.4562426
20
-4.4818538
10
-1.3988531
20
-4.5011927
10
-1.3983662
20
-4.5147887
10
-1.3977456
20
-4.5287188
10
-1.3969854
20
-4.5429818
10
-1.3960797
20
-4.5575762
10
-1.3950227
20
-4.5725006
10
-1.3938087
20
-4.5877534
10
-1.3924317
20
-4.603333
10
-1.390886
20
-4.6192376
10
-1.3891658
20
-4.6354656
10
-1.3872654
20
-4.6520149
10
-1.3851789
20
-4.6688837
10
-1.3829008
20
-4.6860701
10
-1.3804253
20
-4.7035718
10
-1.3777467
20
-4.7213867
10
-1.3748593
20
-4.7395126
10
-1.3717577
20
-4.7579473
10
-1.368436
20
-4.7766882
10
-1.3648888
20
-4.7957329
10
-1.3611106
20
-4.8150789
10
-1.3570957
20
-4.8347237
10
-1.3528387
20
-4.8546644
10
-1.3483342
20
-4.8748984
10
-1.3435766
20
-4.8954228
10
-1.3385606
20
-4.9162348
10
-1.3332809
20
-4.9373313
10
-1.327732
20
-4.9587093
10
-1.3219087
20
-4.9803657
10
-1.3158056
20
-5.0022973
10
-1.3094176
20
-5.0245009
10
-1.3027394
20
-5.0469731
10
-1.295766
20
-5.0697105
10
-1.2921669
20
-5.0811776
10
-1.2903389
20
-5.0869355
10
-1.289879
20
-5.0883776
10
-1.2896486
20
-5.089099
10
-1.2896331
20
-5.08914
10
-1.1857513
20
-5.114342
10
-1.1857187
20
-5.1143125
10
-1.1851834
20
-5.1137769
10
-1.1841138
20
-5.112706
10
-1.1798506
20
-5.1084257
10
-1.171397
20
-5.0998827
10
-1.1547797
20
-5.0828684
10
-1.1385464
20
-5.0659546
10
-1.1226941
20
-5.0491466
10
-1.1072197
20
-5.0324497
10
-1.09212
20
-5.0158692
10
-1.0773918
20
-4.9994105
10
-1.0630319
20
-4.9830786
10
-1.0490368
20
-4.9668788
10
-1.0354031
20
-4.9508161
10
-1.0221274
20
-4.9348956
10
-1.0092062
20
-4.9191223
10
-0.9966357
20
-4.9035012
10
-0.9844125
20
-4.8880372
10
-0.9725327
20
-4.8727351
10
-0.9609926
20
-4.8575997
10
-0.9497883
20
-4.8426357
10
-0.9389161
20
-4.8278479
10
-0.9283718
20
-4.8132408
10
-0.9181516
20
-4.7988191
10
-0.9082514
20
-4.7845873
10
-0.898667
20
-4.7705498
10
-0.8893944
20
-4.7567111
10
-0.8804292
20
-4.7430754
10
-0.8717673
20
-4.7296472
10
-0.8634043
20
-4.7164306
10
-0.8553359
20
-4.7034297
10
-0.8475575
20
-4.6906488
10
-0.8400649
20
-4.6780918
10
-0.8328534
20
-4.6657628
10
-0.8259185
20
-4.6536656
10
-0.8192556
20
-4.6418042
10
-0.7593843
20
-4.650913
10
-0.7371974
20
-4.6544813
10
-0.6774892
20
-4.6646044
10
-0.6748815
20
-4.6779568
10
-0.6720893
20
-4.6916184
10
-0.6691072
20
-4.7055868
10
-0.6659296
20
-4.7198599
10
-0.662551
20
-4.7344352
10
-0.6589658
20
-4.7493103
10
-0.6551686
20
-4.7644826
10
-0.6511539
20
-4.7799497
10
-0.6469163
20
-4.7957087
10
-0.6424504
20
-4.811757
10
-0.6377508
20
-4.8280918
10
-0.6328121
20
-4.8447101
10
-0.6276292
20
-4.8616091
10
-0.6221967
20
-4.8787857
10
-0.6165094
20
-4.8962368
10
-0.6105621
20
-4.9139592
10
-0.6043496
20
-4.9319498
10
-0.5978669
20
-4.9502051
10
-0.5911087
20
-4.9687219
10
-0.5840702
20
-4.9874967
10
-0.5767462
20
-5.006526
10
-0.5691318
20
-5.0258063
10
-0.5612221
20
-5.0453337
10
-0.5530122
20
-5.0651048
10
-0.5444972
20
-5.0851156
10
-0.5356724
20
-5.1053624
10
-0.5265329
20
-5.1258412
10
-0.5170741
20
-5.1465481
10
-0.5072914
20
-5.167479
10
-0.49718
20
-5.1886298
10
-0.4867355
20
-5.2099964
10
-0.4813868
20
-5.2207593
10
-0.4786807
20
-5.2261604
10
-0.4780008
20
-5.2275127
10
-0.4776604
20
-5.2281892
10
-0.4776387
20
-5.2282274
10
-0.3710934
20
-5.2368683
10
-0.3710658
20
-5.2368341
10
-0.3706208
20
-5.2362214
10
-0.3697319
20
-5.2349963
10
-0.3661908
20
-5.2301018
10
-0.3591777
20
-5.2203415
10
-0.3454266
20
-5.2009372
10
-0.3320391
20
-5.1816922
10
-0.3190113
20
-5.1626112
10
-0.3063394
20
-5.1436992
10
-0.2940194
20
-5.1249608
10
-0.2820473
20
-5.1064006
10
-0.270419
20
-5.0880234
10
-0.2591304
20
-5.0698337
10
-0.2481773
20
-5.0518361
10
-0.2375556
20
-5.0340348
10
-0.2272609
20
-5.0164344
10
-0.2172889
20
-4.9990392
10
-0.2076352
20
-4.9818534
10
-0.1982955
20
-4.9648812
10
-0.1892652
20
-4.9481269
10
-0.1805397
20
-4.9315944
10
-0.1721146
20
-4.9152879
10
-0.1639853
20
-4.8992112
10
-0.1561469
20
-4.8833682
10
-0.1485949
20
-4.8677629
10
-0.1413245
20
-4.8523989
10
-0.1343309
20
-4.83728
10
-0.1276092
20
-4.8224098
10
-0.1211546
20
-4.8077918
10
-0.1149621
20
-4.7934297
10
-0.1090267
20
-4.7793267
10
-0.1033436
20
-4.7654863
10
-0.0979075
20
-4.7519118
10
-0.0927135
20
-4.7386065
10
-0.0877564
20
-4.7255734
10
-0.083031
20
-4.7128157
10
-0.0224719
20
-4.7124464
10
0
20
-4.7125
10
0.0605567
20
-4.7131581
10
0.0652211
20
-4.7259381
10
0.070116
20
-4.7389947
10
0.0752466
20
-4.7523247
10
0.0806178
20
-4.7659249
10
0.0862349
20
-4.7797923
10
0.0921029
20
-4.7939234
10
0.0982269
20
-4.8083149
10
0.1046117
20
-4.8229635
10
0.1112624
20
-4.8378656
10
0.1181839
20
-4.8530177
10
0.125381
20
-4.8684161
10
0.1328585
20
-4.8840573
10
0.1406211
20
-4.8999375
10
0.1486738
20
-4.9160527
10
0.157021
20
-4.9323993
10
0.1656675
20
-4.9489732
10
0.1746178
20
-4.9657704
10
0.1838765
20
-4.9827869
10
0.1934481
20
-5.0000185
10
0.2033371
20
-5.0174611
10
0.2135477
20
-5.0351104
10
0.2240845
20
-5.0529621
10
0.2349516
20
-5.0710118
10
0.2461533
20
-5.0892551
10
0.2576938
20
-5.1076875
10
0.2695773
20
-5.1263045
10
0.2818078
20
-5.1451015
10
0.2943894
20
-5.1640738
10
0.307326
20
-5.1832166
10
0.3206216
20
-5.2025253
10
0.3342801
20
-5.2219949
10
0.3412465
20
-5.2317886
10
0.3447643
20
-5.2366999
10
0.3456473
20
-5.2379292
10
0.3460894
20
-5.238544
10
0.3461168
20
-5.2385784
10
0.4527021
20
-5.2304456
10
0.4527239
20
-5.2304075
10
0.4530676
20
-5.2297327
10
0.4537539
20
-5.2283836
10
0.4564858
20
-5.2229955
10
0.4618857
20
-5.2122582
10
0.472432
20
-5.1909417
10
0.4826441
20
-5.1698393
10
0.4925266
20
-5.1489553
10
0.502084
20
-5.1282937
10
0.511321
20
-5.1078587
10
0.5202423
20
-5.0876543
10
0.5288526
20
-5.0676843
10
0.5371567
20
-5.0479526
10
0.5451594
20
-5.0284631
10
0.5528657
20
-5.0092194
10
0.5602803
20
-4.9902252
10
0.5674083
20
-4.9714842
10
0.5742547
20
-4.9529998
10
0.5808244
20
-4.9347756
10
0.5871226
20
-4.9168148
10
0.5931543
20
-4.899121
10
0.5989248
20
-4.8816972
10
0.6044391
20
-4.8645467
10
0.6097026
20
-4.8476726
10
0.6147204
20
-4.831078
10
0.6194978
20
-4.8147659
10
0.6240403
20
-4.798739
10
0.628353
20
-4.7830004
10
0.6324414
20
-4.7675527
10
0.6363109
20
-4.7523986
10
0.639967
20
-4.7375408
10
0.6434151
20
-4.7229818
10
0.6466607
20
-4.708724
10
0.6497093
20
-4.6947699
10
0.6525666
20
-4.6811219
10
0.655238
20
-4.667782
10
0.7149938
20
-4.6579438
10
0.7371974
20
-4.6544813
10
0.7971115
20
-4.6456581
10
0.8037178
20
-4.6575512
10
0.8105949
20
-4.6696812
10
0.8177475
20
-4.6820445
10
0.8251802
20
-4.6946371
10
0.8328975
20
-4.707455
10
0.8409038
20
-4.7204941
10
0.8492037
20
-4.7337505
10
0.8578015
20
-4.7472199
10
0.8667015
20
-4.7608981
10
0.8759081
20
-4.7747809
10
0.8854254
20
-4.788864
10
0.8952576
20
-4.8031428
10
0.905409
20
-4.8176131
10
0.9158834
20
-4.8322703
10
0.9266851
20
-4.8471098
10
0.9378178
20
-4.862127
10
0.9492856
20
-4.8773173
10
0.9610923
20
-4.8926759
10
0.9732417
20
-4.908198
10
0.9857375
20
-4.9238789
10
0.9985834
20
-4.9397136
10
1.011783
20
-4.9556972
10
1.0253399
20
-4.9718247
10
1.0392576
20
-4.9880911
10
1.0535395
20
-5.0044912
10
1.0681891
20
-5.02102
10
1.0832095
20
-5.0376723
10
1.0986041
20
-5.0544428
10
1.114376
20
-5.0713262
10
1.1305285
20
-5.0883173
10
1.1470645
20
-5.1054106
10
1.1554773
20
-5.1139939
10
1.15972
20
-5.1182944
10
1.1607845
20
-5.1193704
10
1.1613173
20
-5.1199086
10
1.1613497
20
-5.1199382
10
1.2653505
20
-5.0952319
10
1.2653662
20
-5.0951909
10
1.2656
20
-5.0944706
10
1.2660668
20
-5.0930308
10
1.2679222
20
-5.0872816
10
1.2715759
20
-5.0758318
10
1.2786578
20
-5.0531279
10
1.285443
20
-5.0306878
10
1.2919368
20
-5.008515
10
1.2981444
20
-4.9866127
10
1.3040709
20
-4.9649843
10
1.3097217
20
-4.943633
10
1.315102
20
-4.9225619
10
1.3202172
20
-4.9017741
10
1.3250725
20
-4.8812726
10
1.3296735
20
-4.8610603
10
1.3340255
20
-4.8411401
10
1.338134
20
-4.8215147
10
1.3420045
20
-4.8021869
10
1.3456425
20
-4.7831593
10
1.3490534
20
-4.7644345
10
1.352243
20
-4.7460149
10
1.3552167
20
-4.7279029
10
1.3579803
20
-4.710101
10
1.3605392
20
-4.6926113
10
1.3628993
20
-4.675436
10
1.3650661
20
-4.6585773
10
1.3670455
20
-4.6420372
10
1.368843
20
-4.6258177
10
1.3704645
20
-4.6099206
10
1.3719158
20
-4.5943477
10
1.3732026
20
-4.5791009
10
1.3743307
20
-4.5641817
10
1.3753059
20
-4.5495918
10
1.3761342
20
-4.5353326
10
1.3768212
20
-4.5214056
10
1.3773729
20
-4.5078121
10
1.434854
20
-4.4887471
10
1.4562426
20
-4.4818538
10
1.5140388
20
-4.4637666
10
1.5224242
20
-4.4744798
10
1.5311142
20
-4.4853847
10
1.5401128
20
-4.4964769
10
1.5494239
20
-4.5077517
10
1.5590513
20
-4.5192045
10
1.5689989
20
-4.5308307
10
1.5792703
20
-4.5426254
10
1.5898693
20
-4.554584
10
1.6007995
20
-4.5667016
10
1.6120645
20
-4.5789732
10
1.6236677
20
-4.5913941
10
1.6356126
20
-4.603959
10
1.6479026
20
-4.6166631
10
1.660541
20
-4.6295013
10
1.6735311
20
-4.6424683
10
1.686876
20
-4.6555591
10
1.7005789
20
-4.6687684
10
1.7146428
20
-4.6820909
10
1.7290708
20
-4.6955214
10
1.7438658
20
-4.7090545
10
1.7590306
20
-4.7226847
10
1.7745681
20
-4.7364066
10
1.790481
20
-4.7502148
10
1.806772
20
-4.7641037
10
1.8234436
20
-4.7780677
10
1.8404985
20
-4.7921014
10
1.8579389
20
-4.8061989
10
1.8757675
20
-4.8203547
10
1.8939864
20
-4.834563
10
1.912598
20
-4.848818
10
1.9316044
20
-4.8631141
10
1.9412563
20
-4.8702756
10
1.9461196
20
-4.8738595
10
1.9473393
20
-4.8747558
10
1.9479497
20
-4.8752039
10
1.9479863
20
-4.8752281
10
2.0468419
20
-4.8345567
10
2.0468509
20
-4.8345137
10
2.0469692
20
-4.8337657
10
2.047205
20
-4.8322706
10
2.0481381
20
-4.826302
10
2.0499558
20
-4.8144216
10
2.0533987
20
-4.7908894
10
2.05659
20
-4.7676641
10
2.0595353
20
-4.7447484
10
2.0622402
20
-4.7221447
10
2.0647103
20
-4.6998555
10
2.0669514
20
-4.6778831
10
2.0689692
20
-4.6562297
10
2.0707695
20
-4.6348977
10
2.072358
20
-4.613889
10
2.0737404
20
-4.5932058
10
2.0749226
20
-4.5728501
10
2.0759105
20
-4.5528236
10
2.0767098
20
-4.5331283
10
2.0773263
20
-4.5137659
10
2.0777661
20
-4.4947379
10
2.0780349
20
-4.4760461
10
2.0781387
20
-4.457692
10
2.0780834
20
-4.4396769
10
2.0778749
20
-4.4220022
10
2.0775191
20
-4.4046692
10
2.0770219
20
-4.3876791
10
2.0763895
20
-4.371033
10
2.0756276
20
-4.3547319
10
2.0747423
20
-4.3387769
10
2.0737396
20
-4.3231688
10
2.0726254
20
-4.3079084
10
2.0714057
20
-4.2929964
10
2.0700866
20
-4.2784335
10
2.068674
20
-4.2642203
10
2.0671739
20
-4.2503573
10
2.0655924
20
-4.2368448
10
2.1193833
20
-4.2090225
10
2.1394302
20
-4.1988682
10
2.1936854
20
-4.1719624
10
2.2036435
20
-4.1812319
10
2.2139324
20
-4.1906432
10
2.2245554
20
-4.2001911
10
2.2355156
20
-4.2098705
10
2.2468162
20
-4.2196762
10
2.25846
20
-4.2296031
10
2.2704501
20
-4.2396459
10
2.2827893
20
-4.2497992
10
2.2954806
20
-4.2600577
10
2.3085265
20
-4.270416
10
2.3219299
20
-4.2808688
10
2.3356934
20
-4.2914105
10
2.3498194
20
-4.3020356
10
2.3643105
20
-4.3127386
10
2.3791692
20
-4.3235139
10
2.3943976
20
-4.3343559
10
2.4099982
20
-4.345259
10
2.4259731
20
-4.3562174
10
2.4423245
20
-4.3672255
10
2.4590543
20
-4.3782775
10
2.4761647
20
-4.3893676
10
2.4936575
20
-4.40049
10
2.5115345
20
-4.4116388
10
2.5297976
20
-4.4228083
10
2.5484485
20
-4.4339924
10
2.5674887
20
-4.4451853
10
2.5869198
20
-4.4563809
10
2.6067433
20
-4.4675734
10
2.6269606
20
-4.4787567
10
2.647573
20
-4.4899248
10
2.6685818
20
-4.5010716
10
2.6792352
20
-4.5066351
10
2.6845992
20
-4.509414
10
2.6859441
20
-4.5101085
10
2.6866171
20
-4.5104556
10
2.6866571
20
-4.5104738
10
2.7779331
20
-4.4548387
10
2.7779353
20
-4.4547948
10
2.7779351
20
-4.4540375
10
2.7779342
20
-4.4525239
10
2.7779221
20
-4.4464828
10
2.7778589
20
-4.4344644
10
2.7775782
20
-4.4106833
10
2.777097
20
-4.3872447
10
2.7764212
20
-4.3641504
10
2.7755567
20
-4.3414018
10
2.7745097
20
-4.3190006
10
2.773286
20
-4.2969481
10
2.7718916
20
-4.2752457
10
2.7703326
20
-4.2538947
10
2.7686151
20
-4.2328962
10
2.7667449
20
-4.2122514
10
2.7647282
20
-4.1919613
10
2.7625711
20
-4.1720269
10
2.7602795
20
-4.152449
10
2.7578596
20
-4.1332285
10
2.7553173
20
-4.114366
10
2.7526588
20
-4.0958623
10
2.7498901
20
-4.0777179
10
2.7470172
20
-4.0599332
10
2.7440463
20
-4.0425088
10
2.7409834
20
-4.0254448
10
2.7378346
20
-4.0087417
10
2.7346059
20
-3.9923994
10
2.7313033
20
-3.9764183
10
2.727933
20
-3.9607982
10
2.724501
20
-3.9455391
10
2.7210133
20
-3.9306408
10
2.7174759
20
-3.9161032
10
2.7138949
20
-3.901926
10
2.7102762
20
-3.8881088
10
2.7066259
20
-3.8746511
10
2.7029501
20
-3.8615524
10
2.7517264
20
-3.8256579
10
2.769938
20
-3.8124926
10
2.8193162
20
-3.7774307
10
2.8306017
20
-3.7850282
10
2.8422363
20
-3.7927141
10
2.8542221
20
-3.8004826
10
2.8665616
20
-3.8083283
10
2.8792569
20
-3.8162455
10
2.8923103
20
-3.8242287
10
2.9057238
20
-3.8322722
10
2.9194995
20
-3.8403702
10
2.9336392
20
-3.848517
10
2.948145
20
-3.856707
10
2.9630185
20
-3.8649343
10
2.9782616
20
-3.8731931
10
2.9938759
20
-3.8814776
10
3.0098629
20
-3.889782
10
3.0262242
20
-3.8981002
10
3.0429613
20
-3.9064265
10
3.0600754
20
-3.9147548
10
3.0775679
20
-3.9230793
10
3.09544
20
-3.931394
10
3.1136928
20
-3.9396928
10
3.1323274
20
-3.9479697
10
3.1513447
20
-3.9562186
10
3.1707457
20
-3.9644337
10
3.1905313
20
-3.9726086
10
3.2107021
20
-3.9807374
10
3.2312588
20
-3.9888139
10
3.2522021
20
-3.9968321
10
3.2735324
20
-4.0047857
10
3.2952503
20
-4.0126686
10
3.317356
20
-4.0204747
10
3.3398498
20
-4.0281977
10
3.3512424
20
-4.0320262
10
3.3569751
20
-4.0339318
10
3.3584121
20
-4.0344073
10
3.3591311
20
-4.0346449
10
3.3591734
20
-4.0346566
10
3.4406225
20
-3.9654277
10
3.4406178
20
-3.9653841
10
3.4404991
20
-3.9646361
10
3.4402614
20
-3.9631413
10
3.4393045
20
-3.9571765
10
3.4373619
20
-3.9453159
10
3.4333645
20
-3.9218715
10
3.4292226
20
-3.8987968
10
3.4249423
20
-3.8760925
10
3.4205299
20
-3.8537592
10
3.4159914
20
-3.8317976
10
3.411333
20
-3.810208
10
3.4065608
20
-3.788991
10
3.401681
20
-3.7681467
10
3.3966997
20
-3.7476754
10
3.391623
20
-3.7275773
10
3.3864571
20
-3.7078525
10
3.381208
20
-3.688501
10
3.375882
20
-3.6695226
10
3.3704851
20
-3.6509173
10
3.3650234
20
-3.6326848
10
3.359503
20
-3.6148247
10
3.35393
20
-3.5973368
10
3.3483104
20
-3.5802205
10
3.3426502
20
-3.5634754
10
3.3369557
20
-3.5471006
10
3.3312327
20
-3.5310957
10
3.3254872
20
-3.5154598
10
3.3197253
20
-3.500192
10
3.313953
20
-3.4852914
10
3.3081762
20
-3.4707571
10
3.3024008
20
-3.4565879
10
3.2966328
20
-3.4427826
10
3.290878
20
-3.4293401
10
3.2851424
20
-3.4162591
10
3.2794319
20
-3.4035381
10
3.2737521
20
-3.3911757
10
3.3163128
20
-3.3480929
10
3.3322407
20
-3.3322407
10
3.3755261
20
-3.289886
10
3.3878612
20
-3.2956246
10
3.4005548
20
-3.3013958
10
3.4136084
20
-3.3071937
10
3.4270232
20
-3.3130124
10
3.4408008
20
-3.3188462
10
3.4549423
20
-3.3246891
10
3.469449
20
-3.3305352
10
3.4843218
20
-3.3363785
10
3.499562
20
-3.3422131
10
3.5151703
20
-3.3480331
10
3.5311478
20
-3.3538323
10
3.5474952
20
-3.3596049
10
3.5642132
20
-3.3653448
10
3.5813025
20
-3.371046
10
3.5987636
20
-3.3767024
10
3.6165971
20
-3.3823079
10
3.6348034
20
-3.3878565
10
3.6533827
20
-3.393342
10
3.6723355
20
-3.3987585
10
3.6916618
20
-3.4040997
10
3.7113617
20
-3.4093596
10
3.7314354
20
-3.4145321
10
3.7518827
20
-3.419611
10
3.7727034
20
-3.4245901
10
3.7938975
20
-3.4294635
10
3.8154646
20
-3.4342248
10
3.8374044
20
-3.4388679
10
3.8597163
20
-3.4433868
10
3.8823999
20
-3.4477753
10
3.9054546
20
-3.4520272
10
3.9288797
20
-3.4561363
10
3.9407309
20
-3.4581355
10
3.9466911
20
-3.4591208
10
3.9481848
20
-3.4593657
10
3.9489322
20
-3.4594879
10
3.9489758
20
-3.4594928
10
4.0185923
20
-3.3783748
10
4.0185808
20
-3.3783324
10
4.0183466
20
-3.3776123
10
4.017878
20
-3.376173
10
4.0159997
20
-3.3704313
10
4.0122256
20
-3.3590206
10
4.0046099
20
-3.3364902
10
3.9969093
20
-3.3143475
10
3.9891301
20
-3.2925923
10
3.9812783
20
-3.2712243
10
3.9733601
20
-3.250243
10
3.9653817
20
-3.229648
10
3.9573492
20
-3.2094387
10
3.9492686
20
-3.1896144
10
3.9411462
20
-3.1701744
10
3.932988
20
-3.1511179
10
3.9248001
20
-3.1324441
10
3.9165884
20
-3.1141519
10
3.9083591
20
-3.0962404
10
3.9001181
20
-3.0787084
10
3.8918715
20
-3.0615548
10
3.8836251
20
-3.0447782
10
3.875385
20
-3.0283774
10
3.867157
20
-3.0123509
10
3.858947
20
-2.9966974
10
3.850761
20
-2.9814151
10
3.8426047
20
-2.9665025
10
3.834484
20
-2.9519578
10
3.8264047
20
-2.9377794
10
3.8183724
20
-2.9239652
10
3.810393
20
-2.9105135
10
3.8024722
20
-2.8974222
10
3.7946156
20
-2.8846893
10
3.7868288
20
-2.8723125
10
3.7791175
20
-2.8602898
10
3.7714873
20
-2.8486188
10
3.7639436
20
-2.8372971
10
3.7992406
20
-2.7880867
10
3.8124926
20
-2.769938
10
3.8486193
20
-2.7213334
10
3.8617003
20
-2.7250717
10
3.8751404
20
-2.7287861
10
3.8889402
20
-2.7324706
10
3.9031002
20
-2.7361192
10
3.9176208
20
-2.7397259
10
3.9325022
20
-2.7432846
10
3.9477448
20
-2.7467894
10
3.9633486
20
-2.7502341
10
3.9793139
20
-2.7536128
10
3.9956405
20
-2.7569194
10
4.0123285
20
-2.7601479
10
4.0293776
20
-2.7632921
10
4.0467877
20
-2.7663461
10
4.0645585
20
-2.7693037
10
4.0826895
20
-2.7721589
10
4.1011803
20
-2.7749056
10
4.1200304
20
-2.7775378
10
4.1392392
20
-2.7800494
10
4.1588059
20
-2.7824343
10
4.1787298
20
-2.7846865
10
4.1990101
20
-2.7867999
10
4.2196457
20
-2.7887685
10
4.2406358
20
-2.7905861
10
4.2619791
20
-2.7922469
10
4.2836746
20
-2.7937447
10
4.305721
20
-2.7950736
10
4.328117
20
-2.7962275
10
4.3508612
20
-2.7972004
10
4.373952
20
-2.7979863
10
4.397388
20
-2.7985793
10
4.4211675
20
-2.7989734
10
4.4331855
20
-2.7990939
10
4.4392265
20
-2.7991348
10
4.4407401
20
-2.799143
10
4.4414974
20
-2.7991467
10
4.4415412
20
-2.7991448
10
4.497611
20
-2.7081351
10
4.497593
20
-2.708095
10
4.4972491
20
-2.7074203
10
4.4965611
20
-2.7060722
10
4.4938077
20
-2.7006949
10
4.4882951
20
-2.6900151
10
4.4772486
20
-2.6689534
10
4.4661789
20
-2.648288
10
4.4550922
20
-2.6280176
10
4.4439943
20
-2.608141
10
4.4328915
20
-2.5886567
10
4.4217895
20
-2.5695633
10
4.4106944
20
-2.5508594
10
4.3996122
20
-2.5325432
10
4.3885487
20
-2.5146132
10
4.3775099
20
-2.4970676
10
4.3665015
20
-2.4799045
10
4.3555294
20
-2.4631221
10
4.3445994
20
-2.4467185
10
4.3337173
20
-2.4306915
10
4.3228888
20
-2.4150391
10
4.3121195
20
-2.3997591
10
4.3014152
20
-2.3848493
10
4.2907814
20
-2.3703073
10
4.2802237
20
-2.3561307
10
4.2697478
20
-2.3423172
10
4.2593591
20
-2.3288641
10
4.2490631
20
-2.3157689
10
4.2388652
20
-2.3030289
10
4.2287709
20
-2.2906413
10
4.2187854
20
-2.2786035
10
4.2089142
20
-2.2669124
10
4.1991624
20
-2.2555653
10
4.1895354
20
-2.2445591
10
4.1800382
20
-2.2338906
10
4.1706762
20
-2.2235569
10
4.1614542
20
-2.2135547
10
4.1886185
20
-2.1594285
10
4.1988682
20
-2.1394302
10
4.2269467
20
-2.0857726
10
4.2404515
20
-2.0874186
10
4.2543072
20
-2.0889847
10
4.2685135
20
-2.0904651
10
4.2830699
20
-2.0918536
10
4.2979759
20
-2.0931444
10
4.3132308
20
-2.0943313
10
4.328834
20
-2.0954085
10
4.3447846
20
-2.0963699
10
4.3610819
20
-2.0972094
10
4.3777248
20
-2.0979213
10
4.3947123
20
-2.0984994
10
4.4120434
20
-2.0989379
10
4.4297169
20
-2.0992307
10
4.4477315
20
-2.0993719
10
4.466086
20
-2.0993557
10
4.4847789
20
-2.099176
10
4.5038086
20
-2.098827
10
4.5231738
20
-2.0983027
10
4.5428727
20
-2.0975973
10
4.5629037
20
-2.096705
10
4.5832648
20
-2.0956199
10
4.6039544
20
-2.0943361
10
4.6249704
20
-2.0928478
10
4.6463107
20
-2.0911493
10
4.6679735
20
-2.0892348
10
4.6899563
20
-2.0870984
10
4.7122571
20
-2.0847346
10
4.7348734
20
-2.0821376
10
4.7578029
20
-2.0793016
10
4.7810431
20
-2.0762211
10
4.8045915
20
-2.0728904
10
4.8164804
20
-2.0711294
10
4.8224534
20
-2.0702248
10
4.8239497
20
-2.0699961
10
4.8246982
20
-2.0698813
10
4.8247412
20
-2.0698725
10
4.8658836
20
-1.9712121
10
4.8658596
20
-1.9711753
10
4.8654143
20
-1.9705628
10
4.8645239
20
-1.9693388
10
4.8609632
20
-1.9644585
10
4.8538478
20
-1.9547726
10
4.8396425
20
-1.9356982
10
4.8254764
20
-1.9170189
10
4.8113551
20
-1.8987324
10
4.7972845
20
-1.8808365
10
4.7832703
20
-1.863329
10
4.7693182
20
-1.8462075
10
4.7554338
20
-1.8294694
10
4.7416227
20
-1.8131124
10
4.7278906
20
-1.7971339
10
4.7142429
20
-1.7815311
10
4.7006852
20
-1.7663014
10
4.6872228
20
-1.7514421
10
4.6738613
20
-1.7369502
10
4.660606
20
-1.7228229
10
4.6474622
20
-1.7090572
10
4.6344352
20
-1.69565
10
4.6215302
20
-1.6825982
10
4.6087525
20
-1.6698988
10
4.5961071
20
-1.6575483
10
4.5835993
20
-1.6455436
10
4.5712339
20
-1.6338813
10
4.5590161
20
-1.622558
10
4.5469508
20
-1.6115701
10
4.5350429
20
-1.6009142
10
4.5232973
20
-1.5905867
10
4.5117187
20
-1.5805838
10
4.5003119
20
-1.5709018
10
4.4890816
20
-1.5615371
10
4.4780325
20
-1.5524857
10
4.4671692
20
-1.5437438
10
4.4564961
20
-1.5353073
10
4.4748587
20
-1.4775981
10
4.4818538
20
-1.4562426
10
4.5011927
20
-1.3988531
10
4.5147887
20
-1.3983662
10
4.5287188
20
-1.3977456
10
4.5429818
20
-1.3969854
10
4.5575762
20
-1.3960797
10
4.5725006
20
-1.3950227
10
4.5877534
20
-1.3938087
10
4.603333
20
-1.3924317
10
4.6192376
20
-1.390886
10
4.6354656
20
-1.3891658
10
4.6520149
20
-1.3872654
10
4.6688837
20
-1.3851789
10
4.6860701
20
-1.3829008
10
4.7035718
20
-1.3804253
10
4.7213867
20
-1.3777467
10
4.7395126
20
-1.3748593
10
4.7579473
20
-1.3717577
10
4.7766882
20
-1.368436
10
4.7957329
20
-1.3648888
10
4.8150789
20
-1.3611106
10
4.8347237
20
-1.3570957
10
4.8546644
20
-1.3528387
10
4.8748984
20
-1.3483342
10
4.8954228
20
-1.3435766
10
4.9162348
20
-1.3385606
10
4.9373313
20
-1.3332809
10
4.9587093
20
-1.327732
10
4.9803657
20
-1.3219087
10
5.0022973
20
-1.3158056
10
5.0245009
20
-1.3094176
10
5.0469731
20
-1.3027394
10
5.0697105
20
-1.295766
10
5.0811776
20
-1.2921669
10
5.0869355
20
-1.2903389
10
5.0883776
20
-1.289879
10
5.089099
20
-1.2896486
10
5.08914
20
-1.2896331
10
5.114342
20
-1.1857513
10
5.1143125
20
-1.1857187
10
5.1137769
20
-1.1851834
10
5.112706
20
-1.1841138
10
5.1084257
20
-1.1798506
10
5.0998827
20
-1.171397
10
5.0828684
20
-1.1547797
10
5.0659546
20
-1.1385464
10
5.0491466
20
-1.1226941
10
5.0324497
20
-1.1072197
10
5.0158692
20
-1.09212
10
4.9994105
20
-1.0773918
10
4.9830786
20
-1.0630319
10
4.9668788
20
-1.0490368
10
4.9508161
20
-1.0354031
10
4.9348956
20
-1.0221274
10
4.9191223
20
-1.0092062
10
4.9035012
20
-0.9966357
10
4.8880372
20
-0.9844125
10
4.8727351
20
-0.9725327
10
4.8575997
20
-0.9609926
10
4.8426357
20
-0.9497883
10
4.8278479
20
-0.9389161
10
4.8132408
20
-0.9283718
10
4.7988191
20
-0.9181516
10
4.7845873
20
-0.9082514
10
4.7705498
20
-0.898667
10
4.7567111
20
-0.8893944
10
4.7430754
20
-0.8804292
10
4.7296472
20
-0.8717673
10
4.7164306
20
-0.8634043
10
4.7034297
20
-0.8553359
10
4.6906488
20
-0.8475575
10
4.6780918
20
-0.8400649
10
4.6657628
20
-0.8328534
10
4.6536656
20
-0.8259185
10
4.6418042
20
-0.8192556
10
4.650913
20
-0.7593843
10
4.6544813
20
-0.7371974
10
4.6646044
20
-0.6774892
10
4.6779568
20
-0.6748815
10
4.6916184
20
-0.6720893
10
4.7055868
20
-0.6691072
10
4.7198599
20
-0.6659296
10
4.7344352
20
-0.662551
10
4.7493103
20
-0.6589658
10
4.7644826
20
-0.6551686
10
4.7799497
20
-0.6511539
10
4.7957087
20
-0.6469163
10
4.811757
20
-0.6424504
10
4.8280918
20
-0.6377508
10
4.8447101
20
-0.6328121
10
4.8616091
20
-0.6276292
10
4.8787857
20
-0.6221967
10
4.8962368
20
-0.6165094
10
4.9139592
20
-0.6105621
10
4.9319498
20
-0.6043496
10
4.9502051
20
-0.5978669
10
4.9687219
20
-0.5911087
10
4.9874967
20
-0.5840702
10
5.006526
20
-0.5767462
10
5.0258063
20
-0.5691318
10
5.0453337
20
-0.5612221
10
5.0651048
20
-0.5530122
10
5.0851156
20
-0.5444972
10
5.1053624
20
-0.5356724
10
5.1258412
20
-0.5265329
10
5.1465481
20
-0.5170741
10
5.167479
20
-0.5072914
10
5.1886298
20
-0.49718
10
5.2099964
20
-0.4867355
10
5.2207593
20
-0.4813868
10
5.2261604
20
-0.4786807
10
5.2275127
20
-0.4780008
10
5.2281892
20
-0.4776604
10
5.2282274
20
-0.4776387
10
5.2368683
20
-0.3710934
10
5.2368341
20
-0.3710658
10
5.2362214
20
-0.3706208
10
5.2349963
20
-0.3697319
10
5.2301018
20
-0.3661908
10
5.2203415
20
-0.3591777
10
5.2009372
20
-0.3454266
10
5.1816922
20
-0.3320391
10
5.1626112
20
-0.3190113
10
5.1436992
20
-0.3063394
10
5.1249608
20
-0.2940194
10
5.1064006
20
-0.2820473
10
5.0880234
20
-0.270419
10
5.0698337
20
-0.2591304
10
5.0518361
20
-0.2481773
10
5.0340348
20
-0.2375556
10
5.0164344
20
-0.2272609
10
4.9990392
20
-0.2172889
10
4.9818534
20
-0.2076352
10
4.9648812
20
-0.1982955
10
4.9481269
20
-0.1892652
10
4.9315944
20
-0.1805397
10
4.9152879
20
-0.1721146
10
4.8992112
20
-0.1639853
10
4.8833682
20
-0.1561469
10
4.8677629
20
-0.1485949
10
4.8523989
20
-0.1413245
10
4.83728
20
-0.1343309
10
4.8224098
20
-0.1276092
10
4.8077918
20
-0.1211546
10
4.7934297
20
-0.1149621
10
4.7793267
20
-0.1090267
10
4.7654863
20
-0.1033436
10
4.7519118
20
-0.0979075
10
4.7386065
20
-0.0927135
10
4.7255734
20
-0.0877564
10
4.7128157
20
-0.083031
10
4.7124464
20
-0.0224719
8
gear
0
LWPOLYLINE
5
1004
100
AcDbEntity
100
AcDbPolyline
90
5
70
0
43
0
10
3.8942934
20
2.0747615
10
3.8800974
20
2.1011902
10
3.8657222
20
2.1275217
10
3.8511682
20
2.1537548
10
3.8364362
20
2.1798884
8
gear_texts
0
LWPOLYLINE
5
1005
100
AcDbEntity
100
AcDbPolyline
90
2
70
0
43
0
10
3.8131571
20
2.0985922
10
3.9182872
20
2.1564511
8
gear_texts
0
LWPOLYLINE
5
1006
100
AcDbEntity
100
AcDbPolyline
90
5
70
0
43
0
10
3.9472469
20
2.1029736
10
3.9064777
20
2.1154759
10
3.8657222
20
2.1275217
10
3.8249846
20
2.1391117
10
3.7842694
20
2.1502469
8
gear_texts
0
LWPOLYLINE
5
1007
100
AcDbEntity
100
AcDbPolyline
90
5
70
0
43
0
10
3.8413398
20
2.0465495
10
3.8537172
20
2.0869044
10
3.8657222
20
2.1275217
10
3.8773518
20
2.1683979
10
3.888603
20
2.20953
8
gear_texts
0
LWPOLYLINE
5
1008
100
AcDbEntity
100
AcDbPolyline
90
3
70
0
43
0
10
3.9754768
20
2.0491072
10
4.0160754
20
2.0355944
10
3.8555216
20
1.9542159
8
gear_texts
0
LWPOLYLINE
5
1009
100
AcDbEntity
100
AcDbPolyline
90
3
70
0
43
0
10
3.8687188
20
1.9279577
10
3.8555216
20
1.9542159
10
3.8421461
20
1.9803837
8
gear_texts
0
LWPOLYLINE
5
1010
100
AcDbEntity
100
AcDbPolyline
90
7
70
0
43
0
10
4.1686093
20
1.7015296
10
4.0019575
20
1.6335062
10
4.0323054
20
1.6779657
10
4.0622319
20
1.7229126
10
4.0917317
20
1.7683432
10
4.1207996
20
1.8142537
10
3.9560592
20
1.7417239
8
gear_texts
0
LWPOLYLINE
5
1011
100
AcDbEntity
100
AcDbPolyline
90
5
70
0
43
0
10
4.1781038
20
1.5097202
10
4.1677429
20
1.5380914
10
4.1571894
20
1.5663916
10
4.1464437
20
1.5946193
10
4.1355064
20
1.6227734
8
gear_texts
0
LWPOLYLINE
5
1012
100
AcDbEntity
100
AcDbPolyline
90
5
70
0
43
0
10
4.1216747
20
1.48933
10
4.1114538
20
1.5173181
10
4.1010428
20
1.545236
10
4.0904422
20
1.5730826
10
4.0796526
20
1.6008564
8
gear_texts
0
LWPOLYLINE
5
1013
100
AcDbEntity
100
AcDbPolyline
90
9
70
0
43
0
10
4.1789835
20
1.3200013
10
4.1699124
20
1.348383
10
4.1606486
20
1.3767022
10
4.1511925
20
1.4049579
10
4.1415446
20
1.4331486
10
4.1890814
20
1.4177813
10
4.2365989
20
1.4018331
10
4.2840914
20
1.3853039
10
4.1128229
20
1.3299225
8
gear_texts
0
LWPOLYLINE
5
1014
100
AcDbEntity
100
AcDbPolyline
90
9
70
0
43
0
10
4.1925355
20
1.1691458
10
4.1556479
20
1.1893684
10
4.1474655
20
1.2175944
10
4.1678185
20
1.2544102
10
4.2827268
20
1.2889947
10
4.3201766
20
1.2682981
10
4.3286997
20
1.2388967
10
4.3081253
20
1.2013796
10
4.1925355
20
1.1691458
8
gear_texts
0
LWPOLYLINE
5
1015
100
AcDbEntity
100
AcDbPolyline
90
11
70
0
43
0
10
4.3019056
20
0.981715
10
4.3084807
20
0.9524445
10
4.3148566
20
0.9231299
10
4.3210331
20
0.8937726
10
4.3564285
20
0.8702509
10
4.3858473
20
0.8761276
10
4.4091674
20
0.9120026
10
4.402865
20
0.9419586
10
4.396359
20
0.9718711
10
4.3896499
20
1.0017387
10
4.2141614
20
0.9616914
8
gear_texts
0
LWPOLYLINE
5
1016
100
AcDbEntity
100
AcDbPolyline
90
2
70
0
43
0
10
4.2498751
20
0.7890299
10
4.3678589
20
0.8109347
8
gear_texts
0
LWPOLYLINE
5
1017
100
AcDbEntity
100
AcDbPolyline
90
2
70
0
43
0
10
4.3973548
20
0.8164109
10
4.4268508
20
0.8218871
8
gear_texts
0
LWPOLYLINE
5
1018
100
AcDbEntity
100
AcDbPolyline
90
4
70
0
43
0
10
4.3082124
20
0.6193243
10
4.2742371
20
0.6441301
10
4.2993929
20
0.6778471
10
4.4475627
20
0.7012077
8
gear_texts
0
LWPOLYLINE
5
1019
100
AcDbEntity
100
AcDbPolyline
90
5
70
0
43
0
10
4.3972966
20
0.6321305
10
4.3928972
20
0.6620123
10
4.3882948
20
0.6918635
10
4.3834895
20
0.7216827
10
4.3784816
20
0.7514685
8
gear_texts
0
LWPOLYLINE
5
1020
100
AcDbEntity
100
AcDbPolyline
90
10
70
0
43
0
10
4.3000413
20
0.4400578
10
4.2969501
20
0.4692828
10
4.2936602
20
0.4984861
10
4.2901718
20
0.5276664
10
4.3162352
20
0.5606869
10
4.3757353
20
0.568416
10
4.4092744
20
0.5423153
10
4.4128595
20
0.512325
10
4.4162408
20
0.4823109
10
4.4194178
20
0.4522746
8
gear_texts
0
LWPOLYLINE
5
1021
100
AcDbEntity
100
AcDbPolyline
90
6
70
0
43
0
10
4.3653932
20
0.3868443
10
4.3978226
20
0.3596008
10
4.4300819
20
0.331934
10
4.4322363
20
0.301807
10
4.404242
20
0.2698315
10
4.3144104
20
0.2643279
8
gear_texts
0
LWPOLYLINE
5
1022
100
AcDbEntity
100
AcDbPolyline
90
2
70
0
43
0
10
4.3056274
20
0.3815481
10
4.4849248
20
0.3974367
8
gear_texts
0
LWPOLYLINE
5
1023
100
AcDbEntity
100
AcDbPolyline
90
10
70
0
43
0
10
4.3221004
20
0.0587744
10
4.3224001
20
0.0293879
10
4.3225
20
0
10
4.3224001
20
-0.0293879
10
4.3520976
20
-0.0591823
10
4.4720865
20
-0.060814
10
4.5023959
20
-0.0306117
10
4.5025
20
0
10
4.5023959
20
0.0306117
10
4.5020838
20
0.0612219
8
gear_texts
0
LWPOLYLINE
5
1024
100
AcDbEntity
100
AcDbPolyline
90
2
70
0
43
0
10
4.5023959
20
0.0306117
10
4.3224001
20
0.0293879
8
gear_texts
0
LWPOLYLINE
5
1025
100
AcDbEntity
100
AcDbPolyline
90
5
70
0
43
0
10
4.4359303
20
-0.2415126
10
4.4374698
20
-0.211348
10
4.4388042
20
-0.1811735
10
4.4399333
20
-0.1509907
10
4.4408573
20
-0.120801
8
gear_texts
0
LWPOLYLINE
5
1026
100
AcDbEntity
100
AcDbPolyline
90
5
70
0
43
0
10
4.3760191
20
-0.2382508
10
4.3775377
20
-0.2084935
10
4.3788541
20
-0.1787266
10
4.379968
20
-0.1489515
10
4.3808795
20
-0.1191694
8
gear_texts
0
LWPOLYLINE
5
1027
100
AcDbEntity
100
AcDbPolyline
90
3
70
0
43
0
10
4.462167
20
-0.3038451
10
4.4899142
20
-0.3364171
10
4.3104174
20
-0.3229679
8
gear_texts
0
LWPOLYLINE
5
1028
100
AcDbEntity
100
AcDbPolyline
90
3
70
0
43
0
10
4.308122
20
-0.3522661
10
4.3104174
20
-0.3229679
10
4.3125136
20
-0.2936547
8
gear_texts
0
LWPOLYLINE
5
1029
100
AcDbEntity
100
AcDbPolyline
90
9
70
0
43
0
10
4.32346
20
-0.5019458
10
4.2969501
20
-0.4692828
10
4.3000413
20
-0.4400578
10
4.332798
20
-0.4136637
10
4.4522548
20
-0.4250685
10
4.4791061
20
-0.4583829
10
4.4758861
20
-0.488825
10
4.4426594
20
-0.5157847
10
4.32346
20
-0.5019458
8
gear_texts
0
LWPOLYLINE
5
1030
100
AcDbEntity
100
AcDbPolyline
90
11
70
0
43
0
10
4.353888
20
-0.7168092
10
4.3489139
20
-0.7463939
10
4.3437388
20
-0.7759441
10
4.3383629
20
-0.8054585
10
4.3622445
20
-0.8406122
10
4.3917026
20
-0.8462888
10
4.4268508
20
-0.8218871
10
4.4323363
20
-0.7917707
10
4.437617
20
-0.7616178
10
4.4426925
20
-0.7314297
10
4.2650835
20
-0.7021887
8
gear_texts
0
LWPOLYLINE
5
1031
100
AcDbEntity
100
AcDbPolyline
90
5
70
0
43
0
10
4.3243337
20
-1.0178134
10
4.3311537
20
-0.9883896
10
4.3377735
20
-0.95892
10
4.3441927
20
-0.9294061
10
4.3504112
20
-0.8998493
8
gear_texts
0
LWPOLYLINE
5
1032
100
AcDbEntity
100
AcDbPolyline
90
5
70
0
43
0
10
4.2659297
20
-1.0040669
10
4.2726575
20
-0.9750405
10
4.2791879
20
-0.9459689
10
4.2855205
20
-0.9168537
10
4.2916549
20
-0.887696
8
gear_texts
0
LWPOLYLINE
5
1033
100
AcDbEntity
100
AcDbPolyline
90
9
70
0
43
0
10
4.221433
20
-1.1772043
10
4.229339
20
-1.1484763
10
4.2370495
20
-1.1196953
10
4.2445642
20
-1.0908625
10
4.2518827
20
-1.0619793
10
4.2833052
20
-1.100819
10
4.3143944
20
-1.1401347
10
4.3451452
20
-1.1799235
10
4.1714359
20
-1.1327528
8
gear_texts
0
LWPOLYLINE
5
1034
100
AcDbEntity
100
AcDbPolyline
90
11
70
0
43
0
10
4.18913
20
-1.3861263
10
4.1796091
20
-1.4145754
10
4.1698951
20
-1.4429591
10
4.1599883
20
-1.4712761
10
4.1781038
20
-1.5097202
10
4.2063183
20
-1.5199152
10
4.2448379
20
-1.5012851
10
4.2549468
20
-1.4723906
10
4.264859
20
-1.4434279
10
4.274574
20
-1.4143986
10
4.103686
20
-1.3578541
8
gear_texts
0
LWPOLYLINE
5
1035
100
AcDbEntity
100
AcDbPolyline
90
7
70
0
43
0
10
4.0448962
20
-1.5240805
10
4.1010428
20
-1.545236
10
4.1464437
20
-1.5946193
10
4.1913601
20
-1.6446904
10
4.1243778
20
-1.6508524
10
4.0575081
20
-1.6561807
10
4.0019575
20
-1.6335062
8
gear_texts
0
LWPOLYLINE
5
1036
100
AcDbEntity
100
AcDbPolyline
90
5
70
0
43
0
10
4.1010428
20
-1.545236
10
4.0904422
20
-1.5730826
10
4.0796526
20
-1.6008564
10
4.0686744
20
-1.6285562
10
4.0575081
20
-1.6561807
8
gear_texts
0
LWPOLYLINE
5
1037
100
AcDbEntity
100
AcDbPolyline
90
5
70
0
43
0
10
4.04117
20
-1.8451968
10
4.0536218
20
-1.8176789
10
4.0658861
20
-1.7900771
10
4.0779626
20
-1.7623925
10
4.0898505
20
-1.7346265
8
gear_texts
0
LWPOLYLINE
5
1038
100
AcDbEntity
100
AcDbPolyline
90
5
70
0
43
0
10
3.9865904
20
-1.8202757
10
3.9988739
20
-1.7931295
10
4.0109727
20
-1.7659005
10
4.022886
20
-1.7385898
10
4.0346134
20
-1.7111988
8
gear_texts
0
LWPOLYLINE
5
1039
100
AcDbEntity
100
AcDbPolyline
90
15
70
0
43
0
10
3.8555216
20
-1.9542159
10
3.8687188
20
-1.9279577
10
3.8817372
20
-1.9016105
10
3.8945762
20
-1.8751753
10
3.9072352
20
-1.8486534
10
3.9614709
20
-1.8743143
10
3.9756663
20
-1.9142188
10
3.96256
20
-1.9412044
10
3.9492705
20
-1.9681003
10
3.9625575
20
-2.0084682
10
3.9893164
20
-2.0220313
10
4.0298222
20
-2.0082428
10
4.0433827
20
-1.9807984
10
4.0567564
20
-1.9532624
10
4.0428246
20
-1.9128057
8
gear_texts
0
LWPOLYLINE
5
1040
100
AcDbEntity
100
AcDbPolyline
90
7
70
0
43
0
10
3.9880255
20
-2.0900141
10
3.9737237
20
-2.1170796
10
3.9592382
20
-2.1440473
10
3.9445698
20
-2.1709159
10
3.9297189
20
-2.1976841
10
3.8657222
20
-2.1275217
10
3.8009566
20
-2.058333
8
gear_texts
0
LINE
5
1001
100
AcDbEntity
100
AcDbLine
10
0.1
20
0
30
0
11
-0.1
21
0
31
0
8
gear_guides
0
LINE
5
1002
100
AcDbEntity
100
AcDbLine
10
0
20
0.1
30
0
11
0
21
-0.1
31
0
8
gear_guides
0
CIRCLE
5
1003
100
AcDbEntity
100
AcDbCircle
10
4.9855078
20
0.3804096
30
0
40
0.098125
8
gear_guides
0
CIRCLE
5
1041
100
AcDbEntity
100
AcDbCircle
10
0
20
0
30
0
40
5
8
gear_guides
0
CIRCLE
5
1042
100
AcDbEntity
100
AcDbCircle
10
0
20
0
30
0
40
5.25
8
gear_guides
0
CIRCLE
5
1043
100
AcDbEntity
100
AcDbCircle
10
0
20
0
30
0
40
4.4550326
8
gear_guides
0
ENDSEC
0
SECTION
2
OBJECTS
0
DICTIONARY
5
21D
330
0
100
AcDbDictionary
281
1
3
ACAD_CIP_PREVIOUS_PRODUCT_INFO
350
291
3
ACAD_COLOR
350
273
3
ACAD_DETAILVIEWSTYLE
350
27B
3
ACAD_GROUP
350
21E
3
ACAD_LAYOUT
350
272
3
ACAD_MATERIAL
350
221
3
ACAD_MLEADERSTYLE
350
276
3
ACAD_MLINESTYLE
350
26F
3
ACAD_PLOTSETTINGS
350
271
3
ACAD_PLOTSTYLENAME
350
21F
3
ACAD_SCALELIST
350
253
3
ACAD_SECTIONVIEWSTYLE
350
278
3
ACAD_TABLESTYLE
350
274
3
ACAD_VISUALSTYLE
350
23A
3
ACDB_RECOMPOSE_DATA
350
1057
3
AcDbVariableDictionary
350
29D
0
DICTIONARY
5
297
330
213
100
AcDbDictionary
280
1
281
1
3
ACAD_LAYERSTATES
360
298
0
DICTIONARY
5
292
330
265
100
AcDbDictionary
280
1
281
1
3
ADSK_XREC_LAYER_RECONCILED
360
293
0
XRECORD
5
291
102
{ACAD_REACTORS
330
21D
102
}
330
21D
100
AcDbXrecord
280
1
300
ACDMAC
300
2013
300
ACDMAC_F_S
0
DICTIONARY
5
273
102
{ACAD_REACTORS
330
21D
102
}
330
21D
100
AcDbDictionary
281
1
0
DICTIONARY
5
27B
102
{ACAD_REACTORS
330
21D
102
}
330
21D
100
AcDbDictionary
281
1
3
Imperial24
350
27C
0
DICTIONARY
5
21E
102
{ACAD_REACTORS
330
21D
102
}
330
21D
100
AcDbDictionary
281
1
0
DICTIONARY
5
272
102
{ACAD_REACTORS
330
21D
102
}
330
21D
100
AcDbDictionary
281
1
3
Layout1
350
280
3
Model
350
284
0
DICTIONARY
5
221
102
{ACAD_REACTORS
330
21D
102
}
330
21D
100
AcDbDictionary
281
1
3
ByBlock
350
22A
3
ByLayer
350
222
3
Global
350
232
0
DICTIONARY
5
276
102
{ACAD_REACTORS
330
21D
102
}
330
21D
100
AcDbDictionary
281
1
3
Standard
350
277
0
DICTIONARY
5
26F
102
{ACAD_REACTORS
330
21D
102
}
330
21D
100
AcDbDictionary
281
1
3
Standard
350
270
0
DICTIONARY
5
271
102
{ACAD_REACTORS
330
21D
102
}
330
21D
100
AcDbDictionary
281
1
0
ACDBDICTIONARYWDFLT
5
21F
102
{ACAD_REACTORS
330
21D
102
}
330
21D
100
AcDbDictionary
281
1
3
Normal
350
220
100
AcDbDictionaryWithDefault
340
220
0
DICTIONARY
5
253
102
{ACAD_REACTORS
330
21D
102
}
330
21D
100
AcDbDictionary
281
1
3
A0
350
254
3
A1
350
255
3
A2
350
256
3
A3
350
257
3
A4
350
258
3
A5
350
259
3
A6
350
25A
3
A7
350
25B
3
A8
350
25C
3
A9
350
25D
3
B0
350
25E
3
B1
350
25F
3
B2
350
260
3
B3
350
261
3
B4
350
262
3
B5
350
263
3
B6
350
264
0
DICTIONARY
5
278
102
{ACAD_REACTORS
330
21D
102
}
330
21D
100
AcDbDictionary
281
1
3
Imperial24
350
27A
0
DICTIONARY
5
274
102
{ACAD_REACTORS
330
21D
102
}
330
21D
100
AcDbDictionary
281
1
3
Standard
350
275
0
DICTIONARY
5
23A
102
{ACAD_REACTORS
330
21D
102
}
330
21D
100
AcDbDictionary
281
1
3
2dWireframe
350
240
3
Basic
350
23F
3
Brighten
350
246
3
ColorChange
350
24A
3
Conceptual
350
243
3
Dim
350
245
3
EdgeColorOff
350
252
3
Facepattern
350
249
3
Flat
350
23B
3
FlatWithEdges
350
23C
3
Gouraud
350
23D
3
GouraudWithEdges
350
23E
3
Hidden
350
242
3
JitterOff
350
250
3
Linepattern
350
248
3
OverhangOff
350
251
3
Realistic
350
244
3
Shaded
350
24F
3
Shaded with edges
350
24E
3
Shades of Gray
350
24B
3
Sketchy
350
24C
3
Thicken
350
247
3
Wireframe
350
241
3
X-Ray
350
24D
0
XRECORD
5
1057
102
{ACAD_REACTORS
330
21D
102
}
330
21D
100
AcDbXrecord
280
1
90
1
330
275
0
DICTIONARY
5
29D
102
{ACAD_REACTORS
330
21D
102
}
330
21D
100
AcDbDictionary
281
1
3
CANNOSCALE
350
2A3
3
CMLEADERSTYLE
350
29F
3
CTABLESTYLE
350
29E
3
CVIEWDETAILSTYLE
350
2A0
3
CVIEWSECTIONSTYLE
350
2A1
3
LAYEREVAL
350
2A5
3
LAYERNOTIFY
350
2A6
3
LIGHTINGUNITS
350
2A4
3
MSLTSCALE
350
2A2
0
DICTIONARY
5
298
102
{ACAD_REACTORS
330
297
102
}
330
297
100
AcDbDictionary
281
1
0
XRECORD
5
293
102
{ACAD_REACTORS
330
292
102
}
330
292
100
AcDbXrecord
280
1
290
1
0
ACDBDETAILVIEWSTYLE
5
27C
102
{ACAD_REACTORS
330
27B
102
}
330
27B
100
AcDbModelDocViewStyle
70
0
3
Imperial24
290
0
100
AcDbDetailViewStyle
70
0
71
0
90
3
71
1
340
266
62
256
40
0.24
340
0
62
256
40
0.24
300

40
0.36
280
3
71
2
340
26D
90
25
62
256
71
3
340
266
62
256
40
0.24
90
1
40
0.75
90
1
300
%<AcVar ViewType  "%tc1">% %<AcVar ViewDetailId>%PSCALE %<AcVar ViewScale  "%sn">%
71
4
340
26D
90
25
62
256
340
26D
90
25
62
256
280
0
0
LAYOUT
5
280
102
{ACAD_REACTORS
330
272
102
}
330
272
100
AcDbPlotSettings
1

2
HP_LaserJet_P1505
4

6

40
0.0
41
0.0
42
0.0
43
0.0
44
0.0
45
0.0
46
0.0
47
0.0
48
0.0
49
0.0
140
0.0
141
0.0
142
1.0
143
1.0
70
688
72
0
73
0
74
5
7

75
16
147
1.0
76
0
77
2
78
300
148
0.0
149
0.0
100
AcDbLayout
1
Layout1
70
1
71
1
10
0.0
20
0.0
11
12.0
21
9.0
12
0.0
22
0.0
32
0.0
14
0.0
24
0.0
34
0.0
15
0.0
25
0.0
35
0.0
146
0.0
13
0.0
23
0.0
33
0.0
16
1.0
26
0.0
36
0.0
17
0.0
27
1.0
37
0.0
76
0
330
27D
0
LAYOUT
5
284
102
{ACAD_REACTORS
330
272
102
}
330
272
100
AcDbPlotSettings
1

2
HP_LaserJet_P1505
4

6

40
0.0
41
0.0
42
0.0
43
0.0
44
0.0
45
0.0
46
0.0
47
0.0
48
0.0
49
0.0
140
0.0
141
0.0
142
1.0
143
1.0
70
1712
72
0
73
0
74
0
7

75
0
147
1.0
76
0
77
2
78
300
148
0.0
149
0.0
100
AcDbLayout
1
Model
70
1
71
0
10
0.0
20
0.0
11
12.0
21
9.0
12
0.0
22
0.0
32
0.0
14
0.0
24
0.0
34
0.0
15
0.0
25
0.0
35
0.0
146
0.0
13
0.0
23
0.0
33
0.0
16
1.0
26
0.0
36
0.0
17
0.0
27
1.0
37
0.0
76
0
330
281
331
285
0
MATERIAL
5
22A
102
{ACAD_XDICTIONARY
360
22B
102
}
102
{ACAD_REACTORS
330
221
102
}
330
221
100
AcDbMaterial
1
ByBlock
72
0
43
0.0208333333333333
43
0.0
43
0.0
43
0.0
43
0.0
43
0.0208333333333333
43
0.0
43
0.0
43
0.0
43
0.0
43
1.0
43
0.0
43
0.0
43
0.0
43
0.0
43
1.0
77
0
47
0.0208333333333333
47
0.0
47
0.0
47
0.0
47
0.0
47
0.0208333333333333
47
0.0
47
0.0
47
0.0
47
0.0
47
1.0
47
0.0
47
0.0
47
0.0
47
0.0
47
1.0
171
0
49
0.0208333333333333
49
0.0
49
0.0
49
0.0
49
0.0
49
0.0208333333333333
49
0.0
49
0.0
49
0.0
49
0.0
49
1.0
49
0.0
49
0.0
49
0.0
49
0.0
49
1.0
175
0
142
0.0208333333333333
142
0.0
142
0.0
142
0.0
142
0.0
142
0.0208333333333333
142
0.0
142
0.0
142
0.0
142
0.0
142
1.0
142
0.0
142
0.0
142
0.0
142
0.0
142
1.0
179
0
144
0.0208333333333333
144
0.0
144
0.0
144
0.0
144
0.0
144
0.0208333333333333
144
0.0
144
0.0
144
0.0
144
0.0
144
1.0
144
0.0
144
0.0
144
0.0
144
0.0
144
1.0
147
0.0208333333333333
147
0.0
147
0.0
147
0.0
147
0.0
147
0.0208333333333333
147
0.0
147
0.0
147
0.0
147
0.0
147
1.0
147
0.0
147
0.0
147
0.0
147
0.0
147
1.0
0
MATERIAL
5
222
102
{ACAD_XDICTIONARY
360
223
102
}
102
{ACAD_REACTORS
330
221
102
}
330
221
100
AcDbMaterial
1
ByLayer
72
0
43
0.0208333333333333
43
0.0
43
0.0
43
0.0
43
0.0
43
0.0208333333333333
43
0.0
43
0.0
43
0.0
43
0.0
43
1.0
43
0.0
43
0.0
43
0.0
43
0.0
43
1.0
77
0
47
0.0208333333333333
47
0.0
47
0.0
47
0.0
47
0.0
47
0.0208333333333333
47
0.0
47
0.0
47
0.0
47
0.0
47
1.0
47
0.0
47
0.0
47
0.0
47
0.0
47
1.0
171
0
49
0.0208333333333333
49
0.0
49
0.0
49
0.0
49
0.0
49
0.0208333333333333
49
0.0
49
0.0
49
0.0
49
0.0
49
1.0
49
0.0
49
0.0
49
0.0
49
0.0
49
1.0
175
0
142
0.0208333333333333
142
0.0
142
0.0
142
0.0
142
0.0
142
0.0208333333333333
142
0.0
142
0.0
142
0.0
142
0.0
142
1.0
142
0.0
142
0.0
142
0.0
142
0.0
142
1.0
179
0
144
0.0208333333333333
144
0.0
144
0.0
144
0.0
144
0.0
144
0.0208333333333333
144
0.0
144
0.0
144
0.0
144
0.0
144
1.0
144
0.0
144
0.0
144
0.0
144
0.0
144
1.0
147
0.0208333333333333
147
0.0
147
0.0
147
0.0
147
0.0
147
0.0208333333333333
147
0.0
147
0.0
147
0.0
147
0.0
147
1.0
147
0.0
147
0.0
147
0.0
147
0.0
147
1.0
0
MATERIAL
5
232
102
{ACAD_XDICTIONARY
360
233
102
}
102
{ACAD_REACTORS
330
221
102
}
330
221
100
AcDbMaterial
1
Global
72
0
43
0.0208333333333333
43
0.0
43
0.0
43
0.0
43
0.0
43
0.0208333333333333
43
0.0
43
0.0
43
0.0
43
0.0
43
1.0
43
0.0
43
0.0
43
0.0
43
0.0
43
1.0
77
0
47
0.0208333333333333
47
0.0
47
0.0
47
0.0
47
0.0
47
0.0208333333333333
47
0.0
47
0.0
47
0.0
47
0.0
47
1.0
47
0.0
47
0.0
47
0.0
47
0.0
47
1.0
171
0
49
0.0208333333333333
49
0.0
49
0.0
49
0.0
49
0.0
49
0.0208333333333333
49
0.0
49
0.0
49
0.0
49
0.0
49
1.0
49
0.0
49
0.0
49
0.0
49
0.0
49
1.0
175
0
142
0.0208333333333333
142
0.0
142
0.0
142
0.0
142
0.0
142
0.0208333333333333
142
0.0
142
0.0
142
0.0
142
0.0
142
1.0
142
0.0
142
0.0
142
0.0
142
0.0
142
1.0
179
0
144
0.0208333333333333
144
0.0
144
0.0
144
0.0
144
0.0
144
0.0208333333333333
144
0.0
144
0.0
144
0.0
144
0.0
144
1.0
144
0.0
144
0.0
144
0.0
144
0.0
144
1.0
147
0.0208333333333333
147
0.0
147
0.0
147
0.0
147
0.0
147
0.0208333333333333
147
0.0
147
0.0
147
0.0
147
0.0
147
1.0
147
0.0
147
0.0
147
0.0
147
0.0
147
1.0
0
MLEADERSTYLE
5
277
102
{ACAD_REACTORS
330
276
102
}
330
276
100
AcDbMLeaderStyle
179
2
170
2
171
1
172
0
90
2
40
0.0
41
0.0
173
1
91
-1056964608
340
26B
92
-2
290
1
42
0.09
291
1
43
0.36
3
Standard
44
0.18
300

342
266
174
1
178
6
175
1
176
0
93
-1056964608
45
0.18
292
0
297
0
46
0.18
94
-1056964608
47
1.0
49
1.0
140
1.0
293
1
141
0.0
294
1
177
0
142
1.0
295
0
296
0
143
0.125
271
0
272
9
273
9
298
0
0
MLINESTYLE
5
270
102
{ACAD_REACTORS
330
26F
102
}
330
26F
100
AcDbMlineStyle
2
STANDARD
70
0
3

62
256
51
90.0
52
90.0
71
2
49
0.5
62
256
6
BYLAYER
49
-0.5
62
256
6
BYLAYER
0
ACDBPLACEHOLDER
5
220
102
{ACAD_REACTORS
330
21F
102
}
330
21F
0
SCALE
5
254
102
{ACAD_REACTORS
330
253
102
}
330
253
100
AcDbScale
70
0
300
1:1
140
1.0
141
1.0
290
1
0
SCALE
5
255
102
{ACAD_REACTORS
330
253
102
}
330
253
100
AcDbScale
70
0
300
1/128" = 1'-0"
140
0.0078125
141
12.0
290
0
0
SCALE
5
256
102
{ACAD_REACTORS
330
253
102
}
330
253
100
AcDbScale
70
0
300
1/64" = 1'-0"
140
0.015625
141
12.0
290
0
0
SCALE
5
257
102
{ACAD_REACTORS
330
253
102
}
330
253
100
AcDbScale
70
0
300
1/32" = 1'-0"
140
0.03125
141
12.0
290
0
0
SCALE
5
258
102
{ACAD_REACTORS
330
253
102
}
330
253
100
AcDbScale
70
0
300
1/16" = 1'-0"
140
0.0625
141
12.0
290
0
0
SCALE
5
259
102
{ACAD_REACTORS
330
253
102
}
330
253
100
AcDbScale
70
0
300
3/32" = 1'-0"
140
0.09375
141
12.0
290
0
0
SCALE
5
25A
102
{ACAD_REACTORS
330
253
102
}
330
253
100
AcDbScale
70
0
300
1/8" = 1'-0"
140
0.125
141
12.0
290
0
0
SCALE
5
25B
102
{ACAD_REACTORS
330
253
102
}
330
253
100
AcDbScale
70
0
300
3/16" = 1'-0"
140
0.1875
141
12.0
290
0
0
SCALE
5
25C
102
{ACAD_REACTORS
330
253
102
}
330
253
100
AcDbScale
70
0
300
1/4" = 1'-0"
140
0.25
141
12.0
290
0
0
SCALE
5
25D
102
{ACAD_REACTORS
330
253
102
}
330
253
100
AcDbScale
70
0
300
3/8" = 1'-0"
140
0.375
141
12.0
290
0
0
SCALE
5
25E
102
{ACAD_REACTORS
330
253
102
}
330
253
100
AcDbScale
70
0
300
1/2" = 1'-0"
140
0.5
141
12.0
290
0
0
SCALE
5
25F
102
{ACAD_REACTORS
330
253
102
}
330
253
100
AcDbScale
70
0
300
3/4" = 1'-0"
140
0.75
141
12.0
290
0
0
SCALE
5
260
102
{ACAD_REACTORS
330
253
102
}
330
253
100
AcDbScale
70
0
300
1" = 1'-0"
140
1.0
141
12.0
290
0
0
SCALE
5
261
102
{ACAD_REACTORS
330
253
102
}
330
253
100
AcDbScale
70
0
300
1-1/2" = 1'-0"
140
1.5
141
12.0
290
0
0
SCALE
5
262
102
{ACAD_REACTORS
330
253
102
}
330
253
100
AcDbScale
70
0
300
3" = 1'-0"
140
3.0
141
12.0
290
0
0
SCALE
5
263
102
{ACAD_REACTORS
330
253
102
}
330
253
100
AcDbScale
70
0
300
6" = 1'-0"
140
6.0
141
12.0
290
0
0
SCALE
5
264
102
{ACAD_REACTORS
330
253
102
}
330
253
100
AcDbScale
70
0
300
1'-0" = 1'-0"
140
12.0
141
12.0
290
0
0
ACDBSECTIONVIEWSTYLE
5
27A
102
{ACAD_REACTORS
330
278
102
}
330
278
100
AcDbModelDocViewStyle
70
0
3
Imperial24
290
0
100
AcDbSectionViewStyle
70
0
71
0
90
78
71
1
340
266
62
256
40
0.24
340
0
340
0
62
256
40
0.24
300
I, O, Q, S, X, Z
40
0.48
90
3
40
0.18
90
1
71
2
340
279
90
25
62
256
340
26D
90
50
62
256
40
0.24
40
0.0
40
0.24
71
3
340
266
62
256
40
0.24
90
1
40
0.75
90
1
300
%<AcVar ViewType  "%tc1">% %<AcVar ViewSectionStartId>%-%<AcVar ViewSectionEndId>%PSCALE %<AcVar ViewScale  "%sn">%
71
4
62
256
62
257
300
ANSI31
40
1.0
90
0
290
0
290
0
90
6
40
0.0
40
1.570796326794896
40
0.2617993877991494
40
1.308996938995747
40
-0.2617993877991494
40
1.832595714594044
0
TABLESTYLE
5
275
102
{ACAD_XDICTIONARY
360
2A7
102
}
102
{ACAD_REACTORS
330
274
102
}
330
274
100
AcDbTableStyle
280
0
3
Standard
70
0
71
0
40
0.06
41
0.06
280
0
281
0
7
STANDARD
140
0.18
170
2
62
0
63
7
283
0
90
512
91
0
1

274
-2
284
1
64
0
275
-2
285
1
65
0
276
-2
286
1
66
0
277
-2
287
1
67
0
278
-2
288
1
68
0
279
-2
289
1
69
0
7
STANDARD
140
0.25
170
5
62
0
63
7
283
0
90
512
91
0
1

274
-2
284
1
64
0
275
-2
285
1
65
0
276
-2
286
1
66
0
277
-2
287
1
67
0
278
-2
288
1
68
0
279
-2
289
1
69
0
7
STANDARD
140
0.18
170
5
62
0
63
7
283
0
90
512
91
0
1

274
-2
284
1
64
0
275
-2
285
1
65
0
276
-2
286
1
66
0
277
-2
287
1
67
0
278
-2
288
1
68
0
279
-2
289
1
69
0
0
VISUALSTYLE
5
240
102
{ACAD_REACTORS
330
23A
102
}
330
23A
100
AcDbVisualStyle
2
2dWireframe
70
4
177
3
291
0
70
58
90
0
176
1
90
2
176
1
90
0
176
1
90
0
176
1
40
0.6
176
1
40
30.0
176
1
62
7
420
16777215
176
1
90
1
176
1
90
4
176
1
62
7
176
1
62
257
176
1
90
1
176
1
90
1
176
1
40
1.0
176
1
90
0
176
1
62
257
176
1
40
1.0
176
1
90
1
176
1
90
6
176
1
90
2
176
1
62
7
176
1
90
5
176
1
90
0
176
1
90
0
176
1
290
0
176
1
90
1
176
1
40
0.0
176
1
90
0
176
1
290
1
176
1
290
1
176
1
290
0
176
1
290
0
176
1
290
0
176
1
290
0
176
1
290
0
176
1
290
0
176
1
290
0
176
1
90
50
176
1
40
0.0
176
1
40
1.0
176
1
90
0
176
1
62
18
176
1
90
50
176
1
90
3
176
1
62
5
420
255
176
1
290
0
176
1
90
50
176
1
90
50
176
1
90
50
176
1
290
0
176
1
90
50
176
1
62
256
176
0
40
1.0
176
0
90
2
176
1
1
strokes_ogs.tif
176
1
290
0
176
1
40
1.0
176
1
40
1.0
176
1
1001
ACAD
1000
AcDbSavedByObjectVersion
1070
0
0
VISUALSTYLE
5
23F
102
{ACAD_REACTORS
330
23A
102
}
330
23A
100
AcDbVisualStyle
2
Basic
70
7
177
3
291
1
70
58
90
1
176
1
90
0
176
1
90
1
176
1
90
0
176
1
40
0.6
176
1
40
30.0
176
1
62
7
420
16777215
176
1
90
0
176
1
90
4
176
1
62
7
176
1
62
257
176
1
90
1
176
1
90
1
176
1
40
1.0
176
1
90
8
176
1
62
7
176
1
40
1.0
176
1
90
1
176
1
90
6
176
1
90
2
176
1
62
7
176
1
90
5
176
1
90
0
176
1
90
0
176
1
290
0
176
1
90
1
176
1
40
0.0
176
1
90
0
176
1
290
0
176
1
290
1
176
1
290
1
176
1
290
0
176
1
290
0
176
1
290
0
176
1
290
0
176
1
290
0
176
1
290
0
176
1
90
50
176
1
40
0.0
176
1
40
1.0
176
1
90
0
176
1
62
18
176
1
90
50
176
1
90
3
176
1
62
5
420
255
176
1
290
0
176
1
90
50
176
1
90
50
176
1
90
50
176
1
290
0
176
1
90
50
176
1
62
256
176
0
40
1.0
176
0
90
2
176
1
1
strokes_ogs.tif
176
1
290
0
176
1
40
1.0
176
1
40
1.0
176
1
1001
ACAD
1000
AcDbSavedByObjectVersion
1070
0
0
VISUALSTYLE
5
246
102
{ACAD_REACTORS
330
23A
102
}
330
23A
100
AcDbVisualStyle
2
Brighten
70
12
177
3
291
1
70
58
90
2
176
1
90
2
176
1
90
0
176
1
90
0
176
1
40
0.6
176
1
40
30.0
176
1
62
7
420
16777215
176
1
90
1
176
1
90
4
176
1
62
7
176
1
62
257
176
1
90
1
176
1
90
1
176
1
40
1.0
176
1
90
8
176
1
62
7
176
1
40
1.0
176
1
90
1
176
1
90
6
176
1
90
2
176
1
62
7
176
1
90
5
176
1
90
0
176
1
90
0
176
1
290
0
176
1
90
1
176
1
40
50.0
176
1
90
0
176
1
290
0
176
1
290
1
176
1
290
1
176
1
290
0
176
1
290
0
176
1
290
0
176
1
290
0
176
1
290
0
176
1
290
0
176
1
90
50
176
1
40
0.0
176
1
40
1.0
176
1
90
0
176
1
62
18
176
1
90
50
176
1
90
3
176
1
62
5
420
255
176
1
290
0
176
1
90
50
176
1
90
50
176
1
90
50
176
1
290
0
176
1
90
50
176
1
62
256
176
0
40
1.0
176
0
90
2
176
1
1
strokes_ogs.tif
176
1
290
0
176
1
40
1.0
176
1
40
1.0
176
1
1001
ACAD
1000
AcDbSavedByObjectVersion
1070
0
0
VISUALSTYLE
5
24A
102
{ACAD_REACTORS
330
23A
102
}
330
23A
100
AcDbVisualStyle
2
ColorChange
70
16
177
3
291
1
70
58
90
2
176
1
90
2
176
1
90
3
176
1
90
0
176
1
40
0.6
176
1
40
30.0
176
1
62
8
420
8421504
176
1
90
1
176
1
90
4
176
1
62
7
176
1
62
257
176
1
90
1
176
1
90
1
176
1
40
1.0
176
1
90
8
176
1
62
8
420
8421504
176
1
40
1.0
176
1
90
1
176
1
90
6
176
1
90
2
176
1
62
7
176
1
90
5
176
1
90
0
176
1
90
0
176
1
290
0
176
1
90
1
176
1
40
0.0
176
1
90
0
176
1
290
0
176
1
290
1
176
1
290
1
176
1
290
0
176
1
290
0
176
1
290
0
176
1
290
0
176
1
290
0
176
1
290
0
176
1
90
50
176
1
40
0.0
176
1
40
1.0
176
1
90
0
176
1
62
18
176
1
90
50
176
1
90
3
176
1
62
5
420
255
176
1
290
0
176
1
90
50
176
1
90
50
176
1
90
50
176
1
290
0
176
1
90
50
176
1
62
256
176
0
40
1.0
176
0
90
2
176
1
1
strokes_ogs.tif
176
1
290
0
176
1
40
1.0
176
1
40
1.0
176
1
1001
ACAD
1000
AcDbSavedByObjectVersion
1070
0
0
VISUALSTYLE
5
243
102
{ACAD_REACTORS
330
23A
102
}
330
23A
100
AcDbVisualStyle
2
Conceptual
70
9
177
3
291
0
70
58
90
3
176
1
90
2
176
1
90
0
176
1
90
0
176
1
40
0.6
176
1
40
30.0
176
1
62
7
420
16777215
176
1
90
2
176
1
90
2
176
1
62
7
176
1
62
257
176
1
90
1
176
1
90
1
176
1
40
179.0
176
1
90
8
176
1
62
7
176
1
40
1.0
176
1
90
1
176
1
90
6
176
1
90
2
176
1
62
7
176
1
90
3
176
1
90
0
176
1
90
0
176
1
290
0
176
1
90
1
176
1
40
0.0
176
1
90
0
176
1
290
0
176
1
290
1
176
1
290
1
176
1
290
0
176
1
290
0
176
1
290
0
176
1
290
0
176
1
290
0
176
1
290
0
176
1
90
50
176
1
40
0.0
176
1
40
1.0
176
1
90
0
176
1
62
18
176
1
90
50
176
1
90
3
176
1
62
5
420
255
176
1
290
0
176
1
90
50
176
1
90
50
176
1
90
50
176
1
290
0
176
1
90
50
176
1
62
256
176
0
40
1.0
176
0
90
2
176
1
1
strokes_ogs.tif
176
1
290
0
176
1
40
1.0
176
1
40
1.0
176
1
1001
ACAD
1000
AcDbSavedByObjectVersion
1070
0
0
VISUALSTYLE
5
245
102
{ACAD_REACTORS
330
23A
102
}
330
23A
100
AcDbVisualStyle
2
Dim
70
11
177
3
291
1
70
58
90
2
176
1
90
2
176
1
90
0
176
1
90
0
176
1
40
0.6
176
1
40
30.0
176
1
62
7
420
16777215
176
1
90
1
176
1
90
4
176
1
62
7
176
1
62
257
176
1
90
1
176
1
90
1
176
1
40
1.0
176
1
90
8
176
1
62
7
176
1
40
1.0
176
1
90
1
176
1
90
6
176
1
90
2
176
1
62
7
176
1
90
5
176
1
90
0
176
1
90
0
176
1
290
0
176
1
90
1
176
1
40
-50.0
176
1
90
0
176
1
290
0
176
1
290
1
176
1
290
1
176
1
290
0
176
1
290
0
176
1
290
0
176
1
290
0
176
1
290
0
176
1
290
0
176
1
90
50
176
1
40
0.0
176
1
40
1.0
176
1
90
0
176
1
62
18
176
1
90
50
176
1
90
3
176
1
62
5
420
255
176
1
290
0
176
1
90
50
176
1
90
50
176
1
90
50
176
1
290
0
176
1
90
50
176
1
62
256
176
0
40
1.0
176
0
90
2
176
1
1
strokes_ogs.tif
176
1
290
0
176
1
40
1.0
176
1
40
1.0
176
1
1001
ACAD
1000
AcDbSavedByObjectVersion
1070
0
0
VISUALSTYLE
5
252
102
{ACAD_REACTORS
330
23A
102
}
330
23A
100
AcDbVisualStyle
2
EdgeColorOff
70
22
177
3
291
1
70
58
90
2
176
0
90
2
176
0
90
0
176
0
90
0
176
0
40
0.6
176
0
40
30.0
176
0
62
7
420
16777215
176
0
90
1
176
0
90
4
176
0
62
7
176
0
62
257
176
0
90
1
176
0
90
1
176
0
40
1.0
176
0
90
8
176
2
62
7
176
0
40
1.0
176
0
90
1
176
0
90
6
176
0
90
2
176
0
62
7
176
0
90
5
176
0
90
0
176
0
90
0
176
0
290
0
176
0
90
1
176
0
40
0.0
176
0
90
0
176
0
290
0
176
1
290
1
176
1
290
1
176
1
290
0
176
1
290
0
176
1
290
0
176
1
290
0
176
1
290
0
176
1
290
0
176
1
90
50
176
0
40
0.0
176
0
40
1.0
176
0
90
0
176
0
62
18
176
0
90
50
176
0
90
3
176
0
62
5
420
255
176
0
290
0
176
1
90
50
176
0
90
50
176
0
90
50
176
0
290
0
176
1
90
50
176
0
62
256
176
0
40
1.0
176
0
90
2
176
0
1
strokes_ogs.tif
176
0
290
0
176
1
40
1.0
176
0
40
1.0
176
0
1001
ACAD
1000
AcDbSavedByObjectVersion
1070
0
0
VISUALSTYLE
5
249
102
{ACAD_REACTORS
330
23A
102
}
330
23A
100
AcDbVisualStyle
2
Facepattern
70
15
177
3
291
1
70
58
90
2
176
1
90
2
176
1
90
0
176
1
90
0
176
1
40
0.6
176
1
40
30.0
176
1
62
7
420
16777215
176
1
90
1
176
1
90
4
176
1
62
7
176
1
62
257
176
1
90
1
176
1
90
1
176
1
40
1.0
176
1
90
8
176
1
62
7
176
1
40
1.0
176
1
90
1
176
1
90
6
176
1
90
2
176
1
62
7
176
1
90
5
176
1
90
0
176
1
90
0
176
1
290
0
176
1
90
1
176
1
40
0.0
176
1
90
0
176
1
290
0
176
1
290
1
176
1
290
1
176
1
290
0
176
1
290
0
176
1
290
0
176
1
290
0
176
1
290
0
176
1
290
0
176
1
90
50
176
1
40
0.0
176
1
40
1.0
176
1
90
0
176
1
62
18
176
1
90
50
176
1
90
3
176
1
62
5
420
255
176
1
290
0
176
1
90
50
176
1
90
50
176
1
90
50
176
1
290
0
176
1
90
50
176
1
62
256
176
0
40
1.0
176
0
90
2
176
1
1
strokes_ogs.tif
176
1
290
0
176
1
40
1.0
176
1
40
1.0
176
1
1001
ACAD
1000
AcDbSavedByObjectVersion
1070
0
0
VISUALSTYLE
5
23B
102
{ACAD_REACTORS
330
23A
102
}
330
23A
100
AcDbVisualStyle
2
Flat
70
0
177
3
291
1
70
58
90
2
176
1
90
1
176
1
90
1
176
1
90
2
176
1
40
0.6
176
1
40
30.0
176
1
62
7
420
16777215
176
1
90
0
176
1
90
0
176
1
62
7
176
1
62
257
176
1
90
1
176
1
90
1
176
1
40
1.0
176
1
90
8
176
1
62
7
176
1
40
1.0
176
1
90
1
176
1
90
6
176
1
90
2
176
1
62
7
176
1
90
5
176
1
90
0
176
1
90
0
176
1
290
0
176
1
90
13
176
1
40
0.0
176
1
90
0
176
1
290
0
176
1
290
1
176
1
290
1
176
1
290
0
176
1
290
0
176
1
290
0
176
1
290
0
176
1
290
0
176
1
290
0
176
1
90
50
176
1
40
0.0
176
1
40
1.0
176
1
90
0
176
1
62
18
176
1
90
50
176
1
90
3
176
1
62
5
420
255
176
1
290
0
176
1
90
50
176
1
90
50
176
1
90
50
176
1
290
0
176
1
90
50
176
1
62
256
176
0
40
1.0
176
0
90
2
176
1
1
strokes_ogs.tif
176
1
290
0
176
1
40
1.0
176
1
40
1.0
176
1
1001
ACAD
1000
AcDbSavedByObjectVersion
1070
0
0
VISUALSTYLE
5
23C
102
{ACAD_REACTORS
330
23A
102
}
330
23A
100
AcDbVisualStyle
2
FlatWithEdges
70
1
177
3
291
1
70
58
90
2
176
1
90
1
176
1
90
1
176
1
90
2
176
1
40
0.6
176
1
40
30.0
176
1
62
7
420
16777215
176
1
90
1
176
1
90
0
176
1
62
7
176
1
62
257
176
1
90
1
176
1
90
1
176
1
40
1.0
176
1
90
0
176
1
62
257
176
1
40
1.0
176
1
90
1
176
1
90
6
176
1
90
2
176
1
62
7
176
1
90
5
176
1
90
0
176
1
90
0
176
1
290
0
176
1
90
13
176
1
40
0.0
176
1
90
0
176
1
290
0
176
1
290
1
176
1
290
1
176
1
290
0
176
1
290
0
176
1
290
0
176
1
290
0
176
1
290
0
176
1
290
0
176
1
90
50
176
1
40
0.0
176
1
40
1.0
176
1
90
0
176
1
62
18
176
1
90
50
176
1
90
3
176
1
62
5
420
255
176
1
290
0
176
1
90
50
176
1
90
50
176
1
90
50
176
1
290
0
176
1
90
50
176
1
62
256
176
0
40
1.0
176
0
90
2
176
1
1
strokes_ogs.tif
176
1
290
0
176
1
40
1.0
176
1
40
1.0
176
1
1001
ACAD
1000
AcDbSavedByObjectVersion
1070
0
0
VISUALSTYLE
5
23D
102
{ACAD_REACTORS
330
23A
102
}
330
23A
100
AcDbVisualStyle
2
Gouraud
70
2
177
3
291
1
70
58
90
2
176
1
90
2
176
1
90
1
176
1
90
2
176
1
40
0.6
176
1
40
30.0
176
1
62
7
420
16777215
176
1
90
0
176
1
90
0
176
1
62
7
176
1
62
257
176
1
90
1
176
1
90
1
176
1
40
1.0
176
1
90
0
176
1
62
7
176
1
40
1.0
176
1
90
1
176
1
90
6
176
1
90
2
176
1
62
7
176
1
90
5
176
1
90
0
176
1
90
0
176
1
290
0
176
1
90
13
176
1
40
0.0
176
1
90
0
176
1
290
0
176
1
290
1
176
1
290
1
176
1
290
0
176
1
290
0
176
1
290
0
176
1
290
0
176
1
290
0
176
1
290
0
176
1
90
50
176
1
40
0.0
176
1
40
1.0
176
1
90
0
176
1
62
18
176
1
90
50
176
1
90
3
176
1
62
5
420
255
176
1
290
0
176
1
90
50
176
1
90
50
176
1
90
50
176
1
290
0
176
1
90
50
176
1
62
256
176
0
40
1.0
176
0
90
2
176
1
1
strokes_ogs.tif
176
1
290
0
176
1
40
1.0
176
1
40
1.0
176
1
1001
ACAD
1000
AcDbSavedByObjectVersion
1070
0
0
VISUALSTYLE
5
23E
102
{ACAD_REACTORS
330
23A
102
}
330
23A
100
AcDbVisualStyle
2
GouraudWithEdges
70
3
177
3
291
1
70
58
90
2
176
1
90
2
176
1
90
1
176
1
90
2
176
1
40
0.6
176
1
40
30.0
176
1
62
7
420
16777215
176
1
90
1
176
1
90
0
176
1
62
7
176
1
62
257
176
1
90
1
176
1
90
1
176
1
40
1.0
176
1
90
0
176
1
62
257
176
1
40
1.0
176
1
90
1
176
1
90
6
176
1
90
2
176
1
62
7
176
1
90
5
176
1
90
0
176
1
90
0
176
1
290
0
176
1
90
13
176
1
40
0.0
176
1
90
0
176
1
290
0
176
1
290
1
176
1
290
1
176
1
290
0
176
1
290
0
176
1
290
0
176
1
290
0
176
1
290
0
176
1
290
0
176
1
90
50
176
1
40
0.0
176
1
40
1.0
176
1
90
0
176
1
62
18
176
1
90
50
176
1
90
3
176
1
62
5
420
255
176
1
290
0
176
1
90
50
176
1
90
50
176
1
90
50
176
1
290
0
176
1
90
50
176
1
62
256
176
0
40
1.0
176
0
90
2
176
1
1
strokes_ogs.tif
176
1
290
0
176
1
40
1.0
176
1
40
1.0
176
1
1001
ACAD
1000
AcDbSavedByObjectVersion
1070
0
0
VISUALSTYLE
5
242
102
{ACAD_REACTORS
330
23A
102
}
330
23A
100
AcDbVisualStyle
2
Hidden
70
6
177
3
291
0
70
58
90
1
176
1
90
2
176
1
90
2
176
1
90
0
176
1
40
0.6
176
1
40
30.0
176
1
62
7
420
16777215
176
1
90
2
176
1
90
2
176
1
62
7
176
1
62
257
176
1
90
2
176
1
90
1
176
1
40
40.0
176
1
90
0
176
1
62
257
176
1
40
1.0
176
1
90
1
176
1
90
6
176
1
90
2
176
1
62
7
176
1
90
3
176
1
90
0
176
1
90
0
176
1
290
0
176
1
90
1
176
1
40
0.0
176
1
90
0
176
1
290
0
176
1
290
1
176
1
290
1
176
1
290
0
176
1
290
0
176
1
290
0
176
1
290
0
176
1
290
0
176
1
290
0
176
1
90
50
176
1
40
0.0
176
1
40
1.0
176
1
90
0
176
1
62
18
176
1
90
50
176
1
90
3
176
1
62
5
420
255
176
1
290
0
176
1
90
50
176
1
90
50
176
1
90
50
176
1
290
0
176
1
90
50
176
1
62
256
176
0
40
1.0
176
0
90
2
176
1
1
strokes_ogs.tif
176
1
290
0
176
1
40
1.0
176
1
40
1.0
176
1
1001
ACAD
1000
AcDbSavedByObjectVersion
1070
0
0
VISUALSTYLE
5
250
102
{ACAD_REACTORS
330
23A
102
}
330
23A
100
AcDbVisualStyle
2
JitterOff
70
20
177
3
291
1
70
58
90
2
176
0
90
2
176
0
90
0
176
0
90
0
176
0
40
0.6
176
0
40
30.0
176
0
62
7
420
16777215
176
0
90
1
176
0
90
4
176
0
62
7
176
0
62
257
176
0
90
1
176
0
90
1
176
0
40
1.0
176
0
90
10
176
2
62
7
176
0
40
1.0
176
0
90
1
176
0
90
6
176
0
90
2
176
0
62
7
176
0
90
5
176
0
90
0
176
0
90
0
176
0
290
0
176
0
90
1
176
0
40
0.0
176
0
90
0
176
0
290
0
176
1
290
1
176
1
290
1
176
1
290
0
176
1
290
0
176
1
290
0
176
1
290
0
176
1
290
0
176
1
290
0
176
1
90
50
176
0
40
0.0
176
0
40
1.0
176
0
90
0
176
0
62
18
176
0
90
50
176
0
90
3
176
0
62
5
420
255
176
0
290
0
176
1
90
50
176
0
90
50
176
0
90
50
176
0
290
0
176
1
90
50
176
0
62
256
176
0
40
1.0
176
0
90
2
176
0
1
strokes_ogs.tif
176
0
290
0
176
1
40
1.0
176
0
40
1.0
176
0
1001
ACAD
1000
AcDbSavedByObjectVersion
1070
0
0
VISUALSTYLE
5
248
102
{ACAD_REACTORS
330
23A
102
}
330
23A
100
AcDbVisualStyle
2
Linepattern
70
14
177
3
291
1
70
58
90
2
176
1
90
2
176
1
90
0
176
1
90
0
176
1
40
0.6
176
1
40
30.0
176
1
62
7
420
16777215
176
1
90
1
176
1
90
4
176
1
62
7
176
1
62
257
176
1
90
7
176
1
90
7
176
1
40
1.0
176
1
90
8
176
1
62
7
176
1
40
1.0
176
1
90
1
176
1
90
6
176
1
90
2
176
1
62
7
176
1
90
5
176
1
90
0
176
1
90
0
176
1
290
0
176
1
90
1
176
1
40
0.0
176
1
90
0
176
1
290
0
176
1
290
1
176
1
290
1
176
1
290
0
176
1
290
0
176
1
290
0
176
1
290
0
176
1
290
0
176
1
290
0
176
1
90
50
176
1
40
0.0
176
1
40
1.0
176
1
90
0
176
1
62
18
176
1
90
50
176
1
90
3
176
1
62
5
420
255
176
1
290
0
176
1
90
50
176
1
90
50
176
1
90
50
176
1
290
0
176
1
90
50
176
1
62
256
176
0
40
1.0
176
0
90
2
176
1
1
strokes_ogs.tif
176
1
290
0
176
1
40
1.0
176
1
40
1.0
176
1
1001
ACAD
1000
AcDbSavedByObjectVersion
1070
0
0
VISUALSTYLE
5
251
102
{ACAD_REACTORS
330
23A
102
}
330
23A
100
AcDbVisualStyle
2
OverhangOff
70
21
177
3
291
1
70
58
90
2
176
0
90
2
176
0
90
0
176
0
90
0
176
0
40
0.6
176
0
40
30.0
176
0
62
7
420
16777215
176
0
90
1
176
0
90
4
176
0
62
7
176
0
62
257
176
0
90
1
176
0
90
1
176
0
40
1.0
176
0
90
9
176
2
62
7
176
0
40
1.0
176
0
90
1
176
0
90
6
176
0
90
2
176
0
62
7
176
0
90
5
176
0
90
0
176
0
90
0
176
0
290
0
176
0
90
1
176
0
40
0.0
176
0
90
0
176
0
290
0
176
1
290
1
176
1
290
1
176
1
290
0
176
1
290
0
176
1
290
0
176
1
290
0
176
1
290
0
176
1
290
0
176
1
90
50
176
0
40
0.0
176
0
40
1.0
176
0
90
0
176
0
62
18
176
0
90
50
176
0
90
3
176
0
62
5
420
255
176
0
290
0
176
1
90
50
176
0
90
50
176
0
90
50
176
0
290
0
176
1
90
50
176
0
62
256
176
0
40
1.0
176
0
90
2
176
0
1
strokes_ogs.tif
176
0
290
0
176
1
40
1.0
176
0
40
1.0
176
0
1001
ACAD
1000
AcDbSavedByObjectVersion
1070
0
0
VISUALSTYLE
5
244
102
{ACAD_REACTORS
330
23A
102
}
330
23A
100
AcDbVisualStyle
2
Realistic
70
8
177
3
291
0
70
58
90
2
176
1
90
3
176
1
90
0
176
1
90
2
176
1
40
0.6
176
1
40
30.0
176
1
62
7
420
16777215
176
1
90
0
176
1
90
0
176
1
62
7
176
1
62
257
176
1
90
1
176
1
90
1
176
1
40
1.0
176
1
90
8
176
1
62
257
176
1
40
1.0
176
1
90
1
176
1
90
6
176
1
90
2
176
1
62
7
176
1
90
3
176
1
90
0
176
1
90
0
176
1
290
0
176
1
90
13
176
1
40
0.0
176
1
90
0
176
1
290
0
176
1
290
1
176
1
290
1
176
1
290
0
176
1
290
0
176
1
290
0
176
1
290
0
176
1
290
0
176
1
290
0
176
1
90
50
176
1
40
0.0
176
1
40
1.0
176
1
90
0
176
1
62
18
176
1
90
50
176
1
90
3
176
1
62
5
420
255
176
1
290
0
176
1
90
50
176
1
90
50
176
1
90
50
176
1
290
0
176
1
90
50
176
1
62
256
176
0
40
1.0
176
0
90
2
176
1
1
strokes_ogs.tif
176
1
290
0
176
1
40
1.0
176
1
40
1.0
176
1
1001
ACAD
1000
AcDbSavedByObjectVersion
1070
0
0
VISUALSTYLE
5
24F
102
{ACAD_REACTORS
330
23A
102
}
330
23A
100
AcDbVisualStyle
2
Shaded
70
27
177
3
291
0
70
58
90
2
176
1
90
2
176
1
90
1
176
1
90
2
176
1
40
0.6
176
1
40
30.0
176
1
62
7
420
16777215
176
1
90
0
176
1
90
4
176
1
62
7
176
1
62
257
176
1
90
1
176
1
90
1
176
1
40
1.0
176
1
90
8
176
1
62
257
176
1
40
1.0
176
1
90
1
176
1
90
6
176
1
90
2
176
1
62
8
420
7895160
176
1
90
3
176
1
90
0
176
1
90
0
176
1
290
0
176
1
90
5
176
1
40
0.0
176
1
90
0
176
1
290
0
176
1
290
1
176
1
290
1
176
1
290
0
176
1
290
0
176
1
290
0
176
1
290
0
176
1
290
0
176
1
290
0
176
1
90
50
176
1
40
0.0
176
1
40
1.0
176
1
90
0
176
1
62
18
176
1
90
50
176
1
90
3
176
1
62
5
420
255
176
1
290
0
176
1
90
50
176
1
90
50
176
1
90
50
176
1
290
0
176
1
90
50
176
1
62
256
176
0
40
1.0
176
0
90
2
176
1
1
strokes_ogs.tif
176
1
290
0
176
1
40
1.0
176
1
40
1.0
176
1
1001
ACAD
1000
AcDbSavedByObjectVersion
1070
0
0
VISUALSTYLE
5
24E
102
{ACAD_REACTORS
330
23A
102
}
330
23A
100
AcDbVisualStyle
2
Shaded with edges
70
26
177
3
291
0
70
58
90
2
176
1
90
2
176
1
90
1
176
1
90
2
176
1
40
0.6
176
1
40
30.0
176
1
62
7
420
16777215
176
1
90
1
176
1
90
10
176
1
62
7
176
1
62
257
176
1
90
2
176
1
90
1
176
1
40
1.0
176
1
90
8
176
1
62
257
176
1
40
1.0
176
1
90
1
176
1
90
6
176
1
90
2
176
1
62
7
176
1
90
3
176
1
90
0
176
1
90
0
176
1
290
0
176
1
90
5
176
1
40
0.0
176
1
90
0
176
1
290
0
176
1
290
1
176
1
290
1
176
1
290
0
176
1
290
0
176
1
290
0
176
1
290
0
176
1
290
0
176
1
290
0
176
1
90
50
176
1
40
0.0
176
1
40
1.0
176
1
90
0
176
1
62
18
176
1
90
50
176
1
90
3
176
1
62
5
420
255
176
1
290
0
176
1
90
50
176
1
90
50
176
1
90
50
176
1
290
0
176
1
90
50
176
1
62
256
176
0
40
1.0
176
0
90
2
176
1
1
strokes_ogs.tif
176
1
290
0
176
1
40
1.0
176
1
40
1.0
176
1
1001
ACAD
1000
AcDbSavedByObjectVersion
1070
0
0
VISUALSTYLE
5
24B
102
{ACAD_REACTORS
330
23A
102
}
330
23A
100
AcDbVisualStyle
2
Shades of Gray
70
23
177
3
291
0
70
58
90
2
176
1
90
2
176
1
90
3
176
1
90
0
176
1
40
0.6
176
1
40
30.0
176
1
62
7
420
16777215
176
1
90
2
176
1
90
2
176
1
62
7
176
1
62
7
176
1
90
1
176
1
90
1
176
1
40
40.0
176
1
90
8
176
1
62
7
176
1
40
1.0
176
1
90
1
176
1
90
6
176
1
90
2
176
1
62
7
176
1
90
3
176
1
90
0
176
1
90
0
176
1
290
0
176
1
90
1
176
1
40
0.0
176
1
90
0
176
1
290
0
176
1
290
1
176
1
290
1
176
1
290
0
176
1
290
0
176
1
290
0
176
1
290
0
176
1
290
0
176
1
290
0
176
1
90
50
176
1
40
0.0
176
1
40
1.0
176
1
90
0
176
1
62
18
176
1
90
50
176
1
90
3
176
1
62
5
420
255
176
1
290
0
176
1
90
50
176
1
90
50
176
1
90
50
176
1
290
0
176
1
90
50
176
1
62
256
176
0
40
1.0
176
0
90
2
176
1
1
strokes_ogs.tif
176
1
290
0
176
1
40
1.0
176
1
40
1.0
176
1
1001
ACAD
1000
AcDbSavedByObjectVersion
1070
0
0
VISUALSTYLE
5
24C
102
{ACAD_REACTORS
330
23A
102
}
330
23A
100
AcDbVisualStyle
2
Sketchy
70
24
177
3
291
0
70
58
90
1
176
1
90
2
176
1
90
2
176
1
90
0
176
1
40
0.6
176
1
40
30.0
176
1
62
7
420
16777215
176
1
90
2
176
1
90
2
176
1
62
7
176
1
62
7
176
1
90
1
176
1
90
1
176
1
40
40.0
176
1
90
11
176
1
62
7
176
1
40
1.0
176
1
90
1
176
1
90
6
176
1
90
2
176
1
62
7
176
1
90
6
176
1
90
0
176
1
90
0
176
1
290
0
176
1
90
1
176
1
40
0.0
176
1
90
0
176
1
290
0
176
1
290
1
176
1
290
1
176
1
290
0
176
1
290
0
176
1
290
0
176
1
290
0
176
1
290
0
176
1
290
0
176
1
90
50
176
1
40
0.0
176
1
40
1.0
176
1
90
0
176
1
62
18
176
1
90
50
176
1
90
3
176
1
62
5
420
255
176
1
290
0
176
1
90
50
176
1
90
50
176
1
90
50
176
1
290
0
176
1
90
50
176
1
62
256
176
0
40
1.0
176
0
90
2
176
1
1
strokes_ogs.tif
176
1
290
0
176
1
40
1.0
176
1
40
1.0
176
1
1001
ACAD
1000
AcDbSavedByObjectVersion
1070
0
0
VISUALSTYLE
5
247
102
{ACAD_REACTORS
330
23A
102
}
330
23A
100
AcDbVisualStyle
2
Thicken
70
13
177
3
291
1
70
58
90
2
176
1
90
2
176
1
90
0
176
1
90
0
176
1
40
0.6
176
1
40
30.0
176
1
62
7
420
16777215
176
1
90
1
176
1
90
4
176
1
62
7
176
1
62
257
176
1
90
1
176
1
90
1
176
1
40
1.0
176
1
90
12
176
1
62
7
176
1
40
1.0
176
1
90
1
176
1
90
6
176
1
90
2
176
1
62
7
176
1
90
5
176
1
90
0
176
1
90
0
176
1
290
0
176
1
90
1
176
1
40
0.0
176
1
90
0
176
1
290
0
176
1
290
1
176
1
290
1
176
1
290
0
176
1
290
0
176
1
290
0
176
1
290
0
176
1
290
0
176
1
290
0
176
1
90
50
176
1
40
0.0
176
1
40
1.0
176
1
90
0
176
1
62
18
176
1
90
50
176
1
90
3
176
1
62
5
420
255
176
1
290
0
176
1
90
50
176
1
90
50
176
1
90
50
176
1
290
0
176
1
90
50
176
1
62
256
176
0
40
1.0
176
0
90
2
176
1
1
strokes_ogs.tif
176
1
290
0
176
1
40
1.0
176
1
40
1.0
176
1
1001
ACAD
1000
AcDbSavedByObjectVersion
1070
0
0
VISUALSTYLE
5
241
102
{ACAD_REACTORS
330
23A
102
}
330
23A
100
AcDbVisualStyle
2
Wireframe
70
5
177
3
291
0
70
58
90
0
176
1
90
2
176
1
90
0
176
1
90
0
176
1
40
0.6
176
1
40
30.0
176
1
62
7
420
16777215
176
1
90
1
176
1
90
4
176
1
62
7
176
1
62
257
176
1
90
1
176
1
90
1
176
1
40
1.0
176
1
90
0
176
1
62
257
176
1
40
1.0
176
1
90
1
176
1
90
6
176
1
90
2
176
1
62
7
176
1
90
3
176
1
90
0
176
1
90
0
176
1
290
0
176
1
90
1
176
1
40
0.0
176
1
90
0
176
1
290
0
176
1
290
1
176
1
290
1
176
1
290
0
176
1
290
0
176
1
290
0
176
1
290
0
176
1
290
0
176
1
290
0
176
1
90
50
176
1
40
0.0
176
1
40
1.0
176
1
90
0
176
1
62
18
176
1
90
50
176
1
90
3
176
1
62
5
420
255
176
1
290
0
176
1
90
50
176
1
90
50
176
1
90
50
176
1
290
0
176
1
90
50
176
1
62
256
176
0
40
1.0
176
0
90
2
176
1
1
strokes_ogs.tif
176
1
290
0
176
1
40
1.0
176
1
40
1.0
176
1
1001
ACAD
1000
AcDbSavedByObjectVersion
1070
0
0
VISUALSTYLE
5
24D
102
{ACAD_REACTORS
330
23A
102
}
330
23A
100
AcDbVisualStyle
2
X-Ray
70
25
177
3
291
0
70
58
90
2
176
1
90
2
176
1
90
1
176
1
90
1
176
1
40
0.5
176
1
40
30.0
176
1
62
7
420
16777215
176
1
90
1
176
1
90
0
176
1
62
7
176
1
62
257
176
1
90
1
176
1
90
1
176
1
40
1.0
176
1
90
8
176
1
62
7
176
1
40
1.0
176
1
90
1
176
1
90
6
176
1
90
2
176
1
62
7
176
1
90
3
176
1
90
0
176
1
90
0
176
1
290
0
176
1
90
13
176
1
40
0.0
176
1
90
0
176
1
290
0
176
1
290
1
176
1
290
1
176
1
290
0
176
1
290
0
176
1
290
0
176
1
290
0
176
1
290
0
176
1
290
0
176
1
90
50
176
1
40
0.0
176
1
40
1.0
176
1
90
0
176
1
62
18
176
1
90
50
176
1
90
3
176
1
62
5
420
255
176
1
290
0
176
1
90
50
176
1
90
50
176
1
90
50
176
1
290
0
176
1
90
50
176
1
62
256
176
0
40
1.0
176
0
90
2
176
1
1
strokes_ogs.tif
176
1
290
0
176
1
40
1.0
176
1
40
1.0
176
1
1001
ACAD
1000
AcDbSavedByObjectVersion
1070
0
0
DICTIONARYVAR
5
2A3
102
{ACAD_REACTORS
330
29D
102
}
330
29D
100
DictionaryVariables
280
0
1
1:1
0
DICTIONARYVAR
5
29F
102
{ACAD_REACTORS
330
29D
102
}
330
29D
100
DictionaryVariables
280
0
1
STANDARD
0
DICTIONARYVAR
5
29E
102
{ACAD_REACTORS
330
29D
102
}
330
29D
100
DictionaryVariables
280
0
1
STANDARD
0
DICTIONARYVAR
5
2A0
102
{ACAD_REACTORS
330
29D
102
}
330
29D
100
DictionaryVariables
280
0
1
Imperial24
0
DICTIONARYVAR
5
2A1
102
{ACAD_REACTORS
330
29D
102
}
330
29D
100
DictionaryVariables
280
0
1
Imperial24
0
DICTIONARYVAR
5
2A5
102
{ACAD_REACTORS
330
29D
102
}
330
29D
100
DictionaryVariables
280
0
1
1
0
DICTIONARYVAR
5
2A6
102
{ACAD_REACTORS
330
29D
102
}
330
29D
100
DictionaryVariables
280
0
1
15
0
DICTIONARYVAR
5
2A4
102
{ACAD_REACTORS
330
29D
102
}
330
29D
100
DictionaryVariables
280
0
1
0
0
DICTIONARYVAR
5
2A2
102
{ACAD_REACTORS
330
29D
102
}
330
29D
100
DictionaryVariables
280
0
1
0
0
DICTIONARY
5
22B
330
22A
100
AcDbDictionary
280
1
281
1
3
BUMPTILE
360
22D
3
DIFFUSETILE
360
22C
3
OPACITYTILE
360
230
3
REFLECTIONTILE
360
22F
3
REFRACTIONTILE
360
231
3
SPECULARTILE
360
22E
0
DICTIONARY
5
223
330
222
100
AcDbDictionary
280
1
281
1
3
BUMPTILE
360
225
3
DIFFUSETILE
360
224
3
OPACITYTILE
360
228
3
REFLECTIONTILE
360
227
3
REFRACTIONTILE
360
229
3
SPECULARTILE
360
226
0
DICTIONARY
5
233
330
232
100
AcDbDictionary
280
1
281
1
3
BUMPTILE
360
235
3
DIFFUSETILE
360
234
3
OPACITYTILE
360
238
3
REFLECTIONTILE
360
237
3
REFRACTIONTILE
360
239
3
SPECULARTILE
360
236
0
DICTIONARY
5
2A7
330
275
100
AcDbDictionary
280
1
281
1
3
ACAD_ROUNDTRIP_2008_TABLESTYLE_CELLSTYLEMAP
360
1056
0
XRECORD
5
22D
102
{ACAD_REACTORS
330
22B
102
}
330
22B
100
AcDbXrecord
280
1
270
1
271
1
0
XRECORD
5
22C
102
{ACAD_REACTORS
330
22B
102
}
330
22B
100
AcDbXrecord
280
1
270
1
271
1
0
XRECORD
5
230
102
{ACAD_REACTORS
330
22B
102
}
330
22B
100
AcDbXrecord
280
1
270
1
271
1
0
XRECORD
5
22F
102
{ACAD_REACTORS
330
22B
102
}
330
22B
100
AcDbXrecord
280
1
270
1
271
1
0
XRECORD
5
231
102
{ACAD_REACTORS
330
22B
102
}
330
22B
100
AcDbXrecord
280
1
270
1
271
1
0
XRECORD
5
22E
102
{ACAD_REACTORS
330
22B
102
}
330
22B
100
AcDbXrecord
280
1
270
1
271
1
0
XRECORD
5
225
102
{ACAD_REACTORS
330
223
102
}
330
223
100
AcDbXrecord
280
1
270
1
271
1
0
XRECORD
5
224
102
{ACAD_REACTORS
330
223
102
}
330
223
100
AcDbXrecord
280
1
270
1
271
1
0
XRECORD
5
228
102
{ACAD_REACTORS
330
223
102
}
330
223
100
AcDbXrecord
280
1
270
1
271
1
0
XRECORD
5
227
102
{ACAD_REACTORS
330
223
102
}
330
223
100
AcDbXrecord
280
1
270
1
271
1
0
XRECORD
5
229
102
{ACAD_REACTORS
330
223
102
}
330
223
100
AcDbXrecord
280
1
270
1
271
1
0
XRECORD
5
226
102
{ACAD_REACTORS
330
223
102
}
330
223
100
AcDbXrecord
280
1
270
1
271
1
0
XRECORD
5
235
102
{ACAD_REACTORS
330
233
102
}
330
233
100
AcDbXrecord
280
1
270
1
271
1
0
XRECORD
5
234
102
{ACAD_REACTORS
330
233
102
}
330
233
100
AcDbXrecord
280
1
270
1
271
1
0
XRECORD
5
238
102
{ACAD_REACTORS
330
233
102
}
330
233
100
AcDbXrecord
280
1
270
1
271
1
0
XRECORD
5
237
102
{ACAD_REACTORS
330
233
102
}
330
233
100
AcDbXrecord
280
1
270
1
271
1
0
XRECORD
5
239
102
{ACAD_REACTORS
330
233
102
}
330
233
100
AcDbXrecord
280
1
270
1
271
1
0
XRECORD
5
236
102
{ACAD_REACTORS
330
233
102
}
330
233
100
AcDbXrecord
280
1
270
1
271
1
0
CELLSTYLEMAP
5
1056
102
{ACAD_REACTORS
330
2A7
102
}
330
2A7
100
AcDbCellStyleMap
90
3
300
CELLSTYLE
1
TABLEFORMAT_BEGIN
90
5
170
1
91
0
92
32768
62
257
93
1
300
CONTENTFORMAT
1
CONTENTFORMAT_BEGIN
90
0
91
0
92
512
93
0
300

40
0.0
140
1.0
94
5
62
0
340
266
144
0.25
309
CONTENTFORMAT_END
171
1
301
MARGIN
1
CELLMARGIN_BEGIN
40
0.06
40
0.06
40
0.06
40
0.06
40
0.18
40
0.18
309
CELLMARGIN_END
94
6
95
1
302
GRIDFORMAT
1
GRIDFORMAT_BEGIN
90
0
91
1
62
0
92
-2
340
0
93
0
40
0.045
309
GRIDFORMAT_END
95
2
302
GRIDFORMAT
1
GRIDFORMAT_BEGIN
90
0
91
1
62
0
92
-2
340
0
93
0
40
0.045
309
GRIDFORMAT_END
95
4
302
GRIDFORMAT
1
GRIDFORMAT_BEGIN
90
0
91
1
62
0
92
-2
340
0
93
0
40
0.045
309
GRIDFORMAT_END
95
8
302
GRIDFORMAT
1
GRIDFORMAT_BEGIN
90
0
91
1
62
0
92
-2
340
0
93
0
40
0.045
309
GRIDFORMAT_END
95
16
302
GRIDFORMAT
1
GRIDFORMAT_BEGIN
90
0
91
1
62
0
92
-2
340
0
93
0
40
0.045
309
GRIDFORMAT_END
95
32
302
GRIDFORMAT
1
GRIDFORMAT_BEGIN
90
0
91
1
62
0
92
-2
340
0
93
0
40
0.045
309
GRIDFORMAT_END
309
TABLEFORMAT_END
1
CELLSTYLE_BEGIN
90
1
91
1
300
_TITLE
309
CELLSTYLE_END
300
CELLSTYLE
1
TABLEFORMAT_BEGIN
90
5
170
1
91
0
92
0
62
257
93
1
300
CONTENTFORMAT
1
CONTENTFORMAT_BEGIN
90
0
91
0
92
512
93
0
300

40
0.0
140
1.0
94
5
62
0
340
266
144
0.18
309
CONTENTFORMAT_END
171
1
301
MARGIN
1
CELLMARGIN_BEGIN
40
0.06
40
0.06
40
0.06
40
0.06
40
0.18
40
0.18
309
CELLMARGIN_END
94
6
95
1
302
GRIDFORMAT
1
GRIDFORMAT_BEGIN
90
0
91
1
62
0
92
-2
340
0
93
0
40
0.045
309
GRIDFORMAT_END
95
2
302
GRIDFORMAT
1
GRIDFORMAT_BEGIN
90
0
91
1
62
0
92
-2
340
0
93
0
40
0.045
309
GRIDFORMAT_END
95
4
302
GRIDFORMAT
1
GRIDFORMAT_BEGIN
90
0
91
1
62
0
92
-2
340
0
93
0
40
0.045
309
GRIDFORMAT_END
95
8
302
GRIDFORMAT
1
GRIDFORMAT_BEGIN
90
0
91
1
62
0
92
-2
340
0
93
0
40
0.045
309
GRIDFORMAT_END
95
16
302
GRIDFORMAT
1
GRIDFORMAT_BEGIN
90
0
91
1
62
0
92
-2
340
0
93
0
40
0.045
309
GRIDFORMAT_END
95
32
302
GRIDFORMAT
1
GRIDFORMAT_BEGIN
90
0
91
1
62
0
92
-2
340
0
93
0
40
0.045
309
GRIDFORMAT_END
309
TABLEFORMAT_END
1
CELLSTYLE_BEGIN
90
2
91
1
300
_HEADER
309
CELLSTYLE_END
300
CELLSTYLE
1
TABLEFORMAT_BEGIN
90
5
170
1
91
0
92
0
62
257
93
1
300
CONTENTFORMAT
1
CONTENTFORMAT_BEGIN
90
0
91
0
92
512
93
0
300

40
0.0
140
1.0
94
2
62
0
340
266
144
0.18
309
CONTENTFORMAT_END
171
1
301
MARGIN
1
CELLMARGIN_BEGIN
40
0.06
40
0.06
40
0.06
40
0.06
40
0.18
40
0.18
309
CELLMARGIN_END
94
6
95
1
302
GRIDFORMAT
1
GRIDFORMAT_BEGIN
90
0
91
1
62
0
92
-2
340
0
93
0
40
0.045
309
GRIDFORMAT_END
95
2
302
GRIDFORMAT
1
GRIDFORMAT_BEGIN
90
0
91
1
62
0
92
-2
340
0
93
0
40
0.045
309
GRIDFORMAT_END
95
4
302
GRIDFORMAT
1
GRIDFORMAT_BEGIN
90
0
91
1
62
0
92
-2
340
0
93
0
40
0.045
309
GRIDFORMAT_END
95
8
302
GRIDFORMAT
1
GRIDFORMAT_BEGIN
90
0
91
1
62
0
92
-2
340
0
93
0
40
0.045
309
GRIDFORMAT_END
95
16
302
GRIDFORMAT
1
GRIDFORMAT_BEGIN
90
0
91
1
62
0
92
-2
340
0
93
0
40
0.045
309
GRIDFORMAT_END
95
32
302
GRIDFORMAT
1
GRIDFORMAT_BEGIN
90
0
91
1
62
0
92
-2
340
0
93
0
40
0.045
309
GRIDFORMAT_END
309
TABLEFORMAT_END
1
CELLSTYLE_BEGIN
90
3
91
2
300
_DATA
309
CELLSTYLE_END
0
ENDSEC
0
SECTION
2
ACDSDATA
70
2
71
2
0
ACDSSCHEMA
90
0
1
AcDb_Thumbnail_Schema
2
AcDbDs::ID
280
10
91
8
2
Thumbnail_Data
280
15
91
0
101
ACDSRECORD
95
0
90
1
2
AcDbDs::TreatedAsObjectData
280
1
291
1
101
ACDSRECORD
95
0
90
2
2
AcDbDs::Legacy
280
1
291
1
101
ACDSRECORD
1
AcDbDs::ID
90
3
2
AcDs:Indexable
280
1
291
1
101
ACDSRECORD
1
AcDbDs::ID
90
4
2
AcDbDs::HandleAttribute
280
7
282
1
0
ACDSSCHEMA
90
1
1
AcDbDs::TreatedAsObjectDataSchema
2
AcDbDs::TreatedAsObjectData
280
1
91
0
0
ACDSSCHEMA
90
2
1
AcDbDs::LegacySchema
2
AcDbDs::Legacy
280
1
91
0
0
ACDSSCHEMA
90
3
1
AcDbDs::IndexedPropertySchema
2
AcDs:Indexable
280
1
91
0
0
ACDSSCHEMA
90
4
1
AcDbDs::HandleAttributeSchema
2
AcDbDs::HandleAttribute
280
7
91
1
284
1
0
ACDSRECORD
90
0
2
AcDbDs::ID
280
10
320
284
2
Thumbnail_Data
280
15
94
1130
310
89504E470D0A1A0A0000000D4948445200000100000000BB0803000000BDD6B05600000300504C54452128300000000000000000000000000000000000000000000000000000000000000000330000660000990000CC0000FF0033000033330033660033990033CC0033FF0066000066330066660066990066CC0066FF0099
310
000099330099660099990099CC0099FF00CC0000CC3300CC6600CC9900CCCC00CCFF00FF0000FF3300FF6600FF9900FFCC00FFFF3300003300333300663300993300CC3300FF3333003333333333663333993333CC3333FF3366003366333366663366993366CC3366FF3399003399333399663399993399CC3399FF33CC00
310
33CC3333CC6633CC9933CCCC33CCFF33FF0033FF3333FF6633FF9933FFCC33FFFF6600006600336600666600996600CC6600FF6633006633336633666633996633CC6633FF6666006666336666666666996666CC6666FF6699006699336699666699996699CC6699FF66CC0066CC3366CC6666CC9966CCCC66CCFF66FF0066
310
FF3366FF6666FF9966FFCC66FFFF9900009900339900669900999900CC9900FF9933009933339933669933999933CC9933FF9966009966339966669966999966CC9966FF9999009999339999669999999999CC9999FF99CC0099CC3399CC6699CC9999CCCC99CCFF99FF0099FF3399FF6699FF9999FFCC99FFFFCC0000CC00
310
33CC0066CC0099CC00CCCC00FFCC3300CC3333CC3366CC3399CC33CCCC33FFCC6600CC6633CC6666CC6699CC66CCCC66FFCC9900CC9933CC9966CC9999CC99CCCC99FFCCCC00CCCC33CCCC66CCCC99CCCCCCCCCCFFCCFF00CCFF33CCFF66CCFF99CCFFCCCCFFFFFF0000FF0033FF0066FF0099FF00CCFF00FFFF3300FF3333
310
FF3366FF3399FF33CCFF33FFFF6600FF6633FF6666FF6699FF66CCFF66FFFF9900FF9933FF9966FF9999FF99CCFF99FFFFCC00FFCC33FFCC66FFCC99FFCCCCFFCCFFFFFF00FFFF33FFFF66FFFF99FFFFCCFFFFFF0000000D0D0D1A1A1A2828283535354343435050505D5D5D6B6B6B787878868686939393A1A1A1AEAEAEBB
310
BBBBC9C9C9D6D6D6E4E4E4F1F1F1FFFFFF000000000000000000000000000000000000000000000000000000000000544354A80000004549444154789CEDC13101000000C2A0F54F6D094FA000000000000000000000000000000000000000000000000000000000000000000000000000000000000000000000E062BBBB00
310
01006808E50000000049454E44AE4260824BBACA0DB465ABDB4063B2B20534072BDA4047AC9A0DF4A42AD9407A015D99E20BA8D8407A019D89143066171752C0D0E513E84D54AE01050C5E7F7B0A18BA7C020A18BA7C02F105C4FF0C2920FE4024FE484C01F1C7E2F11723AEC65C8EBA1E372071982F7D48A87EFCC5989C41
310
49A3B22F9BB861E9DF3E73F299D3F25FC9D901000000000000000000000000000000000000000000E0344F3123803F1ED9B2780000000049454E44AE426082FADAD667F149BFC5000000000000000000000000000000000000000070A90F51C3A687E5D1137C0000000049454E44AE426082
0
ENDSEC
0
EOF
