G04*
G04 #@! TF.GenerationSoftware,Altium Limited,Altium Designer,21.8.1 (53)*
G04*
G04 Layer_Physical_Order=1*
G04 Layer_Color=255*
%FSLAX25Y25*%
%MOIN*%
G70*
G04*
G04 #@! TF.SameCoordinates,5F1E4217-F76B-47D2-86F6-0C0B24952EF2*
G04*
G04*
G04 #@! TF.FilePolarity,Positive*
G04*
G01*
G75*
%ADD12C,0.01000*%
%ADD13R,0.06102X0.02362*%
%ADD14R,0.07087X0.04724*%
%ADD19C,0.05512*%
G04:AMPARAMS|DCode=20|XSize=55.12mil|YSize=55.12mil|CornerRadius=13.78mil|HoleSize=0mil|Usage=FLASHONLY|Rotation=270.000|XOffset=0mil|YOffset=0mil|HoleType=Round|Shape=RoundedRectangle|*
%AMROUNDEDRECTD20*
21,1,0.05512,0.02756,0,0,270.0*
21,1,0.02756,0.05512,0,0,270.0*
1,1,0.02756,-0.01378,-0.01378*
1,1,0.02756,-0.01378,0.01378*
1,1,0.02756,0.01378,0.01378*
1,1,0.02756,0.01378,-0.01378*
%
%ADD20ROUNDEDRECTD20*%
%ADD21C,0.02400*%
D12*
X121000Y138500D02*
X124788D01*
X127244Y138661D02*
X127925Y139342D01*
X124950Y138661D02*
X127244D01*
X124788Y138500D02*
X124950Y138661D01*
X123133Y142024D02*
X132476D01*
X116027D02*
X118867D01*
X119343Y142500D02*
X122657D01*
X123133Y142024D01*
X118867D02*
X119343Y142500D01*
X127925Y131468D02*
X127941Y131484D01*
X133484D01*
X133500Y131500D01*
X137500Y129843D02*
Y133157D01*
X136000Y128343D02*
X137500Y129843D01*
X138000Y127515D02*
X139500Y129015D01*
X138000Y135485D02*
Y145000D01*
X136000Y127000D02*
Y128343D01*
X138000Y135485D02*
X139500Y133985D01*
X136000Y134657D02*
X137500Y133157D01*
X138000Y122000D02*
Y127515D01*
X136000Y134657D02*
Y138500D01*
X139500Y129015D02*
Y133985D01*
X121591Y127532D02*
X127925D01*
X115500Y133622D02*
X121591Y127532D01*
X132595Y123594D02*
X136000Y127000D01*
X127925Y123594D02*
X132595D01*
X132476Y142024D02*
X136000Y138500D01*
X115500Y141496D02*
X116027Y142024D01*
X127925Y119658D02*
X135658D01*
X138000Y122000D01*
X115500Y149370D02*
X133630D01*
X138000Y145000D01*
D13*
X127925Y119658D02*
D03*
Y123594D02*
D03*
Y127532D02*
D03*
Y131468D02*
D03*
Y135406D02*
D03*
Y139342D02*
D03*
D14*
X143181Y144461D02*
D03*
Y114539D02*
D03*
D19*
X115500Y133622D02*
D03*
Y141496D02*
D03*
Y125748D02*
D03*
Y117874D02*
D03*
Y110000D02*
D03*
D20*
Y149370D02*
D03*
D21*
X121000Y138500D02*
D03*
X133500Y131500D02*
D03*
M02*
