0
SECTION
2
HEADER
9
$ACADVER
1
AC1027
9
$ACADMAINTVER
70
8
9
$DWGCODEPAGE
3
ANSI_1252
9
$LASTSAVEDBY
1
macc
9
$REQUIREDVERSIONS
160
0
9
$INSBASE
10
0.0
20
0.0
30
0.0
9
$EXTMIN
10
1.000000000000000E+20
20
1.000000000000000E+20
30
1.000000000000000E+20
9
$EXTMAX
10
-1.000000000000000E+20
20
-1.000000000000000E+20
30
-1.000000000000000E+20
9
$LIMMIN
10
0.0
20
0.0
9
$LIMMAX
10
12.0
20
9.0
9
$ORTHOMODE
70
0
9
$REGENMODE
70
1
9
$FILLMODE
70
1
9
$QTEXTMODE
70
0
9
$MIRRTEXT
70
0
9
$LTSCALE
40
1.0
9
$ATTMODE
70
1
9
$TEXTSIZE
40
0.2
9
$TRACEWID
40
0.05
9
$TEXTSTYLE
7
STANDARD
9
$CLAYER
8
0
9
$CELTYPE
6
ByLayer
9
$CECOLOR
62
256
9
$CELTSCALE
40
1.0
9
$DISPSILH
70
0
9
$DIMSCALE
40
1.0
9
$DIMASZ
40
0.18
9
$DIMEXO
40
0.0625
9
$DIMDLI
40
0.38
9
$DIMRND
40
0.0
9
$DIMDLE
40
0.0
9
$DIMEXE
40
0.18
9
$DIMTP
40
0.0
9
$DIMTM
40
0.0
9
$DIMTXT
40
0.18
9
$DIMCEN
40
0.09
9
$DIMTSZ
40
0.0
9
$DIMTOL
70
0
9
$DIMLIM
70
0
9
$DIMTIH
70
1
9
$DIMTOH
70
1
9
$DIMSE1
70
0
9
$DIMSE2
70
0
9
$DIMTAD
70
0
9
$DIMZIN
70
0
9
$DIMBLK
1

9
$DIMASO
70
1
9
$DIMSHO
70
1
9
$DIMPOST
1

9
$DIMAPOST
1

9
$DIMALT
70
0
9
$DIMALTD
70
2
9
$DIMALTF
40
25.4
9
$DIMLFAC
40
1.0
9
$DIMTOFL
70
0
9
$DIMTVP
40
0.0
9
$DIMTIX
70
0
9
$DIMSOXD
70
0
9
$DIMSAH
70
0
9
$DIMBLK1
1

9
$DIMBLK2
1

9
$DIMSTYLE
2
STANDARD
9
$DIMCLRD
70
0
9
$DIMCLRE
70
0
9
$DIMCLRT
70
0
9
$DIMTFAC
40
1.0
9
$DIMGAP
40
0.09
9
$DIMJUST
70
0
9
$DIMSD1
70
0
9
$DIMSD2
70
0
9
$DIMTOLJ
70
1
9
$DIMTZIN
70
0
9
$DIMALTZ
70
0
9
$DIMALTTZ
70
0
9
$DIMUPT
70
0
9
$DIMDEC
70
4
9
$DIMTDEC
70
4
9
$DIMALTU
70
2
9
$DIMALTTD
70
2
9
$DIMTXSTY
7
STANDARD
9
$DIMAUNIT
70
0
9
$DIMADEC
70
0
9
$DIMALTRND
40
0.0
9
$DIMAZIN
70
0
9
$DIMDSEP
70
46
9
$DIMATFIT
70
3
9
$DIMFRAC
70
0
9
$DIMLDRBLK
1

9
$DIMLUNIT
70
2
9
$DIMLWD
70
-2
9
$DIMLWE
70
-2
9
$DIMTMOVE
70
0
9
$DIMFXL
40
1.0
9
$DIMFXLON
70
0
9
$DIMJOGANG
40
0.7853981633974483
9
$DIMTFILL
70
0
9
$DIMTFILLCLR
70
0
9
$DIMARCSYM
70
0
9
$DIMLTYPE
6

9
$DIMLTEX1
6

9
$DIMLTEX2
6

9
$DIMTXTDIRECTION
70
0
9
$LUNITS
70
2
9
$LUPREC
70
4
9
$SKETCHINC
40
0.1
9
$FILLETRAD
40
0.0
9
$AUNITS
70
0
9
$AUPREC
70
0
9
$MENU
1
.
9
$ELEVATION
40
0.0
9
$PELEVATION
40
0.0
9
$THICKNESS
40
0.0
9
$LIMCHECK
70
0
9
$CHAMFERA
40
0.0
9
$CHAMFERB
40
0.0
9
$CHAMFERC
40
0.0
9
$CHAMFERD
40
0.0
9
$SKPOLY
70
0
9
$TDCREATE
40
2458312.067262384
9
$TDUCREATE
40
2458311.983929051
9
$TDUPDATE
40
2458312.961305069
9
$TDUUPDATE
40
2458312.877971736
9
$TDINDWG
40
0.0045230903
9
$TDUSRTIMER
40
0.0045219676
9
$USRTIMER
70
1
9
$ANGBASE
50
0.0
9
$ANGDIR
70
0
9
$PDMODE
70
0
9
$PDSIZE
40
0.0
9
$PLINEWID
40
0.0
9
$SPLFRAME
70
0
9
$SPLINETYPE
70
6
9
$SPLINESEGS
70
8
9
$HANDSEED
5
1058
9
$SURFTAB1
70
6
9
$SURFTAB2
70
6
9
$SURFTYPE
70
6
9
$SURFU
70
6
9
$SURFV
70
6
9
$UCSBASE
2

9
$UCSNAME
2

9
$UCSORG
10
0.0
20
0.0
30
0.0
9
$UCSXDIR
10
1.0
20
0.0
30
0.0
9
$UCSYDIR
10
0.0
20
1.0
30
0.0
9
$UCSORTHOREF
2

9
$UCSORTHOVIEW
70
0
9
$UCSORGTOP
10
0.0
20
0.0
30
0.0
9
$UCSORGBOTTOM
10
0.0
20
0.0
30
0.0
9
$UCSORGLEFT
10
0.0
20
0.0
30
0.0
9
$UCSORGRIGHT
10
0.0
20
0.0
30
0.0
9
$UCSORGFRONT
10
0.0
20
0.0
30
0.0
9
$UCSORGBACK
10
0.0
20
0.0
30
0.0
9
$PUCSBASE
2

9
$PUCSNAME
2

9
$PUCSORG
10
0.0
20
0.0
30
0.0
9
$PUCSXDIR
10
1.0
20
0.0
30
0.0
9
$PUCSYDIR
10
0.0
20
1.0
30
0.0
9
$PUCSORTHOREF
2

9
$PUCSORTHOVIEW
70
0
9
$PUCSORGTOP
10
0.0
20
0.0
30
0.0
9
$PUCSORGBOTTOM
10
0.0
20
0.0
30
0.0
9
$PUCSORGLEFT
10
0.0
20
0.0
30
0.0
9
$PUCSORGRIGHT
10
0.0
20
0.0
30
0.0
9
$PUCSORGFRONT
10
0.0
20
0.0
30
0.0
9
$PUCSORGBACK
10
0.0
20
0.0
30
0.0
9
$USERI1
70
0
9
$USERI2
70
0
9
$USERI3
70
0
9
$USERI4
70
0
9
$USERI5
70
0
9
$USERR1
40
0.0
9
$USERR2
40
0.0
9
$USERR3
40
0.0
9
$USERR4
40
0.0
9
$USERR5
40
0.0
9
$WORLDVIEW
70
1
9
$SHADEDGE
70
3
9
$SHADEDIF
70
70
9
$TILEMODE
70
1
9
$MAXACTVP
70
64
9
$PINSBASE
10
0.0
20
0.0
30
0.0
9
$PLIMCHECK
70
0
9
$PEXTMIN
10
0.0
20
0.0
30
0.0
9
$PEXTMAX
10
0.0
20
0.0
30
0.0
9
$PLIMMIN
10
0.0
20
0.0
9
$PLIMMAX
10
12.0
20
9.0
9
$UNITMODE
70
0
9
$VISRETAIN
70
1
9
$PLINEGEN
70
0
9
$PSLTSCALE
70
1
9
$TREEDEPTH
70
3020
9
$CMLSTYLE
2
Standard
9
$CMLJUST
70
0
9
$CMLSCALE
40
1.0
9
$PROXYGRAPHICS
70
1
9
$MEASUREMENT
70
0
9
$CELWEIGHT
370
-1
9
$ENDCAPS
280
0
9
$JOINSTYLE
280
0
9
$LWDISPLAY
290
0
9
$INSUNITS
70
0
9
$HYPERLINKBASE
1

9
$STYLESHEET
1

9
$XEDIT
290
1
9
$CEPSNTYPE
380
0
9
$PSTYLEMODE
290
1
9
$FINGERPRINTGUID
2
{4B4ED3CC-337F-6143-9B17-EFB0F3F01845}
9
$VERSIONGUID
2
{A4861B96-12DA-254C-ACF2-0C3CF0F63D02}
9
$EXTNAMES
290
1
9
$PSVPSCALE
40
0.0
9
$OLESTARTUP
290
0
9
$SORTENTS
280
127
9
$INDEXCTL
280
0
9
$HIDETEXT
280
0
9
$XCLIPFRAME
280
2
9
$HALOGAP
280
0
9
$OBSCOLOR
70
257
9
$OBSLTYPE
280
0
9
$INTERSECTIONDISPLAY
280
0
9
$INTERSECTIONCOLOR
70
257
9
$DIMASSOC
280
1
9
$PROJECTNAME
1

9
$CAMERADISPLAY
290
0
9
$LENSLENGTH
40
50.0
9
$CAMERAHEIGHT
40
0.0
9
$STEPSPERSEC
40
2.0
9
$STEPSIZE
40
6.0
9
$3DDWFPREC
40
2.0
9
$PSOLWIDTH
40
0.25
9
$PSOLHEIGHT
40
4.0
9
$LOFTANG1
40
1.570796326794896
9
$LOFTANG2
40
1.570796326794896
9
$LOFTMAG1
40
0.0
9
$LOFTMAG2
40
0.0
9
$LOFTPARAM
70
7
9
$LOFTNORMALS
280
1
9
$LATITUDE
40
37.795
9
$LONGITUDE
40
-122.394
9
$NORTHDIRECTION
40
0.0
9
$TIMEZONE
70
-8000
9
$LIGHTGLYPHDISPLAY
280
1
9
$TILEMODELIGHTSYNCH
280
1
9
$CMATERIAL
347
222
9
$SOLIDHIST
280
0
9
$SHOWHIST
280
1
9
$DWFFRAME
280
2
9
$DGNFRAME
280
0
9
$REALWORLDSCALE
290
1
9
$INTERFERECOLOR
62
1
9
$INTERFEREOBJVS
345
244
9
$INTERFEREVPVS
346
241
9
$CSHADOW
280
0
9
$SHADOWPLANELOCATION
40
0.0
0
ENDSEC
0
SECTION
2
CLASSES
0
CLASS
1
ACDBDICTIONARYWDFLT
2
AcDbDictionaryWithDefault
3
ObjectDBX Classes
90
0
91
1
280
0
281
0
0
CLASS
1
MATERIAL
2
AcDbMaterial
3
ObjectDBX Classes
90
1153
91
3
280
0
281
0
0
CLASS
1
VISUALSTYLE
2
AcDbVisualStyle
3
ObjectDBX Classes
90
4095
91
24
280
0
281
0
0
CLASS
1
SCALE
2
AcDbScale
3
ObjectDBX Classes
90
1153
91
17
280
0
281
0
0
CLASS
1
TABLESTYLE
2
AcDbTableStyle
3
ObjectDBX Classes
90
4095
91
1
280
0
281
0
0
CLASS
1
MLEADERSTYLE
2
AcDbMLeaderStyle
3
ACDB_MLEADERSTYLE_CLASS
90
4095
91
1
280
0
281
0
0
CLASS
1
ACDBSECTIONVIEWSTYLE
2
AcDbSectionViewStyle
3
ObjectDBX Classes
90
1025
91
1
280
0
281
0
0
CLASS
1
ACDBDETAILVIEWSTYLE
2
AcDbDetailViewStyle
3
ObjectDBX Classes
90
1025
91
1
280
0
281
0
0
CLASS
1
DICTIONARYVAR
2
AcDbDictionaryVar
3
ObjectDBX Classes
90
0
91
9
280
0
281
0
0
CLASS
1
CELLSTYLEMAP
2
AcDbCellStyleMap
3
ObjectDBX Classes
90
1152
91
2
280
0
281
0
0
ENDSEC
0
SECTION
2
TABLES
0
TABLE
2
VPORT
5
219
330
0
100
AcDbSymbolTable
70
1
0
VPORT
5
285
330
219
100
AcDbSymbolTableRecord
100
AcDbViewportTableRecord
2
*ACTIVE
70
0
10
0.0
20
0.0
11
1.0
21
1.0
12
60.85393284500712
22
1.602311788490737
13
0.0
23
0.0
14
0.5
24
0.5
15
0.5
25
0.5
16
0.0
26
0.0
36
1.0
17
0.0
27
0.0
37
0.0
40
135.7601553851812
41
1.367970660146699
42
50.0
43
0.0
44
0.0
50
0.0
51
0.0
71
0
72
1000
73
1
74
3
75
0
76
1
77
0
78
0
281
0
65
1
110
0.0
120
0.0
130
0.0
111
1.0
121
0.0
131
0.0
112
0.0
122
1.0
132
0.0
79
0
146
0.0
348
240
60
3
61
5
292
1
282
0
141
0.0
142
0.0
63
250
421
3355443
1001
ACAD_NAV_VCDISPLAY
1070
3
0
ENDTAB
0
TABLE
2
LTYPE
5
216
330
0
100
AcDbSymbolTable
70
2
0
LTYPE
5
26B
330
216
100
AcDbSymbolTableRecord
100
AcDbLinetypeTableRecord
2
ByBlock
70
0
3

72
65
73
0
40
0.0
0
LTYPE
5
26C
330
216
100
AcDbSymbolTableRecord
100
AcDbLinetypeTableRecord
2
ByLayer
70
0
3

72
65
73
0
40
0.0
0
LTYPE
5
26D
330
216
100
AcDbSymbolTableRecord
100
AcDbLinetypeTableRecord
2
CONTINUOUS
70
0
3
Solid line
72
65
73
0
40
0.0
0
LTYPE
5
103D
330
216
100
AcDbSymbolTableRecord
100
AcDbLinetypeTableRecord
2
DOTTED
70
0
3
Dotted . . . . . . . . . . . . . . . . . . . .
72
65
73
2
40
3.0
49
0.0
74
0
49
-3.0
74
0
0
ENDTAB
0
TABLE
2
LAYER
5
213
102
{ACAD_XDICTIONARY
360
297
102
}
330
0
100
AcDbSymbolTable
70
4
0
LAYER
5
265
102
{ACAD_XDICTIONARY
360
292
102
}
330
213
100
AcDbSymbolTableRecord
100
AcDbLayerTableRecord
2
0
70
0
62
7
6
CONTINUOUS
370
-3
390
220
347
232
348
0
0
LAYER
5
2FB
330
213
100
AcDbSymbolTableRecord
100
AcDbLayerTableRecord
2
gear
70
0
62
7
6
CONTINUOUS
370
-3
390
220
347
232
348
0
1001
AcAecLayerStandard
1000

1000

1001
AcCmTransparency
1071
0
0
LAYER
5
2FE
330
213
100
AcDbSymbolTableRecord
100
AcDbLayerTableRecord
2
gear_texts
70
0
62
7
6
CONTINUOUS
370
-3
390
220
347
232
348
0
1001
AcAecLayerStandard
1000

1000

1001
AcCmTransparency
1071
0
0
LAYER
5
2FF
330
213
100
AcDbSymbolTableRecord
100
AcDbLayerTableRecord
2
gear_guides
70
0
62
5
6
CONTINUOUS
370
-3
390
220
347
232
348
0
1001
AcAecLayerStandard
1000

1000

1001
AcCmTransparency
1071
0
0
ENDTAB
0
TABLE
2
STYLE
5
214
330
0
100
AcDbSymbolTable
70
3
0
STYLE
5
266
330
214
100
AcDbSymbolTableRecord
100
AcDbTextStyleTableRecord
2
STANDARD
70
0
40
0.0
41
1.0
50
0.0
71
0
42
0.2
3
txt
4

0
STYLE
5
26A
330
214
100
AcDbSymbolTableRecord
100
AcDbTextStyleTableRecord
2
ANNOTATIVE
70
0
40
0.0
41
1.0
50
0.0
71
0
42
0.2
3
txt
4

1001
ACADANNOTATIVE
1000
AnnotativeData
1002
{
1070
1
1070
1
1002
}
0
STYLE
5
301
330
214
100
AcDbSymbolTableRecord
100
AcDbTextStyleTableRecord
2

70
1
40
0.0
41
1.0
50
0.0
71
0
42
0.2
3
ltypeshp.shx
4

0
ENDTAB
0
TABLE
2
VIEW
5
217
330
0
100
AcDbSymbolTable
70
1
0
ENDTAB
0
TABLE
2
UCS
5
218
330
0
100
AcDbSymbolTable
70
0
0
ENDTAB
0
TABLE
2
APPID
5
21A
330
0
100
AcDbSymbolTable
70
10
0
APPID
5
267
330
21A
100
AcDbSymbolTableRecord
100
AcDbRegAppTableRecord
2
ACAD
70
0
0
APPID
5
26E
330
21A
100
AcDbSymbolTableRecord
100
AcDbRegAppTableRecord
2
ACADANNOTATIVE
70
0
0
APPID
5
286
330
21A
100
AcDbSymbolTableRecord
100
AcDbRegAppTableRecord
2
ACADANNOPO
70
0
0
APPID
5
287
330
21A
100
AcDbSymbolTableRecord
100
AcDbRegAppTableRecord
2
ACAD_DSTYLE_DIMJAG
70
0
0
APPID
5
288
330
21A
100
AcDbSymbolTableRecord
100
AcDbRegAppTableRecord
2
ACAD_DSTYLE_DIMTALN
70
0
0
APPID
5
289
330
21A
100
AcDbSymbolTableRecord
100
AcDbRegAppTableRecord
2
ACAD_MLEADERVER
70
0
0
APPID
5
28A
330
21A
100
AcDbSymbolTableRecord
100
AcDbRegAppTableRecord
2
ACAD_NAV_VCDISPLAY
70
0
0
APPID
5
2E7
330
21A
100
AcDbSymbolTableRecord
100
AcDbRegAppTableRecord
2
ACAD_EXEMPT_FROM_CAD_STANDARDS
70
0
0
APPID
5
2FC
330
21A
100
AcDbSymbolTableRecord
100
AcDbRegAppTableRecord
2
AcAecLayerStandard
70
0
0
APPID
5
2FD
330
21A
100
AcDbSymbolTableRecord
100
AcDbRegAppTableRecord
2
AcCmTransparency
70
0
0
ENDTAB
0
TABLE
2
DIMSTYLE
5
21B
330
0
100
AcDbSymbolTable
70
2
100
AcDbDimStyleTable
71
1
340
268
0
DIMSTYLE
105
268
330
21B
100
AcDbSymbolTableRecord
100
AcDbDimStyleTableRecord
2
STANDARD
70
0
279
2
340
266
0
DIMSTYLE
105
269
330
21B
100
AcDbSymbolTableRecord
100
AcDbDimStyleTableRecord
2
ANNOTATIVE
70
0
40
0.0
279
2
340
266
1001
ACADANNOTATIVE
1000
AnnotativeData
1002
{
1070
1
1070
1
1002
}
0
ENDTAB
0
TABLE
2
BLOCK_RECORD
5
212
330
0
100
AcDbSymbolTable
70
2
0
BLOCK_RECORD
5
281
330
212
100
AcDbSymbolTableRecord
100
AcDbBlockTableRecord
2
*Model_Space
340
284
70
0
280
1
281
0
0
BLOCK_RECORD
5
27D
330
212
100
AcDbSymbolTableRecord
100
AcDbBlockTableRecord
2
*Paper_Space
340
280
70
0
280
1
281
0
0
BLOCK_RECORD
5
28C
330
212
100
AcDbSymbolTableRecord
100
AcDbBlockTableRecord
2
$MODEL_SPACE
340
0
70
0
280
1
281
0
0
BLOCK_RECORD
5
28E
330
212
100
AcDbSymbolTableRecord
100
AcDbBlockTableRecord
2
$PAPER_SPACE
340
0
70
0
280
1
281
0
0
ENDTAB
0
ENDSEC
0
SECTION
2
BLOCKS
0
BLOCK
5
282
330
281
100
AcDbEntity
8
0
100
AcDbBlockBegin
2
*Model_Space
70
0
10
0.0
20
0.0
30
0.0
3
*Model_Space
1

0
ENDBLK
5
283
330
281
100
AcDbEntity
8
0
100
AcDbBlockEnd
0
BLOCK
5
27E
330
27D
100
AcDbEntity
67
1
8
0
100
AcDbBlockBegin
2
*Paper_Space
70
0
10
0.0
20
0.0
30
0.0
3
*Paper_Space
1

0
ENDBLK
5
27F
330
27D
100
AcDbEntity
67
1
8
0
100
AcDbBlockEnd
0
BLOCK
5
28D
330
28C
100
AcDbEntity
8
0
100
AcDbBlockBegin
2
$MODEL_SPACE
70
0
10
0.0
20
0.0
30
0.0
3
$MODEL_SPACE
1

0
ENDBLK
5
21
330
28C
100
AcDbEntity
8
0
100
AcDbBlockEnd
0
BLOCK
5
28F
330
28E
100
AcDbEntity
8
0
100
AcDbBlockBegin
2
$PAPER_SPACE
70
0
10
0.0
20
0.0
30
0.0
3
$PAPER_SPACE
1

0
ENDBLK
5
5B
330
28E
100
AcDbEntity
8
0
100
AcDbBlockEnd
0
ENDSEC
0
SECTION
2
ENTITIES
0
LWPOLYLINE
5
1000
100
AcDbEntity
100
AcDbPolyline
90
2652
70
1
43
0
10
0.5925
20
0
10
0.593895
20
0.0000011
10
0.5940876
20
0.0000058
10
0.594387
20
0.0000172
10
0.5947932
20
0.0000381
10
0.5953059
20
0.0000713
10
0.5959248
20
0.0001197
10
0.5966496
20
0.0001862
10
0.5974798
20
0.0002735
10
0.5984151
20
0.0003847
10
0.5994549
20
0.0005224
10
0.6005987
20
0.0006895
10
0.6018458
20
0.0008889
10
0.6031956
20
0.0011233
10
0.6046473
20
0.0013955
10
0.6062002
20
0.0017083
10
0.6078534
20
0.0020645
10
0.6096059
20
0.0024667
10
0.6114569
20
0.0029178
10
0.6134053
20
0.0034204
10
0.61545
20
0.0039773
10
0.61759
20
0.004591
10
0.619824
20
0.0052643
10
0.6221508
20
0.0059998
10
0.6245692
20
0.0068001
10
0.6270777
20
0.0076677
10
0.6296751
20
0.0086053
10
0.6323598
20
0.0096154
10
0.6351303
20
0.0107004
10
0.6379852
20
0.0118629
10
0.6409228
20
0.0131053
10
0.6439414
20
0.0144301
10
0.6470395
20
0.0158396
10
0.6502151
20
0.0173361
10
0.6534666
20
0.0189221
10
0.656792
20
0.0205998
10
0.6601895
20
0.0223714
10
0.6636572
20
0.0242393
10
0.667193
20
0.0262056
10
0.6707949
20
0.0282724
10
0.6744609
20
0.0304419
10
0.6781887
20
0.0327162
10
0.6819764
20
0.0350973
10
0.6858215
20
0.0375872
10
0.6897219
20
0.0401878
10
0.6936754
20
0.0429012
10
0.6976794
20
0.0457291
10
0.6981834
20
0.0460907
10
0.6984356
20
0.0462722
10
0.6984672
20
0.046295
10
0.6984671
20
0.0463001
10
0.6962476
20
0.072383
10
0.6962468
20
0.0723881
10
0.6962119
20
0.0724051
10
0.6959326
20
0.0725414
10
0.6953748
20
0.0728127
10
0.6909504
20
0.0749234
10
0.6865954
20
0.0769298
10
0.6823116
20
0.078834
10
0.678101
20
0.0806384
10
0.6739656
20
0.0823452
10
0.669907
20
0.0839569
10
0.6659272
20
0.0854758
10
0.6620278
20
0.0869043
10
0.6582106
20
0.0882449
10
0.6544772
20
0.0895
10
0.6508292
20
0.0906721
10
0.6472681
20
0.0917638
10
0.6437954
20
0.0927776
10
0.6404126
20
0.0937161
10
0.6371209
20
0.0945818
10
0.6339219
20
0.0953774
10
0.6308166
20
0.0961056
10
0.6278063
20
0.096769
10
0.6248923
20
0.0973704
10
0.6220755
20
0.0979123
10
0.6193571
20
0.0983975
10
0.616738
20
0.0988288
10
0.6142192
20
0.099209
10
0.6118015
20
0.0995408
10
0.6094859
20
0.0998269
10
0.607273
20
0.1000702
10
0.6051636
20
0.1002736
10
0.6031583
20
0.1004398
10
0.6012577
20
0.1005716
10
0.5994624
20
0.100672
10
0.5977728
20
0.1007437
10
0.5961894
20
0.1007896
10
0.5947126
20
0.1008126
10
0.5933426
20
0.1008155
10
0.5920797
20
0.1008013
10
0.5909241
20
0.1007728
10
0.589876
20
0.1007328
10
0.5889354
20
0.1006843
10
0.5881023
20
0.1006302
10
0.5873767
20
0.1005732
10
0.5867585
20
0.1005164
10
0.5862476
20
0.1004625
10
0.5858438
20
0.1004144
10
0.5855467
20
0.100375
10
0.585356
20
0.1003472
10
0.5839809
20
0.1001125
10
0.575283
20
0.1417945
10
0.5766372
20
0.1421294
10
0.5768231
20
0.1421801
10
0.5771111
20
0.1422628
10
0.5775005
20
0.1423803
10
0.5779903
20
0.1425352
10
0.5785797
20
0.1427303
10
0.5792675
20
0.1429683
10
0.5800527
20
0.1432519
10
0.5809342
20
0.1435836
10
0.5819108
20
0.1439662
10
0.5829814
20
0.1444022
10
0.5841446
20
0.1448942
10
0.585399
20
0.1454448
10
0.5867434
20
0.1460565
10
0.5881763
20
0.1467319
10
0.5896962
20
0.1474733
10
0.5913015
20
0.1482833
10
0.5929908
20
0.1491642
10
0.5947623
20
0.1501185
10
0.5966143
20
0.1511485
10
0.5985452
20
0.1522566
10
0.6005532
20
0.1534449
10
0.6026364
20
0.1547159
10
0.604793
20
0.1560717
10
0.607021
20
0.1575144
10
0.6093185
20
0.1590464
10
0.6116834
20
0.1606696
10
0.6141138
20
0.1623861
10
0.6166075
20
0.1641981
10
0.6191624
20
0.1661074
10
0.6217763
20
0.168116
10
0.624447
20
0.170226
10
0.6271722
20
0.172439
10
0.6299497
20
0.174757
10
0.632777
20
0.1771818
10
0.6356518
20
0.1797151
10
0.6385716
20
0.1823585
10
0.6415341
20
0.1851138
10
0.6445368
20
0.1879826
10
0.647577
20
0.1909664
10
0.6506523
20
0.1940667
10
0.65376
20
0.1972851
10
0.6568976
20
0.2006228
10
0.6600623
20
0.2040813
10
0.6632515
20
0.2076619
10
0.6664624
20
0.2113659
10
0.6668652
20
0.2118377
10
0.6670667
20
0.2120742
10
0.6670919
20
0.2121039
10
0.6670906
20
0.2121088
10
0.6586935
20
0.2369026
10
0.6586915
20
0.2369074
10
0.6586535
20
0.2369156
10
0.6583497
20
0.2369811
10
0.6577432
20
0.237111
10
0.6529423
20
0.2381015
10
0.6482337
20
0.2390074
10
0.6436187
20
0.2398311
10
0.6390986
20
0.2405754
10
0.6346748
20
0.2412429
10
0.6303485
20
0.2418365
10
0.6261208
20
0.2423588
10
0.6219929
20
0.2428127
10
0.6179658
20
0.2432008
10
0.6140405
20
0.2435259
10
0.610218
20
0.243791
10
0.6064991
20
0.2439987
10
0.6028848
20
0.244152
10
0.5993756
20
0.2442536
10
0.5959725
20
0.2443064
10
0.5926759
20
0.2443134
10
0.5894866
20
0.2442773
10
0.5864051
20
0.244201
10
0.5834318
20
0.2440875
10
0.5805672
20
0.2439395
10
0.5778116
20
0.2437601
10
0.5751654
20
0.2435521
10
0.5726288
20
0.2433184
10
0.570202
20
0.243062
10
0.5678852
20
0.2427856
10
0.5656784
20
0.2424923
10
0.5635816
20
0.2421849
10
0.5615948
20
0.2418664
10
0.5597179
20
0.2415396
10
0.5579507
20
0.2412073
10
0.5562931
20
0.2408726
10
0.5547447
20
0.2405383
10
0.5533053
20
0.2402072
10
0.5519744
20
0.2398822
10
0.5507516
20
0.2395662
10
0.5496364
20
0.2392619
10
0.5486283
20
0.2389723
10
0.5477266
20
0.2387001
10
0.5469307
20
0.2384481
10
0.5462399
20
0.2382192
10
0.5456533
20
0.2380161
10
0.5451701
20
0.2378415
10
0.5447895
20
0.2376981
10
0.5445104
20
0.2375888
10
0.544332
20
0.2375162
10
0.543053
20
0.2369592
10
0.5246327
20
0.2753485
10
0.5258674
20
0.2759977
10
0.5260357
20
0.2760914
10
0.5262956
20
0.2762407
10
0.5266456
20
0.2764479
10
0.5270841
20
0.2767156
10
0.5276096
20
0.277046
10
0.5282204
20
0.2774417
10
0.528915
20
0.2779049
10
0.5296915
20
0.278438
10
0.5305482
20
0.2790432
10
0.5314833
20
0.2797227
10
0.5324949
20
0.2804788
10
0.5335812
20
0.2813136
10
0.5347401
20
0.2822293
10
0.5359697
20
0.2832279
10
0.537268
20
0.2843115
10
0.5386329
20
0.2854822
10
0.5400622
20
0.2867418
10
0.5415539
20
0.2880923
10
0.5431056
20
0.2895356
10
0.5447152
20
0.2910735
10
0.5463804
20
0.2927079
10
0.5480989
20
0.2944405
10
0.5498684
20
0.2962729
10
0.5516864
20
0.298207
10
0.5535505
20
0.3002442
10
0.5554583
20
0.3023862
10
0.5574072
20
0.3046345
10
0.5593949
20
0.3069906
10
0.5614186
20
0.3094559
10
0.5634758
20
0.3120317
10
0.565564
20
0.3147195
10
0.5676804
20
0.3175204
10
0.5698224
20
0.3204357
10
0.5719872
20
0.3234667
10
0.5741722
20
0.3266143
10
0.5763747
20
0.3298797
10
0.5785917
20
0.3332639
10
0.5808205
20
0.3367679
10
0.5830583
20
0.3403926
10
0.5853023
20
0.3441388
10
0.5875495
20
0.3480073
10
0.5897972
20
0.3519989
10
0.5920422
20
0.3561143
10
0.5942819
20
0.3603541
10
0.5965131
20
0.3647189
10
0.5967912
20
0.3652733
10
0.5969303
20
0.3655513
10
0.5969476
20
0.365586
10
0.5969452
20
0.3655906
10
0.5828586
20
0.3876543
10
0.5828555
20
0.3876585
10
0.5828166
20
0.3876574
10
0.582506
20
0.3876482
10
0.581886
20
0.3876292
10
0.5769876
20
0.3874421
10
0.572199
20
0.3871947
10
0.567521
20
0.38689
10
0.5629541
20
0.386531
10
0.5584991
20
0.3861205
10
0.5541565
20
0.3856615
10
0.5499266
20
0.3851569
10
0.5458101
20
0.3846096
10
0.5418071
20
0.3840227
10
0.5379181
20
0.383399
10
0.5341432
20
0.3827416
10
0.5304827
20
0.3820533
10
0.5269366
20
0.3813371
10
0.5235051
20
0.380596
10
0.5201882
20
0.3798329
10
0.5169858
20
0.3790507
10
0.5138978
20
0.3782524
10
0.5109241
20
0.3774409
10
0.5080644
20
0.3766191
10
0.5053184
20
0.3757899
10
0.5026859
20
0.3749563
10
0.5001663
20
0.374121
10
0.4977594
20
0.3732871
10
0.4954645
20
0.3724573
10
0.4932811
20
0.3716345
10
0.4912086
20
0.3708216
10
0.4892463
20
0.3700214
10
0.4873934
20
0.3692366
10
0.4856493
20
0.3684701
10
0.484013
20
0.3677246
10
0.4824836
20
0.367003
10
0.4810603
20
0.3663078
10
0.4797419
20
0.3656418
10
0.4785274
20
0.3650078
10
0.4774158
20
0.3644083
10
0.4764059
20
0.363846
10
0.4754964
20
0.3633235
10
0.474686
20
0.3628435
10
0.4739735
20
0.3624084
10
0.4733575
20
0.3620207
10
0.4728366
20
0.3616831
10
0.4724092
20
0.361398
10
0.472074
20
0.3611677
10
0.4718292
20
0.3609948
10
0.4716734
20
0.3608815
10
0.4705648
20
0.3600347
10
0.4434926
20
0.3929002
10
0.4445361
20
0.393826
10
0.4446771
20
0.3939573
10
0.4448937
20
0.3941644
10
0.4451839
20
0.3944494
10
0.4455456
20
0.3948142
10
0.4459767
20
0.3952608
10
0.4464752
20
0.3957912
10
0.4470387
20
0.3964071
10
0.447665
20
0.3971105
10
0.448352
20
0.3979032
10
0.4490973
20
0.3987867
10
0.4498986
20
0.399763
10
0.4507535
20
0.4008335
10
0.4516596
20
0.4019999
10
0.4526146
20
0.4032638
10
0.4536158
20
0.4046266
10
0.4546608
20
0.4060899
10
0.4557472
20
0.4076549
10
0.4568723
20
0.4093231
10
0.4580335
20
0.4110959
10
0.4592283
20
0.4129743
10
0.460454
20
0.4149597
10
0.461708
20
0.4170532
10
0.4629875
20
0.4192559
10
0.4642898
20
0.4215688
10
0.4656122
20
0.423993
10
0.4669519
20
0.4265293
10
0.4683062
20
0.4291787
10
0.4696722
20
0.431942
10
0.4710471
20
0.4348199
10
0.4724282
20
0.4378132
10
0.4738124
20
0.4409226
10
0.475197
20
0.4441486
10
0.4765791
20
0.4474919
10
0.4779557
20
0.4509528
10
0.4793239
20
0.4545319
10
0.4806809
20
0.4582295
10
0.4820236
20
0.4620459
10
0.4833491
20
0.4659815
10
0.4846545
20
0.4700364
10
0.4859367
20
0.4742108
10
0.4871928
20
0.4785047
10
0.4884199
20
0.4829182
10
0.4896148
20
0.4874513
10
0.4907747
20
0.4921039
10
0.4918965
20
0.4968758
10
0.4920339
20
0.4974806
10
0.4921024
20
0.4977838
10
0.492111
20
0.4978217
10
0.4921075
20
0.4978255
10
0.47315
20
0.515877
10
0.473146
20
0.5158803
10
0.4731086
20
0.5158699
10
0.4728091
20
0.5157867
10
0.4722117
20
0.5156198
10
0.4675004
20
0.5142659
10
0.4629102
20
0.5128797
10
0.458441
20
0.5114644
10
0.4540928
20
0.5100228
10
0.4498655
20
0.5085581
10
0.4457589
20
0.5070732
10
0.4417727
20
0.505571
10
0.4379067
20
0.5040545
10
0.4341605
20
0.5025266
10
0.4305337
20
0.5009904
10
0.4270259
20
0.4994486
10
0.4236365
20
0.4979043
10
0.4203649
20
0.4963603
10
0.4172105
20
0.4948196
10
0.4141725
20
0.4932848
10
0.4112504
20
0.491759
10
0.4084432
20
0.4902449
10
0.40575
20
0.4887453
10
0.4031701
20
0.487263
10
0.4007024
20
0.4858007
10
0.3983458
20
0.4843613
10
0.3960994
20
0.4829474
10
0.3939619
20
0.4815617
10
0.3919323
20
0.4802068
10
0.3900093
20
0.4788854
10
0.3881915
20
0.4776001
10
0.3864777
20
0.4763535
10
0.3848666
20
0.4751482
10
0.3833565
20
0.4739865
10
0.3819462
20
0.4728711
10
0.380634
20
0.4718044
10
0.3794183
20
0.4707888
10
0.3782976
20
0.4698267
10
0.3772702
20
0.4689204
10
0.3763344
20
0.4680723
10
0.3754883
20
0.4672847
10
0.3747303
20
0.4665597
10
0.3740584
20
0.4658997
10
0.3734707
20
0.4653067
10
0.3729654
20
0.464783
10
0.3725404
20
0.4643305
10
0.3721937
20
0.4639513
10
0.3719233
20
0.4636475
10
0.371727
20
0.4634211
10
0.3716028
20
0.4632738
10
0.3707291
20
0.4621863
10
0.3365784
20
0.4876179
10
0.3373699
20
0.4887666
10
0.3374754
20
0.4889278
10
0.3376362
20
0.4891807
10
0.3378497
20
0.4895269
10
0.3381136
20
0.4899676
10
0.3384254
20
0.4905045
10
0.3387824
20
0.4911387
10
0.3391821
20
0.4918716
10
0.3396219
20
0.4927045
10
0.3400993
20
0.4936385
10
0.3406115
20
0.4946747
10
0.3411558
20
0.4958144
10
0.3417297
20
0.4970584
10
0.3423304
20
0.4984077
10
0.3429551
20
0.4998634
10
0.3436011
20
0.5014263
10
0.3442656
20
0.5030971
10
0.3449458
20
0.5048766
10
0.345639
20
0.5067657
10
0.3463422
20
0.5087648
10
0.3470528
20
0.5108746
10
0.3477677
20
0.5130956
10
0.3484842
20
0.5154284
10
0.3491994
20
0.5178732
10
0.3499103
20
0.5204306
10
0.3506142
20
0.5231008
10
0.351308
20
0.525884
10
0.3519889
20
0.5287805
10
0.3526539
20
0.5317904
10
0.3533002
20
0.5349138
10
0.3539247
20
0.5381506
10
0.3545246
20
0.5415009
10
0.3550969
20
0.5449646
10
0.3556387
20
0.5485414
10
0.3561471
20
0.5522312
10
0.356619
20
0.5560337
10
0.3570517
20
0.5599486
10
0.357442
20
0.5639755
10
0.3577872
20
0.5681139
10
0.3580842
20
0.5723634
10
0.3583302
20
0.5767233
10
0.3585222
20
0.5811931
10
0.3586574
20
0.585772
10
0.3587328
20
0.5904593
10
0.3587455
20
0.5952543
10
0.3586928
20
0.600156
10
0.3586814
20
0.6007762
10
0.3586753
20
0.6010869
10
0.3586746
20
0.6011258
10
0.3586703
20
0.6011286
10
0.3359437
20
0.6141188
10
0.335939
20
0.614121
10
0.3359051
20
0.6141019
10
0.3356343
20
0.6139495
10
0.3350942
20
0.6136445
10
0.3308438
20
0.6112024
10
0.3267187
20
0.608758
10
0.3227181
20
0.6063143
10
0.3188412
20
0.603874
10
0.3150873
20
0.6014402
10
0.3114554
20
0.5990156
10
0.3079445
20
0.5966031
10
0.3045538
20
0.5942055
10
0.3012821
20
0.5918255
10
0.2981284
20
0.589466
10
0.2950914
20
0.5871296
10
0.2921701
20
0.584819
10
0.289363
20
0.5825369
10
0.286669
20
0.580286
10
0.2840867
20
0.5780688
10
0.2816146
20
0.575888
10
0.2792513
20
0.5737461
10
0.2769953
20
0.5716456
10
0.274845
20
0.5695889
10
0.2727989
20
0.5675786
10
0.2708554
20
0.565617
10
0.2690126
20
0.5637066
10
0.2672689
20
0.5618496
10
0.2656225
20
0.5600484
10
0.2640715
20
0.5583052
10
0.2626142
20
0.5566223
10
0.2612485
20
0.5550017
10
0.2599726
20
0.5534458
10
0.2587845
20
0.5519566
10
0.257682
20
0.550536
10
0.2566632
20
0.5491863
10
0.255726
20
0.5479093
10
0.2548681
20
0.5467069
10
0.2540874
20
0.5455811
10
0.2533818
20
0.5445337
10
0.2527488
20
0.5435665
10
0.2521863
20
0.5426812
10
0.2516918
20
0.5418795
10
0.2512632
20
0.5411632
10
0.2508978
20
0.5405337
10
0.2505935
20
0.5399926
10
0.2503476
20
0.5395415
10
0.2501577
20
0.5391819
10
0.2500214
20
0.538915
10
0.249936
20
0.5387423
10
0.249348
20
0.5374773
10
0.2101034
20
0.5539971
10
0.2105971
20
0.5553018
10
0.2106609
20
0.5554836
10
0.2107565
20
0.5557676
10
0.210881
20
0.5561548
10
0.2110317
20
0.556646
10
0.2112059
20
0.5572418
10
0.2114008
20
0.557943
10
0.2116135
20
0.5587503
10
0.2118412
20
0.5596642
10
0.2120812
20
0.5606853
10
0.2123305
20
0.5618141
10
0.2125863
20
0.5630508
10
0.2128458
20
0.564396
10
0.2131061
20
0.5658499
10
0.2133643
20
0.5674128
10
0.2136175
20
0.5690848
10
0.2138628
20
0.5708661
10
0.2140974
20
0.5727568
10
0.2143184
20
0.5747568
10
0.2145228
20
0.5768661
10
0.2147078
20
0.5790847
10
0.2148704
20
0.5814122
10
0.2150078
20
0.5838487
10
0.2151171
20
0.5863937
10
0.2151954
20
0.5890469
10
0.2152397
20
0.5918079
10
0.2152473
20
0.5946763
10
0.2152152
20
0.5976516
10
0.2151406
20
0.6007332
10
0.2150206
20
0.6039204
10
0.2148524
20
0.6072127
10
0.2146331
20
0.6106092
10
0.2143599
20
0.6141091
10
0.21403
20
0.6177117
10
0.2136405
20
0.621416
10
0.2131888
20
0.6252209
10
0.2126719
20
0.6291256
10
0.2120872
20
0.6331289
10
0.211432
20
0.6372297
10
0.2107034
20
0.6414267
10
0.2098988
20
0.6457188
10
0.2090156
20
0.6501046
10
0.208051
20
0.6545829
10
0.2070025
20
0.659152
10
0.2058674
20
0.6638107
10
0.2046431
20
0.6685574
10
0.2044836
20
0.6691568
10
0.2044034
20
0.669457
10
0.2043933
20
0.6694946
10
0.2043885
20
0.6694963
10
0.1792135
20
0.6766702
10
0.1792085
20
0.6766712
10
0.1791801
20
0.6766446
10
0.1789537
20
0.6764318
10
0.1785022
20
0.6760064
10
0.1749598
20
0.6726181
10
0.1715395
20
0.6692575
10
0.16824
20
0.6659274
10
0.1650598
20
0.6626302
10
0.1619974
20
0.6593688
10
0.1590512
20
0.6561455
10
0.1562198
20
0.6529629
10
0.1535014
20
0.6498235
10
0.1508943
20
0.6467297
10
0.1483969
20
0.643684
10
0.1460073
20
0.6406886
10
0.1437238
20
0.6377461
10
0.1415444
20
0.6348586
10
0.1394674
20
0.6320283
10
0.1374907
20
0.6292576
10
0.1356123
20
0.6265485
10
0.1338303
20
0.6239033
10
0.1321426
20
0.6213239
10
0.130547
20
0.6188124
10
0.1290415
20
0.6163709
10
0.1276238
20
0.6140012
10
0.1262917
20
0.6117052
10
0.1250431
20
0.6094849
10
0.1238756
20
0.607342
10
0.1227869
20
0.6052783
10
0.1217747
20
0.6032955
10
0.1208365
20
0.6013953
10
0.1199701
20
0.5995792
10
0.1191728
20
0.5978489
10
0.1184424
20
0.5962058
10
0.1177762
20
0.5946515
10
0.1171718
20
0.5931873
10
0.1166266
20
0.5918146
10
0.116138
20
0.5905346
10
0.1157035
20
0.5893488
10
0.1153204
20
0.5882582
10
0.1149861
20
0.587264
10
0.1146979
20
0.5863673
10
0.1144531
20
0.5855691
10
0.114249
20
0.5848705
10
0.114083
20
0.5842724
10
0.1139522
20
0.5837755
10
0.1138539
20
0.5833809
10
0.1137854
20
0.5830891
10
0.1137439
20
0.582901
10
0.1134757
20
0.5815321
10
0.071418
20
0.58818
10
0.0715851
20
0.5895649
10
0.0716036
20
0.5897567
10
0.0716284
20
0.5900554
10
0.0716566
20
0.5904611
10
0.0716854
20
0.590974
10
0.071712
20
0.5915943
10
0.0717334
20
0.5923217
10
0.0717467
20
0.5931565
10
0.0717491
20
0.5940983
10
0.0717377
20
0.5951472
10
0.0717097
20
0.5963028
10
0.0716621
20
0.5975648
10
0.0715921
20
0.598933
10
0.0714969
20
0.600407
10
0.0713735
20
0.6019862
10
0.0712192
20
0.6036703
10
0.0710311
20
0.6054585
10
0.0708065
20
0.6073504
10
0.0705424
20
0.6093451
10
0.070236
20
0.6114421
10
0.0698847
20
0.6136404
10
0.0694856
20
0.6159393
10
0.0690359
20
0.6183378
10
0.068533
20
0.620835
10
0.067974
20
0.6234299
10
0.0673564
20
0.6261213
10
0.0666773
20
0.6289082
10
0.0659341
20
0.6317893
10
0.0651242
20
0.6347635
10
0.0642449
20
0.6378294
10
0.0632937
20
0.6409857
10
0.0622679
20
0.6442311
10
0.0611651
20
0.6475639
10
0.0599826
20
0.6509829
10
0.0587179
20
0.6544863
10
0.0573687
20
0.6580726
10
0.0559324
20
0.6617401
10
0.0544067
20
0.6654871
10
0.0527891
20
0.6693119
10
0.0510773
20
0.6732126
10
0.0492689
20
0.6771875
10
0.0473618
20
0.6812345
10
0.0453535
20
0.6853517
10
0.043242
20
0.6895372
10
0.0410249
20
0.6937889
10
0.0387003
20
0.6981046
10
0.038402
20
0.6986485
10
0.0382522
20
0.6989208
10
0.0382335
20
0.6989548
10
0.0382284
20
0.6989554
10
0.0120681
20
0.699896
10
0.012063
20
0.6998958
10
0.0120418
20
0.6998632
10
0.0118729
20
0.6996023
10
0.0115363
20
0.6990813
10
0.0089077
20
0.6949437
10
0.0063911
20
0.6908622
10
0.0039844
20
0.6868392
10
0.0016856
20
0.6828768
10
-0.0005073
20
0.6789772
10
-0.0025964
20
0.6751425
10
-0.0045839
20
0.6713748
10
-0.0064721
20
0.667676
10
-0.008263
20
0.6640483
10
-0.0099589
20
0.6604934
10
-0.0115622
20
0.6570132
10
-0.0130752
20
0.6536097
10
-0.0145002
20
0.6502845
10
-0.0158396
20
0.6470395
10
-0.0170957
20
0.6438762
10
-0.0182712
20
0.6407963
10
-0.0193684
20
0.6378015
10
-0.0203898
20
0.6348931
10
-0.021338
20
0.6320728
10
-0.0222155
20
0.6293419
10
-0.0230248
20
0.6267018
10
-0.0237687
20
0.6241538
10
-0.0244497
20
0.6216992
10
-0.0250705
20
0.6193391
10
-0.0256336
20
0.6170749
10
-0.0261419
20
0.6149074
10
-0.0265981
20
0.6128379
10
-0.0270048
20
0.6108672
10
-0.0273647
20
0.6089964
10
-0.0276807
20
0.6072263
10
-0.0279556
20
0.6055577
10
-0.028192
20
0.6039914
10
-0.0283929
20
0.6025281
10
-0.0285609
20
0.6011684
10
-0.028699
20
0.599913
10
-0.02881
20
0.5987624
10
-0.0288967
20
0.5977171
10
-0.0289619
20
0.5967775
10
-0.0290086
20
0.595944
10
-0.0290395
20
0.5952168
10
-0.0290576
20
0.5945963
10
-0.0290657
20
0.5940826
10
-0.0290666
20
0.5936759
10
-0.0290633
20
0.5933762
10
-0.0290587
20
0.5931837
10
-0.0289915
20
0.5917903
10
-0.071418
20
0.58818
10
-0.0715872
20
0.5895647
10
-0.0716151
20
0.5897553
10
-0.0716625
20
0.5900512
10
-0.0717322
20
0.5904519
10
-0.071827
20
0.5909569
10
-0.0719496
20
0.5915654
10
-0.072103
20
0.5922769
10
-0.0722898
20
0.5930905
10
-0.0725128
20
0.5940056
10
-0.0727749
20
0.5950212
10
-0.0730787
20
0.5961365
10
-0.0734269
20
0.5973506
10
-0.0738223
20
0.5986623
10
-0.0742675
20
0.6000706
10
-0.0747652
20
0.6015744
10
-0.075318
20
0.6031726
10
-0.0759286
20
0.6048639
10
-0.0765995
20
0.606647
10
-0.0773333
20
0.6085206
10
-0.0781326
20
0.6104833
10
-0.0789998
20
0.6125337
10
-0.0799374
20
0.6146702
10
-0.080948
20
0.6168914
10
-0.082034
20
0.6191957
10
-0.0831977
20
0.6215814
10
-0.0844415
20
0.6240468
10
-0.0857678
20
0.6265901
10
-0.0871789
20
0.6292097
10
-0.0886771
20
0.6319037
10
-0.0902645
20
0.6346701
10
-0.0919434
20
0.637507
10
-0.0937161
20
0.6404126
10
-0.0955845
20
0.6433847
10
-0.0975508
20
0.6464212
10
-0.0996171
20
0.6495202
10
-0.1017854
20
0.6526794
10
-0.1040576
20
0.6558966
10
-0.1064358
20
0.6591696
10
-0.1089217
20
0.6624962
10
-0.1115173
20
0.6658739
10
-0.1142243
20
0.6693005
10
-0.1170446
20
0.6727735
10
-0.1199798
20
0.6762905
10
-0.1230316
20
0.679849
10
-0.1262017
20
0.6834465
10
-0.1294917
20
0.6870805
10
-0.1299114
20
0.6875372
10
-0.130122
20
0.6877657
10
-0.1301483
20
0.6877943
10
-0.1301534
20
0.6877936
10
-0.1557786
20
0.6824464
10
-0.1557836
20
0.6824449
10
-0.1557963
20
0.6824082
10
-0.1558979
20
0.6821145
10
-0.1561
20
0.6815281
10
-0.157662
20
0.6768816
10
-0.1591288
20
0.6723165
10
-0.1605028
20
0.6678344
10
-0.1617865
20
0.663437
10
-0.1629824
20
0.659126
10
-0.1640931
20
0.6549027
10
-0.1651212
20
0.6507688
10
-0.1660693
20
0.6467257
10
-0.16694
20
0.6427748
10
-0.1677359
20
0.6389173
10
-0.1684598
20
0.6351546
10
-0.1691143
20
0.6314879
10
-0.1697021
20
0.6279183
10
-0.170226
20
0.624447
10
-0.1706886
20
0.621075
10
-0.1710929
20
0.6178034
10
-0.1714415
20
0.614633
10
-0.1717372
20
0.6115647
10
-0.1719829
20
0.6085994
10
-0.1721813
20
0.6057378
10
-0.1723353
20
0.6029808
10
-0.1724478
20
0.6003288
10
-0.1725216
20
0.5977825
10
-0.1725595
20
0.5953425
10
-0.1725645
20
0.5930093
10
-0.1725393
20
0.5907832
10
-0.1724869
20
0.5886646
10
-0.1724101
20
0.5866539
10
-0.1723119
20
0.5847513
10
-0.1721952
20
0.582957
10
-0.1720627
20
0.5812711
10
-0.1719174
20
0.5796937
10
-0.1717622
20
0.5782248
10
-0.1716
20
0.5768645
10
-0.1714337
20
0.5756125
10
-0.1712661
20
0.5744688
10
-0.1711001
20
0.5734331
10
-0.1709386
20
0.5725052
10
-0.1707844
20
0.5716847
10
-0.1706404
20
0.5709713
10
-0.1705094
20
0.5703645
10
-0.1703943
20
0.5698638
10
-0.1702979
20
0.5694687
10
-0.170223
20
0.5691785
10
-0.1701724
20
0.5689926
10
-0.1697737
20
0.5676558
10
-0.2101034
20
0.5539971
10
-0.210599
20
0.5553011
10
-0.2106718
20
0.5554795
10
-0.2107886
20
0.5557554
10
-0.2109522
20
0.5561278
10
-0.211165
20
0.5565954
10
-0.2114297
20
0.5571569
10
-0.2117489
20
0.557811
10
-0.212125
20
0.5585563
10
-0.2125606
20
0.5593914
10
-0.2130581
20
0.5603148
10
-0.21362
20
0.561325
10
-0.2142486
20
0.5624204
10
-0.2149464
20
0.5635994
10
-0.2157157
20
0.5648602
10
-0.2165588
20
0.5662013
10
-0.2174781
20
0.5676207
10
-0.2184756
20
0.5691167
10
-0.2195538
20
0.5706875
10
-0.2207146
20
0.572331
10
-0.2219604
20
0.5740454
10
-0.2232931
20
0.5758287
10
-0.2247148
20
0.5776788
10
-0.2262276
20
0.5795936
10
-0.2278335
20
0.581571
10
-0.2295343
20
0.5836088
10
-0.231332
20
0.5857049
10
-0.2332284
20
0.587857
10
-0.2352254
20
0.5900627
10
-0.2373247
20
0.5923199
10
-0.2395281
20
0.594626
10
-0.2418371
20
0.5969787
10
-0.2442536
20
0.5993756
10
-0.246779
20
0.6018142
10
-0.2494149
20
0.604292
10
-0.2521628
20
0.6068064
10
-0.2550241
20
0.6093549
10
-0.2580002
20
0.6119348
10
-0.2610925
20
0.6145436
10
-0.2643023
20
0.6171786
10
-0.2676308
20
0.619837
10
-0.2710792
20
0.6225161
10
-0.2746487
20
0.6252133
10
-0.2783403
20
0.6279257
10
-0.2821551
20
0.6306504
10
-0.286094
20
0.6333848
10
-0.290158
20
0.6361258
10
-0.2906748
20
0.6364688
10
-0.290934
20
0.6366403
10
-0.2909664
20
0.6366617
10
-0.2909712
20
0.6366598
10
-0.3145721
20
0.6253354
10
-0.3145765
20
0.6253329
10
-0.3145801
20
0.6252942
10
-0.3146085
20
0.6249847
10
-0.3146643
20
0.6243669
10
-0.315069
20
0.6194817
10
-0.3154007
20
0.6146982
10
-0.3156621
20
0.6100175
10
-0.3158561
20
0.6054407
10
-0.3159856
20
0.6009687
10
-0.3160534
20
0.5966024
10
-0.3160623
20
0.5923426
10
-0.3160152
20
0.5881901
10
-0.3159151
20
0.5841455
10
-0.3157648
20
0.5802097
10
-0.3155671
20
0.5763831
10
-0.3153251
20
0.5726663
10
-0.3150416
20
0.5690598
10
-0.3147195
20
0.565564
10
-0.3143617
20
0.5621793
10
-0.3139712
20
0.5589059
10
-0.313551
20
0.5557442
10
-0.3131038
20
0.5526943
10
-0.3126327
20
0.5497564
10
-0.3121406
20
0.5469305
10
-0.3116303
20
0.5442167
10
-0.3111049
20
0.5416149
10
-0.3105671
20
0.5391249
10
-0.31002
20
0.5367467
10
-0.3094665
20
0.5344801
10
-0.3089093
20
0.5323247
10
-0.3083514
20
0.5302803
10
-0.3077957
20
0.5283463
10
-0.307245
20
0.5265225
10
-0.3067022
20
0.5248083
10
-0.3061701
20
0.5232031
10
-0.3056516
20
0.5217063
10
-0.3051494
20
0.5203173
10
-0.3046663
20
0.5190353
10
-0.3042052
20
0.5178595
10
-0.3037688
20
0.5167891
10
-0.3033597
20
0.5158233
10
-0.3029809
20
0.514961
10
-0.3026348
20
0.5142012
10
-0.3023243
20
0.513543
10
-0.3020519
20
0.5129852
10
-0.3018203
20
0.5125266
10
-0.3016322
20
0.512166
10
-0.30149
20
0.5119022
10
-0.3013964
20
0.5117338
10
-0.3006893
20
0.5105313
10
-0.3365784
20
0.4876179
10
-0.3373717
20
0.4887654
10
-0.337485
20
0.4889212
10
-0.3376645
20
0.4891612
10
-0.3379124
20
0.4894836
10
-0.338231
20
0.4898867
10
-0.3386224
20
0.4903685
10
-0.3390888
20
0.4909272
10
-0.3396323
20
0.4915609
10
-0.3402551
20
0.4922675
10
-0.3409591
20
0.493045
10
-0.3417464
20
0.4938913
10
-0.342619
20
0.4948045
10
-0.3435786
20
0.4957822
10
-0.3446273
20
0.4968223
10
-0.3457669
20
0.4979226
10
-0.3469991
20
0.4990808
10
-0.3483257
20
0.5002946
10
-0.3497484
20
0.5015617
10
-0.3512689
20
0.5028796
10
-0.3528887
20
0.5042461
10
-0.3546094
20
0.5056586
10
-0.3564326
20
0.5071147
10
-0.3583597
20
0.5086118
10
-0.3603921
20
0.5101475
10
-0.3625312
20
0.5117191
10
-0.3647783
20
0.513324
10
-0.3671346
20
0.5149597
10
-0.3696014
20
0.5166235
10
-0.3721799
20
0.5183126
10
-0.3748711
20
0.5200244
10
-0.3776762
20
0.5217562
10
-0.380596
20
0.5235051
10
-0.3836316
20
0.5252685
10
-0.3867839
20
0.5270435
10
-0.3900537
20
0.5288272
10
-0.3934417
20
0.5306169
10
-0.3969488
20
0.5324096
10
-0.4005756
20
0.5342026
10
-0.4043227
20
0.5359928
10
-0.4081907
20
0.5377774
10
-0.41218
20
0.5395535
10
-0.4162912
20
0.541318
10
-0.4205247
20
0.5430681
10
-0.4248807
20
0.5448007
10
-0.4293595
20
0.546513
10
-0.4339614
20
0.5482018
10
-0.4345453
20
0.5484111
10
-0.434838
20
0.5485156
10
-0.4348746
20
0.5485287
10
-0.4348788
20
0.5485257
10
-0.4550837
20
0.5318823
10
-0.4550875
20
0.5318788
10
-0.4550817
20
0.5318403
10
-0.4550352
20
0.531533
10
-0.4549416
20
0.5309199
10
-0.4541653
20
0.5260797
10
-0.4533426
20
0.5213559
10
-0.4524763
20
0.5167487
10
-0.4515694
20
0.5122584
10
-0.4506249
20
0.5078854
10
-0.4496457
20
0.5036297
10
-0.448635
20
0.4994915
10
-0.4475955
20
0.4954709
10
-0.4465304
20
0.4915679
10
-0.4454425
20
0.4877824
10
-0.4443348
20
0.4841143
10
-0.4432103
20
0.4805634
10
-0.4420719
20
0.4771296
10
-0.4409226
20
0.4738124
10
-0.4397652
20
0.4706117
10
-0.4386028
20
0.4675269
10
-0.437438
20
0.4645576
10
-0.436274
20
0.4617034
10
-0.4351135
20
0.4589636
10
-0.4339594
20
0.4563376
10
-0.4328145
20
0.4538247
10
-0.4316817
20
0.4514242
10
-0.4305637
20
0.4491354
10
-0.4294633
20
0.4469572
10
-0.4283834
20
0.4448889
10
-0.4273266
20
0.4429295
10
-0.4262956
20
0.441078
10
-0.4252933
20
0.4393332
10
-0.4243221
20
0.4376942
10
-0.4233848
20
0.4361597
10
-0.4224841
20
0.4347285
10
-0.4216224
20
0.4333993
10
-0.4208024
20
0.4321708
10
-0.4200266
20
0.4310416
10
-0.4192975
20
0.4300104
10
-0.4186175
20
0.4290756
10
-0.4179893
20
0.4282356
10
-0.417415
20
0.4274891
10
-0.4168972
20
0.4268342
10
-0.4164382
20
0.4262694
10
-0.4160402
20
0.425793
10
-0.4157056
20
0.4254031
10
-0.4154366
20
0.4250981
10
-0.4152355
20
0.4248759
10
-0.4151043
20
0.4247349
10
-0.41413
20
0.4237365
10
-0.4434926
20
0.3929002
10
-0.4445375
20
0.3938244
10
-0.4446848
20
0.3939486
10
-0.4449165
20
0.3941386
10
-0.4452344
20
0.3943924
10
-0.4456401
20
0.3947075
10
-0.4461355
20
0.3950816
10
-0.446722
20
0.3955125
10
-0.4474014
20
0.3959977
10
-0.4481752
20
0.3965347
10
-0.4490449
20
0.3971211
10
-0.4500118
20
0.3977545
10
-0.4510775
20
0.3984323
10
-0.4522433
20
0.3991519
10
-0.4535104
20
0.3999108
10
-0.4548802
20
0.4007064
10
-0.4563538
20
0.4015361
10
-0.4579323
20
0.4023971
10
-0.4596169
20
0.4032869
10
-0.4614086
20
0.4042027
10
-0.4633084
20
0.4051418
10
-0.4653171
20
0.4061015
10
-0.4674358
20
0.4070789
10
-0.4696652
20
0.4080714
10
-0.472006
20
0.409076
10
-0.4744591
20
0.4100901
10
-0.4770249
20
0.4111106
10
-0.4797043
20
0.4121349
10
-0.4824976
20
0.4131599
10
-0.4854054
20
0.4141829
10
-0.488428
20
0.4152009
10
-0.491566
20
0.4162111
10
-0.4948196
20
0.4172105
10
-0.498189
20
0.4181961
10
-0.5016744
20
0.4191651
10
-0.505276
20
0.4201145
10
-0.5089939
20
0.4210414
10
-0.5128282
20
0.4219427
10
-0.5167786
20
0.4228156
10
-0.5208453
20
0.4236571
10
-0.5250279
20
0.4244641
10
-0.5293264
20
0.4252339
10
-0.5337404
20
0.4259633
10
-0.5382697
20
0.4266494
10
-0.5429138
20
0.4272892
10
-0.5476722
20
0.4278799
10
-0.5525446
20
0.4284183
10
-0.5531616
20
0.4284818
10
-0.5534708
20
0.4285132
10
-0.5535094
20
0.4285171
10
-0.5535128
20
0.4285132
10
-0.5691476
20
0.4075181
10
-0.5691504
20
0.4075138
10
-0.5691356
20
0.4074778
10
-0.5690169
20
0.4071906
10
-0.5687792
20
0.4066177
10
-0.5668672
20
0.4021039
10
-0.5649379
20
0.3977142
10
-0.5629942
20
0.3934482
10
-0.561039
20
0.3893055
10
-0.5590754
20
0.3852855
10
-0.5571063
20
0.3813879
10
-0.5551346
20
0.3776118
10
-0.5531632
20
0.3739568
10
-0.5511949
20
0.3704221
10
-0.5492327
20
0.367007
10
-0.5472794
20
0.3637105
10
-0.5453378
20
0.3605319
10
-0.5434107
20
0.3574703
10
-0.5415009
20
0.3545246
10
-0.5396112
20
0.3516938
10
-0.5377443
20
0.3489769
10
-0.5359028
20
0.3463727
10
-0.5340895
20
0.3438799
10
-0.5323071
20
0.3414975
10
-0.530558
20
0.339224
10
-0.5288451
20
0.3370581
10
-0.5271707
20
0.3349985
10
-0.5255374
20
0.3330437
10
-0.5239478
20
0.3311921
10
-0.5224042
20
0.3294424
10
-0.5209092
20
0.3277928
10
-0.5194651
20
0.3262418
10
-0.5180743
20
0.3247877
10
-0.5167392
20
0.3234287
10
-0.5154619
20
0.322163
10
-0.5142448
20
0.320989
10
-0.51309
20
0.3199046
10
-0.5119999
20
0.3189081
10
-0.5109764
20
0.3179974
10
-0.5100217
20
0.3171706
10
-0.5091378
20
0.3164257
10
-0.5083267
20
0.3157605
10
-0.5075905
20
0.3151731
10
-0.506931
20
0.3146612
10
-0.5063502
20
0.3142226
10
-0.5058498
20
0.3138553
10
-0.5054316
20
0.3135568
10
-0.5050974
20
0.313325
10
-0.5048489
20
0.3131575
10
-0.5046878
20
0.3130519
10
-0.5035029
20
0.3123157
10
-0.5246327
20
0.2753485
10
-0.5258684
20
0.2759958
10
-0.5260411
20
0.2760811
10
-0.5263116
20
0.2762102
10
-0.5266809
20
0.2763805
10
-0.5271503
20
0.2765893
10
-0.5277208
20
0.2768341
10
-0.5283935
20
0.277112
10
-0.5291692
20
0.2774205
10
-0.530049
20
0.2777567
10
-0.5310337
20
0.278118
10
-0.5321242
20
0.2785016
10
-0.5333211
20
0.2789046
10
-0.5346252
20
0.2793244
10
-0.5360372
20
0.279758
10
-0.5375575
20
0.2802027
10
-0.5391868
20
0.2806556
10
-0.5409256
20
0.2811138
10
-0.5427741
20
0.2815746
10
-0.5447329
20
0.282035
10
-0.5468022
20
0.2824922
10
-0.5489823
20
0.2829432
10
-0.5512733
20
0.2833853
10
-0.5536754
20
0.2838153
10
-0.5561887
20
0.2842306
10
-0.5588131
20
0.2846281
10
-0.5615487
20
0.285005
10
-0.5643953
20
0.2853582
10
-0.5673527
20
0.285685
10
-0.5704208
20
0.2859824
10
-0.5735993
20
0.2862475
10
-0.5768878
20
0.2864773
10
-0.580286
20
0.286669
10
-0.5837934
20
0.2868197
10
-0.5874094
20
0.2869264
10
-0.5911336
20
0.2869863
10
-0.5949653
20
0.2869964
10
-0.5989038
20
0.286954
10
-0.6029484
20
0.2868561
10
-0.6070982
20
0.2866999
10
-0.6113525
20
0.2864826
10
-0.6157103
20
0.2862012
10
-0.6201706
20
0.2858531
10
-0.6247324
20
0.2854354
10
-0.6293947
20
0.2849452
10
-0.6341562
20
0.2843799
10
-0.6390158
20
0.2837367
10
-0.6396301
20
0.2836507
10
-0.6399378
20
0.2836072
10
-0.6399763
20
0.2836017
10
-0.6399786
20
0.2835971
10
-0.6501347
20
0.2594704
10
-0.6501363
20
0.2594656
10
-0.6501133
20
0.2594342
10
-0.6499294
20
0.2591838
10
-0.6495615
20
0.2586843
10
-0.6466249
20
0.2547593
10
-0.6437011
20
0.2509589
10
-0.6407929
20
0.247282
10
-0.6379032
20
0.2437275
10
-0.6350346
20
0.2402943
10
-0.6321899
20
0.2369812
10
-0.6293718
20
0.2337867
10
-0.626583
20
0.2307097
10
-0.623826
20
0.2277488
10
-0.6211035
20
0.2249024
10
-0.6184181
20
0.2221692
10
-0.6157722
20
0.2195477
10
-0.6131684
20
0.2170362
10
-0.6106092
20
0.2146331
10
-0.6080969
20
0.2123368
10
-0.605634
20
0.2101456
10
-0.6032229
20
0.2080578
10
-0.6008657
20
0.2060714
10
-0.5985649
20
0.2041848
10
-0.5963226
20
0.2023959
10
-0.5941411
20
0.2007029
10
-0.5920224
20
0.1991038
10
-0.5899688
20
0.1975967
10
-0.5879823
20
0.1961794
10
-0.5860648
20
0.1948499
10
-0.5842185
20
0.193606
10
-0.5824452
20
0.1924457
10
-0.5807468
20
0.1913666
10
-0.5791252
20
0.1903666
10
-0.5775822
20
0.1894435
10
-0.5761194
20
0.1885948
10
-0.5747388
20
0.1878183
10
-0.5734418
20
0.1871116
10
-0.5722301
20
0.1864723
10
-0.5711052
20
0.185898
10
-0.5700688
20
0.1853863
10
-0.5691221
20
0.1849345
10
-0.5682667
20
0.1845403
10
-0.5675039
20
0.1842012
10
-0.566835
20
0.1839144
10
-0.5662612
20
0.1836774
10
-0.5657837
20
0.1834877
10
-0.5654038
20
0.1833426
10
-0.5651224
20
0.1832394
10
-0.5649407
20
0.1831755
10
-0.563614
20
0.1827442
10
-0.575283
20
0.1417945
10
-0.5766377
20
0.1421274
10
-0.5768259
20
0.1421688
10
-0.5771194
20
0.1422294
10
-0.5775187
20
0.1423064
10
-0.5780245
20
0.1423968
10
-0.5786369
20
0.1424979
10
-0.5793566
20
0.1426068
10
-0.5801836
20
0.1427207
10
-0.5811183
20
0.1428366
10
-0.5821609
20
0.1429517
10
-0.5833114
20
0.1430632
10
-0.58457
20
0.1431681
10
-0.5859367
20
0.1432635
10
-0.5874114
20
0.1433466
10
-0.588994
20
0.1434145
10
-0.5906843
20
0.1434644
10
-0.5924822
20
0.1434932
10
-0.5943873
20
0.1434982
10
-0.5963994
20
0.1434765
10
-0.598518
20
0.1434251
10
-0.6007426
20
0.1433414
10
-0.6030729
20
0.1432223
10
-0.6055081
20
0.143065
10
-0.6080477
20
0.1428667
10
-0.610691
20
0.1426246
10
-0.6134372
20
0.1423358
10
-0.6162857
20
0.1419976
10
-0.6192354
20
0.1416071
10
-0.6222855
20
0.1411616
10
-0.625435
20
0.1406583
10
-0.628683
20
0.1400945
10
-0.6320283
20
0.1394674
10
-0.6354698
20
0.1387743
10
-0.6390064
20
0.1380125
10
-0.6426367
20
0.1371794
10
-0.6463594
20
0.1362723
10
-0.6501733
20
0.1352886
10
-0.654077
20
0.1342256
10
-0.6580688
20
0.1330808
10
-0.6621475
20
0.1318517
10
-0.6663113
20
0.1305356
10
-0.6705587
20
0.1291302
10
-0.674888
20
0.1276329
10
-0.6792975
20
0.1260412
10
-0.6837853
20
0.1243528
10
-0.6883498
20
0.1225653
10
-0.6889257
20
0.1223348
10
-0.689214
20
0.1222189
10
-0.6892501
20
0.1222044
10
-0.6892513
20
0.1221994
10
-0.6933383
20
0.0963433
10
-0.6933387
20
0.0963381
10
-0.6933089
20
0.0963132
10
-0.6930703
20
0.0961141
10
-0.6925936
20
0.0957172
10
-0.688803
20
0.092609
10
-0.6850547
20
0.0896187
10
-0.6813511
20
0.0867447
10
-0.6776947
20
0.083985
10
-0.6740878
20
0.0813381
10
-0.6705329
20
0.078802
10
-0.6670322
20
0.0763748
10
-0.663588
20
0.0740546
10
-0.6602026
20
0.0718395
10
-0.656878
20
0.0697274
10
-0.6536165
20
0.0677163
10
-0.6504202
20
0.0658041
10
-0.647291
20
0.0639887
10
-0.6442311
20
0.0622679
10
-0.6412423
20
0.0606396
10
-0.6383265
20
0.0591015
10
-0.6354858
20
0.0576513
10
-0.6327218
20
0.0562868
10
-0.6300363
20
0.0550056
10
-0.6274311
20
0.0538053
10
-0.6249078
20
0.0526836
10
-0.622468
20
0.051638
10
-0.6201134
20
0.0506661
10
-0.6178454
20
0.0497654
10
-0.6156655
20
0.0489334
10
-0.6135751
20
0.0481676
10
-0.6115757
20
0.0474653
10
-0.6096684
20
0.046824
10
-0.6078546
20
0.0462412
10
-0.6061355
20
0.0457141
10
-0.6045122
20
0.0452402
10
-0.6029858
20
0.0448166
10
-0.6015573
20
0.0444409
10
-0.6002279
20
0.0441102
10
-0.5989983
20
0.0438217
10
-0.5978694
20
0.0435729
10
-0.5968422
20
0.0433608
10
-0.5959173
20
0.0431828
10
-0.5950955
20
0.043036
10
-0.5943774
20
0.0429177
10
-0.5937635
20
0.0428249
10
-0.5932546
20
0.042755
10
-0.5928509
20
0.042705
10
-0.5925531
20
0.0426722
10
-0.5923613
20
0.0426536
10
-0.59097
20
0.0425523
10
-0.5925
20
0
10
-0.593895
20
-0.0000011
10
-0.5940876
20
-0.0000058
10
-0.594387
20
-0.0000172
10
-0.5947932
20
-0.0000381
10
-0.5953059
20
-0.0000713
10
-0.5959248
20
-0.0001197
10
-0.5966496
20
-0.0001862
10
-0.5974798
20
-0.0002735
10
-0.5984151
20
-0.0003847
10
-0.5994549
20
-0.0005224
10
-0.6005987
20
-0.0006895
10
-0.6018458
20
-0.0008889
10
-0.6031956
20
-0.0011233
10
-0.6046473
20
-0.0013955
10
-0.6062002
20
-0.0017083
10
-0.6078534
20
-0.0020645
10
-0.6096059
20
-0.0024667
10
-0.6114569
20
-0.0029178
10
-0.6134053
20
-0.0034204
10
-0.61545
20
-0.0039773
10
-0.61759
20
-0.004591
10
-0.619824
20
-0.0052643
10
-0.6221508
20
-0.0059998
10
-0.6245692
20
-0.0068001
10
-0.6270777
20
-0.0076677
10
-0.6296751
20
-0.0086053
10
-0.6323598
20
-0.0096154
10
-0.6351303
20
-0.0107004
10
-0.6379852
20
-0.0118629
10
-0.6409228
20
-0.0131053
10
-0.6439414
20
-0.0144301
10
-0.6470395
20
-0.0158396
10
-0.6502151
20
-0.0173361
10
-0.6534666
20
-0.0189221
10
-0.656792
20
-0.0205998
10
-0.6601895
20
-0.0223714
10
-0.6636572
20
-0.0242393
10
-0.667193
20
-0.0262056
10
-0.6707949
20
-0.0282724
10
-0.6744609
20
-0.0304419
10
-0.6781887
20
-0.0327162
10
-0.6819764
20
-0.0350973
10
-0.6858215
20
-0.0375872
10
-0.6897219
20
-0.0401878
10
-0.6936754
20
-0.0429012
10
-0.6976794
20
-0.0457291
10
-0.6981834
20
-0.0460907
10
-0.6984356
20
-0.0462722
10
-0.6984672
20
-0.046295
10
-0.6984671
20
-0.0463001
10
-0.6962476
20
-0.072383
10
-0.6962468
20
-0.0723881
10
-0.6962119
20
-0.0724051
10
-0.6959326
20
-0.0725414
10
-0.6953748
20
-0.0728127
10
-0.6909504
20
-0.0749234
10
-0.6865954
20
-0.0769298
10
-0.6823116
20
-0.078834
10
-0.678101
20
-0.0806384
10
-0.6739656
20
-0.0823452
10
-0.669907
20
-0.0839569
10
-0.6659272
20
-0.0854758
10
-0.6620278
20
-0.0869043
10
-0.6582106
20
-0.0882449
10
-0.6544772
20
-0.0895
10
-0.6508292
20
-0.0906721
10
-0.6472681
20
-0.0917638
10
-0.6437954
20
-0.0927776
10
-0.6404126
20
-0.0937161
10
-0.6371209
20
-0.0945818
10
-0.6339219
20
-0.0953774
10
-0.6308166
20
-0.0961056
10
-0.6278063
20
-0.096769
10
-0.6248923
20
-0.0973704
10
-0.6220755
20
-0.0979123
10
-0.6193571
20
-0.0983975
10
-0.616738
20
-0.0988288
10
-0.6142192
20
-0.099209
10
-0.6118015
20
-0.0995408
10
-0.6094859
20
-0.0998269
10
-0.607273
20
-0.1000702
10
-0.6051636
20
-0.1002736
10
-0.6031583
20
-0.1004398
10
-0.6012577
20
-0.1005716
10
-0.5994624
20
-0.100672
10
-0.5977728
20
-0.1007437
10
-0.5961894
20
-0.1007896
10
-0.5947126
20
-0.1008126
10
-0.5933426
20
-0.1008155
10
-0.5920797
20
-0.1008013
10
-0.5909241
20
-0.1007728
10
-0.589876
20
-0.1007328
10
-0.5889354
20
-0.1006843
10
-0.5881023
20
-0.1006302
10
-0.5873767
20
-0.1005732
10
-0.5867585
20
-0.1005164
10
-0.5862476
20
-0.1004625
10
-0.5858438
20
-0.1004144
10
-0.5855467
20
-0.100375
10
-0.585356
20
-0.1003472
10
-0.5839809
20
-0.1001125
10
-0.575283
20
-0.1417945
10
-0.5766372
20
-0.1421294
10
-0.5768231
20
-0.1421801
10
-0.5771111
20
-0.1422628
10
-0.5775005
20
-0.1423803
10
-0.5779903
20
-0.1425352
10
-0.5785797
20
-0.1427303
10
-0.5792675
20
-0.1429683
10
-0.5800527
20
-0.1432519
10
-0.5809342
20
-0.1435836
10
-0.5819108
20
-0.1439662
10
-0.5829814
20
-0.1444022
10
-0.5841446
20
-0.1448942
10
-0.585399
20
-0.1454448
10
-0.5867434
20
-0.1460565
10
-0.5881763
20
-0.1467319
10
-0.5896962
20
-0.1474733
10
-0.5913015
20
-0.1482833
10
-0.5929908
20
-0.1491642
10
-0.5947623
20
-0.1501185
10
-0.5966143
20
-0.1511485
10
-0.5985452
20
-0.1522566
10
-0.6005532
20
-0.1534449
10
-0.6026364
20
-0.1547159
10
-0.604793
20
-0.1560717
10
-0.607021
20
-0.1575144
10
-0.6093185
20
-0.1590464
10
-0.6116834
20
-0.1606696
10
-0.6141138
20
-0.1623861
10
-0.6166075
20
-0.1641981
10
-0.6191624
20
-0.1661074
10
-0.6217763
20
-0.168116
10
-0.624447
20
-0.170226
10
-0.6271722
20
-0.172439
10
-0.6299497
20
-0.174757
10
-0.632777
20
-0.1771818
10
-0.6356518
20
-0.1797151
10
-0.6385716
20
-0.1823585
10
-0.6415341
20
-0.1851138
10
-0.6445368
20
-0.1879826
10
-0.647577
20
-0.1909664
10
-0.6506523
20
-0.1940667
10
-0.65376
20
-0.1972851
10
-0.6568976
20
-0.2006228
10
-0.6600623
20
-0.2040813
10
-0.6632515
20
-0.2076619
10
-0.6664624
20
-0.2113659
10
-0.6668652
20
-0.2118377
10
-0.6670667
20
-0.2120742
10
-0.6670919
20
-0.2121039
10
-0.6670906
20
-0.2121088
10
-0.6586935
20
-0.2369026
10
-0.6586915
20
-0.2369074
10
-0.6586535
20
-0.2369156
10
-0.6583497
20
-0.2369811
10
-0.6577432
20
-0.237111
10
-0.6529423
20
-0.2381015
10
-0.6482337
20
-0.2390074
10
-0.6436187
20
-0.2398311
10
-0.6390986
20
-0.2405754
10
-0.6346748
20
-0.2412429
10
-0.6303485
20
-0.2418365
10
-0.6261208
20
-0.2423588
10
-0.6219929
20
-0.2428127
10
-0.6179658
20
-0.2432008
10
-0.6140405
20
-0.2435259
10
-0.610218
20
-0.243791
10
-0.6064991
20
-0.2439987
10
-0.6028848
20
-0.244152
10
-0.5993756
20
-0.2442536
10
-0.5959725
20
-0.2443064
10
-0.5926759
20
-0.2443134
10
-0.5894866
20
-0.2442773
10
-0.5864051
20
-0.244201
10
-0.5834318
20
-0.2440875
10
-0.5805672
20
-0.2439395
10
-0.5778116
20
-0.2437601
10
-0.5751654
20
-0.2435521
10
-0.5726288
20
-0.2433184
10
-0.570202
20
-0.243062
10
-0.5678852
20
-0.2427856
10
-0.5656784
20
-0.2424923
10
-0.5635816
20
-0.2421849
10
-0.5615948
20
-0.2418664
10
-0.5597179
20
-0.2415396
10
-0.5579507
20
-0.2412073
10
-0.5562931
20
-0.2408726
10
-0.5547447
20
-0.2405383
10
-0.5533053
20
-0.2402072
10
-0.5519744
20
-0.2398822
10
-0.5507516
20
-0.2395662
10
-0.5496364
20
-0.2392619
10
-0.5486283
20
-0.2389723
10
-0.5477266
20
-0.2387001
10
-0.5469307
20
-0.2384481
10
-0.5462399
20
-0.2382192
10
-0.5456533
20
-0.2380161
10
-0.5451701
20
-0.2378415
10
-0.5447895
20
-0.2376981
10
-0.5445104
20
-0.2375888
10
-0.544332
20
-0.2375162
10
-0.543053
20
-0.2369592
10
-0.5246327
20
-0.2753485
10
-0.5258674
20
-0.2759977
10
-0.5260357
20
-0.2760914
10
-0.5262956
20
-0.2762407
10
-0.5266456
20
-0.2764479
10
-0.5270841
20
-0.2767156
10
-0.5276096
20
-0.277046
10
-0.5282204
20
-0.2774417
10
-0.528915
20
-0.2779049
10
-0.5296915
20
-0.278438
10
-0.5305482
20
-0.2790432
10
-0.5314833
20
-0.2797227
10
-0.5324949
20
-0.2804788
10
-0.5335812
20
-0.2813136
10
-0.5347401
20
-0.2822293
10
-0.5359697
20
-0.2832279
10
-0.537268
20
-0.2843115
10
-0.5386329
20
-0.2854822
10
-0.5400622
20
-0.2867418
10
-0.5415539
20
-0.2880923
10
-0.5431056
20
-0.2895356
10
-0.5447152
20
-0.2910735
10
-0.5463804
20
-0.2927079
10
-0.5480989
20
-0.2944405
10
-0.5498684
20
-0.2962729
10
-0.5516864
20
-0.298207
10
-0.5535505
20
-0.3002442
10
-0.5554583
20
-0.3023862
10
-0.5574072
20
-0.3046345
10
-0.5593949
20
-0.3069906
10
-0.5614186
20
-0.3094559
10
-0.5634758
20
-0.3120317
10
-0.565564
20
-0.3147195
10
-0.5676804
20
-0.3175204
10
-0.5698224
20
-0.3204357
10
-0.5719872
20
-0.3234667
10
-0.5741722
20
-0.3266143
10
-0.5763747
20
-0.3298797
10
-0.5785917
20
-0.3332639
10
-0.5808205
20
-0.3367679
10
-0.5830583
20
-0.3403926
10
-0.5853023
20
-0.3441388
10
-0.5875495
20
-0.3480073
10
-0.5897972
20
-0.3519989
10
-0.5920422
20
-0.3561143
10
-0.5942819
20
-0.3603541
10
-0.5965131
20
-0.3647189
10
-0.5967912
20
-0.3652733
10
-0.5969303
20
-0.3655513
10
-0.5969476
20
-0.365586
10
-0.5969452
20
-0.3655906
10
-0.5828586
20
-0.3876543
10
-0.5828555
20
-0.3876585
10
-0.5828166
20
-0.3876574
10
-0.582506
20
-0.3876482
10
-0.581886
20
-0.3876292
10
-0.5769876
20
-0.3874421
10
-0.572199
20
-0.3871947
10
-0.567521
20
-0.38689
10
-0.5629541
20
-0.386531
10
-0.5584991
20
-0.3861205
10
-0.5541565
20
-0.3856615
10
-0.5499266
20
-0.3851569
10
-0.5458101
20
-0.3846096
10
-0.5418071
20
-0.3840227
10
-0.5379181
20
-0.383399
10
-0.5341432
20
-0.3827416
10
-0.5304827
20
-0.3820533
10
-0.5269366
20
-0.3813371
10
-0.5235051
20
-0.380596
10
-0.5201882
20
-0.3798329
10
-0.5169858
20
-0.3790507
10
-0.5138978
20
-0.3782524
10
-0.5109241
20
-0.3774409
10
-0.5080644
20
-0.3766191
10
-0.5053184
20
-0.3757899
10
-0.5026859
20
-0.3749563
10
-0.5001663
20
-0.374121
10
-0.4977594
20
-0.3732871
10
-0.4954645
20
-0.3724573
10
-0.4932811
20
-0.3716345
10
-0.4912086
20
-0.3708216
10
-0.4892463
20
-0.3700214
10
-0.4873934
20
-0.3692366
10
-0.4856493
20
-0.3684701
10
-0.484013
20
-0.3677246
10
-0.4824836
20
-0.367003
10
-0.4810603
20
-0.3663078
10
-0.4797419
20
-0.3656418
10
-0.4785274
20
-0.3650078
10
-0.4774158
20
-0.3644083
10
-0.4764059
20
-0.363846
10
-0.4754964
20
-0.3633235
10
-0.474686
20
-0.3628435
10
-0.4739735
20
-0.3624084
10
-0.4733575
20
-0.3620207
10
-0.4728366
20
-0.3616831
10
-0.4724092
20
-0.361398
10
-0.472074
20
-0.3611677
10
-0.4718292
20
-0.3609948
10
-0.4716734
20
-0.3608815
10
-0.4705648
20
-0.3600347
10
-0.4434926
20
-0.3929002
10
-0.4445361
20
-0.393826
10
-0.4446771
20
-0.3939573
10
-0.4448937
20
-0.3941644
10
-0.4451839
20
-0.3944494
10
-0.4455456
20
-0.3948142
10
-0.4459767
20
-0.3952608
10
-0.4464752
20
-0.3957912
10
-0.4470387
20
-0.3964071
10
-0.447665
20
-0.3971105
10
-0.448352
20
-0.3979032
10
-0.4490973
20
-0.3987867
10
-0.4498986
20
-0.399763
10
-0.4507535
20
-0.4008335
10
-0.4516596
20
-0.4019999
10
-0.4526146
20
-0.4032638
10
-0.4536158
20
-0.4046266
10
-0.4546608
20
-0.4060899
10
-0.4557472
20
-0.4076549
10
-0.4568723
20
-0.4093231
10
-0.4580335
20
-0.4110959
10
-0.4592283
20
-0.4129743
10
-0.460454
20
-0.4149597
10
-0.461708
20
-0.4170532
10
-0.4629875
20
-0.4192559
10
-0.4642898
20
-0.4215688
10
-0.4656122
20
-0.423993
10
-0.4669519
20
-0.4265293
10
-0.4683062
20
-0.4291787
10
-0.4696722
20
-0.431942
10
-0.4710471
20
-0.4348199
10
-0.4724282
20
-0.4378132
10
-0.4738124
20
-0.4409226
10
-0.475197
20
-0.4441486
10
-0.4765791
20
-0.4474919
10
-0.4779557
20
-0.4509528
10
-0.4793239
20
-0.4545319
10
-0.4806809
20
-0.4582295
10
-0.4820236
20
-0.4620459
10
-0.4833491
20
-0.4659815
10
-0.4846545
20
-0.4700364
10
-0.4859367
20
-0.4742108
10
-0.4871928
20
-0.4785047
10
-0.4884199
20
-0.4829182
10
-0.4896148
20
-0.4874513
10
-0.4907747
20
-0.4921039
10
-0.4918965
20
-0.4968758
10
-0.4920339
20
-0.4974806
10
-0.4921024
20
-0.4977838
10
-0.492111
20
-0.4978217
10
-0.4921075
20
-0.4978255
10
-0.47315
20
-0.515877
10
-0.473146
20
-0.5158803
10
-0.4731086
20
-0.5158699
10
-0.4728091
20
-0.5157867
10
-0.4722117
20
-0.5156198
10
-0.4675004
20
-0.5142659
10
-0.4629102
20
-0.5128797
10
-0.458441
20
-0.5114644
10
-0.4540928
20
-0.5100228
10
-0.4498655
20
-0.5085581
10
-0.4457589
20
-0.5070732
10
-0.4417727
20
-0.505571
10
-0.4379067
20
-0.5040545
10
-0.4341605
20
-0.5025266
10
-0.4305337
20
-0.5009904
10
-0.4270259
20
-0.4994486
10
-0.4236365
20
-0.4979043
10
-0.4203649
20
-0.4963603
10
-0.4172105
20
-0.4948196
10
-0.4141725
20
-0.4932848
10
-0.4112504
20
-0.491759
10
-0.4084432
20
-0.4902449
10
-0.40575
20
-0.4887453
10
-0.4031701
20
-0.487263
10
-0.4007024
20
-0.4858007
10
-0.3983458
20
-0.4843613
10
-0.3960994
20
-0.4829474
10
-0.3939619
20
-0.4815617
10
-0.3919323
20
-0.4802068
10
-0.3900093
20
-0.4788854
10
-0.3881915
20
-0.4776001
10
-0.3864777
20
-0.4763535
10
-0.3848666
20
-0.4751482
10
-0.3833565
20
-0.4739865
10
-0.3819462
20
-0.4728711
10
-0.380634
20
-0.4718044
10
-0.3794183
20
-0.4707888
10
-0.3782976
20
-0.4698267
10
-0.3772702
20
-0.4689204
10
-0.3763344
20
-0.4680723
10
-0.3754883
20
-0.4672847
10
-0.3747303
20
-0.4665597
10
-0.3740584
20
-0.4658997
10
-0.3734707
20
-0.4653067
10
-0.3729654
20
-0.464783
10
-0.3725404
20
-0.4643305
10
-0.3721937
20
-0.4639513
10
-0.3719233
20
-0.4636475
10
-0.371727
20
-0.4634211
10
-0.3716028
20
-0.4632738
10
-0.3707291
20
-0.4621863
10
-0.3365784
20
-0.4876179
10
-0.3373699
20
-0.4887666
10
-0.3374754
20
-0.4889278
10
-0.3376362
20
-0.4891807
10
-0.3378497
20
-0.4895269
10
-0.3381136
20
-0.4899676
10
-0.3384254
20
-0.4905045
10
-0.3387824
20
-0.4911387
10
-0.3391821
20
-0.4918716
10
-0.3396219
20
-0.4927045
10
-0.3400993
20
-0.4936385
10
-0.3406115
20
-0.4946747
10
-0.3411558
20
-0.4958144
10
-0.3417297
20
-0.4970584
10
-0.3423304
20
-0.4984077
10
-0.3429551
20
-0.4998634
10
-0.3436011
20
-0.5014263
10
-0.3442656
20
-0.5030971
10
-0.3449458
20
-0.5048766
10
-0.345639
20
-0.5067657
10
-0.3463422
20
-0.5087648
10
-0.3470528
20
-0.5108746
10
-0.3477677
20
-0.5130956
10
-0.3484842
20
-0.5154284
10
-0.3491994
20
-0.5178732
10
-0.3499103
20
-0.5204306
10
-0.3506142
20
-0.5231008
10
-0.351308
20
-0.525884
10
-0.3519889
20
-0.5287805
10
-0.3526539
20
-0.5317904
10
-0.3533002
20
-0.5349138
10
-0.3539247
20
-0.5381506
10
-0.3545246
20
-0.5415009
10
-0.3550969
20
-0.5449646
10
-0.3556387
20
-0.5485414
10
-0.3561471
20
-0.5522312
10
-0.356619
20
-0.5560337
10
-0.3570517
20
-0.5599486
10
-0.357442
20
-0.5639755
10
-0.3577872
20
-0.5681139
10
-0.3580842
20
-0.5723634
10
-0.3583302
20
-0.5767233
10
-0.3585222
20
-0.5811931
10
-0.3586574
20
-0.585772
10
-0.3587328
20
-0.5904593
10
-0.3587455
20
-0.5952543
10
-0.3586928
20
-0.600156
10
-0.3586814
20
-0.6007762
10
-0.3586753
20
-0.6010869
10
-0.3586746
20
-0.6011258
10
-0.3586703
20
-0.6011286
10
-0.3359437
20
-0.6141188
10
-0.335939
20
-0.614121
10
-0.3359051
20
-0.6141019
10
-0.3356343
20
-0.6139495
10
-0.3350942
20
-0.6136445
10
-0.3308438
20
-0.6112024
10
-0.3267187
20
-0.608758
10
-0.3227181
20
-0.6063143
10
-0.3188412
20
-0.603874
10
-0.3150873
20
-0.6014402
10
-0.3114554
20
-0.5990156
10
-0.3079445
20
-0.5966031
10
-0.3045538
20
-0.5942055
10
-0.3012821
20
-0.5918255
10
-0.2981284
20
-0.589466
10
-0.2950914
20
-0.5871296
10
-0.2921701
20
-0.584819
10
-0.289363
20
-0.5825369
10
-0.286669
20
-0.580286
10
-0.2840867
20
-0.5780688
10
-0.2816146
20
-0.575888
10
-0.2792513
20
-0.5737461
10
-0.2769953
20
-0.5716456
10
-0.274845
20
-0.5695889
10
-0.2727989
20
-0.5675786
10
-0.2708554
20
-0.565617
10
-0.2690126
20
-0.5637066
10
-0.2672689
20
-0.5618496
10
-0.2656225
20
-0.5600484
10
-0.2640715
20
-0.5583052
10
-0.2626142
20
-0.5566223
10
-0.2612485
20
-0.5550017
10
-0.2599726
20
-0.5534458
10
-0.2587845
20
-0.5519566
10
-0.257682
20
-0.550536
10
-0.2566632
20
-0.5491863
10
-0.255726
20
-0.5479093
10
-0.2548681
20
-0.5467069
10
-0.2540874
20
-0.5455811
10
-0.2533818
20
-0.5445337
10
-0.2527488
20
-0.5435665
10
-0.2521863
20
-0.5426812
10
-0.2516918
20
-0.5418795
10
-0.2512632
20
-0.5411632
10
-0.2508978
20
-0.5405337
10
-0.2505935
20
-0.5399926
10
-0.2503476
20
-0.5395415
10
-0.2501577
20
-0.5391819
10
-0.2500214
20
-0.538915
10
-0.249936
20
-0.5387423
10
-0.249348
20
-0.5374773
10
-0.2101034
20
-0.5539971
10
-0.2105971
20
-0.5553018
10
-0.2106609
20
-0.5554836
10
-0.2107565
20
-0.5557676
10
-0.210881
20
-0.5561548
10
-0.2110317
20
-0.556646
10
-0.2112059
20
-0.5572418
10
-0.2114008
20
-0.557943
10
-0.2116135
20
-0.5587503
10
-0.2118412
20
-0.5596642
10
-0.2120812
20
-0.5606853
10
-0.2123305
20
-0.5618141
10
-0.2125863
20
-0.5630508
10
-0.2128458
20
-0.564396
10
-0.2131061
20
-0.5658499
10
-0.2133643
20
-0.5674128
10
-0.2136175
20
-0.5690848
10
-0.2138628
20
-0.5708661
10
-0.2140974
20
-0.5727568
10
-0.2143184
20
-0.5747568
10
-0.2145228
20
-0.5768661
10
-0.2147078
20
-0.5790847
10
-0.2148704
20
-0.5814122
10
-0.2150078
20
-0.5838487
10
-0.2151171
20
-0.5863937
10
-0.2151954
20
-0.5890469
10
-0.2152397
20
-0.5918079
10
-0.2152473
20
-0.5946763
10
-0.2152152
20
-0.5976516
10
-0.2151406
20
-0.6007332
10
-0.2150206
20
-0.6039204
10
-0.2148524
20
-0.6072127
10
-0.2146331
20
-0.6106092
10
-0.2143599
20
-0.6141091
10
-0.21403
20
-0.6177117
10
-0.2136405
20
-0.621416
10
-0.2131888
20
-0.6252209
10
-0.2126719
20
-0.6291256
10
-0.2120872
20
-0.6331289
10
-0.211432
20
-0.6372297
10
-0.2107034
20
-0.6414267
10
-0.2098988
20
-0.6457188
10
-0.2090156
20
-0.6501046
10
-0.208051
20
-0.6545829
10
-0.2070025
20
-0.659152
10
-0.2058674
20
-0.6638107
10
-0.2046431
20
-0.6685574
10
-0.2044836
20
-0.6691568
10
-0.2044034
20
-0.669457
10
-0.2043933
20
-0.6694946
10
-0.2043885
20
-0.6694963
10
-0.1792135
20
-0.6766702
10
-0.1792085
20
-0.6766712
10
-0.1791801
20
-0.6766446
10
-0.1789537
20
-0.6764318
10
-0.1785022
20
-0.6760064
10
-0.1749598
20
-0.6726181
10
-0.1715395
20
-0.6692575
10
-0.16824
20
-0.6659274
10
-0.1650598
20
-0.6626302
10
-0.1619974
20
-0.6593688
10
-0.1590512
20
-0.6561455
10
-0.1562198
20
-0.6529629
10
-0.1535014
20
-0.6498235
10
-0.1508943
20
-0.6467297
10
-0.1483969
20
-0.643684
10
-0.1460073
20
-0.6406886
10
-0.1437238
20
-0.6377461
10
-0.1415444
20
-0.6348586
10
-0.1394674
20
-0.6320283
10
-0.1374907
20
-0.6292576
10
-0.1356123
20
-0.6265485
10
-0.1338303
20
-0.6239033
10
-0.1321426
20
-0.6213239
10
-0.130547
20
-0.6188124
10
-0.1290415
20
-0.6163709
10
-0.1276238
20
-0.6140012
10
-0.1262917
20
-0.6117052
10
-0.1250431
20
-0.6094849
10
-0.1238756
20
-0.607342
10
-0.1227869
20
-0.6052783
10
-0.1217747
20
-0.6032955
10
-0.1208365
20
-0.6013953
10
-0.1199701
20
-0.5995792
10
-0.1191728
20
-0.5978489
10
-0.1184424
20
-0.5962058
10
-0.1177762
20
-0.5946515
10
-0.1171718
20
-0.5931873
10
-0.1166266
20
-0.5918146
10
-0.116138
20
-0.5905346
10
-0.1157035
20
-0.5893488
10
-0.1153204
20
-0.5882582
10
-0.1149861
20
-0.587264
10
-0.1146979
20
-0.5863673
10
-0.1144531
20
-0.5855691
10
-0.114249
20
-0.5848705
10
-0.114083
20
-0.5842724
10
-0.1139522
20
-0.5837755
10
-0.1138539
20
-0.5833809
10
-0.1137854
20
-0.5830891
10
-0.1137439
20
-0.582901
10
-0.1134757
20
-0.5815321
10
-0.071418
20
-0.58818
10
-0.0715851
20
-0.5895649
10
-0.0716036
20
-0.5897567
10
-0.0716284
20
-0.5900554
10
-0.0716566
20
-0.5904611
10
-0.0716854
20
-0.590974
10
-0.071712
20
-0.5915943
10
-0.0717334
20
-0.5923217
10
-0.0717467
20
-0.5931565
10
-0.0717491
20
-0.5940983
10
-0.0717377
20
-0.5951472
10
-0.0717097
20
-0.5963028
10
-0.0716621
20
-0.5975648
10
-0.0715921
20
-0.598933
10
-0.0714969
20
-0.600407
10
-0.0713735
20
-0.6019862
10
-0.0712192
20
-0.6036703
10
-0.0710311
20
-0.6054585
10
-0.0708065
20
-0.6073504
10
-0.0705424
20
-0.6093451
10
-0.070236
20
-0.6114421
10
-0.0698847
20
-0.6136404
10
-0.0694856
20
-0.6159393
10
-0.0690359
20
-0.6183378
10
-0.068533
20
-0.620835
10
-0.067974
20
-0.6234299
10
-0.0673564
20
-0.6261213
10
-0.0666773
20
-0.6289082
10
-0.0659341
20
-0.6317893
10
-0.0651242
20
-0.6347635
10
-0.0642449
20
-0.6378294
10
-0.0632937
20
-0.6409857
10
-0.0622679
20
-0.6442311
10
-0.0611651
20
-0.6475639
10
-0.0599826
20
-0.6509829
10
-0.0587179
20
-0.6544863
10
-0.0573687
20
-0.6580726
10
-0.0559324
20
-0.6617401
10
-0.0544067
20
-0.6654871
10
-0.0527891
20
-0.6693119
10
-0.0510773
20
-0.6732126
10
-0.0492689
20
-0.6771875
10
-0.0473618
20
-0.6812345
10
-0.0453535
20
-0.6853517
10
-0.043242
20
-0.6895372
10
-0.0410249
20
-0.6937889
10
-0.0387003
20
-0.6981046
10
-0.038402
20
-0.6986485
10
-0.0382522
20
-0.6989208
10
-0.0382335
20
-0.6989548
10
-0.0382284
20
-0.6989554
10
-0.0120681
20
-0.699896
10
-0.012063
20
-0.6998958
10
-0.0120418
20
-0.6998632
10
-0.0118729
20
-0.6996023
10
-0.0115363
20
-0.6990813
10
-0.0089077
20
-0.6949437
10
-0.0063911
20
-0.6908622
10
-0.0039844
20
-0.6868392
10
-0.0016856
20
-0.6828768
10
0.0005073
20
-0.6789772
10
0.0025964
20
-0.6751425
10
0.0045839
20
-0.6713748
10
0.0064721
20
-0.667676
10
0.008263
20
-0.6640483
10
0.0099589
20
-0.6604934
10
0.0115622
20
-0.6570132
10
0.0130752
20
-0.6536097
10
0.0145002
20
-0.6502845
10
0.0158396
20
-0.6470395
10
0.0170957
20
-0.6438762
10
0.0182712
20
-0.6407963
10
0.0193684
20
-0.6378015
10
0.0203898
20
-0.6348931
10
0.021338
20
-0.6320728
10
0.0222155
20
-0.6293419
10
0.0230248
20
-0.6267018
10
0.0237687
20
-0.6241538
10
0.0244497
20
-0.6216992
10
0.0250705
20
-0.6193391
10
0.0256336
20
-0.6170749
10
0.0261419
20
-0.6149074
10
0.0265981
20
-0.6128379
10
0.0270048
20
-0.6108672
10
0.0273647
20
-0.6089964
10
0.0276807
20
-0.6072263
10
0.0279556
20
-0.6055577
10
0.028192
20
-0.6039914
10
0.0283929
20
-0.6025281
10
0.0285609
20
-0.6011684
10
0.028699
20
-0.599913
10
0.02881
20
-0.5987624
10
0.0288967
20
-0.5977171
10
0.0289619
20
-0.5967775
10
0.0290086
20
-0.595944
10
0.0290395
20
-0.5952168
10
0.0290576
20
-0.5945963
10
0.0290657
20
-0.5940826
10
0.0290666
20
-0.5936759
10
0.0290633
20
-0.5933762
10
0.0290587
20
-0.5931837
10
0.0289915
20
-0.5917903
10
0.071418
20
-0.58818
10
0.0715872
20
-0.5895647
10
0.0716151
20
-0.5897553
10
0.0716625
20
-0.5900512
10
0.0717322
20
-0.5904519
10
0.071827
20
-0.5909569
10
0.0719496
20
-0.5915654
10
0.072103
20
-0.5922769
10
0.0722898
20
-0.5930905
10
0.0725128
20
-0.5940056
10
0.0727749
20
-0.5950212
10
0.0730787
20
-0.5961365
10
0.0734269
20
-0.5973506
10
0.0738223
20
-0.5986623
10
0.0742675
20
-0.6000706
10
0.0747652
20
-0.6015744
10
0.075318
20
-0.6031726
10
0.0759286
20
-0.6048639
10
0.0765995
20
-0.606647
10
0.0773333
20
-0.6085206
10
0.0781326
20
-0.6104833
10
0.0789998
20
-0.6125337
10
0.0799374
20
-0.6146702
10
0.080948
20
-0.6168914
10
0.082034
20
-0.6191957
10
0.0831977
20
-0.6215814
10
0.0844415
20
-0.6240468
10
0.0857678
20
-0.6265901
10
0.0871789
20
-0.6292097
10
0.0886771
20
-0.6319037
10
0.0902645
20
-0.6346701
10
0.0919434
20
-0.637507
10
0.0937161
20
-0.6404126
10
0.0955845
20
-0.6433847
10
0.0975508
20
-0.6464212
10
0.0996171
20
-0.6495202
10
0.1017854
20
-0.6526794
10
0.1040576
20
-0.6558966
10
0.1064358
20
-0.6591696
10
0.1089217
20
-0.6624962
10
0.1115173
20
-0.6658739
10
0.1142243
20
-0.6693005
10
0.1170446
20
-0.6727735
10
0.1199798
20
-0.6762905
10
0.1230316
20
-0.679849
10
0.1262017
20
-0.6834465
10
0.1294917
20
-0.6870805
10
0.1299114
20
-0.6875372
10
0.130122
20
-0.6877657
10
0.1301483
20
-0.6877943
10
0.1301534
20
-0.6877936
10
0.1557786
20
-0.6824464
10
0.1557836
20
-0.6824449
10
0.1557963
20
-0.6824082
10
0.1558979
20
-0.6821145
10
0.1561
20
-0.6815281
10
0.157662
20
-0.6768816
10
0.1591288
20
-0.6723165
10
0.1605028
20
-0.6678344
10
0.1617865
20
-0.663437
10
0.1629824
20
-0.659126
10
0.1640931
20
-0.6549027
10
0.1651212
20
-0.6507688
10
0.1660693
20
-0.6467257
10
0.16694
20
-0.6427748
10
0.1677359
20
-0.6389173
10
0.1684598
20
-0.6351546
10
0.1691143
20
-0.6314879
10
0.1697021
20
-0.6279183
10
0.170226
20
-0.624447
10
0.1706886
20
-0.621075
10
0.1710929
20
-0.6178034
10
0.1714415
20
-0.614633
10
0.1717372
20
-0.6115647
10
0.1719829
20
-0.6085994
10
0.1721813
20
-0.6057378
10
0.1723353
20
-0.6029808
10
0.1724478
20
-0.6003288
10
0.1725216
20
-0.5977825
10
0.1725595
20
-0.5953425
10
0.1725645
20
-0.5930093
10
0.1725393
20
-0.5907832
10
0.1724869
20
-0.5886646
10
0.1724101
20
-0.5866539
10
0.1723119
20
-0.5847513
10
0.1721952
20
-0.582957
10
0.1720627
20
-0.5812711
10
0.1719174
20
-0.5796937
10
0.1717622
20
-0.5782248
10
0.1716
20
-0.5768645
10
0.1714337
20
-0.5756125
10
0.1712661
20
-0.5744688
10
0.1711001
20
-0.5734331
10
0.1709386
20
-0.5725052
10
0.1707844
20
-0.5716847
10
0.1706404
20
-0.5709713
10
0.1705094
20
-0.5703645
10
0.1703943
20
-0.5698638
10
0.1702979
20
-0.5694687
10
0.170223
20
-0.5691785
10
0.1701724
20
-0.5689926
10
0.1697737
20
-0.5676558
10
0.2101034
20
-0.5539971
10
0.210599
20
-0.5553011
10
0.2106718
20
-0.5554795
10
0.2107886
20
-0.5557554
10
0.2109522
20
-0.5561278
10
0.211165
20
-0.5565954
10
0.2114297
20
-0.5571569
10
0.2117489
20
-0.557811
10
0.212125
20
-0.5585563
10
0.2125606
20
-0.5593914
10
0.2130581
20
-0.5603148
10
0.21362
20
-0.561325
10
0.2142486
20
-0.5624204
10
0.2149464
20
-0.5635994
10
0.2157157
20
-0.5648602
10
0.2165588
20
-0.5662013
10
0.2174781
20
-0.5676207
10
0.2184756
20
-0.5691167
10
0.2195538
20
-0.5706875
10
0.2207146
20
-0.572331
10
0.2219604
20
-0.5740454
10
0.2232931
20
-0.5758287
10
0.2247148
20
-0.5776788
10
0.2262276
20
-0.5795936
10
0.2278335
20
-0.581571
10
0.2295343
20
-0.5836088
10
0.231332
20
-0.5857049
10
0.2332284
20
-0.587857
10
0.2352254
20
-0.5900627
10
0.2373247
20
-0.5923199
10
0.2395281
20
-0.594626
10
0.2418371
20
-0.5969787
10
0.2442536
20
-0.5993756
10
0.246779
20
-0.6018142
10
0.2494149
20
-0.604292
10
0.2521628
20
-0.6068064
10
0.2550241
20
-0.6093549
10
0.2580002
20
-0.6119348
10
0.2610925
20
-0.6145436
10
0.2643023
20
-0.6171786
10
0.2676308
20
-0.619837
10
0.2710792
20
-0.6225161
10
0.2746487
20
-0.6252133
10
0.2783403
20
-0.6279257
10
0.2821551
20
-0.6306504
10
0.286094
20
-0.6333848
10
0.290158
20
-0.6361258
10
0.2906748
20
-0.6364688
10
0.290934
20
-0.6366403
10
0.2909664
20
-0.6366617
10
0.2909712
20
-0.6366598
10
0.3145721
20
-0.6253354
10
0.3145765
20
-0.6253329
10
0.3145801
20
-0.6252942
10
0.3146085
20
-0.6249847
10
0.3146643
20
-0.6243669
10
0.315069
20
-0.6194817
10
0.3154007
20
-0.6146982
10
0.3156621
20
-0.6100175
10
0.3158561
20
-0.6054407
10
0.3159856
20
-0.6009687
10
0.3160534
20
-0.5966024
10
0.3160623
20
-0.5923426
10
0.3160152
20
-0.5881901
10
0.3159151
20
-0.5841455
10
0.3157648
20
-0.5802097
10
0.3155671
20
-0.5763831
10
0.3153251
20
-0.5726663
10
0.3150416
20
-0.5690598
10
0.3147195
20
-0.565564
10
0.3143617
20
-0.5621793
10
0.3139712
20
-0.5589059
10
0.313551
20
-0.5557442
10
0.3131038
20
-0.5526943
10
0.3126327
20
-0.5497564
10
0.3121406
20
-0.5469305
10
0.3116303
20
-0.5442167
10
0.3111049
20
-0.5416149
10
0.3105671
20
-0.5391249
10
0.31002
20
-0.5367467
10
0.3094665
20
-0.5344801
10
0.3089093
20
-0.5323247
10
0.3083514
20
-0.5302803
10
0.3077957
20
-0.5283463
10
0.307245
20
-0.5265225
10
0.3067022
20
-0.5248083
10
0.3061701
20
-0.5232031
10
0.3056516
20
-0.5217063
10
0.3051494
20
-0.5203173
10
0.3046663
20
-0.5190353
10
0.3042052
20
-0.5178595
10
0.3037688
20
-0.5167891
10
0.3033597
20
-0.5158233
10
0.3029809
20
-0.514961
10
0.3026348
20
-0.5142012
10
0.3023243
20
-0.513543
10
0.3020519
20
-0.5129852
10
0.3018203
20
-0.5125266
10
0.3016322
20
-0.512166
10
0.30149
20
-0.5119022
10
0.3013964
20
-0.5117338
10
0.3006893
20
-0.5105313
10
0.3365784
20
-0.4876179
10
0.3373717
20
-0.4887654
10
0.337485
20
-0.4889212
10
0.3376645
20
-0.4891612
10
0.3379124
20
-0.4894836
10
0.338231
20
-0.4898867
10
0.3386224
20
-0.4903685
10
0.3390888
20
-0.4909272
10
0.3396323
20
-0.4915609
10
0.3402551
20
-0.4922675
10
0.3409591
20
-0.493045
10
0.3417464
20
-0.4938913
10
0.342619
20
-0.4948045
10
0.3435786
20
-0.4957822
10
0.3446273
20
-0.4968223
10
0.3457669
20
-0.4979226
10
0.3469991
20
-0.4990808
10
0.3483257
20
-0.5002946
10
0.3497484
20
-0.5015617
10
0.3512689
20
-0.5028796
10
0.3528887
20
-0.5042461
10
0.3546094
20
-0.5056586
10
0.3564326
20
-0.5071147
10
0.3583597
20
-0.5086118
10
0.3603921
20
-0.5101475
10
0.3625312
20
-0.5117191
10
0.3647783
20
-0.513324
10
0.3671346
20
-0.5149597
10
0.3696014
20
-0.5166235
10
0.3721799
20
-0.5183126
10
0.3748711
20
-0.5200244
10
0.3776762
20
-0.5217562
10
0.380596
20
-0.5235051
10
0.3836316
20
-0.5252685
10
0.3867839
20
-0.5270435
10
0.3900537
20
-0.5288272
10
0.3934417
20
-0.5306169
10
0.3969488
20
-0.5324096
10
0.4005756
20
-0.5342026
10
0.4043227
20
-0.5359928
10
0.4081907
20
-0.5377774
10
0.41218
20
-0.5395535
10
0.4162912
20
-0.541318
10
0.4205247
20
-0.5430681
10
0.4248807
20
-0.5448007
10
0.4293595
20
-0.546513
10
0.4339614
20
-0.5482018
10
0.4345453
20
-0.5484111
10
0.434838
20
-0.5485156
10
0.4348746
20
-0.5485287
10
0.4348788
20
-0.5485257
10
0.4550837
20
-0.5318823
10
0.4550875
20
-0.5318788
10
0.4550817
20
-0.5318403
10
0.4550352
20
-0.531533
10
0.4549416
20
-0.5309199
10
0.4541653
20
-0.5260797
10
0.4533426
20
-0.5213559
10
0.4524763
20
-0.5167487
10
0.4515694
20
-0.5122584
10
0.4506249
20
-0.5078854
10
0.4496457
20
-0.5036297
10
0.448635
20
-0.4994915
10
0.4475955
20
-0.4954709
10
0.4465304
20
-0.4915679
10
0.4454425
20
-0.4877824
10
0.4443348
20
-0.4841143
10
0.4432103
20
-0.4805634
10
0.4420719
20
-0.4771296
10
0.4409226
20
-0.4738124
10
0.4397652
20
-0.4706117
10
0.4386028
20
-0.4675269
10
0.437438
20
-0.4645576
10
0.436274
20
-0.4617034
10
0.4351135
20
-0.4589636
10
0.4339594
20
-0.4563376
10
0.4328145
20
-0.4538247
10
0.4316817
20
-0.4514242
10
0.4305637
20
-0.4491354
10
0.4294633
20
-0.4469572
10
0.4283834
20
-0.4448889
10
0.4273266
20
-0.4429295
10
0.4262956
20
-0.441078
10
0.4252933
20
-0.4393332
10
0.4243221
20
-0.4376942
10
0.4233848
20
-0.4361597
10
0.4224841
20
-0.4347285
10
0.4216224
20
-0.4333993
10
0.4208024
20
-0.4321708
10
0.4200266
20
-0.4310416
10
0.4192975
20
-0.4300104
10
0.4186175
20
-0.4290756
10
0.4179893
20
-0.4282356
10
0.417415
20
-0.4274891
10
0.4168972
20
-0.4268342
10
0.4164382
20
-0.4262694
10
0.4160402
20
-0.425793
10
0.4157056
20
-0.4254031
10
0.4154366
20
-0.4250981
10
0.4152355
20
-0.4248759
10
0.4151043
20
-0.4247349
10
0.41413
20
-0.4237365
10
0.4434926
20
-0.3929002
10
0.4445375
20
-0.3938244
10
0.4446848
20
-0.3939486
10
0.4449165
20
-0.3941386
10
0.4452344
20
-0.3943924
10
0.4456401
20
-0.3947075
10
0.4461355
20
-0.3950816
10
0.446722
20
-0.3955125
10
0.4474014
20
-0.3959977
10
0.4481752
20
-0.3965347
10
0.4490449
20
-0.3971211
10
0.4500118
20
-0.3977545
10
0.4510775
20
-0.3984323
10
0.4522433
20
-0.3991519
10
0.4535104
20
-0.3999108
10
0.4548802
20
-0.4007064
10
0.4563538
20
-0.4015361
10
0.4579323
20
-0.4023971
10
0.4596169
20
-0.4032869
10
0.4614086
20
-0.4042027
10
0.4633084
20
-0.4051418
10
0.4653171
20
-0.4061015
10
0.4674358
20
-0.4070789
10
0.4696652
20
-0.4080714
10
0.472006
20
-0.409076
10
0.4744591
20
-0.4100901
10
0.4770249
20
-0.4111106
10
0.4797043
20
-0.4121349
10
0.4824976
20
-0.4131599
10
0.4854054
20
-0.4141829
10
0.488428
20
-0.4152009
10
0.491566
20
-0.4162111
10
0.4948196
20
-0.4172105
10
0.498189
20
-0.4181961
10
0.5016744
20
-0.4191651
10
0.505276
20
-0.4201145
10
0.5089939
20
-0.4210414
10
0.5128282
20
-0.4219427
10
0.5167786
20
-0.4228156
10
0.5208453
20
-0.4236571
10
0.5250279
20
-0.4244641
10
0.5293264
20
-0.4252339
10
0.5337404
20
-0.4259633
10
0.5382697
20
-0.4266494
10
0.5429138
20
-0.4272892
10
0.5476722
20
-0.4278799
10
0.5525446
20
-0.4284183
10
0.5531616
20
-0.4284818
10
0.5534708
20
-0.4285132
10
0.5535094
20
-0.4285171
10
0.5535128
20
-0.4285132
10
0.5691476
20
-0.4075181
10
0.5691504
20
-0.4075138
10
0.5691356
20
-0.4074778
10
0.5690169
20
-0.4071906
10
0.5687792
20
-0.4066177
10
0.5668672
20
-0.4021039
10
0.5649379
20
-0.3977142
10
0.5629942
20
-0.3934482
10
0.561039
20
-0.3893055
10
0.5590754
20
-0.3852855
10
0.5571063
20
-0.3813879
10
0.5551346
20
-0.3776118
10
0.5531632
20
-0.3739568
10
0.5511949
20
-0.3704221
10
0.5492327
20
-0.367007
10
0.5472794
20
-0.3637105
10
0.5453378
20
-0.3605319
10
0.5434107
20
-0.3574703
10
0.5415009
20
-0.3545246
10
0.5396112
20
-0.3516938
10
0.5377443
20
-0.3489769
10
0.5359028
20
-0.3463727
10
0.5340895
20
-0.3438799
10
0.5323071
20
-0.3414975
10
0.530558
20
-0.339224
10
0.5288451
20
-0.3370581
10
0.5271707
20
-0.3349985
10
0.5255374
20
-0.3330437
10
0.5239478
20
-0.3311921
10
0.5224042
20
-0.3294424
10
0.5209092
20
-0.3277928
10
0.5194651
20
-0.3262418
10
0.5180743
20
-0.3247877
10
0.5167392
20
-0.3234287
10
0.5154619
20
-0.322163
10
0.5142448
20
-0.320989
10
0.51309
20
-0.3199046
10
0.5119999
20
-0.3189081
10
0.5109764
20
-0.3179974
10
0.5100217
20
-0.3171706
10
0.5091378
20
-0.3164257
10
0.5083267
20
-0.3157605
10
0.5075905
20
-0.3151731
10
0.506931
20
-0.3146612
10
0.5063502
20
-0.3142226
10
0.5058498
20
-0.3138553
10
0.5054316
20
-0.3135568
10
0.5050974
20
-0.313325
10
0.5048489
20
-0.3131575
10
0.5046878
20
-0.3130519
10
0.5035029
20
-0.3123157
10
0.5246327
20
-0.2753485
10
0.5258684
20
-0.2759958
10
0.5260411
20
-0.2760811
10
0.5263116
20
-0.2762102
10
0.5266809
20
-0.2763805
10
0.5271503
20
-0.2765893
10
0.5277208
20
-0.2768341
10
0.5283935
20
-0.277112
10
0.5291692
20
-0.2774205
10
0.530049
20
-0.2777567
10
0.5310337
20
-0.278118
10
0.5321242
20
-0.2785016
10
0.5333211
20
-0.2789046
10
0.5346252
20
-0.2793244
10
0.5360372
20
-0.279758
10
0.5375575
20
-0.2802027
10
0.5391868
20
-0.2806556
10
0.5409256
20
-0.2811138
10
0.5427741
20
-0.2815746
10
0.5447329
20
-0.282035
10
0.5468022
20
-0.2824922
10
0.5489823
20
-0.2829432
10
0.5512733
20
-0.2833853
10
0.5536754
20
-0.2838153
10
0.5561887
20
-0.2842306
10
0.5588131
20
-0.2846281
10
0.5615487
20
-0.285005
10
0.5643953
20
-0.2853582
10
0.5673527
20
-0.285685
10
0.5704208
20
-0.2859824
10
0.5735993
20
-0.2862475
10
0.5768878
20
-0.2864773
10
0.580286
20
-0.286669
10
0.5837934
20
-0.2868197
10
0.5874094
20
-0.2869264
10
0.5911336
20
-0.2869863
10
0.5949653
20
-0.2869964
10
0.5989038
20
-0.286954
10
0.6029484
20
-0.2868561
10
0.6070982
20
-0.2866999
10
0.6113525
20
-0.2864826
10
0.6157103
20
-0.2862012
10
0.6201706
20
-0.2858531
10
0.6247324
20
-0.2854354
10
0.6293947
20
-0.2849452
10
0.6341562
20
-0.2843799
10
0.6390158
20
-0.2837367
10
0.6396301
20
-0.2836507
10
0.6399378
20
-0.2836072
10
0.6399763
20
-0.2836017
10
0.6399786
20
-0.2835971
10
0.6501347
20
-0.2594704
10
0.6501363
20
-0.2594656
10
0.6501133
20
-0.2594342
10
0.6499294
20
-0.2591838
10
0.6495615
20
-0.2586843
10
0.6466249
20
-0.2547593
10
0.6437011
20
-0.2509589
10
0.6407929
20
-0.247282
10
0.6379032
20
-0.2437275
10
0.6350346
20
-0.2402943
10
0.6321899
20
-0.2369812
10
0.6293718
20
-0.2337867
10
0.626583
20
-0.2307097
10
0.623826
20
-0.2277488
10
0.6211035
20
-0.2249024
10
0.6184181
20
-0.2221692
10
0.6157722
20
-0.2195477
10
0.6131684
20
-0.2170362
10
0.6106092
20
-0.2146331
10
0.6080969
20
-0.2123368
10
0.605634
20
-0.2101456
10
0.6032229
20
-0.2080578
10
0.6008657
20
-0.2060714
10
0.5985649
20
-0.2041848
10
0.5963226
20
-0.2023959
10
0.5941411
20
-0.2007029
10
0.5920224
20
-0.1991038
10
0.5899688
20
-0.1975967
10
0.5879823
20
-0.1961794
10
0.5860648
20
-0.1948499
10
0.5842185
20
-0.193606
10
0.5824452
20
-0.1924457
10
0.5807468
20
-0.1913666
10
0.5791252
20
-0.1903666
10
0.5775822
20
-0.1894435
10
0.5761194
20
-0.1885948
10
0.5747388
20
-0.1878183
10
0.5734418
20
-0.1871116
10
0.5722301
20
-0.1864723
10
0.5711052
20
-0.185898
10
0.5700688
20
-0.1853863
10
0.5691221
20
-0.1849345
10
0.5682667
20
-0.1845403
10
0.5675039
20
-0.1842012
10
0.566835
20
-0.1839144
10
0.5662612
20
-0.1836774
10
0.5657837
20
-0.1834877
10
0.5654038
20
-0.1833426
10
0.5651224
20
-0.1832394
10
0.5649407
20
-0.1831755
10
0.563614
20
-0.1827442
10
0.575283
20
-0.1417945
10
0.5766377
20
-0.1421274
10
0.5768259
20
-0.1421688
10
0.5771194
20
-0.1422294
10
0.5775187
20
-0.1423064
10
0.5780245
20
-0.1423968
10
0.5786369
20
-0.1424979
10
0.5793566
20
-0.1426068
10
0.5801836
20
-0.1427207
10
0.5811183
20
-0.1428366
10
0.5821609
20
-0.1429517
10
0.5833114
20
-0.1430632
10
0.58457
20
-0.1431681
10
0.5859367
20
-0.1432635
10
0.5874114
20
-0.1433466
10
0.588994
20
-0.1434145
10
0.5906843
20
-0.1434644
10
0.5924822
20
-0.1434932
10
0.5943873
20
-0.1434982
10
0.5963994
20
-0.1434765
10
0.598518
20
-0.1434251
10
0.6007426
20
-0.1433414
10
0.6030729
20
-0.1432223
10
0.6055081
20
-0.143065
10
0.6080477
20
-0.1428667
10
0.610691
20
-0.1426246
10
0.6134372
20
-0.1423358
10
0.6162857
20
-0.1419976
10
0.6192354
20
-0.1416071
10
0.6222855
20
-0.1411616
10
0.625435
20
-0.1406583
10
0.628683
20
-0.1400945
10
0.6320283
20
-0.1394674
10
0.6354698
20
-0.1387743
10
0.6390064
20
-0.1380125
10
0.6426367
20
-0.1371794
10
0.6463594
20
-0.1362723
10
0.6501733
20
-0.1352886
10
0.654077
20
-0.1342256
10
0.6580688
20
-0.1330808
10
0.6621475
20
-0.1318517
10
0.6663113
20
-0.1305356
10
0.6705587
20
-0.1291302
10
0.674888
20
-0.1276329
10
0.6792975
20
-0.1260412
10
0.6837853
20
-0.1243528
10
0.6883498
20
-0.1225653
10
0.6889257
20
-0.1223348
10
0.689214
20
-0.1222189
10
0.6892501
20
-0.1222044
10
0.6892513
20
-0.1221994
10
0.6933383
20
-0.0963433
10
0.6933387
20
-0.0963381
10
0.6933089
20
-0.0963132
10
0.6930703
20
-0.0961141
10
0.6925936
20
-0.0957172
10
0.688803
20
-0.092609
10
0.6850547
20
-0.0896187
10
0.6813511
20
-0.0867447
10
0.6776947
20
-0.083985
10
0.6740878
20
-0.0813381
10
0.6705329
20
-0.078802
10
0.6670322
20
-0.0763748
10
0.663588
20
-0.0740546
10
0.6602026
20
-0.0718395
10
0.656878
20
-0.0697274
10
0.6536165
20
-0.0677163
10
0.6504202
20
-0.0658041
10
0.647291
20
-0.0639887
10
0.6442311
20
-0.0622679
10
0.6412423
20
-0.0606396
10
0.6383265
20
-0.0591015
10
0.6354858
20
-0.0576513
10
0.6327218
20
-0.0562868
10
0.6300363
20
-0.0550056
10
0.6274311
20
-0.0538053
10
0.6249078
20
-0.0526836
10
0.622468
20
-0.051638
10
0.6201134
20
-0.0506661
10
0.6178454
20
-0.0497654
10
0.6156655
20
-0.0489334
10
0.6135751
20
-0.0481676
10
0.6115757
20
-0.0474653
10
0.6096684
20
-0.046824
10
0.6078546
20
-0.0462412
10
0.6061355
20
-0.0457141
10
0.6045122
20
-0.0452402
10
0.6029858
20
-0.0448166
10
0.6015573
20
-0.0444409
10
0.6002279
20
-0.0441102
10
0.5989983
20
-0.0438217
10
0.5978694
20
-0.0435729
10
0.5968422
20
-0.0433608
10
0.5959173
20
-0.0431828
10
0.5950955
20
-0.043036
10
0.5943774
20
-0.0429177
10
0.5937635
20
-0.0428249
10
0.5932546
20
-0.042755
10
0.5928509
20
-0.042705
10
0.5925531
20
-0.0426722
10
0.5923613
20
-0.0426536
10
0.59097
20
-0.0425523
8
gear
0
LWPOLYLINE
5
1004
100
AcDbEntity
100
AcDbPolyline
90
5
70
0
43
0
10
-0.3300073
20
0.3080307
10
-0.3394706
20
0.2975692
10
-0.3486024
20
0.2868172
10
-0.3573938
20
0.2757851
10
-0.3658362
20
0.2644838
8
gear_texts
0
LWPOLYLINE
5
1005
100
AcDbEntity
100
AcDbPolyline
90
2
70
0
43
0
10
-0.3268147
20
0.2688912
10
-0.37039
20
0.3047433
8
gear_texts
0
LWPOLYLINE
5
1006
100
AcDbEntity
100
AcDbPolyline
90
5
70
0
43
0
10
-0.3506328
20
0.3272826
10
-0.3500791
20
0.3068683
10
-0.3486024
20
0.2868172
10
-0.3462252
20
0.2671669
10
-0.3429714
20
0.2479535
8
gear_texts
0
LWPOLYLINE
5
1007
100
AcDbEntity
100
AcDbPolyline
90
5
70
0
43
0
10
-0.3093819
20
0.2887788
10
-0.3288622
20
0.2882702
10
-0.3486024
20
0.2868172
10
-0.3685623
20
0.2844034
10
-0.3887009
20
0.281014
8
gear_texts
0
LWPOLYLINE
5
1008
100
AcDbEntity
100
AcDbPolyline
90
3
70
0
43
0
10
-0.3295064
20
0.3485439
10
-0.3278216
20
0.3692182
10
-0.2716236
20
0.3059236
8
gear_texts
0
LWPOLYLINE
5
1009
100
AcDbEntity
100
AcDbPolyline
90
3
70
0
43
0
10
-0.2619324
20
0.3142611
10
-0.2716236
20
0.3059236
10
-0.2810495
20
0.2972874
8
gear_texts
0
LWPOLYLINE
5
1010
100
AcDbEntity
100
AcDbPolyline
90
7
70
0
43
0
10
-0.169806
20
0.4636324
10
-0.1406964
20
0.3841525
10
-0.1605252
20
0.3992018
10
-0.1814241
20
0.4133679
10
-0.2033567
20
0.426599
10
-0.2262844
20
0.4388444
10
-0.1874928
20
0.363614
8
gear_texts
0
LWPOLYLINE
5
1011
100
AcDbEntity
100
AcDbPolyline
90
5
70
0
43
0
10
-0.0758126
20
0.4593212
10
-0.090127
20
0.4567282
10
-0.1043534
20
0.4536892
10
-0.118478
20
0.4502071
10
-0.1324868
20
0.4462855
8
gear_texts
0
LWPOLYLINE
5
1012
100
AcDbEntity
100
AcDbPolyline
90
5
70
0
43
0
10
-0.0712179
20
0.4314835
10
-0.0846648
20
0.4290477
10
-0.098029
20
0.4261929
10
-0.1112975
20
0.4229219
10
-0.1244573
20
0.4192379
8
gear_texts
0
LWPOLYLINE
5
1013
100
AcDbEntity
100
AcDbPolyline
90
15
70
0
43
0
10
0.0097855
20
0.4089901
10
-0.0029982
20
0.4090962
10
-0.0157789
20
0.4088027
10
-0.0285442
20
0.4081101
10
-0.0412816
20
0.407019
10
-0.0441286
20
0.4350893
10
-0.031497
20
0.4503284
10
-0.0174112
20
0.4510927
10
-0.0033083
20
0.4514164
10
0.0111352
20
0.4654025
10
0.0114726
20
0.4795056
10
-0.0036185
20
0.4937367
10
-0.0190435
20
0.4933826
10
-0.0344499
20
0.4925467
10
-0.0483992
20
0.4771947
8
gear_texts
0
LWPOLYLINE
5
1014
100
AcDbEntity
100
AcDbPolyline
90
14
70
0
43
0
10
0.0389645
20
0.4497438
10
0.0529977
20
0.4483068
10
0.0669791
20
0.446432
10
0.0808952
20
0.4441213
10
0.0917718
20
0.4275839
10
0.0888114
20
0.4137908
10
0.0733112
20
0.4024849
10
0.0606998
20
0.404579
10
0.0480292
20
0.4062781
10
0.0365292
20
0.4216349
10
0.0401822
20
0.4637983
10
0.0563101
20
0.476326
10
0.0732584
20
0.488285
10
0.0884791
20
0.4857577
8
gear_texts
0
LWPOLYLINE
5
1015
100
AcDbEntity
100
AcDbPolyline
90
11
70
0
43
0
10
0.1882577
20
0.4103009
10
0.2009856
20
0.4042184
10
0.2135172
20
0.3977413
10
0.2258404
20
0.3908758
10
0.2453787
20
0.395617
10
0.2528144
20
0.4076054
10
0.2470129
20
0.4275204
10
0.2335345
20
0.4350296
10
0.219828
20
0.4421139
10
0.2059068
20
0.4487666
10
0.1706085
20
0.3718352
8
gear_texts
0
LWPOLYLINE
5
1016
100
AcDbEntity
100
AcDbPolyline
90
2
70
0
43
0
10
0.2369296
20
0.3335161
10
0.2696096
20
0.3795183
8
gear_texts
0
LWPOLYLINE
5
1017
100
AcDbEntity
100
AcDbPolyline
90
2
70
0
43
0
10
0.2777796
20
0.3910189
10
0.2859496
20
0.4025195
8
gear_texts
0
LWPOLYLINE
5
1018
100
AcDbEntity
100
AcDbPolyline
90
4
70
0
43
0
10
0.3051161
20
0.2932823
10
0.2859434
20
0.2925834
10
0.2862021
20
0.311767
10
0.3339025
20
0.3637282
8
gear_texts
0
LWPOLYLINE
5
1019
100
AcDbEntity
100
AcDbPolyline
90
5
70
0
43
0
10
0.3356277
20
0.3226105
10
0.3253839
20
0.3329397
10
0.3148223
20
0.3429437
10
0.3039534
20
0.3526129
10
0.2927876
20
0.3619377
8
gear_texts
0
LWPOLYLINE
5
1020
100
AcDbEntity
100
AcDbPolyline
90
10
70
0
43
0
10
0.3426226
20
0.2235585
10
0.3354703
20
0.2341545
10
0.3279903
20
0.244522
10
0.3201901
20
0.2546506
10
0.3228386
20
0.2736523
10
0.3443611
20
0.2918958
10
0.3643543
20
0.2897748
10
0.3732304
20
0.2782491
10
0.381742
20
0.2664517
10
0.3898809
20
0.2543941
8
gear_texts
0
LWPOLYLINE
5
1021
100
AcDbEntity
100
AcDbPolyline
90
6
70
0
43
0
10
0.380463
20
0.2156339
10
0.399499
20
0.2102101
10
0.4185555
20
0.203801
10
0.4247188
20
0.1906237
10
0.417423
20
0.1718888
10
0.3782896
20
0.1557743
8
gear_texts
0
LWPOLYLINE
5
1022
100
AcDbEntity
100
AcDbPolyline
90
2
70
0
43
0
10
0.355917
20
0.201722
10
0.429555
20
0.2434576
8
gear_texts
0
LWPOLYLINE
5
1023
100
AcDbEntity
100
AcDbPolyline
90
10
70
0
43
0
10
0.4030793
20
0.0699696
10
0.4050687
20
0.0573413
10
0.4066625
20
0.0446569
10
0.4078593
20
0.031929
10
0.4227494
20
0.0198309
10
0.479116
20
0.022475
10
0.492244
20
0.038535
10
0.4907996
20
0.0538963
10
0.488876
20
0.069205
10
0.486475
20
0.0844461
8
gear_texts
0
LWPOLYLINE
5
1024
100
AcDbEntity
100
AcDbPolyline
90
2
70
0
43
0
10
0.488876
20
0.069205
10
0.4050687
20
0.0573413
8
gear_texts
0
LWPOLYLINE
5
1025
100
AcDbEntity
100
AcDbPolyline
90
5
70
0
43
0
10
0.4609402
20
-0.0652504
10
0.4627539
20
-0.0508165
10
0.4641157
20
-0.036333
10
0.4650244
20
-0.021814
10
0.4654789
20
-0.0072737
8
gear_texts
0
LWPOLYLINE
5
1026
100
AcDbEntity
100
AcDbPolyline
90
5
70
0
43
0
10
0.4330044
20
-0.0612958
10
0.4347082
20
-0.0477367
10
0.4359875
20
-0.034131
10
0.4368411
20
-0.0204919
10
0.437268
20
-0.0068329
8
gear_texts
0
LWPOLYLINE
5
1027
100
AcDbEntity
100
AcDbPolyline
90
3
70
0
43
0
10
0.4697819
20
-0.0967589
10
0.4802507
20
-0.1146661
10
0.397922
20
-0.095009
8
gear_texts
0
LWPOLYLINE
5
1028
100
AcDbEntity
100
AcDbPolyline
90
3
70
0
43
0
10
0.3947592
20
-0.1073957
10
0.397922
20
-0.095009
10
0.4006963
20
-0.0825296
8
gear_texts
0
LWPOLYLINE
5
1029
100
AcDbEntity
100
AcDbPolyline
90
2
70
0
43
0
10
0.4006351
20
-0.1363887
10
0.3872806
20
-0.1318424
8
gear_texts
0
LWPOLYLINE
5
1030
100
AcDbEntity
100
AcDbPolyline
90
13
70
0
43
0
10
0.443512
20
-0.1826319
10
0.4504594
20
-0.2021767
10
0.4439224
20
-0.2161525
10
0.436952
20
-0.2299173
10
0.417282
20
-0.2365017
10
0.405009
20
-0.2295457
10
0.399499
20
-0.2102101
10
0.380463
20
-0.2156339
10
0.36819
20
-0.2086779
10
0.362046
20
-0.1905029
10
0.3678215
20
-0.1790978
10
0.3732378
20
-0.1675178
10
0.3913341
20
-0.1611458
8
gear_texts
0
LWPOLYLINE
5
1031
100
AcDbEntity
100
AcDbPolyline
90
2
70
0
43
0
10
0.405872
20
-0.1976252
10
0.399499
20
-0.2102101
8
gear_texts
0
LWPOLYLINE
5
1032
100
AcDbEntity
100
AcDbPolyline
90
11
70
0
43
0
10
0.3350727
20
-0.3025128
10
0.3254571
20
-0.3128345
10
0.3155238
20
-0.3228506
10
0.3052823
20
-0.3325515
10
0.3039534
20
-0.3526129
10
0.3131641
20
-0.3632981
10
0.3339025
20
-0.3637282
10
0.3451041
20
-0.3531178
10
0.3559688
20
-0.3421627
10
0.3664858
20
-0.3308734
10
0.3036597
20
-0.2741523
8
gear_texts
0
LWPOLYLINE
5
1033
100
AcDbEntity
100
AcDbPolyline
90
5
70
0
43
0
10
0.2328979
20
-0.4030907
10
0.2453787
20
-0.395617
10
0.2576199
20
-0.387757
10
0.2696096
20
-0.3795183
10
0.281336
20
-0.3709091
8
gear_texts
0
LWPOLYLINE
5
1034
100
AcDbEntity
100
AcDbPolyline
90
5
70
0
43
0
10
0.2187829
20
-0.3786609
10
0.2305073
20
-0.3716402
10
0.2420066
20
-0.3642566
10
0.2532696
20
-0.3565172
10
0.2642853
20
-0.3484298
8
gear_texts
0
LWPOLYLINE
5
1035
100
AcDbEntity
100
AcDbPolyline
90
15
70
0
43
0
10
0.1350508
20
-0.3861734
10
0.1470508
20
-0.3817652
10
0.1589073
20
-0.3769843
10
0.1706085
20
-0.3718352
10
0.1821432
20
-0.366323
10
0.1947048
20
-0.3915866
10
0.1882577
20
-0.4103009
10
0.175346
20
-0.4159826
10
0.162263
20
-0.4212582
10
0.1536785
20
-0.4394387
10
0.1583355
20
-0.4527551
10
0.1774752
20
-0.4607512
10
0.1917846
20
-0.454981
10
0.2059068
20
-0.4487666
10
0.2135472
20
-0.4294821
8
gear_texts
0
LWPOLYLINE
5
1036
100
AcDbEntity
100
AcDbPolyline
90
9
70
0
43
0
10
0.0758392
20
-0.4163637
10
0.085851
20
-0.3999978
10
0.098307
20
-0.3971201
10
0.1144831
20
-0.4074358
10
0.1297475
20
-0.4617606
10
0.1186464
20
-0.4792829
10
0.1036133
20
-0.482756
10
0.0859511
20
-0.4718789
10
0.0758392
20
-0.4163637
8
gear_texts
0
LWPOLYLINE
5
1037
100
AcDbEntity
100
AcDbPolyline
90
11
70
0
43
0
10
-0.0174112
20
-0.4510927
10
-0.031497
20
-0.4503284
10
-0.0455521
20
-0.4491244
10
-0.0595628
20
-0.4474819
10
-0.0758126
20
-0.4593212
10
-0.0781099
20
-0.47324
10
-0.0651468
20
-0.4894333
10
-0.0498227
20
-0.4912299
10
-0.0344499
20
-0.4925467
10
-0.0190435
20
-0.4933826
10
-0.0157789
20
-0.4088027
8
gear_texts
0
LWPOLYLINE
5
1038
100
AcDbEntity
100
AcDbPolyline
90
7
70
0
43
0
10
-0.0917045
20
-0.3986965
10
-0.098029
20
-0.4261929
10
-0.118478
20
-0.4502071
10
-0.1405163
20
-0.4733331
10
-0.1463663
20
-0.4419281
10
-0.1503996
20
-0.4106458
10
-0.1406964
20
-0.3841525
8
gear_texts
0
LWPOLYLINE
5
1039
100
AcDbEntity
100
AcDbPolyline
90
5
70
0
43
0
10
-0.098029
20
-0.4261929
10
-0.1112975
20
-0.4229219
10
-0.1244573
20
-0.4192379
10
-0.1374956
20
-0.4151446
10
-0.1503996
20
-0.4106458
8
gear_texts
0
LWPOLYLINE
5
1040
100
AcDbEntity
100
AcDbPolyline
90
5
70
0
43
0
10
-0.2387809
20
-0.3996338
10
-0.2261778
20
-0.4068994
10
-0.2133538
20
-0.4137676
10
-0.2003215
20
-0.4202318
10
-0.1870936
20
-0.4262857
8
gear_texts
0
LWPOLYLINE
5
1041
100
AcDbEntity
100
AcDbPolyline
90
5
70
0
43
0
10
-0.2243093
20
-0.3754136
10
-0.21247
20
-0.3822388
10
-0.2004233
20
-0.3886908
10
-0.1881808
20
-0.3947632
10
-0.1757546
20
-0.4004502
8
gear_texts
0
LWPOLYLINE
5
1042
100
AcDbEntity
100
AcDbPolyline
90
15
70
0
43
0
10
-0.2716236
20
-0.3059236
10
-0.2619324
20
-0.3142611
10
-0.2519855
20
-0.3222918
10
-0.2417925
20
-0.3300077
10
-0.2313633
20
-0.3374013
10
-0.2473194
20
-0.3606704
10
-0.2668055
20
-0.3641464
10
-0.2780529
20
-0.3556323
10
-0.2890289
20
-0.3467709
10
-0.3090889
20
-0.34812
10
-0.3184553
20
-0.3586691
10
-0.3161253
20
-0.3792807
10
-0.3041204
20
-0.3889728
10
-0.2918185
20
-0.3982851
10
-0.2712536
20
-0.395574
8
gear_texts
0
LWPOLYLINE
5
1043
100
AcDbEntity
100
AcDbPolyline
90
9
70
0
43
0
10
-0.3462252
20
-0.2671669
10
-0.3377086
20
-0.2778542
10
-0.3288622
20
-0.2882702
10
-0.3196946
20
-0.2984047
10
-0.3102149
20
-0.3082479
10
-0.3334449
20
-0.3112393
10
-0.3571514
20
-0.3130676
10
-0.3812839
20
-0.3137063
10
-0.3159209
20
-0.2599281
8
gear_texts
0
LINE
5
1001
100
AcDbEntity
100
AcDbLine
10
0.1
20
0
30
0
11
-0.1
21
0
31
0
8
gear_guides
0
LINE
5
1002
100
AcDbEntity
100
AcDbLine
10
0
20
0.1
30
0
11
0
21
-0.1
31
0
8
gear_guides
0
CIRCLE
5
1003
100
AcDbEntity
100
AcDbCircle
10
0.6476593
20
0.0551125
30
0
40
0.019625
8
gear_guides
0
CIRCLE
5
1044
100
AcDbEntity
100
AcDbCircle
10
0
20
0
30
0
40
0.65
8
gear_guides
0
CIRCLE
5
1045
100
AcDbEntity
100
AcDbCircle
10
0
20
0
30
0
40
0.7
8
gear_guides
0
CIRCLE
5
1046
100
AcDbEntity
100
AcDbCircle
10
0
20
0
30
0
40
0.5938045
8
gear_guides
0
ENDSEC
0
SECTION
2
OBJECTS
0
DICTIONARY
5
21D
330
0
100
AcDbDictionary
281
1
3
ACAD_CIP_PREVIOUS_PRODUCT_INFO
350
291
3
ACAD_COLOR
350
273
3
ACAD_DETAILVIEWSTYLE
350
27B
3
ACAD_GROUP
350
21E
3
ACAD_LAYOUT
350
272
3
ACAD_MATERIAL
350
221
3
ACAD_MLEADERSTYLE
350
276
3
ACAD_MLINESTYLE
350
26F
3
ACAD_PLOTSETTINGS
350
271
3
ACAD_PLOTSTYLENAME
350
21F
3
ACAD_SCALELIST
350
253
3
ACAD_SECTIONVIEWSTYLE
350
278
3
ACAD_TABLESTYLE
350
274
3
ACAD_VISUALSTYLE
350
23A
3
ACDB_RECOMPOSE_DATA
350
1057
3
AcDbVariableDictionary
350
29D
0
DICTIONARY
5
297
330
213
100
AcDbDictionary
280
1
281
1
3
ACAD_LAYERSTATES
360
298
0
DICTIONARY
5
292
330
265
100
AcDbDictionary
280
1
281
1
3
ADSK_XREC_LAYER_RECONCILED
360
293
0
XRECORD
5
291
102
{ACAD_REACTORS
330
21D
102
}
330
21D
100
AcDbXrecord
280
1
300
ACDMAC
300
2013
300
ACDMAC_F_S
0
DICTIONARY
5
273
102
{ACAD_REACTORS
330
21D
102
}
330
21D
100
AcDbDictionary
281
1
0
DICTIONARY
5
27B
102
{ACAD_REACTORS
330
21D
102
}
330
21D
100
AcDbDictionary
281
1
3
Imperial24
350
27C
0
DICTIONARY
5
21E
102
{ACAD_REACTORS
330
21D
102
}
330
21D
100
AcDbDictionary
281
1
0
DICTIONARY
5
272
102
{ACAD_REACTORS
330
21D
102
}
330
21D
100
AcDbDictionary
281
1
3
Layout1
350
280
3
Model
350
284
0
DICTIONARY
5
221
102
{ACAD_REACTORS
330
21D
102
}
330
21D
100
AcDbDictionary
281
1
3
ByBlock
350
22A
3
ByLayer
350
222
3
Global
350
232
0
DICTIONARY
5
276
102
{ACAD_REACTORS
330
21D
102
}
330
21D
100
AcDbDictionary
281
1
3
Standard
350
277
0
DICTIONARY
5
26F
102
{ACAD_REACTORS
330
21D
102
}
330
21D
100
AcDbDictionary
281
1
3
Standard
350
270
0
DICTIONARY
5
271
102
{ACAD_REACTORS
330
21D
102
}
330
21D
100
AcDbDictionary
281
1
0
ACDBDICTIONARYWDFLT
5
21F
102
{ACAD_REACTORS
330
21D
102
}
330
21D
100
AcDbDictionary
281
1
3
Normal
350
220
100
AcDbDictionaryWithDefault
340
220
0
DICTIONARY
5
253
102
{ACAD_REACTORS
330
21D
102
}
330
21D
100
AcDbDictionary
281
1
3
A0
350
254
3
A1
350
255
3
A2
350
256
3
A3
350
257
3
A4
350
258
3
A5
350
259
3
A6
350
25A
3
A7
350
25B
3
A8
350
25C
3
A9
350
25D
3
B0
350
25E
3
B1
350
25F
3
B2
350
260
3
B3
350
261
3
B4
350
262
3
B5
350
263
3
B6
350
264
0
DICTIONARY
5
278
102
{ACAD_REACTORS
330
21D
102
}
330
21D
100
AcDbDictionary
281
1
3
Imperial24
350
27A
0
DICTIONARY
5
274
102
{ACAD_REACTORS
330
21D
102
}
330
21D
100
AcDbDictionary
281
1
3
Standard
350
275
0
DICTIONARY
5
23A
102
{ACAD_REACTORS
330
21D
102
}
330
21D
100
AcDbDictionary
281
1
3
2dWireframe
350
240
3
Basic
350
23F
3
Brighten
350
246
3
ColorChange
350
24A
3
Conceptual
350
243
3
Dim
350
245
3
EdgeColorOff
350
252
3
Facepattern
350
249
3
Flat
350
23B
3
FlatWithEdges
350
23C
3
Gouraud
350
23D
3
GouraudWithEdges
350
23E
3
Hidden
350
242
3
JitterOff
350
250
3
Linepattern
350
248
3
OverhangOff
350
251
3
Realistic
350
244
3
Shaded
350
24F
3
Shaded with edges
350
24E
3
Shades of Gray
350
24B
3
Sketchy
350
24C
3
Thicken
350
247
3
Wireframe
350
241
3
X-Ray
350
24D
0
XRECORD
5
1057
102
{ACAD_REACTORS
330
21D
102
}
330
21D
100
AcDbXrecord
280
1
90
1
330
275
0
DICTIONARY
5
29D
102
{ACAD_REACTORS
330
21D
102
}
330
21D
100
AcDbDictionary
281
1
3
CANNOSCALE
350
2A3
3
CMLEADERSTYLE
350
29F
3
CTABLESTYLE
350
29E
3
CVIEWDETAILSTYLE
350
2A0
3
CVIEWSECTIONSTYLE
350
2A1
3
LAYEREVAL
350
2A5
3
LAYERNOTIFY
350
2A6
3
LIGHTINGUNITS
350
2A4
3
MSLTSCALE
350
2A2
0
DICTIONARY
5
298
102
{ACAD_REACTORS
330
297
102
}
330
297
100
AcDbDictionary
281
1
0
XRECORD
5
293
102
{ACAD_REACTORS
330
292
102
}
330
292
100
AcDbXrecord
280
1
290
1
0
ACDBDETAILVIEWSTYLE
5
27C
102
{ACAD_REACTORS
330
27B
102
}
330
27B
100
AcDbModelDocViewStyle
70
0
3
Imperial24
290
0
100
AcDbDetailViewStyle
70
0
71
0
90
3
71
1
340
266
62
256
40
0.24
340
0
62
256
40
0.24
300

40
0.36
280
3
71
2
340
26D
90
25
62
256
71
3
340
266
62
256
40
0.24
90
1
40
0.75
90
1
300
%<AcVar ViewType  "%tc1">% %<AcVar ViewDetailId>%PSCALE %<AcVar ViewScale  "%sn">%
71
4
340
26D
90
25
62
256
340
26D
90
25
62
256
280
0
0
LAYOUT
5
280
102
{ACAD_REACTORS
330
272
102
}
330
272
100
AcDbPlotSettings
1

2
HP_LaserJet_P1505
4

6

40
0.0
41
0.0
42
0.0
43
0.0
44
0.0
45
0.0
46
0.0
47
0.0
48
0.0
49
0.0
140
0.0
141
0.0
142
1.0
143
1.0
70
688
72
0
73
0
74
5
7

75
16
147
1.0
76
0
77
2
78
300
148
0.0
149
0.0
100
AcDbLayout
1
Layout1
70
1
71
1
10
0.0
20
0.0
11
12.0
21
9.0
12
0.0
22
0.0
32
0.0
14
0.0
24
0.0
34
0.0
15
0.0
25
0.0
35
0.0
146
0.0
13
0.0
23
0.0
33
0.0
16
1.0
26
0.0
36
0.0
17
0.0
27
1.0
37
0.0
76
0
330
27D
0
LAYOUT
5
284
102
{ACAD_REACTORS
330
272
102
}
330
272
100
AcDbPlotSettings
1

2
HP_LaserJet_P1505
4

6

40
0.0
41
0.0
42
0.0
43
0.0
44
0.0
45
0.0
46
0.0
47
0.0
48
0.0
49
0.0
140
0.0
141
0.0
142
1.0
143
1.0
70
1712
72
0
73
0
74
0
7

75
0
147
1.0
76
0
77
2
78
300
148
0.0
149
0.0
100
AcDbLayout
1
Model
70
1
71
0
10
0.0
20
0.0
11
12.0
21
9.0
12
0.0
22
0.0
32
0.0
14
0.0
24
0.0
34
0.0
15
0.0
25
0.0
35
0.0
146
0.0
13
0.0
23
0.0
33
0.0
16
1.0
26
0.0
36
0.0
17
0.0
27
1.0
37
0.0
76
0
330
281
331
285
0
MATERIAL
5
22A
102
{ACAD_XDICTIONARY
360
22B
102
}
102
{ACAD_REACTORS
330
221
102
}
330
221
100
AcDbMaterial
1
ByBlock
72
0
43
0.0208333333333333
43
0.0
43
0.0
43
0.0
43
0.0
43
0.0208333333333333
43
0.0
43
0.0
43
0.0
43
0.0
43
1.0
43
0.0
43
0.0
43
0.0
43
0.0
43
1.0
77
0
47
0.0208333333333333
47
0.0
47
0.0
47
0.0
47
0.0
47
0.0208333333333333
47
0.0
47
0.0
47
0.0
47
0.0
47
1.0
47
0.0
47
0.0
47
0.0
47
0.0
47
1.0
171
0
49
0.0208333333333333
49
0.0
49
0.0
49
0.0
49
0.0
49
0.0208333333333333
49
0.0
49
0.0
49
0.0
49
0.0
49
1.0
49
0.0
49
0.0
49
0.0
49
0.0
49
1.0
175
0
142
0.0208333333333333
142
0.0
142
0.0
142
0.0
142
0.0
142
0.0208333333333333
142
0.0
142
0.0
142
0.0
142
0.0
142
1.0
142
0.0
142
0.0
142
0.0
142
0.0
142
1.0
179
0
144
0.0208333333333333
144
0.0
144
0.0
144
0.0
144
0.0
144
0.0208333333333333
144
0.0
144
0.0
144
0.0
144
0.0
144
1.0
144
0.0
144
0.0
144
0.0
144
0.0
144
1.0
147
0.0208333333333333
147
0.0
147
0.0
147
0.0
147
0.0
147
0.0208333333333333
147
0.0
147
0.0
147
0.0
147
0.0
147
1.0
147
0.0
147
0.0
147
0.0
147
0.0
147
1.0
0
MATERIAL
5
222
102
{ACAD_XDICTIONARY
360
223
102
}
102
{ACAD_REACTORS
330
221
102
}
330
221
100
AcDbMaterial
1
ByLayer
72
0
43
0.0208333333333333
43
0.0
43
0.0
43
0.0
43
0.0
43
0.0208333333333333
43
0.0
43
0.0
43
0.0
43
0.0
43
1.0
43
0.0
43
0.0
43
0.0
43
0.0
43
1.0
77
0
47
0.0208333333333333
47
0.0
47
0.0
47
0.0
47
0.0
47
0.0208333333333333
47
0.0
47
0.0
47
0.0
47
0.0
47
1.0
47
0.0
47
0.0
47
0.0
47
0.0
47
1.0
171
0
49
0.0208333333333333
49
0.0
49
0.0
49
0.0
49
0.0
49
0.0208333333333333
49
0.0
49
0.0
49
0.0
49
0.0
49
1.0
49
0.0
49
0.0
49
0.0
49
0.0
49
1.0
175
0
142
0.0208333333333333
142
0.0
142
0.0
142
0.0
142
0.0
142
0.0208333333333333
142
0.0
142
0.0
142
0.0
142
0.0
142
1.0
142
0.0
142
0.0
142
0.0
142
0.0
142
1.0
179
0
144
0.0208333333333333
144
0.0
144
0.0
144
0.0
144
0.0
144
0.0208333333333333
144
0.0
144
0.0
144
0.0
144
0.0
144
1.0
144
0.0
144
0.0
144
0.0
144
0.0
144
1.0
147
0.0208333333333333
147
0.0
147
0.0
147
0.0
147
0.0
147
0.0208333333333333
147
0.0
147
0.0
147
0.0
147
0.0
147
1.0
147
0.0
147
0.0
147
0.0
147
0.0
147
1.0
0
MATERIAL
5
232
102
{ACAD_XDICTIONARY
360
233
102
}
102
{ACAD_REACTORS
330
221
102
}
330
221
100
AcDbMaterial
1
Global
72
0
43
0.0208333333333333
43
0.0
43
0.0
43
0.0
43
0.0
43
0.0208333333333333
43
0.0
43
0.0
43
0.0
43
0.0
43
1.0
43
0.0
43
0.0
43
0.0
43
0.0
43
1.0
77
0
47
0.0208333333333333
47
0.0
47
0.0
47
0.0
47
0.0
47
0.0208333333333333
47
0.0
47
0.0
47
0.0
47
0.0
47
1.0
47
0.0
47
0.0
47
0.0
47
0.0
47
1.0
171
0
49
0.0208333333333333
49
0.0
49
0.0
49
0.0
49
0.0
49
0.0208333333333333
49
0.0
49
0.0
49
0.0
49
0.0
49
1.0
49
0.0
49
0.0
49
0.0
49
0.0
49
1.0
175
0
142
0.0208333333333333
142
0.0
142
0.0
142
0.0
142
0.0
142
0.0208333333333333
142
0.0
142
0.0
142
0.0
142
0.0
142
1.0
142
0.0
142
0.0
142
0.0
142
0.0
142
1.0
179
0
144
0.0208333333333333
144
0.0
144
0.0
144
0.0
144
0.0
144
0.0208333333333333
144
0.0
144
0.0
144
0.0
144
0.0
144
1.0
144
0.0
144
0.0
144
0.0
144
0.0
144
1.0
147
0.0208333333333333
147
0.0
147
0.0
147
0.0
147
0.0
147
0.0208333333333333
147
0.0
147
0.0
147
0.0
147
0.0
147
1.0
147
0.0
147
0.0
147
0.0
147
0.0
147
1.0
0
MLEADERSTYLE
5
277
102
{ACAD_REACTORS
330
276
102
}
330
276
100
AcDbMLeaderStyle
179
2
170
2
171
1
172
0
90
2
40
0.0
41
0.0
173
1
91
-1056964608
340
26B
92
-2
290
1
42
0.09
291
1
43
0.36
3
Standard
44
0.18
300

342
266
174
1
178
6
175
1
176
0
93
-1056964608
45
0.18
292
0
297
0
46
0.18
94
-1056964608
47
1.0
49
1.0
140
1.0
293
1
141
0.0
294
1
177
0
142
1.0
295
0
296
0
143
0.125
271
0
272
9
273
9
298
0
0
MLINESTYLE
5
270
102
{ACAD_REACTORS
330
26F
102
}
330
26F
100
AcDbMlineStyle
2
STANDARD
70
0
3

62
256
51
90.0
52
90.0
71
2
49
0.5
62
256
6
BYLAYER
49
-0.5
62
256
6
BYLAYER
0
ACDBPLACEHOLDER
5
220
102
{ACAD_REACTORS
330
21F
102
}
330
21F
0
SCALE
5
254
102
{ACAD_REACTORS
330
253
102
}
330
253
100
AcDbScale
70
0
300
1:1
140
1.0
141
1.0
290
1
0
SCALE
5
255
102
{ACAD_REACTORS
330
253
102
}
330
253
100
AcDbScale
70
0
300
1/128" = 1'-0"
140
0.0078125
141
12.0
290
0
0
SCALE
5
256
102
{ACAD_REACTORS
330
253
102
}
330
253
100
AcDbScale
70
0
300
1/64" = 1'-0"
140
0.015625
141
12.0
290
0
0
SCALE
5
257
102
{ACAD_REACTORS
330
253
102
}
330
253
100
AcDbScale
70
0
300
1/32" = 1'-0"
140
0.03125
141
12.0
290
0
0
SCALE
5
258
102
{ACAD_REACTORS
330
253
102
}
330
253
100
AcDbScale
70
0
300
1/16" = 1'-0"
140
0.0625
141
12.0
290
0
0
SCALE
5
259
102
{ACAD_REACTORS
330
253
102
}
330
253
100
AcDbScale
70
0
300
3/32" = 1'-0"
140
0.09375
141
12.0
290
0
0
SCALE
5
25A
102
{ACAD_REACTORS
330
253
102
}
330
253
100
AcDbScale
70
0
300
1/8" = 1'-0"
140
0.125
141
12.0
290
0
0
SCALE
5
25B
102
{ACAD_REACTORS
330
253
102
}
330
253
100
AcDbScale
70
0
300
3/16" = 1'-0"
140
0.1875
141
12.0
290
0
0
SCALE
5
25C
102
{ACAD_REACTORS
330
253
102
}
330
253
100
AcDbScale
70
0
300
1/4" = 1'-0"
140
0.25
141
12.0
290
0
0
SCALE
5
25D
102
{ACAD_REACTORS
330
253
102
}
330
253
100
AcDbScale
70
0
300
3/8" = 1'-0"
140
0.375
141
12.0
290
0
0
SCALE
5
25E
102
{ACAD_REACTORS
330
253
102
}
330
253
100
AcDbScale
70
0
300
1/2" = 1'-0"
140
0.5
141
12.0
290
0
0
SCALE
5
25F
102
{ACAD_REACTORS
330
253
102
}
330
253
100
AcDbScale
70
0
300
3/4" = 1'-0"
140
0.75
141
12.0
290
0
0
SCALE
5
260
102
{ACAD_REACTORS
330
253
102
}
330
253
100
AcDbScale
70
0
300
1" = 1'-0"
140
1.0
141
12.0
290
0
0
SCALE
5
261
102
{ACAD_REACTORS
330
253
102
}
330
253
100
AcDbScale
70
0
300
1-1/2" = 1'-0"
140
1.5
141
12.0
290
0
0
SCALE
5
262
102
{ACAD_REACTORS
330
253
102
}
330
253
100
AcDbScale
70
0
300
3" = 1'-0"
140
3.0
141
12.0
290
0
0
SCALE
5
263
102
{ACAD_REACTORS
330
253
102
}
330
253
100
AcDbScale
70
0
300
6" = 1'-0"
140
6.0
141
12.0
290
0
0
SCALE
5
264
102
{ACAD_REACTORS
330
253
102
}
330
253
100
AcDbScale
70
0
300
1'-0" = 1'-0"
140
12.0
141
12.0
290
0
0
ACDBSECTIONVIEWSTYLE
5
27A
102
{ACAD_REACTORS
330
278
102
}
330
278
100
AcDbModelDocViewStyle
70
0
3
Imperial24
290
0
100
AcDbSectionViewStyle
70
0
71
0
90
78
71
1
340
266
62
256
40
0.24
340
0
340
0
62
256
40
0.24
300
I, O, Q, S, X, Z
40
0.48
90
3
40
0.18
90
1
71
2
340
279
90
25
62
256
340
26D
90
50
62
256
40
0.24
40
0.0
40
0.24
71
3
340
266
62
256
40
0.24
90
1
40
0.75
90
1
300
%<AcVar ViewType  "%tc1">% %<AcVar ViewSectionStartId>%-%<AcVar ViewSectionEndId>%PSCALE %<AcVar ViewScale  "%sn">%
71
4
62
256
62
257
300
ANSI31
40
1.0
90
0
290
0
290
0
90
6
40
0.0
40
1.570796326794896
40
0.2617993877991494
40
1.308996938995747
40
-0.2617993877991494
40
1.832595714594044
0
TABLESTYLE
5
275
102
{ACAD_XDICTIONARY
360
2A7
102
}
102
{ACAD_REACTORS
330
274
102
}
330
274
100
AcDbTableStyle
280
0
3
Standard
70
0
71
0
40
0.06
41
0.06
280
0
281
0
7
STANDARD
140
0.18
170
2
62
0
63
7
283
0
90
512
91
0
1

274
-2
284
1
64
0
275
-2
285
1
65
0
276
-2
286
1
66
0
277
-2
287
1
67
0
278
-2
288
1
68
0
279
-2
289
1
69
0
7
STANDARD
140
0.25
170
5
62
0
63
7
283
0
90
512
91
0
1

274
-2
284
1
64
0
275
-2
285
1
65
0
276
-2
286
1
66
0
277
-2
287
1
67
0
278
-2
288
1
68
0
279
-2
289
1
69
0
7
STANDARD
140
0.18
170
5
62
0
63
7
283
0
90
512
91
0
1

274
-2
284
1
64
0
275
-2
285
1
65
0
276
-2
286
1
66
0
277
-2
287
1
67
0
278
-2
288
1
68
0
279
-2
289
1
69
0
0
VISUALSTYLE
5
240
102
{ACAD_REACTORS
330
23A
102
}
330
23A
100
AcDbVisualStyle
2
2dWireframe
70
4
177
3
291
0
70
58
90
0
176
1
90
2
176
1
90
0
176
1
90
0
176
1
40
0.6
176
1
40
30.0
176
1
62
7
420
16777215
176
1
90
1
176
1
90
4
176
1
62
7
176
1
62
257
176
1
90
1
176
1
90
1
176
1
40
1.0
176
1
90
0
176
1
62
257
176
1
40
1.0
176
1
90
1
176
1
90
6
176
1
90
2
176
1
62
7
176
1
90
5
176
1
90
0
176
1
90
0
176
1
290
0
176
1
90
1
176
1
40
0.0
176
1
90
0
176
1
290
1
176
1
290
1
176
1
290
0
176
1
290
0
176
1
290
0
176
1
290
0
176
1
290
0
176
1
290
0
176
1
290
0
176
1
90
50
176
1
40
0.0
176
1
40
1.0
176
1
90
0
176
1
62
18
176
1
90
50
176
1
90
3
176
1
62
5
420
255
176
1
290
0
176
1
90
50
176
1
90
50
176
1
90
50
176
1
290
0
176
1
90
50
176
1
62
256
176
0
40
1.0
176
0
90
2
176
1
1
strokes_ogs.tif
176
1
290
0
176
1
40
1.0
176
1
40
1.0
176
1
1001
ACAD
1000
AcDbSavedByObjectVersion
1070
0
0
VISUALSTYLE
5
23F
102
{ACAD_REACTORS
330
23A
102
}
330
23A
100
AcDbVisualStyle
2
Basic
70
7
177
3
291
1
70
58
90
1
176
1
90
0
176
1
90
1
176
1
90
0
176
1
40
0.6
176
1
40
30.0
176
1
62
7
420
16777215
176
1
90
0
176
1
90
4
176
1
62
7
176
1
62
257
176
1
90
1
176
1
90
1
176
1
40
1.0
176
1
90
8
176
1
62
7
176
1
40
1.0
176
1
90
1
176
1
90
6
176
1
90
2
176
1
62
7
176
1
90
5
176
1
90
0
176
1
90
0
176
1
290
0
176
1
90
1
176
1
40
0.0
176
1
90
0
176
1
290
0
176
1
290
1
176
1
290
1
176
1
290
0
176
1
290
0
176
1
290
0
176
1
290
0
176
1
290
0
176
1
290
0
176
1
90
50
176
1
40
0.0
176
1
40
1.0
176
1
90
0
176
1
62
18
176
1
90
50
176
1
90
3
176
1
62
5
420
255
176
1
290
0
176
1
90
50
176
1
90
50
176
1
90
50
176
1
290
0
176
1
90
50
176
1
62
256
176
0
40
1.0
176
0
90
2
176
1
1
strokes_ogs.tif
176
1
290
0
176
1
40
1.0
176
1
40
1.0
176
1
1001
ACAD
1000
AcDbSavedByObjectVersion
1070
0
0
VISUALSTYLE
5
246
102
{ACAD_REACTORS
330
23A
102
}
330
23A
100
AcDbVisualStyle
2
Brighten
70
12
177
3
291
1
70
58
90
2
176
1
90
2
176
1
90
0
176
1
90
0
176
1
40
0.6
176
1
40
30.0
176
1
62
7
420
16777215
176
1
90
1
176
1
90
4
176
1
62
7
176
1
62
257
176
1
90
1
176
1
90
1
176
1
40
1.0
176
1
90
8
176
1
62
7
176
1
40
1.0
176
1
90
1
176
1
90
6
176
1
90
2
176
1
62
7
176
1
90
5
176
1
90
0
176
1
90
0
176
1
290
0
176
1
90
1
176
1
40
50.0
176
1
90
0
176
1
290
0
176
1
290
1
176
1
290
1
176
1
290
0
176
1
290
0
176
1
290
0
176
1
290
0
176
1
290
0
176
1
290
0
176
1
90
50
176
1
40
0.0
176
1
40
1.0
176
1
90
0
176
1
62
18
176
1
90
50
176
1
90
3
176
1
62
5
420
255
176
1
290
0
176
1
90
50
176
1
90
50
176
1
90
50
176
1
290
0
176
1
90
50
176
1
62
256
176
0
40
1.0
176
0
90
2
176
1
1
strokes_ogs.tif
176
1
290
0
176
1
40
1.0
176
1
40
1.0
176
1
1001
ACAD
1000
AcDbSavedByObjectVersion
1070
0
0
VISUALSTYLE
5
24A
102
{ACAD_REACTORS
330
23A
102
}
330
23A
100
AcDbVisualStyle
2
ColorChange
70
16
177
3
291
1
70
58
90
2
176
1
90
2
176
1
90
3
176
1
90
0
176
1
40
0.6
176
1
40
30.0
176
1
62
8
420
8421504
176
1
90
1
176
1
90
4
176
1
62
7
176
1
62
257
176
1
90
1
176
1
90
1
176
1
40
1.0
176
1
90
8
176
1
62
8
420
8421504
176
1
40
1.0
176
1
90
1
176
1
90
6
176
1
90
2
176
1
62
7
176
1
90
5
176
1
90
0
176
1
90
0
176
1
290
0
176
1
90
1
176
1
40
0.0
176
1
90
0
176
1
290
0
176
1
290
1
176
1
290
1
176
1
290
0
176
1
290
0
176
1
290
0
176
1
290
0
176
1
290
0
176
1
290
0
176
1
90
50
176
1
40
0.0
176
1
40
1.0
176
1
90
0
176
1
62
18
176
1
90
50
176
1
90
3
176
1
62
5
420
255
176
1
290
0
176
1
90
50
176
1
90
50
176
1
90
50
176
1
290
0
176
1
90
50
176
1
62
256
176
0
40
1.0
176
0
90
2
176
1
1
strokes_ogs.tif
176
1
290
0
176
1
40
1.0
176
1
40
1.0
176
1
1001
ACAD
1000
AcDbSavedByObjectVersion
1070
0
0
VISUALSTYLE
5
243
102
{ACAD_REACTORS
330
23A
102
}
330
23A
100
AcDbVisualStyle
2
Conceptual
70
9
177
3
291
0
70
58
90
3
176
1
90
2
176
1
90
0
176
1
90
0
176
1
40
0.6
176
1
40
30.0
176
1
62
7
420
16777215
176
1
90
2
176
1
90
2
176
1
62
7
176
1
62
257
176
1
90
1
176
1
90
1
176
1
40
179.0
176
1
90
8
176
1
62
7
176
1
40
1.0
176
1
90
1
176
1
90
6
176
1
90
2
176
1
62
7
176
1
90
3
176
1
90
0
176
1
90
0
176
1
290
0
176
1
90
1
176
1
40
0.0
176
1
90
0
176
1
290
0
176
1
290
1
176
1
290
1
176
1
290
0
176
1
290
0
176
1
290
0
176
1
290
0
176
1
290
0
176
1
290
0
176
1
90
50
176
1
40
0.0
176
1
40
1.0
176
1
90
0
176
1
62
18
176
1
90
50
176
1
90
3
176
1
62
5
420
255
176
1
290
0
176
1
90
50
176
1
90
50
176
1
90
50
176
1
290
0
176
1
90
50
176
1
62
256
176
0
40
1.0
176
0
90
2
176
1
1
strokes_ogs.tif
176
1
290
0
176
1
40
1.0
176
1
40
1.0
176
1
1001
ACAD
1000
AcDbSavedByObjectVersion
1070
0
0
VISUALSTYLE
5
245
102
{ACAD_REACTORS
330
23A
102
}
330
23A
100
AcDbVisualStyle
2
Dim
70
11
177
3
291
1
70
58
90
2
176
1
90
2
176
1
90
0
176
1
90
0
176
1
40
0.6
176
1
40
30.0
176
1
62
7
420
16777215
176
1
90
1
176
1
90
4
176
1
62
7
176
1
62
257
176
1
90
1
176
1
90
1
176
1
40
1.0
176
1
90
8
176
1
62
7
176
1
40
1.0
176
1
90
1
176
1
90
6
176
1
90
2
176
1
62
7
176
1
90
5
176
1
90
0
176
1
90
0
176
1
290
0
176
1
90
1
176
1
40
-50.0
176
1
90
0
176
1
290
0
176
1
290
1
176
1
290
1
176
1
290
0
176
1
290
0
176
1
290
0
176
1
290
0
176
1
290
0
176
1
290
0
176
1
90
50
176
1
40
0.0
176
1
40
1.0
176
1
90
0
176
1
62
18
176
1
90
50
176
1
90
3
176
1
62
5
420
255
176
1
290
0
176
1
90
50
176
1
90
50
176
1
90
50
176
1
290
0
176
1
90
50
176
1
62
256
176
0
40
1.0
176
0
90
2
176
1
1
strokes_ogs.tif
176
1
290
0
176
1
40
1.0
176
1
40
1.0
176
1
1001
ACAD
1000
AcDbSavedByObjectVersion
1070
0
0
VISUALSTYLE
5
252
102
{ACAD_REACTORS
330
23A
102
}
330
23A
100
AcDbVisualStyle
2
EdgeColorOff
70
22
177
3
291
1
70
58
90
2
176
0
90
2
176
0
90
0
176
0
90
0
176
0
40
0.6
176
0
40
30.0
176
0
62
7
420
16777215
176
0
90
1
176
0
90
4
176
0
62
7
176
0
62
257
176
0
90
1
176
0
90
1
176
0
40
1.0
176
0
90
8
176
2
62
7
176
0
40
1.0
176
0
90
1
176
0
90
6
176
0
90
2
176
0
62
7
176
0
90
5
176
0
90
0
176
0
90
0
176
0
290
0
176
0
90
1
176
0
40
0.0
176
0
90
0
176
0
290
0
176
1
290
1
176
1
290
1
176
1
290
0
176
1
290
0
176
1
290
0
176
1
290
0
176
1
290
0
176
1
290
0
176
1
90
50
176
0
40
0.0
176
0
40
1.0
176
0
90
0
176
0
62
18
176
0
90
50
176
0
90
3
176
0
62
5
420
255
176
0
290
0
176
1
90
50
176
0
90
50
176
0
90
50
176
0
290
0
176
1
90
50
176
0
62
256
176
0
40
1.0
176
0
90
2
176
0
1
strokes_ogs.tif
176
0
290
0
176
1
40
1.0
176
0
40
1.0
176
0
1001
ACAD
1000
AcDbSavedByObjectVersion
1070
0
0
VISUALSTYLE
5
249
102
{ACAD_REACTORS
330
23A
102
}
330
23A
100
AcDbVisualStyle
2
Facepattern
70
15
177
3
291
1
70
58
90
2
176
1
90
2
176
1
90
0
176
1
90
0
176
1
40
0.6
176
1
40
30.0
176
1
62
7
420
16777215
176
1
90
1
176
1
90
4
176
1
62
7
176
1
62
257
176
1
90
1
176
1
90
1
176
1
40
1.0
176
1
90
8
176
1
62
7
176
1
40
1.0
176
1
90
1
176
1
90
6
176
1
90
2
176
1
62
7
176
1
90
5
176
1
90
0
176
1
90
0
176
1
290
0
176
1
90
1
176
1
40
0.0
176
1
90
0
176
1
290
0
176
1
290
1
176
1
290
1
176
1
290
0
176
1
290
0
176
1
290
0
176
1
290
0
176
1
290
0
176
1
290
0
176
1
90
50
176
1
40
0.0
176
1
40
1.0
176
1
90
0
176
1
62
18
176
1
90
50
176
1
90
3
176
1
62
5
420
255
176
1
290
0
176
1
90
50
176
1
90
50
176
1
90
50
176
1
290
0
176
1
90
50
176
1
62
256
176
0
40
1.0
176
0
90
2
176
1
1
strokes_ogs.tif
176
1
290
0
176
1
40
1.0
176
1
40
1.0
176
1
1001
ACAD
1000
AcDbSavedByObjectVersion
1070
0
0
VISUALSTYLE
5
23B
102
{ACAD_REACTORS
330
23A
102
}
330
23A
100
AcDbVisualStyle
2
Flat
70
0
177
3
291
1
70
58
90
2
176
1
90
1
176
1
90
1
176
1
90
2
176
1
40
0.6
176
1
40
30.0
176
1
62
7
420
16777215
176
1
90
0
176
1
90
0
176
1
62
7
176
1
62
257
176
1
90
1
176
1
90
1
176
1
40
1.0
176
1
90
8
176
1
62
7
176
1
40
1.0
176
1
90
1
176
1
90
6
176
1
90
2
176
1
62
7
176
1
90
5
176
1
90
0
176
1
90
0
176
1
290
0
176
1
90
13
176
1
40
0.0
176
1
90
0
176
1
290
0
176
1
290
1
176
1
290
1
176
1
290
0
176
1
290
0
176
1
290
0
176
1
290
0
176
1
290
0
176
1
290
0
176
1
90
50
176
1
40
0.0
176
1
40
1.0
176
1
90
0
176
1
62
18
176
1
90
50
176
1
90
3
176
1
62
5
420
255
176
1
290
0
176
1
90
50
176
1
90
50
176
1
90
50
176
1
290
0
176
1
90
50
176
1
62
256
176
0
40
1.0
176
0
90
2
176
1
1
strokes_ogs.tif
176
1
290
0
176
1
40
1.0
176
1
40
1.0
176
1
1001
ACAD
1000
AcDbSavedByObjectVersion
1070
0
0
VISUALSTYLE
5
23C
102
{ACAD_REACTORS
330
23A
102
}
330
23A
100
AcDbVisualStyle
2
FlatWithEdges
70
1
177
3
291
1
70
58
90
2
176
1
90
1
176
1
90
1
176
1
90
2
176
1
40
0.6
176
1
40
30.0
176
1
62
7
420
16777215
176
1
90
1
176
1
90
0
176
1
62
7
176
1
62
257
176
1
90
1
176
1
90
1
176
1
40
1.0
176
1
90
0
176
1
62
257
176
1
40
1.0
176
1
90
1
176
1
90
6
176
1
90
2
176
1
62
7
176
1
90
5
176
1
90
0
176
1
90
0
176
1
290
0
176
1
90
13
176
1
40
0.0
176
1
90
0
176
1
290
0
176
1
290
1
176
1
290
1
176
1
290
0
176
1
290
0
176
1
290
0
176
1
290
0
176
1
290
0
176
1
290
0
176
1
90
50
176
1
40
0.0
176
1
40
1.0
176
1
90
0
176
1
62
18
176
1
90
50
176
1
90
3
176
1
62
5
420
255
176
1
290
0
176
1
90
50
176
1
90
50
176
1
90
50
176
1
290
0
176
1
90
50
176
1
62
256
176
0
40
1.0
176
0
90
2
176
1
1
strokes_ogs.tif
176
1
290
0
176
1
40
1.0
176
1
40
1.0
176
1
1001
ACAD
1000
AcDbSavedByObjectVersion
1070
0
0
VISUALSTYLE
5
23D
102
{ACAD_REACTORS
330
23A
102
}
330
23A
100
AcDbVisualStyle
2
Gouraud
70
2
177
3
291
1
70
58
90
2
176
1
90
2
176
1
90
1
176
1
90
2
176
1
40
0.6
176
1
40
30.0
176
1
62
7
420
16777215
176
1
90
0
176
1
90
0
176
1
62
7
176
1
62
257
176
1
90
1
176
1
90
1
176
1
40
1.0
176
1
90
0
176
1
62
7
176
1
40
1.0
176
1
90
1
176
1
90
6
176
1
90
2
176
1
62
7
176
1
90
5
176
1
90
0
176
1
90
0
176
1
290
0
176
1
90
13
176
1
40
0.0
176
1
90
0
176
1
290
0
176
1
290
1
176
1
290
1
176
1
290
0
176
1
290
0
176
1
290
0
176
1
290
0
176
1
290
0
176
1
290
0
176
1
90
50
176
1
40
0.0
176
1
40
1.0
176
1
90
0
176
1
62
18
176
1
90
50
176
1
90
3
176
1
62
5
420
255
176
1
290
0
176
1
90
50
176
1
90
50
176
1
90
50
176
1
290
0
176
1
90
50
176
1
62
256
176
0
40
1.0
176
0
90
2
176
1
1
strokes_ogs.tif
176
1
290
0
176
1
40
1.0
176
1
40
1.0
176
1
1001
ACAD
1000
AcDbSavedByObjectVersion
1070
0
0
VISUALSTYLE
5
23E
102
{ACAD_REACTORS
330
23A
102
}
330
23A
100
AcDbVisualStyle
2
GouraudWithEdges
70
3
177
3
291
1
70
58
90
2
176
1
90
2
176
1
90
1
176
1
90
2
176
1
40
0.6
176
1
40
30.0
176
1
62
7
420
16777215
176
1
90
1
176
1
90
0
176
1
62
7
176
1
62
257
176
1
90
1
176
1
90
1
176
1
40
1.0
176
1
90
0
176
1
62
257
176
1
40
1.0
176
1
90
1
176
1
90
6
176
1
90
2
176
1
62
7
176
1
90
5
176
1
90
0
176
1
90
0
176
1
290
0
176
1
90
13
176
1
40
0.0
176
1
90
0
176
1
290
0
176
1
290
1
176
1
290
1
176
1
290
0
176
1
290
0
176
1
290
0
176
1
290
0
176
1
290
0
176
1
290
0
176
1
90
50
176
1
40
0.0
176
1
40
1.0
176
1
90
0
176
1
62
18
176
1
90
50
176
1
90
3
176
1
62
5
420
255
176
1
290
0
176
1
90
50
176
1
90
50
176
1
90
50
176
1
290
0
176
1
90
50
176
1
62
256
176
0
40
1.0
176
0
90
2
176
1
1
strokes_ogs.tif
176
1
290
0
176
1
40
1.0
176
1
40
1.0
176
1
1001
ACAD
1000
AcDbSavedByObjectVersion
1070
0
0
VISUALSTYLE
5
242
102
{ACAD_REACTORS
330
23A
102
}
330
23A
100
AcDbVisualStyle
2
Hidden
70
6
177
3
291
0
70
58
90
1
176
1
90
2
176
1
90
2
176
1
90
0
176
1
40
0.6
176
1
40
30.0
176
1
62
7
420
16777215
176
1
90
2
176
1
90
2
176
1
62
7
176
1
62
257
176
1
90
2
176
1
90
1
176
1
40
40.0
176
1
90
0
176
1
62
257
176
1
40
1.0
176
1
90
1
176
1
90
6
176
1
90
2
176
1
62
7
176
1
90
3
176
1
90
0
176
1
90
0
176
1
290
0
176
1
90
1
176
1
40
0.0
176
1
90
0
176
1
290
0
176
1
290
1
176
1
290
1
176
1
290
0
176
1
290
0
176
1
290
0
176
1
290
0
176
1
290
0
176
1
290
0
176
1
90
50
176
1
40
0.0
176
1
40
1.0
176
1
90
0
176
1
62
18
176
1
90
50
176
1
90
3
176
1
62
5
420
255
176
1
290
0
176
1
90
50
176
1
90
50
176
1
90
50
176
1
290
0
176
1
90
50
176
1
62
256
176
0
40
1.0
176
0
90
2
176
1
1
strokes_ogs.tif
176
1
290
0
176
1
40
1.0
176
1
40
1.0
176
1
1001
ACAD
1000
AcDbSavedByObjectVersion
1070
0
0
VISUALSTYLE
5
250
102
{ACAD_REACTORS
330
23A
102
}
330
23A
100
AcDbVisualStyle
2
JitterOff
70
20
177
3
291
1
70
58
90
2
176
0
90
2
176
0
90
0
176
0
90
0
176
0
40
0.6
176
0
40
30.0
176
0
62
7
420
16777215
176
0
90
1
176
0
90
4
176
0
62
7
176
0
62
257
176
0
90
1
176
0
90
1
176
0
40
1.0
176
0
90
10
176
2
62
7
176
0
40
1.0
176
0
90
1
176
0
90
6
176
0
90
2
176
0
62
7
176
0
90
5
176
0
90
0
176
0
90
0
176
0
290
0
176
0
90
1
176
0
40
0.0
176
0
90
0
176
0
290
0
176
1
290
1
176
1
290
1
176
1
290
0
176
1
290
0
176
1
290
0
176
1
290
0
176
1
290
0
176
1
290
0
176
1
90
50
176
0
40
0.0
176
0
40
1.0
176
0
90
0
176
0
62
18
176
0
90
50
176
0
90
3
176
0
62
5
420
255
176
0
290
0
176
1
90
50
176
0
90
50
176
0
90
50
176
0
290
0
176
1
90
50
176
0
62
256
176
0
40
1.0
176
0
90
2
176
0
1
strokes_ogs.tif
176
0
290
0
176
1
40
1.0
176
0
40
1.0
176
0
1001
ACAD
1000
AcDbSavedByObjectVersion
1070
0
0
VISUALSTYLE
5
248
102
{ACAD_REACTORS
330
23A
102
}
330
23A
100
AcDbVisualStyle
2
Linepattern
70
14
177
3
291
1
70
58
90
2
176
1
90
2
176
1
90
0
176
1
90
0
176
1
40
0.6
176
1
40
30.0
176
1
62
7
420
16777215
176
1
90
1
176
1
90
4
176
1
62
7
176
1
62
257
176
1
90
7
176
1
90
7
176
1
40
1.0
176
1
90
8
176
1
62
7
176
1
40
1.0
176
1
90
1
176
1
90
6
176
1
90
2
176
1
62
7
176
1
90
5
176
1
90
0
176
1
90
0
176
1
290
0
176
1
90
1
176
1
40
0.0
176
1
90
0
176
1
290
0
176
1
290
1
176
1
290
1
176
1
290
0
176
1
290
0
176
1
290
0
176
1
290
0
176
1
290
0
176
1
290
0
176
1
90
50
176
1
40
0.0
176
1
40
1.0
176
1
90
0
176
1
62
18
176
1
90
50
176
1
90
3
176
1
62
5
420
255
176
1
290
0
176
1
90
50
176
1
90
50
176
1
90
50
176
1
290
0
176
1
90
50
176
1
62
256
176
0
40
1.0
176
0
90
2
176
1
1
strokes_ogs.tif
176
1
290
0
176
1
40
1.0
176
1
40
1.0
176
1
1001
ACAD
1000
AcDbSavedByObjectVersion
1070
0
0
VISUALSTYLE
5
251
102
{ACAD_REACTORS
330
23A
102
}
330
23A
100
AcDbVisualStyle
2
OverhangOff
70
21
177
3
291
1
70
58
90
2
176
0
90
2
176
0
90
0
176
0
90
0
176
0
40
0.6
176
0
40
30.0
176
0
62
7
420
16777215
176
0
90
1
176
0
90
4
176
0
62
7
176
0
62
257
176
0
90
1
176
0
90
1
176
0
40
1.0
176
0
90
9
176
2
62
7
176
0
40
1.0
176
0
90
1
176
0
90
6
176
0
90
2
176
0
62
7
176
0
90
5
176
0
90
0
176
0
90
0
176
0
290
0
176
0
90
1
176
0
40
0.0
176
0
90
0
176
0
290
0
176
1
290
1
176
1
290
1
176
1
290
0
176
1
290
0
176
1
290
0
176
1
290
0
176
1
290
0
176
1
290
0
176
1
90
50
176
0
40
0.0
176
0
40
1.0
176
0
90
0
176
0
62
18
176
0
90
50
176
0
90
3
176
0
62
5
420
255
176
0
290
0
176
1
90
50
176
0
90
50
176
0
90
50
176
0
290
0
176
1
90
50
176
0
62
256
176
0
40
1.0
176
0
90
2
176
0
1
strokes_ogs.tif
176
0
290
0
176
1
40
1.0
176
0
40
1.0
176
0
1001
ACAD
1000
AcDbSavedByObjectVersion
1070
0
0
VISUALSTYLE
5
244
102
{ACAD_REACTORS
330
23A
102
}
330
23A
100
AcDbVisualStyle
2
Realistic
70
8
177
3
291
0
70
58
90
2
176
1
90
3
176
1
90
0
176
1
90
2
176
1
40
0.6
176
1
40
30.0
176
1
62
7
420
16777215
176
1
90
0
176
1
90
0
176
1
62
7
176
1
62
257
176
1
90
1
176
1
90
1
176
1
40
1.0
176
1
90
8
176
1
62
257
176
1
40
1.0
176
1
90
1
176
1
90
6
176
1
90
2
176
1
62
7
176
1
90
3
176
1
90
0
176
1
90
0
176
1
290
0
176
1
90
13
176
1
40
0.0
176
1
90
0
176
1
290
0
176
1
290
1
176
1
290
1
176
1
290
0
176
1
290
0
176
1
290
0
176
1
290
0
176
1
290
0
176
1
290
0
176
1
90
50
176
1
40
0.0
176
1
40
1.0
176
1
90
0
176
1
62
18
176
1
90
50
176
1
90
3
176
1
62
5
420
255
176
1
290
0
176
1
90
50
176
1
90
50
176
1
90
50
176
1
290
0
176
1
90
50
176
1
62
256
176
0
40
1.0
176
0
90
2
176
1
1
strokes_ogs.tif
176
1
290
0
176
1
40
1.0
176
1
40
1.0
176
1
1001
ACAD
1000
AcDbSavedByObjectVersion
1070
0
0
VISUALSTYLE
5
24F
102
{ACAD_REACTORS
330
23A
102
}
330
23A
100
AcDbVisualStyle
2
Shaded
70
27
177
3
291
0
70
58
90
2
176
1
90
2
176
1
90
1
176
1
90
2
176
1
40
0.6
176
1
40
30.0
176
1
62
7
420
16777215
176
1
90
0
176
1
90
4
176
1
62
7
176
1
62
257
176
1
90
1
176
1
90
1
176
1
40
1.0
176
1
90
8
176
1
62
257
176
1
40
1.0
176
1
90
1
176
1
90
6
176
1
90
2
176
1
62
8
420
7895160
176
1
90
3
176
1
90
0
176
1
90
0
176
1
290
0
176
1
90
5
176
1
40
0.0
176
1
90
0
176
1
290
0
176
1
290
1
176
1
290
1
176
1
290
0
176
1
290
0
176
1
290
0
176
1
290
0
176
1
290
0
176
1
290
0
176
1
90
50
176
1
40
0.0
176
1
40
1.0
176
1
90
0
176
1
62
18
176
1
90
50
176
1
90
3
176
1
62
5
420
255
176
1
290
0
176
1
90
50
176
1
90
50
176
1
90
50
176
1
290
0
176
1
90
50
176
1
62
256
176
0
40
1.0
176
0
90
2
176
1
1
strokes_ogs.tif
176
1
290
0
176
1
40
1.0
176
1
40
1.0
176
1
1001
ACAD
1000
AcDbSavedByObjectVersion
1070
0
0
VISUALSTYLE
5
24E
102
{ACAD_REACTORS
330
23A
102
}
330
23A
100
AcDbVisualStyle
2
Shaded with edges
70
26
177
3
291
0
70
58
90
2
176
1
90
2
176
1
90
1
176
1
90
2
176
1
40
0.6
176
1
40
30.0
176
1
62
7
420
16777215
176
1
90
1
176
1
90
10
176
1
62
7
176
1
62
257
176
1
90
2
176
1
90
1
176
1
40
1.0
176
1
90
8
176
1
62
257
176
1
40
1.0
176
1
90
1
176
1
90
6
176
1
90
2
176
1
62
7
176
1
90
3
176
1
90
0
176
1
90
0
176
1
290
0
176
1
90
5
176
1
40
0.0
176
1
90
0
176
1
290
0
176
1
290
1
176
1
290
1
176
1
290
0
176
1
290
0
176
1
290
0
176
1
290
0
176
1
290
0
176
1
290
0
176
1
90
50
176
1
40
0.0
176
1
40
1.0
176
1
90
0
176
1
62
18
176
1
90
50
176
1
90
3
176
1
62
5
420
255
176
1
290
0
176
1
90
50
176
1
90
50
176
1
90
50
176
1
290
0
176
1
90
50
176
1
62
256
176
0
40
1.0
176
0
90
2
176
1
1
strokes_ogs.tif
176
1
290
0
176
1
40
1.0
176
1
40
1.0
176
1
1001
ACAD
1000
AcDbSavedByObjectVersion
1070
0
0
VISUALSTYLE
5
24B
102
{ACAD_REACTORS
330
23A
102
}
330
23A
100
AcDbVisualStyle
2
Shades of Gray
70
23
177
3
291
0
70
58
90
2
176
1
90
2
176
1
90
3
176
1
90
0
176
1
40
0.6
176
1
40
30.0
176
1
62
7
420
16777215
176
1
90
2
176
1
90
2
176
1
62
7
176
1
62
7
176
1
90
1
176
1
90
1
176
1
40
40.0
176
1
90
8
176
1
62
7
176
1
40
1.0
176
1
90
1
176
1
90
6
176
1
90
2
176
1
62
7
176
1
90
3
176
1
90
0
176
1
90
0
176
1
290
0
176
1
90
1
176
1
40
0.0
176
1
90
0
176
1
290
0
176
1
290
1
176
1
290
1
176
1
290
0
176
1
290
0
176
1
290
0
176
1
290
0
176
1
290
0
176
1
290
0
176
1
90
50
176
1
40
0.0
176
1
40
1.0
176
1
90
0
176
1
62
18
176
1
90
50
176
1
90
3
176
1
62
5
420
255
176
1
290
0
176
1
90
50
176
1
90
50
176
1
90
50
176
1
290
0
176
1
90
50
176
1
62
256
176
0
40
1.0
176
0
90
2
176
1
1
strokes_ogs.tif
176
1
290
0
176
1
40
1.0
176
1
40
1.0
176
1
1001
ACAD
1000
AcDbSavedByObjectVersion
1070
0
0
VISUALSTYLE
5
24C
102
{ACAD_REACTORS
330
23A
102
}
330
23A
100
AcDbVisualStyle
2
Sketchy
70
24
177
3
291
0
70
58
90
1
176
1
90
2
176
1
90
2
176
1
90
0
176
1
40
0.6
176
1
40
30.0
176
1
62
7
420
16777215
176
1
90
2
176
1
90
2
176
1
62
7
176
1
62
7
176
1
90
1
176
1
90
1
176
1
40
40.0
176
1
90
11
176
1
62
7
176
1
40
1.0
176
1
90
1
176
1
90
6
176
1
90
2
176
1
62
7
176
1
90
6
176
1
90
0
176
1
90
0
176
1
290
0
176
1
90
1
176
1
40
0.0
176
1
90
0
176
1
290
0
176
1
290
1
176
1
290
1
176
1
290
0
176
1
290
0
176
1
290
0
176
1
290
0
176
1
290
0
176
1
290
0
176
1
90
50
176
1
40
0.0
176
1
40
1.0
176
1
90
0
176
1
62
18
176
1
90
50
176
1
90
3
176
1
62
5
420
255
176
1
290
0
176
1
90
50
176
1
90
50
176
1
90
50
176
1
290
0
176
1
90
50
176
1
62
256
176
0
40
1.0
176
0
90
2
176
1
1
strokes_ogs.tif
176
1
290
0
176
1
40
1.0
176
1
40
1.0
176
1
1001
ACAD
1000
AcDbSavedByObjectVersion
1070
0
0
VISUALSTYLE
5
247
102
{ACAD_REACTORS
330
23A
102
}
330
23A
100
AcDbVisualStyle
2
Thicken
70
13
177
3
291
1
70
58
90
2
176
1
90
2
176
1
90
0
176
1
90
0
176
1
40
0.6
176
1
40
30.0
176
1
62
7
420
16777215
176
1
90
1
176
1
90
4
176
1
62
7
176
1
62
257
176
1
90
1
176
1
90
1
176
1
40
1.0
176
1
90
12
176
1
62
7
176
1
40
1.0
176
1
90
1
176
1
90
6
176
1
90
2
176
1
62
7
176
1
90
5
176
1
90
0
176
1
90
0
176
1
290
0
176
1
90
1
176
1
40
0.0
176
1
90
0
176
1
290
0
176
1
290
1
176
1
290
1
176
1
290
0
176
1
290
0
176
1
290
0
176
1
290
0
176
1
290
0
176
1
290
0
176
1
90
50
176
1
40
0.0
176
1
40
1.0
176
1
90
0
176
1
62
18
176
1
90
50
176
1
90
3
176
1
62
5
420
255
176
1
290
0
176
1
90
50
176
1
90
50
176
1
90
50
176
1
290
0
176
1
90
50
176
1
62
256
176
0
40
1.0
176
0
90
2
176
1
1
strokes_ogs.tif
176
1
290
0
176
1
40
1.0
176
1
40
1.0
176
1
1001
ACAD
1000
AcDbSavedByObjectVersion
1070
0
0
VISUALSTYLE
5
241
102
{ACAD_REACTORS
330
23A
102
}
330
23A
100
AcDbVisualStyle
2
Wireframe
70
5
177
3
291
0
70
58
90
0
176
1
90
2
176
1
90
0
176
1
90
0
176
1
40
0.6
176
1
40
30.0
176
1
62
7
420
16777215
176
1
90
1
176
1
90
4
176
1
62
7
176
1
62
257
176
1
90
1
176
1
90
1
176
1
40
1.0
176
1
90
0
176
1
62
257
176
1
40
1.0
176
1
90
1
176
1
90
6
176
1
90
2
176
1
62
7
176
1
90
3
176
1
90
0
176
1
90
0
176
1
290
0
176
1
90
1
176
1
40
0.0
176
1
90
0
176
1
290
0
176
1
290
1
176
1
290
1
176
1
290
0
176
1
290
0
176
1
290
0
176
1
290
0
176
1
290
0
176
1
290
0
176
1
90
50
176
1
40
0.0
176
1
40
1.0
176
1
90
0
176
1
62
18
176
1
90
50
176
1
90
3
176
1
62
5
420
255
176
1
290
0
176
1
90
50
176
1
90
50
176
1
90
50
176
1
290
0
176
1
90
50
176
1
62
256
176
0
40
1.0
176
0
90
2
176
1
1
strokes_ogs.tif
176
1
290
0
176
1
40
1.0
176
1
40
1.0
176
1
1001
ACAD
1000
AcDbSavedByObjectVersion
1070
0
0
VISUALSTYLE
5
24D
102
{ACAD_REACTORS
330
23A
102
}
330
23A
100
AcDbVisualStyle
2
X-Ray
70
25
177
3
291
0
70
58
90
2
176
1
90
2
176
1
90
1
176
1
90
1
176
1
40
0.5
176
1
40
30.0
176
1
62
7
420
16777215
176
1
90
1
176
1
90
0
176
1
62
7
176
1
62
257
176
1
90
1
176
1
90
1
176
1
40
1.0
176
1
90
8
176
1
62
7
176
1
40
1.0
176
1
90
1
176
1
90
6
176
1
90
2
176
1
62
7
176
1
90
3
176
1
90
0
176
1
90
0
176
1
290
0
176
1
90
13
176
1
40
0.0
176
1
90
0
176
1
290
0
176
1
290
1
176
1
290
1
176
1
290
0
176
1
290
0
176
1
290
0
176
1
290
0
176
1
290
0
176
1
290
0
176
1
90
50
176
1
40
0.0
176
1
40
1.0
176
1
90
0
176
1
62
18
176
1
90
50
176
1
90
3
176
1
62
5
420
255
176
1
290
0
176
1
90
50
176
1
90
50
176
1
90
50
176
1
290
0
176
1
90
50
176
1
62
256
176
0
40
1.0
176
0
90
2
176
1
1
strokes_ogs.tif
176
1
290
0
176
1
40
1.0
176
1
40
1.0
176
1
1001
ACAD
1000
AcDbSavedByObjectVersion
1070
0
0
DICTIONARYVAR
5
2A3
102
{ACAD_REACTORS
330
29D
102
}
330
29D
100
DictionaryVariables
280
0
1
1:1
0
DICTIONARYVAR
5
29F
102
{ACAD_REACTORS
330
29D
102
}
330
29D
100
DictionaryVariables
280
0
1
STANDARD
0
DICTIONARYVAR
5
29E
102
{ACAD_REACTORS
330
29D
102
}
330
29D
100
DictionaryVariables
280
0
1
STANDARD
0
DICTIONARYVAR
5
2A0
102
{ACAD_REACTORS
330
29D
102
}
330
29D
100
DictionaryVariables
280
0
1
Imperial24
0
DICTIONARYVAR
5
2A1
102
{ACAD_REACTORS
330
29D
102
}
330
29D
100
DictionaryVariables
280
0
1
Imperial24
0
DICTIONARYVAR
5
2A5
102
{ACAD_REACTORS
330
29D
102
}
330
29D
100
DictionaryVariables
280
0
1
1
0
DICTIONARYVAR
5
2A6
102
{ACAD_REACTORS
330
29D
102
}
330
29D
100
DictionaryVariables
280
0
1
15
0
DICTIONARYVAR
5
2A4
102
{ACAD_REACTORS
330
29D
102
}
330
29D
100
DictionaryVariables
280
0
1
0
0
DICTIONARYVAR
5
2A2
102
{ACAD_REACTORS
330
29D
102
}
330
29D
100
DictionaryVariables
280
0
1
0
0
DICTIONARY
5
22B
330
22A
100
AcDbDictionary
280
1
281
1
3
BUMPTILE
360
22D
3
DIFFUSETILE
360
22C
3
OPACITYTILE
360
230
3
REFLECTIONTILE
360
22F
3
REFRACTIONTILE
360
231
3
SPECULARTILE
360
22E
0
DICTIONARY
5
223
330
222
100
AcDbDictionary
280
1
281
1
3
BUMPTILE
360
225
3
DIFFUSETILE
360
224
3
OPACITYTILE
360
228
3
REFLECTIONTILE
360
227
3
REFRACTIONTILE
360
229
3
SPECULARTILE
360
226
0
DICTIONARY
5
233
330
232
100
AcDbDictionary
280
1
281
1
3
BUMPTILE
360
235
3
DIFFUSETILE
360
234
3
OPACITYTILE
360
238
3
REFLECTIONTILE
360
237
3
REFRACTIONTILE
360
239
3
SPECULARTILE
360
236
0
DICTIONARY
5
2A7
330
275
100
AcDbDictionary
280
1
281
1
3
ACAD_ROUNDTRIP_2008_TABLESTYLE_CELLSTYLEMAP
360
1056
0
XRECORD
5
22D
102
{ACAD_REACTORS
330
22B
102
}
330
22B
100
AcDbXrecord
280
1
270
1
271
1
0
XRECORD
5
22C
102
{ACAD_REACTORS
330
22B
102
}
330
22B
100
AcDbXrecord
280
1
270
1
271
1
0
XRECORD
5
230
102
{ACAD_REACTORS
330
22B
102
}
330
22B
100
AcDbXrecord
280
1
270
1
271
1
0
XRECORD
5
22F
102
{ACAD_REACTORS
330
22B
102
}
330
22B
100
AcDbXrecord
280
1
270
1
271
1
0
XRECORD
5
231
102
{ACAD_REACTORS
330
22B
102
}
330
22B
100
AcDbXrecord
280
1
270
1
271
1
0
XRECORD
5
22E
102
{ACAD_REACTORS
330
22B
102
}
330
22B
100
AcDbXrecord
280
1
270
1
271
1
0
XRECORD
5
225
102
{ACAD_REACTORS
330
223
102
}
330
223
100
AcDbXrecord
280
1
270
1
271
1
0
XRECORD
5
224
102
{ACAD_REACTORS
330
223
102
}
330
223
100
AcDbXrecord
280
1
270
1
271
1
0
XRECORD
5
228
102
{ACAD_REACTORS
330
223
102
}
330
223
100
AcDbXrecord
280
1
270
1
271
1
0
XRECORD
5
227
102
{ACAD_REACTORS
330
223
102
}
330
223
100
AcDbXrecord
280
1
270
1
271
1
0
XRECORD
5
229
102
{ACAD_REACTORS
330
223
102
}
330
223
100
AcDbXrecord
280
1
270
1
271
1
0
XRECORD
5
226
102
{ACAD_REACTORS
330
223
102
}
330
223
100
AcDbXrecord
280
1
270
1
271
1
0
XRECORD
5
235
102
{ACAD_REACTORS
330
233
102
}
330
233
100
AcDbXrecord
280
1
270
1
271
1
0
XRECORD
5
234
102
{ACAD_REACTORS
330
233
102
}
330
233
100
AcDbXrecord
280
1
270
1
271
1
0
XRECORD
5
238
102
{ACAD_REACTORS
330
233
102
}
330
233
100
AcDbXrecord
280
1
270
1
271
1
0
XRECORD
5
237
102
{ACAD_REACTORS
330
233
102
}
330
233
100
AcDbXrecord
280
1
270
1
271
1
0
XRECORD
5
239
102
{ACAD_REACTORS
330
233
102
}
330
233
100
AcDbXrecord
280
1
270
1
271
1
0
XRECORD
5
236
102
{ACAD_REACTORS
330
233
102
}
330
233
100
AcDbXrecord
280
1
270
1
271
1
0
CELLSTYLEMAP
5
1056
102
{ACAD_REACTORS
330
2A7
102
}
330
2A7
100
AcDbCellStyleMap
90
3
300
CELLSTYLE
1
TABLEFORMAT_BEGIN
90
5
170
1
91
0
92
32768
62
257
93
1
300
CONTENTFORMAT
1
CONTENTFORMAT_BEGIN
90
0
91
0
92
512
93
0
300

40
0.0
140
1.0
94
5
62
0
340
266
144
0.25
309
CONTENTFORMAT_END
171
1
301
MARGIN
1
CELLMARGIN_BEGIN
40
0.06
40
0.06
40
0.06
40
0.06
40
0.18
40
0.18
309
CELLMARGIN_END
94
6
95
1
302
GRIDFORMAT
1
GRIDFORMAT_BEGIN
90
0
91
1
62
0
92
-2
340
0
93
0
40
0.045
309
GRIDFORMAT_END
95
2
302
GRIDFORMAT
1
GRIDFORMAT_BEGIN
90
0
91
1
62
0
92
-2
340
0
93
0
40
0.045
309
GRIDFORMAT_END
95
4
302
GRIDFORMAT
1
GRIDFORMAT_BEGIN
90
0
91
1
62
0
92
-2
340
0
93
0
40
0.045
309
GRIDFORMAT_END
95
8
302
GRIDFORMAT
1
GRIDFORMAT_BEGIN
90
0
91
1
62
0
92
-2
340
0
93
0
40
0.045
309
GRIDFORMAT_END
95
16
302
GRIDFORMAT
1
GRIDFORMAT_BEGIN
90
0
91
1
62
0
92
-2
340
0
93
0
40
0.045
309
GRIDFORMAT_END
95
32
302
GRIDFORMAT
1
GRIDFORMAT_BEGIN
90
0
91
1
62
0
92
-2
340
0
93
0
40
0.045
309
GRIDFORMAT_END
309
TABLEFORMAT_END
1
CELLSTYLE_BEGIN
90
1
91
1
300
_TITLE
309
CELLSTYLE_END
300
CELLSTYLE
1
TABLEFORMAT_BEGIN
90
5
170
1
91
0
92
0
62
257
93
1
300
CONTENTFORMAT
1
CONTENTFORMAT_BEGIN
90
0
91
0
92
512
93
0
300

40
0.0
140
1.0
94
5
62
0
340
266
144
0.18
309
CONTENTFORMAT_END
171
1
301
MARGIN
1
CELLMARGIN_BEGIN
40
0.06
40
0.06
40
0.06
40
0.06
40
0.18
40
0.18
309
CELLMARGIN_END
94
6
95
1
302
GRIDFORMAT
1
GRIDFORMAT_BEGIN
90
0
91
1
62
0
92
-2
340
0
93
0
40
0.045
309
GRIDFORMAT_END
95
2
302
GRIDFORMAT
1
GRIDFORMAT_BEGIN
90
0
91
1
62
0
92
-2
340
0
93
0
40
0.045
309
GRIDFORMAT_END
95
4
302
GRIDFORMAT
1
GRIDFORMAT_BEGIN
90
0
91
1
62
0
92
-2
340
0
93
0
40
0.045
309
GRIDFORMAT_END
95
8
302
GRIDFORMAT
1
GRIDFORMAT_BEGIN
90
0
91
1
62
0
92
-2
340
0
93
0
40
0.045
309
GRIDFORMAT_END
95
16
302
GRIDFORMAT
1
GRIDFORMAT_BEGIN
90
0
91
1
62
0
92
-2
340
0
93
0
40
0.045
309
GRIDFORMAT_END
95
32
302
GRIDFORMAT
1
GRIDFORMAT_BEGIN
90
0
91
1
62
0
92
-2
340
0
93
0
40
0.045
309
GRIDFORMAT_END
309
TABLEFORMAT_END
1
CELLSTYLE_BEGIN
90
2
91
1
300
_HEADER
309
CELLSTYLE_END
300
CELLSTYLE
1
TABLEFORMAT_BEGIN
90
5
170
1
91
0
92
0
62
257
93
1
300
CONTENTFORMAT
1
CONTENTFORMAT_BEGIN
90
0
91
0
92
512
93
0
300

40
0.0
140
1.0
94
2
62
0
340
266
144
0.18
309
CONTENTFORMAT_END
171
1
301
MARGIN
1
CELLMARGIN_BEGIN
40
0.06
40
0.06
40
0.06
40
0.06
40
0.18
40
0.18
309
CELLMARGIN_END
94
6
95
1
302
GRIDFORMAT
1
GRIDFORMAT_BEGIN
90
0
91
1
62
0
92
-2
340
0
93
0
40
0.045
309
GRIDFORMAT_END
95
2
302
GRIDFORMAT
1
GRIDFORMAT_BEGIN
90
0
91
1
62
0
92
-2
340
0
93
0
40
0.045
309
GRIDFORMAT_END
95
4
302
GRIDFORMAT
1
GRIDFORMAT_BEGIN
90
0
91
1
62
0
92
-2
340
0
93
0
40
0.045
309
GRIDFORMAT_END
95
8
302
GRIDFORMAT
1
GRIDFORMAT_BEGIN
90
0
91
1
62
0
92
-2
340
0
93
0
40
0.045
309
GRIDFORMAT_END
95
16
302
GRIDFORMAT
1
GRIDFORMAT_BEGIN
90
0
91
1
62
0
92
-2
340
0
93
0
40
0.045
309
GRIDFORMAT_END
95
32
302
GRIDFORMAT
1
GRIDFORMAT_BEGIN
90
0
91
1
62
0
92
-2
340
0
93
0
40
0.045
309
GRIDFORMAT_END
309
TABLEFORMAT_END
1
CELLSTYLE_BEGIN
90
3
91
2
300
_DATA
309
CELLSTYLE_END
0
ENDSEC
0
SECTION
2
ACDSDATA
70
2
71
2
0
ACDSSCHEMA
90
0
1
AcDb_Thumbnail_Schema
2
AcDbDs::ID
280
10
91
8
2
Thumbnail_Data
280
15
91
0
101
ACDSRECORD
95
0
90
1
2
AcDbDs::TreatedAsObjectData
280
1
291
1
101
ACDSRECORD
95
0
90
2
2
AcDbDs::Legacy
280
1
291
1
101
ACDSRECORD
1
AcDbDs::ID
90
3
2
AcDs:Indexable
280
1
291
1
101
ACDSRECORD
1
AcDbDs::ID
90
4
2
AcDbDs::HandleAttribute
280
7
282
1
0
ACDSSCHEMA
90
1
1
AcDbDs::TreatedAsObjectDataSchema
2
AcDbDs::TreatedAsObjectData
280
1
91
0
0
ACDSSCHEMA
90
2
1
AcDbDs::LegacySchema
2
AcDbDs::Legacy
280
1
91
0
0
ACDSSCHEMA
90
3
1
AcDbDs::IndexedPropertySchema
2
AcDs:Indexable
280
1
91
0
0
ACDSSCHEMA
90
4
1
AcDbDs::HandleAttributeSchema
2
AcDbDs::HandleAttribute
280
7
91
1
284
1
0
ACDSRECORD
90
0
2
AcDbDs::ID
280
10
320
284
2
Thumbnail_Data
280
15
94
1130
310
89504E470D0A1A0A0000000D4948445200000100000000BB0803000000BDD6B05600000300504C54452128300000000000000000000000000000000000000000000000000000000000000000330000660000990000CC0000FF0033000033330033660033990033CC0033FF0066000066330066660066990066CC0066FF0099
310
000099330099660099990099CC0099FF00CC0000CC3300CC6600CC9900CCCC00CCFF00FF0000FF3300FF6600FF9900FFCC00FFFF3300003300333300663300993300CC3300FF3333003333333333663333993333CC3333FF3366003366333366663366993366CC3366FF3399003399333399663399993399CC3399FF33CC00
310
33CC3333CC6633CC9933CCCC33CCFF33FF0033FF3333FF6633FF9933FFCC33FFFF6600006600336600666600996600CC6600FF6633006633336633666633996633CC6633FF6666006666336666666666996666CC6666FF6699006699336699666699996699CC6699FF66CC0066CC3366CC6666CC9966CCCC66CCFF66FF0066
310
FF3366FF6666FF9966FFCC66FFFF9900009900339900669900999900CC9900FF9933009933339933669933999933CC9933FF9966009966339966669966999966CC9966FF9999009999339999669999999999CC9999FF99CC0099CC3399CC6699CC9999CCCC99CCFF99FF0099FF3399FF6699FF9999FFCC99FFFFCC0000CC00
310
33CC0066CC0099CC00CCCC00FFCC3300CC3333CC3366CC3399CC33CCCC33FFCC6600CC6633CC6666CC6699CC66CCCC66FFCC9900CC9933CC9966CC9999CC99CCCC99FFCCCC00CCCC33CCCC66CCCC99CCCCCCCCCCFFCCFF00CCFF33CCFF66CCFF99CCFFCCCCFFFFFF0000FF0033FF0066FF0099FF00CCFF00FFFF3300FF3333
310
FF3366FF3399FF33CCFF33FFFF6600FF6633FF6666FF6699FF66CCFF66FFFF9900FF9933FF9966FF9999FF99CCFF99FFFFCC00FFCC33FFCC66FFCC99FFCCCCFFCCFFFFFF00FFFF33FFFF66FFFF99FFFFCCFFFFFF0000000D0D0D1A1A1A2828283535354343435050505D5D5D6B6B6B787878868686939393A1A1A1AEAEAEBB
310
BBBBC9C9C9D6D6D6E4E4E4F1F1F1FFFFFF000000000000000000000000000000000000000000000000000000000000544354A80000004549444154789CEDC13101000000C2A0F54F6D094FA000000000000000000000000000000000000000000000000000000000000000000000000000000000000000000000E062BBBB00
310
01006808E50000000049454E44AE4260824BBACA0DB465ABDB4063B2B20534072BDA4047AC9A0DF4A42AD9407A015D99E20BA8D8407A019D89143066171752C0D0E513E84D54AE01050C5E7F7B0A18BA7C020A18BA7C02F105C4FF0C2920FE4024FE484C01F1C7E2F11723AEC65C8EBA1E372071982F7D48A87EFCC5989C41
310
49A3B22F9BB861E9DF3E73F299D3F25FC9D901000000000000000000000000000000000000000000E0344F3123803F1ED9B2780000000049454E44AE426082FADAD667F149BFC5000000000000000000000000000000000000000070A90F51C3A687E5D1137C0000000049454E44AE426082
0
ENDSEC
0
EOF
