0
SECTION
2
HEADER
9
$ACADVER
1
AC1027
9
$ACADMAINTVER
70
8
9
$DWGCODEPAGE
3
ANSI_1252
9
$LASTSAVEDBY
1
macc
9
$REQUIREDVERSIONS
160
0
9
$INSBASE
10
0.0
20
0.0
30
0.0
9
$EXTMIN
10
1.000000000000000E+20
20
1.000000000000000E+20
30
1.000000000000000E+20
9
$EXTMAX
10
-1.000000000000000E+20
20
-1.000000000000000E+20
30
-1.000000000000000E+20
9
$LIMMIN
10
0.0
20
0.0
9
$LIMMAX
10
12.0
20
9.0
9
$ORTHOMODE
70
0
9
$REGENMODE
70
1
9
$FILLMODE
70
1
9
$QTEXTMODE
70
0
9
$MIRRTEXT
70
0
9
$LTSCALE
40
1.0
9
$ATTMODE
70
1
9
$TEXTSIZE
40
0.2
9
$TRACEWID
40
0.05
9
$TEXTSTYLE
7
STANDARD
9
$CLAYER
8
0
9
$CELTYPE
6
ByLayer
9
$CECOLOR
62
256
9
$CELTSCALE
40
1.0
9
$DISPSILH
70
0
9
$DIMSCALE
40
1.0
9
$DIMASZ
40
0.18
9
$DIMEXO
40
0.0625
9
$DIMDLI
40
0.38
9
$DIMRND
40
0.0
9
$DIMDLE
40
0.0
9
$DIMEXE
40
0.18
9
$DIMTP
40
0.0
9
$DIMTM
40
0.0
9
$DIMTXT
40
0.18
9
$DIMCEN
40
0.09
9
$DIMTSZ
40
0.0
9
$DIMTOL
70
0
9
$DIMLIM
70
0
9
$DIMTIH
70
1
9
$DIMTOH
70
1
9
$DIMSE1
70
0
9
$DIMSE2
70
0
9
$DIMTAD
70
0
9
$DIMZIN
70
0
9
$DIMBLK
1

9
$DIMASO
70
1
9
$DIMSHO
70
1
9
$DIMPOST
1

9
$DIMAPOST
1

9
$DIMALT
70
0
9
$DIMALTD
70
2
9
$DIMALTF
40
25.4
9
$DIMLFAC
40
1.0
9
$DIMTOFL
70
0
9
$DIMTVP
40
0.0
9
$DIMTIX
70
0
9
$DIMSOXD
70
0
9
$DIMSAH
70
0
9
$DIMBLK1
1

9
$DIMBLK2
1

9
$DIMSTYLE
2
STANDARD
9
$DIMCLRD
70
0
9
$DIMCLRE
70
0
9
$DIMCLRT
70
0
9
$DIMTFAC
40
1.0
9
$DIMGAP
40
0.09
9
$DIMJUST
70
0
9
$DIMSD1
70
0
9
$DIMSD2
70
0
9
$DIMTOLJ
70
1
9
$DIMTZIN
70
0
9
$DIMALTZ
70
0
9
$DIMALTTZ
70
0
9
$DIMUPT
70
0
9
$DIMDEC
70
4
9
$DIMTDEC
70
4
9
$DIMALTU
70
2
9
$DIMALTTD
70
2
9
$DIMTXSTY
7
STANDARD
9
$DIMAUNIT
70
0
9
$DIMADEC
70
0
9
$DIMALTRND
40
0.0
9
$DIMAZIN
70
0
9
$DIMDSEP
70
46
9
$DIMATFIT
70
3
9
$DIMFRAC
70
0
9
$DIMLDRBLK
1

9
$DIMLUNIT
70
2
9
$DIMLWD
70
-2
9
$DIMLWE
70
-2
9
$DIMTMOVE
70
0
9
$DIMFXL
40
1.0
9
$DIMFXLON
70
0
9
$DIMJOGANG
40
0.7853981633974483
9
$DIMTFILL
70
0
9
$DIMTFILLCLR
70
0
9
$DIMARCSYM
70
0
9
$DIMLTYPE
6

9
$DIMLTEX1
6

9
$DIMLTEX2
6

9
$DIMTXTDIRECTION
70
0
9
$LUNITS
70
2
9
$LUPREC
70
4
9
$SKETCHINC
40
0.1
9
$FILLETRAD
40
0.0
9
$AUNITS
70
0
9
$AUPREC
70
0
9
$MENU
1
.
9
$ELEVATION
40
0.0
9
$PELEVATION
40
0.0
9
$THICKNESS
40
0.0
9
$LIMCHECK
70
0
9
$CHAMFERA
40
0.0
9
$CHAMFERB
40
0.0
9
$CHAMFERC
40
0.0
9
$CHAMFERD
40
0.0
9
$SKPOLY
70
0
9
$TDCREATE
40
2458312.067262384
9
$TDUCREATE
40
2458311.983929051
9
$TDUPDATE
40
2458312.961305069
9
$TDUUPDATE
40
2458312.877971736
9
$TDINDWG
40
0.0045230903
9
$TDUSRTIMER
40
0.0045219676
9
$USRTIMER
70
1
9
$ANGBASE
50
0.0
9
$ANGDIR
70
0
9
$PDMODE
70
0
9
$PDSIZE
40
0.0
9
$PLINEWID
40
0.0
9
$SPLFRAME
70
0
9
$SPLINETYPE
70
6
9
$SPLINESEGS
70
8
9
$HANDSEED
5
1058
9
$SURFTAB1
70
6
9
$SURFTAB2
70
6
9
$SURFTYPE
70
6
9
$SURFU
70
6
9
$SURFV
70
6
9
$UCSBASE
2

9
$UCSNAME
2

9
$UCSORG
10
0.0
20
0.0
30
0.0
9
$UCSXDIR
10
1.0
20
0.0
30
0.0
9
$UCSYDIR
10
0.0
20
1.0
30
0.0
9
$UCSORTHOREF
2

9
$UCSORTHOVIEW
70
0
9
$UCSORGTOP
10
0.0
20
0.0
30
0.0
9
$UCSORGBOTTOM
10
0.0
20
0.0
30
0.0
9
$UCSORGLEFT
10
0.0
20
0.0
30
0.0
9
$UCSORGRIGHT
10
0.0
20
0.0
30
0.0
9
$UCSORGFRONT
10
0.0
20
0.0
30
0.0
9
$UCSORGBACK
10
0.0
20
0.0
30
0.0
9
$PUCSBASE
2

9
$PUCSNAME
2

9
$PUCSORG
10
0.0
20
0.0
30
0.0
9
$PUCSXDIR
10
1.0
20
0.0
30
0.0
9
$PUCSYDIR
10
0.0
20
1.0
30
0.0
9
$PUCSORTHOREF
2

9
$PUCSORTHOVIEW
70
0
9
$PUCSORGTOP
10
0.0
20
0.0
30
0.0
9
$PUCSORGBOTTOM
10
0.0
20
0.0
30
0.0
9
$PUCSORGLEFT
10
0.0
20
0.0
30
0.0
9
$PUCSORGRIGHT
10
0.0
20
0.0
30
0.0
9
$PUCSORGFRONT
10
0.0
20
0.0
30
0.0
9
$PUCSORGBACK
10
0.0
20
0.0
30
0.0
9
$USERI1
70
0
9
$USERI2
70
0
9
$USERI3
70
0
9
$USERI4
70
0
9
$USERI5
70
0
9
$USERR1
40
0.0
9
$USERR2
40
0.0
9
$USERR3
40
0.0
9
$USERR4
40
0.0
9
$USERR5
40
0.0
9
$WORLDVIEW
70
1
9
$SHADEDGE
70
3
9
$SHADEDIF
70
70
9
$TILEMODE
70
1
9
$MAXACTVP
70
64
9
$PINSBASE
10
0.0
20
0.0
30
0.0
9
$PLIMCHECK
70
0
9
$PEXTMIN
10
0.0
20
0.0
30
0.0
9
$PEXTMAX
10
0.0
20
0.0
30
0.0
9
$PLIMMIN
10
0.0
20
0.0
9
$PLIMMAX
10
12.0
20
9.0
9
$UNITMODE
70
0
9
$VISRETAIN
70
1
9
$PLINEGEN
70
0
9
$PSLTSCALE
70
1
9
$TREEDEPTH
70
3020
9
$CMLSTYLE
2
Standard
9
$CMLJUST
70
0
9
$CMLSCALE
40
1.0
9
$PROXYGRAPHICS
70
1
9
$MEASUREMENT
70
0
9
$CELWEIGHT
370
-1
9
$ENDCAPS
280
0
9
$JOINSTYLE
280
0
9
$LWDISPLAY
290
0
9
$INSUNITS
70
0
9
$HYPERLINKBASE
1

9
$STYLESHEET
1

9
$XEDIT
290
1
9
$CEPSNTYPE
380
0
9
$PSTYLEMODE
290
1
9
$FINGERPRINTGUID
2
{4B4ED3CC-337F-6143-9B17-EFB0F3F01845}
9
$VERSIONGUID
2
{A4861B96-12DA-254C-ACF2-0C3CF0F63D02}
9
$EXTNAMES
290
1
9
$PSVPSCALE
40
0.0
9
$OLESTARTUP
290
0
9
$SORTENTS
280
127
9
$INDEXCTL
280
0
9
$HIDETEXT
280
0
9
$XCLIPFRAME
280
2
9
$HALOGAP
280
0
9
$OBSCOLOR
70
257
9
$OBSLTYPE
280
0
9
$INTERSECTIONDISPLAY
280
0
9
$INTERSECTIONCOLOR
70
257
9
$DIMASSOC
280
1
9
$PROJECTNAME
1

9
$CAMERADISPLAY
290
0
9
$LENSLENGTH
40
50.0
9
$CAMERAHEIGHT
40
0.0
9
$STEPSPERSEC
40
2.0
9
$STEPSIZE
40
6.0
9
$3DDWFPREC
40
2.0
9
$PSOLWIDTH
40
0.25
9
$PSOLHEIGHT
40
4.0
9
$LOFTANG1
40
1.570796326794896
9
$LOFTANG2
40
1.570796326794896
9
$LOFTMAG1
40
0.0
9
$LOFTMAG2
40
0.0
9
$LOFTPARAM
70
7
9
$LOFTNORMALS
280
1
9
$LATITUDE
40
37.795
9
$LONGITUDE
40
-122.394
9
$NORTHDIRECTION
40
0.0
9
$TIMEZONE
70
-8000
9
$LIGHTGLYPHDISPLAY
280
1
9
$TILEMODELIGHTSYNCH
280
1
9
$CMATERIAL
347
222
9
$SOLIDHIST
280
0
9
$SHOWHIST
280
1
9
$DWFFRAME
280
2
9
$DGNFRAME
280
0
9
$REALWORLDSCALE
290
1
9
$INTERFERECOLOR
62
1
9
$INTERFEREOBJVS
345
244
9
$INTERFEREVPVS
346
241
9
$CSHADOW
280
0
9
$SHADOWPLANELOCATION
40
0.0
0
ENDSEC
0
SECTION
2
CLASSES
0
CLASS
1
ACDBDICTIONARYWDFLT
2
AcDbDictionaryWithDefault
3
ObjectDBX Classes
90
0
91
1
280
0
281
0
0
CLASS
1
MATERIAL
2
AcDbMaterial
3
ObjectDBX Classes
90
1153
91
3
280
0
281
0
0
CLASS
1
VISUALSTYLE
2
AcDbVisualStyle
3
ObjectDBX Classes
90
4095
91
24
280
0
281
0
0
CLASS
1
SCALE
2
AcDbScale
3
ObjectDBX Classes
90
1153
91
17
280
0
281
0
0
CLASS
1
TABLESTYLE
2
AcDbTableStyle
3
ObjectDBX Classes
90
4095
91
1
280
0
281
0
0
CLASS
1
MLEADERSTYLE
2
AcDbMLeaderStyle
3
ACDB_MLEADERSTYLE_CLASS
90
4095
91
1
280
0
281
0
0
CLASS
1
ACDBSECTIONVIEWSTYLE
2
AcDbSectionViewStyle
3
ObjectDBX Classes
90
1025
91
1
280
0
281
0
0
CLASS
1
ACDBDETAILVIEWSTYLE
2
AcDbDetailViewStyle
3
ObjectDBX Classes
90
1025
91
1
280
0
281
0
0
CLASS
1
DICTIONARYVAR
2
AcDbDictionaryVar
3
ObjectDBX Classes
90
0
91
9
280
0
281
0
0
CLASS
1
CELLSTYLEMAP
2
AcDbCellStyleMap
3
ObjectDBX Classes
90
1152
91
2
280
0
281
0
0
ENDSEC
0
SECTION
2
TABLES
0
TABLE
2
VPORT
5
219
330
0
100
AcDbSymbolTable
70
1
0
VPORT
5
285
330
219
100
AcDbSymbolTableRecord
100
AcDbViewportTableRecord
2
*ACTIVE
70
0
10
0.0
20
0.0
11
1.0
21
1.0
12
60.85393284500712
22
1.602311788490737
13
0.0
23
0.0
14
0.5
24
0.5
15
0.5
25
0.5
16
0.0
26
0.0
36
1.0
17
0.0
27
0.0
37
0.0
40
135.7601553851812
41
1.367970660146699
42
50.0
43
0.0
44
0.0
50
0.0
51
0.0
71
0
72
1000
73
1
74
3
75
0
76
1
77
0
78
0
281
0
65
1
110
0.0
120
0.0
130
0.0
111
1.0
121
0.0
131
0.0
112
0.0
122
1.0
132
0.0
79
0
146
0.0
348
240
60
3
61
5
292
1
282
0
141
0.0
142
0.0
63
250
421
3355443
1001
ACAD_NAV_VCDISPLAY
1070
3
0
ENDTAB
0
TABLE
2
LTYPE
5
216
330
0
100
AcDbSymbolTable
70
2
0
LTYPE
5
26B
330
216
100
AcDbSymbolTableRecord
100
AcDbLinetypeTableRecord
2
ByBlock
70
0
3

72
65
73
0
40
0.0
0
LTYPE
5
26C
330
216
100
AcDbSymbolTableRecord
100
AcDbLinetypeTableRecord
2
ByLayer
70
0
3

72
65
73
0
40
0.0
0
LTYPE
5
26D
330
216
100
AcDbSymbolTableRecord
100
AcDbLinetypeTableRecord
2
CONTINUOUS
70
0
3
Solid line
72
65
73
0
40
0.0
0
LTYPE
5
103D
330
216
100
AcDbSymbolTableRecord
100
AcDbLinetypeTableRecord
2
DOTTED
70
0
3
Dotted . . . . . . . . . . . . . . . . . . . .
72
65
73
2
40
3.0
49
0.0
74
0
49
-3.0
74
0
0
ENDTAB
0
TABLE
2
LAYER
5
213
102
{ACAD_XDICTIONARY
360
297
102
}
330
0
100
AcDbSymbolTable
70
4
0
LAYER
5
265
102
{ACAD_XDICTIONARY
360
292
102
}
330
213
100
AcDbSymbolTableRecord
100
AcDbLayerTableRecord
2
0
70
0
62
7
6
CONTINUOUS
370
-3
390
220
347
232
348
0
0
LAYER
5
2FB
330
213
100
AcDbSymbolTableRecord
100
AcDbLayerTableRecord
2
gear
70
0
62
7
6
CONTINUOUS
370
-3
390
220
347
232
348
0
1001
AcAecLayerStandard
1000

1000

1001
AcCmTransparency
1071
0
0
LAYER
5
2FE
330
213
100
AcDbSymbolTableRecord
100
AcDbLayerTableRecord
2
gear_texts
70
0
62
7
6
CONTINUOUS
370
-3
390
220
347
232
348
0
1001
AcAecLayerStandard
1000

1000

1001
AcCmTransparency
1071
0
0
LAYER
5
2FF
330
213
100
AcDbSymbolTableRecord
100
AcDbLayerTableRecord
2
gear_guides
70
0
62
5
6
CONTINUOUS
370
-3
390
220
347
232
348
0
1001
AcAecLayerStandard
1000

1000

1001
AcCmTransparency
1071
0
0
ENDTAB
0
TABLE
2
STYLE
5
214
330
0
100
AcDbSymbolTable
70
3
0
STYLE
5
266
330
214
100
AcDbSymbolTableRecord
100
AcDbTextStyleTableRecord
2
STANDARD
70
0
40
0.0
41
1.0
50
0.0
71
0
42
0.2
3
txt
4

0
STYLE
5
26A
330
214
100
AcDbSymbolTableRecord
100
AcDbTextStyleTableRecord
2
ANNOTATIVE
70
0
40
0.0
41
1.0
50
0.0
71
0
42
0.2
3
txt
4

1001
ACADANNOTATIVE
1000
AnnotativeData
1002
{
1070
1
1070
1
1002
}
0
STYLE
5
301
330
214
100
AcDbSymbolTableRecord
100
AcDbTextStyleTableRecord
2

70
1
40
0.0
41
1.0
50
0.0
71
0
42
0.2
3
ltypeshp.shx
4

0
ENDTAB
0
TABLE
2
VIEW
5
217
330
0
100
AcDbSymbolTable
70
1
0
ENDTAB
0
TABLE
2
UCS
5
218
330
0
100
AcDbSymbolTable
70
0
0
ENDTAB
0
TABLE
2
APPID
5
21A
330
0
100
AcDbSymbolTable
70
10
0
APPID
5
267
330
21A
100
AcDbSymbolTableRecord
100
AcDbRegAppTableRecord
2
ACAD
70
0
0
APPID
5
26E
330
21A
100
AcDbSymbolTableRecord
100
AcDbRegAppTableRecord
2
ACADANNOTATIVE
70
0
0
APPID
5
286
330
21A
100
AcDbSymbolTableRecord
100
AcDbRegAppTableRecord
2
ACADANNOPO
70
0
0
APPID
5
287
330
21A
100
AcDbSymbolTableRecord
100
AcDbRegAppTableRecord
2
ACAD_DSTYLE_DIMJAG
70
0
0
APPID
5
288
330
21A
100
AcDbSymbolTableRecord
100
AcDbRegAppTableRecord
2
ACAD_DSTYLE_DIMTALN
70
0
0
APPID
5
289
330
21A
100
AcDbSymbolTableRecord
100
AcDbRegAppTableRecord
2
ACAD_MLEADERVER
70
0
0
APPID
5
28A
330
21A
100
AcDbSymbolTableRecord
100
AcDbRegAppTableRecord
2
ACAD_NAV_VCDISPLAY
70
0
0
APPID
5
2E7
330
21A
100
AcDbSymbolTableRecord
100
AcDbRegAppTableRecord
2
ACAD_EXEMPT_FROM_CAD_STANDARDS
70
0
0
APPID
5
2FC
330
21A
100
AcDbSymbolTableRecord
100
AcDbRegAppTableRecord
2
AcAecLayerStandard
70
0
0
APPID
5
2FD
330
21A
100
AcDbSymbolTableRecord
100
AcDbRegAppTableRecord
2
AcCmTransparency
70
0
0
ENDTAB
0
TABLE
2
DIMSTYLE
5
21B
330
0
100
AcDbSymbolTable
70
2
100
AcDbDimStyleTable
71
1
340
268
0
DIMSTYLE
105
268
330
21B
100
AcDbSymbolTableRecord
100
AcDbDimStyleTableRecord
2
STANDARD
70
0
279
2
340
266
0
DIMSTYLE
105
269
330
21B
100
AcDbSymbolTableRecord
100
AcDbDimStyleTableRecord
2
ANNOTATIVE
70
0
40
0.0
279
2
340
266
1001
ACADANNOTATIVE
1000
AnnotativeData
1002
{
1070
1
1070
1
1002
}
0
ENDTAB
0
TABLE
2
BLOCK_RECORD
5
212
330
0
100
AcDbSymbolTable
70
2
0
BLOCK_RECORD
5
281
330
212
100
AcDbSymbolTableRecord
100
AcDbBlockTableRecord
2
*Model_Space
340
284
70
0
280
1
281
0
0
BLOCK_RECORD
5
27D
330
212
100
AcDbSymbolTableRecord
100
AcDbBlockTableRecord
2
*Paper_Space
340
280
70
0
280
1
281
0
0
BLOCK_RECORD
5
28C
330
212
100
AcDbSymbolTableRecord
100
AcDbBlockTableRecord
2
$MODEL_SPACE
340
0
70
0
280
1
281
0
0
BLOCK_RECORD
5
28E
330
212
100
AcDbSymbolTableRecord
100
AcDbBlockTableRecord
2
$PAPER_SPACE
340
0
70
0
280
1
281
0
0
ENDTAB
0
ENDSEC
0
SECTION
2
BLOCKS
0
BLOCK
5
282
330
281
100
AcDbEntity
8
0
100
AcDbBlockBegin
2
*Model_Space
70
0
10
0.0
20
0.0
30
0.0
3
*Model_Space
1

0
ENDBLK
5
283
330
281
100
AcDbEntity
8
0
100
AcDbBlockEnd
0
BLOCK
5
27E
330
27D
100
AcDbEntity
67
1
8
0
100
AcDbBlockBegin
2
*Paper_Space
70
0
10
0.0
20
0.0
30
0.0
3
*Paper_Space
1

0
ENDBLK
5
27F
330
27D
100
AcDbEntity
67
1
8
0
100
AcDbBlockEnd
0
BLOCK
5
28D
330
28C
100
AcDbEntity
8
0
100
AcDbBlockBegin
2
$MODEL_SPACE
70
0
10
0.0
20
0.0
30
0.0
3
$MODEL_SPACE
1

0
ENDBLK
5
21
330
28C
100
AcDbEntity
8
0
100
AcDbBlockEnd
0
BLOCK
5
28F
330
28E
100
AcDbEntity
8
0
100
AcDbBlockBegin
2
$PAPER_SPACE
70
0
10
0.0
20
0.0
30
0.0
3
$PAPER_SPACE
1

0
ENDBLK
5
5B
330
28E
100
AcDbEntity
8
0
100
AcDbBlockEnd
0
ENDSEC
0
SECTION
2
ENTITIES
0
LWPOLYLINE
5
1000
100
AcDbEntity
100
AcDbPolyline
90
2944
70
1
43
0
10
3.7125
20
0
10
3.7127515
20
0.0070536
10
3.7200083
20
0.0084137
10
3.7276762
20
0.0099376
10
3.7357527
20
0.0116344
10
3.7442346
20
0.0135133
10
3.7531191
20
0.0155832
10
3.7624028
20
0.0178532
10
3.7720824
20
0.0203322
10
3.7821544
20
0.023029
10
3.7926152
20
0.0259526
10
3.8034609
20
0.0291117
10
3.8146877
20
0.032515
10
3.8262913
20
0.0361713
10
3.8382677
20
0.040089
10
3.8506124
20
0.0442769
10
3.8633209
20
0.0487434
10
3.8763885
20
0.0534968
10
3.8898105
20
0.0585455
10
3.9035819
20
0.0638979
10
3.9176976
20
0.0695621
10
3.9321525
20
0.0755462
10
3.9469411
20
0.0818584
10
3.9620581
20
0.0885065
10
3.9774977
20
0.0954984
10
3.9932542
20
0.1028421
10
4.0093218
20
0.1105451
10
4.0256944
20
0.1186152
10
4.0423659
20
0.1270599
10
4.0593301
20
0.1358866
10
4.0765804
20
0.1451027
10
4.0941105
20
0.1547155
10
4.1119136
20
0.1647321
10
4.129983
20
0.1751597
10
4.1483118
20
0.1860052
10
4.1668929
20
0.1972754
10
4.1857194
20
0.2089772
10
4.2047838
20
0.2211172
10
4.2240788
20
0.233702
10
4.2338105
20
0.2401632
10
4.238697
20
0.2434363
10
4.2411454
20
0.2450836
10
4.2423708
20
0.2459099
10
4.2426773
20
0.2461167
10
4.2428305
20
0.2462202
10
4.2428603
20
0.2462456
10
4.2321441
20
0.3891735
10
4.232111
20
0.3891942
10
4.231944
20
0.3892736
10
4.2316101
20
0.3894325
10
4.2302751
20
0.3900668
10
4.2276085
20
0.3913305
10
4.2222886
20
0.3938385
10
4.2117023
20
0.3987763
10
4.1907464
20
0.4083432
10
4.1700849
20
0.4175047
10
4.149724
20
0.4262684
10
4.12967
20
0.434642
10
4.109929
20
0.4426332
10
4.0905067
20
0.4502498
10
4.071409
20
0.4574997
10
4.0526416
20
0.4643911
10
4.0342098
20
0.4709319
10
4.0161192
20
0.4771304
10
3.9983748
20
0.4829947
10
3.9809819
20
0.4885332
10
3.9639453
20
0.4937542
10
3.9472699
20
0.4986663
10
3.9309603
20
0.5032778
10
3.9150211
20
0.5075975
10
3.8994565
20
0.5116339
10
3.884271
20
0.5153957
10
3.8694684
20
0.5188917
10
3.8550529
20
0.5221307
10
3.8410281
20
0.5251216
10
3.8273978
20
0.5278734
10
3.8141654
20
0.5303949
10
3.8013342
20
0.5326952
10
3.7889076
20
0.5347833
10
3.7768884
20
0.5366684
10
3.7652797
20
0.5383597
10
3.7540842
20
0.5398662
10
3.7433044
20
0.5411973
10
3.7329429
20
0.5423621
10
3.7230018
20
0.54337
10
3.7134834
20
0.5442302
10
3.7043896
20
0.5449522
10
3.6957223
20
0.5455453
10
3.6874832
20
0.5460189
10
3.6796737
20
0.5463824
10
3.6722952
20
0.5466452
10
3.6709948
20
0.5535824
10
3.6411654
20
0.7242728
10
3.6400359
20
0.7312399
10
3.6468879
20
0.7339896
10
3.6541113
20
0.7369802
10
3.6617015
20
0.7402201
10
3.6696539
20
0.7437176
10
3.6779638
20
0.747481
10
3.6866263
20
0.7515185
10
3.6956363
20
0.7558383
10
3.7049886
20
0.7604482
10
3.7146781
20
0.7653564
10
3.7246991
20
0.7705707
10
3.7350461
20
0.7760989
10
3.7457136
20
0.7819486
10
3.7566955
20
0.7881276
10
3.767986
20
0.7946434
10
3.7795789
20
0.8015033
10
3.7914681
20
0.8087147
10
3.8036472
20
0.816285
10
3.8161098
20
0.8242212
10
3.8288493
20
0.8325304
10
3.841859
20
0.8412195
10
3.855132
20
0.8502955
10
3.8686615
20
0.859765
10
3.8824404
20
0.8696348
10
3.8964615
20
0.8799113
10
3.9107175
20
0.8906009
10
3.9252012
20
0.9017101
10
3.9399049
20
0.9132449
10
3.954821
20
0.9252116
10
3.9699419
20
0.937616
10
3.9852598
20
0.950464
10
4.0007667
20
0.9637614
10
4.0164545
20
0.9775138
10
4.0323153
20
0.9917266
10
4.0483407
20
1.0064053
10
4.0645225
20
1.0215551
10
4.0808522
20
1.0371811
10
4.0973214
20
1.0532884
10
4.1056055
20
1.061524
10
4.1097596
20
1.0656875
10
4.1118395
20
1.0677808
10
4.1128802
20
1.0688303
10
4.1131404
20
1.0690929
10
4.1132706
20
1.0692243
10
4.1132948
20
1.069255
10
4.0749007
20
1.207346
10
4.0748641
20
1.2073598
10
4.0746849
20
1.2074051
10
4.0743264
20
1.2074958
10
4.0728933
20
1.2078575
10
4.0700314
20
1.2085768
10
4.0643245
20
1.2099986
10
4.0529782
20
1.2127763
10
4.0305586
20
1.2180711
10
4.0085067
20
1.2230257
10
3.9868274
20
1.2276488
10
3.9655251
20
1.2319491
10
3.9446044
20
1.2359354
10
3.9240694
20
1.2396166
10
3.9039243
20
1.2430015
10
3.884173
20
1.2460991
10
3.8648193
20
1.2489184
10
3.845867
20
1.2514684
10
3.8273196
20
1.2537583
10
3.8091804
20
1.2557972
10
3.7914526
20
1.2575942
10
3.7741393
20
1.2591587
10
3.7572434
20
1.2604998
10
3.7407677
20
1.2616268
10
3.7247148
20
1.2625492
10
3.7090871
20
1.2632762
10
3.6938869
20
1.2638172
10
3.6791165
20
1.2641816
10
3.6647777
20
1.264379
10
3.6508724
20
1.2644187
10
3.6374023
20
1.2643102
10
3.624369
20
1.2640631
10
3.6117737
20
1.2636868
10
3.5996178
20
1.2631909
10
3.5879022
20
1.2625849
10
3.5766278
20
1.2618783
10
3.5657955
20
1.2610808
10
3.5554058
20
1.2602018
10
3.5454591
20
1.2592509
10
3.5359558
20
1.2582377
10
3.5268959
20
1.2571717
10
3.5182795
20
1.2560625
10
3.5101062
20
1.2549196
10
3.5023759
20
1.2537525
10
3.4950879
20
1.2525708
10
3.4924591
20
1.259121
10
3.4299028
20
1.4207122
10
3.4274358
20
1.4273251
10
3.4336197
20
1.4313587
10
3.4401208
20
1.4357011
10
3.4469331
20
1.4403595
10
3.4540504
20
1.4453412
10
3.4614664
20
1.4506535
10
3.4691748
20
1.4563034
10
3.4771689
20
1.4622979
10
3.4854422
20
1.4686439
10
3.4939879
20
1.4753481
10
3.5027991
20
1.4824172
10
3.5118689
20
1.4898577
10
3.5211901
20
1.4976762
10
3.5307556
20
1.5058789
10
3.5405579
20
1.5144721
10
3.5505898
20
1.5234619
10
3.5608437
20
1.5328542
10
3.5713119
20
1.5426551
10
3.5819867
20
1.5528701
10
3.5928604
20
1.563505
10
3.6039249
20
1.5745652
10
3.6151723
20
1.5860562
10
3.6265944
20
1.5979833
10
3.638183
20
1.6103515
10
3.6499299
20
1.6231659
10
3.6618266
20
1.6364314
10
3.6738646
20
1.6501527
10
3.6860354
20
1.6643345
10
3.6983304
20
1.6789812
10
3.7107408
20
1.6940972
10
3.7232578
20
1.7096867
10
3.7358725
20
1.7257538
10
3.748576
20
1.7423025
10
3.7613592
20
1.7593366
10
3.7742131
20
1.7768596
10
3.7871283
20
1.7948752
10
3.8000958
20
1.8133868
10
3.8131061
20
1.8323975
10
3.8196244
20
1.842091
10
3.8228864
20
1.846985
10
3.824518
20
1.8494438
10
3.8253339
20
1.8506761
10
3.8255379
20
1.8509845
10
3.8256399
20
1.8511388
10
3.8256576
20
1.8511736
10
3.7610611
20
1.9791209
10
3.7610226
20
1.9791273
10
3.7608379
20
1.9791368
10
3.7604686
20
1.9791557
10
3.7589925
20
1.9792309
10
3.7560453
20
1.979378
10
3.7501706
20
1.9796592
10
3.7385005
20
1.9801699
10
3.7154786
20
1.9809892
10
3.6928839
20
1.9815465
10
3.6707192
20
1.9818513
10
3.6489873
20
1.9819131
10
3.6276909
20
1.9817414
10
3.6068323
20
1.9813457
10
3.5864139
20
1.9807354
10
3.5664378
20
1.9799202
10
3.546906
20
1.9789096
10
3.5278204
20
1.9777133
10
3.5091826
20
1.9763407
10
3.4909941
20
1.9748016
10
3.4732564
20
1.9731056
10
3.4559706
20
1.9712624
10
3.4391377
20
1.9692815
10
3.4227587
20
1.9671726
10
3.4068343
20
1.9649455
10
3.3913651
20
1.9626097
10
3.3763514
20
1.9601749
10
3.3617937
20
1.9576508
10
3.3476919
20
1.955047
10
3.3340461
20
1.9523731
10
3.320856
20
1.9496389
10
3.3081213
20
1.9468538
10
3.2958414
20
1.9440275
10
3.2840158
20
1.9411696
10
3.2726435
20
1.9382896
10
3.2617237
20
1.9353972
10
3.2512551
20
1.9325016
10
3.2412365
20
1.9296126
10
3.2316665
20
1.9267395
10
3.2225434
20
1.9238917
10
3.2138656
20
1.9210787
10
3.2056311
20
1.9183099
10
3.1978379
20
1.9155944
10
3.1904837
20
1.9129417
10
3.1835664
20
1.9103609
10
3.1797101
20
1.9162723
10
3.0868309
20
2.0625545
10
3.0831213
20
2.068559
10
3.0883994
20
2.0737216
10
3.0939285
20
2.0792488
10
3.0997011
20
2.0851467
10
3.1057097
20
2.0914212
10
3.1119469
20
2.0980782
10
3.1184049
20
2.1051234
10
3.1250759
20
2.1125623
10
3.1319522
20
2.1204003
10
3.1390258
20
2.1286429
10
3.1462886
20
2.1372951
10
3.1537325
20
2.1463622
10
3.1613493
20
2.1558489
10
3.1691307
20
2.1657601
10
3.1770683
20
2.1761005
10
3.1851536
20
2.1868747
10
3.193378
20
2.198087
10
3.2017331
20
2.2097418
10
3.21021
20
2.2218431
10
3.2187999
20
2.234395
10
3.2274941
20
2.2474013
10
3.2362835
20
2.2608657
10
3.2451593
20
2.274792
10
3.2541124
20
2.2891834
10
3.2631335
20
2.3040432
10
3.2722137
20
2.3193748
10
3.2813435
20
2.3351809
10
3.2905137
20
2.3514646
10
3.2997151
20
2.3682285
10
3.308938
20
2.3854752
10
3.3181731
20
2.4032071
10
3.3274109
20
2.4214265
10
3.3366418
20
2.4401356
10
3.3458562
20
2.4593362
10
3.3550445
20
2.4790302
10
3.3641969
20
2.4992193
10
3.3733038
20
2.519905
10
3.3823553
20
2.5410886
10
3.3868573
20
2.5518675
10
3.3891018
20
2.5573038
10
3.3902223
20
2.5600337
10
3.3907822
20
2.5614015
10
3.3909221
20
2.5617438
10
3.3909921
20
2.561915
10
3.3910027
20
2.5619526
10
3.302686
20
2.6748392
10
3.302647
20
2.674838
10
3.302464
20
2.6748113
10
3.3020981
20
2.6747579
10
3.3006357
20
2.6745436
10
3.2977164
20
2.6741129
10
3.2918998
20
2.6732426
10
3.2803542
20
2.6714668
10
3.2576149
20
2.6677789
10
3.2353456
20
2.6639175
10
3.2135474
20
2.6598924
10
3.192221
20
2.6557134
10
3.1713672
20
2.6513902
10
3.1509867
20
2.6469328
10
3.1310796
20
2.6423508
10
3.1116464
20
2.6376541
10
3.0926871
20
2.6328525
10
3.0742016
20
2.6279557
10
3.0561897
20
2.6229735
10
3.038651
20
2.6179155
10
3.0215849
20
2.6127917
10
3.0049908
20
2.6076115
10
2.9888679
20
2.6023848
10
2.973215
20
2.597121
10
2.9580311
20
2.59183
10
2.9433148
20
2.5865212
10
2.9290646
20
2.5812042
10
2.915279
20
2.5758885
10
2.9019562
20
2.5705836
10
2.8890942
20
2.5652989
10
2.876691
20
2.560044
10
2.8647443
20
2.554828
10
2.8532518
20
2.5496603
10
2.8422109
20
2.5445503
10
2.8316191
20
2.539507
10
2.8214733
20
2.5345398
10
2.8117708
20
2.5296576
10
2.8025083
20
2.5248695
10
2.7936827
20
2.5201846
10
2.7852905
20
2.5156117
10
2.7773282
20
2.5111598
10
2.7697921
20
2.5068377
10
2.7626784
20
2.502654
10
2.7559831
20
2.4986175
10
2.7497021
20
2.4947368
10
2.7447667
20
2.4997824
10
2.6251339
20
2.6251339
10
2.6203241
20
2.6302994
10
2.6244937
20
2.6363924
10
2.6288382
20
2.6428921
10
2.6333492
20
2.6498028
10
2.6380183
20
2.657129
10
2.6428369
20
2.664875
10
2.6477964
20
2.6730446
10
2.652888
20
2.681642
10
2.6581031
20
2.690671
10
2.6634327
20
2.7001352
10
2.6688679
20
2.7100381
10
2.6743999
20
2.7203831
10
2.6800196
20
2.7311735
10
2.6857179
20
2.7424124
10
2.6914856
20
2.7541026
10
2.6973136
20
2.7662471
10
2.7031927
20
2.7788485
10
2.7091134
20
2.7919093
10
2.7150666
20
2.8054319
10
2.7210427
20
2.8194184
10
2.7270324
20
2.8338709
10
2.7330262
20
2.8487914
10
2.7390146
20
2.8641816
10
2.744988
20
2.8800432
10
2.7509368
20
2.8963775
10
2.7568514
20
2.9131858
10
2.7627222
20
2.9304694
10
2.7685395
20
2.9482293
10
2.7742935
20
2.9664661
10
2.7799746
20
2.9851808
10
2.7855729
20
3.0043736
10
2.7910788
20
3.0240452
10
2.7964823
20
3.0441956
10
2.8017739
20
3.0648249
10
2.8069435
20
3.085933
10
2.8119813
20
3.1075197
10
2.8168776
20
3.1295846
10
2.8216225
20
3.1521271
10
2.8239351
20
3.1635772
10
2.8250759
20
3.1693469
10
2.8256424
20
3.1722429
10
2.8259246
20
3.1736937
10
2.8259951
20
3.1740567
10
2.8260303
20
3.1742382
10
2.8260333
20
3.1742772
10
2.7173906
20
3.267765
10
2.7173525
20
3.2677562
10
2.7171783
20
3.2676943
10
2.7168299
20
3.2675705
10
2.7154374
20
3.2670751
10
2.7126582
20
3.2660832
10
2.7071231
20
3.2640948
10
2.6961458
20
3.2601007
10
2.6745629
20
3.2520474
10
2.6534749
20
3.2439157
10
2.6328807
20
3.2357153
10
2.6127794
20
3.227456
10
2.5931697
20
3.2191475
10
2.5740504
20
3.2107997
10
2.5554198
20
3.2024221
10
2.5372762
20
3.1940244
10
2.519618
20
3.1856163
10
2.502443
20
3.1772072
10
2.4857491
20
3.1688068
10
2.4695342
20
3.1604244
10
2.4537957
20
3.1520696
10
2.438531
20
3.1437516
10
2.4237375
20
3.1354799
10
2.4094123
20
3.1272636
10
2.3955524
20
3.1191119
10
2.3821546
20
3.1110341
10
2.3692155
20
3.1030392
10
2.3567319
20
3.0951362
10
2.3447
20
3.0873341
10
2.3331161
20
3.0796418
10
2.3219764
20
3.072068
10
2.3112768
20
3.0646216
10
2.3010133
20
3.0573111
10
2.2911815
20
3.0501453
10
2.281777
20
3.0431326
10
2.2727953
20
3.0362814
10
2.2642317
20
3.0296002
10
2.2560813
20
3.0230971
10
2.2483392
20
3.0167804
10
2.2410004
20
3.0106582
10
2.2340596
20
3.0047384
10
2.2275115
20
2.9990291
10
2.2213507
20
2.993538
10
2.2155715
20
2.9882729
10
2.2101683
20
2.9832414
10
2.2043434
20
2.9872272
10
2.0625545
20
3.0868309
10
2.0568294
20
3.0909588
10
2.0597301
20
3.0977482
10
2.0627231
20
3.1049705
10
2.0657993
20
3.1126286
10
2.0689494
20
3.1207249
10
2.0721642
20
3.129262
10
2.0754346
20
3.1382423
10
2.0787511
20
3.1476678
10
2.0821045
20
3.1575407
10
2.0854853
20
3.1678628
10
2.0888842
20
3.1786358
10
2.0922917
20
3.1898612
10
2.0956983
20
3.2015406
10
2.0990945
20
3.2136752
10
2.1024707
20
3.2262661
10
2.1058175
20
3.2393143
10
2.1091251
20
3.2528205
10
2.1123841
20
3.2667854
10
2.1155847
20
3.2812095
10
2.1187174
20
3.2960932
10
2.1217725
20
3.3114365
10
2.1247403
20
3.3272397
10
2.1276111
20
3.3435024
10
2.1303753
20
3.3602245
10
2.1330231
20
3.3774055
10
2.1355449
20
3.3950448
10
2.137931
20
3.4131417
10
2.1401718
20
3.4316951
10
2.1422574
20
3.4507041
10
2.1441782
20
3.4701675
10
2.1459247
20
3.4900838
10
2.147487
20
3.5104515
10
2.1488556
20
3.5312689
10
2.1500209
20
3.5525341
10
2.1509732
20
3.5742452
10
2.1517029
20
3.5964
10
2.1522005
20
3.6189961
10
2.1524564
20
3.6420311
10
2.1524907
20
3.6537123
10
2.152484
20
3.6595937
10
2.1524746
20
3.6625446
10
2.1524683
20
3.6640226
10
2.1524666
20
3.6643924
10
2.1524657
20
3.6645773
10
2.1524611
20
3.6646161
10
2.0276674
20
3.7351125
10
2.0276318
20
3.7350964
10
2.0274729
20
3.7350017
10
2.0271554
20
3.7348123
10
2.0258863
20
3.7340547
10
2.023354
20
3.7325396
10
2.0183132
20
3.7295096
10
2.0083261
20
3.7234507
10
1.988729
20
3.7113416
10
1.9696325
20
3.699252
10
1.9510339
20
3.6871915
10
1.9329301
20
3.6751693
10
1.9153182
20
3.6631949
10
1.8981948
20
3.6512774
10
1.8815565
20
3.6394261
10
1.8653999
20
3.6276502
10
1.8497213
20
3.6159586
10
1.8345168
20
3.6043605
10
1.8197826
20
3.5928646
10
1.8055145
20
3.58148
10
1.7917084
20
3.5702152
10
1.7783598
20
3.5590791
10
1.7654643
20
3.5480802
10
1.7530173
20
3.5372271
10
1.741014
20
3.5265282
10
1.7294495
20
3.5159918
10
1.7183188
20
3.5056262
10
1.7076168
20
3.4954396
10
1.6973382
20
3.4854401
10
1.6874776
20
3.4756357
10
1.6780295
20
3.4660342
10
1.6689883
20
3.4566435
10
1.6603482
20
3.4474712
10
1.6521033
20
3.438525
10
1.6442476
20
3.4298123
10
1.6367751
20
3.4213405
10
1.6296794
20
3.4131169
10
1.6229543
20
3.4051488
10
1.6165934
20
3.397443
10
1.6105899
20
3.3900067
10
1.6049374
20
3.3828467
10
1.599629
20
3.3759696
10
1.5946578
20
3.3693821
10
1.5900168
20
3.3630907
10
1.585699
20
3.3571017
10
1.5792085
20
3.3598745
10
1.4207122
20
3.4299028
10
1.4142918
20
3.4328344
10
1.4158123
20
3.4400593
10
1.4173388
20
3.4477267
10
1.4188618
20
3.4558377
10
1.4203719
20
3.4643931
10
1.4218595
20
3.4733933
10
1.423315
20
3.482839
10
1.424729
20
3.4927305
10
1.4260918
20
3.5030679
10
1.4273939
20
3.5138512
10
1.4286258
20
3.5250803
10
1.4297778
20
3.5367548
10
1.4308404
20
3.5488744
10
1.431804
20
3.5614384
10
1.432659
20
3.574446
10
1.4333959
20
3.5878964
10
1.4340051
20
3.6017883
10
1.434477
20
3.6161207
10
1.4348022
20
3.6308921
10
1.434971
20
3.6461009
10
1.434974
20
3.6617455
10
1.4348017
20
3.677824
10
1.4344447
20
3.6943343
10
1.4338934
20
3.7112744
10
1.4331385
20
3.7286418
10
1.4321707
20
3.7464341
10
1.4309804
20
3.7646488
10
1.4295585
20
3.7832829
10
1.4278955
20
3.8023335
10
1.4259824
20
3.8217976
10
1.4238098
20
3.8416719
10
1.4213686
20
3.8619531
10
1.4186496
20
3.8826375
10
1.4156438
20
3.9037214
10
1.4123422
20
3.9252011
10
1.4087357
20
3.9470726
10
1.4048154
20
3.9693316
10
1.4005725
20
3.9919739
10
1.3983273
20
4.0034374
10
1.3971733
20
4.0092045
10
1.3965884
20
4.0120968
10
1.3962939
20
4.0135452
10
1.3962201
20
4.0139075
10
1.3961832
20
4.0140887
10
1.3961711
20
4.0141258
10
1.260022
20
4.0589216
10
1.2599902
20
4.0588989
10
1.2598529
20
4.058775
10
1.2595784
20
4.0585273
10
1.2584815
20
4.0575367
10
1.2562935
20
4.0555567
10
1.2519406
20
4.0516015
10
1.2433274
20
4.0437106
10
1.2264693
20
4.028011
10
1.2100983
20
4.0124282
10
1.1942099
20
3.996971
10
1.1787995
20
3.9816479
10
1.163862
20
3.9664676
10
1.1493926
20
3.9514385
10
1.1353861
20
3.936569
10
1.1218373
20
3.9218674
10
1.1087409
20
3.9073417
10
1.0960913
20
3.8930002
10
1.0838829
20
3.8788507
10
1.07211
20
3.8649013
10
1.0607668
20
3.8511595
10
1.0498472
20
3.8376332
10
1.0393453
20
3.8243299
10
1.0292548
20
3.811257
10
1.0195694
20
3.7984219
10
1.0102826
20
3.7858318
10
1.001388
20
3.7734939
10
0.992879
20
3.7614152
10
0.9847487
20
3.7496026
10
0.9769903
20
3.7380629
10
0.9695969
20
3.7268027
10
0.9625615
20
3.7158285
10
0.9558768
20
3.7051469
10
0.9495356
20
3.694764
10
0.9435307
20
3.6846862
10
0.9378545
20
3.6749194
10
0.9324995
20
3.6654695
10
0.9274582
20
3.6563425
10
0.9227227
20
3.6475438
10
0.9182854
20
3.6390792
10
0.9141383
20
3.630954
10
0.9102736
20
3.6231734
10
0.906683
20
3.6157426
10
0.9033587
20
3.6086667
10
0.9002922
20
3.6019505
10
0.8933854
20
3.6034038
10
0.7242728
20
3.6411654
10
0.7174039
20
3.6427881
10
0.7174856
20
3.6501708
10
0.7174869
20
3.6579887
10
0.7173983
20
3.666241
10
0.7172103
20
3.6749265
10
0.7169134
20
3.6840441
10
0.7164982
20
3.6935922
10
0.7159553
20
3.7035695
10
0.7152752
20
3.7139741
10
0.7144486
20
3.7248042
10
0.7134661
20
3.7360579
10
0.7123184
20
3.7477329
10
0.7109962
20
3.7598269
10
0.7094901
20
3.7723374
10
0.7077911
20
3.7852619
10
0.7058898
20
3.7985976
10
0.703777
20
3.8123415
10
0.7014438
20
3.8264905
10
0.6988809
20
3.8410415
10
0.6960794
20
3.8559911
10
0.6930303
20
3.8713356
10
0.6897245
20
3.8870715
10
0.6861533
20
3.903195
10
0.6823078
20
3.919702
10
0.6781793
20
3.9365885
10
0.6737588
20
3.9538501
10
0.669038
20
3.9714825
10
0.664008
20
3.9894812
10
0.6586604
20
4.0078413
10
0.6529868
20
4.0265582
10
0.6469787
20
4.0456268
10
0.6406277
20
4.065042
10
0.6339256
20
4.0847985
10
0.6268643
20
4.1048909
10
0.6194356
20
4.1253138
10
0.6116316
20
4.1460614
10
0.6034441
20
4.1671279
10
0.5948654
20
4.1885073
10
0.590427
20
4.1993126
10
0.58817
20
4.2047437
10
0.587032
20
4.2074664
10
0.5864607
20
4.2088295
10
0.5863176
20
4.2091704
10
0.586246
20
4.2093409
10
0.5862269
20
4.209375
10
0.4439547
20
4.2267487
10
0.443928
20
4.2267202
10
0.4438175
20
4.2265719
10
0.4435966
20
4.2262754
10
0.442714
20
4.2250898
10
0.4409543
20
4.222721
10
0.4374567
20
4.2179926
10
0.4305484
20
4.208573
10
0.417077
20
4.1898862
10
0.4040607
20
4.171409
10
0.3914932
20
4.1531491
10
0.3793682
20
4.135114
10
0.3676793
20
4.1173113
10
0.3564199
20
4.0997481
10
0.3455835
20
4.0824318
10
0.3351632
20
4.0653694
10
0.3251522
20
4.0485679
10
0.3155435
20
4.0320341
10
0.3063301
20
4.0157748
10
0.2975049
20
3.9997965
10
0.2890605
20
3.9841059
10
0.2809896
20
3.9687092
10
0.2732848
20
3.9536126
10
0.2659386
20
3.9388224
10
0.2589433
20
3.9243444
10
0.2522912
20
3.9101845
10
0.2459745
20
3.8963484
10
0.2399854
20
3.8828418
10
0.2343158
20
3.86967
10
0.2289578
20
3.8568384
10
0.2239033
20
3.8443522
10
0.2191439
20
3.8322163
10
0.2146716
20
3.8204358
10
0.2104779
20
3.8090154
10
0.2065544
20
3.7979597
10
0.2028927
20
3.7872732
10
0.1994842
20
3.7769602
10
0.1963203
20
3.767025
10
0.1933924
20
3.7574716
10
0.1906917
20
3.7483039
10
0.1882094
20
3.7395257
10
0.1859368
20
3.7311407
10
0.183865
20
3.7231522
10
0.1819849
20
3.7155637
10
0.1802877
20
3.7083783
10
0.1732301
20
3.7084562
10
0
20
3.7125
10
-0.0070536
20
3.7127515
10
-0.0084137
20
3.7200083
10
-0.0099376
20
3.7276762
10
-0.0116344
20
3.7357527
10
-0.0135133
20
3.7442346
10
-0.0155832
20
3.7531191
10
-0.0178532
20
3.7624028
10
-0.0203322
20
3.7720824
10
-0.023029
20
3.7821544
10
-0.0259526
20
3.7926152
10
-0.0291117
20
3.8034609
10
-0.032515
20
3.8146877
10
-0.0361713
20
3.8262913
10
-0.040089
20
3.8382677
10
-0.0442769
20
3.8506124
10
-0.0487434
20
3.8633209
10
-0.0534968
20
3.8763885
10
-0.0585455
20
3.8898105
10
-0.0638979
20
3.9035819
10
-0.0695621
20
3.9176976
10
-0.0755462
20
3.9321525
10
-0.0818584
20
3.9469411
10
-0.0885065
20
3.9620581
10
-0.0954984
20
3.9774977
10
-0.1028421
20
3.9932542
10
-0.1105451
20
4.0093218
10
-0.1186152
20
4.0256944
10
-0.1270599
20
4.0423659
10
-0.1358866
20
4.0593301
10
-0.1451027
20
4.0765804
10
-0.1547155
20
4.0941105
10
-0.1647321
20
4.1119136
10
-0.1751597
20
4.129983
10
-0.1860052
20
4.1483118
10
-0.1972754
20
4.1668929
10
-0.2089772
20
4.1857194
10
-0.2211172
20
4.2047838
10
-0.233702
20
4.2240788
10
-0.2401632
20
4.2338105
10
-0.2434363
20
4.238697
10
-0.2450836
20
4.2411454
10
-0.2459099
20
4.2423708
10
-0.2461167
20
4.2426773
10
-0.2462202
20
4.2428305
10
-0.2462456
20
4.2428603
10
-0.3891735
20
4.2321441
10
-0.3891942
20
4.232111
10
-0.3892736
20
4.231944
10
-0.3894325
20
4.2316101
10
-0.3900668
20
4.2302751
10
-0.3913305
20
4.2276085
10
-0.3938385
20
4.2222886
10
-0.3987763
20
4.2117023
10
-0.4083432
20
4.1907464
10
-0.4175047
20
4.1700849
10
-0.4262684
20
4.149724
10
-0.434642
20
4.12967
10
-0.4426332
20
4.109929
10
-0.4502498
20
4.0905067
10
-0.4574997
20
4.071409
10
-0.4643911
20
4.0526416
10
-0.4709319
20
4.0342098
10
-0.4771304
20
4.0161192
10
-0.4829947
20
3.9983748
10
-0.4885332
20
3.9809819
10
-0.4937542
20
3.9639453
10
-0.4986663
20
3.9472699
10
-0.5032778
20
3.9309603
10
-0.5075975
20
3.9150211
10
-0.5116339
20
3.8994565
10
-0.5153957
20
3.884271
10
-0.5188917
20
3.8694684
10
-0.5221307
20
3.8550529
10
-0.5251216
20
3.8410281
10
-0.5278734
20
3.8273978
10
-0.5303949
20
3.8141654
10
-0.5326952
20
3.8013342
10
-0.5347833
20
3.7889076
10
-0.5366684
20
3.7768884
10
-0.5383597
20
3.7652797
10
-0.5398662
20
3.7540842
10
-0.5411973
20
3.7433044
10
-0.5423621
20
3.7329429
10
-0.54337
20
3.7230018
10
-0.5442302
20
3.7134834
10
-0.5449522
20
3.7043896
10
-0.5455453
20
3.6957223
10
-0.5460189
20
3.6874832
10
-0.5463824
20
3.6796737
10
-0.5466452
20
3.6722952
10
-0.5535824
20
3.6709948
10
-0.7242728
20
3.6411654
10
-0.7312399
20
3.6400359
10
-0.7339896
20
3.6468879
10
-0.7369802
20
3.6541113
10
-0.7402201
20
3.6617015
10
-0.7437176
20
3.6696539
10
-0.747481
20
3.6779638
10
-0.7515185
20
3.6866263
10
-0.7558383
20
3.6956363
10
-0.7604482
20
3.7049886
10
-0.7653564
20
3.7146781
10
-0.7705707
20
3.7246991
10
-0.7760989
20
3.7350461
10
-0.7819486
20
3.7457136
10
-0.7881276
20
3.7566955
10
-0.7946434
20
3.767986
10
-0.8015033
20
3.7795789
10
-0.8087147
20
3.7914681
10
-0.816285
20
3.8036472
10
-0.8242212
20
3.8161098
10
-0.8325304
20
3.8288493
10
-0.8412195
20
3.841859
10
-0.8502955
20
3.855132
10
-0.859765
20
3.8686615
10
-0.8696348
20
3.8824404
10
-0.8799113
20
3.8964615
10
-0.8906009
20
3.9107175
10
-0.9017101
20
3.9252012
10
-0.9132449
20
3.9399049
10
-0.9252116
20
3.954821
10
-0.937616
20
3.9699419
10
-0.950464
20
3.9852598
10
-0.9637614
20
4.0007667
10
-0.9775138
20
4.0164545
10
-0.9917266
20
4.0323153
10
-1.0064053
20
4.0483407
10
-1.0215551
20
4.0645225
10
-1.0371811
20
4.0808522
10
-1.0532884
20
4.0973214
10
-1.061524
20
4.1056055
10
-1.0656875
20
4.1097596
10
-1.0677808
20
4.1118395
10
-1.0688303
20
4.1128802
10
-1.0690929
20
4.1131404
10
-1.0692243
20
4.1132706
10
-1.069255
20
4.1132948
10
-1.207346
20
4.0749007
10
-1.2073598
20
4.0748641
10
-1.2074051
20
4.0746849
10
-1.2074958
20
4.0743264
10
-1.2078575
20
4.0728933
10
-1.2085768
20
4.0700314
10
-1.2099986
20
4.0643245
10
-1.2127763
20
4.0529782
10
-1.2180711
20
4.0305586
10
-1.2230257
20
4.0085067
10
-1.2276488
20
3.9868274
10
-1.2319491
20
3.9655251
10
-1.2359354
20
3.9446044
10
-1.2396166
20
3.9240694
10
-1.2430015
20
3.9039243
10
-1.2460991
20
3.884173
10
-1.2489184
20
3.8648193
10
-1.2514684
20
3.845867
10
-1.2537583
20
3.8273196
10
-1.2557972
20
3.8091804
10
-1.2575942
20
3.7914526
10
-1.2591587
20
3.7741393
10
-1.2604998
20
3.7572434
10
-1.2616268
20
3.7407677
10
-1.2625492
20
3.7247148
10
-1.2632762
20
3.7090871
10
-1.2638172
20
3.6938869
10
-1.2641816
20
3.6791165
10
-1.264379
20
3.6647777
10
-1.2644187
20
3.6508724
10
-1.2643102
20
3.6374023
10
-1.2640631
20
3.624369
10
-1.2636868
20
3.6117737
10
-1.2631909
20
3.5996178
10
-1.2625849
20
3.5879022
10
-1.2618783
20
3.5766278
10
-1.2610808
20
3.5657955
10
-1.2602018
20
3.5554058
10
-1.2592509
20
3.5454591
10
-1.2582377
20
3.5359558
10
-1.2571717
20
3.5268959
10
-1.2560625
20
3.5182795
10
-1.2549196
20
3.5101062
10
-1.2537525
20
3.5023759
10
-1.2525708
20
3.4950879
10
-1.259121
20
3.4924591
10
-1.4207122
20
3.4299028
10
-1.4273251
20
3.4274358
10
-1.4313587
20
3.4336197
10
-1.4357011
20
3.4401208
10
-1.4403595
20
3.4469331
10
-1.4453412
20
3.4540504
10
-1.4506535
20
3.4614664
10
-1.4563034
20
3.4691748
10
-1.4622979
20
3.4771689
10
-1.4686439
20
3.4854422
10
-1.4753481
20
3.4939879
10
-1.4824172
20
3.5027991
10
-1.4898577
20
3.5118689
10
-1.4976762
20
3.5211901
10
-1.5058789
20
3.5307556
10
-1.5144721
20
3.5405579
10
-1.5234619
20
3.5505898
10
-1.5328542
20
3.5608437
10
-1.5426551
20
3.5713119
10
-1.5528701
20
3.5819867
10
-1.563505
20
3.5928604
10
-1.5745652
20
3.6039249
10
-1.5860562
20
3.6151723
10
-1.5979833
20
3.6265944
10
-1.6103515
20
3.638183
10
-1.6231659
20
3.6499299
10
-1.6364314
20
3.6618266
10
-1.6501527
20
3.6738646
10
-1.6643345
20
3.6860354
10
-1.6789812
20
3.6983304
10
-1.6940972
20
3.7107408
10
-1.7096867
20
3.7232578
10
-1.7257538
20
3.7358725
10
-1.7423025
20
3.748576
10
-1.7593366
20
3.7613592
10
-1.7768596
20
3.7742131
10
-1.7948752
20
3.7871283
10
-1.8133868
20
3.8000958
10
-1.8323975
20
3.8131061
10
-1.842091
20
3.8196244
10
-1.846985
20
3.8228864
10
-1.8494438
20
3.824518
10
-1.8506761
20
3.8253339
10
-1.8509845
20
3.8255379
10
-1.8511388
20
3.8256399
10
-1.8511736
20
3.8256576
10
-1.9791209
20
3.7610611
10
-1.9791273
20
3.7610226
10
-1.9791368
20
3.7608379
10
-1.9791557
20
3.7604686
10
-1.9792309
20
3.7589925
10
-1.979378
20
3.7560453
10
-1.9796592
20
3.7501706
10
-1.9801699
20
3.7385005
10
-1.9809892
20
3.7154786
10
-1.9815465
20
3.6928839
10
-1.9818513
20
3.6707192
10
-1.9819131
20
3.6489873
10
-1.9817414
20
3.6276909
10
-1.9813457
20
3.6068323
10
-1.9807354
20
3.5864139
10
-1.9799202
20
3.5664378
10
-1.9789096
20
3.546906
10
-1.9777133
20
3.5278204
10
-1.9763407
20
3.5091826
10
-1.9748016
20
3.4909941
10
-1.9731056
20
3.4732564
10
-1.9712624
20
3.4559706
10
-1.9692815
20
3.4391377
10
-1.9671726
20
3.4227587
10
-1.9649455
20
3.4068343
10
-1.9626097
20
3.3913651
10
-1.9601749
20
3.3763514
10
-1.9576508
20
3.3617937
10
-1.955047
20
3.3476919
10
-1.9523731
20
3.3340461
10
-1.9496389
20
3.320856
10
-1.9468538
20
3.3081213
10
-1.9440275
20
3.2958414
10
-1.9411696
20
3.2840158
10
-1.9382896
20
3.2726435
10
-1.9353972
20
3.2617237
10
-1.9325016
20
3.2512551
10
-1.9296126
20
3.2412365
10
-1.9267395
20
3.2316665
10
-1.9238917
20
3.2225434
10
-1.9210787
20
3.2138656
10
-1.9183099
20
3.2056311
10
-1.9155944
20
3.1978379
10
-1.9129417
20
3.1904837
10
-1.9103609
20
3.1835664
10
-1.9162723
20
3.1797101
10
-2.0625545
20
3.0868309
10
-2.068559
20
3.0831213
10
-2.0737216
20
3.0883994
10
-2.0792488
20
3.0939285
10
-2.0851467
20
3.0997011
10
-2.0914212
20
3.1057097
10
-2.0980782
20
3.1119469
10
-2.1051234
20
3.1184049
10
-2.1125623
20
3.1250759
10
-2.1204003
20
3.1319522
10
-2.1286429
20
3.1390258
10
-2.1372951
20
3.1462886
10
-2.1463622
20
3.1537325
10
-2.1558489
20
3.1613493
10
-2.1657601
20
3.1691307
10
-2.1761005
20
3.1770683
10
-2.1868747
20
3.1851536
10
-2.198087
20
3.193378
10
-2.2097418
20
3.2017331
10
-2.2218431
20
3.21021
10
-2.234395
20
3.2187999
10
-2.2474013
20
3.2274941
10
-2.2608657
20
3.2362835
10
-2.274792
20
3.2451593
10
-2.2891834
20
3.2541124
10
-2.3040432
20
3.2631335
10
-2.3193748
20
3.2722137
10
-2.3351809
20
3.2813435
10
-2.3514646
20
3.2905137
10
-2.3682285
20
3.2997151
10
-2.3854752
20
3.308938
10
-2.4032071
20
3.3181731
10
-2.4214265
20
3.3274109
10
-2.4401356
20
3.3366418
10
-2.4593362
20
3.3458562
10
-2.4790302
20
3.3550445
10
-2.4992193
20
3.3641969
10
-2.519905
20
3.3733038
10
-2.5410886
20
3.3823553
10
-2.5518675
20
3.3868573
10
-2.5573038
20
3.3891018
10
-2.5600337
20
3.3902223
10
-2.5614015
20
3.3907822
10
-2.5617438
20
3.3909221
10
-2.561915
20
3.3909921
10
-2.5619526
20
3.3910027
10
-2.6748392
20
3.302686
10
-2.674838
20
3.302647
10
-2.6748113
20
3.302464
10
-2.6747579
20
3.3020981
10
-2.6745436
20
3.3006357
10
-2.6741129
20
3.2977164
10
-2.6732426
20
3.2918998
10
-2.6714668
20
3.2803542
10
-2.6677789
20
3.2576149
10
-2.6639175
20
3.2353456
10
-2.6598924
20
3.2135474
10
-2.6557134
20
3.192221
10
-2.6513902
20
3.1713672
10
-2.6469328
20
3.1509867
10
-2.6423508
20
3.1310796
10
-2.6376541
20
3.1116464
10
-2.6328525
20
3.0926871
10
-2.6279557
20
3.0742016
10
-2.6229735
20
3.0561897
10
-2.6179155
20
3.038651
10
-2.6127917
20
3.0215849
10
-2.6076115
20
3.0049908
10
-2.6023848
20
2.9888679
10
-2.597121
20
2.973215
10
-2.59183
20
2.9580311
10
-2.5865212
20
2.9433148
10
-2.5812042
20
2.9290646
10
-2.5758885
20
2.915279
10
-2.5705836
20
2.9019562
10
-2.5652989
20
2.8890942
10
-2.560044
20
2.876691
10
-2.554828
20
2.8647443
10
-2.5496603
20
2.8532518
10
-2.5445503
20
2.8422109
10
-2.539507
20
2.8316191
10
-2.5345398
20
2.8214733
10
-2.5296576
20
2.8117708
10
-2.5248695
20
2.8025083
10
-2.5201846
20
2.7936827
10
-2.5156117
20
2.7852905
10
-2.5111598
20
2.7773282
10
-2.5068377
20
2.7697921
10
-2.502654
20
2.7626784
10
-2.4986175
20
2.7559831
10
-2.4947368
20
2.7497021
10
-2.4997824
20
2.7447667
10
-2.6251339
20
2.6251339
10
-2.6302994
20
2.6203241
10
-2.6363924
20
2.6244937
10
-2.6428921
20
2.6288382
10
-2.6498028
20
2.6333492
10
-2.657129
20
2.6380183
10
-2.664875
20
2.6428369
10
-2.6730446
20
2.6477964
10
-2.681642
20
2.652888
10
-2.690671
20
2.6581031
10
-2.7001352
20
2.6634327
10
-2.7100381
20
2.6688679
10
-2.7203831
20
2.6743999
10
-2.7311735
20
2.6800196
10
-2.7424124
20
2.6857179
10
-2.7541026
20
2.6914856
10
-2.7662471
20
2.6973136
10
-2.7788485
20
2.7031927
10
-2.7919093
20
2.7091134
10
-2.8054319
20
2.7150666
10
-2.8194184
20
2.7210427
10
-2.8338709
20
2.7270324
10
-2.8487914
20
2.7330262
10
-2.8641816
20
2.7390146
10
-2.8800432
20
2.744988
10
-2.8963775
20
2.7509368
10
-2.9131858
20
2.7568514
10
-2.9304694
20
2.7627222
10
-2.9482293
20
2.7685395
10
-2.9664661
20
2.7742935
10
-2.9851808
20
2.7799746
10
-3.0043736
20
2.7855729
10
-3.0240452
20
2.7910788
10
-3.0441956
20
2.7964823
10
-3.0648249
20
2.8017739
10
-3.085933
20
2.8069435
10
-3.1075197
20
2.8119813
10
-3.1295846
20
2.8168776
10
-3.1521271
20
2.8216225
10
-3.1635772
20
2.8239351
10
-3.1693469
20
2.8250759
10
-3.1722429
20
2.8256424
10
-3.1736937
20
2.8259246
10
-3.1740567
20
2.8259951
10
-3.1742382
20
2.8260303
10
-3.1742772
20
2.8260333
10
-3.267765
20
2.7173906
10
-3.2677562
20
2.7173525
10
-3.2676943
20
2.7171783
10
-3.2675705
20
2.7168299
10
-3.2670751
20
2.7154374
10
-3.2660832
20
2.7126582
10
-3.2640948
20
2.7071231
10
-3.2601007
20
2.6961458
10
-3.2520474
20
2.6745629
10
-3.2439157
20
2.6534749
10
-3.2357153
20
2.6328807
10
-3.227456
20
2.6127794
10
-3.2191475
20
2.5931697
10
-3.2107997
20
2.5740504
10
-3.2024221
20
2.5554198
10
-3.1940244
20
2.5372762
10
-3.1856163
20
2.519618
10
-3.1772072
20
2.502443
10
-3.1688068
20
2.4857491
10
-3.1604244
20
2.4695342
10
-3.1520696
20
2.4537957
10
-3.1437516
20
2.438531
10
-3.1354799
20
2.4237375
10
-3.1272636
20
2.4094123
10
-3.1191119
20
2.3955524
10
-3.1110341
20
2.3821546
10
-3.1030392
20
2.3692155
10
-3.0951362
20
2.3567319
10
-3.0873341
20
2.3447
10
-3.0796418
20
2.3331161
10
-3.072068
20
2.3219764
10
-3.0646216
20
2.3112768
10
-3.0573111
20
2.3010133
10
-3.0501453
20
2.2911815
10
-3.0431326
20
2.281777
10
-3.0362814
20
2.2727953
10
-3.0296002
20
2.2642317
10
-3.0230971
20
2.2560813
10
-3.0167804
20
2.2483392
10
-3.0106582
20
2.2410004
10
-3.0047384
20
2.2340596
10
-2.9990291
20
2.2275115
10
-2.993538
20
2.2213507
10
-2.9882729
20
2.2155715
10
-2.9832414
20
2.2101683
10
-2.9872272
20
2.2043434
10
-3.0868309
20
2.0625545
10
-3.0909588
20
2.0568294
10
-3.0977482
20
2.0597301
10
-3.1049705
20
2.0627231
10
-3.1126286
20
2.0657993
10
-3.1207249
20
2.0689494
10
-3.129262
20
2.0721642
10
-3.1382423
20
2.0754346
10
-3.1476678
20
2.0787511
10
-3.1575407
20
2.0821045
10
-3.1678628
20
2.0854853
10
-3.1786358
20
2.0888842
10
-3.1898612
20
2.0922917
10
-3.2015406
20
2.0956983
10
-3.2136752
20
2.0990945
10
-3.2262661
20
2.1024707
10
-3.2393143
20
2.1058175
10
-3.2528205
20
2.1091251
10
-3.2667854
20
2.1123841
10
-3.2812095
20
2.1155847
10
-3.2960932
20
2.1187174
10
-3.3114365
20
2.1217725
10
-3.3272397
20
2.1247403
10
-3.3435024
20
2.1276111
10
-3.3602245
20
2.1303753
10
-3.3774055
20
2.1330231
10
-3.3950448
20
2.1355449
10
-3.4131417
20
2.137931
10
-3.4316951
20
2.1401718
10
-3.4507041
20
2.1422574
10
-3.4701675
20
2.1441782
10
-3.4900838
20
2.1459247
10
-3.5104515
20
2.147487
10
-3.5312689
20
2.1488556
10
-3.5525341
20
2.1500209
10
-3.5742452
20
2.1509732
10
-3.5964
20
2.1517029
10
-3.6189961
20
2.1522005
10
-3.6420311
20
2.1524564
10
-3.6537123
20
2.1524907
10
-3.6595937
20
2.152484
10
-3.6625446
20
2.1524746
10
-3.6640226
20
2.1524683
10
-3.6643924
20
2.1524666
10
-3.6645773
20
2.1524657
10
-3.6646161
20
2.1524611
10
-3.7351125
20
2.0276674
10
-3.7350964
20
2.0276318
10
-3.7350017
20
2.0274729
10
-3.7348123
20
2.0271554
10
-3.7340547
20
2.0258863
10
-3.7325396
20
2.023354
10
-3.7295096
20
2.0183132
10
-3.7234507
20
2.0083261
10
-3.7113416
20
1.988729
10
-3.699252
20
1.9696325
10
-3.6871915
20
1.9510339
10
-3.6751693
20
1.9329301
10
-3.6631949
20
1.9153182
10
-3.6512774
20
1.8981948
10
-3.6394261
20
1.8815565
10
-3.6276502
20
1.8653999
10
-3.6159586
20
1.8497213
10
-3.6043605
20
1.8345168
10
-3.5928646
20
1.8197826
10
-3.58148
20
1.8055145
10
-3.5702152
20
1.7917084
10
-3.5590791
20
1.7783598
10
-3.5480802
20
1.7654643
10
-3.5372271
20
1.7530173
10
-3.5265282
20
1.741014
10
-3.5159918
20
1.7294495
10
-3.5056262
20
1.7183188
10
-3.4954396
20
1.7076168
10
-3.4854401
20
1.6973382
10
-3.4756357
20
1.6874776
10
-3.4660342
20
1.6780295
10
-3.4566435
20
1.6689883
10
-3.4474712
20
1.6603482
10
-3.438525
20
1.6521033
10
-3.4298123
20
1.6442476
10
-3.4213405
20
1.6367751
10
-3.4131169
20
1.6296794
10
-3.4051488
20
1.6229543
10
-3.397443
20
1.6165934
10
-3.3900067
20
1.6105899
10
-3.3828467
20
1.6049374
10
-3.3759696
20
1.599629
10
-3.3693821
20
1.5946578
10
-3.3630907
20
1.5900168
10
-3.3571017
20
1.585699
10
-3.3598745
20
1.5792085
10
-3.4299028
20
1.4207122
10
-3.4328344
20
1.4142918
10
-3.4400593
20
1.4158123
10
-3.4477267
20
1.4173388
10
-3.4558377
20
1.4188618
10
-3.4643931
20
1.4203719
10
-3.4733933
20
1.4218595
10
-3.482839
20
1.423315
10
-3.4927305
20
1.424729
10
-3.5030679
20
1.4260918
10
-3.5138512
20
1.4273939
10
-3.5250803
20
1.4286258
10
-3.5367548
20
1.4297778
10
-3.5488744
20
1.4308404
10
-3.5614384
20
1.431804
10
-3.574446
20
1.432659
10
-3.5878964
20
1.4333959
10
-3.6017883
20
1.4340051
10
-3.6161207
20
1.434477
10
-3.6308921
20
1.4348022
10
-3.6461009
20
1.434971
10
-3.6617455
20
1.434974
10
-3.677824
20
1.4348017
10
-3.6943343
20
1.4344447
10
-3.7112744
20
1.4338934
10
-3.7286418
20
1.4331385
10
-3.7464341
20
1.4321707
10
-3.7646488
20
1.4309804
10
-3.7832829
20
1.4295585
10
-3.8023335
20
1.4278955
10
-3.8217976
20
1.4259824
10
-3.8416719
20
1.4238098
10
-3.8619531
20
1.4213686
10
-3.8826375
20
1.4186496
10
-3.9037214
20
1.4156438
10
-3.9252011
20
1.4123422
10
-3.9470726
20
1.4087357
10
-3.9693316
20
1.4048154
10
-3.9919739
20
1.4005725
10
-4.0034374
20
1.3983273
10
-4.0092045
20
1.3971733
10
-4.0120968
20
1.3965884
10
-4.0135452
20
1.3962939
10
-4.0139075
20
1.3962201
10
-4.0140887
20
1.3961832
10
-4.0141258
20
1.3961711
10
-4.0589216
20
1.260022
10
-4.0588989
20
1.2599902
10
-4.058775
20
1.2598529
10
-4.0585273
20
1.2595784
10
-4.0575367
20
1.2584815
10
-4.0555567
20
1.2562935
10
-4.0516015
20
1.2519406
10
-4.0437106
20
1.2433274
10
-4.028011
20
1.2264693
10
-4.0124282
20
1.2100983
10
-3.996971
20
1.1942099
10
-3.9816479
20
1.1787995
10
-3.9664676
20
1.163862
10
-3.9514385
20
1.1493926
10
-3.936569
20
1.1353861
10
-3.9218674
20
1.1218373
10
-3.9073417
20
1.1087409
10
-3.8930002
20
1.0960913
10
-3.8788507
20
1.0838829
10
-3.8649013
20
1.07211
10
-3.8511595
20
1.0607668
10
-3.8376332
20
1.0498472
10
-3.8243299
20
1.0393453
10
-3.811257
20
1.0292548
10
-3.7984219
20
1.0195694
10
-3.7858318
20
1.0102826
10
-3.7734939
20
1.001388
10
-3.7614152
20
0.992879
10
-3.7496026
20
0.9847487
10
-3.7380629
20
0.9769903
10
-3.7268027
20
0.9695969
10
-3.7158285
20
0.9625615
10
-3.7051469
20
0.9558768
10
-3.694764
20
0.9495356
10
-3.6846862
20
0.9435307
10
-3.6749194
20
0.9378545
10
-3.6654695
20
0.9324995
10
-3.6563425
20
0.9274582
10
-3.6475438
20
0.9227227
10
-3.6390792
20
0.9182854
10
-3.630954
20
0.9141383
10
-3.6231734
20
0.9102736
10
-3.6157426
20
0.906683
10
-3.6086667
20
0.9033587
10
-3.6019505
20
0.9002922
10
-3.6034038
20
0.8933854
10
-3.6411654
20
0.7242728
10
-3.6427881
20
0.7174039
10
-3.6501708
20
0.7174856
10
-3.6579887
20
0.7174869
10
-3.666241
20
0.7173983
10
-3.6749265
20
0.7172103
10
-3.6840441
20
0.7169134
10
-3.6935922
20
0.7164982
10
-3.7035695
20
0.7159553
10
-3.7139741
20
0.7152752
10
-3.7248042
20
0.7144486
10
-3.7360579
20
0.7134661
10
-3.7477329
20
0.7123184
10
-3.7598269
20
0.7109962
10
-3.7723374
20
0.7094901
10
-3.7852619
20
0.7077911
10
-3.7985976
20
0.7058898
10
-3.8123415
20
0.703777
10
-3.8264905
20
0.7014438
10
-3.8410415
20
0.6988809
10
-3.8559911
20
0.6960794
10
-3.8713356
20
0.6930303
10
-3.8870715
20
0.6897245
10
-3.903195
20
0.6861533
10
-3.919702
20
0.6823078
10
-3.9365885
20
0.6781793
10
-3.9538501
20
0.6737588
10
-3.9714825
20
0.669038
10
-3.9894812
20
0.664008
10
-4.0078413
20
0.6586604
10
-4.0265582
20
0.6529868
10
-4.0456268
20
0.6469787
10
-4.065042
20
0.6406277
10
-4.0847985
20
0.6339256
10
-4.1048909
20
0.6268643
10
-4.1253138
20
0.6194356
10
-4.1460614
20
0.6116316
10
-4.1671279
20
0.6034441
10
-4.1885073
20
0.5948654
10
-4.1993126
20
0.590427
10
-4.2047437
20
0.58817
10
-4.2074664
20
0.587032
10
-4.2088295
20
0.5864607
10
-4.2091704
20
0.5863176
10
-4.2093409
20
0.586246
10
-4.209375
20
0.5862269
10
-4.2267487
20
0.4439547
10
-4.2267202
20
0.443928
10
-4.2265719
20
0.4438175
10
-4.2262754
20
0.4435966
10
-4.2250898
20
0.442714
10
-4.222721
20
0.4409543
10
-4.2179926
20
0.4374567
10
-4.208573
20
0.4305484
10
-4.1898862
20
0.417077
10
-4.171409
20
0.4040607
10
-4.1531491
20
0.3914932
10
-4.135114
20
0.3793682
10
-4.1173113
20
0.3676793
10
-4.0997481
20
0.3564199
10
-4.0824318
20
0.3455835
10
-4.0653694
20
0.3351632
10
-4.0485679
20
0.3251522
10
-4.0320341
20
0.3155435
10
-4.0157748
20
0.3063301
10
-3.9997965
20
0.2975049
10
-3.9841059
20
0.2890605
10
-3.9687092
20
0.2809896
10
-3.9536126
20
0.2732848
10
-3.9388224
20
0.2659386
10
-3.9243444
20
0.2589433
10
-3.9101845
20
0.2522912
10
-3.8963484
20
0.2459745
10
-3.8828418
20
0.2399854
10
-3.86967
20
0.2343158
10
-3.8568384
20
0.2289578
10
-3.8443522
20
0.2239033
10
-3.8322163
20
0.2191439
10
-3.8204358
20
0.2146716
10
-3.8090154
20
0.2104779
10
-3.7979597
20
0.2065544
10
-3.7872732
20
0.2028927
10
-3.7769602
20
0.1994842
10
-3.767025
20
0.1963203
10
-3.7574716
20
0.1933924
10
-3.7483039
20
0.1906917
10
-3.7395257
20
0.1882094
10
-3.7311407
20
0.1859368
10
-3.7231522
20
0.183865
10
-3.7155637
20
0.1819849
10
-3.7083783
20
0.1802877
10
-3.7084562
20
0.1732301
10
-3.7125
20
0
10
-3.7127515
20
-0.0070536
10
-3.7200083
20
-0.0084137
10
-3.7276762
20
-0.0099376
10
-3.7357527
20
-0.0116344
10
-3.7442346
20
-0.0135133
10
-3.7531191
20
-0.0155832
10
-3.7624028
20
-0.0178532
10
-3.7720824
20
-0.0203322
10
-3.7821544
20
-0.023029
10
-3.7926152
20
-0.0259526
10
-3.8034609
20
-0.0291117
10
-3.8146877
20
-0.032515
10
-3.8262913
20
-0.0361713
10
-3.8382677
20
-0.040089
10
-3.8506124
20
-0.0442769
10
-3.8633209
20
-0.0487434
10
-3.8763885
20
-0.0534968
10
-3.8898105
20
-0.0585455
10
-3.9035819
20
-0.0638979
10
-3.9176976
20
-0.0695621
10
-3.9321525
20
-0.0755462
10
-3.9469411
20
-0.0818584
10
-3.9620581
20
-0.0885065
10
-3.9774977
20
-0.0954984
10
-3.9932542
20
-0.1028421
10
-4.0093218
20
-0.1105451
10
-4.0256944
20
-0.1186152
10
-4.0423659
20
-0.1270599
10
-4.0593301
20
-0.1358866
10
-4.0765804
20
-0.1451027
10
-4.0941105
20
-0.1547155
10
-4.1119136
20
-0.1647321
10
-4.129983
20
-0.1751597
10
-4.1483118
20
-0.1860052
10
-4.1668929
20
-0.1972754
10
-4.1857194
20
-0.2089772
10
-4.2047838
20
-0.2211172
10
-4.2240788
20
-0.233702
10
-4.2338105
20
-0.2401632
10
-4.238697
20
-0.2434363
10
-4.2411454
20
-0.2450836
10
-4.2423708
20
-0.2459099
10
-4.2426773
20
-0.2461167
10
-4.2428305
20
-0.2462202
10
-4.2428603
20
-0.2462456
10
-4.2321441
20
-0.3891735
10
-4.232111
20
-0.3891942
10
-4.231944
20
-0.3892736
10
-4.2316101
20
-0.3894325
10
-4.2302751
20
-0.3900668
10
-4.2276085
20
-0.3913305
10
-4.2222886
20
-0.3938385
10
-4.2117023
20
-0.3987763
10
-4.1907464
20
-0.4083432
10
-4.1700849
20
-0.4175047
10
-4.149724
20
-0.4262684
10
-4.12967
20
-0.434642
10
-4.109929
20
-0.4426332
10
-4.0905067
20
-0.4502498
10
-4.071409
20
-0.4574997
10
-4.0526416
20
-0.4643911
10
-4.0342098
20
-0.4709319
10
-4.0161192
20
-0.4771304
10
-3.9983748
20
-0.4829947
10
-3.9809819
20
-0.4885332
10
-3.9639453
20
-0.4937542
10
-3.9472699
20
-0.4986663
10
-3.9309603
20
-0.5032778
10
-3.9150211
20
-0.5075975
10
-3.8994565
20
-0.5116339
10
-3.884271
20
-0.5153957
10
-3.8694684
20
-0.5188917
10
-3.8550529
20
-0.5221307
10
-3.8410281
20
-0.5251216
10
-3.8273978
20
-0.5278734
10
-3.8141654
20
-0.5303949
10
-3.8013342
20
-0.5326952
10
-3.7889076
20
-0.5347833
10
-3.7768884
20
-0.5366684
10
-3.7652797
20
-0.5383597
10
-3.7540842
20
-0.5398662
10
-3.7433044
20
-0.5411973
10
-3.7329429
20
-0.5423621
10
-3.7230018
20
-0.54337
10
-3.7134834
20
-0.5442302
10
-3.7043896
20
-0.5449522
10
-3.6957223
20
-0.5455453
10
-3.6874832
20
-0.5460189
10
-3.6796737
20
-0.5463824
10
-3.6722952
20
-0.5466452
10
-3.6709948
20
-0.5535824
10
-3.6411654
20
-0.7242728
10
-3.6400359
20
-0.7312399
10
-3.6468879
20
-0.7339896
10
-3.6541113
20
-0.7369802
10
-3.6617015
20
-0.7402201
10
-3.6696539
20
-0.7437176
10
-3.6779638
20
-0.747481
10
-3.6866263
20
-0.7515185
10
-3.6956363
20
-0.7558383
10
-3.7049886
20
-0.7604482
10
-3.7146781
20
-0.7653564
10
-3.7246991
20
-0.7705707
10
-3.7350461
20
-0.7760989
10
-3.7457136
20
-0.7819486
10
-3.7566955
20
-0.7881276
10
-3.767986
20
-0.7946434
10
-3.7795789
20
-0.8015033
10
-3.7914681
20
-0.8087147
10
-3.8036472
20
-0.816285
10
-3.8161098
20
-0.8242212
10
-3.8288493
20
-0.8325304
10
-3.841859
20
-0.8412195
10
-3.855132
20
-0.8502955
10
-3.8686615
20
-0.859765
10
-3.8824404
20
-0.8696348
10
-3.8964615
20
-0.8799113
10
-3.9107175
20
-0.8906009
10
-3.9252012
20
-0.9017101
10
-3.9399049
20
-0.9132449
10
-3.954821
20
-0.9252116
10
-3.9699419
20
-0.937616
10
-3.9852598
20
-0.950464
10
-4.0007667
20
-0.9637614
10
-4.0164545
20
-0.9775138
10
-4.0323153
20
-0.9917266
10
-4.0483407
20
-1.0064053
10
-4.0645225
20
-1.0215551
10
-4.0808522
20
-1.0371811
10
-4.0973214
20
-1.0532884
10
-4.1056055
20
-1.061524
10
-4.1097596
20
-1.0656875
10
-4.1118395
20
-1.0677808
10
-4.1128802
20
-1.0688303
10
-4.1131404
20
-1.0690929
10
-4.1132706
20
-1.0692243
10
-4.1132948
20
-1.069255
10
-4.0749007
20
-1.207346
10
-4.0748641
20
-1.2073598
10
-4.0746849
20
-1.2074051
10
-4.0743264
20
-1.2074958
10
-4.0728933
20
-1.2078575
10
-4.0700314
20
-1.2085768
10
-4.0643245
20
-1.2099986
10
-4.0529782
20
-1.2127763
10
-4.0305586
20
-1.2180711
10
-4.0085067
20
-1.2230257
10
-3.9868274
20
-1.2276488
10
-3.9655251
20
-1.2319491
10
-3.9446044
20
-1.2359354
10
-3.9240694
20
-1.2396166
10
-3.9039243
20
-1.2430015
10
-3.884173
20
-1.2460991
10
-3.8648193
20
-1.2489184
10
-3.845867
20
-1.2514684
10
-3.8273196
20
-1.2537583
10
-3.8091804
20
-1.2557972
10
-3.7914526
20
-1.2575942
10
-3.7741393
20
-1.2591587
10
-3.7572434
20
-1.2604998
10
-3.7407677
20
-1.2616268
10
-3.7247148
20
-1.2625492
10
-3.7090871
20
-1.2632762
10
-3.6938869
20
-1.2638172
10
-3.6791165
20
-1.2641816
10
-3.6647777
20
-1.264379
10
-3.6508724
20
-1.2644187
10
-3.6374023
20
-1.2643102
10
-3.624369
20
-1.2640631
10
-3.6117737
20
-1.2636868
10
-3.5996178
20
-1.2631909
10
-3.5879022
20
-1.2625849
10
-3.5766278
20
-1.2618783
10
-3.5657955
20
-1.2610808
10
-3.5554058
20
-1.2602018
10
-3.5454591
20
-1.2592509
10
-3.5359558
20
-1.2582377
10
-3.5268959
20
-1.2571717
10
-3.5182795
20
-1.2560625
10
-3.5101062
20
-1.2549196
10
-3.5023759
20
-1.2537525
10
-3.4950879
20
-1.2525708
10
-3.4924591
20
-1.259121
10
-3.4299028
20
-1.4207122
10
-3.4274358
20
-1.4273251
10
-3.4336197
20
-1.4313587
10
-3.4401208
20
-1.4357011
10
-3.4469331
20
-1.4403595
10
-3.4540504
20
-1.4453412
10
-3.4614664
20
-1.4506535
10
-3.4691748
20
-1.4563034
10
-3.4771689
20
-1.4622979
10
-3.4854422
20
-1.4686439
10
-3.4939879
20
-1.4753481
10
-3.5027991
20
-1.4824172
10
-3.5118689
20
-1.4898577
10
-3.5211901
20
-1.4976762
10
-3.5307556
20
-1.5058789
10
-3.5405579
20
-1.5144721
10
-3.5505898
20
-1.5234619
10
-3.5608437
20
-1.5328542
10
-3.5713119
20
-1.5426551
10
-3.5819867
20
-1.5528701
10
-3.5928604
20
-1.563505
10
-3.6039249
20
-1.5745652
10
-3.6151723
20
-1.5860562
10
-3.6265944
20
-1.5979833
10
-3.638183
20
-1.6103515
10
-3.6499299
20
-1.6231659
10
-3.6618266
20
-1.6364314
10
-3.6738646
20
-1.6501527
10
-3.6860354
20
-1.6643345
10
-3.6983304
20
-1.6789812
10
-3.7107408
20
-1.6940972
10
-3.7232578
20
-1.7096867
10
-3.7358725
20
-1.7257538
10
-3.748576
20
-1.7423025
10
-3.7613592
20
-1.7593366
10
-3.7742131
20
-1.7768596
10
-3.7871283
20
-1.7948752
10
-3.8000958
20
-1.8133868
10
-3.8131061
20
-1.8323975
10
-3.8196244
20
-1.842091
10
-3.8228864
20
-1.846985
10
-3.824518
20
-1.8494438
10
-3.8253339
20
-1.8506761
10
-3.8255379
20
-1.8509845
10
-3.8256399
20
-1.8511388
10
-3.8256576
20
-1.8511736
10
-3.7610611
20
-1.9791209
10
-3.7610226
20
-1.9791273
10
-3.7608379
20
-1.9791368
10
-3.7604686
20
-1.9791557
10
-3.7589925
20
-1.9792309
10
-3.7560453
20
-1.979378
10
-3.7501706
20
-1.9796592
10
-3.7385005
20
-1.9801699
10
-3.7154786
20
-1.9809892
10
-3.6928839
20
-1.9815465
10
-3.6707192
20
-1.9818513
10
-3.6489873
20
-1.9819131
10
-3.6276909
20
-1.9817414
10
-3.6068323
20
-1.9813457
10
-3.5864139
20
-1.9807354
10
-3.5664378
20
-1.9799202
10
-3.546906
20
-1.9789096
10
-3.5278204
20
-1.9777133
10
-3.5091826
20
-1.9763407
10
-3.4909941
20
-1.9748016
10
-3.4732564
20
-1.9731056
10
-3.4559706
20
-1.9712624
10
-3.4391377
20
-1.9692815
10
-3.4227587
20
-1.9671726
10
-3.4068343
20
-1.9649455
10
-3.3913651
20
-1.9626097
10
-3.3763514
20
-1.9601749
10
-3.3617937
20
-1.9576508
10
-3.3476919
20
-1.955047
10
-3.3340461
20
-1.9523731
10
-3.320856
20
-1.9496389
10
-3.3081213
20
-1.9468538
10
-3.2958414
20
-1.9440275
10
-3.2840158
20
-1.9411696
10
-3.2726435
20
-1.9382896
10
-3.2617237
20
-1.9353972
10
-3.2512551
20
-1.9325016
10
-3.2412365
20
-1.9296126
10
-3.2316665
20
-1.9267395
10
-3.2225434
20
-1.9238917
10
-3.2138656
20
-1.9210787
10
-3.2056311
20
-1.9183099
10
-3.1978379
20
-1.9155944
10
-3.1904837
20
-1.9129417
10
-3.1835664
20
-1.9103609
10
-3.1797101
20
-1.9162723
10
-3.0868309
20
-2.0625545
10
-3.0831213
20
-2.068559
10
-3.0883994
20
-2.0737216
10
-3.0939285
20
-2.0792488
10
-3.0997011
20
-2.0851467
10
-3.1057097
20
-2.0914212
10
-3.1119469
20
-2.0980782
10
-3.1184049
20
-2.1051234
10
-3.1250759
20
-2.1125623
10
-3.1319522
20
-2.1204003
10
-3.1390258
20
-2.1286429
10
-3.1462886
20
-2.1372951
10
-3.1537325
20
-2.1463622
10
-3.1613493
20
-2.1558489
10
-3.1691307
20
-2.1657601
10
-3.1770683
20
-2.1761005
10
-3.1851536
20
-2.1868747
10
-3.193378
20
-2.198087
10
-3.2017331
20
-2.2097418
10
-3.21021
20
-2.2218431
10
-3.2187999
20
-2.234395
10
-3.2274941
20
-2.2474013
10
-3.2362835
20
-2.2608657
10
-3.2451593
20
-2.274792
10
-3.2541124
20
-2.2891834
10
-3.2631335
20
-2.3040432
10
-3.2722137
20
-2.3193748
10
-3.2813435
20
-2.3351809
10
-3.2905137
20
-2.3514646
10
-3.2997151
20
-2.3682285
10
-3.308938
20
-2.3854752
10
-3.3181731
20
-2.4032071
10
-3.3274109
20
-2.4214265
10
-3.3366418
20
-2.4401356
10
-3.3458562
20
-2.4593362
10
-3.3550445
20
-2.4790302
10
-3.3641969
20
-2.4992193
10
-3.3733038
20
-2.519905
10
-3.3823553
20
-2.5410886
10
-3.3868573
20
-2.5518675
10
-3.3891018
20
-2.5573038
10
-3.3902223
20
-2.5600337
10
-3.3907822
20
-2.5614015
10
-3.3909221
20
-2.5617438
10
-3.3909921
20
-2.561915
10
-3.3910027
20
-2.5619526
10
-3.302686
20
-2.6748392
10
-3.302647
20
-2.674838
10
-3.302464
20
-2.6748113
10
-3.3020981
20
-2.6747579
10
-3.3006357
20
-2.6745436
10
-3.2977164
20
-2.6741129
10
-3.2918998
20
-2.6732426
10
-3.2803542
20
-2.6714668
10
-3.2576149
20
-2.6677789
10
-3.2353456
20
-2.6639175
10
-3.2135474
20
-2.6598924
10
-3.192221
20
-2.6557134
10
-3.1713672
20
-2.6513902
10
-3.1509867
20
-2.6469328
10
-3.1310796
20
-2.6423508
10
-3.1116464
20
-2.6376541
10
-3.0926871
20
-2.6328525
10
-3.0742016
20
-2.6279557
10
-3.0561897
20
-2.6229735
10
-3.038651
20
-2.6179155
10
-3.0215849
20
-2.6127917
10
-3.0049908
20
-2.6076115
10
-2.9888679
20
-2.6023848
10
-2.973215
20
-2.597121
10
-2.9580311
20
-2.59183
10
-2.9433148
20
-2.5865212
10
-2.9290646
20
-2.5812042
10
-2.915279
20
-2.5758885
10
-2.9019562
20
-2.5705836
10
-2.8890942
20
-2.5652989
10
-2.876691
20
-2.560044
10
-2.8647443
20
-2.554828
10
-2.8532518
20
-2.5496603
10
-2.8422109
20
-2.5445503
10
-2.8316191
20
-2.539507
10
-2.8214733
20
-2.5345398
10
-2.8117708
20
-2.5296576
10
-2.8025083
20
-2.5248695
10
-2.7936827
20
-2.5201846
10
-2.7852905
20
-2.5156117
10
-2.7773282
20
-2.5111598
10
-2.7697921
20
-2.5068377
10
-2.7626784
20
-2.502654
10
-2.7559831
20
-2.4986175
10
-2.7497021
20
-2.4947368
10
-2.7447667
20
-2.4997824
10
-2.6251339
20
-2.6251339
10
-2.6203241
20
-2.6302994
10
-2.6244937
20
-2.6363924
10
-2.6288382
20
-2.6428921
10
-2.6333492
20
-2.6498028
10
-2.6380183
20
-2.657129
10
-2.6428369
20
-2.664875
10
-2.6477964
20
-2.6730446
10
-2.652888
20
-2.681642
10
-2.6581031
20
-2.690671
10
-2.6634327
20
-2.7001352
10
-2.6688679
20
-2.7100381
10
-2.6743999
20
-2.7203831
10
-2.6800196
20
-2.7311735
10
-2.6857179
20
-2.7424124
10
-2.6914856
20
-2.7541026
10
-2.6973136
20
-2.7662471
10
-2.7031927
20
-2.7788485
10
-2.7091134
20
-2.7919093
10
-2.7150666
20
-2.8054319
10
-2.7210427
20
-2.8194184
10
-2.7270324
20
-2.8338709
10
-2.7330262
20
-2.8487914
10
-2.7390146
20
-2.8641816
10
-2.744988
20
-2.8800432
10
-2.7509368
20
-2.8963775
10
-2.7568514
20
-2.9131858
10
-2.7627222
20
-2.9304694
10
-2.7685395
20
-2.9482293
10
-2.7742935
20
-2.9664661
10
-2.7799746
20
-2.9851808
10
-2.7855729
20
-3.0043736
10
-2.7910788
20
-3.0240452
10
-2.7964823
20
-3.0441956
10
-2.8017739
20
-3.0648249
10
-2.8069435
20
-3.085933
10
-2.8119813
20
-3.1075197
10
-2.8168776
20
-3.1295846
10
-2.8216225
20
-3.1521271
10
-2.8239351
20
-3.1635772
10
-2.8250759
20
-3.1693469
10
-2.8256424
20
-3.1722429
10
-2.8259246
20
-3.1736937
10
-2.8259951
20
-3.1740567
10
-2.8260303
20
-3.1742382
10
-2.8260333
20
-3.1742772
10
-2.7173906
20
-3.267765
10
-2.7173525
20
-3.2677562
10
-2.7171783
20
-3.2676943
10
-2.7168299
20
-3.2675705
10
-2.7154374
20
-3.2670751
10
-2.7126582
20
-3.2660832
10
-2.7071231
20
-3.2640948
10
-2.6961458
20
-3.2601007
10
-2.6745629
20
-3.2520474
10
-2.6534749
20
-3.2439157
10
-2.6328807
20
-3.2357153
10
-2.6127794
20
-3.227456
10
-2.5931697
20
-3.2191475
10
-2.5740504
20
-3.2107997
10
-2.5554198
20
-3.2024221
10
-2.5372762
20
-3.1940244
10
-2.519618
20
-3.1856163
10
-2.502443
20
-3.1772072
10
-2.4857491
20
-3.1688068
10
-2.4695342
20
-3.1604244
10
-2.4537957
20
-3.1520696
10
-2.438531
20
-3.1437516
10
-2.4237375
20
-3.1354799
10
-2.4094123
20
-3.1272636
10
-2.3955524
20
-3.1191119
10
-2.3821546
20
-3.1110341
10
-2.3692155
20
-3.1030392
10
-2.3567319
20
-3.0951362
10
-2.3447
20
-3.0873341
10
-2.3331161
20
-3.0796418
10
-2.3219764
20
-3.072068
10
-2.3112768
20
-3.0646216
10
-2.3010133
20
-3.0573111
10
-2.2911815
20
-3.0501453
10
-2.281777
20
-3.0431326
10
-2.2727953
20
-3.0362814
10
-2.2642317
20
-3.0296002
10
-2.2560813
20
-3.0230971
10
-2.2483392
20
-3.0167804
10
-2.2410004
20
-3.0106582
10
-2.2340596
20
-3.0047384
10
-2.2275115
20
-2.9990291
10
-2.2213507
20
-2.993538
10
-2.2155715
20
-2.9882729
10
-2.2101683
20
-2.9832414
10
-2.2043434
20
-2.9872272
10
-2.0625545
20
-3.0868309
10
-2.0568294
20
-3.0909588
10
-2.0597301
20
-3.0977482
10
-2.0627231
20
-3.1049705
10
-2.0657993
20
-3.1126286
10
-2.0689494
20
-3.1207249
10
-2.0721642
20
-3.129262
10
-2.0754346
20
-3.1382423
10
-2.0787511
20
-3.1476678
10
-2.0821045
20
-3.1575407
10
-2.0854853
20
-3.1678628
10
-2.0888842
20
-3.1786358
10
-2.0922917
20
-3.1898612
10
-2.0956983
20
-3.2015406
10
-2.0990945
20
-3.2136752
10
-2.1024707
20
-3.2262661
10
-2.1058175
20
-3.2393143
10
-2.1091251
20
-3.2528205
10
-2.1123841
20
-3.2667854
10
-2.1155847
20
-3.2812095
10
-2.1187174
20
-3.2960932
10
-2.1217725
20
-3.3114365
10
-2.1247403
20
-3.3272397
10
-2.1276111
20
-3.3435024
10
-2.1303753
20
-3.3602245
10
-2.1330231
20
-3.3774055
10
-2.1355449
20
-3.3950448
10
-2.137931
20
-3.4131417
10
-2.1401718
20
-3.4316951
10
-2.1422574
20
-3.4507041
10
-2.1441782
20
-3.4701675
10
-2.1459247
20
-3.4900838
10
-2.147487
20
-3.5104515
10
-2.1488556
20
-3.5312689
10
-2.1500209
20
-3.5525341
10
-2.1509732
20
-3.5742452
10
-2.1517029
20
-3.5964
10
-2.1522005
20
-3.6189961
10
-2.1524564
20
-3.6420311
10
-2.1524907
20
-3.6537123
10
-2.152484
20
-3.6595937
10
-2.1524746
20
-3.6625446
10
-2.1524683
20
-3.6640226
10
-2.1524666
20
-3.6643924
10
-2.1524657
20
-3.6645773
10
-2.1524611
20
-3.6646161
10
-2.0276674
20
-3.7351125
10
-2.0276318
20
-3.7350964
10
-2.0274729
20
-3.7350017
10
-2.0271554
20
-3.7348123
10
-2.0258863
20
-3.7340547
10
-2.023354
20
-3.7325396
10
-2.0183132
20
-3.7295096
10
-2.0083261
20
-3.7234507
10
-1.988729
20
-3.7113416
10
-1.9696325
20
-3.699252
10
-1.9510339
20
-3.6871915
10
-1.9329301
20
-3.6751693
10
-1.9153182
20
-3.6631949
10
-1.8981948
20
-3.6512774
10
-1.8815565
20
-3.6394261
10
-1.8653999
20
-3.6276502
10
-1.8497213
20
-3.6159586
10
-1.8345168
20
-3.6043605
10
-1.8197826
20
-3.5928646
10
-1.8055145
20
-3.58148
10
-1.7917084
20
-3.5702152
10
-1.7783598
20
-3.5590791
10
-1.7654643
20
-3.5480802
10
-1.7530173
20
-3.5372271
10
-1.741014
20
-3.5265282
10
-1.7294495
20
-3.5159918
10
-1.7183188
20
-3.5056262
10
-1.7076168
20
-3.4954396
10
-1.6973382
20
-3.4854401
10
-1.6874776
20
-3.4756357
10
-1.6780295
20
-3.4660342
10
-1.6689883
20
-3.4566435
10
-1.6603482
20
-3.4474712
10
-1.6521033
20
-3.438525
10
-1.6442476
20
-3.4298123
10
-1.6367751
20
-3.4213405
10
-1.6296794
20
-3.4131169
10
-1.6229543
20
-3.4051488
10
-1.6165934
20
-3.397443
10
-1.6105899
20
-3.3900067
10
-1.6049374
20
-3.3828467
10
-1.599629
20
-3.3759696
10
-1.5946578
20
-3.3693821
10
-1.5900168
20
-3.3630907
10
-1.585699
20
-3.3571017
10
-1.5792085
20
-3.3598745
10
-1.4207122
20
-3.4299028
10
-1.4142918
20
-3.4328344
10
-1.4158123
20
-3.4400593
10
-1.4173388
20
-3.4477267
10
-1.4188618
20
-3.4558377
10
-1.4203719
20
-3.4643931
10
-1.4218595
20
-3.4733933
10
-1.423315
20
-3.482839
10
-1.424729
20
-3.4927305
10
-1.4260918
20
-3.5030679
10
-1.4273939
20
-3.5138512
10
-1.4286258
20
-3.5250803
10
-1.4297778
20
-3.5367548
10
-1.4308404
20
-3.5488744
10
-1.431804
20
-3.5614384
10
-1.432659
20
-3.574446
10
-1.4333959
20
-3.5878964
10
-1.4340051
20
-3.6017883
10
-1.434477
20
-3.6161207
10
-1.4348022
20
-3.6308921
10
-1.434971
20
-3.6461009
10
-1.434974
20
-3.6617455
10
-1.4348017
20
-3.677824
10
-1.4344447
20
-3.6943343
10
-1.4338934
20
-3.7112744
10
-1.4331385
20
-3.7286418
10
-1.4321707
20
-3.7464341
10
-1.4309804
20
-3.7646488
10
-1.4295585
20
-3.7832829
10
-1.4278955
20
-3.8023335
10
-1.4259824
20
-3.8217976
10
-1.4238098
20
-3.8416719
10
-1.4213686
20
-3.8619531
10
-1.4186496
20
-3.8826375
10
-1.4156438
20
-3.9037214
10
-1.4123422
20
-3.9252011
10
-1.4087357
20
-3.9470726
10
-1.4048154
20
-3.9693316
10
-1.4005725
20
-3.9919739
10
-1.3983273
20
-4.0034374
10
-1.3971733
20
-4.0092045
10
-1.3965884
20
-4.0120968
10
-1.3962939
20
-4.0135452
10
-1.3962201
20
-4.0139075
10
-1.3961832
20
-4.0140887
10
-1.3961711
20
-4.0141258
10
-1.260022
20
-4.0589216
10
-1.2599902
20
-4.0588989
10
-1.2598529
20
-4.058775
10
-1.2595784
20
-4.0585273
10
-1.2584815
20
-4.0575367
10
-1.2562935
20
-4.0555567
10
-1.2519406
20
-4.0516015
10
-1.2433274
20
-4.0437106
10
-1.2264693
20
-4.028011
10
-1.2100983
20
-4.0124282
10
-1.1942099
20
-3.996971
10
-1.1787995
20
-3.9816479
10
-1.163862
20
-3.9664676
10
-1.1493926
20
-3.9514385
10
-1.1353861
20
-3.936569
10
-1.1218373
20
-3.9218674
10
-1.1087409
20
-3.9073417
10
-1.0960913
20
-3.8930002
10
-1.0838829
20
-3.8788507
10
-1.07211
20
-3.8649013
10
-1.0607668
20
-3.8511595
10
-1.0498472
20
-3.8376332
10
-1.0393453
20
-3.8243299
10
-1.0292548
20
-3.811257
10
-1.0195694
20
-3.7984219
10
-1.0102826
20
-3.7858318
10
-1.001388
20
-3.7734939
10
-0.992879
20
-3.7614152
10
-0.9847487
20
-3.7496026
10
-0.9769903
20
-3.7380629
10
-0.9695969
20
-3.7268027
10
-0.9625615
20
-3.7158285
10
-0.9558768
20
-3.7051469
10
-0.9495356
20
-3.694764
10
-0.9435307
20
-3.6846862
10
-0.9378545
20
-3.6749194
10
-0.9324995
20
-3.6654695
10
-0.9274582
20
-3.6563425
10
-0.9227227
20
-3.6475438
10
-0.9182854
20
-3.6390792
10
-0.9141383
20
-3.630954
10
-0.9102736
20
-3.6231734
10
-0.906683
20
-3.6157426
10
-0.9033587
20
-3.6086667
10
-0.9002922
20
-3.6019505
10
-0.8933854
20
-3.6034038
10
-0.7242728
20
-3.6411654
10
-0.7174039
20
-3.6427881
10
-0.7174856
20
-3.6501708
10
-0.7174869
20
-3.6579887
10
-0.7173983
20
-3.666241
10
-0.7172103
20
-3.6749265
10
-0.7169134
20
-3.6840441
10
-0.7164982
20
-3.6935922
10
-0.7159553
20
-3.7035695
10
-0.7152752
20
-3.7139741
10
-0.7144486
20
-3.7248042
10
-0.7134661
20
-3.7360579
10
-0.7123184
20
-3.7477329
10
-0.7109962
20
-3.7598269
10
-0.7094901
20
-3.7723374
10
-0.7077911
20
-3.7852619
10
-0.7058898
20
-3.7985976
10
-0.703777
20
-3.8123415
10
-0.7014438
20
-3.8264905
10
-0.6988809
20
-3.8410415
10
-0.6960794
20
-3.8559911
10
-0.6930303
20
-3.8713356
10
-0.6897245
20
-3.8870715
10
-0.6861533
20
-3.903195
10
-0.6823078
20
-3.919702
10
-0.6781793
20
-3.9365885
10
-0.6737588
20
-3.9538501
10
-0.669038
20
-3.9714825
10
-0.664008
20
-3.9894812
10
-0.6586604
20
-4.0078413
10
-0.6529868
20
-4.0265582
10
-0.6469787
20
-4.0456268
10
-0.6406277
20
-4.065042
10
-0.6339256
20
-4.0847985
10
-0.6268643
20
-4.1048909
10
-0.6194356
20
-4.1253138
10
-0.6116316
20
-4.1460614
10
-0.6034441
20
-4.1671279
10
-0.5948654
20
-4.1885073
10
-0.590427
20
-4.1993126
10
-0.58817
20
-4.2047437
10
-0.587032
20
-4.2074664
10
-0.5864607
20
-4.2088295
10
-0.5863176
20
-4.2091704
10
-0.586246
20
-4.2093409
10
-0.5862269
20
-4.209375
10
-0.4439547
20
-4.2267487
10
-0.443928
20
-4.2267202
10
-0.4438175
20
-4.2265719
10
-0.4435966
20
-4.2262754
10
-0.442714
20
-4.2250898
10
-0.4409543
20
-4.222721
10
-0.4374567
20
-4.2179926
10
-0.4305484
20
-4.208573
10
-0.417077
20
-4.1898862
10
-0.4040607
20
-4.171409
10
-0.3914932
20
-4.1531491
10
-0.3793682
20
-4.135114
10
-0.3676793
20
-4.1173113
10
-0.3564199
20
-4.0997481
10
-0.3455835
20
-4.0824318
10
-0.3351632
20
-4.0653694
10
-0.3251522
20
-4.0485679
10
-0.3155435
20
-4.0320341
10
-0.3063301
20
-4.0157748
10
-0.2975049
20
-3.9997965
10
-0.2890605
20
-3.9841059
10
-0.2809896
20
-3.9687092
10
-0.2732848
20
-3.9536126
10
-0.2659386
20
-3.9388224
10
-0.2589433
20
-3.9243444
10
-0.2522912
20
-3.9101845
10
-0.2459745
20
-3.8963484
10
-0.2399854
20
-3.8828418
10
-0.2343158
20
-3.86967
10
-0.2289578
20
-3.8568384
10
-0.2239033
20
-3.8443522
10
-0.2191439
20
-3.8322163
10
-0.2146716
20
-3.8204358
10
-0.2104779
20
-3.8090154
10
-0.2065544
20
-3.7979597
10
-0.2028927
20
-3.7872732
10
-0.1994842
20
-3.7769602
10
-0.1963203
20
-3.767025
10
-0.1933924
20
-3.7574716
10
-0.1906917
20
-3.7483039
10
-0.1882094
20
-3.7395257
10
-0.1859368
20
-3.7311407
10
-0.183865
20
-3.7231522
10
-0.1819849
20
-3.7155637
10
-0.1802877
20
-3.7083783
10
-0.1732301
20
-3.7084562
10
0
20
-3.7125
10
0.0070536
20
-3.7127515
10
0.0084137
20
-3.7200083
10
0.0099376
20
-3.7276762
10
0.0116344
20
-3.7357527
10
0.0135133
20
-3.7442346
10
0.0155832
20
-3.7531191
10
0.0178532
20
-3.7624028
10
0.0203322
20
-3.7720824
10
0.023029
20
-3.7821544
10
0.0259526
20
-3.7926152
10
0.0291117
20
-3.8034609
10
0.032515
20
-3.8146877
10
0.0361713
20
-3.8262913
10
0.040089
20
-3.8382677
10
0.0442769
20
-3.8506124
10
0.0487434
20
-3.8633209
10
0.0534968
20
-3.8763885
10
0.0585455
20
-3.8898105
10
0.0638979
20
-3.9035819
10
0.0695621
20
-3.9176976
10
0.0755462
20
-3.9321525
10
0.0818584
20
-3.9469411
10
0.0885065
20
-3.9620581
10
0.0954984
20
-3.9774977
10
0.1028421
20
-3.9932542
10
0.1105451
20
-4.0093218
10
0.1186152
20
-4.0256944
10
0.1270599
20
-4.0423659
10
0.1358866
20
-4.0593301
10
0.1451027
20
-4.0765804
10
0.1547155
20
-4.0941105
10
0.1647321
20
-4.1119136
10
0.1751597
20
-4.129983
10
0.1860052
20
-4.1483118
10
0.1972754
20
-4.1668929
10
0.2089772
20
-4.1857194
10
0.2211172
20
-4.2047838
10
0.233702
20
-4.2240788
10
0.2401632
20
-4.2338105
10
0.2434363
20
-4.238697
10
0.2450836
20
-4.2411454
10
0.2459099
20
-4.2423708
10
0.2461167
20
-4.2426773
10
0.2462202
20
-4.2428305
10
0.2462456
20
-4.2428603
10
0.3891735
20
-4.2321441
10
0.3891942
20
-4.232111
10
0.3892736
20
-4.231944
10
0.3894325
20
-4.2316101
10
0.3900668
20
-4.2302751
10
0.3913305
20
-4.2276085
10
0.3938385
20
-4.2222886
10
0.3987763
20
-4.2117023
10
0.4083432
20
-4.1907464
10
0.4175047
20
-4.1700849
10
0.4262684
20
-4.149724
10
0.434642
20
-4.12967
10
0.4426332
20
-4.109929
10
0.4502498
20
-4.0905067
10
0.4574997
20
-4.071409
10
0.4643911
20
-4.0526416
10
0.4709319
20
-4.0342098
10
0.4771304
20
-4.0161192
10
0.4829947
20
-3.9983748
10
0.4885332
20
-3.9809819
10
0.4937542
20
-3.9639453
10
0.4986663
20
-3.9472699
10
0.5032778
20
-3.9309603
10
0.5075975
20
-3.9150211
10
0.5116339
20
-3.8994565
10
0.5153957
20
-3.884271
10
0.5188917
20
-3.8694684
10
0.5221307
20
-3.8550529
10
0.5251216
20
-3.8410281
10
0.5278734
20
-3.8273978
10
0.5303949
20
-3.8141654
10
0.5326952
20
-3.8013342
10
0.5347833
20
-3.7889076
10
0.5366684
20
-3.7768884
10
0.5383597
20
-3.7652797
10
0.5398662
20
-3.7540842
10
0.5411973
20
-3.7433044
10
0.5423621
20
-3.7329429
10
0.54337
20
-3.7230018
10
0.5442302
20
-3.7134834
10
0.5449522
20
-3.7043896
10
0.5455453
20
-3.6957223
10
0.5460189
20
-3.6874832
10
0.5463824
20
-3.6796737
10
0.5466452
20
-3.6722952
10
0.5535824
20
-3.6709948
10
0.7242728
20
-3.6411654
10
0.7312399
20
-3.6400359
10
0.7339896
20
-3.6468879
10
0.7369802
20
-3.6541113
10
0.7402201
20
-3.6617015
10
0.7437176
20
-3.6696539
10
0.747481
20
-3.6779638
10
0.7515185
20
-3.6866263
10
0.7558383
20
-3.6956363
10
0.7604482
20
-3.7049886
10
0.7653564
20
-3.7146781
10
0.7705707
20
-3.7246991
10
0.7760989
20
-3.7350461
10
0.7819486
20
-3.7457136
10
0.7881276
20
-3.7566955
10
0.7946434
20
-3.767986
10
0.8015033
20
-3.7795789
10
0.8087147
20
-3.7914681
10
0.816285
20
-3.8036472
10
0.8242212
20
-3.8161098
10
0.8325304
20
-3.8288493
10
0.8412195
20
-3.841859
10
0.8502955
20
-3.855132
10
0.859765
20
-3.8686615
10
0.8696348
20
-3.8824404
10
0.8799113
20
-3.8964615
10
0.8906009
20
-3.9107175
10
0.9017101
20
-3.9252012
10
0.9132449
20
-3.9399049
10
0.9252116
20
-3.954821
10
0.937616
20
-3.9699419
10
0.950464
20
-3.9852598
10
0.9637614
20
-4.0007667
10
0.9775138
20
-4.0164545
10
0.9917266
20
-4.0323153
10
1.0064053
20
-4.0483407
10
1.0215551
20
-4.0645225
10
1.0371811
20
-4.0808522
10
1.0532884
20
-4.0973214
10
1.061524
20
-4.1056055
10
1.0656875
20
-4.1097596
10
1.0677808
20
-4.1118395
10
1.0688303
20
-4.1128802
10
1.0690929
20
-4.1131404
10
1.0692243
20
-4.1132706
10
1.069255
20
-4.1132948
10
1.207346
20
-4.0749007
10
1.2073598
20
-4.0748641
10
1.2074051
20
-4.0746849
10
1.2074958
20
-4.0743264
10
1.2078575
20
-4.0728933
10
1.2085768
20
-4.0700314
10
1.2099986
20
-4.0643245
10
1.2127763
20
-4.0529782
10
1.2180711
20
-4.0305586
10
1.2230257
20
-4.0085067
10
1.2276488
20
-3.9868274
10
1.2319491
20
-3.9655251
10
1.2359354
20
-3.9446044
10
1.2396166
20
-3.9240694
10
1.2430015
20
-3.9039243
10
1.2460991
20
-3.884173
10
1.2489184
20
-3.8648193
10
1.2514684
20
-3.845867
10
1.2537583
20
-3.8273196
10
1.2557972
20
-3.8091804
10
1.2575942
20
-3.7914526
10
1.2591587
20
-3.7741393
10
1.2604998
20
-3.7572434
10
1.2616268
20
-3.7407677
10
1.2625492
20
-3.7247148
10
1.2632762
20
-3.7090871
10
1.2638172
20
-3.6938869
10
1.2641816
20
-3.6791165
10
1.264379
20
-3.6647777
10
1.2644187
20
-3.6508724
10
1.2643102
20
-3.6374023
10
1.2640631
20
-3.624369
10
1.2636868
20
-3.6117737
10
1.2631909
20
-3.5996178
10
1.2625849
20
-3.5879022
10
1.2618783
20
-3.5766278
10
1.2610808
20
-3.5657955
10
1.2602018
20
-3.5554058
10
1.2592509
20
-3.5454591
10
1.2582377
20
-3.5359558
10
1.2571717
20
-3.5268959
10
1.2560625
20
-3.5182795
10
1.2549196
20
-3.5101062
10
1.2537525
20
-3.5023759
10
1.2525708
20
-3.4950879
10
1.259121
20
-3.4924591
10
1.4207122
20
-3.4299028
10
1.4273251
20
-3.4274358
10
1.4313587
20
-3.4336197
10
1.4357011
20
-3.4401208
10
1.4403595
20
-3.4469331
10
1.4453412
20
-3.4540504
10
1.4506535
20
-3.4614664
10
1.4563034
20
-3.4691748
10
1.4622979
20
-3.4771689
10
1.4686439
20
-3.4854422
10
1.4753481
20
-3.4939879
10
1.4824172
20
-3.5027991
10
1.4898577
20
-3.5118689
10
1.4976762
20
-3.5211901
10
1.5058789
20
-3.5307556
10
1.5144721
20
-3.5405579
10
1.5234619
20
-3.5505898
10
1.5328542
20
-3.5608437
10
1.5426551
20
-3.5713119
10
1.5528701
20
-3.5819867
10
1.563505
20
-3.5928604
10
1.5745652
20
-3.6039249
10
1.5860562
20
-3.6151723
10
1.5979833
20
-3.6265944
10
1.6103515
20
-3.638183
10
1.6231659
20
-3.6499299
10
1.6364314
20
-3.6618266
10
1.6501527
20
-3.6738646
10
1.6643345
20
-3.6860354
10
1.6789812
20
-3.6983304
10
1.6940972
20
-3.7107408
10
1.7096867
20
-3.7232578
10
1.7257538
20
-3.7358725
10
1.7423025
20
-3.748576
10
1.7593366
20
-3.7613592
10
1.7768596
20
-3.7742131
10
1.7948752
20
-3.7871283
10
1.8133868
20
-3.8000958
10
1.8323975
20
-3.8131061
10
1.842091
20
-3.8196244
10
1.846985
20
-3.8228864
10
1.8494438
20
-3.824518
10
1.8506761
20
-3.8253339
10
1.8509845
20
-3.8255379
10
1.8511388
20
-3.8256399
10
1.8511736
20
-3.8256576
10
1.9791209
20
-3.7610611
10
1.9791273
20
-3.7610226
10
1.9791368
20
-3.7608379
10
1.9791557
20
-3.7604686
10
1.9792309
20
-3.7589925
10
1.979378
20
-3.7560453
10
1.9796592
20
-3.7501706
10
1.9801699
20
-3.7385005
10
1.9809892
20
-3.7154786
10
1.9815465
20
-3.6928839
10
1.9818513
20
-3.6707192
10
1.9819131
20
-3.6489873
10
1.9817414
20
-3.6276909
10
1.9813457
20
-3.6068323
10
1.9807354
20
-3.5864139
10
1.9799202
20
-3.5664378
10
1.9789096
20
-3.546906
10
1.9777133
20
-3.5278204
10
1.9763407
20
-3.5091826
10
1.9748016
20
-3.4909941
10
1.9731056
20
-3.4732564
10
1.9712624
20
-3.4559706
10
1.9692815
20
-3.4391377
10
1.9671726
20
-3.4227587
10
1.9649455
20
-3.4068343
10
1.9626097
20
-3.3913651
10
1.9601749
20
-3.3763514
10
1.9576508
20
-3.3617937
10
1.955047
20
-3.3476919
10
1.9523731
20
-3.3340461
10
1.9496389
20
-3.320856
10
1.9468538
20
-3.3081213
10
1.9440275
20
-3.2958414
10
1.9411696
20
-3.2840158
10
1.9382896
20
-3.2726435
10
1.9353972
20
-3.2617237
10
1.9325016
20
-3.2512551
10
1.9296126
20
-3.2412365
10
1.9267395
20
-3.2316665
10
1.9238917
20
-3.2225434
10
1.9210787
20
-3.2138656
10
1.9183099
20
-3.2056311
10
1.9155944
20
-3.1978379
10
1.9129417
20
-3.1904837
10
1.9103609
20
-3.1835664
10
1.9162723
20
-3.1797101
10
2.0625545
20
-3.0868309
10
2.068559
20
-3.0831213
10
2.0737216
20
-3.0883994
10
2.0792488
20
-3.0939285
10
2.0851467
20
-3.0997011
10
2.0914212
20
-3.1057097
10
2.0980782
20
-3.1119469
10
2.1051234
20
-3.1184049
10
2.1125623
20
-3.1250759
10
2.1204003
20
-3.1319522
10
2.1286429
20
-3.1390258
10
2.1372951
20
-3.1462886
10
2.1463622
20
-3.1537325
10
2.1558489
20
-3.1613493
10
2.1657601
20
-3.1691307
10
2.1761005
20
-3.1770683
10
2.1868747
20
-3.1851536
10
2.198087
20
-3.193378
10
2.2097418
20
-3.2017331
10
2.2218431
20
-3.21021
10
2.234395
20
-3.2187999
10
2.2474013
20
-3.2274941
10
2.2608657
20
-3.2362835
10
2.274792
20
-3.2451593
10
2.2891834
20
-3.2541124
10
2.3040432
20
-3.2631335
10
2.3193748
20
-3.2722137
10
2.3351809
20
-3.2813435
10
2.3514646
20
-3.2905137
10
2.3682285
20
-3.2997151
10
2.3854752
20
-3.308938
10
2.4032071
20
-3.3181731
10
2.4214265
20
-3.3274109
10
2.4401356
20
-3.3366418
10
2.4593362
20
-3.3458562
10
2.4790302
20
-3.3550445
10
2.4992193
20
-3.3641969
10
2.519905
20
-3.3733038
10
2.5410886
20
-3.3823553
10
2.5518675
20
-3.3868573
10
2.5573038
20
-3.3891018
10
2.5600337
20
-3.3902223
10
2.5614015
20
-3.3907822
10
2.5617438
20
-3.3909221
10
2.561915
20
-3.3909921
10
2.5619526
20
-3.3910027
10
2.6748392
20
-3.302686
10
2.674838
20
-3.302647
10
2.6748113
20
-3.302464
10
2.6747579
20
-3.3020981
10
2.6745436
20
-3.3006357
10
2.6741129
20
-3.2977164
10
2.6732426
20
-3.2918998
10
2.6714668
20
-3.2803542
10
2.6677789
20
-3.2576149
10
2.6639175
20
-3.2353456
10
2.6598924
20
-3.2135474
10
2.6557134
20
-3.192221
10
2.6513902
20
-3.1713672
10
2.6469328
20
-3.1509867
10
2.6423508
20
-3.1310796
10
2.6376541
20
-3.1116464
10
2.6328525
20
-3.0926871
10
2.6279557
20
-3.0742016
10
2.6229735
20
-3.0561897
10
2.6179155
20
-3.038651
10
2.6127917
20
-3.0215849
10
2.6076115
20
-3.0049908
10
2.6023848
20
-2.9888679
10
2.597121
20
-2.973215
10
2.59183
20
-2.9580311
10
2.5865212
20
-2.9433148
10
2.5812042
20
-2.9290646
10
2.5758885
20
-2.915279
10
2.5705836
20
-2.9019562
10
2.5652989
20
-2.8890942
10
2.560044
20
-2.876691
10
2.554828
20
-2.8647443
10
2.5496603
20
-2.8532518
10
2.5445503
20
-2.8422109
10
2.539507
20
-2.8316191
10
2.5345398
20
-2.8214733
10
2.5296576
20
-2.8117708
10
2.5248695
20
-2.8025083
10
2.5201846
20
-2.7936827
10
2.5156117
20
-2.7852905
10
2.5111598
20
-2.7773282
10
2.5068377
20
-2.7697921
10
2.502654
20
-2.7626784
10
2.4986175
20
-2.7559831
10
2.4947368
20
-2.7497021
10
2.4997824
20
-2.7447667
10
2.6251339
20
-2.6251339
10
2.6302994
20
-2.6203241
10
2.6363924
20
-2.6244937
10
2.6428921
20
-2.6288382
10
2.6498028
20
-2.6333492
10
2.657129
20
-2.6380183
10
2.664875
20
-2.6428369
10
2.6730446
20
-2.6477964
10
2.681642
20
-2.652888
10
2.690671
20
-2.6581031
10
2.7001352
20
-2.6634327
10
2.7100381
20
-2.6688679
10
2.7203831
20
-2.6743999
10
2.7311735
20
-2.6800196
10
2.7424124
20
-2.6857179
10
2.7541026
20
-2.6914856
10
2.7662471
20
-2.6973136
10
2.7788485
20
-2.7031927
10
2.7919093
20
-2.7091134
10
2.8054319
20
-2.7150666
10
2.8194184
20
-2.7210427
10
2.8338709
20
-2.7270324
10
2.8487914
20
-2.7330262
10
2.8641816
20
-2.7390146
10
2.8800432
20
-2.744988
10
2.8963775
20
-2.7509368
10
2.9131858
20
-2.7568514
10
2.9304694
20
-2.7627222
10
2.9482293
20
-2.7685395
10
2.9664661
20
-2.7742935
10
2.9851808
20
-2.7799746
10
3.0043736
20
-2.7855729
10
3.0240452
20
-2.7910788
10
3.0441956
20
-2.7964823
10
3.0648249
20
-2.8017739
10
3.085933
20
-2.8069435
10
3.1075197
20
-2.8119813
10
3.1295846
20
-2.8168776
10
3.1521271
20
-2.8216225
10
3.1635772
20
-2.8239351
10
3.1693469
20
-2.8250759
10
3.1722429
20
-2.8256424
10
3.1736937
20
-2.8259246
10
3.1740567
20
-2.8259951
10
3.1742382
20
-2.8260303
10
3.1742772
20
-2.8260333
10
3.267765
20
-2.7173906
10
3.2677562
20
-2.7173525
10
3.2676943
20
-2.7171783
10
3.2675705
20
-2.7168299
10
3.2670751
20
-2.7154374
10
3.2660832
20
-2.7126582
10
3.2640948
20
-2.7071231
10
3.2601007
20
-2.6961458
10
3.2520474
20
-2.6745629
10
3.2439157
20
-2.6534749
10
3.2357153
20
-2.6328807
10
3.227456
20
-2.6127794
10
3.2191475
20
-2.5931697
10
3.2107997
20
-2.5740504
10
3.2024221
20
-2.5554198
10
3.1940244
20
-2.5372762
10
3.1856163
20
-2.519618
10
3.1772072
20
-2.502443
10
3.1688068
20
-2.4857491
10
3.1604244
20
-2.4695342
10
3.1520696
20
-2.4537957
10
3.1437516
20
-2.438531
10
3.1354799
20
-2.4237375
10
3.1272636
20
-2.4094123
10
3.1191119
20
-2.3955524
10
3.1110341
20
-2.3821546
10
3.1030392
20
-2.3692155
10
3.0951362
20
-2.3567319
10
3.0873341
20
-2.3447
10
3.0796418
20
-2.3331161
10
3.072068
20
-2.3219764
10
3.0646216
20
-2.3112768
10
3.0573111
20
-2.3010133
10
3.0501453
20
-2.2911815
10
3.0431326
20
-2.281777
10
3.0362814
20
-2.2727953
10
3.0296002
20
-2.2642317
10
3.0230971
20
-2.2560813
10
3.0167804
20
-2.2483392
10
3.0106582
20
-2.2410004
10
3.0047384
20
-2.2340596
10
2.9990291
20
-2.2275115
10
2.993538
20
-2.2213507
10
2.9882729
20
-2.2155715
10
2.9832414
20
-2.2101683
10
2.9872272
20
-2.2043434
10
3.0868309
20
-2.0625545
10
3.0909588
20
-2.0568294
10
3.0977482
20
-2.0597301
10
3.1049705
20
-2.0627231
10
3.1126286
20
-2.0657993
10
3.1207249
20
-2.0689494
10
3.129262
20
-2.0721642
10
3.1382423
20
-2.0754346
10
3.1476678
20
-2.0787511
10
3.1575407
20
-2.0821045
10
3.1678628
20
-2.0854853
10
3.1786358
20
-2.0888842
10
3.1898612
20
-2.0922917
10
3.2015406
20
-2.0956983
10
3.2136752
20
-2.0990945
10
3.2262661
20
-2.1024707
10
3.2393143
20
-2.1058175
10
3.2528205
20
-2.1091251
10
3.2667854
20
-2.1123841
10
3.2812095
20
-2.1155847
10
3.2960932
20
-2.1187174
10
3.3114365
20
-2.1217725
10
3.3272397
20
-2.1247403
10
3.3435024
20
-2.1276111
10
3.3602245
20
-2.1303753
10
3.3774055
20
-2.1330231
10
3.3950448
20
-2.1355449
10
3.4131417
20
-2.137931
10
3.4316951
20
-2.1401718
10
3.4507041
20
-2.1422574
10
3.4701675
20
-2.1441782
10
3.4900838
20
-2.1459247
10
3.5104515
20
-2.147487
10
3.5312689
20
-2.1488556
10
3.5525341
20
-2.1500209
10
3.5742452
20
-2.1509732
10
3.5964
20
-2.1517029
10
3.6189961
20
-2.1522005
10
3.6420311
20
-2.1524564
10
3.6537123
20
-2.1524907
10
3.6595937
20
-2.152484
10
3.6625446
20
-2.1524746
10
3.6640226
20
-2.1524683
10
3.6643924
20
-2.1524666
10
3.6645773
20
-2.1524657
10
3.6646161
20
-2.1524611
10
3.7351125
20
-2.0276674
10
3.7350964
20
-2.0276318
10
3.7350017
20
-2.0274729
10
3.7348123
20
-2.0271554
10
3.7340547
20
-2.0258863
10
3.7325396
20
-2.023354
10
3.7295096
20
-2.0183132
10
3.7234507
20
-2.0083261
10
3.7113416
20
-1.988729
10
3.699252
20
-1.9696325
10
3.6871915
20
-1.9510339
10
3.6751693
20
-1.9329301
10
3.6631949
20
-1.9153182
10
3.6512774
20
-1.8981948
10
3.6394261
20
-1.8815565
10
3.6276502
20
-1.8653999
10
3.6159586
20
-1.8497213
10
3.6043605
20
-1.8345168
10
3.5928646
20
-1.8197826
10
3.58148
20
-1.8055145
10
3.5702152
20
-1.7917084
10
3.5590791
20
-1.7783598
10
3.5480802
20
-1.7654643
10
3.5372271
20
-1.7530173
10
3.5265282
20
-1.741014
10
3.5159918
20
-1.7294495
10
3.5056262
20
-1.7183188
10
3.4954396
20
-1.7076168
10
3.4854401
20
-1.6973382
10
3.4756357
20
-1.6874776
10
3.4660342
20
-1.6780295
10
3.4566435
20
-1.6689883
10
3.4474712
20
-1.6603482
10
3.438525
20
-1.6521033
10
3.4298123
20
-1.6442476
10
3.4213405
20
-1.6367751
10
3.4131169
20
-1.6296794
10
3.4051488
20
-1.6229543
10
3.397443
20
-1.6165934
10
3.3900067
20
-1.6105899
10
3.3828467
20
-1.6049374
10
3.3759696
20
-1.599629
10
3.3693821
20
-1.5946578
10
3.3630907
20
-1.5900168
10
3.3571017
20
-1.585699
10
3.3598745
20
-1.5792085
10
3.4299028
20
-1.4207122
10
3.4328344
20
-1.4142918
10
3.4400593
20
-1.4158123
10
3.4477267
20
-1.4173388
10
3.4558377
20
-1.4188618
10
3.4643931
20
-1.4203719
10
3.4733933
20
-1.4218595
10
3.482839
20
-1.423315
10
3.4927305
20
-1.424729
10
3.5030679
20
-1.4260918
10
3.5138512
20
-1.4273939
10
3.5250803
20
-1.4286258
10
3.5367548
20
-1.4297778
10
3.5488744
20
-1.4308404
10
3.5614384
20
-1.431804
10
3.574446
20
-1.432659
10
3.5878964
20
-1.4333959
10
3.6017883
20
-1.4340051
10
3.6161207
20
-1.434477
10
3.6308921
20
-1.4348022
10
3.6461009
20
-1.434971
10
3.6617455
20
-1.434974
10
3.677824
20
-1.4348017
10
3.6943343
20
-1.4344447
10
3.7112744
20
-1.4338934
10
3.7286418
20
-1.4331385
10
3.7464341
20
-1.4321707
10
3.7646488
20
-1.4309804
10
3.7832829
20
-1.4295585
10
3.8023335
20
-1.4278955
10
3.8217976
20
-1.4259824
10
3.8416719
20
-1.4238098
10
3.8619531
20
-1.4213686
10
3.8826375
20
-1.4186496
10
3.9037214
20
-1.4156438
10
3.9252011
20
-1.4123422
10
3.9470726
20
-1.4087357
10
3.9693316
20
-1.4048154
10
3.9919739
20
-1.4005725
10
4.0034374
20
-1.3983273
10
4.0092045
20
-1.3971733
10
4.0120968
20
-1.3965884
10
4.0135452
20
-1.3962939
10
4.0139075
20
-1.3962201
10
4.0140887
20
-1.3961832
10
4.0141258
20
-1.3961711
10
4.0589216
20
-1.260022
10
4.0588989
20
-1.2599902
10
4.058775
20
-1.2598529
10
4.0585273
20
-1.2595784
10
4.0575367
20
-1.2584815
10
4.0555567
20
-1.2562935
10
4.0516015
20
-1.2519406
10
4.0437106
20
-1.2433274
10
4.028011
20
-1.2264693
10
4.0124282
20
-1.2100983
10
3.996971
20
-1.1942099
10
3.9816479
20
-1.1787995
10
3.9664676
20
-1.163862
10
3.9514385
20
-1.1493926
10
3.936569
20
-1.1353861
10
3.9218674
20
-1.1218373
10
3.9073417
20
-1.1087409
10
3.8930002
20
-1.0960913
10
3.8788507
20
-1.0838829
10
3.8649013
20
-1.07211
10
3.8511595
20
-1.0607668
10
3.8376332
20
-1.0498472
10
3.8243299
20
-1.0393453
10
3.811257
20
-1.0292548
10
3.7984219
20
-1.0195694
10
3.7858318
20
-1.0102826
10
3.7734939
20
-1.001388
10
3.7614152
20
-0.992879
10
3.7496026
20
-0.9847487
10
3.7380629
20
-0.9769903
10
3.7268027
20
-0.9695969
10
3.7158285
20
-0.9625615
10
3.7051469
20
-0.9558768
10
3.694764
20
-0.9495356
10
3.6846862
20
-0.9435307
10
3.6749194
20
-0.9378545
10
3.6654695
20
-0.9324995
10
3.6563425
20
-0.9274582
10
3.6475438
20
-0.9227227
10
3.6390792
20
-0.9182854
10
3.630954
20
-0.9141383
10
3.6231734
20
-0.9102736
10
3.6157426
20
-0.906683
10
3.6086667
20
-0.9033587
10
3.6019505
20
-0.9002922
10
3.6034038
20
-0.8933854
10
3.6411654
20
-0.7242728
10
3.6427881
20
-0.7174039
10
3.6501708
20
-0.7174856
10
3.6579887
20
-0.7174869
10
3.666241
20
-0.7173983
10
3.6749265
20
-0.7172103
10
3.6840441
20
-0.7169134
10
3.6935922
20
-0.7164982
10
3.7035695
20
-0.7159553
10
3.7139741
20
-0.7152752
10
3.7248042
20
-0.7144486
10
3.7360579
20
-0.7134661
10
3.7477329
20
-0.7123184
10
3.7598269
20
-0.7109962
10
3.7723374
20
-0.7094901
10
3.7852619
20
-0.7077911
10
3.7985976
20
-0.7058898
10
3.8123415
20
-0.703777
10
3.8264905
20
-0.7014438
10
3.8410415
20
-0.6988809
10
3.8559911
20
-0.6960794
10
3.8713356
20
-0.6930303
10
3.8870715
20
-0.6897245
10
3.903195
20
-0.6861533
10
3.919702
20
-0.6823078
10
3.9365885
20
-0.6781793
10
3.9538501
20
-0.6737588
10
3.9714825
20
-0.669038
10
3.9894812
20
-0.664008
10
4.0078413
20
-0.6586604
10
4.0265582
20
-0.6529868
10
4.0456268
20
-0.6469787
10
4.065042
20
-0.6406277
10
4.0847985
20
-0.6339256
10
4.1048909
20
-0.6268643
10
4.1253138
20
-0.6194356
10
4.1460614
20
-0.6116316
10
4.1671279
20
-0.6034441
10
4.1885073
20
-0.5948654
10
4.1993126
20
-0.590427
10
4.2047437
20
-0.58817
10
4.2074664
20
-0.587032
10
4.2088295
20
-0.5864607
10
4.2091704
20
-0.5863176
10
4.2093409
20
-0.586246
10
4.209375
20
-0.5862269
10
4.2267487
20
-0.4439547
10
4.2267202
20
-0.443928
10
4.2265719
20
-0.4438175
10
4.2262754
20
-0.4435966
10
4.2250898
20
-0.442714
10
4.222721
20
-0.4409543
10
4.2179926
20
-0.4374567
10
4.208573
20
-0.4305484
10
4.1898862
20
-0.417077
10
4.171409
20
-0.4040607
10
4.1531491
20
-0.3914932
10
4.135114
20
-0.3793682
10
4.1173113
20
-0.3676793
10
4.0997481
20
-0.3564199
10
4.0824318
20
-0.3455835
10
4.0653694
20
-0.3351632
10
4.0485679
20
-0.3251522
10
4.0320341
20
-0.3155435
10
4.0157748
20
-0.3063301
10
3.9997965
20
-0.2975049
10
3.9841059
20
-0.2890605
10
3.9687092
20
-0.2809896
10
3.9536126
20
-0.2732848
10
3.9388224
20
-0.2659386
10
3.9243444
20
-0.2589433
10
3.9101845
20
-0.2522912
10
3.8963484
20
-0.2459745
10
3.8828418
20
-0.2399854
10
3.86967
20
-0.2343158
10
3.8568384
20
-0.2289578
10
3.8443522
20
-0.2239033
10
3.8322163
20
-0.2191439
10
3.8204358
20
-0.2146716
10
3.8090154
20
-0.2104779
10
3.7979597
20
-0.2065544
10
3.7872732
20
-0.2028927
10
3.7769602
20
-0.1994842
10
3.767025
20
-0.1963203
10
3.7574716
20
-0.1933924
10
3.7483039
20
-0.1906917
10
3.7395257
20
-0.1882094
10
3.7311407
20
-0.1859368
10
3.7231522
20
-0.183865
10
3.7155637
20
-0.1819849
10
3.7083783
20
-0.1802877
10
3.7084562
20
-0.1732301
8
gear
0
LWPOLYLINE
5
1004
100
AcDbEntity
100
AcDbPolyline
90
5
70
0
43
0
10
2.7690563
20
1.9943629
10
2.7514167
20
2.0186289
10
2.7335644
20
2.0427389
10
2.7155008
20
2.066691
10
2.6972274
20
2.0904833
8
gear_texts
0
LWPOLYLINE
5
1005
100
AcDbEntity
100
AcDbPolyline
90
2
70
0
43
0
10
2.6855017
20
2.0068226
10
2.781627
20
2.0786552
8
gear_texts
0
LWPOLYLINE
5
1006
100
AcDbEntity
100
AcDbPolyline
90
5
70
0
43
0
10
2.817743
20
2.0294287
10
2.7756049
20
2.0363751
10
2.7335644
20
2.0427389
10
2.6916283
20
2.0485222
10
2.6498036
20
2.0537276
8
gear_texts
0
LWPOLYLINE
5
1007
100
AcDbEntity
100
AcDbPolyline
90
5
70
0
43
0
10
2.7203696
20
1.9592972
10
2.7272284
20
2.0008827
10
2.7335644
20
2.0427389
10
2.7393734
20
2.0848597
10
2.7446512
20
2.1272391
8
gear_texts
0
LWPOLYLINE
5
1008
100
AcDbEntity
100
AcDbPolyline
90
3
70
0
43
0
10
2.8529879
20
1.9795748
10
2.8950775
20
1.9713022
10
2.7462941
20
1.8699933
8
gear_texts
0
LWPOLYLINE
5
1009
100
AcDbEntity
100
AcDbPolyline
90
3
70
0
43
0
10
2.7626273
20
1.8457781
10
2.7462941
20
1.8699933
10
2.7297487
20
1.894064
8
gear_texts
0
LWPOLYLINE
5
1010
100
AcDbEntity
100
AcDbPolyline
90
7
70
0
43
0
10
3.0865587
20
1.6554944
10
2.9279347
20
1.5704155
10
2.9534834
20
1.6177121
10
2.9784237
20
1.6655776
10
3.0027477
20
1.7140049
10
3.0264473
20
1.7629869
10
2.8709126
20
1.6723837
8
gear_texts
0
LWPOLYLINE
5
1011
100
AcDbEntity
100
AcDbPolyline
90
5
70
0
43
0
10
3.1152518
20
1.4649274
10
3.1022531
20
1.4922573
10
3.0890147
20
1.5194718
10
3.0755375
20
1.5465689
10
3.0618226
20
1.5735465
8
gear_texts
0
LWPOLYLINE
5
1012
100
AcDbEntity
100
AcDbPolyline
90
5
70
0
43
0
10
3.0609555
20
1.4393949
10
3.0481834
20
1.4662484
10
3.0351756
20
1.4929886
10
3.0219333
20
1.5196135
10
3.0084575
20
1.5461209
8
gear_texts
0
LWPOLYLINE
5
1013
100
AcDbEntity
100
AcDbPolyline
90
13
70
0
43
0
10
3.1678944
20
1.4222171
10
3.2077502
20
1.4063588
10
3.2199897
20
1.3781048
10
3.2319803
20
1.3497443
10
3.2159376
20
1.3099623
10
3.1881542
20
1.2986452
10
3.1489315
20
1.3150614
10
3.1325872
20
1.2760108
10
3.1048037
20
1.2646937
10
3.0658828
20
1.2803784
10
3.0545084
20
1.3072814
10
3.0428979
20
1.3340834
10
3.0584207
20
1.3730692
8
gear_texts
0
LWPOLYLINE
5
1014
100
AcDbEntity
100
AcDbPolyline
90
2
70
0
43
0
10
3.137249
20
1.3426931
10
3.1489315
20
1.3150614
8
gear_texts
0
LWPOLYLINE
5
1015
100
AcDbEntity
100
AcDbPolyline
90
15
70
0
43
0
10
3.1388222
20
1.0894042
10
3.1291239
20
1.1169558
10
3.1191837
20
1.144421
10
3.1090024
20
1.1717978
10
3.0985809
20
1.1990841
10
3.1545372
20
1.220738
10
3.1932192
20
1.2035396
10
3.2036762
20
1.1754211
10
3.2138857
20
1.1472119
10
3.2521882
20
1.1287506
10
3.2805297
20
1.1385872
10
3.2986475
20
1.177468
10
3.2881688
20
1.2064213
10
3.277436
20
1.2352813
10
3.2384717
20
1.2532188
8
gear_texts
0
LWPOLYLINE
5
1016
100
AcDbEntity
100
AcDbPolyline
90
11
70
0
43
0
10
3.2865571
20
0.9185306
10
3.294505
20
0.8896027
10
3.3021983
20
0.860606
10
3.3096364
20
0.8315428
10
3.3459775
20
0.8094696
10
3.3751363
20
0.8165238
10
3.3969235
20
0.8534736
10
3.3892892
20
0.8833033
10
3.3813931
20
0.9130648
10
3.3732356
20
0.9427556
10
3.1998787
20
0.8943057
8
gear_texts
0
LWPOLYLINE
5
1017
100
AcDbEntity
100
AcDbPolyline
90
2
70
0
43
0
10
3.2425786
20
0.7243553
10
3.359692
20
0.7505171
8
gear_texts
0
LWPOLYLINE
5
1018
100
AcDbEntity
100
AcDbPolyline
90
2
70
0
43
0
10
3.3889704
20
0.7570576
10
3.4182487
20
0.763598
8
gear_texts
0
LWPOLYLINE
5
1019
100
AcDbEntity
100
AcDbPolyline
90
4
70
0
43
0
10
3.3058412
20
0.5573778
10
3.271276
20
0.5811706
10
3.2955307
20
0.6154133
10
3.4429818
20
0.6429486
8
gear_texts
0
LWPOLYLINE
5
1020
100
AcDbEntity
100
AcDbPolyline
90
5
70
0
43
0
10
3.3945887
20
0.5723409
10
3.389426
20
0.602161
10
3.3840013
20
0.6319344
10
3.3783152
20
0.6616591
10
3.3723679
20
0.6913326
8
gear_texts
0
LWPOLYLINE
5
1021
100
AcDbEntity
100
AcDbPolyline
90
10
70
0
43
0
10
3.3008256
20
0.3788882
10
3.2973673
20
0.4078915
10
3.293654
20
0.4368632
10
3.2896862
20
0.4658011
10
3.3151298
20
0.4991699
10
3.374461
20
0.5081036
10
3.4085011
20
0.4826246
10
3.4126122
20
0.4526415
10
3.4164595
20
0.4226234
10
3.4200428
20
0.3925727
8
gear_texts
0
LWPOLYLINE
5
1022
100
AcDbEntity
100
AcDbPolyline
90
6
70
0
43
0
10
3.3666966
20
0.3265893
10
3.3993217
20
0.2996137
10
3.4317304
20
0.2720895
10
3.4339898
20
0.2419103
10
3.4060405
20
0.2098675
10
3.3162109
20
0.2043325
8
gear_texts
0
LWPOLYLINE
5
1023
100
AcDbEntity
100
AcDbPolyline
90
2
70
0
43
0
10
3.3069769
20
0.3207962
10
3.4861359
20
0.3381756
8
gear_texts
0
LWPOLYLINE
5
1024
100
AcDbEntity
100
AcDbPolyline
90
10
70
0
43
0
10
3.3225
20
0
10
3.3223716
20
-0.0292084
10
3.3219865
20
-0.0584146
10
3.3213446
20
-0.0876162
10
3.3504274
20
-0.1178658
10
3.4703532
20
-0.1220847
10
3.501282
20
-0.0923629
10
3.5019586
20
-0.0615792
10
3.5023647
20
-0.0307908
10
3.5025
20
0
8
gear_texts
0
LWPOLYLINE
5
1025
100
AcDbEntity
100
AcDbPolyline
90
2
70
0
43
0
10
3.5023647
20
-0.0307908
10
3.3223716
20
-0.0292084
8
gear_texts
0
LWPOLYLINE
5
1026
100
AcDbEntity
100
AcDbPolyline
90
5
70
0
43
0
10
3.4292058
20
-0.3022477
10
3.4317304
20
-0.2720895
10
3.4339898
20
-0.2419103
10
3.4359837
20
-0.2117125
10
3.4377121
20
-0.1814982
8
gear_texts
0
LWPOLYLINE
5
1027
100
AcDbEntity
100
AcDbPolyline
90
5
70
0
43
0
10
3.3694375
20
-0.2969798
10
3.3719181
20
-0.2673472
10
3.3741381
20
-0.237694
10
3.3760973
20
-0.2080225
10
3.3777956
20
-0.1783349
8
gear_texts
0
LWPOLYLINE
5
1028
100
AcDbEntity
100
AcDbPolyline
90
19
70
0
43
0
10
3.3902385
20
-0.3891516
10
3.3636954
20
-0.3561737
10
3.3338622
20
-0.3530147
10
3.3008256
20
-0.3788882
10
3.2973673
20
-0.4078915
10
3.293654
20
-0.4368632
10
3.31939
20
-0.470007
10
3.3490937
20
-0.4742129
10
3.3828726
20
-0.4486969
10
3.3866865
20
-0.4189404
10
3.3902385
20
-0.3891516
10
3.4233618
20
-0.3624916
10
3.453195
20
-0.3656506
10
3.4796514
20
-0.3994149
10
3.4760057
20
-0.4299894
10
3.4720913
20
-0.4605307
10
3.4382048
20
-0.4868305
10
3.4085011
20
-0.4826246
10
3.3828726
20
-0.4486969
8
gear_texts
0
LWPOLYLINE
5
1029
100
AcDbEntity
100
AcDbPolyline
90
11
70
0
43
0
10
3.3429791
20
-0.6853079
10
3.3368253
20
-0.7146699
10
3.3304136
20
-0.7439766
10
3.3237446
20
-0.7732259
10
3.3459775
20
-0.8094696
10
3.3751363
20
-0.8165238
10
3.4114038
20
-0.7936187
10
3.4182487
20
-0.763598
10
3.4248295
20
-0.7335184
10
3.4311456
20
-0.703382
10
3.2548126
20
-0.6672339
8
gear_texts
0
LWPOLYLINE
5
1030
100
AcDbEntity
100
AcDbPolyline
90
5
70
0
43
0
10
3.2986463
20
-0.984753
10
3.3071759
20
-0.9557163
10
3.3154499
20
-0.9266056
10
3.3234677
20
-0.8974234
10
3.3312286
20
-0.8681718
8
gear_texts
0
LWPOLYLINE
5
1031
100
AcDbEntity
100
AcDbPolyline
90
5
70
0
43
0
10
3.2411536
20
-0.9675896
10
3.2495345
20
-0.9390589
10
3.2576643
20
-0.9104556
10
3.2655423
20
-0.881782
10
3.273168
20
-0.8530403
8
gear_texts
0
LWPOLYLINE
5
1032
100
AcDbEntity
100
AcDbPolyline
90
9
70
0
43
0
10
3.1856317
20
-1.1371265
10
3.1955052
20
-1.1090774
10
3.2051317
20
-1.0809425
10
3.2145106
20
-1.0527242
10
3.2236409
20
-1.0244244
10
3.252524
20
-1.0651732
10
3.2809368
20
-1.1065081
10
3.3088713
20
-1.1484238
10
3.1388222
20
-1.0894042
8
gear_texts
0
LWPOLYLINE
5
1033
100
AcDbEntity
100
AcDbPolyline
90
11
70
0
43
0
10
3.137249
20
-1.3426931
10
3.125324
20
-1.3702211
10
3.1131575
20
-1.3976432
10
3.1007504
20
-1.4249572
10
3.1152518
20
-1.4649274
10
3.1424
20
-1.4776937
10
3.1825285
20
-1.4625385
10
3.1952628
20
-1.4345041
10
3.2077502
20
-1.4063588
10
3.2199897
20
-1.3781048
10
3.0545084
20
-1.3072814
8
gear_texts
0
LWPOLYLINE
5
1034
100
AcDbEntity
100
AcDbPolyline
90
7
70
0
43
0
10
2.9813366
20
-1.4665055
10
3.0351756
20
-1.4929886
10
3.0755375
20
-1.5465689
10
3.1151877
20
-1.6009722
10
3.0478711
20
-1.6004025
10
2.9808094
20
-1.5987751
10
2.9279347
20
-1.5704155
8
gear_texts
0
LWPOLYLINE
5
1035
100
AcDbEntity
100
AcDbPolyline
90
5
70
0
43
0
10
3.0351756
20
-1.4929886
10
3.0219333
20
-1.5196135
10
3.0084575
20
-1.5461209
10
2.9947492
20
-1.5725087
10
2.9808094
20
-1.5987751
8
gear_texts
0
LWPOLYLINE
5
1036
100
AcDbEntity
100
AcDbPolyline
90
5
70
0
43
0
10
2.9436776
20
-1.784816
10
2.9592544
20
-1.7588689
10
2.9746024
20
-1.7327858
10
2.9897205
20
-1.7065689
10
3.0046076
20
-1.68022
8
gear_texts
0
LWPOLYLINE
5
1037
100
AcDbEntity
100
AcDbPolyline
90
5
70
0
43
0
10
2.8923717
20
-1.7537081
10
2.907677
20
-1.7282132
10
2.9227575
20
-1.7025848
10
2.9376121
20
-1.6768248
10
2.9522397
20
-1.6509351
8
gear_texts
0
LWPOLYLINE
5
1038
100
AcDbEntity
100
AcDbPolyline
90
15
70
0
43
0
10
2.7462941
20
-1.8699933
10
2.7626273
20
-1.8457781
10
2.7787469
20
-1.8214203
10
2.7946518
20
-1.7969217
10
2.8103407
20
-1.7722842
10
2.8610918
20
-1.8042893
10
2.8703534
20
-1.8455968
10
2.8540177
20
-1.870759
10
2.8374614
20
-1.8957766
10
2.845483
20
-1.9375326
10
2.8702803
20
-1.9544174
10
2.9122955
20
-1.9457751
10
2.9292885
20
-1.9200977
10
2.9460551
20
-1.8942718
10
2.9372184
20
-1.852297
8
gear_texts
0
LWPOLYLINE
5
1039
100
AcDbEntity
100
AcDbPolyline
90
9
70
0
43
0
10
2.6916283
20
-2.0485222
10
2.709533
20
-2.0247807
10
2.7272284
20
-2.0008827
10
2.7447129
20
-1.9768301
10
2.7619854
20
-1.9526246
10
2.7771707
20
-2.0002072
10
2.7917305
20
-2.0482059
10
2.8056584
20
-2.0966133
10
2.6614704
20
-1.9888644
8
gear_texts
0
LINE
5
1001
100
AcDbEntity
100
AcDbLine
10
0.1
20
0
30
0
11
-0.1
21
0
31
0
8
gear_guides
0
LINE
5
1002
100
AcDbEntity
100
AcDbLine
10
0
20
0.1
30
0
11
0
21
-0.1
31
0
8
gear_guides
0
CIRCLE
5
1003
100
AcDbEntity
100
AcDbCircle
10
3.9888045
20
0.2990633
30
0
40
0.098125
8
gear_guides
0
CIRCLE
5
1040
100
AcDbEntity
100
AcDbCircle
10
0
20
0
30
0
40
4
8
gear_guides
0
CIRCLE
5
1041
100
AcDbEntity
100
AcDbCircle
10
0
20
0
30
0
40
4.25
8
gear_guides
0
CIRCLE
5
1042
100
AcDbEntity
100
AcDbCircle
10
0
20
0
30
0
40
3.6541818
8
gear_guides
0
ENDSEC
0
SECTION
2
OBJECTS
0
DICTIONARY
5
21D
330
0
100
AcDbDictionary
281
1
3
ACAD_CIP_PREVIOUS_PRODUCT_INFO
350
291
3
ACAD_COLOR
350
273
3
ACAD_DETAILVIEWSTYLE
350
27B
3
ACAD_GROUP
350
21E
3
ACAD_LAYOUT
350
272
3
ACAD_MATERIAL
350
221
3
ACAD_MLEADERSTYLE
350
276
3
ACAD_MLINESTYLE
350
26F
3
ACAD_PLOTSETTINGS
350
271
3
ACAD_PLOTSTYLENAME
350
21F
3
ACAD_SCALELIST
350
253
3
ACAD_SECTIONVIEWSTYLE
350
278
3
ACAD_TABLESTYLE
350
274
3
ACAD_VISUALSTYLE
350
23A
3
ACDB_RECOMPOSE_DATA
350
1057
3
AcDbVariableDictionary
350
29D
0
DICTIONARY
5
297
330
213
100
AcDbDictionary
280
1
281
1
3
ACAD_LAYERSTATES
360
298
0
DICTIONARY
5
292
330
265
100
AcDbDictionary
280
1
281
1
3
ADSK_XREC_LAYER_RECONCILED
360
293
0
XRECORD
5
291
102
{ACAD_REACTORS
330
21D
102
}
330
21D
100
AcDbXrecord
280
1
300
ACDMAC
300
2013
300
ACDMAC_F_S
0
DICTIONARY
5
273
102
{ACAD_REACTORS
330
21D
102
}
330
21D
100
AcDbDictionary
281
1
0
DICTIONARY
5
27B
102
{ACAD_REACTORS
330
21D
102
}
330
21D
100
AcDbDictionary
281
1
3
Imperial24
350
27C
0
DICTIONARY
5
21E
102
{ACAD_REACTORS
330
21D
102
}
330
21D
100
AcDbDictionary
281
1
0
DICTIONARY
5
272
102
{ACAD_REACTORS
330
21D
102
}
330
21D
100
AcDbDictionary
281
1
3
Layout1
350
280
3
Model
350
284
0
DICTIONARY
5
221
102
{ACAD_REACTORS
330
21D
102
}
330
21D
100
AcDbDictionary
281
1
3
ByBlock
350
22A
3
ByLayer
350
222
3
Global
350
232
0
DICTIONARY
5
276
102
{ACAD_REACTORS
330
21D
102
}
330
21D
100
AcDbDictionary
281
1
3
Standard
350
277
0
DICTIONARY
5
26F
102
{ACAD_REACTORS
330
21D
102
}
330
21D
100
AcDbDictionary
281
1
3
Standard
350
270
0
DICTIONARY
5
271
102
{ACAD_REACTORS
330
21D
102
}
330
21D
100
AcDbDictionary
281
1
0
ACDBDICTIONARYWDFLT
5
21F
102
{ACAD_REACTORS
330
21D
102
}
330
21D
100
AcDbDictionary
281
1
3
Normal
350
220
100
AcDbDictionaryWithDefault
340
220
0
DICTIONARY
5
253
102
{ACAD_REACTORS
330
21D
102
}
330
21D
100
AcDbDictionary
281
1
3
A0
350
254
3
A1
350
255
3
A2
350
256
3
A3
350
257
3
A4
350
258
3
A5
350
259
3
A6
350
25A
3
A7
350
25B
3
A8
350
25C
3
A9
350
25D
3
B0
350
25E
3
B1
350
25F
3
B2
350
260
3
B3
350
261
3
B4
350
262
3
B5
350
263
3
B6
350
264
0
DICTIONARY
5
278
102
{ACAD_REACTORS
330
21D
102
}
330
21D
100
AcDbDictionary
281
1
3
Imperial24
350
27A
0
DICTIONARY
5
274
102
{ACAD_REACTORS
330
21D
102
}
330
21D
100
AcDbDictionary
281
1
3
Standard
350
275
0
DICTIONARY
5
23A
102
{ACAD_REACTORS
330
21D
102
}
330
21D
100
AcDbDictionary
281
1
3
2dWireframe
350
240
3
Basic
350
23F
3
Brighten
350
246
3
ColorChange
350
24A
3
Conceptual
350
243
3
Dim
350
245
3
EdgeColorOff
350
252
3
Facepattern
350
249
3
Flat
350
23B
3
FlatWithEdges
350
23C
3
Gouraud
350
23D
3
GouraudWithEdges
350
23E
3
Hidden
350
242
3
JitterOff
350
250
3
Linepattern
350
248
3
OverhangOff
350
251
3
Realistic
350
244
3
Shaded
350
24F
3
Shaded with edges
350
24E
3
Shades of Gray
350
24B
3
Sketchy
350
24C
3
Thicken
350
247
3
Wireframe
350
241
3
X-Ray
350
24D
0
XRECORD
5
1057
102
{ACAD_REACTORS
330
21D
102
}
330
21D
100
AcDbXrecord
280
1
90
1
330
275
0
DICTIONARY
5
29D
102
{ACAD_REACTORS
330
21D
102
}
330
21D
100
AcDbDictionary
281
1
3
CANNOSCALE
350
2A3
3
CMLEADERSTYLE
350
29F
3
CTABLESTYLE
350
29E
3
CVIEWDETAILSTYLE
350
2A0
3
CVIEWSECTIONSTYLE
350
2A1
3
LAYEREVAL
350
2A5
3
LAYERNOTIFY
350
2A6
3
LIGHTINGUNITS
350
2A4
3
MSLTSCALE
350
2A2
0
DICTIONARY
5
298
102
{ACAD_REACTORS
330
297
102
}
330
297
100
AcDbDictionary
281
1
0
XRECORD
5
293
102
{ACAD_REACTORS
330
292
102
}
330
292
100
AcDbXrecord
280
1
290
1
0
ACDBDETAILVIEWSTYLE
5
27C
102
{ACAD_REACTORS
330
27B
102
}
330
27B
100
AcDbModelDocViewStyle
70
0
3
Imperial24
290
0
100
AcDbDetailViewStyle
70
0
71
0
90
3
71
1
340
266
62
256
40
0.24
340
0
62
256
40
0.24
300

40
0.36
280
3
71
2
340
26D
90
25
62
256
71
3
340
266
62
256
40
0.24
90
1
40
0.75
90
1
300
%<AcVar ViewType  "%tc1">% %<AcVar ViewDetailId>%PSCALE %<AcVar ViewScale  "%sn">%
71
4
340
26D
90
25
62
256
340
26D
90
25
62
256
280
0
0
LAYOUT
5
280
102
{ACAD_REACTORS
330
272
102
}
330
272
100
AcDbPlotSettings
1

2
HP_LaserJet_P1505
4

6

40
0.0
41
0.0
42
0.0
43
0.0
44
0.0
45
0.0
46
0.0
47
0.0
48
0.0
49
0.0
140
0.0
141
0.0
142
1.0
143
1.0
70
688
72
0
73
0
74
5
7

75
16
147
1.0
76
0
77
2
78
300
148
0.0
149
0.0
100
AcDbLayout
1
Layout1
70
1
71
1
10
0.0
20
0.0
11
12.0
21
9.0
12
0.0
22
0.0
32
0.0
14
0.0
24
0.0
34
0.0
15
0.0
25
0.0
35
0.0
146
0.0
13
0.0
23
0.0
33
0.0
16
1.0
26
0.0
36
0.0
17
0.0
27
1.0
37
0.0
76
0
330
27D
0
LAYOUT
5
284
102
{ACAD_REACTORS
330
272
102
}
330
272
100
AcDbPlotSettings
1

2
HP_LaserJet_P1505
4

6

40
0.0
41
0.0
42
0.0
43
0.0
44
0.0
45
0.0
46
0.0
47
0.0
48
0.0
49
0.0
140
0.0
141
0.0
142
1.0
143
1.0
70
1712
72
0
73
0
74
0
7

75
0
147
1.0
76
0
77
2
78
300
148
0.0
149
0.0
100
AcDbLayout
1
Model
70
1
71
0
10
0.0
20
0.0
11
12.0
21
9.0
12
0.0
22
0.0
32
0.0
14
0.0
24
0.0
34
0.0
15
0.0
25
0.0
35
0.0
146
0.0
13
0.0
23
0.0
33
0.0
16
1.0
26
0.0
36
0.0
17
0.0
27
1.0
37
0.0
76
0
330
281
331
285
0
MATERIAL
5
22A
102
{ACAD_XDICTIONARY
360
22B
102
}
102
{ACAD_REACTORS
330
221
102
}
330
221
100
AcDbMaterial
1
ByBlock
72
0
43
0.0208333333333333
43
0.0
43
0.0
43
0.0
43
0.0
43
0.0208333333333333
43
0.0
43
0.0
43
0.0
43
0.0
43
1.0
43
0.0
43
0.0
43
0.0
43
0.0
43
1.0
77
0
47
0.0208333333333333
47
0.0
47
0.0
47
0.0
47
0.0
47
0.0208333333333333
47
0.0
47
0.0
47
0.0
47
0.0
47
1.0
47
0.0
47
0.0
47
0.0
47
0.0
47
1.0
171
0
49
0.0208333333333333
49
0.0
49
0.0
49
0.0
49
0.0
49
0.0208333333333333
49
0.0
49
0.0
49
0.0
49
0.0
49
1.0
49
0.0
49
0.0
49
0.0
49
0.0
49
1.0
175
0
142
0.0208333333333333
142
0.0
142
0.0
142
0.0
142
0.0
142
0.0208333333333333
142
0.0
142
0.0
142
0.0
142
0.0
142
1.0
142
0.0
142
0.0
142
0.0
142
0.0
142
1.0
179
0
144
0.0208333333333333
144
0.0
144
0.0
144
0.0
144
0.0
144
0.0208333333333333
144
0.0
144
0.0
144
0.0
144
0.0
144
1.0
144
0.0
144
0.0
144
0.0
144
0.0
144
1.0
147
0.0208333333333333
147
0.0
147
0.0
147
0.0
147
0.0
147
0.0208333333333333
147
0.0
147
0.0
147
0.0
147
0.0
147
1.0
147
0.0
147
0.0
147
0.0
147
0.0
147
1.0
0
MATERIAL
5
222
102
{ACAD_XDICTIONARY
360
223
102
}
102
{ACAD_REACTORS
330
221
102
}
330
221
100
AcDbMaterial
1
ByLayer
72
0
43
0.0208333333333333
43
0.0
43
0.0
43
0.0
43
0.0
43
0.0208333333333333
43
0.0
43
0.0
43
0.0
43
0.0
43
1.0
43
0.0
43
0.0
43
0.0
43
0.0
43
1.0
77
0
47
0.0208333333333333
47
0.0
47
0.0
47
0.0
47
0.0
47
0.0208333333333333
47
0.0
47
0.0
47
0.0
47
0.0
47
1.0
47
0.0
47
0.0
47
0.0
47
0.0
47
1.0
171
0
49
0.0208333333333333
49
0.0
49
0.0
49
0.0
49
0.0
49
0.0208333333333333
49
0.0
49
0.0
49
0.0
49
0.0
49
1.0
49
0.0
49
0.0
49
0.0
49
0.0
49
1.0
175
0
142
0.0208333333333333
142
0.0
142
0.0
142
0.0
142
0.0
142
0.0208333333333333
142
0.0
142
0.0
142
0.0
142
0.0
142
1.0
142
0.0
142
0.0
142
0.0
142
0.0
142
1.0
179
0
144
0.0208333333333333
144
0.0
144
0.0
144
0.0
144
0.0
144
0.0208333333333333
144
0.0
144
0.0
144
0.0
144
0.0
144
1.0
144
0.0
144
0.0
144
0.0
144
0.0
144
1.0
147
0.0208333333333333
147
0.0
147
0.0
147
0.0
147
0.0
147
0.0208333333333333
147
0.0
147
0.0
147
0.0
147
0.0
147
1.0
147
0.0
147
0.0
147
0.0
147
0.0
147
1.0
0
MATERIAL
5
232
102
{ACAD_XDICTIONARY
360
233
102
}
102
{ACAD_REACTORS
330
221
102
}
330
221
100
AcDbMaterial
1
Global
72
0
43
0.0208333333333333
43
0.0
43
0.0
43
0.0
43
0.0
43
0.0208333333333333
43
0.0
43
0.0
43
0.0
43
0.0
43
1.0
43
0.0
43
0.0
43
0.0
43
0.0
43
1.0
77
0
47
0.0208333333333333
47
0.0
47
0.0
47
0.0
47
0.0
47
0.0208333333333333
47
0.0
47
0.0
47
0.0
47
0.0
47
1.0
47
0.0
47
0.0
47
0.0
47
0.0
47
1.0
171
0
49
0.0208333333333333
49
0.0
49
0.0
49
0.0
49
0.0
49
0.0208333333333333
49
0.0
49
0.0
49
0.0
49
0.0
49
1.0
49
0.0
49
0.0
49
0.0
49
0.0
49
1.0
175
0
142
0.0208333333333333
142
0.0
142
0.0
142
0.0
142
0.0
142
0.0208333333333333
142
0.0
142
0.0
142
0.0
142
0.0
142
1.0
142
0.0
142
0.0
142
0.0
142
0.0
142
1.0
179
0
144
0.0208333333333333
144
0.0
144
0.0
144
0.0
144
0.0
144
0.0208333333333333
144
0.0
144
0.0
144
0.0
144
0.0
144
1.0
144
0.0
144
0.0
144
0.0
144
0.0
144
1.0
147
0.0208333333333333
147
0.0
147
0.0
147
0.0
147
0.0
147
0.0208333333333333
147
0.0
147
0.0
147
0.0
147
0.0
147
1.0
147
0.0
147
0.0
147
0.0
147
0.0
147
1.0
0
MLEADERSTYLE
5
277
102
{ACAD_REACTORS
330
276
102
}
330
276
100
AcDbMLeaderStyle
179
2
170
2
171
1
172
0
90
2
40
0.0
41
0.0
173
1
91
-1056964608
340
26B
92
-2
290
1
42
0.09
291
1
43
0.36
3
Standard
44
0.18
300

342
266
174
1
178
6
175
1
176
0
93
-1056964608
45
0.18
292
0
297
0
46
0.18
94
-1056964608
47
1.0
49
1.0
140
1.0
293
1
141
0.0
294
1
177
0
142
1.0
295
0
296
0
143
0.125
271
0
272
9
273
9
298
0
0
MLINESTYLE
5
270
102
{ACAD_REACTORS
330
26F
102
}
330
26F
100
AcDbMlineStyle
2
STANDARD
70
0
3

62
256
51
90.0
52
90.0
71
2
49
0.5
62
256
6
BYLAYER
49
-0.5
62
256
6
BYLAYER
0
ACDBPLACEHOLDER
5
220
102
{ACAD_REACTORS
330
21F
102
}
330
21F
0
SCALE
5
254
102
{ACAD_REACTORS
330
253
102
}
330
253
100
AcDbScale
70
0
300
1:1
140
1.0
141
1.0
290
1
0
SCALE
5
255
102
{ACAD_REACTORS
330
253
102
}
330
253
100
AcDbScale
70
0
300
1/128" = 1'-0"
140
0.0078125
141
12.0
290
0
0
SCALE
5
256
102
{ACAD_REACTORS
330
253
102
}
330
253
100
AcDbScale
70
0
300
1/64" = 1'-0"
140
0.015625
141
12.0
290
0
0
SCALE
5
257
102
{ACAD_REACTORS
330
253
102
}
330
253
100
AcDbScale
70
0
300
1/32" = 1'-0"
140
0.03125
141
12.0
290
0
0
SCALE
5
258
102
{ACAD_REACTORS
330
253
102
}
330
253
100
AcDbScale
70
0
300
1/16" = 1'-0"
140
0.0625
141
12.0
290
0
0
SCALE
5
259
102
{ACAD_REACTORS
330
253
102
}
330
253
100
AcDbScale
70
0
300
3/32" = 1'-0"
140
0.09375
141
12.0
290
0
0
SCALE
5
25A
102
{ACAD_REACTORS
330
253
102
}
330
253
100
AcDbScale
70
0
300
1/8" = 1'-0"
140
0.125
141
12.0
290
0
0
SCALE
5
25B
102
{ACAD_REACTORS
330
253
102
}
330
253
100
AcDbScale
70
0
300
3/16" = 1'-0"
140
0.1875
141
12.0
290
0
0
SCALE
5
25C
102
{ACAD_REACTORS
330
253
102
}
330
253
100
AcDbScale
70
0
300
1/4" = 1'-0"
140
0.25
141
12.0
290
0
0
SCALE
5
25D
102
{ACAD_REACTORS
330
253
102
}
330
253
100
AcDbScale
70
0
300
3/8" = 1'-0"
140
0.375
141
12.0
290
0
0
SCALE
5
25E
102
{ACAD_REACTORS
330
253
102
}
330
253
100
AcDbScale
70
0
300
1/2" = 1'-0"
140
0.5
141
12.0
290
0
0
SCALE
5
25F
102
{ACAD_REACTORS
330
253
102
}
330
253
100
AcDbScale
70
0
300
3/4" = 1'-0"
140
0.75
141
12.0
290
0
0
SCALE
5
260
102
{ACAD_REACTORS
330
253
102
}
330
253
100
AcDbScale
70
0
300
1" = 1'-0"
140
1.0
141
12.0
290
0
0
SCALE
5
261
102
{ACAD_REACTORS
330
253
102
}
330
253
100
AcDbScale
70
0
300
1-1/2" = 1'-0"
140
1.5
141
12.0
290
0
0
SCALE
5
262
102
{ACAD_REACTORS
330
253
102
}
330
253
100
AcDbScale
70
0
300
3" = 1'-0"
140
3.0
141
12.0
290
0
0
SCALE
5
263
102
{ACAD_REACTORS
330
253
102
}
330
253
100
AcDbScale
70
0
300
6" = 1'-0"
140
6.0
141
12.0
290
0
0
SCALE
5
264
102
{ACAD_REACTORS
330
253
102
}
330
253
100
AcDbScale
70
0
300
1'-0" = 1'-0"
140
12.0
141
12.0
290
0
0
ACDBSECTIONVIEWSTYLE
5
27A
102
{ACAD_REACTORS
330
278
102
}
330
278
100
AcDbModelDocViewStyle
70
0
3
Imperial24
290
0
100
AcDbSectionViewStyle
70
0
71
0
90
78
71
1
340
266
62
256
40
0.24
340
0
340
0
62
256
40
0.24
300
I, O, Q, S, X, Z
40
0.48
90
3
40
0.18
90
1
71
2
340
279
90
25
62
256
340
26D
90
50
62
256
40
0.24
40
0.0
40
0.24
71
3
340
266
62
256
40
0.24
90
1
40
0.75
90
1
300
%<AcVar ViewType  "%tc1">% %<AcVar ViewSectionStartId>%-%<AcVar ViewSectionEndId>%PSCALE %<AcVar ViewScale  "%sn">%
71
4
62
256
62
257
300
ANSI31
40
1.0
90
0
290
0
290
0
90
6
40
0.0
40
1.570796326794896
40
0.2617993877991494
40
1.308996938995747
40
-0.2617993877991494
40
1.832595714594044
0
TABLESTYLE
5
275
102
{ACAD_XDICTIONARY
360
2A7
102
}
102
{ACAD_REACTORS
330
274
102
}
330
274
100
AcDbTableStyle
280
0
3
Standard
70
0
71
0
40
0.06
41
0.06
280
0
281
0
7
STANDARD
140
0.18
170
2
62
0
63
7
283
0
90
512
91
0
1

274
-2
284
1
64
0
275
-2
285
1
65
0
276
-2
286
1
66
0
277
-2
287
1
67
0
278
-2
288
1
68
0
279
-2
289
1
69
0
7
STANDARD
140
0.25
170
5
62
0
63
7
283
0
90
512
91
0
1

274
-2
284
1
64
0
275
-2
285
1
65
0
276
-2
286
1
66
0
277
-2
287
1
67
0
278
-2
288
1
68
0
279
-2
289
1
69
0
7
STANDARD
140
0.18
170
5
62
0
63
7
283
0
90
512
91
0
1

274
-2
284
1
64
0
275
-2
285
1
65
0
276
-2
286
1
66
0
277
-2
287
1
67
0
278
-2
288
1
68
0
279
-2
289
1
69
0
0
VISUALSTYLE
5
240
102
{ACAD_REACTORS
330
23A
102
}
330
23A
100
AcDbVisualStyle
2
2dWireframe
70
4
177
3
291
0
70
58
90
0
176
1
90
2
176
1
90
0
176
1
90
0
176
1
40
0.6
176
1
40
30.0
176
1
62
7
420
16777215
176
1
90
1
176
1
90
4
176
1
62
7
176
1
62
257
176
1
90
1
176
1
90
1
176
1
40
1.0
176
1
90
0
176
1
62
257
176
1
40
1.0
176
1
90
1
176
1
90
6
176
1
90
2
176
1
62
7
176
1
90
5
176
1
90
0
176
1
90
0
176
1
290
0
176
1
90
1
176
1
40
0.0
176
1
90
0
176
1
290
1
176
1
290
1
176
1
290
0
176
1
290
0
176
1
290
0
176
1
290
0
176
1
290
0
176
1
290
0
176
1
290
0
176
1
90
50
176
1
40
0.0
176
1
40
1.0
176
1
90
0
176
1
62
18
176
1
90
50
176
1
90
3
176
1
62
5
420
255
176
1
290
0
176
1
90
50
176
1
90
50
176
1
90
50
176
1
290
0
176
1
90
50
176
1
62
256
176
0
40
1.0
176
0
90
2
176
1
1
strokes_ogs.tif
176
1
290
0
176
1
40
1.0
176
1
40
1.0
176
1
1001
ACAD
1000
AcDbSavedByObjectVersion
1070
0
0
VISUALSTYLE
5
23F
102
{ACAD_REACTORS
330
23A
102
}
330
23A
100
AcDbVisualStyle
2
Basic
70
7
177
3
291
1
70
58
90
1
176
1
90
0
176
1
90
1
176
1
90
0
176
1
40
0.6
176
1
40
30.0
176
1
62
7
420
16777215
176
1
90
0
176
1
90
4
176
1
62
7
176
1
62
257
176
1
90
1
176
1
90
1
176
1
40
1.0
176
1
90
8
176
1
62
7
176
1
40
1.0
176
1
90
1
176
1
90
6
176
1
90
2
176
1
62
7
176
1
90
5
176
1
90
0
176
1
90
0
176
1
290
0
176
1
90
1
176
1
40
0.0
176
1
90
0
176
1
290
0
176
1
290
1
176
1
290
1
176
1
290
0
176
1
290
0
176
1
290
0
176
1
290
0
176
1
290
0
176
1
290
0
176
1
90
50
176
1
40
0.0
176
1
40
1.0
176
1
90
0
176
1
62
18
176
1
90
50
176
1
90
3
176
1
62
5
420
255
176
1
290
0
176
1
90
50
176
1
90
50
176
1
90
50
176
1
290
0
176
1
90
50
176
1
62
256
176
0
40
1.0
176
0
90
2
176
1
1
strokes_ogs.tif
176
1
290
0
176
1
40
1.0
176
1
40
1.0
176
1
1001
ACAD
1000
AcDbSavedByObjectVersion
1070
0
0
VISUALSTYLE
5
246
102
{ACAD_REACTORS
330
23A
102
}
330
23A
100
AcDbVisualStyle
2
Brighten
70
12
177
3
291
1
70
58
90
2
176
1
90
2
176
1
90
0
176
1
90
0
176
1
40
0.6
176
1
40
30.0
176
1
62
7
420
16777215
176
1
90
1
176
1
90
4
176
1
62
7
176
1
62
257
176
1
90
1
176
1
90
1
176
1
40
1.0
176
1
90
8
176
1
62
7
176
1
40
1.0
176
1
90
1
176
1
90
6
176
1
90
2
176
1
62
7
176
1
90
5
176
1
90
0
176
1
90
0
176
1
290
0
176
1
90
1
176
1
40
50.0
176
1
90
0
176
1
290
0
176
1
290
1
176
1
290
1
176
1
290
0
176
1
290
0
176
1
290
0
176
1
290
0
176
1
290
0
176
1
290
0
176
1
90
50
176
1
40
0.0
176
1
40
1.0
176
1
90
0
176
1
62
18
176
1
90
50
176
1
90
3
176
1
62
5
420
255
176
1
290
0
176
1
90
50
176
1
90
50
176
1
90
50
176
1
290
0
176
1
90
50
176
1
62
256
176
0
40
1.0
176
0
90
2
176
1
1
strokes_ogs.tif
176
1
290
0
176
1
40
1.0
176
1
40
1.0
176
1
1001
ACAD
1000
AcDbSavedByObjectVersion
1070
0
0
VISUALSTYLE
5
24A
102
{ACAD_REACTORS
330
23A
102
}
330
23A
100
AcDbVisualStyle
2
ColorChange
70
16
177
3
291
1
70
58
90
2
176
1
90
2
176
1
90
3
176
1
90
0
176
1
40
0.6
176
1
40
30.0
176
1
62
8
420
8421504
176
1
90
1
176
1
90
4
176
1
62
7
176
1
62
257
176
1
90
1
176
1
90
1
176
1
40
1.0
176
1
90
8
176
1
62
8
420
8421504
176
1
40
1.0
176
1
90
1
176
1
90
6
176
1
90
2
176
1
62
7
176
1
90
5
176
1
90
0
176
1
90
0
176
1
290
0
176
1
90
1
176
1
40
0.0
176
1
90
0
176
1
290
0
176
1
290
1
176
1
290
1
176
1
290
0
176
1
290
0
176
1
290
0
176
1
290
0
176
1
290
0
176
1
290
0
176
1
90
50
176
1
40
0.0
176
1
40
1.0
176
1
90
0
176
1
62
18
176
1
90
50
176
1
90
3
176
1
62
5
420
255
176
1
290
0
176
1
90
50
176
1
90
50
176
1
90
50
176
1
290
0
176
1
90
50
176
1
62
256
176
0
40
1.0
176
0
90
2
176
1
1
strokes_ogs.tif
176
1
290
0
176
1
40
1.0
176
1
40
1.0
176
1
1001
ACAD
1000
AcDbSavedByObjectVersion
1070
0
0
VISUALSTYLE
5
243
102
{ACAD_REACTORS
330
23A
102
}
330
23A
100
AcDbVisualStyle
2
Conceptual
70
9
177
3
291
0
70
58
90
3
176
1
90
2
176
1
90
0
176
1
90
0
176
1
40
0.6
176
1
40
30.0
176
1
62
7
420
16777215
176
1
90
2
176
1
90
2
176
1
62
7
176
1
62
257
176
1
90
1
176
1
90
1
176
1
40
179.0
176
1
90
8
176
1
62
7
176
1
40
1.0
176
1
90
1
176
1
90
6
176
1
90
2
176
1
62
7
176
1
90
3
176
1
90
0
176
1
90
0
176
1
290
0
176
1
90
1
176
1
40
0.0
176
1
90
0
176
1
290
0
176
1
290
1
176
1
290
1
176
1
290
0
176
1
290
0
176
1
290
0
176
1
290
0
176
1
290
0
176
1
290
0
176
1
90
50
176
1
40
0.0
176
1
40
1.0
176
1
90
0
176
1
62
18
176
1
90
50
176
1
90
3
176
1
62
5
420
255
176
1
290
0
176
1
90
50
176
1
90
50
176
1
90
50
176
1
290
0
176
1
90
50
176
1
62
256
176
0
40
1.0
176
0
90
2
176
1
1
strokes_ogs.tif
176
1
290
0
176
1
40
1.0
176
1
40
1.0
176
1
1001
ACAD
1000
AcDbSavedByObjectVersion
1070
0
0
VISUALSTYLE
5
245
102
{ACAD_REACTORS
330
23A
102
}
330
23A
100
AcDbVisualStyle
2
Dim
70
11
177
3
291
1
70
58
90
2
176
1
90
2
176
1
90
0
176
1
90
0
176
1
40
0.6
176
1
40
30.0
176
1
62
7
420
16777215
176
1
90
1
176
1
90
4
176
1
62
7
176
1
62
257
176
1
90
1
176
1
90
1
176
1
40
1.0
176
1
90
8
176
1
62
7
176
1
40
1.0
176
1
90
1
176
1
90
6
176
1
90
2
176
1
62
7
176
1
90
5
176
1
90
0
176
1
90
0
176
1
290
0
176
1
90
1
176
1
40
-50.0
176
1
90
0
176
1
290
0
176
1
290
1
176
1
290
1
176
1
290
0
176
1
290
0
176
1
290
0
176
1
290
0
176
1
290
0
176
1
290
0
176
1
90
50
176
1
40
0.0
176
1
40
1.0
176
1
90
0
176
1
62
18
176
1
90
50
176
1
90
3
176
1
62
5
420
255
176
1
290
0
176
1
90
50
176
1
90
50
176
1
90
50
176
1
290
0
176
1
90
50
176
1
62
256
176
0
40
1.0
176
0
90
2
176
1
1
strokes_ogs.tif
176
1
290
0
176
1
40
1.0
176
1
40
1.0
176
1
1001
ACAD
1000
AcDbSavedByObjectVersion
1070
0
0
VISUALSTYLE
5
252
102
{ACAD_REACTORS
330
23A
102
}
330
23A
100
AcDbVisualStyle
2
EdgeColorOff
70
22
177
3
291
1
70
58
90
2
176
0
90
2
176
0
90
0
176
0
90
0
176
0
40
0.6
176
0
40
30.0
176
0
62
7
420
16777215
176
0
90
1
176
0
90
4
176
0
62
7
176
0
62
257
176
0
90
1
176
0
90
1
176
0
40
1.0
176
0
90
8
176
2
62
7
176
0
40
1.0
176
0
90
1
176
0
90
6
176
0
90
2
176
0
62
7
176
0
90
5
176
0
90
0
176
0
90
0
176
0
290
0
176
0
90
1
176
0
40
0.0
176
0
90
0
176
0
290
0
176
1
290
1
176
1
290
1
176
1
290
0
176
1
290
0
176
1
290
0
176
1
290
0
176
1
290
0
176
1
290
0
176
1
90
50
176
0
40
0.0
176
0
40
1.0
176
0
90
0
176
0
62
18
176
0
90
50
176
0
90
3
176
0
62
5
420
255
176
0
290
0
176
1
90
50
176
0
90
50
176
0
90
50
176
0
290
0
176
1
90
50
176
0
62
256
176
0
40
1.0
176
0
90
2
176
0
1
strokes_ogs.tif
176
0
290
0
176
1
40
1.0
176
0
40
1.0
176
0
1001
ACAD
1000
AcDbSavedByObjectVersion
1070
0
0
VISUALSTYLE
5
249
102
{ACAD_REACTORS
330
23A
102
}
330
23A
100
AcDbVisualStyle
2
Facepattern
70
15
177
3
291
1
70
58
90
2
176
1
90
2
176
1
90
0
176
1
90
0
176
1
40
0.6
176
1
40
30.0
176
1
62
7
420
16777215
176
1
90
1
176
1
90
4
176
1
62
7
176
1
62
257
176
1
90
1
176
1
90
1
176
1
40
1.0
176
1
90
8
176
1
62
7
176
1
40
1.0
176
1
90
1
176
1
90
6
176
1
90
2
176
1
62
7
176
1
90
5
176
1
90
0
176
1
90
0
176
1
290
0
176
1
90
1
176
1
40
0.0
176
1
90
0
176
1
290
0
176
1
290
1
176
1
290
1
176
1
290
0
176
1
290
0
176
1
290
0
176
1
290
0
176
1
290
0
176
1
290
0
176
1
90
50
176
1
40
0.0
176
1
40
1.0
176
1
90
0
176
1
62
18
176
1
90
50
176
1
90
3
176
1
62
5
420
255
176
1
290
0
176
1
90
50
176
1
90
50
176
1
90
50
176
1
290
0
176
1
90
50
176
1
62
256
176
0
40
1.0
176
0
90
2
176
1
1
strokes_ogs.tif
176
1
290
0
176
1
40
1.0
176
1
40
1.0
176
1
1001
ACAD
1000
AcDbSavedByObjectVersion
1070
0
0
VISUALSTYLE
5
23B
102
{ACAD_REACTORS
330
23A
102
}
330
23A
100
AcDbVisualStyle
2
Flat
70
0
177
3
291
1
70
58
90
2
176
1
90
1
176
1
90
1
176
1
90
2
176
1
40
0.6
176
1
40
30.0
176
1
62
7
420
16777215
176
1
90
0
176
1
90
0
176
1
62
7
176
1
62
257
176
1
90
1
176
1
90
1
176
1
40
1.0
176
1
90
8
176
1
62
7
176
1
40
1.0
176
1
90
1
176
1
90
6
176
1
90
2
176
1
62
7
176
1
90
5
176
1
90
0
176
1
90
0
176
1
290
0
176
1
90
13
176
1
40
0.0
176
1
90
0
176
1
290
0
176
1
290
1
176
1
290
1
176
1
290
0
176
1
290
0
176
1
290
0
176
1
290
0
176
1
290
0
176
1
290
0
176
1
90
50
176
1
40
0.0
176
1
40
1.0
176
1
90
0
176
1
62
18
176
1
90
50
176
1
90
3
176
1
62
5
420
255
176
1
290
0
176
1
90
50
176
1
90
50
176
1
90
50
176
1
290
0
176
1
90
50
176
1
62
256
176
0
40
1.0
176
0
90
2
176
1
1
strokes_ogs.tif
176
1
290
0
176
1
40
1.0
176
1
40
1.0
176
1
1001
ACAD
1000
AcDbSavedByObjectVersion
1070
0
0
VISUALSTYLE
5
23C
102
{ACAD_REACTORS
330
23A
102
}
330
23A
100
AcDbVisualStyle
2
FlatWithEdges
70
1
177
3
291
1
70
58
90
2
176
1
90
1
176
1
90
1
176
1
90
2
176
1
40
0.6
176
1
40
30.0
176
1
62
7
420
16777215
176
1
90
1
176
1
90
0
176
1
62
7
176
1
62
257
176
1
90
1
176
1
90
1
176
1
40
1.0
176
1
90
0
176
1
62
257
176
1
40
1.0
176
1
90
1
176
1
90
6
176
1
90
2
176
1
62
7
176
1
90
5
176
1
90
0
176
1
90
0
176
1
290
0
176
1
90
13
176
1
40
0.0
176
1
90
0
176
1
290
0
176
1
290
1
176
1
290
1
176
1
290
0
176
1
290
0
176
1
290
0
176
1
290
0
176
1
290
0
176
1
290
0
176
1
90
50
176
1
40
0.0
176
1
40
1.0
176
1
90
0
176
1
62
18
176
1
90
50
176
1
90
3
176
1
62
5
420
255
176
1
290
0
176
1
90
50
176
1
90
50
176
1
90
50
176
1
290
0
176
1
90
50
176
1
62
256
176
0
40
1.0
176
0
90
2
176
1
1
strokes_ogs.tif
176
1
290
0
176
1
40
1.0
176
1
40
1.0
176
1
1001
ACAD
1000
AcDbSavedByObjectVersion
1070
0
0
VISUALSTYLE
5
23D
102
{ACAD_REACTORS
330
23A
102
}
330
23A
100
AcDbVisualStyle
2
Gouraud
70
2
177
3
291
1
70
58
90
2
176
1
90
2
176
1
90
1
176
1
90
2
176
1
40
0.6
176
1
40
30.0
176
1
62
7
420
16777215
176
1
90
0
176
1
90
0
176
1
62
7
176
1
62
257
176
1
90
1
176
1
90
1
176
1
40
1.0
176
1
90
0
176
1
62
7
176
1
40
1.0
176
1
90
1
176
1
90
6
176
1
90
2
176
1
62
7
176
1
90
5
176
1
90
0
176
1
90
0
176
1
290
0
176
1
90
13
176
1
40
0.0
176
1
90
0
176
1
290
0
176
1
290
1
176
1
290
1
176
1
290
0
176
1
290
0
176
1
290
0
176
1
290
0
176
1
290
0
176
1
290
0
176
1
90
50
176
1
40
0.0
176
1
40
1.0
176
1
90
0
176
1
62
18
176
1
90
50
176
1
90
3
176
1
62
5
420
255
176
1
290
0
176
1
90
50
176
1
90
50
176
1
90
50
176
1
290
0
176
1
90
50
176
1
62
256
176
0
40
1.0
176
0
90
2
176
1
1
strokes_ogs.tif
176
1
290
0
176
1
40
1.0
176
1
40
1.0
176
1
1001
ACAD
1000
AcDbSavedByObjectVersion
1070
0
0
VISUALSTYLE
5
23E
102
{ACAD_REACTORS
330
23A
102
}
330
23A
100
AcDbVisualStyle
2
GouraudWithEdges
70
3
177
3
291
1
70
58
90
2
176
1
90
2
176
1
90
1
176
1
90
2
176
1
40
0.6
176
1
40
30.0
176
1
62
7
420
16777215
176
1
90
1
176
1
90
0
176
1
62
7
176
1
62
257
176
1
90
1
176
1
90
1
176
1
40
1.0
176
1
90
0
176
1
62
257
176
1
40
1.0
176
1
90
1
176
1
90
6
176
1
90
2
176
1
62
7
176
1
90
5
176
1
90
0
176
1
90
0
176
1
290
0
176
1
90
13
176
1
40
0.0
176
1
90
0
176
1
290
0
176
1
290
1
176
1
290
1
176
1
290
0
176
1
290
0
176
1
290
0
176
1
290
0
176
1
290
0
176
1
290
0
176
1
90
50
176
1
40
0.0
176
1
40
1.0
176
1
90
0
176
1
62
18
176
1
90
50
176
1
90
3
176
1
62
5
420
255
176
1
290
0
176
1
90
50
176
1
90
50
176
1
90
50
176
1
290
0
176
1
90
50
176
1
62
256
176
0
40
1.0
176
0
90
2
176
1
1
strokes_ogs.tif
176
1
290
0
176
1
40
1.0
176
1
40
1.0
176
1
1001
ACAD
1000
AcDbSavedByObjectVersion
1070
0
0
VISUALSTYLE
5
242
102
{ACAD_REACTORS
330
23A
102
}
330
23A
100
AcDbVisualStyle
2
Hidden
70
6
177
3
291
0
70
58
90
1
176
1
90
2
176
1
90
2
176
1
90
0
176
1
40
0.6
176
1
40
30.0
176
1
62
7
420
16777215
176
1
90
2
176
1
90
2
176
1
62
7
176
1
62
257
176
1
90
2
176
1
90
1
176
1
40
40.0
176
1
90
0
176
1
62
257
176
1
40
1.0
176
1
90
1
176
1
90
6
176
1
90
2
176
1
62
7
176
1
90
3
176
1
90
0
176
1
90
0
176
1
290
0
176
1
90
1
176
1
40
0.0
176
1
90
0
176
1
290
0
176
1
290
1
176
1
290
1
176
1
290
0
176
1
290
0
176
1
290
0
176
1
290
0
176
1
290
0
176
1
290
0
176
1
90
50
176
1
40
0.0
176
1
40
1.0
176
1
90
0
176
1
62
18
176
1
90
50
176
1
90
3
176
1
62
5
420
255
176
1
290
0
176
1
90
50
176
1
90
50
176
1
90
50
176
1
290
0
176
1
90
50
176
1
62
256
176
0
40
1.0
176
0
90
2
176
1
1
strokes_ogs.tif
176
1
290
0
176
1
40
1.0
176
1
40
1.0
176
1
1001
ACAD
1000
AcDbSavedByObjectVersion
1070
0
0
VISUALSTYLE
5
250
102
{ACAD_REACTORS
330
23A
102
}
330
23A
100
AcDbVisualStyle
2
JitterOff
70
20
177
3
291
1
70
58
90
2
176
0
90
2
176
0
90
0
176
0
90
0
176
0
40
0.6
176
0
40
30.0
176
0
62
7
420
16777215
176
0
90
1
176
0
90
4
176
0
62
7
176
0
62
257
176
0
90
1
176
0
90
1
176
0
40
1.0
176
0
90
10
176
2
62
7
176
0
40
1.0
176
0
90
1
176
0
90
6
176
0
90
2
176
0
62
7
176
0
90
5
176
0
90
0
176
0
90
0
176
0
290
0
176
0
90
1
176
0
40
0.0
176
0
90
0
176
0
290
0
176
1
290
1
176
1
290
1
176
1
290
0
176
1
290
0
176
1
290
0
176
1
290
0
176
1
290
0
176
1
290
0
176
1
90
50
176
0
40
0.0
176
0
40
1.0
176
0
90
0
176
0
62
18
176
0
90
50
176
0
90
3
176
0
62
5
420
255
176
0
290
0
176
1
90
50
176
0
90
50
176
0
90
50
176
0
290
0
176
1
90
50
176
0
62
256
176
0
40
1.0
176
0
90
2
176
0
1
strokes_ogs.tif
176
0
290
0
176
1
40
1.0
176
0
40
1.0
176
0
1001
ACAD
1000
AcDbSavedByObjectVersion
1070
0
0
VISUALSTYLE
5
248
102
{ACAD_REACTORS
330
23A
102
}
330
23A
100
AcDbVisualStyle
2
Linepattern
70
14
177
3
291
1
70
58
90
2
176
1
90
2
176
1
90
0
176
1
90
0
176
1
40
0.6
176
1
40
30.0
176
1
62
7
420
16777215
176
1
90
1
176
1
90
4
176
1
62
7
176
1
62
257
176
1
90
7
176
1
90
7
176
1
40
1.0
176
1
90
8
176
1
62
7
176
1
40
1.0
176
1
90
1
176
1
90
6
176
1
90
2
176
1
62
7
176
1
90
5
176
1
90
0
176
1
90
0
176
1
290
0
176
1
90
1
176
1
40
0.0
176
1
90
0
176
1
290
0
176
1
290
1
176
1
290
1
176
1
290
0
176
1
290
0
176
1
290
0
176
1
290
0
176
1
290
0
176
1
290
0
176
1
90
50
176
1
40
0.0
176
1
40
1.0
176
1
90
0
176
1
62
18
176
1
90
50
176
1
90
3
176
1
62
5
420
255
176
1
290
0
176
1
90
50
176
1
90
50
176
1
90
50
176
1
290
0
176
1
90
50
176
1
62
256
176
0
40
1.0
176
0
90
2
176
1
1
strokes_ogs.tif
176
1
290
0
176
1
40
1.0
176
1
40
1.0
176
1
1001
ACAD
1000
AcDbSavedByObjectVersion
1070
0
0
VISUALSTYLE
5
251
102
{ACAD_REACTORS
330
23A
102
}
330
23A
100
AcDbVisualStyle
2
OverhangOff
70
21
177
3
291
1
70
58
90
2
176
0
90
2
176
0
90
0
176
0
90
0
176
0
40
0.6
176
0
40
30.0
176
0
62
7
420
16777215
176
0
90
1
176
0
90
4
176
0
62
7
176
0
62
257
176
0
90
1
176
0
90
1
176
0
40
1.0
176
0
90
9
176
2
62
7
176
0
40
1.0
176
0
90
1
176
0
90
6
176
0
90
2
176
0
62
7
176
0
90
5
176
0
90
0
176
0
90
0
176
0
290
0
176
0
90
1
176
0
40
0.0
176
0
90
0
176
0
290
0
176
1
290
1
176
1
290
1
176
1
290
0
176
1
290
0
176
1
290
0
176
1
290
0
176
1
290
0
176
1
290
0
176
1
90
50
176
0
40
0.0
176
0
40
1.0
176
0
90
0
176
0
62
18
176
0
90
50
176
0
90
3
176
0
62
5
420
255
176
0
290
0
176
1
90
50
176
0
90
50
176
0
90
50
176
0
290
0
176
1
90
50
176
0
62
256
176
0
40
1.0
176
0
90
2
176
0
1
strokes_ogs.tif
176
0
290
0
176
1
40
1.0
176
0
40
1.0
176
0
1001
ACAD
1000
AcDbSavedByObjectVersion
1070
0
0
VISUALSTYLE
5
244
102
{ACAD_REACTORS
330
23A
102
}
330
23A
100
AcDbVisualStyle
2
Realistic
70
8
177
3
291
0
70
58
90
2
176
1
90
3
176
1
90
0
176
1
90
2
176
1
40
0.6
176
1
40
30.0
176
1
62
7
420
16777215
176
1
90
0
176
1
90
0
176
1
62
7
176
1
62
257
176
1
90
1
176
1
90
1
176
1
40
1.0
176
1
90
8
176
1
62
257
176
1
40
1.0
176
1
90
1
176
1
90
6
176
1
90
2
176
1
62
7
176
1
90
3
176
1
90
0
176
1
90
0
176
1
290
0
176
1
90
13
176
1
40
0.0
176
1
90
0
176
1
290
0
176
1
290
1
176
1
290
1
176
1
290
0
176
1
290
0
176
1
290
0
176
1
290
0
176
1
290
0
176
1
290
0
176
1
90
50
176
1
40
0.0
176
1
40
1.0
176
1
90
0
176
1
62
18
176
1
90
50
176
1
90
3
176
1
62
5
420
255
176
1
290
0
176
1
90
50
176
1
90
50
176
1
90
50
176
1
290
0
176
1
90
50
176
1
62
256
176
0
40
1.0
176
0
90
2
176
1
1
strokes_ogs.tif
176
1
290
0
176
1
40
1.0
176
1
40
1.0
176
1
1001
ACAD
1000
AcDbSavedByObjectVersion
1070
0
0
VISUALSTYLE
5
24F
102
{ACAD_REACTORS
330
23A
102
}
330
23A
100
AcDbVisualStyle
2
Shaded
70
27
177
3
291
0
70
58
90
2
176
1
90
2
176
1
90
1
176
1
90
2
176
1
40
0.6
176
1
40
30.0
176
1
62
7
420
16777215
176
1
90
0
176
1
90
4
176
1
62
7
176
1
62
257
176
1
90
1
176
1
90
1
176
1
40
1.0
176
1
90
8
176
1
62
257
176
1
40
1.0
176
1
90
1
176
1
90
6
176
1
90
2
176
1
62
8
420
7895160
176
1
90
3
176
1
90
0
176
1
90
0
176
1
290
0
176
1
90
5
176
1
40
0.0
176
1
90
0
176
1
290
0
176
1
290
1
176
1
290
1
176
1
290
0
176
1
290
0
176
1
290
0
176
1
290
0
176
1
290
0
176
1
290
0
176
1
90
50
176
1
40
0.0
176
1
40
1.0
176
1
90
0
176
1
62
18
176
1
90
50
176
1
90
3
176
1
62
5
420
255
176
1
290
0
176
1
90
50
176
1
90
50
176
1
90
50
176
1
290
0
176
1
90
50
176
1
62
256
176
0
40
1.0
176
0
90
2
176
1
1
strokes_ogs.tif
176
1
290
0
176
1
40
1.0
176
1
40
1.0
176
1
1001
ACAD
1000
AcDbSavedByObjectVersion
1070
0
0
VISUALSTYLE
5
24E
102
{ACAD_REACTORS
330
23A
102
}
330
23A
100
AcDbVisualStyle
2
Shaded with edges
70
26
177
3
291
0
70
58
90
2
176
1
90
2
176
1
90
1
176
1
90
2
176
1
40
0.6
176
1
40
30.0
176
1
62
7
420
16777215
176
1
90
1
176
1
90
10
176
1
62
7
176
1
62
257
176
1
90
2
176
1
90
1
176
1
40
1.0
176
1
90
8
176
1
62
257
176
1
40
1.0
176
1
90
1
176
1
90
6
176
1
90
2
176
1
62
7
176
1
90
3
176
1
90
0
176
1
90
0
176
1
290
0
176
1
90
5
176
1
40
0.0
176
1
90
0
176
1
290
0
176
1
290
1
176
1
290
1
176
1
290
0
176
1
290
0
176
1
290
0
176
1
290
0
176
1
290
0
176
1
290
0
176
1
90
50
176
1
40
0.0
176
1
40
1.0
176
1
90
0
176
1
62
18
176
1
90
50
176
1
90
3
176
1
62
5
420
255
176
1
290
0
176
1
90
50
176
1
90
50
176
1
90
50
176
1
290
0
176
1
90
50
176
1
62
256
176
0
40
1.0
176
0
90
2
176
1
1
strokes_ogs.tif
176
1
290
0
176
1
40
1.0
176
1
40
1.0
176
1
1001
ACAD
1000
AcDbSavedByObjectVersion
1070
0
0
VISUALSTYLE
5
24B
102
{ACAD_REACTORS
330
23A
102
}
330
23A
100
AcDbVisualStyle
2
Shades of Gray
70
23
177
3
291
0
70
58
90
2
176
1
90
2
176
1
90
3
176
1
90
0
176
1
40
0.6
176
1
40
30.0
176
1
62
7
420
16777215
176
1
90
2
176
1
90
2
176
1
62
7
176
1
62
7
176
1
90
1
176
1
90
1
176
1
40
40.0
176
1
90
8
176
1
62
7
176
1
40
1.0
176
1
90
1
176
1
90
6
176
1
90
2
176
1
62
7
176
1
90
3
176
1
90
0
176
1
90
0
176
1
290
0
176
1
90
1
176
1
40
0.0
176
1
90
0
176
1
290
0
176
1
290
1
176
1
290
1
176
1
290
0
176
1
290
0
176
1
290
0
176
1
290
0
176
1
290
0
176
1
290
0
176
1
90
50
176
1
40
0.0
176
1
40
1.0
176
1
90
0
176
1
62
18
176
1
90
50
176
1
90
3
176
1
62
5
420
255
176
1
290
0
176
1
90
50
176
1
90
50
176
1
90
50
176
1
290
0
176
1
90
50
176
1
62
256
176
0
40
1.0
176
0
90
2
176
1
1
strokes_ogs.tif
176
1
290
0
176
1
40
1.0
176
1
40
1.0
176
1
1001
ACAD
1000
AcDbSavedByObjectVersion
1070
0
0
VISUALSTYLE
5
24C
102
{ACAD_REACTORS
330
23A
102
}
330
23A
100
AcDbVisualStyle
2
Sketchy
70
24
177
3
291
0
70
58
90
1
176
1
90
2
176
1
90
2
176
1
90
0
176
1
40
0.6
176
1
40
30.0
176
1
62
7
420
16777215
176
1
90
2
176
1
90
2
176
1
62
7
176
1
62
7
176
1
90
1
176
1
90
1
176
1
40
40.0
176
1
90
11
176
1
62
7
176
1
40
1.0
176
1
90
1
176
1
90
6
176
1
90
2
176
1
62
7
176
1
90
6
176
1
90
0
176
1
90
0
176
1
290
0
176
1
90
1
176
1
40
0.0
176
1
90
0
176
1
290
0
176
1
290
1
176
1
290
1
176
1
290
0
176
1
290
0
176
1
290
0
176
1
290
0
176
1
290
0
176
1
290
0
176
1
90
50
176
1
40
0.0
176
1
40
1.0
176
1
90
0
176
1
62
18
176
1
90
50
176
1
90
3
176
1
62
5
420
255
176
1
290
0
176
1
90
50
176
1
90
50
176
1
90
50
176
1
290
0
176
1
90
50
176
1
62
256
176
0
40
1.0
176
0
90
2
176
1
1
strokes_ogs.tif
176
1
290
0
176
1
40
1.0
176
1
40
1.0
176
1
1001
ACAD
1000
AcDbSavedByObjectVersion
1070
0
0
VISUALSTYLE
5
247
102
{ACAD_REACTORS
330
23A
102
}
330
23A
100
AcDbVisualStyle
2
Thicken
70
13
177
3
291
1
70
58
90
2
176
1
90
2
176
1
90
0
176
1
90
0
176
1
40
0.6
176
1
40
30.0
176
1
62
7
420
16777215
176
1
90
1
176
1
90
4
176
1
62
7
176
1
62
257
176
1
90
1
176
1
90
1
176
1
40
1.0
176
1
90
12
176
1
62
7
176
1
40
1.0
176
1
90
1
176
1
90
6
176
1
90
2
176
1
62
7
176
1
90
5
176
1
90
0
176
1
90
0
176
1
290
0
176
1
90
1
176
1
40
0.0
176
1
90
0
176
1
290
0
176
1
290
1
176
1
290
1
176
1
290
0
176
1
290
0
176
1
290
0
176
1
290
0
176
1
290
0
176
1
290
0
176
1
90
50
176
1
40
0.0
176
1
40
1.0
176
1
90
0
176
1
62
18
176
1
90
50
176
1
90
3
176
1
62
5
420
255
176
1
290
0
176
1
90
50
176
1
90
50
176
1
90
50
176
1
290
0
176
1
90
50
176
1
62
256
176
0
40
1.0
176
0
90
2
176
1
1
strokes_ogs.tif
176
1
290
0
176
1
40
1.0
176
1
40
1.0
176
1
1001
ACAD
1000
AcDbSavedByObjectVersion
1070
0
0
VISUALSTYLE
5
241
102
{ACAD_REACTORS
330
23A
102
}
330
23A
100
AcDbVisualStyle
2
Wireframe
70
5
177
3
291
0
70
58
90
0
176
1
90
2
176
1
90
0
176
1
90
0
176
1
40
0.6
176
1
40
30.0
176
1
62
7
420
16777215
176
1
90
1
176
1
90
4
176
1
62
7
176
1
62
257
176
1
90
1
176
1
90
1
176
1
40
1.0
176
1
90
0
176
1
62
257
176
1
40
1.0
176
1
90
1
176
1
90
6
176
1
90
2
176
1
62
7
176
1
90
3
176
1
90
0
176
1
90
0
176
1
290
0
176
1
90
1
176
1
40
0.0
176
1
90
0
176
1
290
0
176
1
290
1
176
1
290
1
176
1
290
0
176
1
290
0
176
1
290
0
176
1
290
0
176
1
290
0
176
1
290
0
176
1
90
50
176
1
40
0.0
176
1
40
1.0
176
1
90
0
176
1
62
18
176
1
90
50
176
1
90
3
176
1
62
5
420
255
176
1
290
0
176
1
90
50
176
1
90
50
176
1
90
50
176
1
290
0
176
1
90
50
176
1
62
256
176
0
40
1.0
176
0
90
2
176
1
1
strokes_ogs.tif
176
1
290
0
176
1
40
1.0
176
1
40
1.0
176
1
1001
ACAD
1000
AcDbSavedByObjectVersion
1070
0
0
VISUALSTYLE
5
24D
102
{ACAD_REACTORS
330
23A
102
}
330
23A
100
AcDbVisualStyle
2
X-Ray
70
25
177
3
291
0
70
58
90
2
176
1
90
2
176
1
90
1
176
1
90
1
176
1
40
0.5
176
1
40
30.0
176
1
62
7
420
16777215
176
1
90
1
176
1
90
0
176
1
62
7
176
1
62
257
176
1
90
1
176
1
90
1
176
1
40
1.0
176
1
90
8
176
1
62
7
176
1
40
1.0
176
1
90
1
176
1
90
6
176
1
90
2
176
1
62
7
176
1
90
3
176
1
90
0
176
1
90
0
176
1
290
0
176
1
90
13
176
1
40
0.0
176
1
90
0
176
1
290
0
176
1
290
1
176
1
290
1
176
1
290
0
176
1
290
0
176
1
290
0
176
1
290
0
176
1
290
0
176
1
290
0
176
1
90
50
176
1
40
0.0
176
1
40
1.0
176
1
90
0
176
1
62
18
176
1
90
50
176
1
90
3
176
1
62
5
420
255
176
1
290
0
176
1
90
50
176
1
90
50
176
1
90
50
176
1
290
0
176
1
90
50
176
1
62
256
176
0
40
1.0
176
0
90
2
176
1
1
strokes_ogs.tif
176
1
290
0
176
1
40
1.0
176
1
40
1.0
176
1
1001
ACAD
1000
AcDbSavedByObjectVersion
1070
0
0
DICTIONARYVAR
5
2A3
102
{ACAD_REACTORS
330
29D
102
}
330
29D
100
DictionaryVariables
280
0
1
1:1
0
DICTIONARYVAR
5
29F
102
{ACAD_REACTORS
330
29D
102
}
330
29D
100
DictionaryVariables
280
0
1
STANDARD
0
DICTIONARYVAR
5
29E
102
{ACAD_REACTORS
330
29D
102
}
330
29D
100
DictionaryVariables
280
0
1
STANDARD
0
DICTIONARYVAR
5
2A0
102
{ACAD_REACTORS
330
29D
102
}
330
29D
100
DictionaryVariables
280
0
1
Imperial24
0
DICTIONARYVAR
5
2A1
102
{ACAD_REACTORS
330
29D
102
}
330
29D
100
DictionaryVariables
280
0
1
Imperial24
0
DICTIONARYVAR
5
2A5
102
{ACAD_REACTORS
330
29D
102
}
330
29D
100
DictionaryVariables
280
0
1
1
0
DICTIONARYVAR
5
2A6
102
{ACAD_REACTORS
330
29D
102
}
330
29D
100
DictionaryVariables
280
0
1
15
0
DICTIONARYVAR
5
2A4
102
{ACAD_REACTORS
330
29D
102
}
330
29D
100
DictionaryVariables
280
0
1
0
0
DICTIONARYVAR
5
2A2
102
{ACAD_REACTORS
330
29D
102
}
330
29D
100
DictionaryVariables
280
0
1
0
0
DICTIONARY
5
22B
330
22A
100
AcDbDictionary
280
1
281
1
3
BUMPTILE
360
22D
3
DIFFUSETILE
360
22C
3
OPACITYTILE
360
230
3
REFLECTIONTILE
360
22F
3
REFRACTIONTILE
360
231
3
SPECULARTILE
360
22E
0
DICTIONARY
5
223
330
222
100
AcDbDictionary
280
1
281
1
3
BUMPTILE
360
225
3
DIFFUSETILE
360
224
3
OPACITYTILE
360
228
3
REFLECTIONTILE
360
227
3
REFRACTIONTILE
360
229
3
SPECULARTILE
360
226
0
DICTIONARY
5
233
330
232
100
AcDbDictionary
280
1
281
1
3
BUMPTILE
360
235
3
DIFFUSETILE
360
234
3
OPACITYTILE
360
238
3
REFLECTIONTILE
360
237
3
REFRACTIONTILE
360
239
3
SPECULARTILE
360
236
0
DICTIONARY
5
2A7
330
275
100
AcDbDictionary
280
1
281
1
3
ACAD_ROUNDTRIP_2008_TABLESTYLE_CELLSTYLEMAP
360
1056
0
XRECORD
5
22D
102
{ACAD_REACTORS
330
22B
102
}
330
22B
100
AcDbXrecord
280
1
270
1
271
1
0
XRECORD
5
22C
102
{ACAD_REACTORS
330
22B
102
}
330
22B
100
AcDbXrecord
280
1
270
1
271
1
0
XRECORD
5
230
102
{ACAD_REACTORS
330
22B
102
}
330
22B
100
AcDbXrecord
280
1
270
1
271
1
0
XRECORD
5
22F
102
{ACAD_REACTORS
330
22B
102
}
330
22B
100
AcDbXrecord
280
1
270
1
271
1
0
XRECORD
5
231
102
{ACAD_REACTORS
330
22B
102
}
330
22B
100
AcDbXrecord
280
1
270
1
271
1
0
XRECORD
5
22E
102
{ACAD_REACTORS
330
22B
102
}
330
22B
100
AcDbXrecord
280
1
270
1
271
1
0
XRECORD
5
225
102
{ACAD_REACTORS
330
223
102
}
330
223
100
AcDbXrecord
280
1
270
1
271
1
0
XRECORD
5
224
102
{ACAD_REACTORS
330
223
102
}
330
223
100
AcDbXrecord
280
1
270
1
271
1
0
XRECORD
5
228
102
{ACAD_REACTORS
330
223
102
}
330
223
100
AcDbXrecord
280
1
270
1
271
1
0
XRECORD
5
227
102
{ACAD_REACTORS
330
223
102
}
330
223
100
AcDbXrecord
280
1
270
1
271
1
0
XRECORD
5
229
102
{ACAD_REACTORS
330
223
102
}
330
223
100
AcDbXrecord
280
1
270
1
271
1
0
XRECORD
5
226
102
{ACAD_REACTORS
330
223
102
}
330
223
100
AcDbXrecord
280
1
270
1
271
1
0
XRECORD
5
235
102
{ACAD_REACTORS
330
233
102
}
330
233
100
AcDbXrecord
280
1
270
1
271
1
0
XRECORD
5
234
102
{ACAD_REACTORS
330
233
102
}
330
233
100
AcDbXrecord
280
1
270
1
271
1
0
XRECORD
5
238
102
{ACAD_REACTORS
330
233
102
}
330
233
100
AcDbXrecord
280
1
270
1
271
1
0
XRECORD
5
237
102
{ACAD_REACTORS
330
233
102
}
330
233
100
AcDbXrecord
280
1
270
1
271
1
0
XRECORD
5
239
102
{ACAD_REACTORS
330
233
102
}
330
233
100
AcDbXrecord
280
1
270
1
271
1
0
XRECORD
5
236
102
{ACAD_REACTORS
330
233
102
}
330
233
100
AcDbXrecord
280
1
270
1
271
1
0
CELLSTYLEMAP
5
1056
102
{ACAD_REACTORS
330
2A7
102
}
330
2A7
100
AcDbCellStyleMap
90
3
300
CELLSTYLE
1
TABLEFORMAT_BEGIN
90
5
170
1
91
0
92
32768
62
257
93
1
300
CONTENTFORMAT
1
CONTENTFORMAT_BEGIN
90
0
91
0
92
512
93
0
300

40
0.0
140
1.0
94
5
62
0
340
266
144
0.25
309
CONTENTFORMAT_END
171
1
301
MARGIN
1
CELLMARGIN_BEGIN
40
0.06
40
0.06
40
0.06
40
0.06
40
0.18
40
0.18
309
CELLMARGIN_END
94
6
95
1
302
GRIDFORMAT
1
GRIDFORMAT_BEGIN
90
0
91
1
62
0
92
-2
340
0
93
0
40
0.045
309
GRIDFORMAT_END
95
2
302
GRIDFORMAT
1
GRIDFORMAT_BEGIN
90
0
91
1
62
0
92
-2
340
0
93
0
40
0.045
309
GRIDFORMAT_END
95
4
302
GRIDFORMAT
1
GRIDFORMAT_BEGIN
90
0
91
1
62
0
92
-2
340
0
93
0
40
0.045
309
GRIDFORMAT_END
95
8
302
GRIDFORMAT
1
GRIDFORMAT_BEGIN
90
0
91
1
62
0
92
-2
340
0
93
0
40
0.045
309
GRIDFORMAT_END
95
16
302
GRIDFORMAT
1
GRIDFORMAT_BEGIN
90
0
91
1
62
0
92
-2
340
0
93
0
40
0.045
309
GRIDFORMAT_END
95
32
302
GRIDFORMAT
1
GRIDFORMAT_BEGIN
90
0
91
1
62
0
92
-2
340
0
93
0
40
0.045
309
GRIDFORMAT_END
309
TABLEFORMAT_END
1
CELLSTYLE_BEGIN
90
1
91
1
300
_TITLE
309
CELLSTYLE_END
300
CELLSTYLE
1
TABLEFORMAT_BEGIN
90
5
170
1
91
0
92
0
62
257
93
1
300
CONTENTFORMAT
1
CONTENTFORMAT_BEGIN
90
0
91
0
92
512
93
0
300

40
0.0
140
1.0
94
5
62
0
340
266
144
0.18
309
CONTENTFORMAT_END
171
1
301
MARGIN
1
CELLMARGIN_BEGIN
40
0.06
40
0.06
40
0.06
40
0.06
40
0.18
40
0.18
309
CELLMARGIN_END
94
6
95
1
302
GRIDFORMAT
1
GRIDFORMAT_BEGIN
90
0
91
1
62
0
92
-2
340
0
93
0
40
0.045
309
GRIDFORMAT_END
95
2
302
GRIDFORMAT
1
GRIDFORMAT_BEGIN
90
0
91
1
62
0
92
-2
340
0
93
0
40
0.045
309
GRIDFORMAT_END
95
4
302
GRIDFORMAT
1
GRIDFORMAT_BEGIN
90
0
91
1
62
0
92
-2
340
0
93
0
40
0.045
309
GRIDFORMAT_END
95
8
302
GRIDFORMAT
1
GRIDFORMAT_BEGIN
90
0
91
1
62
0
92
-2
340
0
93
0
40
0.045
309
GRIDFORMAT_END
95
16
302
GRIDFORMAT
1
GRIDFORMAT_BEGIN
90
0
91
1
62
0
92
-2
340
0
93
0
40
0.045
309
GRIDFORMAT_END
95
32
302
GRIDFORMAT
1
GRIDFORMAT_BEGIN
90
0
91
1
62
0
92
-2
340
0
93
0
40
0.045
309
GRIDFORMAT_END
309
TABLEFORMAT_END
1
CELLSTYLE_BEGIN
90
2
91
1
300
_HEADER
309
CELLSTYLE_END
300
CELLSTYLE
1
TABLEFORMAT_BEGIN
90
5
170
1
91
0
92
0
62
257
93
1
300
CONTENTFORMAT
1
CONTENTFORMAT_BEGIN
90
0
91
0
92
512
93
0
300

40
0.0
140
1.0
94
2
62
0
340
266
144
0.18
309
CONTENTFORMAT_END
171
1
301
MARGIN
1
CELLMARGIN_BEGIN
40
0.06
40
0.06
40
0.06
40
0.06
40
0.18
40
0.18
309
CELLMARGIN_END
94
6
95
1
302
GRIDFORMAT
1
GRIDFORMAT_BEGIN
90
0
91
1
62
0
92
-2
340
0
93
0
40
0.045
309
GRIDFORMAT_END
95
2
302
GRIDFORMAT
1
GRIDFORMAT_BEGIN
90
0
91
1
62
0
92
-2
340
0
93
0
40
0.045
309
GRIDFORMAT_END
95
4
302
GRIDFORMAT
1
GRIDFORMAT_BEGIN
90
0
91
1
62
0
92
-2
340
0
93
0
40
0.045
309
GRIDFORMAT_END
95
8
302
GRIDFORMAT
1
GRIDFORMAT_BEGIN
90
0
91
1
62
0
92
-2
340
0
93
0
40
0.045
309
GRIDFORMAT_END
95
16
302
GRIDFORMAT
1
GRIDFORMAT_BEGIN
90
0
91
1
62
0
92
-2
340
0
93
0
40
0.045
309
GRIDFORMAT_END
95
32
302
GRIDFORMAT
1
GRIDFORMAT_BEGIN
90
0
91
1
62
0
92
-2
340
0
93
0
40
0.045
309
GRIDFORMAT_END
309
TABLEFORMAT_END
1
CELLSTYLE_BEGIN
90
3
91
2
300
_DATA
309
CELLSTYLE_END
0
ENDSEC
0
SECTION
2
ACDSDATA
70
2
71
2
0
ACDSSCHEMA
90
0
1
AcDb_Thumbnail_Schema
2
AcDbDs::ID
280
10
91
8
2
Thumbnail_Data
280
15
91
0
101
ACDSRECORD
95
0
90
1
2
AcDbDs::TreatedAsObjectData
280
1
291
1
101
ACDSRECORD
95
0
90
2
2
AcDbDs::Legacy
280
1
291
1
101
ACDSRECORD
1
AcDbDs::ID
90
3
2
AcDs:Indexable
280
1
291
1
101
ACDSRECORD
1
AcDbDs::ID
90
4
2
AcDbDs::HandleAttribute
280
7
282
1
0
ACDSSCHEMA
90
1
1
AcDbDs::TreatedAsObjectDataSchema
2
AcDbDs::TreatedAsObjectData
280
1
91
0
0
ACDSSCHEMA
90
2
1
AcDbDs::LegacySchema
2
AcDbDs::Legacy
280
1
91
0
0
ACDSSCHEMA
90
3
1
AcDbDs::IndexedPropertySchema
2
AcDs:Indexable
280
1
91
0
0
ACDSSCHEMA
90
4
1
AcDbDs::HandleAttributeSchema
2
AcDbDs::HandleAttribute
280
7
91
1
284
1
0
ACDSRECORD
90
0
2
AcDbDs::ID
280
10
320
284
2
Thumbnail_Data
280
15
94
1130
310
89504E470D0A1A0A0000000D4948445200000100000000BB0803000000BDD6B05600000300504C54452128300000000000000000000000000000000000000000000000000000000000000000330000660000990000CC0000FF0033000033330033660033990033CC0033FF0066000066330066660066990066CC0066FF0099
310
000099330099660099990099CC0099FF00CC0000CC3300CC6600CC9900CCCC00CCFF00FF0000FF3300FF6600FF9900FFCC00FFFF3300003300333300663300993300CC3300FF3333003333333333663333993333CC3333FF3366003366333366663366993366CC3366FF3399003399333399663399993399CC3399FF33CC00
310
33CC3333CC6633CC9933CCCC33CCFF33FF0033FF3333FF6633FF9933FFCC33FFFF6600006600336600666600996600CC6600FF6633006633336633666633996633CC6633FF6666006666336666666666996666CC6666FF6699006699336699666699996699CC6699FF66CC0066CC3366CC6666CC9966CCCC66CCFF66FF0066
310
FF3366FF6666FF9966FFCC66FFFF9900009900339900669900999900CC9900FF9933009933339933669933999933CC9933FF9966009966339966669966999966CC9966FF9999009999339999669999999999CC9999FF99CC0099CC3399CC6699CC9999CCCC99CCFF99FF0099FF3399FF6699FF9999FFCC99FFFFCC0000CC00
310
33CC0066CC0099CC00CCCC00FFCC3300CC3333CC3366CC3399CC33CCCC33FFCC6600CC6633CC6666CC6699CC66CCCC66FFCC9900CC9933CC9966CC9999CC99CCCC99FFCCCC00CCCC33CCCC66CCCC99CCCCCCCCCCFFCCFF00CCFF33CCFF66CCFF99CCFFCCCCFFFFFF0000FF0033FF0066FF0099FF00CCFF00FFFF3300FF3333
310
FF3366FF3399FF33CCFF33FFFF6600FF6633FF6666FF6699FF66CCFF66FFFF9900FF9933FF9966FF9999FF99CCFF99FFFFCC00FFCC33FFCC66FFCC99FFCCCCFFCCFFFFFF00FFFF33FFFF66FFFF99FFFFCCFFFFFF0000000D0D0D1A1A1A2828283535354343435050505D5D5D6B6B6B787878868686939393A1A1A1AEAEAEBB
310
BBBBC9C9C9D6D6D6E4E4E4F1F1F1FFFFFF000000000000000000000000000000000000000000000000000000000000544354A80000004549444154789CEDC13101000000C2A0F54F6D094FA000000000000000000000000000000000000000000000000000000000000000000000000000000000000000000000E062BBBB00
310
01006808E50000000049454E44AE4260824BBACA0DB465ABDB4063B2B20534072BDA4047AC9A0DF4A42AD9407A015D99E20BA8D8407A019D89143066171752C0D0E513E84D54AE01050C5E7F7B0A18BA7C020A18BA7C02F105C4FF0C2920FE4024FE484C01F1C7E2F11723AEC65C8EBA1E372071982F7D48A87EFCC5989C41
310
49A3B22F9BB861E9DF3E73F299D3F25FC9D901000000000000000000000000000000000000000000E0344F3123803F1ED9B2780000000049454E44AE426082FADAD667F149BFC5000000000000000000000000000000000000000070A90F51C3A687E5D1137C0000000049454E44AE426082
0
ENDSEC
0
EOF
