0
SECTION
2
HEADER
9
$ACADVER
1
AC1027
9
$ACADMAINTVER
70
8
9
$DWGCODEPAGE
3
ANSI_1252
9
$LASTSAVEDBY
1
macc
9
$REQUIREDVERSIONS
160
0
9
$INSBASE
10
0.0
20
0.0
30
0.0
9
$EXTMIN
10
1.000000000000000E+20
20
1.000000000000000E+20
30
1.000000000000000E+20
9
$EXTMAX
10
-1.000000000000000E+20
20
-1.000000000000000E+20
30
-1.000000000000000E+20
9
$LIMMIN
10
0.0
20
0.0
9
$LIMMAX
10
12.0
20
9.0
9
$ORTHOMODE
70
0
9
$REGENMODE
70
1
9
$FILLMODE
70
1
9
$QTEXTMODE
70
0
9
$MIRRTEXT
70
0
9
$LTSCALE
40
1.0
9
$ATTMODE
70
1
9
$TEXTSIZE
40
0.2
9
$TRACEWID
40
0.05
9
$TEXTSTYLE
7
STANDARD
9
$CLAYER
8
0
9
$CELTYPE
6
ByLayer
9
$CECOLOR
62
256
9
$CELTSCALE
40
1.0
9
$DISPSILH
70
0
9
$DIMSCALE
40
1.0
9
$DIMASZ
40
0.18
9
$DIMEXO
40
0.0625
9
$DIMDLI
40
0.38
9
$DIMRND
40
0.0
9
$DIMDLE
40
0.0
9
$DIMEXE
40
0.18
9
$DIMTP
40
0.0
9
$DIMTM
40
0.0
9
$DIMTXT
40
0.18
9
$DIMCEN
40
0.09
9
$DIMTSZ
40
0.0
9
$DIMTOL
70
0
9
$DIMLIM
70
0
9
$DIMTIH
70
1
9
$DIMTOH
70
1
9
$DIMSE1
70
0
9
$DIMSE2
70
0
9
$DIMTAD
70
0
9
$DIMZIN
70
0
9
$DIMBLK
1

9
$DIMASO
70
1
9
$DIMSHO
70
1
9
$DIMPOST
1

9
$DIMAPOST
1

9
$DIMALT
70
0
9
$DIMALTD
70
2
9
$DIMALTF
40
25.4
9
$DIMLFAC
40
1.0
9
$DIMTOFL
70
0
9
$DIMTVP
40
0.0
9
$DIMTIX
70
0
9
$DIMSOXD
70
0
9
$DIMSAH
70
0
9
$DIMBLK1
1

9
$DIMBLK2
1

9
$DIMSTYLE
2
STANDARD
9
$DIMCLRD
70
0
9
$DIMCLRE
70
0
9
$DIMCLRT
70
0
9
$DIMTFAC
40
1.0
9
$DIMGAP
40
0.09
9
$DIMJUST
70
0
9
$DIMSD1
70
0
9
$DIMSD2
70
0
9
$DIMTOLJ
70
1
9
$DIMTZIN
70
0
9
$DIMALTZ
70
0
9
$DIMALTTZ
70
0
9
$DIMUPT
70
0
9
$DIMDEC
70
4
9
$DIMTDEC
70
4
9
$DIMALTU
70
2
9
$DIMALTTD
70
2
9
$DIMTXSTY
7
STANDARD
9
$DIMAUNIT
70
0
9
$DIMADEC
70
0
9
$DIMALTRND
40
0.0
9
$DIMAZIN
70
0
9
$DIMDSEP
70
46
9
$DIMATFIT
70
3
9
$DIMFRAC
70
0
9
$DIMLDRBLK
1

9
$DIMLUNIT
70
2
9
$DIMLWD
70
-2
9
$DIMLWE
70
-2
9
$DIMTMOVE
70
0
9
$DIMFXL
40
1.0
9
$DIMFXLON
70
0
9
$DIMJOGANG
40
0.7853981633974483
9
$DIMTFILL
70
0
9
$DIMTFILLCLR
70
0
9
$DIMARCSYM
70
0
9
$DIMLTYPE
6

9
$DIMLTEX1
6

9
$DIMLTEX2
6

9
$DIMTXTDIRECTION
70
0
9
$LUNITS
70
2
9
$LUPREC
70
4
9
$SKETCHINC
40
0.1
9
$FILLETRAD
40
0.0
9
$AUNITS
70
0
9
$AUPREC
70
0
9
$MENU
1
.
9
$ELEVATION
40
0.0
9
$PELEVATION
40
0.0
9
$THICKNESS
40
0.0
9
$LIMCHECK
70
0
9
$CHAMFERA
40
0.0
9
$CHAMFERB
40
0.0
9
$CHAMFERC
40
0.0
9
$CHAMFERD
40
0.0
9
$SKPOLY
70
0
9
$TDCREATE
40
2458312.067262384
9
$TDUCREATE
40
2458311.983929051
9
$TDUPDATE
40
2458312.961305069
9
$TDUUPDATE
40
2458312.877971736
9
$TDINDWG
40
0.0045230903
9
$TDUSRTIMER
40
0.0045219676
9
$USRTIMER
70
1
9
$ANGBASE
50
0.0
9
$ANGDIR
70
0
9
$PDMODE
70
0
9
$PDSIZE
40
0.0
9
$PLINEWID
40
0.0
9
$SPLFRAME
70
0
9
$SPLINETYPE
70
6
9
$SPLINESEGS
70
8
9
$HANDSEED
5
1058
9
$SURFTAB1
70
6
9
$SURFTAB2
70
6
9
$SURFTYPE
70
6
9
$SURFU
70
6
9
$SURFV
70
6
9
$UCSBASE
2

9
$UCSNAME
2

9
$UCSORG
10
0.0
20
0.0
30
0.0
9
$UCSXDIR
10
1.0
20
0.0
30
0.0
9
$UCSYDIR
10
0.0
20
1.0
30
0.0
9
$UCSORTHOREF
2

9
$UCSORTHOVIEW
70
0
9
$UCSORGTOP
10
0.0
20
0.0
30
0.0
9
$UCSORGBOTTOM
10
0.0
20
0.0
30
0.0
9
$UCSORGLEFT
10
0.0
20
0.0
30
0.0
9
$UCSORGRIGHT
10
0.0
20
0.0
30
0.0
9
$UCSORGFRONT
10
0.0
20
0.0
30
0.0
9
$UCSORGBACK
10
0.0
20
0.0
30
0.0
9
$PUCSBASE
2

9
$PUCSNAME
2

9
$PUCSORG
10
0.0
20
0.0
30
0.0
9
$PUCSXDIR
10
1.0
20
0.0
30
0.0
9
$PUCSYDIR
10
0.0
20
1.0
30
0.0
9
$PUCSORTHOREF
2

9
$PUCSORTHOVIEW
70
0
9
$PUCSORGTOP
10
0.0
20
0.0
30
0.0
9
$PUCSORGBOTTOM
10
0.0
20
0.0
30
0.0
9
$PUCSORGLEFT
10
0.0
20
0.0
30
0.0
9
$PUCSORGRIGHT
10
0.0
20
0.0
30
0.0
9
$PUCSORGFRONT
10
0.0
20
0.0
30
0.0
9
$PUCSORGBACK
10
0.0
20
0.0
30
0.0
9
$USERI1
70
0
9
$USERI2
70
0
9
$USERI3
70
0
9
$USERI4
70
0
9
$USERI5
70
0
9
$USERR1
40
0.0
9
$USERR2
40
0.0
9
$USERR3
40
0.0
9
$USERR4
40
0.0
9
$USERR5
40
0.0
9
$WORLDVIEW
70
1
9
$SHADEDGE
70
3
9
$SHADEDIF
70
70
9
$TILEMODE
70
1
9
$MAXACTVP
70
64
9
$PINSBASE
10
0.0
20
0.0
30
0.0
9
$PLIMCHECK
70
0
9
$PEXTMIN
10
0.0
20
0.0
30
0.0
9
$PEXTMAX
10
0.0
20
0.0
30
0.0
9
$PLIMMIN
10
0.0
20
0.0
9
$PLIMMAX
10
12.0
20
9.0
9
$UNITMODE
70
0
9
$VISRETAIN
70
1
9
$PLINEGEN
70
0
9
$PSLTSCALE
70
1
9
$TREEDEPTH
70
3020
9
$CMLSTYLE
2
Standard
9
$CMLJUST
70
0
9
$CMLSCALE
40
1.0
9
$PROXYGRAPHICS
70
1
9
$MEASUREMENT
70
0
9
$CELWEIGHT
370
-1
9
$ENDCAPS
280
0
9
$JOINSTYLE
280
0
9
$LWDISPLAY
290
0
9
$INSUNITS
70
0
9
$HYPERLINKBASE
1

9
$STYLESHEET
1

9
$XEDIT
290
1
9
$CEPSNTYPE
380
0
9
$PSTYLEMODE
290
1
9
$FINGERPRINTGUID
2
{4B4ED3CC-337F-6143-9B17-EFB0F3F01845}
9
$VERSIONGUID
2
{A4861B96-12DA-254C-ACF2-0C3CF0F63D02}
9
$EXTNAMES
290
1
9
$PSVPSCALE
40
0.0
9
$OLESTARTUP
290
0
9
$SORTENTS
280
127
9
$INDEXCTL
280
0
9
$HIDETEXT
280
0
9
$XCLIPFRAME
280
2
9
$HALOGAP
280
0
9
$OBSCOLOR
70
257
9
$OBSLTYPE
280
0
9
$INTERSECTIONDISPLAY
280
0
9
$INTERSECTIONCOLOR
70
257
9
$DIMASSOC
280
1
9
$PROJECTNAME
1

9
$CAMERADISPLAY
290
0
9
$LENSLENGTH
40
50.0
9
$CAMERAHEIGHT
40
0.0
9
$STEPSPERSEC
40
2.0
9
$STEPSIZE
40
6.0
9
$3DDWFPREC
40
2.0
9
$PSOLWIDTH
40
0.25
9
$PSOLHEIGHT
40
4.0
9
$LOFTANG1
40
1.570796326794896
9
$LOFTANG2
40
1.570796326794896
9
$LOFTMAG1
40
0.0
9
$LOFTMAG2
40
0.0
9
$LOFTPARAM
70
7
9
$LOFTNORMALS
280
1
9
$LATITUDE
40
37.795
9
$LONGITUDE
40
-122.394
9
$NORTHDIRECTION
40
0.0
9
$TIMEZONE
70
-8000
9
$LIGHTGLYPHDISPLAY
280
1
9
$TILEMODELIGHTSYNCH
280
1
9
$CMATERIAL
347
222
9
$SOLIDHIST
280
0
9
$SHOWHIST
280
1
9
$DWFFRAME
280
2
9
$DGNFRAME
280
0
9
$REALWORLDSCALE
290
1
9
$INTERFERECOLOR
62
1
9
$INTERFEREOBJVS
345
244
9
$INTERFEREVPVS
346
241
9
$CSHADOW
280
0
9
$SHADOWPLANELOCATION
40
0.0
0
ENDSEC
0
SECTION
2
CLASSES
0
CLASS
1
ACDBDICTIONARYWDFLT
2
AcDbDictionaryWithDefault
3
ObjectDBX Classes
90
0
91
1
280
0
281
0
0
CLASS
1
MATERIAL
2
AcDbMaterial
3
ObjectDBX Classes
90
1153
91
3
280
0
281
0
0
CLASS
1
VISUALSTYLE
2
AcDbVisualStyle
3
ObjectDBX Classes
90
4095
91
24
280
0
281
0
0
CLASS
1
SCALE
2
AcDbScale
3
ObjectDBX Classes
90
1153
91
17
280
0
281
0
0
CLASS
1
TABLESTYLE
2
AcDbTableStyle
3
ObjectDBX Classes
90
4095
91
1
280
0
281
0
0
CLASS
1
MLEADERSTYLE
2
AcDbMLeaderStyle
3
ACDB_MLEADERSTYLE_CLASS
90
4095
91
1
280
0
281
0
0
CLASS
1
ACDBSECTIONVIEWSTYLE
2
AcDbSectionViewStyle
3
ObjectDBX Classes
90
1025
91
1
280
0
281
0
0
CLASS
1
ACDBDETAILVIEWSTYLE
2
AcDbDetailViewStyle
3
ObjectDBX Classes
90
1025
91
1
280
0
281
0
0
CLASS
1
DICTIONARYVAR
2
AcDbDictionaryVar
3
ObjectDBX Classes
90
0
91
9
280
0
281
0
0
CLASS
1
CELLSTYLEMAP
2
AcDbCellStyleMap
3
ObjectDBX Classes
90
1152
91
2
280
0
281
0
0
ENDSEC
0
SECTION
2
TABLES
0
TABLE
2
VPORT
5
219
330
0
100
AcDbSymbolTable
70
1
0
VPORT
5
285
330
219
100
AcDbSymbolTableRecord
100
AcDbViewportTableRecord
2
*ACTIVE
70
0
10
0.0
20
0.0
11
1.0
21
1.0
12
60.85393284500712
22
1.602311788490737
13
0.0
23
0.0
14
0.5
24
0.5
15
0.5
25
0.5
16
0.0
26
0.0
36
1.0
17
0.0
27
0.0
37
0.0
40
135.7601553851812
41
1.367970660146699
42
50.0
43
0.0
44
0.0
50
0.0
51
0.0
71
0
72
1000
73
1
74
3
75
0
76
1
77
0
78
0
281
0
65
1
110
0.0
120
0.0
130
0.0
111
1.0
121
0.0
131
0.0
112
0.0
122
1.0
132
0.0
79
0
146
0.0
348
240
60
3
61
5
292
1
282
0
141
0.0
142
0.0
63
250
421
3355443
1001
ACAD_NAV_VCDISPLAY
1070
3
0
ENDTAB
0
TABLE
2
LTYPE
5
216
330
0
100
AcDbSymbolTable
70
2
0
LTYPE
5
26B
330
216
100
AcDbSymbolTableRecord
100
AcDbLinetypeTableRecord
2
ByBlock
70
0
3

72
65
73
0
40
0.0
0
LTYPE
5
26C
330
216
100
AcDbSymbolTableRecord
100
AcDbLinetypeTableRecord
2
ByLayer
70
0
3

72
65
73
0
40
0.0
0
LTYPE
5
26D
330
216
100
AcDbSymbolTableRecord
100
AcDbLinetypeTableRecord
2
CONTINUOUS
70
0
3
Solid line
72
65
73
0
40
0.0
0
LTYPE
5
103D
330
216
100
AcDbSymbolTableRecord
100
AcDbLinetypeTableRecord
2
DOTTED
70
0
3
Dotted . . . . . . . . . . . . . . . . . . . .
72
65
73
2
40
3.0
49
0.0
74
0
49
-3.0
74
0
0
ENDTAB
0
TABLE
2
LAYER
5
213
102
{ACAD_XDICTIONARY
360
297
102
}
330
0
100
AcDbSymbolTable
70
4
0
LAYER
5
265
102
{ACAD_XDICTIONARY
360
292
102
}
330
213
100
AcDbSymbolTableRecord
100
AcDbLayerTableRecord
2
0
70
0
62
7
6
CONTINUOUS
370
-3
390
220
347
232
348
0
0
LAYER
5
2FB
330
213
100
AcDbSymbolTableRecord
100
AcDbLayerTableRecord
2
gear
70
0
62
7
6
CONTINUOUS
370
-3
390
220
347
232
348
0
1001
AcAecLayerStandard
1000

1000

1001
AcCmTransparency
1071
0
0
LAYER
5
2FE
330
213
100
AcDbSymbolTableRecord
100
AcDbLayerTableRecord
2
gear_texts
70
0
62
7
6
CONTINUOUS
370
-3
390
220
347
232
348
0
1001
AcAecLayerStandard
1000

1000

1001
AcCmTransparency
1071
0
0
LAYER
5
2FF
330
213
100
AcDbSymbolTableRecord
100
AcDbLayerTableRecord
2
gear_guides
70
0
62
5
6
CONTINUOUS
370
-3
390
220
347
232
348
0
1001
AcAecLayerStandard
1000

1000

1001
AcCmTransparency
1071
0
0
ENDTAB
0
TABLE
2
STYLE
5
214
330
0
100
AcDbSymbolTable
70
3
0
STYLE
5
266
330
214
100
AcDbSymbolTableRecord
100
AcDbTextStyleTableRecord
2
STANDARD
70
0
40
0.0
41
1.0
50
0.0
71
0
42
0.2
3
txt
4

0
STYLE
5
26A
330
214
100
AcDbSymbolTableRecord
100
AcDbTextStyleTableRecord
2
ANNOTATIVE
70
0
40
0.0
41
1.0
50
0.0
71
0
42
0.2
3
txt
4

1001
ACADANNOTATIVE
1000
AnnotativeData
1002
{
1070
1
1070
1
1002
}
0
STYLE
5
301
330
214
100
AcDbSymbolTableRecord
100
AcDbTextStyleTableRecord
2

70
1
40
0.0
41
1.0
50
0.0
71
0
42
0.2
3
ltypeshp.shx
4

0
ENDTAB
0
TABLE
2
VIEW
5
217
330
0
100
AcDbSymbolTable
70
1
0
ENDTAB
0
TABLE
2
UCS
5
218
330
0
100
AcDbSymbolTable
70
0
0
ENDTAB
0
TABLE
2
APPID
5
21A
330
0
100
AcDbSymbolTable
70
10
0
APPID
5
267
330
21A
100
AcDbSymbolTableRecord
100
AcDbRegAppTableRecord
2
ACAD
70
0
0
APPID
5
26E
330
21A
100
AcDbSymbolTableRecord
100
AcDbRegAppTableRecord
2
ACADANNOTATIVE
70
0
0
APPID
5
286
330
21A
100
AcDbSymbolTableRecord
100
AcDbRegAppTableRecord
2
ACADANNOPO
70
0
0
APPID
5
287
330
21A
100
AcDbSymbolTableRecord
100
AcDbRegAppTableRecord
2
ACAD_DSTYLE_DIMJAG
70
0
0
APPID
5
288
330
21A
100
AcDbSymbolTableRecord
100
AcDbRegAppTableRecord
2
ACAD_DSTYLE_DIMTALN
70
0
0
APPID
5
289
330
21A
100
AcDbSymbolTableRecord
100
AcDbRegAppTableRecord
2
ACAD_MLEADERVER
70
0
0
APPID
5
28A
330
21A
100
AcDbSymbolTableRecord
100
AcDbRegAppTableRecord
2
ACAD_NAV_VCDISPLAY
70
0
0
APPID
5
2E7
330
21A
100
AcDbSymbolTableRecord
100
AcDbRegAppTableRecord
2
ACAD_EXEMPT_FROM_CAD_STANDARDS
70
0
0
APPID
5
2FC
330
21A
100
AcDbSymbolTableRecord
100
AcDbRegAppTableRecord
2
AcAecLayerStandard
70
0
0
APPID
5
2FD
330
21A
100
AcDbSymbolTableRecord
100
AcDbRegAppTableRecord
2
AcCmTransparency
70
0
0
ENDTAB
0
TABLE
2
DIMSTYLE
5
21B
330
0
100
AcDbSymbolTable
70
2
100
AcDbDimStyleTable
71
1
340
268
0
DIMSTYLE
105
268
330
21B
100
AcDbSymbolTableRecord
100
AcDbDimStyleTableRecord
2
STANDARD
70
0
279
2
340
266
0
DIMSTYLE
105
269
330
21B
100
AcDbSymbolTableRecord
100
AcDbDimStyleTableRecord
2
ANNOTATIVE
70
0
40
0.0
279
2
340
266
1001
ACADANNOTATIVE
1000
AnnotativeData
1002
{
1070
1
1070
1
1002
}
0
ENDTAB
0
TABLE
2
BLOCK_RECORD
5
212
330
0
100
AcDbSymbolTable
70
2
0
BLOCK_RECORD
5
281
330
212
100
AcDbSymbolTableRecord
100
AcDbBlockTableRecord
2
*Model_Space
340
284
70
0
280
1
281
0
0
BLOCK_RECORD
5
27D
330
212
100
AcDbSymbolTableRecord
100
AcDbBlockTableRecord
2
*Paper_Space
340
280
70
0
280
1
281
0
0
BLOCK_RECORD
5
28C
330
212
100
AcDbSymbolTableRecord
100
AcDbBlockTableRecord
2
$MODEL_SPACE
340
0
70
0
280
1
281
0
0
BLOCK_RECORD
5
28E
330
212
100
AcDbSymbolTableRecord
100
AcDbBlockTableRecord
2
$PAPER_SPACE
340
0
70
0
280
1
281
0
0
ENDTAB
0
ENDSEC
0
SECTION
2
BLOCKS
0
BLOCK
5
282
330
281
100
AcDbEntity
8
0
100
AcDbBlockBegin
2
*Model_Space
70
0
10
0.0
20
0.0
30
0.0
3
*Model_Space
1

0
ENDBLK
5
283
330
281
100
AcDbEntity
8
0
100
AcDbBlockEnd
0
BLOCK
5
27E
330
27D
100
AcDbEntity
67
1
8
0
100
AcDbBlockBegin
2
*Paper_Space
70
0
10
0.0
20
0.0
30
0.0
3
*Paper_Space
1

0
ENDBLK
5
27F
330
27D
100
AcDbEntity
67
1
8
0
100
AcDbBlockEnd
0
BLOCK
5
28D
330
28C
100
AcDbEntity
8
0
100
AcDbBlockBegin
2
$MODEL_SPACE
70
0
10
0.0
20
0.0
30
0.0
3
$MODEL_SPACE
1

0
ENDBLK
5
21
330
28C
100
AcDbEntity
8
0
100
AcDbBlockEnd
0
BLOCK
5
28F
330
28E
100
AcDbEntity
8
0
100
AcDbBlockBegin
2
$PAPER_SPACE
70
0
10
0.0
20
0.0
30
0.0
3
$PAPER_SPACE
1

0
ENDBLK
5
5B
330
28E
100
AcDbEntity
8
0
100
AcDbBlockEnd
0
ENDSEC
0
SECTION
2
ENTITIES
0
LWPOLYLINE
5
1000
100
AcDbEntity
100
AcDbPolyline
90
4200
70
1
43
0
10
47.7
20
0
10
47.7122297
20
0.4153218
10
47.8051199
20
0.4446113
10
47.8999218
20
0.4752329
10
47.9966213
20
0.5072145
10
48.0952039
20
0.5405843
10
48.1956548
20
0.5753699
10
48.297959
20
0.6115991
10
48.402101
20
0.6492993
10
48.5080653
20
0.6884981
10
48.6158359
20
0.7292226
10
48.7253966
20
0.7714999
10
48.8367308
20
0.815357
10
48.9498217
20
0.8608207
10
49.0646522
20
0.9079175
10
49.1812049
20
0.9566739
10
49.2994621
20
1.0071163
10
49.4194059
20
1.0592708
10
49.541018
20
1.1131633
10
49.6642799
20
1.1688196
10
49.7891729
20
1.2262654
10
49.9156778
20
1.285526
10
50.0437752
20
1.3466268
10
50.1734457
20
1.4095928
10
50.3046692
20
1.474449
10
50.4374255
20
1.5412199
10
50.5716944
20
1.6099302
10
50.707455
20
1.6806041
10
50.8446863
20
1.7532659
10
50.9833673
20
1.8279393
10
51.1234762
20
1.9046482
10
51.2649915
20
1.9834161
10
51.4078911
20
2.0642663
10
51.5521526
20
2.1472218
10
51.6977537
20
2.2323057
10
51.8446714
20
2.3195406
10
51.9186169
20
2.3639717
10
51.9371534
20
2.3751647
10
51.9417907
20
2.3779683
10
51.9441098
20
2.3793709
10
51.9452695
20
2.3800724
10
51.9454948
20
2.3802448
10
51.8779124
20
3.561209
10
51.8776688
20
3.5613546
10
51.8764367
20
3.5619193
10
51.8739727
20
3.5630481
10
51.8690459
20
3.5653044
10
51.8493534
20
3.5743097
10
51.770822
20
3.6100151
10
51.6149117
20
3.6799202
10
51.4605549
20
3.7478385
10
51.3077716
20
3.8137952
10
51.1565816
20
3.8778157
10
51.0070044
20
3.9399253
10
50.8590592
20
4.0001499
10
50.7127649
20
4.0585152
10
50.5681402
20
4.1150473
10
50.4252035
20
4.1697723
10
50.2839728
20
4.2227167
10
50.1444659
20
4.273907
10
50.0067003
20
4.3233698
10
49.8706933
20
4.371132
10
49.7364617
20
4.4172207
10
49.6040223
20
4.4616628
10
49.4733913
20
4.5044858
10
49.3445848
20
4.5457172
10
49.2176186
20
4.5853844
10
49.0925081
20
4.6235152
10
48.9692685
20
4.6601376
10
48.8479146
20
4.6952795
10
48.7284609
20
4.728969
10
48.6109219
20
4.7612345
10
48.4953113
20
4.7921043
10
48.381643
20
4.821607
10
48.2699301
20
4.8497713
10
48.1601858
20
4.8766258
10
48.0524228
20
4.9021995
10
47.9466535
20
4.9265213
10
47.84289
20
4.9496205
10
47.7411442
20
4.9715261
10
47.6414276
20
4.9922675
10
47.5437513
20
5.0118742
10
47.4481262
20
5.0303757
10
47.3885966
20
5.4415909
10
47.3238713
20
5.9783952
10
47.2839509
20
6.3919749
10
47.3724377
20
6.4326757
10
47.4626542
20
6.4749376
10
47.5545828
20
6.5187867
10
47.6482057
20
6.564249
10
47.7435047
20
6.6113502
10
47.8404614
20
6.6601158
10
47.9390572
20
6.7105713
10
48.0392731
20
6.7627418
10
48.1410897
20
6.8166524
10
48.2444877
20
6.8723279
10
48.3494472
20
6.9297931
10
48.4559483
20
6.9890723
10
48.5639705
20
7.0501898
10
48.6734933
20
7.1131697
10
48.784496
20
7.1780359
10
48.8969573
20
7.2448121
10
49.0108559
20
7.3135216
10
49.1261703
20
7.3841879
10
49.2428786
20
7.4568339
10
49.3609586
20
7.5314826
10
49.480388
20
7.6081564
10
49.6011442
20
7.6868779
10
49.7232044
20
7.7676693
10
49.8465453
20
7.8505526
10
49.9711437
20
7.9355494
10
50.096976
20
8.0226814
10
50.2240183
20
8.1119698
10
50.3522466
20
8.2034358
10
50.4816366
20
8.2971001
10
50.6121638
20
8.3929834
10
50.7438033
20
8.4911061
10
50.8765302
20
8.5914883
10
51.0103193
20
8.69415
10
51.1451452
20
8.7991107
10
51.2129389
20
8.8524592
10
51.2299264
20
8.8658872
10
51.2341757
20
8.8692499
10
51.2363007
20
8.8709321
10
51.2373633
20
8.8717734
10
51.2375653
20
8.8719727
10
51.0225017
20
10.0351543
10
51.0222418
20
10.0352683
10
51.0209486
20
10.035674
10
51.0183626
20
10.0364852
10
51.0131918
20
10.0381062
10
50.992526
20
10.0445723
10
50.9101388
20
10.0701536
10
50.7466964
20
10.1199667
10
50.5850443
20
10.1680034
10
50.4251992
20
10.2142912
10
50.2671775
20
10.2588577
10
50.1109953
20
10.3017306
10
49.9566686
20
10.3429378
10
49.8042128
20
10.3825074
10
49.6536432
20
10.4204674
10
49.5049746
20
10.4568462
10
49.3582219
20
10.4916723
10
49.2133992
20
10.524974
10
49.0705206
20
10.5567802
10
48.9295999
20
10.5871196
10
48.7906503
20
10.6160211
10
48.6536851
20
10.6435138
10
48.5187171
20
10.6696267
10
48.3857586
20
10.6943892
10
48.2548219
20
10.7178305
10
48.1259189
20
10.7399802
10
47.999061
20
10.7608678
10
47.8742596
20
10.7805229
10
47.7515255
20
10.7989753
10
47.6308693
20
10.8162548
10
47.5123014
20
10.8323913
10
47.3958317
20
10.847415
10
47.2814698
20
10.8613558
10
47.1692251
20
10.8742439
10
47.0591066
20
10.8861097
10
46.9511229
20
10.8969833
10
46.8452826
20
10.9068953
10
46.7415936
20
10.9158761
10
46.6400637
20
10.9239562
10
46.5407002
20
10.9311662
10
46.4435103
20
10.9375367
10
46.3329112
20
11.3380484
10
46.2014168
20
11.8625076
10
46.109976
20
12.2678227
10
46.1926638
20
12.3192929
10
46.2768721
20
12.3725287
10
46.3625801
20
12.4275538
10
46.4497668
20
12.4843916
10
46.538411
20
12.5430655
10
46.6284913
20
12.6035985
10
46.7199858
20
12.6660134
10
46.8128728
20
12.730333
10
46.9071298
20
12.7965795
10
47.0027344
20
12.8647752
10
47.099664
20
12.9349422
10
47.1978956
20
13.007102
10
47.297406
20
13.0812764
10
47.3981717
20
13.1574866
10
47.5001692
20
13.2357536
10
47.6033744
20
13.3160983
10
47.7077634
20
13.3985414
10
47.8133116
20
13.4831032
10
47.9199947
20
13.5698038
10
48.0277877
20
13.6586631
10
48.1366656
20
13.7497009
10
48.2466031
20
13.8429364
10
48.3575749
20
13.9383889
10
48.4695553
20
14.0360773
10
48.5825182
20
14.1360203
10
48.6964378
20
14.2382361
10
48.8112875
20
14.3427431
10
48.927041
20
14.4495591
10
49.0436715
20
14.5587017
10
49.161152
20
14.6701884
10
49.2794555
20
14.7840362
10
49.3985546
20
14.9002619
10
49.5184218
20
15.0188823
10
49.6390294
20
15.1399135
10
49.6996022
20
15.2013382
10
49.7147728
20
15.2167894
10
49.7185672
20
15.2206581
10
49.7204646
20
15.2225934
10
49.7214134
20
15.2235612
10
49.7215888
20
15.2237843
10
49.3624357
20
16.3508393
10
49.3621635
20
16.3509197
10
49.3608297
20
16.3511602
10
49.3581624
20
16.3516408
10
49.3528293
20
16.352601
10
49.331516
20
16.356426
10
49.2465722
20
16.3714797
10
49.0781754
20
16.4004153
10
48.9117774
20
16.4278128
10
48.7473913
20
16.4537017
10
48.58503
20
16.4781114
10
48.424706
20
16.5010715
10
48.2664315
20
16.5226115
10
48.1102185
20
16.5427612
10
47.9560785
20
16.5615506
10
47.8040228
20
16.5790094
10
47.6540624
20
16.5951678
10
47.5062078
20
16.6100559
10
47.3604695
20
16.6237039
10
47.2168574
20
16.636142
10
47.0753812
20
16.6474006
10
46.9360503
20
16.6575102
10
46.7988737
20
16.6665012
10
46.6638601
20
16.6744043
10
46.5310179
20
16.6812501
10
46.4003552
20
16.6870693
10
46.2718798
20
16.6918926
10
46.145599
20
16.695751
10
46.02152
20
16.6986752
10
45.8996495
20
16.7006962
10
45.7799941
20
16.7018451
10
45.6625598
20
16.7021527
10
45.5473524
20
16.7016502
10
45.4343775
20
16.7003688
10
45.3236401
20
16.6983394
10
45.2151452
20
16.6955934
10
45.1088971
20
16.6921619
10
45.0049001
20
16.6880762
10
44.9031581
20
16.6833675
10
44.8036745
20
16.6780671
10
44.7064525
20
16.6722063
10
44.5465281
20
17.0556981
10
44.3503384
20
17.5595412
10
44.2088191
20
17.9501997
10
44.284404
20
18.0116275
10
44.3612761
20
18.0749976
10
44.4394118
20
18.1403309
10
44.5187873
20
18.2076479
10
44.5993788
20
18.2769692
10
44.6811619
20
18.348315
10
44.7641124
20
18.421705
10
44.8482055
20
18.4971592
10
44.9334164
20
18.5746969
10
45.01972
20
18.6543373
10
45.107091
20
18.7360995
10
45.195504
20
18.820002
10
45.2849332
20
18.9060635
10
45.3753527
20
18.994302
10
45.4667364
20
19.0847355
10
45.5590579
20
19.1773817
10
45.6522909
20
19.2722581
10
45.7464085
20
19.3693818
10
45.8413838
20
19.4687697
10
45.9371898
20
19.5704384
10
46.0337991
20
19.6744043
10
46.1311843
20
19.7806835
10
46.2293177
20
19.8892918
10
46.3281714
20
20.0002447
10
46.4277175
20
20.1135576
10
46.5279276
20
20.2292454
10
46.6287736
20
20.3473228
10
46.7302267
20
20.4678043
10
46.8322583
20
20.590704
10
46.9348395
20
20.7160357
10
47.0379412
20
20.8438131
10
47.1415342
20
20.9740495
10
47.2455892
20
21.1067578
10
47.3500766
20
21.2419508
10
47.4024731
20
21.3104829
10
47.4155876
20
21.3277137
10
47.4188671
20
21.3320275
10
47.420507
20
21.3341853
10
47.421327
20
21.3352644
10
47.4214731
20
21.3355077
10
46.9238946
20
22.4086617
10
46.9236145
20
22.4087074
10
46.922261
20
22.4087788
10
46.9195545
20
22.4089214
10
46.9141431
20
22.4092055
10
46.8925185
20
22.4103291
10
46.8063578
20
22.4146178
10
46.6356623
20
22.4222195
10
46.4671425
20
22.4285458
10
46.3008079
20
22.4336276
10
46.1366675
20
22.4374955
10
45.97473
20
22.4401806
10
45.8150039
20
22.4417137
10
45.6574973
20
22.4421259
10
45.5022178
20
22.4414482
10
45.3491729
20
22.4397117
10
45.1983698
20
22.4369477
10
45.0498152
20
22.4331873
10
44.9035155
20
22.4284618
10
44.7594769
20
22.4228025
10
44.6177052
20
22.4162406
10
44.4782059
20
22.4088077
10
44.3409841
20
22.4005351
10
44.2060446
20
22.3914541
10
44.0733919
20
22.3815964
10
43.9430302
20
22.3709933
10
43.8149633
20
22.3596764
10
43.6891947
20
22.3476771
10
43.5657276
20
22.3350271
10
43.4445648
20
22.3217578
10
43.3257089
20
22.3079007
10
43.209162
20
22.2934875
10
43.0949261
20
22.2785497
10
42.9830026
20
22.2631188
10
42.8733928
20
22.2472264
10
42.7660975
20
22.230904
10
42.6611173
20
22.2141832
10
42.5584525
20
22.1970954
10
42.4581029
20
22.1796722
10
42.360068
20
22.161945
10
42.2643473
20
22.1439452
10
42.0576196
20
22.5043692
10
41.7998286
20
22.9796503
10
41.6104628
20
23.3494913
10
41.6777528
20
23.419908
10
41.7460763
20
23.4924131
10
41.8154074
20
23.5670241
10
41.88572
20
23.6437588
10
41.9569877
20
23.7226342
10
42.029184
20
23.8036675
10
42.1022821
20
23.8868754
10
42.1762552
20
23.9722742
10
42.2510761
20
24.0598802
10
42.3267176
20
24.1497094
10
42.4031522
20
24.2417773
10
42.4803522
20
24.3360993
10
42.5582899
20
24.4326906
10
42.6369372
20
24.5315659
10
42.716266
20
24.6327398
10
42.7962479
20
24.7362264
10
42.8768545
20
24.8420399
10
42.9580571
20
24.9501938
10
43.039827
20
25.0607015
10
43.122135
20
25.1735762
10
43.2049521
20
25.2888307
10
43.2882491
20
25.4064774
10
43.3719964
20
25.5265287
10
43.4561646
20
25.6489964
10
43.5407238
20
25.7738922
10
43.6256443
20
25.9012274
10
43.710896
20
26.0310131
10
43.7964488
20
26.16326
10
43.8822724
20
26.2979785
10
43.9683365
20
26.4351788
10
44.0546105
20
26.5748707
10
44.1410637
20
26.7170638
10
44.2276654
20
26.8617672
10
44.3143847
20
27.0089899
10
44.3577787
20
27.0835486
10
44.3686302
20
27.1022872
10
44.3713432
20
27.106978
10
44.3726997
20
27.1093244
10
44.373378
20
27.1104978
10
44.3734924
20
27.1107574
10
43.7453356
20
28.1130861
10
43.745052
20
28.1130964
10
43.7437003
20
28.1129976
10
43.7409973
20
28.1127998
10
43.7355929
20
28.1124035
10
43.7139979
20
28.110808
10
43.6279792
20
28.1042641
10
43.4576769
20
28.090412
10
43.289693
20
28.0755673
10
43.1240331
20
28.0597617
10
42.9607022
20
28.0430269
10
42.7997052
20
28.0253946
10
42.6410464
20
28.0068967
10
42.4847301
20
27.9875648
10
42.3307599
20
27.9674308
10
42.1791395
20
27.9465264
10
42.0298719
20
27.9248835
10
41.88296
20
27.9025339
10
41.7384062
20
27.8795095
10
41.5962127
20
27.8558419
10
41.4563814
20
27.8315632
10
41.3189136
20
27.8067049
10
41.1838107
20
27.7812991
10
41.0510734
20
27.7553774
10
40.9207022
20
27.7289716
10
40.7926973
20
27.7021134
10
40.6670587
20
27.6748347
10
40.5437857
20
27.6471671
10
40.4228776
20
27.6191422
10
40.3043334
20
27.5907918
10
40.1881514
20
27.5621475
10
40.07433
20
27.5332407
10
39.9628671
20
27.5041031
10
39.8537601
20
27.4747662
10
39.7470065
20
27.4452613
10
39.642603
20
27.41562
10
39.5405463
20
27.3858735
10
39.4408326
20
27.3560531
10
39.343458
20
27.3261902
10
39.248418
20
27.2963157
10
39.155708
20
27.2664609
10
38.9054373
20
27.598133
10
38.5901106
20
28.0373565
10
38.3558847
20
28.3805474
10
38.4138184
20
28.4588426
10
38.4725159
20
28.5393391
10
38.5319491
20
28.6220513
10
38.5920898
20
28.7069934
10
38.6529099
20
28.7941791
10
38.7143807
20
28.883622
10
38.7764737
20
28.9753354
10
38.8391602
20
29.0693321
10
38.9024112
20
29.1656249
10
38.9661976
20
29.2642261
10
39.0304903
20
29.3651478
10
39.0952599
20
29.4684018
10
39.1604769
20
29.5739996
10
39.2261117
20
29.6819524
10
39.2921345
20
29.792271
10
39.3585155
20
29.904966
10
39.4252245
20
30.0200478
10
39.4922316
20
30.1375262
10
39.5595063
20
30.2574111
10
39.6270184
20
30.3797116
10
39.6947373
20
30.504437
10
39.7626323
20
30.631596
10
39.8306729
20
30.7611969
10
39.8988281
20
30.893248
10
39.967067
20
31.027757
10
40.0353585
20
31.1647315
10
40.1036715
20
31.3041787
10
40.1719748
20
31.4461054
10
40.2402369
20
31.5905182
10
40.3084266
20
31.7374233
10
40.3765122
20
31.8868267
10
40.4444622
20
32.038734
10
40.5122449
20
32.1931505
10
40.5798285
20
32.350081
10
40.6135357
20
32.4294906
10
40.621953
20
32.4494415
10
40.6240567
20
32.4544353
10
40.6251085
20
32.4569332
10
40.6256343
20
32.4581823
10
40.6257153
20
32.4584543
10
39.8768866
20
33.3741504
10
39.8766039
20
33.374125
10
39.8752752
20
33.3738576
10
39.8726183
20
33.3733226
10
39.8673062
20
33.3722521
10
39.8460815
20
33.3679626
10
39.7615612
20
33.3506892
10
39.5943379
20
33.3156018
10
39.4295392
20
33.2798203
10
39.2671666
20
33.2433766
10
39.107221
20
33.206303
10
38.9497034
20
33.1686315
10
38.7946141
20
33.1303942
10
38.6419533
20
33.0916231
10
38.4917207
20
33.0523502
10
38.3439159
20
33.0126076
10
38.1985379
20
32.9724272
10
38.0555856
20
32.9318409
10
37.9150574
20
32.8908806
10
37.7769514
20
32.8495781
10
37.6412656
20
32.8079653
10
37.5079974
20
32.7660738
10
37.377144
20
32.7239354
10
37.2487022
20
32.6815817
10
37.1226686
20
32.6390443
10
36.9990393
20
32.5963546
10
36.8778102
20
32.5535443
10
36.758977
20
32.5106447
10
36.6425348
20
32.467687
10
36.5284785
20
32.4247026
10
36.4168028
20
32.3817227
10
36.3075019
20
32.3387782
10
36.2005697
20
32.2959004
10
36.096
20
32.2531201
10
35.9937861
20
32.2104681
10
35.8939209
20
32.1679753
10
35.7963972
20
32.1256722
10
35.7012073
20
32.0835896
10
35.6083433
20
32.0417578
10
35.517797
20
32.0002072
10
35.4295598
20
31.9589682
10
35.1396931
20
32.2566577
10
34.7718035
20
32.652897
10
34.4964113
20
32.9640254
10
34.5440752
20
33.0489642
10
34.592221
20
33.1361827
10
34.6408189
20
33.2256917
10
34.6898394
20
33.3175016
10
34.7392525
20
33.4116226
10
34.7890285
20
33.5080646
10
34.8391372
20
33.606837
10
34.8895484
20
33.7079493
10
34.940232
20
33.8114102
10
34.9911574
20
33.9172285
10
35.0422943
20
34.0254124
10
35.093612
20
34.13597
10
35.1450799
20
34.248909
10
35.196667
20
34.3642367
10
35.2483426
20
34.4819603
10
35.3000757
20
34.6020864
10
35.3518352
20
34.7246216
10
35.4035899
20
34.8495719
10
35.4553086
20
34.9769432
10
35.50696
20
35.1067409
10
35.5585127
20
35.2389702
10
35.6099351
20
35.373636
10
35.6611959
20
35.5107427
10
35.7122632
20
35.6502946
10
35.7631056
20
35.7922956
10
35.8136911
20
35.9367493
10
35.8639881
20
36.0836587
10
35.9139647
20
36.2330269
10
35.9635889
20
36.3848565
10
36.0128287
20
36.5391497
10
36.0616523
20
36.6959084
10
36.1100274
20
36.8551342
10
36.1579221
20
37.0168285
10
36.2053042
20
37.1809921
10
36.2287929
20
37.2640001
10
36.2346433
20
37.2848486
10
36.2361045
20
37.2900668
10
36.236835
20
37.2926768
10
36.2372001
20
37.293982
10
36.2372464
20
37.294262
10
35.3795552
20
38.1088844
10
35.379278
20
38.1088238
10
35.3779933
20
38.108392
10
35.3754244
20
38.1075282
10
35.3702884
20
38.1058003
10
35.3497686
20
38.0988845
10
35.2680797
20
38.0711541
10
35.1065726
20
38.0153848
10
34.9475581
20
37.9592306
10
34.7910333
20
37.9027236
10
34.6369956
20
37.8458958
10
34.4854415
20
37.7887792
10
34.3363676
20
37.7314055
10
34.1897698
20
37.6738067
10
34.0456441
20
37.6160144
10
33.9039858
20
37.5580603
10
33.7647901
20
37.4999761
10
33.6280518
20
37.4417931
10
33.4937654
20
37.3835429
10
33.361925
20
37.3252569
10
33.2325246
20
37.2669662
10
33.1055577
20
37.2087021
10
32.9810174
20
37.1504957
10
32.8588968
20
37.0923779
10
32.7391883
20
37.0343797
10
32.6218843
20
36.9765319
10
32.5069767
20
36.9188651
10
32.3944573
20
36.86141
10
32.2843172
20
36.804197
10
32.1765477
20
36.7472565
10
32.0711394
20
36.6906188
10
31.9680827
20
36.6343139
10
31.8673678
20
36.5783721
10
31.7689845
20
36.522823
10
31.6729222
20
36.4676965
10
31.5791703
20
36.4130224
10
31.4877175
20
36.3588299
10
31.3985526
20
36.3051487
10
31.3116638
20
36.2520078
10
31.2270391
20
36.1994364
10
31.1446663
20
36.1474635
10
30.8197749
20
36.4064757
10
30.4051243
20
36.7534817
10
30.0929089
20
37.0276409
10
30.1295513
20
37.1178839
10
30.1663861
20
37.2104489
10
30.2033823
20
37.305343
10
30.2405094
20
37.4025729
10
30.2777365
20
37.5021448
10
30.3150325
20
37.6040649
10
30.3523666
20
37.7083388
10
30.3897076
20
37.8149719
10
30.4270244
20
37.9239694
10
30.4642858
20
38.0353359
10
30.5014604
20
38.1490759
10
30.5385169
20
38.2651936
10
30.5754239
20
38.3836926
10
30.6121499
20
38.5045766
10
30.6486633
20
38.6278485
10
30.6849327
20
38.7535113
10
30.7209263
20
38.8815674
10
30.7566125
20
39.012019
10
30.7919595
20
39.144868
10
30.8269357
20
39.2801159
10
30.8615091
20
39.4177638
10
30.895648
20
39.5578126
10
30.9293205
20
39.7002629
10
30.9624947
20
39.8451149
10
30.9951387
20
39.9923684
10
31.0272205
20
40.142023
10
31.0587082
20
40.2940779
10
31.0895699
20
40.448532
10
31.1197735
20
40.6053839
10
31.149287
20
40.7646319
10
31.1780785
20
40.9262737
10
31.2061159
20
41.090307
10
31.2333673
20
41.256729
10
31.2598005
20
41.4255367
10
31.2727004
20
41.5108341
10
31.2758917
20
41.5322515
10
31.2766874
20
41.5376116
10
31.2770849
20
41.5402926
10
31.2772836
20
41.5416333
10
31.2772944
20
41.5419168
10
30.3242672
20
42.2426185
10
30.3239997
20
42.2425237
10
30.3227793
20
42.2419342
10
30.3203389
20
42.2407553
10
30.3154599
20
42.2383973
10
30.2959688
20
42.2289642
10
30.2183995
20
42.1912142
10
30.0651557
20
42.1156424
10
29.914433
20
42.0400012
10
29.7662247
20
41.964322
10
29.620524
20
41.8886363
10
29.4773236
20
41.8129753
10
29.336616
20
41.7373701
10
29.1983933
20
41.6618519
10
29.0626473
20
41.5864516
10
28.9293696
20
41.5112
10
28.7985514
20
41.4361279
10
28.6701836
20
41.3612659
10
28.5442567
20
41.2866445
10
28.4207612
20
41.212294
10
28.2996869
20
41.1382448
10
28.1810235
20
41.064527
10
28.0647605
20
40.9911705
10
27.9508869
20
40.9182052
10
27.8393914
20
40.8456609
10
27.7302627
20
40.7735671
10
27.6234888
20
40.7019533
10
27.5190576
20
40.6308488
10
27.4169567
20
40.5602828
10
27.3171735
20
40.4902842
10
27.219695
20
40.4208819
10
27.1245078
20
40.3521046
10
27.0315985
20
40.2839809
10
26.940953
20
40.2165392
10
26.8525574
20
40.1498076
10
26.7663972
20
40.0838143
10
26.6824577
20
40.0185871
10
26.6007239
20
39.9541538
10
26.5211806
20
39.8905419
10
26.4438122
20
39.8277788
10
26.3686029
20
39.7658917
10
26.0138104
20
39.9821418
10
25.5589381
20
40.274442
10
25.2148233
20
40.5073085
10
25.2398664
20
40.6014324
10
25.2648092
20
40.6978841
10
25.2896204
20
40.7966668
10
25.3142686
20
40.8977833
10
25.3387224
20
41.0012358
10
25.3629504
20
41.1070267
10
25.3869211
20
41.2151575
10
25.410603
20
41.3256299
10
25.4339645
20
41.4384449
10
25.4569742
20
41.5536034
10
25.4796002
20
41.6711057
10
25.5018111
20
41.7909522
10
25.5235752
20
41.9131425
10
25.5448609
20
42.0376762
10
25.5656363
20
42.1645525
10
25.58587
20
42.2937701
10
25.6055301
20
42.4253277
10
25.6245849
20
42.5592233
10
25.6430028
20
42.6954549
10
25.6607521
20
42.8340199
10
25.6778011
20
42.9749157
10
25.694118
20
43.1181389
10
25.7096712
20
43.2636862
10
25.7244291
20
43.4115538
10
25.7383599
20
43.5617375
10
25.7514321
20
43.714233
10
25.763614
20
43.8690354
10
25.774874
20
44.0261396
10
25.7851807
20
44.1855402
10
25.7945025
20
44.3472314
10
25.8028078
20
44.5112072
10
25.8100653
20
44.6774611
10
25.8162436
20
44.8459863
10
25.8213112
20
45.0167759
10
25.8234187
20
45.1030175
10
25.8239006
20
45.1246659
10
25.8240182
20
45.1300835
10
25.8240766
20
45.1327931
10
25.8241057
20
45.1341482
10
25.8240808
20
45.1344309
10
24.7907473
20
45.7101613
10
24.7904938
20
45.7100337
10
24.7893569
20
45.7092959
10
24.7870835
20
45.7078204
10
24.7825385
20
45.7048695
10
24.7643834
20
45.6930679
10
24.6921571
20
45.6458936
10
24.5495934
20
45.5517112
10
24.4095395
20
45.4577758
10
24.271985
20
45.364118
10
24.1369191
20
45.2707679
10
24.0043307
20
45.1777557
10
23.8742084
20
45.0851114
10
23.7465406
20
44.9928648
10
23.6213152
20
44.9010455
10
23.4985199
20
44.8096832
10
23.3781423
20
44.7188072
10
23.2601694
20
44.6284467
10
23.1445881
20
44.5386309
10
23.0313849
20
44.4493887
10
22.9205461
20
44.3607488
10
22.8120578
20
44.2727397
10
22.7059055
20
44.1853901
10
22.6020748
20
44.098728
10
22.5005508
20
44.0127816
10
22.4013183
20
43.9275789
10
22.3043619
20
43.8431474
10
22.2096659
20
43.7595149
10
22.1172145
20
43.6767087
10
22.0269912
20
43.5947559
10
21.9389797
20
43.5136835
10
21.8531632
20
43.4335185
10
21.7695246
20
43.3542873
10
21.6880467
20
43.2760165
10
21.6087118
20
43.1987323
10
21.5315021
20
43.1224606
10
21.4563997
20
43.0472273
10
21.383386
20
42.9730581
10
21.3124426
20
42.8999784
10
21.2435505
20
42.8280134
10
21.1766907
20
42.757188
10
20.7975927
20
42.9272657
10
20.3096722
20
43.1602504
10
19.939085
20
43.3481516
10
19.9521337
20
43.444672
10
19.9647912
20
43.5434894
10
19.977026
20
43.6446028
10
19.9888066
20
43.7480112
10
20.0001015
20
43.8537128
10
20.0108794
20
43.9617061
10
20.0211087
20
44.0719886
10
20.030758
20
44.184558
10
20.0397958
20
44.2994114
10
20.0481908
20
44.4165457
10
20.0559115
20
44.5359573
10
20.0629266
20
44.6576425
10
20.0692045
20
44.7815971
10
20.0747141
20
44.9078166
10
20.0794239
20
45.0362962
10
20.0833028
20
45.1670309
10
20.0863193
20
45.3000152
10
20.0884423
20
45.4352432
10
20.0896407
20
45.5727089
10
20.0898832
20
45.7124059
10
20.0891388
20
45.8543275
10
20.0873764
20
45.9984664
10
20.0845651
20
46.1448154
10
20.0806738
20
46.2933666
10
20.0756718
20
46.4441121
10
20.0695282
20
46.5970435
10
20.0622121
20
46.752152
10
20.053693
20
46.9094286
10
20.0439402
20
47.0688641
10
20.0329232
20
47.2304487
10
20.0206115
20
47.3941724
10
20.0069746
20
47.5600249
10
19.9919823
20
47.7279956
10
19.9756044
20
47.8980736
10
19.9668864
20
47.9838993
10
19.9646511
20
48.0054374
10
19.9640888
20
48.010827
10
19.9638071
20
48.0135226
10
19.9636661
20
48.0148706
10
19.9636061
20
48.0151479
10
18.8662625
20
48.4568276
10
18.866027
20
48.4566692
10
18.8649915
20
48.4557947
10
18.862921
20
48.4540459
10
18.8587817
20
48.4505487
10
18.8422489
20
48.4365647
10
18.7765046
20
48.38071
10
18.6468692
20
48.2694022
10
18.5196929
20
48.1586542
10
18.3949616
20
48.0484947
10
18.2726606
20
47.9389525
10
18.1527752
20
47.830056
10
18.0352904
20
47.7218336
10
17.9201908
20
47.6143133
10
17.8074608
20
47.5075232
10
17.6970846
20
47.401491
10
17.589046
20
47.2962442
10
17.4833285
20
47.1918104
10
17.3799155
20
47.0882166
10
17.2787899
20
46.9854899
10
17.1799347
20
46.8836572
10
17.0833323
20
46.7827449
10
16.9889649
20
46.6827796
10
16.8968145
20
46.5837875
10
16.806863
20
46.4857945
10
16.7190917
20
46.3888264
10
16.6334819
20
46.2929089
10
16.5500146
20
46.1980673
10
16.4686705
20
46.1043268
10
16.3894301
20
46.0117122
10
16.3122737
20
45.9202484
10
16.2371812
20
45.8299598
10
16.1641324
20
45.7408707
10
16.0931069
20
45.6530052
10
16.0240838
20
45.5663871
10
15.9570424
20
45.4810399
10
15.8919613
20
45.396987
10
15.8288193
20
45.3142517
10
15.7675946
20
45.2328566
10
15.7082654
20
45.1528246
10
15.6508096
20
45.074178
10
15.2533844
20
45.1954009
10
14.7401106
20
45.3653958
10
14.3488953
20
45.5053685
10
14.349744
20
45.6027633
10
14.3499166
20
45.7023878
10
14.349382
20
45.8042374
10
14.3481092
20
45.9083068
10
14.3460671
20
46.0145906
10
14.3432248
20
46.1230831
10
14.3395514
20
46.2337781
10
14.3350159
20
46.3466693
10
14.3295876
20
46.4617498
10
14.3232356
20
46.5790125
10
14.3159291
20
46.6984502
10
14.3076377
20
46.8200551
10
14.2983305
20
46.9438191
10
14.2879771
20
47.0697339
10
14.2765471
20
47.1977907
10
14.2640099
20
47.3279807
10
14.2503353
20
47.4602944
10
14.235493
20
47.5947222
10
14.2194529
20
47.7312542
10
14.2021848
20
47.86988
10
14.1836588
20
48.0105891
10
14.1638449
20
48.1533706
10
14.1427134
20
48.2982132
10
14.1202344
20
48.4451054
10
14.0963784
20
48.5940353
10
14.0711158
20
48.7449907
10
14.0444172
20
48.8979592
10
14.0162533
20
49.052928
10
13.9865949
20
49.2098839
10
13.9554128
20
49.3688135
10
13.9226781
20
49.5297031
10
13.8883619
20
49.6925387
10
13.8524355
20
49.8573059
10
13.8148703
20
50.0239901
10
13.7954642
20
50.1080463
10
13.7905472
20
50.1291345
10
13.7893138
20
50.1344111
10
13.7886965
20
50.1370501
10
13.7883877
20
50.1383698
10
13.7882933
20
50.1386375
10
12.6442455
20
50.4393007
10
12.6440317
20
50.439114
10
12.643114
20
50.4381167
10
12.641279
20
50.4361222
10
12.6376107
20
50.4321337
10
12.6229608
20
50.4161879
10
12.5647355
20
50.3525337
10
12.4500728
20
50.225856
10
12.3377798
20
50.1000418
10
12.2278386
20
49.975118
10
12.1202312
20
49.8511112
10
12.0149395
20
49.7280478
10
11.911945
20
49.6059539
10
11.8112289
20
49.4848557
10
11.7127722
20
49.3647788
10
11.6165557
20
49.2457489
10
11.5225599
20
49.1277912
10
11.430765
20
49.0109309
10
11.3411512
20
48.8951929
10
11.2536981
20
48.7806019
10
11.1683854
20
48.6671823
10
11.0851924
20
48.5549583
10
11.0040981
20
48.4439539
10
10.9250814
20
48.3341928
10
10.8481209
20
48.2256986
10
10.773195
20
48.1184945
10
10.7002819
20
48.0126036
10
10.6293596
20
47.9080486
10
10.5604058
20
47.8048521
10
10.4933979
20
47.7030364
10
10.4283133
20
47.6026235
10
10.3651291
20
47.5036353
10
10.3038222
20
47.4060933
10
10.2443691
20
47.3100188
10
10.1867465
20
47.2154327
10
10.1309305
20
47.122356
10
10.0768973
20
47.0308091
10
10.0246226
20
46.9408124
10
9.9740822
20
46.8523856
10
9.9252515
20
46.7655488
10
9.8781058
20
46.6803212
10
9.4686212
20
46.7507777
10
8.9380887
20
46.8551019
10
8.532415
20
46.9449385
10
8.5210502
20
47.0416717
10
8.5087351
20
47.1405323
10
8.4954396
20
47.2415117
10
8.4811335
20
47.344601
10
8.4657867
20
47.4497908
10
8.4493691
20
47.5570716
10
8.4318509
20
47.6664333
10
8.4132021
20
47.7778658
10
8.3933932
20
47.8913585
10
8.3723943
20
48.0069005
10
8.350176
20
48.1244807
10
8.3267088
20
48.2440875
10
8.3019633
20
48.3657091
10
8.2759102
20
48.4893333
10
8.2485205
20
48.6149478
10
8.2197651
20
48.7425399
10
8.189615
20
48.8720964
10
8.1580415
20
49.003604
10
8.1250158
20
49.137049
10
8.0905095
20
49.2724174
10
8.054494
20
49.4096951
10
8.0169411
20
49.5488674
10
7.9778226
20
49.6899194
10
7.9371104
20
49.8328359
10
7.8947767
20
49.9776015
10
7.8507935
20
50.1242004
10
7.8051334
20
50.2726164
10
7.7577689
20
50.4228333
10
7.7086725
20
50.5748344
10
7.6578171
20
50.7286027
10
7.6051758
20
50.8841209
10
7.5507215
20
51.0413715
10
7.4944276
20
51.2003367
10
7.4362675
20
51.3609983
10
7.4064794
20
51.4419596
10
7.3989581
20
51.4622651
10
7.3970731
20
51.4673456
10
7.3961299
20
51.4698864
10
7.3956581
20
51.471157
10
7.395531
20
51.4714107
10
6.2228212
20
51.6263159
10
6.2226325
20
51.6261039
10
6.221847
20
51.6249994
10
6.2202764
20
51.6227907
10
6.2171369
20
51.6183739
10
6.2046012
20
51.6007177
10
6.1548129
20
51.5302678
10
6.0569314
20
51.390218
10
5.9612925
20
51.2513219
10
5.8678753
20
51.1136038
10
5.7766586
20
50.9770881
10
5.6876211
20
50.8417985
10
5.6007412
20
50.7077588
10
5.5159968
20
50.5749923
10
5.4333661
20
50.4435224
10
5.3528267
20
50.3133719
10
5.2743561
20
50.1845636
10
5.1979316
20
50.0571198
10
5.1235302
20
49.9310629
10
5.0511288
20
49.8064147
10
4.980704
20
49.6831969
10
4.9122324
20
49.5614309
10
4.8456901
20
49.441138
10
4.7810532
20
49.322339
10
4.7182975
20
49.2050546
10
4.6573986
20
49.0893052
10
4.5983322
20
48.9751108
10
4.5410733
20
48.8624913
10
4.4855971
20
48.7514664
10
4.4318785
20
48.6420552
10
4.3798922
20
48.5342769
10
4.3296127
20
48.4281501
10
4.2810145
20
48.3236934
10
4.2340716
20
48.220925
10
4.1887581
20
48.1198628
10
4.1450479
20
48.0205245
10
4.1029146
20
47.9229273
10
4.0623317
20
47.8270884
10
4.0232726
20
47.7330246
10
3.9857105
20
47.6407523
10
3.9496184
20
47.5502878
10
3.5345321
20
47.5688667
10
2.9951078
20
47.6058749
10
2.5813734
20
47.6441588
10
2.5579743
20
47.7387048
10
2.5333659
20
47.8352424
10
2.5075191
20
47.9337592
10
2.4804053
20
48.0342426
10
2.4519957
20
48.1366795
10
2.4222617
20
48.2410566
10
2.391175
20
48.3473604
10
2.3587071
20
48.4555769
10
2.3248299
20
48.565692
10
2.2895154
20
48.6776911
10
2.2527356
20
48.7915593
10
2.2144627
20
48.9072818
10
2.1746691
20
49.0248429
10
2.1333272
20
49.144227
10
2.0904098
20
49.2654182
10
2.0458896
20
49.3884001
10
1.9997396
20
49.5131562
10
1.9519327
20
49.6396696
10
1.9024424
20
49.7679232
10
1.851242
20
49.8978994
10
1.7983051
20
50.0295807
10
1.7436054
20
50.1629489
10
1.6871168
20
50.2979858
10
1.6288135
20
50.4346728
10
1.5686696
20
50.572991
10
1.5066596
20
50.7129214
10
1.4427581
20
50.8544444
10
1.3769398
20
50.9975405
10
1.3091798
20
51.1421896
10
1.2394532
20
51.2883715
10
1.1677353
20
51.4360657
10
1.0940017
20
51.5852514
10
1.018228
20
51.7359076
10
0.9403903
20
51.888013
10
0.90069
20
51.9646024
10
0.890683
20
51.9838051
10
0.8881761
20
51.9886093
10
0.8869219
20
51.9910119
10
0.8862946
20
51.9922133
10
0.8861366
20
51.9924491
10
-0.2967407
20
51.9991533
10
-0.2969013
20
51.9989194
10
-0.2975422
20
51.9977251
10
-0.2988236
20
51.9953369
10
-0.3013848
20
51.9905615
10
-0.3116088
20
51.9714733
10
-0.3521747
20
51.8953389
10
-0.4317316
20
51.7441256
10
-0.509208
20
51.594338
10
-0.5846279
20
51.4459976
10
-0.6580153
20
51.2991258
10
-0.7293945
20
51.1537437
10
-0.7987897
20
51.0098719
10
-0.8662258
20
50.8675311
10
-0.9317274
20
50.7267415
10
-0.9953195
20
50.587523
10
-1.0570274
20
50.4498954
10
-1.1168764
20
50.3138781
10
-1.174892
20
50.1794901
10
-1.2310999
20
50.0467505
10
-1.285526
20
49.9156778
10
-1.3381964
20
49.7862902
10
-1.3891373
20
49.6586059
10
-1.4383751
20
49.5326425
10
-1.4859363
20
49.4084176
10
-1.5318477
20
49.2859482
10
-1.5761361
20
49.1652513
10
-1.6188285
20
49.0463434
10
-1.6599521
20
48.9292409
10
-1.6995342
20
48.8139597
10
-1.7376024
20
48.7005157
10
-1.7741842
20
48.5889241
10
-1.8093074
20
48.4792001
10
-1.8429998
20
48.3713585
10
-1.8752895
20
48.2654139
10
-1.9062047
20
48.1613805
10
-1.9357736
20
48.0592722
10
-1.9640247
20
47.9591027
10
-1.9909864
20
47.8608852
10
-2.0166876
20
47.7646327
10
-2.0411569
20
47.6703581
10
-2.4552986
20
47.6367664
10
-2.9951078
20
47.6058749
10
-3.410378
20
47.5920023
10
-3.4454423
20
47.68287
10
-3.4819561
20
47.7755621
10
-3.5199464
20
47.8700627
10
-3.5594404
20
47.9663554
10
-3.6004647
20
48.0644239
10
-3.6430461
20
48.1642514
10
-3.6872112
20
48.2658207
10
-3.7329861
20
48.3691146
10
-3.7803973
20
48.4741154
10
-3.8294705
20
48.5808053
10
-3.8802318
20
48.689166
10
-3.9327068
20
48.799179
10
-3.9869209
20
48.9108257
10
-4.0428996
20
49.0240869
10
-4.1006678
20
49.1389435
10
-4.1602507
20
49.2553758
10
-4.221673
20
49.373364
10
-4.2849591
20
49.492888
10
-4.3501336
20
49.6139275
10
-4.4172207
20
49.7364617
10
-4.4862442
20
49.8604699
10
-4.557228
20
49.9859308
10
-4.6301958
20
50.112823
10
-4.7051708
20
50.2411248
10
-4.7821763
20
50.3708143
10
-4.8612353
20
50.5018694
10
-4.9423705
20
50.6342675
10
-5.0256044
20
50.767986
10
-5.1109595
20
50.9030019
10
-5.1984577
20
51.039292
10
-5.2881211
20
51.176833
10
-5.3799712
20
51.315601
10
-5.4740296
20
51.4555723
10
-5.5703174
20
51.5967226
10
-5.6193039
20
51.6677323
10
-5.6316387
20
51.6855295
10
-5.6347279
20
51.6899816
10
-5.6362734
20
51.692208
10
-5.6370463
20
51.6933214
10
-5.6372326
20
51.6935355
10
-6.8116229
20
51.551933
10
-6.8117529
20
51.5516807
10
-6.812239
20
51.5504156
10
-6.813211
20
51.5478856
10
-6.8151534
20
51.5428268
10
-6.8229045
20
51.5226078
10
-6.8536083
20
51.4419894
10
-6.9135858
20
51.2819974
10
-6.971678
20
51.1236805
10
-7.0279112
20
50.9670572
10
-7.082312
20
50.8121457
10
-7.1349071
20
50.6589638
10
-7.1857232
20
50.507529
10
-7.2347875
20
50.3578586
10
-7.282127
20
50.2099696
10
-7.327769
20
50.0638787
10
-7.3717409
20
49.9196023
10
-7.4140705
20
49.7771564
10
-7.4547853
20
49.6365569
10
-7.4939134
20
49.4978192
10
-7.5314826
20
49.3609586
10
-7.5675211
20
49.22599
10
-7.6020572
20
49.0929279
10
-7.6351193
20
48.9617866
10
-7.666736
20
48.8325802
10
-7.6969359
20
48.7053223
10
-7.7257477
20
48.5800263
10
-7.7532003
20
48.4567053
10
-7.7793228
20
48.335372
10
-7.8041443
20
48.216039
10
-7.827694
20
48.0987182
10
-7.8500012
20
47.9834216
10
-7.8710953
20
47.8701608
10
-7.8910059
20
47.7589468
10
-7.9097627
20
47.6497906
10
-7.9273952
20
47.5427029
10
-7.9439334
20
47.4376938
10
-7.9594072
20
47.3347733
10
-7.9738464
20
47.233951
10
-7.9872813
20
47.1352364
10
-7.9997418
20
47.0386383
10
-8.4064078
20
46.9534057
10
-8.9380887
20
46.8551019
10
-9.3483456
20
46.7892914
10
-9.3945222
20
46.8750479
10
-9.4423655
20
46.9624328
10
-9.4919004
20
47.0514267
10
-9.5431516
20
47.1420102
10
-9.5961436
20
47.2341637
10
-9.650901
20
47.3278671
10
-9.7074478
20
47.4231002
10
-9.765808
20
47.5198425
10
-9.8260053
20
47.6180731
10
-9.8880634
20
47.7177712
10
-9.9520056
20
47.8189154
10
-10.0178551
20
47.921484
10
-10.0856348
20
48.0254555
10
-10.1553674
20
48.1308077
10
-10.2270755
20
48.2375183
10
-10.3007814
20
48.3455648
10
-10.3765072
20
48.4549244
10
-10.4542747
20
48.5655741
10
-10.5341055
20
48.6774905
10
-10.6160211
20
48.7906503
10
-10.7000427
20
48.9050297
10
-10.7861913
20
49.0206047
10
-10.8744874
20
49.137351
10
-10.9649518
20
49.2552443
10
-11.0576045
20
49.3742598
10
-11.1524656
20
49.4943727
10
-11.2495549
20
49.6155579
10
-11.3488919
20
49.73779
10
-11.4504959
20
49.8610434
10
-11.5543859
20
49.9852924
10
-11.6605806
20
50.110511
10
-11.7690988
20
50.236673
10
-11.8799585
20
50.3637519
10
-11.9931779
20
50.4917212
10
-12.050678
20
50.5560313
10
-12.0651461
20
50.5721422
10
-12.068769
20
50.576172
10
-12.0705813
20
50.5781872
10
-12.0714877
20
50.5791948
10
-12.0716993
20
50.5793839
10
-13.2190816
20
50.2917079
10
-13.219179
20
50.2914413
10
-13.2195028
20
50.2901252
10
-13.22015
20
50.2874934
10
-13.2214431
20
50.282231
10
-13.2265989
20
50.2612
10
-13.2469565
20
50.1773691
10
-13.2864087
20
50.0111214
10
-13.3242004
20
49.8467721
10
-13.3603601
20
49.6843359
10
-13.3949164
20
49.5238277
10
-13.4278979
20
49.3652617
10
-13.4593336
20
49.2086521
10
-13.4892523
20
49.0540125
10
-13.5176831
20
48.9013565
10
-13.5446551
20
48.7506971
10
-13.5701977
20
48.6020472
10
-13.5943403
20
48.4554192
10
-13.6171123
20
48.3108254
10
-13.6385433
20
48.1682777
10
-13.6586631
20
48.0277877
10
-13.6775014
20
47.8893664
10
-13.6950881
20
47.7530251
10
-13.7114532
20
47.6187741
10
-13.7266267
20
47.4866239
10
-13.7406388
20
47.3565845
10
-13.7535196
20
47.2286654
10
-13.7652996
20
47.1028761
10
-13.776009
20
46.9792255
10
-13.7856784
20
46.8577224
10
-13.7943382
20
46.7383752
10
-13.802019
20
46.621192
10
-13.8087514
20
46.5061804
10
-13.8145662
20
46.3933479
10
-13.8194942
20
46.2827017
10
-13.823566
20
46.1742484
10
-13.8268127
20
46.0679945
10
-13.8292651
20
45.9639462
10
-13.8309541
20
45.8621093
10
-13.8319108
20
45.7624892
10
-13.8321661
20
45.665091
10
-14.2249429
20
45.5295618
10
-14.7401106
20
45.3653958
10
-15.1388843
20
45.2486855
10
-15.195445
20
45.3279783
10
-15.2538632
20
45.4086777
10
-15.3141613
20
45.4907615
10
-15.3763615
20
45.5742073
10
-15.4404857
20
45.6589925
10
-15.5065554
20
45.7450941
10
-15.5745921
20
45.8324891
10
-15.6446172
20
45.921154
10
-15.7166514
20
46.0110654
10
-15.7907157
20
46.1021994
10
-15.8668304
20
46.1945319
10
-15.9450159
20
46.2880387
10
-16.0252922
20
46.3826952
10
-16.1076791
20
46.4784769
10
-16.1921961
20
46.5753586
10
-16.2788626
20
46.6733153
10
-16.3676977
20
46.7723216
10
-16.45872
20
46.8723519
10
-16.5519482
20
46.9733805
10
-16.6474006
20
47.0753812
10
-16.7450952
20
47.178328
10
-16.8450498
20
47.2821943
10
-16.947282
20
47.3869536
10
-17.0518089
20
47.4925791
10
-17.1586476
20
47.5990437
10
-17.2678149
20
47.7063202
10
-17.3793271
20
47.8143813
10
-17.4932005
20
47.9231993
10
-17.6094511
20
48.0327465
10
-17.7280944
20
48.1429949
10
-17.8491459
20
48.2539164
10
-17.9726206
20
48.3654826
10
-18.0985334
20
48.4776651
10
-18.2268987
20
48.5904351
10
-18.2920056
20
48.6470315
10
-18.3083789
20
48.6612019
10
-18.3124783
20
48.6647459
10
-18.3145289
20
48.6665181
10
-18.3155544
20
48.6674042
10
-18.315788
20
48.6675653
10
-19.4180676
20
48.2383525
10
-19.4181308
20
48.2380758
10
-19.4182871
20
48.2367295
10
-19.4185993
20
48.2340373
10
-19.4192226
20
48.2286544
10
-19.4217019
20
48.207143
10
-19.4313922
20
48.1214216
10
-19.4496969
20
47.9515403
10
-19.4665922
20
47.7837503
10
-19.4821082
20
47.618063
10
-19.4962749
20
47.4544893
10
-19.5091228
20
47.29304
10
-19.5206822
20
47.1337254
10
-19.5309835
20
46.9765554
10
-19.5400572
20
46.8215397
10
-19.547934
20
46.6686878
10
-19.5546444
20
46.5180087
10
-19.5602192
20
46.3695111
10
-19.5646893
20
46.2232034
10
-19.5680854
20
46.0790937
10
-19.5704384
20
45.9371898
10
-19.5717794
20
45.797499
10
-19.5721393
20
45.6600285
10
-19.5715492
20
45.5247851
10
-19.5700403
20
45.3917752
10
-19.5676436
20
45.261005
10
-19.5643904
20
45.1324802
10
-19.5603119
20
45.0062063
10
-19.5554393
20
44.8821885
10
-19.5498041
20
44.7604317
10
-19.5434374
20
44.6409402
10
-19.5363707
20
44.5237183
10
-19.5286353
20
44.4087698
10
-19.5202626
20
44.2960983
10
-19.511284
20
44.1857069
10
-19.5017309
20
44.0775984
10
-19.4916349
20
43.9717755
10
-19.4810272
20
43.8682403
10
-19.4699393
20
43.7669946
10
-19.4584027
20
43.6680402
10
-19.4464489
20
43.571378
10
-19.8191422
20
43.3876895
10
-20.3096722
20
43.1602504
10
-20.6906738
20
42.9944808
10
-20.7567264
20
43.0660594
10
-20.8247983
20
43.1388008
10
-20.8949088
20
43.2126799
10
-20.9670771
20
43.287672
10
-21.041322
20
43.3637517
10
-21.1176621
20
43.4408936
10
-21.1961159
20
43.5190722
10
-21.2767014
20
43.5982616
10
-21.3594365
20
43.6784357
10
-21.4443389
20
43.7595683
10
-21.5314257
20
43.841633
10
-21.6207142
20
43.9246033
10
-21.7122211
20
44.0084521
10
-21.805963
20
44.0931527
10
-21.9019561
20
44.1786777
10
-22.0002165
20
44.2649998
10
-22.1007598
20
44.3520914
10
-22.2036015
20
44.4399249
10
-22.3087568
20
44.5284722
10
-22.4162406
20
44.6177052
10
-22.5260675
20
44.7075958
10
-22.6382519
20
44.7981155
10
-22.7528077
20
44.8892357
10
-22.8697488
20
44.9809276
10
-22.9890886
20
45.0731622
10
-23.1108404
20
45.1659106
10
-23.2350169
20
45.2591434
10
-23.361631
20
45.3528312
10
-23.4906947
20
45.4469445
10
-23.6222203
20
45.5414537
10
-23.7562194
20
45.6363287
10
-23.8927034
20
45.7315397
10
-24.0316835
20
45.8270565
10
-24.1731706
20
45.9228489
10
-24.2448575
20
45.9708389
10
-24.2628777
20
45.9828455
10
-24.2673889
20
45.9858477
10
-24.2696454
20
45.9873489
10
-24.2707739
20
45.9880995
10
-24.2710259
20
45.98823
10
-25.310819
20
45.4242495
10
-25.3108471
20
45.4239671
10
-25.3108333
20
45.4226118
10
-25.3108057
20
45.4199017
10
-25.3107495
20
45.4144831
10
-25.3105131
20
45.3928306
10
-25.3093832
20
45.3065706
10
-25.3062519
20
45.1357346
10
-25.3019843
20
44.9671502
10
-25.2966117
20
44.8008247
10
-25.2901656
20
44.6367653
10
-25.2826772
20
44.4749788
10
-25.274178
20
44.3154716
10
-25.2646994
20
44.1582499
10
-25.254273
20
44.0033194
10
-25.2429302
20
43.8506855
10
-25.2307026
20
43.7003535
10
-25.2176218
20
43.5523282
10
-25.2037194
20
43.4066139
10
-25.189027
20
43.2632149
10
-25.1735762
20
43.122135
10
-25.1573987
20
42.9833777
10
-25.1405262
20
42.8469461
10
-25.1229902
20
42.712843
10
-25.1048226
20
42.5810711
10
-25.086055
20
42.4516324
10
-25.066719
20
42.3245288
10
-25.0468463
20
42.1997618
10
-25.0264687
20
42.0773326
10
-25.0056177
20
41.9572421
10
-24.9843249
20
41.8394908
10
-24.9626221
20
41.724079
10
-24.9405409
20
41.6110064
10
-24.9181127
20
41.5002727
10
-24.8953692
20
41.391877
10
-24.8723419
20
41.2858184
10
-24.8490623
20
41.1820953
10
-24.8255619
20
41.080706
10
-24.801872
20
40.9816484
10
-24.7780241
20
40.8849201
10
-24.7540495
20
40.7905184
10
-25.1007818
20
40.5615675
10
-25.5589381
20
40.274442
10
-25.9161589
20
40.0622274
10
-25.9906619
20
40.1249631
10
-26.067314
20
40.1885991
10
-26.1461312
20
40.2531086
10
-26.2271293
20
40.3184642
10
-26.3103241
20
40.3846386
10
-26.3957307
20
40.4516043
10
-26.4833642
20
40.5193336
10
-26.5732394
20
40.5877984
10
-26.6653706
20
40.6569709
10
-26.759772
20
40.7268227
10
-26.8564576
20
40.7973255
10
-26.955441
20
40.8684506
10
-27.0567354
20
40.9401695
10
-27.1603539
20
41.0124531
10
-27.2663092
20
41.0852726
10
-27.3746138
20
41.1585988
10
-27.4852797
20
41.2324022
10
-27.598319
20
41.3066536
10
-27.713743
20
41.3813232
10
-27.8315632
20
41.4563814
10
-27.9517903
20
41.5317982
10
-28.0744352
20
41.6075437
10
-28.1995081
20
41.6835877
10
-28.3270191
20
41.7599
10
-28.4569779
20
41.8364501
10
-28.5893941
20
41.9132075
10
-28.7242767
20
41.9901417
10
-28.8616345
20
42.0672218
10
-29.0014761
20
42.1444171
10
-29.1438097
20
42.2216964
10
-29.2886432
20
42.2990288
10
-29.4359841
20
42.3763831
10
-29.5858397
20
42.4537279
10
-29.738217
20
42.5310319
10
-29.8153534
20
42.5696587
10
-29.8347364
20
42.5793121
10
-29.8395883
20
42.5817252
10
-29.8420152
20
42.5829318
10
-29.8432288
20
42.583535
10
-29.8434952
20
42.5836329
10
-30.8044037
20
41.8937789
10
-30.8043962
20
41.8934952
10
-30.8042127
20
41.8921524
10
-30.8038456
20
41.8894671
10
-30.8031107
20
41.8840983
10
-30.8001624
20
41.8626461
10
-30.7882302
20
41.777208
10
-30.7637121
20
41.6081115
10
-30.7383489
20
41.4413913
10
-30.7121726
20
41.2770507
10
-30.6852152
20
41.1150929
10
-30.6575086
20
40.9555206
10
-30.6290849
20
40.7983365
10
-30.599976
20
40.6435424
10
-30.5702138
20
40.4911403
10
-30.5398304
20
40.3411317
10
-30.5088576
20
40.1935176
10
-30.4773275
20
40.048299
10
-30.4452718
20
39.9054761
10
-30.4127226
20
39.7650493
10
-30.3797116
20
39.6270184
10
-30.3462708
20
39.4913828
10
-30.3124319
20
39.3581417
10
-30.2782267
20
39.2272939
10
-30.2436869
20
39.098838
10
-30.2088443
20
38.9727722
10
-30.1737305
20
38.8490943
10
-30.1383771
20
38.7278018
10
-30.1028156
20
38.608892
10
-30.0670777
20
38.4923618
10
-30.0311948
20
38.3782077
10
-29.9951982
20
38.266426
10
-29.9591192
20
38.1570126
10
-29.9229893
20
38.049963
10
-29.8868396
20
37.9452726
10
-29.8507012
20
37.8429363
10
-29.8146052
20
37.7429488
10
-29.7785826
20
37.6453044
10
-29.7426643
20
37.549997
10
-29.7068812
20
37.4570204
10
-29.671264
20
37.3663679
10
-29.986567
20
37.0957652
10
-30.4051243
20
36.7534817
10
-30.7329308
20
36.4981688
10
-30.8147092
20
36.551072
10
-30.8987325
20
36.6045993
10
-30.9850134
20
36.6587216
10
-31.0735641
20
36.7134101
10
-31.1643967
20
36.7686357
10
-31.2575229
20
36.8243691
10
-31.3529541
20
36.8805809
10
-31.4507015
20
36.9372415
10
-31.5507758
20
36.9943214
10
-31.6531876
20
37.0517908
10
-31.7579472
20
37.1096197
10
-31.8650644
20
37.1677781
10
-31.9745488
20
37.2262359
10
-32.0864098
20
37.2849627
10
-32.2006563
20
37.3439283
10
-32.317297
20
37.4031021
10
-32.4363404
20
37.4624535
10
-32.5577944
20
37.5219517
10
-32.6816669
20
37.5815661
10
-32.8079653
20
37.6412656
10
-32.9366967
20
37.7010193
10
-33.0678679
20
37.760796
10
-33.2014854
20
37.8205646
10
-33.3375554
20
37.8802938
10
-33.4760837
20
37.9399521
10
-33.617076
20
37.9995082
10
-33.7605374
20
38.0589304
10
-33.9064728
20
38.1181873
10
-34.0548869
20
38.177247
10
-34.2057838
20
38.2360778
10
-34.3591675
20
38.294648
10
-34.5150417
20
38.3529256
10
-34.6734095
20
38.4108786
10
-34.8342741
20
38.4684751
10
-34.9156434
20
38.4971296
10
-34.9360834
20
38.5042775
10
-34.9411995
20
38.5060635
10
-34.9437585
20
38.5069564
10
-34.9450382
20
38.5074028
10
-34.9453147
20
38.5074665
10
-35.8121846
20
37.7026184
10
-35.8121415
20
37.7023379
10
-35.8117912
20
37.7010286
10
-35.8110904
20
37.6984105
10
-35.8096884
20
37.6931762
10
-35.8040747
20
37.6722627
10
-35.7815284
20
37.5889938
10
-35.7360102
20
37.4243036
10
-35.6899514
20
37.2620768
10
-35.6433842
20
37.1023129
10
-35.5963406
20
36.9450108
10
-35.5488529
20
36.7901694
10
-35.5009529
20
36.6377871
10
-35.4526726
20
36.487862
10
-35.4040441
20
36.3403919
10
-35.3550992
20
36.1953741
10
-35.3058697
20
36.052806
10
-35.2563875
20
35.9126842
10
-35.2066841
20
35.7750052
10
-35.1567914
20
35.6397652
10
-35.1067409
20
35.50696
10
-35.0565641
20
35.3765852
10
-35.0062925
20
35.2486358
10
-34.9559574
20
35.1231069
10
-34.9055902
20
34.9999929
10
-34.8552221
20
34.8792881
10
-34.8048842
20
34.7609863
10
-34.7546076
20
34.6450813
10
-34.7044232
20
34.5315662
10
-34.654362
20
34.420434
10
-34.6044547
20
34.3116773
10
-34.554732
20
34.2052886
10
-34.5052244
20
34.1012598
10
-34.4559625
20
33.9995827
10
-34.4069766
20
33.9002486
10
-34.3582971
20
33.8032486
10
-34.3099539
20
33.7085735
10
-34.2619773
20
33.6162139
10
-34.2143971
20
33.5261598
10
-34.1672431
20
33.4384011
10
-34.120545
20
33.3529275
10
-34.3994462
20
33.0449406
10
-34.7718035
20
32.652897
10
-35.065026
20
32.3585122
10
-35.15279
20
32.4007488
10
-35.2428595
20
32.443323
10
-35.3352434
20
32.4862047
10
-35.4299502
20
32.5293637
10
-35.5269881
20
32.5727694
10
-35.6263652
20
32.6163915
10
-35.7280891
20
32.6601993
10
-35.8321672
20
32.7041622
10
-35.9386064
20
32.7482494
10
-36.0474135
20
32.79243
10
-36.1585949
20
32.836673
10
-36.2721566
20
32.8809475
10
-36.3881044
20
32.9252223
10
-36.5064438
20
32.9694662
10
-36.6271798
20
33.0136479
10
-36.7503172
20
33.0577361
10
-36.8758606
20
33.1016994
10
-37.0038141
20
33.1455063
10
-37.1341814
20
33.1891252
10
-37.2669662
20
33.2325246
10
-37.4021716
20
33.2756728
10
-37.5398005
20
33.3185381
10
-37.6798554
20
33.3610887
10
-37.8223385
20
33.4032927
10
-37.9672517
20
33.4451184
10
-38.1145966
20
33.4865339
10
-38.2643743
20
33.5275071
10
-38.4165858
20
33.5680061
10
-38.5712317
20
33.6079989
10
-38.7283122
20
33.6474535
10
-38.8878273
20
33.6863377
10
-39.0497764
20
33.7246195
10
-39.214159
20
33.7622668
10
-39.3809738
20
33.7992474
10
-39.4652929
20
33.8174777
10
-39.4864676
20
33.8220075
10
-39.4917672
20
33.8231382
10
-39.4944179
20
33.8237033
10
-39.4957435
20
33.8239858
10
-39.4960258
20
33.8240144
10
-40.2551859
20
32.9168651
10
-40.255108
20
32.9165922
10
-40.2545963
20
32.9153372
10
-40.253573
20
32.9128276
10
-40.251526
20
32.9078102
10
-40.2433354
20
32.8877652
10
-40.2105305
20
32.8079787
10
-40.14473
20
32.6502921
10
-40.078702
20
32.4951172
10
-40.0124783
20
32.3424495
10
-39.9460905
20
32.1922839
10
-39.8795704
20
32.0446153
10
-39.8129496
20
31.899438
10
-39.7462595
20
31.7567462
10
-39.6795315
20
31.6165337
10
-39.612797
20
31.4787939
10
-39.5460871
20
31.34352
10
-39.4794331
20
31.2107049
10
-39.412866
20
31.080341
10
-39.3464166
20
30.9524206
10
-39.2801159
20
30.8269357
10
-39.2139944
20
30.7038777
10
-39.1480829
20
30.583238
10
-39.0824118
20
30.4650075
10
-39.0170115
20
30.349177
10
-38.9519122
20
30.2357368
10
-38.8871441
20
30.1246769
10
-38.8227372
20
30.0159871
10
-38.7587213
20
29.9096569
10
-38.6951263
20
29.8056753
10
-38.6319817
20
29.7040313
10
-38.569317
20
29.6047134
10
-38.5071616
20
29.5077099
10
-38.4455446
20
29.4130086
10
-38.3844951
20
29.3205973
10
-38.3240421
20
29.2304634
10
-38.2642142
20
29.1425939
10
-38.2050402
20
29.0569756
10
-38.1465484
20
28.973595
10
-38.0887671
20
28.8924383
10
-38.0317245
20
28.8134914
10
-38.2698255
20
28.4729776
10
-38.5901106
20
28.0373565
10
-38.8441247
20
27.7085426
10
-38.9364904
20
27.7394463
10
-39.0311857
20
27.7703962
10
-39.1282155
20
27.801361
10
-39.2275847
20
27.8323097
10
-39.3292977
20
27.8632111
10
-39.4333585
20
27.894034
10
-39.5397709
20
27.924747
10
-39.6485383
20
27.9553188
10
-39.7596638
20
27.9857179
10
-39.8731502
20
28.015913
10
-39.989
20
28.0458724
10
-40.1072153
20
28.0755647
10
-40.2277979
20
28.1049583
10
-40.3507494
20
28.1340214
10
-40.4760708
20
28.1627225
10
-40.603763
20
28.1910299
10
-40.7338264
20
28.2189118
10
-40.8662614
20
28.2463364
10
-41.0010677
20
28.273272
10
-41.1382448
20
28.2996869
10
-41.277792
20
28.3255491
10
-41.4197081
20
28.3508269
10
-41.5639916
20
28.3754884
10
-41.7106408
20
28.3995018
10
-41.8596534
20
28.4228353
10
-42.0110271
20
28.4454569
10
-42.1647592
20
28.4673349
10
-42.3208463
20
28.4884374
10
-42.4792852
20
28.5087326
10
-42.6400721
20
28.5281886
10
-42.8032028
20
28.5467737
10
-42.9686729
20
28.5644561
10
-43.1364777
20
28.5812039
10
-43.306612
20
28.5969855
10
-43.3925511
20
28.604504
10
-43.4141266
20
28.6063442
10
-43.4195261
20
28.6068018
10
-43.4222267
20
28.6070302
10
-43.4235772
20
28.6071443
10
-43.4238609
20
28.6071373
10
-44.0633389
20
27.6119932
10
-44.0632274
20
27.6117322
10
-44.0625625
20
27.6105512
10
-44.0612326
20
27.6081896
10
-44.0585729
20
27.6034684
10
-44.0479346
20
27.584608
10
-44.0053885
20
27.5095621
10
-43.9203435
20
27.361366
10
-43.8353876
20
27.2156902
10
-43.7505517
20
27.0725263
10
-43.6658667
20
26.9318654
10
-43.5813634
20
26.7936984
10
-43.4970723
20
26.6580157
10
-43.413024
20
26.5248076
10
-43.3292489
20
26.3940639
10
-43.2457772
20
26.2657743
10
-43.1626391
20
26.139928
10
-43.0798646
20
26.0165141
10
-42.9974834
20
25.8955213
10
-42.9155253
20
25.7769379
10
-42.8340199
20
25.6607521
10
-42.7529966
20
25.5469517
10
-42.6724847
20
25.4355242
10
-42.5925132
20
25.3264568
10
-42.5131112
20
25.2197365
10
-42.4343074
20
25.1153499
10
-42.3561305
20
25.0132833
10
-42.278609
20
24.9135229
10
-42.2017713
20
24.8160544
10
-42.1256453
20
24.7208634
10
-42.0502593
20
24.627935
10
-41.9756409
20
24.5372542
10
-41.9018178
20
24.4488057
10
-41.8288175
20
24.3625738
10
-41.7566672
20
24.2785428
10
-41.6853941
20
24.1966963
10
-41.615025
20
24.1170181
10
-41.5455867
20
24.0394914
10
-41.4771058
20
23.9640993
10
-41.4096085
20
23.8908244
10
-41.3431211
20
23.8196494
10
-41.5366669
20
23.4519787
10
-41.7998286
20
22.9796503
10
-42.0106284
20
22.6215927
10
-42.1061391
20
22.6406763
10
-42.2039666
20
22.6595136
10
-42.3041123
20
22.6780732
10
-42.4065769
20
22.6963236
10
-42.5113608
20
22.7142333
10
-42.6184642
20
22.7317708
10
-42.7278868
20
22.7489047
10
-42.8396282
20
22.7656032
10
-42.9536875
20
22.7818349
10
-43.0700635
20
22.7975683
10
-43.1887547
20
22.8127717
10
-43.3097592
20
22.8274135
10
-43.433075
20
22.8414623
10
-43.5586995
20
22.8548864
10
-43.6866299
20
22.8676542
10
-43.8168631
20
22.8797343
10
-43.9493955
20
22.891095
10
-44.0842234
20
22.9017049
10
-44.2213426
20
22.9115324
10
-44.3607488
20
22.9205461
10
-44.502437
20
22.9287145
10
-44.6464021
20
22.9360062
10
-44.7926388
20
22.9423897
10
-44.9411413
20
22.9478338
10
-45.0919034
20
22.952307
10
-45.2449187
20
22.9557781
10
-45.4001806
20
22.9582158
10
-45.5576818
20
22.959589
10
-45.717415
20
22.9598665
10
-45.8793725
20
22.9590172
10
-46.0435462
20
22.9570101
10
-46.2099277
20
22.9538141
10
-46.3785084
20
22.9493984
10
-46.5492791
20
22.943732
10
-46.6354828
20
22.9404202
10
-46.6571188
20
22.9395418
10
-46.6625331
20
22.939319
10
-46.6652411
20
22.9392071
10
-46.6665952
20
22.9391511
10
-46.6668758
20
22.9391085
10
-47.1765867
20
21.8716636
10
-47.1764434
20
21.8714187
10
-47.1756357
20
21.8703303
10
-47.1740203
20
21.868154
10
-47.1707899
20
21.8638033
10
-47.1578716
20
21.846425
10
-47.1062552
20
21.7773034
10
-47.003307
20
21.6409347
10
-46.900763
20
21.5070555
10
-46.7986528
20
21.3756532
10
-46.6970061
20
21.2467154
10
-46.5958522
20
21.1202289
10
-46.4952202
20
20.9961806
10
-46.3951393
20
20.8745569
10
-46.2956382
20
20.7553439
10
-46.1967458
20
20.6385277
10
-46.0984905
20
20.5240937
10
-46.0009008
20
20.4120274
10
-45.9040048
20
20.3023137
10
-45.8078306
20
20.1949375
10
-45.7124059
20
20.0898832
10
-45.6177586
20
19.9871351
10
-45.5239159
20
19.886677
10
-45.4309053
20
19.7884927
10
-45.3387537
20
19.6925656
10
-45.2474882
20
19.5988789
10
-45.1571355
20
19.5074153
10
-45.067722
20
19.4181576
10
-44.979274
20
19.331088
10
-44.8918178
20
19.2461886
10
-44.8053792
20
19.1634414
10
-44.7199838
20
19.0828278
10
-44.6356573
20
19.0043292
10
-44.5524249
20
18.9279267
10
-44.4703117
20
18.8536011
10
-44.3893425
20
18.7813329
10
-44.309542
20
18.7111026
10
-44.2309345
20
18.6428901
10
-44.1535445
20
18.5766754
10
-44.0773957
20
18.512438
10
-44.0025119
20
18.4501573
10
-44.1484502
20
18.061128
10
-44.3503384
20
17.5595412
10
-44.5145995
20
17.1778868
10
-44.6117487
20
17.1848492
10
-44.7111659
20
17.1912769
10
-44.812848
20
17.1971386
10
-44.916792
20
17.2024029
10
-45.0229943
20
17.2070385
10
-45.1314512
20
17.2110141
10
-45.2421584
20
17.2142985
10
-45.3551116
20
17.2168605
10
-45.4703059
20
17.2186688
10
-45.5877361
20
17.2196923
10
-45.7073969
20
17.2198999
10
-45.8292824
20
17.2192604
10
-45.9533866
20
17.2177428
10
-46.079703
20
17.2153161
10
-46.2082249
20
17.2119493
10
-46.3389451
20
17.2076116
10
-46.4718564
20
17.2022721
10
-46.6069509
20
17.1958999
10
-46.7442206
20
17.1884643
10
-46.8836572
20
17.1799347
10
-47.0252519
20
17.1702804
10
-47.1689957
20
17.159471
10
-47.3148794
20
17.1474759
10
-47.4628932
20
17.1342647
10
-47.6130271
20
17.1198071
10
-47.7652709
20
17.104073
10
-47.919614
20
17.087032
10
-48.0760454
20
17.0686543
10
-48.2345539
20
17.0489097
10
-48.3951278
20
17.0277684
10
-48.5577554
20
17.0052007
10
-48.7224244
20
16.9811767
10
-48.8891223
20
16.9556671
10
-49.0578363
20
16.9286422
10
-49.1429452
20
16.9145523
10
-49.1643005
20
16.9109691
10
-49.1696441
20
16.9100695
10
-49.1723167
20
16.9096191
10
-49.1736532
20
16.9093937
10
-49.1739262
20
16.9093164
10
-49.5458315
20
15.7864049
10
-49.5456586
20
15.7861798
10
-49.5447209
20
15.7852013
10
-49.5428455
20
15.7832446
10
-49.5390953
20
15.7793331
10
-49.5241008
20
15.7637109
10
-49.4642282
20
15.7016036
10
-49.3450002
20
15.5792131
10
-49.2264852
20
15.4592416
10
-49.1087112
20
15.3416734
10
-48.9917058
20
15.2264919
10
-48.8754965
20
15.1136808
10
-48.7601107
20
15.0032231
10
-48.6455754
20
14.8951019
10
-48.5319177
20
14.7892998
10
-48.4191641
20
14.6857992
10
-48.3073412
20
14.5845823
10
-48.1964754
20
14.4856308
10
-48.0865927
20
14.3889266
10
-47.977719
20
14.2944509
10
-47.86988
20
14.2021848
10
-47.7631012
20
14.1121093
10
-47.6574078
20
14.024205
10
-47.5528248
20
13.9384523
10
-47.449377
20
13.8548313
10
-47.3470891
20
13.7733218
10
-47.2459854
20
13.6939037
10
-47.14609
20
13.6165563
10
-47.0474268
20
13.5412587
10
-46.9500195
20
13.46799
10
-46.8538914
20
13.3967289
10
-46.7590659
20
13.3274538
10
-46.6655659
20
13.2601431
10
-46.573414
20
13.1947749
10
-46.4826328
20
13.1313269
10
-46.3932444
20
13.0697767
10
-46.305271
20
13.0101018
10
-46.2187341
20
12.9522793
10
-46.1336554
20
12.8962863
10
-46.0500559
20
12.8420994
10
-45.9679568
20
12.7896952
10
-46.063986
20
12.3854426
10
-46.2014168
20
11.8625076
10
-46.3165486
20
11.4632753
10
-46.4138045
20
11.4580068
10
-46.5132433
20
11.4519236
10
-46.6148583
20
11.4449949
10
-46.7186425
20
11.43719
10
-46.8245883
20
11.4284784
10
-46.9326883
20
11.4188294
10
-47.0429342
20
11.4082126
10
-47.1553178
20
11.3965976
10
-47.2698304
20
11.383954
10
-47.3864629
20
11.3702515
10
-47.5052061
20
11.35546
10
-47.6260504
20
11.3395492
10
-47.7489858
20
11.3224892
10
-47.874002
20
11.30425
10
-48.0010885
20
11.2848017
10
-48.1302343
20
11.2641146
10
-48.2614283
20
11.242159
10
-48.3946589
20
11.2189052
10
-48.5299143
20
11.1943238
10
-48.6671823
20
11.1683854
10
-48.8064505
20
11.1410608
10
-48.9477061
20
11.1123207
10
-49.090936
20
11.0821361
10
-49.2361269
20
11.050478
10
-49.383265
20
11.0173177
10
-49.5323363
20
10.9826264
10
-49.6833265
20
10.9463755
10
-49.8362211
20
10.9085366
10
-49.991005
20
10.8690813
10
-50.1476631
20
10.8279815
10
-50.3061798
20
10.7852091
10
-50.4665393
20
10.7407361
10
-50.6287255
20
10.6945348
10
-50.792722
20
10.6465775
10
-50.8753939
20
10.6219318
10
-50.8961317
20
10.6157003
10
-50.9013205
20
10.614138
10
-50.9039155
20
10.6133562
10
-50.9052132
20
10.6129652
10
-50.9054744
20
10.6128542
10
-51.133709
20
9.4521851
10
-51.1335093
20
9.4519835
10
-51.1324563
20
9.4511302
10
-51.1303505
20
9.449424
10
-51.1261396
20
9.4460133
10
-51.1093053
20
9.4323937
10
-51.0421207
20
9.3782801
10
-50.9084933
20
9.2717979
10
-50.7758764
20
9.1676263
10
-50.6442959
20
9.0657461
10
-50.513777
20
8.9661376
10
-50.3843451
20
8.8687809
10
-50.2560251
20
8.7736559
10
-50.1288418
20
8.6807423
10
-50.0028198
20
8.5900196
10
-49.8779832
20
8.5014669
10
-49.7543563
20
8.4150632
10
-49.6319627
20
8.3307872
10
-49.5108262
20
8.2486174
10
-49.3909701
20
8.1685322
10
-49.2724174
20
8.0905095
10
-49.1551912
20
8.0145272
10
-49.0393138
20
7.940563
10
-48.9248079
20
7.8685941
10
-48.8116953
20
7.7985979
10
-48.6999982
20
7.7305513
10
-48.5897379
20
7.6644311
10
-48.480936
20
7.6002137
10
-48.3736135
20
7.5378757
10
-48.2677913
20
7.4773931
10
-48.1634899
20
7.4187419
10
-48.0607296
20
7.3618979
10
-47.9595306
20
7.3068367
10
-47.8599125
20
7.2535336
10
-47.761895
20
7.2019638
10
-47.6654972
20
7.1521023
10
-47.5707382
20
7.1039239
10
-47.4776366
20
7.0574033
10
-47.386211
20
7.012515
10
-47.2964793
20
6.9692332
10
-47.2084596
20
6.927532
10
-47.2530653
20
6.5144314
10
-47.3238713
20
5.9783952
10
-47.3880582
20
5.5678812
10
-47.4838868
20
5.5504648
10
-47.5817791
20
5.5319666
10
-47.6817244
20
5.5123568
10
-47.783712
20
5.4916058
10
-47.8877306
20
5.4696843
10
-47.9937688
20
5.446563
10
-48.1018148
20
5.4222124
10
-48.2118565
20
5.3966036
10
-48.3238814
20
5.3697075
10
-48.4378769
20
5.3414951
10
-48.5538299
20
5.3119377
10
-48.6717272
20
5.2810066
10
-48.791555
20
5.2486732
10
-48.9132994
20
5.2149092
10
-49.0369462
20
5.1796861
10
-49.1624809
20
5.1429758
10
-49.2898886
20
5.1047503
10
-49.4191542
20
5.0649817
10
-49.5502622
20
5.0236421
10
-49.6831969
20
4.980704
10
-49.8179422
20
4.9361399
10
-49.9544819
20
4.8899224
10
-50.0927993
20
4.8420244
10
-50.2328775
20
4.7924187
10
-50.3746992
20
4.7410786
10
-50.5182471
20
4.6879772
10
-50.6635033
20
4.6330881
10
-50.8104497
20
4.5763848
10
-50.9590681
20
4.5178411
10
-51.1093397
20
4.4574309
10
-51.2612456
20
4.3951283
10
-51.4147668
20
4.3309076
10
-51.5698835
20
4.2647433
10
-51.7265762
20
4.19661
10
-51.8055073
20
4.161797
10
-51.8253005
20
4.1530156
10
-51.8302526
20
4.1508153
10
-51.8327292
20
4.1497144
10
-51.8339677
20
4.1491638
10
-51.8342129
20
4.1490209
10
-51.9151774
20
2.9688987
10
-51.914954
20
2.9687237
10
-51.9138023
20
2.9680091
10
-51.9114993
20
2.9665803
10
-51.9068941
20
2.9637243
10
-51.8884856
20
2.9523219
10
-51.8150485
20
2.9070555
10
-51.669129
20
2.8181609
10
-51.5245017
20
2.7314321
10
-51.3811898
20
2.6468466
10
-51.2392158
20
2.5643819
10
-51.0986025
20
2.484015
10
-50.959372
20
2.4057229
10
-50.8215464
20
2.3294822
10
-50.6851475
20
2.2552696
10
-50.5501967
20
2.1830614
10
-50.4167154
20
2.1128335
10
-50.2847244
20
2.0445621
10
-50.1542445
20
1.9782227
10
-50.0252961
20
1.9137909
10
-49.8978994
20
1.851242
10
-49.7720744
20
1.7905512
10
-49.6478406
20
1.7316935
10
-49.5252175
20
1.6746436
10
-49.404224
20
1.619376
10
-49.2848791
20
1.5658654
10
-49.1672013
20
1.5140858
10
-49.0512087
20
1.4640113
10
-48.9369195
20
1.4156159
10
-48.8243512
20
1.3688733
10
-48.7135213
20
1.323757
10
-48.6044469
20
1.2802405
10
-48.4971448
20
1.2382971
10
-48.3916316
20
1.1978997
10
-48.2879236
20
1.1590214
10
-48.1860366
20
1.1216349
10
-48.0859865
20
1.0857129
10
-47.9877885
20
1.0512279
10
-47.8914577
20
1.0181522
10
-47.797009
20
0.986458
10
-47.7044568
20
0.9561174
10
-47.6969356
20
0.5406837
10
-47.7
20
0
10
-47.7122297
20
-0.4153218
10
-47.8051199
20
-0.4446113
10
-47.8999218
20
-0.4752329
10
-47.9966213
20
-0.5072145
10
-48.0952039
20
-0.5405843
10
-48.1956548
20
-0.5753699
10
-48.297959
20
-0.6115991
10
-48.402101
20
-0.6492993
10
-48.5080653
20
-0.6884981
10
-48.6158359
20
-0.7292226
10
-48.7253966
20
-0.7714999
10
-48.8367308
20
-0.815357
10
-48.9498217
20
-0.8608207
10
-49.0646522
20
-0.9079175
10
-49.1812049
20
-0.9566739
10
-49.2994621
20
-1.0071163
10
-49.4194059
20
-1.0592708
10
-49.541018
20
-1.1131633
10
-49.6642799
20
-1.1688196
10
-49.7891729
20
-1.2262654
10
-49.9156778
20
-1.285526
10
-50.0437752
20
-1.3466268
10
-50.1734457
20
-1.4095928
10
-50.3046692
20
-1.474449
10
-50.4374255
20
-1.5412199
10
-50.5716944
20
-1.6099302
10
-50.707455
20
-1.6806041
10
-50.8446863
20
-1.7532659
10
-50.9833673
20
-1.8279393
10
-51.1234762
20
-1.9046482
10
-51.2649915
20
-1.9834161
10
-51.4078911
20
-2.0642663
10
-51.5521526
20
-2.1472218
10
-51.6977537
20
-2.2323057
10
-51.8446714
20
-2.3195406
10
-51.9186169
20
-2.3639717
10
-51.9371534
20
-2.3751647
10
-51.9417907
20
-2.3779683
10
-51.9441098
20
-2.3793709
10
-51.9452695
20
-2.3800724
10
-51.9454948
20
-2.3802448
10
-51.8779124
20
-3.561209
10
-51.8776688
20
-3.5613546
10
-51.8764367
20
-3.5619193
10
-51.8739727
20
-3.5630481
10
-51.8690459
20
-3.5653044
10
-51.8493534
20
-3.5743097
10
-51.770822
20
-3.6100151
10
-51.6149117
20
-3.6799202
10
-51.4605549
20
-3.7478385
10
-51.3077716
20
-3.8137952
10
-51.1565816
20
-3.8778157
10
-51.0070044
20
-3.9399253
10
-50.8590592
20
-4.0001499
10
-50.7127649
20
-4.0585152
10
-50.5681402
20
-4.1150473
10
-50.4252035
20
-4.1697723
10
-50.2839728
20
-4.2227167
10
-50.1444659
20
-4.273907
10
-50.0067003
20
-4.3233698
10
-49.8706933
20
-4.371132
10
-49.7364617
20
-4.4172207
10
-49.6040223
20
-4.4616628
10
-49.4733913
20
-4.5044858
10
-49.3445848
20
-4.5457172
10
-49.2176186
20
-4.5853844
10
-49.0925081
20
-4.6235152
10
-48.9692685
20
-4.6601376
10
-48.8479146
20
-4.6952795
10
-48.7284609
20
-4.728969
10
-48.6109219
20
-4.7612345
10
-48.4953113
20
-4.7921043
10
-48.381643
20
-4.821607
10
-48.2699301
20
-4.8497713
10
-48.1601858
20
-4.8766258
10
-48.0524228
20
-4.9021995
10
-47.9466535
20
-4.9265213
10
-47.84289
20
-4.9496205
10
-47.7411442
20
-4.9715261
10
-47.6414276
20
-4.9922675
10
-47.5437513
20
-5.0118742
10
-47.4481262
20
-5.0303757
10
-47.3885966
20
-5.4415909
10
-47.3238713
20
-5.9783952
10
-47.2839509
20
-6.3919749
10
-47.3724377
20
-6.4326757
10
-47.4626542
20
-6.4749376
10
-47.5545828
20
-6.5187867
10
-47.6482057
20
-6.564249
10
-47.7435047
20
-6.6113502
10
-47.8404614
20
-6.6601158
10
-47.9390572
20
-6.7105713
10
-48.0392731
20
-6.7627418
10
-48.1410897
20
-6.8166524
10
-48.2444877
20
-6.8723279
10
-48.3494472
20
-6.9297931
10
-48.4559483
20
-6.9890723
10
-48.5639705
20
-7.0501898
10
-48.6734933
20
-7.1131697
10
-48.784496
20
-7.1780359
10
-48.8969573
20
-7.2448121
10
-49.0108559
20
-7.3135216
10
-49.1261703
20
-7.3841879
10
-49.2428786
20
-7.4568339
10
-49.3609586
20
-7.5314826
10
-49.480388
20
-7.6081564
10
-49.6011442
20
-7.6868779
10
-49.7232044
20
-7.7676693
10
-49.8465453
20
-7.8505526
10
-49.9711437
20
-7.9355494
10
-50.096976
20
-8.0226814
10
-50.2240183
20
-8.1119698
10
-50.3522466
20
-8.2034358
10
-50.4816366
20
-8.2971001
10
-50.6121638
20
-8.3929834
10
-50.7438033
20
-8.4911061
10
-50.8765302
20
-8.5914883
10
-51.0103193
20
-8.69415
10
-51.1451452
20
-8.7991107
10
-51.2129389
20
-8.8524592
10
-51.2299264
20
-8.8658872
10
-51.2341757
20
-8.8692499
10
-51.2363007
20
-8.8709321
10
-51.2373633
20
-8.8717734
10
-51.2375653
20
-8.8719727
10
-51.0225017
20
-10.0351543
10
-51.0222418
20
-10.0352683
10
-51.0209486
20
-10.035674
10
-51.0183626
20
-10.0364852
10
-51.0131918
20
-10.0381062
10
-50.992526
20
-10.0445723
10
-50.9101388
20
-10.0701536
10
-50.7466964
20
-10.1199667
10
-50.5850443
20
-10.1680034
10
-50.4251992
20
-10.2142912
10
-50.2671775
20
-10.2588577
10
-50.1109953
20
-10.3017306
10
-49.9566686
20
-10.3429378
10
-49.8042128
20
-10.3825074
10
-49.6536432
20
-10.4204674
10
-49.5049746
20
-10.4568462
10
-49.3582219
20
-10.4916723
10
-49.2133992
20
-10.524974
10
-49.0705206
20
-10.5567802
10
-48.9295999
20
-10.5871196
10
-48.7906503
20
-10.6160211
10
-48.6536851
20
-10.6435138
10
-48.5187171
20
-10.6696267
10
-48.3857586
20
-10.6943892
10
-48.2548219
20
-10.7178305
10
-48.1259189
20
-10.7399802
10
-47.999061
20
-10.7608678
10
-47.8742596
20
-10.7805229
10
-47.7515255
20
-10.7989753
10
-47.6308693
20
-10.8162548
10
-47.5123014
20
-10.8323913
10
-47.3958317
20
-10.847415
10
-47.2814698
20
-10.8613558
10
-47.1692251
20
-10.8742439
10
-47.0591066
20
-10.8861097
10
-46.9511229
20
-10.8969833
10
-46.8452826
20
-10.9068953
10
-46.7415936
20
-10.9158761
10
-46.6400637
20
-10.9239562
10
-46.5407002
20
-10.9311662
10
-46.4435103
20
-10.9375367
10
-46.3329112
20
-11.3380484
10
-46.2014168
20
-11.8625076
10
-46.109976
20
-12.2678227
10
-46.1926638
20
-12.3192929
10
-46.2768721
20
-12.3725287
10
-46.3625801
20
-12.4275538
10
-46.4497668
20
-12.4843916
10
-46.538411
20
-12.5430655
10
-46.6284913
20
-12.6035985
10
-46.7199858
20
-12.6660134
10
-46.8128728
20
-12.730333
10
-46.9071298
20
-12.7965795
10
-47.0027344
20
-12.8647752
10
-47.099664
20
-12.9349422
10
-47.1978956
20
-13.007102
10
-47.297406
20
-13.0812764
10
-47.3981717
20
-13.1574866
10
-47.5001692
20
-13.2357536
10
-47.6033744
20
-13.3160983
10
-47.7077634
20
-13.3985414
10
-47.8133116
20
-13.4831032
10
-47.9199947
20
-13.5698038
10
-48.0277877
20
-13.6586631
10
-48.1366656
20
-13.7497009
10
-48.2466031
20
-13.8429364
10
-48.3575749
20
-13.9383889
10
-48.4695553
20
-14.0360773
10
-48.5825182
20
-14.1360203
10
-48.6964378
20
-14.2382361
10
-48.8112875
20
-14.3427431
10
-48.927041
20
-14.4495591
10
-49.0436715
20
-14.5587017
10
-49.161152
20
-14.6701884
10
-49.2794555
20
-14.7840362
10
-49.3985546
20
-14.9002619
10
-49.5184218
20
-15.0188823
10
-49.6390294
20
-15.1399135
10
-49.6996022
20
-15.2013382
10
-49.7147728
20
-15.2167894
10
-49.7185672
20
-15.2206581
10
-49.7204646
20
-15.2225934
10
-49.7214134
20
-15.2235612
10
-49.7215888
20
-15.2237843
10
-49.3624357
20
-16.3508393
10
-49.3621635
20
-16.3509197
10
-49.3608297
20
-16.3511602
10
-49.3581624
20
-16.3516408
10
-49.3528293
20
-16.352601
10
-49.331516
20
-16.356426
10
-49.2465722
20
-16.3714797
10
-49.0781754
20
-16.4004153
10
-48.9117774
20
-16.4278128
10
-48.7473913
20
-16.4537017
10
-48.58503
20
-16.4781114
10
-48.424706
20
-16.5010715
10
-48.2664315
20
-16.5226115
10
-48.1102185
20
-16.5427612
10
-47.9560785
20
-16.5615506
10
-47.8040228
20
-16.5790094
10
-47.6540624
20
-16.5951678
10
-47.5062078
20
-16.6100559
10
-47.3604695
20
-16.6237039
10
-47.2168574
20
-16.636142
10
-47.0753812
20
-16.6474006
10
-46.9360503
20
-16.6575102
10
-46.7988737
20
-16.6665012
10
-46.6638601
20
-16.6744043
10
-46.5310179
20
-16.6812501
10
-46.4003552
20
-16.6870693
10
-46.2718798
20
-16.6918926
10
-46.145599
20
-16.695751
10
-46.02152
20
-16.6986752
10
-45.8996495
20
-16.7006962
10
-45.7799941
20
-16.7018451
10
-45.6625598
20
-16.7021527
10
-45.5473524
20
-16.7016502
10
-45.4343775
20
-16.7003688
10
-45.3236401
20
-16.6983394
10
-45.2151452
20
-16.6955934
10
-45.1088971
20
-16.6921619
10
-45.0049001
20
-16.6880762
10
-44.9031581
20
-16.6833675
10
-44.8036745
20
-16.6780671
10
-44.7064525
20
-16.6722063
10
-44.5465281
20
-17.0556981
10
-44.3503384
20
-17.5595412
10
-44.2088191
20
-17.9501997
10
-44.284404
20
-18.0116275
10
-44.3612761
20
-18.0749976
10
-44.4394118
20
-18.1403309
10
-44.5187873
20
-18.2076479
10
-44.5993788
20
-18.2769692
10
-44.6811619
20
-18.348315
10
-44.7641124
20
-18.421705
10
-44.8482055
20
-18.4971592
10
-44.9334164
20
-18.5746969
10
-45.01972
20
-18.6543373
10
-45.107091
20
-18.7360995
10
-45.195504
20
-18.820002
10
-45.2849332
20
-18.9060635
10
-45.3753527
20
-18.994302
10
-45.4667364
20
-19.0847355
10
-45.5590579
20
-19.1773817
10
-45.6522909
20
-19.2722581
10
-45.7464085
20
-19.3693818
10
-45.8413838
20
-19.4687697
10
-45.9371898
20
-19.5704384
10
-46.0337991
20
-19.6744043
10
-46.1311843
20
-19.7806835
10
-46.2293177
20
-19.8892918
10
-46.3281714
20
-20.0002447
10
-46.4277175
20
-20.1135576
10
-46.5279276
20
-20.2292454
10
-46.6287736
20
-20.3473228
10
-46.7302267
20
-20.4678043
10
-46.8322583
20
-20.590704
10
-46.9348395
20
-20.7160357
10
-47.0379412
20
-20.8438131
10
-47.1415342
20
-20.9740495
10
-47.2455892
20
-21.1067578
10
-47.3500766
20
-21.2419508
10
-47.4024731
20
-21.3104829
10
-47.4155876
20
-21.3277137
10
-47.4188671
20
-21.3320275
10
-47.420507
20
-21.3341853
10
-47.421327
20
-21.3352644
10
-47.4214731
20
-21.3355077
10
-46.9238946
20
-22.4086617
10
-46.9236145
20
-22.4087074
10
-46.922261
20
-22.4087788
10
-46.9195545
20
-22.4089214
10
-46.9141431
20
-22.4092055
10
-46.8925185
20
-22.4103291
10
-46.8063578
20
-22.4146178
10
-46.6356623
20
-22.4222195
10
-46.4671425
20
-22.4285458
10
-46.3008079
20
-22.4336276
10
-46.1366675
20
-22.4374955
10
-45.97473
20
-22.4401806
10
-45.8150039
20
-22.4417137
10
-45.6574973
20
-22.4421259
10
-45.5022178
20
-22.4414482
10
-45.3491729
20
-22.4397117
10
-45.1983698
20
-22.4369477
10
-45.0498152
20
-22.4331873
10
-44.9035155
20
-22.4284618
10
-44.7594769
20
-22.4228025
10
-44.6177052
20
-22.4162406
10
-44.4782059
20
-22.4088077
10
-44.3409841
20
-22.4005351
10
-44.2060446
20
-22.3914541
10
-44.0733919
20
-22.3815964
10
-43.9430302
20
-22.3709933
10
-43.8149633
20
-22.3596764
10
-43.6891947
20
-22.3476771
10
-43.5657276
20
-22.3350271
10
-43.4445648
20
-22.3217578
10
-43.3257089
20
-22.3079007
10
-43.209162
20
-22.2934875
10
-43.0949261
20
-22.2785497
10
-42.9830026
20
-22.2631188
10
-42.8733928
20
-22.2472264
10
-42.7660975
20
-22.230904
10
-42.6611173
20
-22.2141832
10
-42.5584525
20
-22.1970954
10
-42.4581029
20
-22.1796722
10
-42.360068
20
-22.161945
10
-42.2643473
20
-22.1439452
10
-42.0576196
20
-22.5043692
10
-41.7998286
20
-22.9796503
10
-41.6104628
20
-23.3494913
10
-41.6777528
20
-23.419908
10
-41.7460763
20
-23.4924131
10
-41.8154074
20
-23.5670241
10
-41.88572
20
-23.6437588
10
-41.9569877
20
-23.7226342
10
-42.029184
20
-23.8036675
10
-42.1022821
20
-23.8868754
10
-42.1762552
20
-23.9722742
10
-42.2510761
20
-24.0598802
10
-42.3267176
20
-24.1497094
10
-42.4031522
20
-24.2417773
10
-42.4803522
20
-24.3360993
10
-42.5582899
20
-24.4326906
10
-42.6369372
20
-24.5315659
10
-42.716266
20
-24.6327398
10
-42.7962479
20
-24.7362264
10
-42.8768545
20
-24.8420399
10
-42.9580571
20
-24.9501938
10
-43.039827
20
-25.0607015
10
-43.122135
20
-25.1735762
10
-43.2049521
20
-25.2888307
10
-43.2882491
20
-25.4064774
10
-43.3719964
20
-25.5265287
10
-43.4561646
20
-25.6489964
10
-43.5407238
20
-25.7738922
10
-43.6256443
20
-25.9012274
10
-43.710896
20
-26.0310131
10
-43.7964488
20
-26.16326
10
-43.8822724
20
-26.2979785
10
-43.9683365
20
-26.4351788
10
-44.0546105
20
-26.5748707
10
-44.1410637
20
-26.7170638
10
-44.2276654
20
-26.8617672
10
-44.3143847
20
-27.0089899
10
-44.3577787
20
-27.0835486
10
-44.3686302
20
-27.1022872
10
-44.3713432
20
-27.106978
10
-44.3726997
20
-27.1093244
10
-44.373378
20
-27.1104978
10
-44.3734924
20
-27.1107574
10
-43.7453356
20
-28.1130861
10
-43.745052
20
-28.1130964
10
-43.7437003
20
-28.1129976
10
-43.7409973
20
-28.1127998
10
-43.7355929
20
-28.1124035
10
-43.7139979
20
-28.110808
10
-43.6279792
20
-28.1042641
10
-43.4576769
20
-28.090412
10
-43.289693
20
-28.0755673
10
-43.1240331
20
-28.0597617
10
-42.9607022
20
-28.0430269
10
-42.7997052
20
-28.0253946
10
-42.6410464
20
-28.0068967
10
-42.4847301
20
-27.9875648
10
-42.3307599
20
-27.9674308
10
-42.1791395
20
-27.9465264
10
-42.0298719
20
-27.9248835
10
-41.88296
20
-27.9025339
10
-41.7384062
20
-27.8795095
10
-41.5962127
20
-27.8558419
10
-41.4563814
20
-27.8315632
10
-41.3189136
20
-27.8067049
10
-41.1838107
20
-27.7812991
10
-41.0510734
20
-27.7553774
10
-40.9207022
20
-27.7289716
10
-40.7926973
20
-27.7021134
10
-40.6670587
20
-27.6748347
10
-40.5437857
20
-27.6471671
10
-40.4228776
20
-27.6191422
10
-40.3043334
20
-27.5907918
10
-40.1881514
20
-27.5621475
10
-40.07433
20
-27.5332407
10
-39.9628671
20
-27.5041031
10
-39.8537601
20
-27.4747662
10
-39.7470065
20
-27.4452613
10
-39.642603
20
-27.41562
10
-39.5405463
20
-27.3858735
10
-39.4408326
20
-27.3560531
10
-39.343458
20
-27.3261902
10
-39.248418
20
-27.2963157
10
-39.155708
20
-27.2664609
10
-38.9054373
20
-27.598133
10
-38.5901106
20
-28.0373565
10
-38.3558847
20
-28.3805474
10
-38.4138184
20
-28.4588426
10
-38.4725159
20
-28.5393391
10
-38.5319491
20
-28.6220513
10
-38.5920898
20
-28.7069934
10
-38.6529099
20
-28.7941791
10
-38.7143807
20
-28.883622
10
-38.7764737
20
-28.9753354
10
-38.8391602
20
-29.0693321
10
-38.9024112
20
-29.1656249
10
-38.9661976
20
-29.2642261
10
-39.0304903
20
-29.3651478
10
-39.0952599
20
-29.4684018
10
-39.1604769
20
-29.5739996
10
-39.2261117
20
-29.6819524
10
-39.2921345
20
-29.792271
10
-39.3585155
20
-29.904966
10
-39.4252245
20
-30.0200478
10
-39.4922316
20
-30.1375262
10
-39.5595063
20
-30.2574111
10
-39.6270184
20
-30.3797116
10
-39.6947373
20
-30.504437
10
-39.7626323
20
-30.631596
10
-39.8306729
20
-30.7611969
10
-39.8988281
20
-30.893248
10
-39.967067
20
-31.027757
10
-40.0353585
20
-31.1647315
10
-40.1036715
20
-31.3041787
10
-40.1719748
20
-31.4461054
10
-40.2402369
20
-31.5905182
10
-40.3084266
20
-31.7374233
10
-40.3765122
20
-31.8868267
10
-40.4444622
20
-32.038734
10
-40.5122449
20
-32.1931505
10
-40.5798285
20
-32.350081
10
-40.6135357
20
-32.4294906
10
-40.621953
20
-32.4494415
10
-40.6240567
20
-32.4544353
10
-40.6251085
20
-32.4569332
10
-40.6256343
20
-32.4581823
10
-40.6257153
20
-32.4584543
10
-39.8768866
20
-33.3741504
10
-39.8766039
20
-33.374125
10
-39.8752752
20
-33.3738576
10
-39.8726183
20
-33.3733226
10
-39.8673062
20
-33.3722521
10
-39.8460815
20
-33.3679626
10
-39.7615612
20
-33.3506892
10
-39.5943379
20
-33.3156018
10
-39.4295392
20
-33.2798203
10
-39.2671666
20
-33.2433766
10
-39.107221
20
-33.206303
10
-38.9497034
20
-33.1686315
10
-38.7946141
20
-33.1303942
10
-38.6419533
20
-33.0916231
10
-38.4917207
20
-33.0523502
10
-38.3439159
20
-33.0126076
10
-38.1985379
20
-32.9724272
10
-38.0555856
20
-32.9318409
10
-37.9150574
20
-32.8908806
10
-37.7769514
20
-32.8495781
10
-37.6412656
20
-32.8079653
10
-37.5079974
20
-32.7660738
10
-37.377144
20
-32.7239354
10
-37.2487022
20
-32.6815817
10
-37.1226686
20
-32.6390443
10
-36.9990393
20
-32.5963546
10
-36.8778102
20
-32.5535443
10
-36.758977
20
-32.5106447
10
-36.6425348
20
-32.467687
10
-36.5284785
20
-32.4247026
10
-36.4168028
20
-32.3817227
10
-36.3075019
20
-32.3387782
10
-36.2005697
20
-32.2959004
10
-36.096
20
-32.2531201
10
-35.9937861
20
-32.2104681
10
-35.8939209
20
-32.1679753
10
-35.7963972
20
-32.1256722
10
-35.7012073
20
-32.0835896
10
-35.6083433
20
-32.0417578
10
-35.517797
20
-32.0002072
10
-35.4295598
20
-31.9589682
10
-35.1396931
20
-32.2566577
10
-34.7718035
20
-32.652897
10
-34.4964113
20
-32.9640254
10
-34.5440752
20
-33.0489642
10
-34.592221
20
-33.1361827
10
-34.6408189
20
-33.2256917
10
-34.6898394
20
-33.3175016
10
-34.7392525
20
-33.4116226
10
-34.7890285
20
-33.5080646
10
-34.8391372
20
-33.606837
10
-34.8895484
20
-33.7079493
10
-34.940232
20
-33.8114102
10
-34.9911574
20
-33.9172285
10
-35.0422943
20
-34.0254124
10
-35.093612
20
-34.13597
10
-35.1450799
20
-34.248909
10
-35.196667
20
-34.3642367
10
-35.2483426
20
-34.4819603
10
-35.3000757
20
-34.6020864
10
-35.3518352
20
-34.7246216
10
-35.4035899
20
-34.8495719
10
-35.4553086
20
-34.9769432
10
-35.50696
20
-35.1067409
10
-35.5585127
20
-35.2389702
10
-35.6099351
20
-35.373636
10
-35.6611959
20
-35.5107427
10
-35.7122632
20
-35.6502946
10
-35.7631056
20
-35.7922956
10
-35.8136911
20
-35.9367493
10
-35.8639881
20
-36.0836587
10
-35.9139647
20
-36.2330269
10
-35.9635889
20
-36.3848565
10
-36.0128287
20
-36.5391497
10
-36.0616523
20
-36.6959084
10
-36.1100274
20
-36.8551342
10
-36.1579221
20
-37.0168285
10
-36.2053042
20
-37.1809921
10
-36.2287929
20
-37.2640001
10
-36.2346433
20
-37.2848486
10
-36.2361045
20
-37.2900668
10
-36.236835
20
-37.2926768
10
-36.2372001
20
-37.293982
10
-36.2372464
20
-37.294262
10
-35.3795552
20
-38.1088844
10
-35.379278
20
-38.1088238
10
-35.3779933
20
-38.108392
10
-35.3754244
20
-38.1075282
10
-35.3702884
20
-38.1058003
10
-35.3497686
20
-38.0988845
10
-35.2680797
20
-38.0711541
10
-35.1065726
20
-38.0153848
10
-34.9475581
20
-37.9592306
10
-34.7910333
20
-37.9027236
10
-34.6369956
20
-37.8458958
10
-34.4854415
20
-37.7887792
10
-34.3363676
20
-37.7314055
10
-34.1897698
20
-37.6738067
10
-34.0456441
20
-37.6160144
10
-33.9039858
20
-37.5580603
10
-33.7647901
20
-37.4999761
10
-33.6280518
20
-37.4417931
10
-33.4937654
20
-37.3835429
10
-33.361925
20
-37.3252569
10
-33.2325246
20
-37.2669662
10
-33.1055577
20
-37.2087021
10
-32.9810174
20
-37.1504957
10
-32.8588968
20
-37.0923779
10
-32.7391883
20
-37.0343797
10
-32.6218843
20
-36.9765319
10
-32.5069767
20
-36.9188651
10
-32.3944573
20
-36.86141
10
-32.2843172
20
-36.804197
10
-32.1765477
20
-36.7472565
10
-32.0711394
20
-36.6906188
10
-31.9680827
20
-36.6343139
10
-31.8673678
20
-36.5783721
10
-31.7689845
20
-36.522823
10
-31.6729222
20
-36.4676965
10
-31.5791703
20
-36.4130224
10
-31.4877175
20
-36.3588299
10
-31.3985526
20
-36.3051487
10
-31.3116638
20
-36.2520078
10
-31.2270391
20
-36.1994364
10
-31.1446663
20
-36.1474635
10
-30.8197749
20
-36.4064757
10
-30.4051243
20
-36.7534817
10
-30.0929089
20
-37.0276409
10
-30.1295513
20
-37.1178839
10
-30.1663861
20
-37.2104489
10
-30.2033823
20
-37.305343
10
-30.2405094
20
-37.4025729
10
-30.2777365
20
-37.5021448
10
-30.3150325
20
-37.6040649
10
-30.3523666
20
-37.7083388
10
-30.3897076
20
-37.8149719
10
-30.4270244
20
-37.9239694
10
-30.4642858
20
-38.0353359
10
-30.5014604
20
-38.1490759
10
-30.5385169
20
-38.2651936
10
-30.5754239
20
-38.3836926
10
-30.6121499
20
-38.5045766
10
-30.6486633
20
-38.6278485
10
-30.6849327
20
-38.7535113
10
-30.7209263
20
-38.8815674
10
-30.7566125
20
-39.012019
10
-30.7919595
20
-39.144868
10
-30.8269357
20
-39.2801159
10
-30.8615091
20
-39.4177638
10
-30.895648
20
-39.5578126
10
-30.9293205
20
-39.7002629
10
-30.9624947
20
-39.8451149
10
-30.9951387
20
-39.9923684
10
-31.0272205
20
-40.142023
10
-31.0587082
20
-40.2940779
10
-31.0895699
20
-40.448532
10
-31.1197735
20
-40.6053839
10
-31.149287
20
-40.7646319
10
-31.1780785
20
-40.9262737
10
-31.2061159
20
-41.090307
10
-31.2333673
20
-41.256729
10
-31.2598005
20
-41.4255367
10
-31.2727004
20
-41.5108341
10
-31.2758917
20
-41.5322515
10
-31.2766874
20
-41.5376116
10
-31.2770849
20
-41.5402926
10
-31.2772836
20
-41.5416333
10
-31.2772944
20
-41.5419168
10
-30.3242672
20
-42.2426185
10
-30.3239997
20
-42.2425237
10
-30.3227793
20
-42.2419342
10
-30.3203389
20
-42.2407553
10
-30.3154599
20
-42.2383973
10
-30.2959688
20
-42.2289642
10
-30.2183995
20
-42.1912142
10
-30.0651557
20
-42.1156424
10
-29.914433
20
-42.0400012
10
-29.7662247
20
-41.964322
10
-29.620524
20
-41.8886363
10
-29.4773236
20
-41.8129753
10
-29.336616
20
-41.7373701
10
-29.1983933
20
-41.6618519
10
-29.0626473
20
-41.5864516
10
-28.9293696
20
-41.5112
10
-28.7985514
20
-41.4361279
10
-28.6701836
20
-41.3612659
10
-28.5442567
20
-41.2866445
10
-28.4207612
20
-41.212294
10
-28.2996869
20
-41.1382448
10
-28.1810235
20
-41.064527
10
-28.0647605
20
-40.9911705
10
-27.9508869
20
-40.9182052
10
-27.8393914
20
-40.8456609
10
-27.7302627
20
-40.7735671
10
-27.6234888
20
-40.7019533
10
-27.5190576
20
-40.6308488
10
-27.4169567
20
-40.5602828
10
-27.3171735
20
-40.4902842
10
-27.219695
20
-40.4208819
10
-27.1245078
20
-40.3521046
10
-27.0315985
20
-40.2839809
10
-26.940953
20
-40.2165392
10
-26.8525574
20
-40.1498076
10
-26.7663972
20
-40.0838143
10
-26.6824577
20
-40.0185871
10
-26.6007239
20
-39.9541538
10
-26.5211806
20
-39.8905419
10
-26.4438122
20
-39.8277788
10
-26.3686029
20
-39.7658917
10
-26.0138104
20
-39.9821418
10
-25.5589381
20
-40.274442
10
-25.2148233
20
-40.5073085
10
-25.2398664
20
-40.6014324
10
-25.2648092
20
-40.6978841
10
-25.2896204
20
-40.7966668
10
-25.3142686
20
-40.8977833
10
-25.3387224
20
-41.0012358
10
-25.3629504
20
-41.1070267
10
-25.3869211
20
-41.2151575
10
-25.410603
20
-41.3256299
10
-25.4339645
20
-41.4384449
10
-25.4569742
20
-41.5536034
10
-25.4796002
20
-41.6711057
10
-25.5018111
20
-41.7909522
10
-25.5235752
20
-41.9131425
10
-25.5448609
20
-42.0376762
10
-25.5656363
20
-42.1645525
10
-25.58587
20
-42.2937701
10
-25.6055301
20
-42.4253277
10
-25.6245849
20
-42.5592233
10
-25.6430028
20
-42.6954549
10
-25.6607521
20
-42.8340199
10
-25.6778011
20
-42.9749157
10
-25.694118
20
-43.1181389
10
-25.7096712
20
-43.2636862
10
-25.7244291
20
-43.4115538
10
-25.7383599
20
-43.5617375
10
-25.7514321
20
-43.714233
10
-25.763614
20
-43.8690354
10
-25.774874
20
-44.0261396
10
-25.7851807
20
-44.1855402
10
-25.7945025
20
-44.3472314
10
-25.8028078
20
-44.5112072
10
-25.8100653
20
-44.6774611
10
-25.8162436
20
-44.8459863
10
-25.8213112
20
-45.0167759
10
-25.8234187
20
-45.1030175
10
-25.8239006
20
-45.1246659
10
-25.8240182
20
-45.1300835
10
-25.8240766
20
-45.1327931
10
-25.8241057
20
-45.1341482
10
-25.8240808
20
-45.1344309
10
-24.7907473
20
-45.7101613
10
-24.7904938
20
-45.7100337
10
-24.7893569
20
-45.7092959
10
-24.7870835
20
-45.7078204
10
-24.7825385
20
-45.7048695
10
-24.7643834
20
-45.6930679
10
-24.6921571
20
-45.6458936
10
-24.5495934
20
-45.5517112
10
-24.4095395
20
-45.4577758
10
-24.271985
20
-45.364118
10
-24.1369191
20
-45.2707679
10
-24.0043307
20
-45.1777557
10
-23.8742084
20
-45.0851114
10
-23.7465406
20
-44.9928648
10
-23.6213152
20
-44.9010455
10
-23.4985199
20
-44.8096832
10
-23.3781423
20
-44.7188072
10
-23.2601694
20
-44.6284467
10
-23.1445881
20
-44.5386309
10
-23.0313849
20
-44.4493887
10
-22.9205461
20
-44.3607488
10
-22.8120578
20
-44.2727397
10
-22.7059055
20
-44.1853901
10
-22.6020748
20
-44.098728
10
-22.5005508
20
-44.0127816
10
-22.4013183
20
-43.9275789
10
-22.3043619
20
-43.8431474
10
-22.2096659
20
-43.7595149
10
-22.1172145
20
-43.6767087
10
-22.0269912
20
-43.5947559
10
-21.9389797
20
-43.5136835
10
-21.8531632
20
-43.4335185
10
-21.7695246
20
-43.3542873
10
-21.6880467
20
-43.2760165
10
-21.6087118
20
-43.1987323
10
-21.5315021
20
-43.1224606
10
-21.4563997
20
-43.0472273
10
-21.383386
20
-42.9730581
10
-21.3124426
20
-42.8999784
10
-21.2435505
20
-42.8280134
10
-21.1766907
20
-42.757188
10
-20.7975927
20
-42.9272657
10
-20.3096722
20
-43.1602504
10
-19.939085
20
-43.3481516
10
-19.9521337
20
-43.444672
10
-19.9647912
20
-43.5434894
10
-19.977026
20
-43.6446028
10
-19.9888066
20
-43.7480112
10
-20.0001015
20
-43.8537128
10
-20.0108794
20
-43.9617061
10
-20.0211087
20
-44.0719886
10
-20.030758
20
-44.184558
10
-20.0397958
20
-44.2994114
10
-20.0481908
20
-44.4165457
10
-20.0559115
20
-44.5359573
10
-20.0629266
20
-44.6576425
10
-20.0692045
20
-44.7815971
10
-20.0747141
20
-44.9078166
10
-20.0794239
20
-45.0362962
10
-20.0833028
20
-45.1670309
10
-20.0863193
20
-45.3000152
10
-20.0884423
20
-45.4352432
10
-20.0896407
20
-45.5727089
10
-20.0898832
20
-45.7124059
10
-20.0891388
20
-45.8543275
10
-20.0873764
20
-45.9984664
10
-20.0845651
20
-46.1448154
10
-20.0806738
20
-46.2933666
10
-20.0756718
20
-46.4441121
10
-20.0695282
20
-46.5970435
10
-20.0622121
20
-46.752152
10
-20.053693
20
-46.9094286
10
-20.0439402
20
-47.0688641
10
-20.0329232
20
-47.2304487
10
-20.0206115
20
-47.3941724
10
-20.0069746
20
-47.5600249
10
-19.9919823
20
-47.7279956
10
-19.9756044
20
-47.8980736
10
-19.9668864
20
-47.9838993
10
-19.9646511
20
-48.0054374
10
-19.9640888
20
-48.010827
10
-19.9638071
20
-48.0135226
10
-19.9636661
20
-48.0148706
10
-19.9636061
20
-48.0151479
10
-18.8662625
20
-48.4568276
10
-18.866027
20
-48.4566692
10
-18.8649915
20
-48.4557947
10
-18.862921
20
-48.4540459
10
-18.8587817
20
-48.4505487
10
-18.8422489
20
-48.4365647
10
-18.7765046
20
-48.38071
10
-18.6468692
20
-48.2694022
10
-18.5196929
20
-48.1586542
10
-18.3949616
20
-48.0484947
10
-18.2726606
20
-47.9389525
10
-18.1527752
20
-47.830056
10
-18.0352904
20
-47.7218336
10
-17.9201908
20
-47.6143133
10
-17.8074608
20
-47.5075232
10
-17.6970846
20
-47.401491
10
-17.589046
20
-47.2962442
10
-17.4833285
20
-47.1918104
10
-17.3799155
20
-47.0882166
10
-17.2787899
20
-46.9854899
10
-17.1799347
20
-46.8836572
10
-17.0833323
20
-46.7827449
10
-16.9889649
20
-46.6827796
10
-16.8968145
20
-46.5837875
10
-16.806863
20
-46.4857945
10
-16.7190917
20
-46.3888264
10
-16.6334819
20
-46.2929089
10
-16.5500146
20
-46.1980673
10
-16.4686705
20
-46.1043268
10
-16.3894301
20
-46.0117122
10
-16.3122737
20
-45.9202484
10
-16.2371812
20
-45.8299598
10
-16.1641324
20
-45.7408707
10
-16.0931069
20
-45.6530052
10
-16.0240838
20
-45.5663871
10
-15.9570424
20
-45.4810399
10
-15.8919613
20
-45.396987
10
-15.8288193
20
-45.3142517
10
-15.7675946
20
-45.2328566
10
-15.7082654
20
-45.1528246
10
-15.6508096
20
-45.074178
10
-15.2533844
20
-45.1954009
10
-14.7401106
20
-45.3653958
10
-14.3488953
20
-45.5053685
10
-14.349744
20
-45.6027633
10
-14.3499166
20
-45.7023878
10
-14.349382
20
-45.8042374
10
-14.3481092
20
-45.9083068
10
-14.3460671
20
-46.0145906
10
-14.3432248
20
-46.1230831
10
-14.3395514
20
-46.2337781
10
-14.3350159
20
-46.3466693
10
-14.3295876
20
-46.4617498
10
-14.3232356
20
-46.5790125
10
-14.3159291
20
-46.6984502
10
-14.3076377
20
-46.8200551
10
-14.2983305
20
-46.9438191
10
-14.2879771
20
-47.0697339
10
-14.2765471
20
-47.1977907
10
-14.2640099
20
-47.3279807
10
-14.2503353
20
-47.4602944
10
-14.235493
20
-47.5947222
10
-14.2194529
20
-47.7312542
10
-14.2021848
20
-47.86988
10
-14.1836588
20
-48.0105891
10
-14.1638449
20
-48.1533706
10
-14.1427134
20
-48.2982132
10
-14.1202344
20
-48.4451054
10
-14.0963784
20
-48.5940353
10
-14.0711158
20
-48.7449907
10
-14.0444172
20
-48.8979592
10
-14.0162533
20
-49.052928
10
-13.9865949
20
-49.2098839
10
-13.9554128
20
-49.3688135
10
-13.9226781
20
-49.5297031
10
-13.8883619
20
-49.6925387
10
-13.8524355
20
-49.8573059
10
-13.8148703
20
-50.0239901
10
-13.7954642
20
-50.1080463
10
-13.7905472
20
-50.1291345
10
-13.7893138
20
-50.1344111
10
-13.7886965
20
-50.1370501
10
-13.7883877
20
-50.1383698
10
-13.7882933
20
-50.1386375
10
-12.6442455
20
-50.4393007
10
-12.6440317
20
-50.439114
10
-12.643114
20
-50.4381167
10
-12.641279
20
-50.4361222
10
-12.6376107
20
-50.4321337
10
-12.6229608
20
-50.4161879
10
-12.5647355
20
-50.3525337
10
-12.4500728
20
-50.225856
10
-12.3377798
20
-50.1000418
10
-12.2278386
20
-49.975118
10
-12.1202312
20
-49.8511112
10
-12.0149395
20
-49.7280478
10
-11.911945
20
-49.6059539
10
-11.8112289
20
-49.4848557
10
-11.7127722
20
-49.3647788
10
-11.6165557
20
-49.2457489
10
-11.5225599
20
-49.1277912
10
-11.430765
20
-49.0109309
10
-11.3411512
20
-48.8951929
10
-11.2536981
20
-48.7806019
10
-11.1683854
20
-48.6671823
10
-11.0851924
20
-48.5549583
10
-11.0040981
20
-48.4439539
10
-10.9250814
20
-48.3341928
10
-10.8481209
20
-48.2256986
10
-10.773195
20
-48.1184945
10
-10.7002819
20
-48.0126036
10
-10.6293596
20
-47.9080486
10
-10.5604058
20
-47.8048521
10
-10.4933979
20
-47.7030364
10
-10.4283133
20
-47.6026235
10
-10.3651291
20
-47.5036353
10
-10.3038222
20
-47.4060933
10
-10.2443691
20
-47.3100188
10
-10.1867465
20
-47.2154327
10
-10.1309305
20
-47.122356
10
-10.0768973
20
-47.0308091
10
-10.0246226
20
-46.9408124
10
-9.9740822
20
-46.8523856
10
-9.9252515
20
-46.7655488
10
-9.8781058
20
-46.6803212
10
-9.4686212
20
-46.7507777
10
-8.9380887
20
-46.8551019
10
-8.532415
20
-46.9449385
10
-8.5210502
20
-47.0416717
10
-8.5087351
20
-47.1405323
10
-8.4954396
20
-47.2415117
10
-8.4811335
20
-47.344601
10
-8.4657867
20
-47.4497908
10
-8.4493691
20
-47.5570716
10
-8.4318509
20
-47.6664333
10
-8.4132021
20
-47.7778658
10
-8.3933932
20
-47.8913585
10
-8.3723943
20
-48.0069005
10
-8.350176
20
-48.1244807
10
-8.3267088
20
-48.2440875
10
-8.3019633
20
-48.3657091
10
-8.2759102
20
-48.4893333
10
-8.2485205
20
-48.6149478
10
-8.2197651
20
-48.7425399
10
-8.189615
20
-48.8720964
10
-8.1580415
20
-49.003604
10
-8.1250158
20
-49.137049
10
-8.0905095
20
-49.2724174
10
-8.054494
20
-49.4096951
10
-8.0169411
20
-49.5488674
10
-7.9778226
20
-49.6899194
10
-7.9371104
20
-49.8328359
10
-7.8947767
20
-49.9776015
10
-7.8507935
20
-50.1242004
10
-7.8051334
20
-50.2726164
10
-7.7577689
20
-50.4228333
10
-7.7086725
20
-50.5748344
10
-7.6578171
20
-50.7286027
10
-7.6051758
20
-50.8841209
10
-7.5507215
20
-51.0413715
10
-7.4944276
20
-51.2003367
10
-7.4362675
20
-51.3609983
10
-7.4064794
20
-51.4419596
10
-7.3989581
20
-51.4622651
10
-7.3970731
20
-51.4673456
10
-7.3961299
20
-51.4698864
10
-7.3956581
20
-51.471157
10
-7.395531
20
-51.4714107
10
-6.2228212
20
-51.6263159
10
-6.2226325
20
-51.6261039
10
-6.221847
20
-51.6249994
10
-6.2202764
20
-51.6227907
10
-6.2171369
20
-51.6183739
10
-6.2046012
20
-51.6007177
10
-6.1548129
20
-51.5302678
10
-6.0569314
20
-51.390218
10
-5.9612925
20
-51.2513219
10
-5.8678753
20
-51.1136038
10
-5.7766586
20
-50.9770881
10
-5.6876211
20
-50.8417985
10
-5.6007412
20
-50.7077588
10
-5.5159968
20
-50.5749923
10
-5.4333661
20
-50.4435224
10
-5.3528267
20
-50.3133719
10
-5.2743561
20
-50.1845636
10
-5.1979316
20
-50.0571198
10
-5.1235302
20
-49.9310629
10
-5.0511288
20
-49.8064147
10
-4.980704
20
-49.6831969
10
-4.9122324
20
-49.5614309
10
-4.8456901
20
-49.441138
10
-4.7810532
20
-49.322339
10
-4.7182975
20
-49.2050546
10
-4.6573986
20
-49.0893052
10
-4.5983322
20
-48.9751108
10
-4.5410733
20
-48.8624913
10
-4.4855971
20
-48.7514664
10
-4.4318785
20
-48.6420552
10
-4.3798922
20
-48.5342769
10
-4.3296127
20
-48.4281501
10
-4.2810145
20
-48.3236934
10
-4.2340716
20
-48.220925
10
-4.1887581
20
-48.1198628
10
-4.1450479
20
-48.0205245
10
-4.1029146
20
-47.9229273
10
-4.0623317
20
-47.8270884
10
-4.0232726
20
-47.7330246
10
-3.9857105
20
-47.6407523
10
-3.9496184
20
-47.5502878
10
-3.5345321
20
-47.5688667
10
-2.9951078
20
-47.6058749
10
-2.5813734
20
-47.6441588
10
-2.5579743
20
-47.7387048
10
-2.5333659
20
-47.8352424
10
-2.5075191
20
-47.9337592
10
-2.4804053
20
-48.0342426
10
-2.4519957
20
-48.1366795
10
-2.4222617
20
-48.2410566
10
-2.391175
20
-48.3473604
10
-2.3587071
20
-48.4555769
10
-2.3248299
20
-48.565692
10
-2.2895154
20
-48.6776911
10
-2.2527356
20
-48.7915593
10
-2.2144627
20
-48.9072818
10
-2.1746691
20
-49.0248429
10
-2.1333272
20
-49.144227
10
-2.0904098
20
-49.2654182
10
-2.0458896
20
-49.3884001
10
-1.9997396
20
-49.5131562
10
-1.9519327
20
-49.6396696
10
-1.9024424
20
-49.7679232
10
-1.851242
20
-49.8978994
10
-1.7983051
20
-50.0295807
10
-1.7436054
20
-50.1629489
10
-1.6871168
20
-50.2979858
10
-1.6288135
20
-50.4346728
10
-1.5686696
20
-50.572991
10
-1.5066596
20
-50.7129214
10
-1.4427581
20
-50.8544444
10
-1.3769398
20
-50.9975405
10
-1.3091798
20
-51.1421896
10
-1.2394532
20
-51.2883715
10
-1.1677353
20
-51.4360657
10
-1.0940017
20
-51.5852514
10
-1.018228
20
-51.7359076
10
-0.9403903
20
-51.888013
10
-0.90069
20
-51.9646024
10
-0.890683
20
-51.9838051
10
-0.8881761
20
-51.9886093
10
-0.8869219
20
-51.9910119
10
-0.8862946
20
-51.9922133
10
-0.8861366
20
-51.9924491
10
0.2967407
20
-51.9991533
10
0.2969013
20
-51.9989194
10
0.2975422
20
-51.9977251
10
0.2988236
20
-51.9953369
10
0.3013848
20
-51.9905615
10
0.3116088
20
-51.9714733
10
0.3521747
20
-51.8953389
10
0.4317316
20
-51.7441256
10
0.509208
20
-51.594338
10
0.5846279
20
-51.4459976
10
0.6580153
20
-51.2991258
10
0.7293945
20
-51.1537437
10
0.7987897
20
-51.0098719
10
0.8662258
20
-50.8675311
10
0.9317274
20
-50.7267415
10
0.9953195
20
-50.587523
10
1.0570274
20
-50.4498954
10
1.1168764
20
-50.3138781
10
1.174892
20
-50.1794901
10
1.2310999
20
-50.0467505
10
1.285526
20
-49.9156778
10
1.3381964
20
-49.7862902
10
1.3891373
20
-49.6586059
10
1.4383751
20
-49.5326425
10
1.4859363
20
-49.4084176
10
1.5318477
20
-49.2859482
10
1.5761361
20
-49.1652513
10
1.6188285
20
-49.0463434
10
1.6599521
20
-48.9292409
10
1.6995342
20
-48.8139597
10
1.7376024
20
-48.7005157
10
1.7741842
20
-48.5889241
10
1.8093074
20
-48.4792001
10
1.8429998
20
-48.3713585
10
1.8752895
20
-48.2654139
10
1.9062047
20
-48.1613805
10
1.9357736
20
-48.0592722
10
1.9640247
20
-47.9591027
10
1.9909864
20
-47.8608852
10
2.0166876
20
-47.7646327
10
2.0411569
20
-47.6703581
10
2.4552986
20
-47.6367664
10
2.9951078
20
-47.6058749
10
3.410378
20
-47.5920023
10
3.4454423
20
-47.68287
10
3.4819561
20
-47.7755621
10
3.5199464
20
-47.8700627
10
3.5594404
20
-47.9663554
10
3.6004647
20
-48.0644239
10
3.6430461
20
-48.1642514
10
3.6872112
20
-48.2658207
10
3.7329861
20
-48.3691146
10
3.7803973
20
-48.4741154
10
3.8294705
20
-48.5808053
10
3.8802318
20
-48.689166
10
3.9327068
20
-48.799179
10
3.9869209
20
-48.9108257
10
4.0428996
20
-49.0240869
10
4.1006678
20
-49.1389435
10
4.1602507
20
-49.2553758
10
4.221673
20
-49.373364
10
4.2849591
20
-49.492888
10
4.3501336
20
-49.6139275
10
4.4172207
20
-49.7364617
10
4.4862442
20
-49.8604699
10
4.557228
20
-49.9859308
10
4.6301958
20
-50.112823
10
4.7051708
20
-50.2411248
10
4.7821763
20
-50.3708143
10
4.8612353
20
-50.5018694
10
4.9423705
20
-50.6342675
10
5.0256044
20
-50.767986
10
5.1109595
20
-50.9030019
10
5.1984577
20
-51.039292
10
5.2881211
20
-51.176833
10
5.3799712
20
-51.315601
10
5.4740296
20
-51.4555723
10
5.5703174
20
-51.5967226
10
5.6193039
20
-51.6677323
10
5.6316387
20
-51.6855295
10
5.6347279
20
-51.6899816
10
5.6362734
20
-51.692208
10
5.6370463
20
-51.6933214
10
5.6372326
20
-51.6935355
10
6.8116229
20
-51.551933
10
6.8117529
20
-51.5516807
10
6.812239
20
-51.5504156
10
6.813211
20
-51.5478856
10
6.8151534
20
-51.5428268
10
6.8229045
20
-51.5226078
10
6.8536083
20
-51.4419894
10
6.9135858
20
-51.2819974
10
6.971678
20
-51.1236805
10
7.0279112
20
-50.9670572
10
7.082312
20
-50.8121457
10
7.1349071
20
-50.6589638
10
7.1857232
20
-50.507529
10
7.2347875
20
-50.3578586
10
7.282127
20
-50.2099696
10
7.327769
20
-50.0638787
10
7.3717409
20
-49.9196023
10
7.4140705
20
-49.7771564
10
7.4547853
20
-49.6365569
10
7.4939134
20
-49.4978192
10
7.5314826
20
-49.3609586
10
7.5675211
20
-49.22599
10
7.6020572
20
-49.0929279
10
7.6351193
20
-48.9617866
10
7.666736
20
-48.8325802
10
7.6969359
20
-48.7053223
10
7.7257477
20
-48.5800263
10
7.7532003
20
-48.4567053
10
7.7793228
20
-48.335372
10
7.8041443
20
-48.216039
10
7.827694
20
-48.0987182
10
7.8500012
20
-47.9834216
10
7.8710953
20
-47.8701608
10
7.8910059
20
-47.7589468
10
7.9097627
20
-47.6497906
10
7.9273952
20
-47.5427029
10
7.9439334
20
-47.4376938
10
7.9594072
20
-47.3347733
10
7.9738464
20
-47.233951
10
7.9872813
20
-47.1352364
10
7.9997418
20
-47.0386383
10
8.4064078
20
-46.9534057
10
8.9380887
20
-46.8551019
10
9.3483456
20
-46.7892914
10
9.3945222
20
-46.8750479
10
9.4423655
20
-46.9624328
10
9.4919004
20
-47.0514267
10
9.5431516
20
-47.1420102
10
9.5961436
20
-47.2341637
10
9.650901
20
-47.3278671
10
9.7074478
20
-47.4231002
10
9.765808
20
-47.5198425
10
9.8260053
20
-47.6180731
10
9.8880634
20
-47.7177712
10
9.9520056
20
-47.8189154
10
10.0178551
20
-47.921484
10
10.0856348
20
-48.0254555
10
10.1553674
20
-48.1308077
10
10.2270755
20
-48.2375183
10
10.3007814
20
-48.3455648
10
10.3765072
20
-48.4549244
10
10.4542747
20
-48.5655741
10
10.5341055
20
-48.6774905
10
10.6160211
20
-48.7906503
10
10.7000427
20
-48.9050297
10
10.7861913
20
-49.0206047
10
10.8744874
20
-49.137351
10
10.9649518
20
-49.2552443
10
11.0576045
20
-49.3742598
10
11.1524656
20
-49.4943727
10
11.2495549
20
-49.6155579
10
11.3488919
20
-49.73779
10
11.4504959
20
-49.8610434
10
11.5543859
20
-49.9852924
10
11.6605806
20
-50.110511
10
11.7690988
20
-50.236673
10
11.8799585
20
-50.3637519
10
11.9931779
20
-50.4917212
10
12.050678
20
-50.5560313
10
12.0651461
20
-50.5721422
10
12.068769
20
-50.576172
10
12.0705813
20
-50.5781872
10
12.0714877
20
-50.5791948
10
12.0716993
20
-50.5793839
10
13.2190816
20
-50.2917079
10
13.219179
20
-50.2914413
10
13.2195028
20
-50.2901252
10
13.22015
20
-50.2874934
10
13.2214431
20
-50.282231
10
13.2265989
20
-50.2612
10
13.2469565
20
-50.1773691
10
13.2864087
20
-50.0111214
10
13.3242004
20
-49.8467721
10
13.3603601
20
-49.6843359
10
13.3949164
20
-49.5238277
10
13.4278979
20
-49.3652617
10
13.4593336
20
-49.2086521
10
13.4892523
20
-49.0540125
10
13.5176831
20
-48.9013565
10
13.5446551
20
-48.7506971
10
13.5701977
20
-48.6020472
10
13.5943403
20
-48.4554192
10
13.6171123
20
-48.3108254
10
13.6385433
20
-48.1682777
10
13.6586631
20
-48.0277877
10
13.6775014
20
-47.8893664
10
13.6950881
20
-47.7530251
10
13.7114532
20
-47.6187741
10
13.7266267
20
-47.4866239
10
13.7406388
20
-47.3565845
10
13.7535196
20
-47.2286654
10
13.7652996
20
-47.1028761
10
13.776009
20
-46.9792255
10
13.7856784
20
-46.8577224
10
13.7943382
20
-46.7383752
10
13.802019
20
-46.621192
10
13.8087514
20
-46.5061804
10
13.8145662
20
-46.3933479
10
13.8194942
20
-46.2827017
10
13.823566
20
-46.1742484
10
13.8268127
20
-46.0679945
10
13.8292651
20
-45.9639462
10
13.8309541
20
-45.8621093
10
13.8319108
20
-45.7624892
10
13.8321661
20
-45.665091
10
14.2249429
20
-45.5295618
10
14.7401106
20
-45.3653958
10
15.1388843
20
-45.2486855
10
15.195445
20
-45.3279783
10
15.2538632
20
-45.4086777
10
15.3141613
20
-45.4907615
10
15.3763615
20
-45.5742073
10
15.4404857
20
-45.6589925
10
15.5065554
20
-45.7450941
10
15.5745921
20
-45.8324891
10
15.6446172
20
-45.921154
10
15.7166514
20
-46.0110654
10
15.7907157
20
-46.1021994
10
15.8668304
20
-46.1945319
10
15.9450159
20
-46.2880387
10
16.0252922
20
-46.3826952
10
16.1076791
20
-46.4784769
10
16.1921961
20
-46.5753586
10
16.2788626
20
-46.6733153
10
16.3676977
20
-46.7723216
10
16.45872
20
-46.8723519
10
16.5519482
20
-46.9733805
10
16.6474006
20
-47.0753812
10
16.7450952
20
-47.178328
10
16.8450498
20
-47.2821943
10
16.947282
20
-47.3869536
10
17.0518089
20
-47.4925791
10
17.1586476
20
-47.5990437
10
17.2678149
20
-47.7063202
10
17.3793271
20
-47.8143813
10
17.4932005
20
-47.9231993
10
17.6094511
20
-48.0327465
10
17.7280944
20
-48.1429949
10
17.8491459
20
-48.2539164
10
17.9726206
20
-48.3654826
10
18.0985334
20
-48.4776651
10
18.2268987
20
-48.5904351
10
18.2920056
20
-48.6470315
10
18.3083789
20
-48.6612019
10
18.3124783
20
-48.6647459
10
18.3145289
20
-48.6665181
10
18.3155544
20
-48.6674042
10
18.315788
20
-48.6675653
10
19.4180676
20
-48.2383525
10
19.4181308
20
-48.2380758
10
19.4182871
20
-48.2367295
10
19.4185993
20
-48.2340373
10
19.4192226
20
-48.2286544
10
19.4217019
20
-48.207143
10
19.4313922
20
-48.1214216
10
19.4496969
20
-47.9515403
10
19.4665922
20
-47.7837503
10
19.4821082
20
-47.618063
10
19.4962749
20
-47.4544893
10
19.5091228
20
-47.29304
10
19.5206822
20
-47.1337254
10
19.5309835
20
-46.9765554
10
19.5400572
20
-46.8215397
10
19.547934
20
-46.6686878
10
19.5546444
20
-46.5180087
10
19.5602192
20
-46.3695111
10
19.5646893
20
-46.2232034
10
19.5680854
20
-46.0790937
10
19.5704384
20
-45.9371898
10
19.5717794
20
-45.797499
10
19.5721393
20
-45.6600285
10
19.5715492
20
-45.5247851
10
19.5700403
20
-45.3917752
10
19.5676436
20
-45.261005
10
19.5643904
20
-45.1324802
10
19.5603119
20
-45.0062063
10
19.5554393
20
-44.8821885
10
19.5498041
20
-44.7604317
10
19.5434374
20
-44.6409402
10
19.5363707
20
-44.5237183
10
19.5286353
20
-44.4087698
10
19.5202626
20
-44.2960983
10
19.511284
20
-44.1857069
10
19.5017309
20
-44.0775984
10
19.4916349
20
-43.9717755
10
19.4810272
20
-43.8682403
10
19.4699393
20
-43.7669946
10
19.4584027
20
-43.6680402
10
19.4464489
20
-43.571378
10
19.8191422
20
-43.3876895
10
20.3096722
20
-43.1602504
10
20.6906738
20
-42.9944808
10
20.7567264
20
-43.0660594
10
20.8247983
20
-43.1388008
10
20.8949088
20
-43.2126799
10
20.9670771
20
-43.287672
10
21.041322
20
-43.3637517
10
21.1176621
20
-43.4408936
10
21.1961159
20
-43.5190722
10
21.2767014
20
-43.5982616
10
21.3594365
20
-43.6784357
10
21.4443389
20
-43.7595683
10
21.5314257
20
-43.841633
10
21.6207142
20
-43.9246033
10
21.7122211
20
-44.0084521
10
21.805963
20
-44.0931527
10
21.9019561
20
-44.1786777
10
22.0002165
20
-44.2649998
10
22.1007598
20
-44.3520914
10
22.2036015
20
-44.4399249
10
22.3087568
20
-44.5284722
10
22.4162406
20
-44.6177052
10
22.5260675
20
-44.7075958
10
22.6382519
20
-44.7981155
10
22.7528077
20
-44.8892357
10
22.8697488
20
-44.9809276
10
22.9890886
20
-45.0731622
10
23.1108404
20
-45.1659106
10
23.2350169
20
-45.2591434
10
23.361631
20
-45.3528312
10
23.4906947
20
-45.4469445
10
23.6222203
20
-45.5414537
10
23.7562194
20
-45.6363287
10
23.8927034
20
-45.7315397
10
24.0316835
20
-45.8270565
10
24.1731706
20
-45.9228489
10
24.2448575
20
-45.9708389
10
24.2628777
20
-45.9828455
10
24.2673889
20
-45.9858477
10
24.2696454
20
-45.9873489
10
24.2707739
20
-45.9880995
10
24.2710259
20
-45.98823
10
25.310819
20
-45.4242495
10
25.3108471
20
-45.4239671
10
25.3108333
20
-45.4226118
10
25.3108057
20
-45.4199017
10
25.3107495
20
-45.4144831
10
25.3105131
20
-45.3928306
10
25.3093832
20
-45.3065706
10
25.3062519
20
-45.1357346
10
25.3019843
20
-44.9671502
10
25.2966117
20
-44.8008247
10
25.2901656
20
-44.6367653
10
25.2826772
20
-44.4749788
10
25.274178
20
-44.3154716
10
25.2646994
20
-44.1582499
10
25.254273
20
-44.0033194
10
25.2429302
20
-43.8506855
10
25.2307026
20
-43.7003535
10
25.2176218
20
-43.5523282
10
25.2037194
20
-43.4066139
10
25.189027
20
-43.2632149
10
25.1735762
20
-43.122135
10
25.1573987
20
-42.9833777
10
25.1405262
20
-42.8469461
10
25.1229902
20
-42.712843
10
25.1048226
20
-42.5810711
10
25.086055
20
-42.4516324
10
25.066719
20
-42.3245288
10
25.0468463
20
-42.1997618
10
25.0264687
20
-42.0773326
10
25.0056177
20
-41.9572421
10
24.9843249
20
-41.8394908
10
24.9626221
20
-41.724079
10
24.9405409
20
-41.6110064
10
24.9181127
20
-41.5002727
10
24.8953692
20
-41.391877
10
24.8723419
20
-41.2858184
10
24.8490623
20
-41.1820953
10
24.8255619
20
-41.080706
10
24.801872
20
-40.9816484
10
24.7780241
20
-40.8849201
10
24.7540495
20
-40.7905184
10
25.1007818
20
-40.5615675
10
25.5589381
20
-40.274442
10
25.9161589
20
-40.0622274
10
25.9906619
20
-40.1249631
10
26.067314
20
-40.1885991
10
26.1461312
20
-40.2531086
10
26.2271293
20
-40.3184642
10
26.3103241
20
-40.3846386
10
26.3957307
20
-40.4516043
10
26.4833642
20
-40.5193336
10
26.5732394
20
-40.5877984
10
26.6653706
20
-40.6569709
10
26.759772
20
-40.7268227
10
26.8564576
20
-40.7973255
10
26.955441
20
-40.8684506
10
27.0567354
20
-40.9401695
10
27.1603539
20
-41.0124531
10
27.2663092
20
-41.0852726
10
27.3746138
20
-41.1585988
10
27.4852797
20
-41.2324022
10
27.598319
20
-41.3066536
10
27.713743
20
-41.3813232
10
27.8315632
20
-41.4563814
10
27.9517903
20
-41.5317982
10
28.0744352
20
-41.6075437
10
28.1995081
20
-41.6835877
10
28.3270191
20
-41.7599
10
28.4569779
20
-41.8364501
10
28.5893941
20
-41.9132075
10
28.7242767
20
-41.9901417
10
28.8616345
20
-42.0672218
10
29.0014761
20
-42.1444171
10
29.1438097
20
-42.2216964
10
29.2886432
20
-42.2990288
10
29.4359841
20
-42.3763831
10
29.5858397
20
-42.4537279
10
29.738217
20
-42.5310319
10
29.8153534
20
-42.5696587
10
29.8347364
20
-42.5793121
10
29.8395883
20
-42.5817252
10
29.8420152
20
-42.5829318
10
29.8432288
20
-42.583535
10
29.8434952
20
-42.5836329
10
30.8044037
20
-41.8937789
10
30.8043962
20
-41.8934952
10
30.8042127
20
-41.8921524
10
30.8038456
20
-41.8894671
10
30.8031107
20
-41.8840983
10
30.8001624
20
-41.8626461
10
30.7882302
20
-41.777208
10
30.7637121
20
-41.6081115
10
30.7383489
20
-41.4413913
10
30.7121726
20
-41.2770507
10
30.6852152
20
-41.1150929
10
30.6575086
20
-40.9555206
10
30.6290849
20
-40.7983365
10
30.599976
20
-40.6435424
10
30.5702138
20
-40.4911403
10
30.5398304
20
-40.3411317
10
30.5088576
20
-40.1935176
10
30.4773275
20
-40.048299
10
30.4452718
20
-39.9054761
10
30.4127226
20
-39.7650493
10
30.3797116
20
-39.6270184
10
30.3462708
20
-39.4913828
10
30.3124319
20
-39.3581417
10
30.2782267
20
-39.2272939
10
30.2436869
20
-39.098838
10
30.2088443
20
-38.9727722
10
30.1737305
20
-38.8490943
10
30.1383771
20
-38.7278018
10
30.1028156
20
-38.608892
10
30.0670777
20
-38.4923618
10
30.0311948
20
-38.3782077
10
29.9951982
20
-38.266426
10
29.9591192
20
-38.1570126
10
29.9229893
20
-38.049963
10
29.8868396
20
-37.9452726
10
29.8507012
20
-37.8429363
10
29.8146052
20
-37.7429488
10
29.7785826
20
-37.6453044
10
29.7426643
20
-37.549997
10
29.7068812
20
-37.4570204
10
29.671264
20
-37.3663679
10
29.986567
20
-37.0957652
10
30.4051243
20
-36.7534817
10
30.7329308
20
-36.4981688
10
30.8147092
20
-36.551072
10
30.8987325
20
-36.6045993
10
30.9850134
20
-36.6587216
10
31.0735641
20
-36.7134101
10
31.1643967
20
-36.7686357
10
31.2575229
20
-36.8243691
10
31.3529541
20
-36.8805809
10
31.4507015
20
-36.9372415
10
31.5507758
20
-36.9943214
10
31.6531876
20
-37.0517908
10
31.7579472
20
-37.1096197
10
31.8650644
20
-37.1677781
10
31.9745488
20
-37.2262359
10
32.0864098
20
-37.2849627
10
32.2006563
20
-37.3439283
10
32.317297
20
-37.4031021
10
32.4363404
20
-37.4624535
10
32.5577944
20
-37.5219517
10
32.6816669
20
-37.5815661
10
32.8079653
20
-37.6412656
10
32.9366967
20
-37.7010193
10
33.0678679
20
-37.760796
10
33.2014854
20
-37.8205646
10
33.3375554
20
-37.8802938
10
33.4760837
20
-37.9399521
10
33.617076
20
-37.9995082
10
33.7605374
20
-38.0589304
10
33.9064728
20
-38.1181873
10
34.0548869
20
-38.177247
10
34.2057838
20
-38.2360778
10
34.3591675
20
-38.294648
10
34.5150417
20
-38.3529256
10
34.6734095
20
-38.4108786
10
34.8342741
20
-38.4684751
10
34.9156434
20
-38.4971296
10
34.9360834
20
-38.5042775
10
34.9411995
20
-38.5060635
10
34.9437585
20
-38.5069564
10
34.9450382
20
-38.5074028
10
34.9453147
20
-38.5074665
10
35.8121846
20
-37.7026184
10
35.8121415
20
-37.7023379
10
35.8117912
20
-37.7010286
10
35.8110904
20
-37.6984105
10
35.8096884
20
-37.6931762
10
35.8040747
20
-37.6722627
10
35.7815284
20
-37.5889938
10
35.7360102
20
-37.4243036
10
35.6899514
20
-37.2620768
10
35.6433842
20
-37.1023129
10
35.5963406
20
-36.9450108
10
35.5488529
20
-36.7901694
10
35.5009529
20
-36.6377871
10
35.4526726
20
-36.487862
10
35.4040441
20
-36.3403919
10
35.3550992
20
-36.1953741
10
35.3058697
20
-36.052806
10
35.2563875
20
-35.9126842
10
35.2066841
20
-35.7750052
10
35.1567914
20
-35.6397652
10
35.1067409
20
-35.50696
10
35.0565641
20
-35.3765852
10
35.0062925
20
-35.2486358
10
34.9559574
20
-35.1231069
10
34.9055902
20
-34.9999929
10
34.8552221
20
-34.8792881
10
34.8048842
20
-34.7609863
10
34.7546076
20
-34.6450813
10
34.7044232
20
-34.5315662
10
34.654362
20
-34.420434
10
34.6044547
20
-34.3116773
10
34.554732
20
-34.2052886
10
34.5052244
20
-34.1012598
10
34.4559625
20
-33.9995827
10
34.4069766
20
-33.9002486
10
34.3582971
20
-33.8032486
10
34.3099539
20
-33.7085735
10
34.2619773
20
-33.6162139
10
34.2143971
20
-33.5261598
10
34.1672431
20
-33.4384011
10
34.120545
20
-33.3529275
10
34.3994462
20
-33.0449406
10
34.7718035
20
-32.652897
10
35.065026
20
-32.3585122
10
35.15279
20
-32.4007488
10
35.2428595
20
-32.443323
10
35.3352434
20
-32.4862047
10
35.4299502
20
-32.5293637
10
35.5269881
20
-32.5727694
10
35.6263652
20
-32.6163915
10
35.7280891
20
-32.6601993
10
35.8321672
20
-32.7041622
10
35.9386064
20
-32.7482494
10
36.0474135
20
-32.79243
10
36.1585949
20
-32.836673
10
36.2721566
20
-32.8809475
10
36.3881044
20
-32.9252223
10
36.5064438
20
-32.9694662
10
36.6271798
20
-33.0136479
10
36.7503172
20
-33.0577361
10
36.8758606
20
-33.1016994
10
37.0038141
20
-33.1455063
10
37.1341814
20
-33.1891252
10
37.2669662
20
-33.2325246
10
37.4021716
20
-33.2756728
10
37.5398005
20
-33.3185381
10
37.6798554
20
-33.3610887
10
37.8223385
20
-33.4032927
10
37.9672517
20
-33.4451184
10
38.1145966
20
-33.4865339
10
38.2643743
20
-33.5275071
10
38.4165858
20
-33.5680061
10
38.5712317
20
-33.6079989
10
38.7283122
20
-33.6474535
10
38.8878273
20
-33.6863377
10
39.0497764
20
-33.7246195
10
39.214159
20
-33.7622668
10
39.3809738
20
-33.7992474
10
39.4652929
20
-33.8174777
10
39.4864676
20
-33.8220075
10
39.4917672
20
-33.8231382
10
39.4944179
20
-33.8237033
10
39.4957435
20
-33.8239858
10
39.4960258
20
-33.8240144
10
40.2551859
20
-32.9168651
10
40.255108
20
-32.9165922
10
40.2545963
20
-32.9153372
10
40.253573
20
-32.9128276
10
40.251526
20
-32.9078102
10
40.2433354
20
-32.8877652
10
40.2105305
20
-32.8079787
10
40.14473
20
-32.6502921
10
40.078702
20
-32.4951172
10
40.0124783
20
-32.3424495
10
39.9460905
20
-32.1922839
10
39.8795704
20
-32.0446153
10
39.8129496
20
-31.899438
10
39.7462595
20
-31.7567462
10
39.6795315
20
-31.6165337
10
39.612797
20
-31.4787939
10
39.5460871
20
-31.34352
10
39.4794331
20
-31.2107049
10
39.412866
20
-31.080341
10
39.3464166
20
-30.9524206
10
39.2801159
20
-30.8269357
10
39.2139944
20
-30.7038777
10
39.1480829
20
-30.583238
10
39.0824118
20
-30.4650075
10
39.0170115
20
-30.349177
10
38.9519122
20
-30.2357368
10
38.8871441
20
-30.1246769
10
38.8227372
20
-30.0159871
10
38.7587213
20
-29.9096569
10
38.6951263
20
-29.8056753
10
38.6319817
20
-29.7040313
10
38.569317
20
-29.6047134
10
38.5071616
20
-29.5077099
10
38.4455446
20
-29.4130086
10
38.3844951
20
-29.3205973
10
38.3240421
20
-29.2304634
10
38.2642142
20
-29.1425939
10
38.2050402
20
-29.0569756
10
38.1465484
20
-28.973595
10
38.0887671
20
-28.8924383
10
38.0317245
20
-28.8134914
10
38.2698255
20
-28.4729776
10
38.5901106
20
-28.0373565
10
38.8441247
20
-27.7085426
10
38.9364904
20
-27.7394463
10
39.0311857
20
-27.7703962
10
39.1282155
20
-27.801361
10
39.2275847
20
-27.8323097
10
39.3292977
20
-27.8632111
10
39.4333585
20
-27.894034
10
39.5397709
20
-27.924747
10
39.6485383
20
-27.9553188
10
39.7596638
20
-27.9857179
10
39.8731502
20
-28.015913
10
39.989
20
-28.0458724
10
40.1072153
20
-28.0755647
10
40.2277979
20
-28.1049583
10
40.3507494
20
-28.1340214
10
40.4760708
20
-28.1627225
10
40.603763
20
-28.1910299
10
40.7338264
20
-28.2189118
10
40.8662614
20
-28.2463364
10
41.0010677
20
-28.273272
10
41.1382448
20
-28.2996869
10
41.277792
20
-28.3255491
10
41.4197081
20
-28.3508269
10
41.5639916
20
-28.3754884
10
41.7106408
20
-28.3995018
10
41.8596534
20
-28.4228353
10
42.0110271
20
-28.4454569
10
42.1647592
20
-28.4673349
10
42.3208463
20
-28.4884374
10
42.4792852
20
-28.5087326
10
42.6400721
20
-28.5281886
10
42.8032028
20
-28.5467737
10
42.9686729
20
-28.5644561
10
43.1364777
20
-28.5812039
10
43.306612
20
-28.5969855
10
43.3925511
20
-28.604504
10
43.4141266
20
-28.6063442
10
43.4195261
20
-28.6068018
10
43.4222267
20
-28.6070302
10
43.4235772
20
-28.6071443
10
43.4238609
20
-28.6071373
10
44.0633389
20
-27.6119932
10
44.0632274
20
-27.6117322
10
44.0625625
20
-27.6105512
10
44.0612326
20
-27.6081896
10
44.0585729
20
-27.6034684
10
44.0479346
20
-27.584608
10
44.0053885
20
-27.5095621
10
43.9203435
20
-27.361366
10
43.8353876
20
-27.2156902
10
43.7505517
20
-27.0725263
10
43.6658667
20
-26.9318654
10
43.5813634
20
-26.7936984
10
43.4970723
20
-26.6580157
10
43.413024
20
-26.5248076
10
43.3292489
20
-26.3940639
10
43.2457772
20
-26.2657743
10
43.1626391
20
-26.139928
10
43.0798646
20
-26.0165141
10
42.9974834
20
-25.8955213
10
42.9155253
20
-25.7769379
10
42.8340199
20
-25.6607521
10
42.7529966
20
-25.5469517
10
42.6724847
20
-25.4355242
10
42.5925132
20
-25.3264568
10
42.5131112
20
-25.2197365
10
42.4343074
20
-25.1153499
10
42.3561305
20
-25.0132833
10
42.278609
20
-24.9135229
10
42.2017713
20
-24.8160544
10
42.1256453
20
-24.7208634
10
42.0502593
20
-24.627935
10
41.9756409
20
-24.5372542
10
41.9018178
20
-24.4488057
10
41.8288175
20
-24.3625738
10
41.7566672
20
-24.2785428
10
41.6853941
20
-24.1966963
10
41.615025
20
-24.1170181
10
41.5455867
20
-24.0394914
10
41.4771058
20
-23.9640993
10
41.4096085
20
-23.8908244
10
41.3431211
20
-23.8196494
10
41.5366669
20
-23.4519787
10
41.7998286
20
-22.9796503
10
42.0106284
20
-22.6215927
10
42.1061391
20
-22.6406763
10
42.2039666
20
-22.6595136
10
42.3041123
20
-22.6780732
10
42.4065769
20
-22.6963236
10
42.5113608
20
-22.7142333
10
42.6184642
20
-22.7317708
10
42.7278868
20
-22.7489047
10
42.8396282
20
-22.7656032
10
42.9536875
20
-22.7818349
10
43.0700635
20
-22.7975683
10
43.1887547
20
-22.8127717
10
43.3097592
20
-22.8274135
10
43.433075
20
-22.8414623
10
43.5586995
20
-22.8548864
10
43.6866299
20
-22.8676542
10
43.8168631
20
-22.8797343
10
43.9493955
20
-22.891095
10
44.0842234
20
-22.9017049
10
44.2213426
20
-22.9115324
10
44.3607488
20
-22.9205461
10
44.502437
20
-22.9287145
10
44.6464021
20
-22.9360062
10
44.7926388
20
-22.9423897
10
44.9411413
20
-22.9478338
10
45.0919034
20
-22.952307
10
45.2449187
20
-22.9557781
10
45.4001806
20
-22.9582158
10
45.5576818
20
-22.959589
10
45.717415
20
-22.9598665
10
45.8793725
20
-22.9590172
10
46.0435462
20
-22.9570101
10
46.2099277
20
-22.9538141
10
46.3785084
20
-22.9493984
10
46.5492791
20
-22.943732
10
46.6354828
20
-22.9404202
10
46.6571188
20
-22.9395418
10
46.6625331
20
-22.939319
10
46.6652411
20
-22.9392071
10
46.6665952
20
-22.9391511
10
46.6668758
20
-22.9391085
10
47.1765867
20
-21.8716636
10
47.1764434
20
-21.8714187
10
47.1756357
20
-21.8703303
10
47.1740203
20
-21.868154
10
47.1707899
20
-21.8638033
10
47.1578716
20
-21.846425
10
47.1062552
20
-21.7773034
10
47.003307
20
-21.6409347
10
46.900763
20
-21.5070555
10
46.7986528
20
-21.3756532
10
46.6970061
20
-21.2467154
10
46.5958522
20
-21.1202289
10
46.4952202
20
-20.9961806
10
46.3951393
20
-20.8745569
10
46.2956382
20
-20.7553439
10
46.1967458
20
-20.6385277
10
46.0984905
20
-20.5240937
10
46.0009008
20
-20.4120274
10
45.9040048
20
-20.3023137
10
45.8078306
20
-20.1949375
10
45.7124059
20
-20.0898832
10
45.6177586
20
-19.9871351
10
45.5239159
20
-19.886677
10
45.4309053
20
-19.7884927
10
45.3387537
20
-19.6925656
10
45.2474882
20
-19.5988789
10
45.1571355
20
-19.5074153
10
45.067722
20
-19.4181576
10
44.979274
20
-19.331088
10
44.8918178
20
-19.2461886
10
44.8053792
20
-19.1634414
10
44.7199838
20
-19.0828278
10
44.6356573
20
-19.0043292
10
44.5524249
20
-18.9279267
10
44.4703117
20
-18.8536011
10
44.3893425
20
-18.7813329
10
44.309542
20
-18.7111026
10
44.2309345
20
-18.6428901
10
44.1535445
20
-18.5766754
10
44.0773957
20
-18.512438
10
44.0025119
20
-18.4501573
10
44.1484502
20
-18.061128
10
44.3503384
20
-17.5595412
10
44.5145995
20
-17.1778868
10
44.6117487
20
-17.1848492
10
44.7111659
20
-17.1912769
10
44.812848
20
-17.1971386
10
44.916792
20
-17.2024029
10
45.0229943
20
-17.2070385
10
45.1314512
20
-17.2110141
10
45.2421584
20
-17.2142985
10
45.3551116
20
-17.2168605
10
45.4703059
20
-17.2186688
10
45.5877361
20
-17.2196923
10
45.7073969
20
-17.2198999
10
45.8292824
20
-17.2192604
10
45.9533866
20
-17.2177428
10
46.079703
20
-17.2153161
10
46.2082249
20
-17.2119493
10
46.3389451
20
-17.2076116
10
46.4718564
20
-17.2022721
10
46.6069509
20
-17.1958999
10
46.7442206
20
-17.1884643
10
46.8836572
20
-17.1799347
10
47.0252519
20
-17.1702804
10
47.1689957
20
-17.159471
10
47.3148794
20
-17.1474759
10
47.4628932
20
-17.1342647
10
47.6130271
20
-17.1198071
10
47.7652709
20
-17.104073
10
47.919614
20
-17.087032
10
48.0760454
20
-17.0686543
10
48.2345539
20
-17.0489097
10
48.3951278
20
-17.0277684
10
48.5577554
20
-17.0052007
10
48.7224244
20
-16.9811767
10
48.8891223
20
-16.9556671
10
49.0578363
20
-16.9286422
10
49.1429452
20
-16.9145523
10
49.1643005
20
-16.9109691
10
49.1696441
20
-16.9100695
10
49.1723167
20
-16.9096191
10
49.1736532
20
-16.9093937
10
49.1739262
20
-16.9093164
10
49.5458315
20
-15.7864049
10
49.5456586
20
-15.7861798
10
49.5447209
20
-15.7852013
10
49.5428455
20
-15.7832446
10
49.5390953
20
-15.7793331
10
49.5241008
20
-15.7637109
10
49.4642282
20
-15.7016036
10
49.3450002
20
-15.5792131
10
49.2264852
20
-15.4592416
10
49.1087112
20
-15.3416734
10
48.9917058
20
-15.2264919
10
48.8754965
20
-15.1136808
10
48.7601107
20
-15.0032231
10
48.6455754
20
-14.8951019
10
48.5319177
20
-14.7892998
10
48.4191641
20
-14.6857992
10
48.3073412
20
-14.5845823
10
48.1964754
20
-14.4856308
10
48.0865927
20
-14.3889266
10
47.977719
20
-14.2944509
10
47.86988
20
-14.2021848
10
47.7631012
20
-14.1121093
10
47.6574078
20
-14.024205
10
47.5528248
20
-13.9384523
10
47.449377
20
-13.8548313
10
47.3470891
20
-13.7733218
10
47.2459854
20
-13.6939037
10
47.14609
20
-13.6165563
10
47.0474268
20
-13.5412587
10
46.9500195
20
-13.46799
10
46.8538914
20
-13.3967289
10
46.7590659
20
-13.3274538
10
46.6655659
20
-13.2601431
10
46.573414
20
-13.1947749
10
46.4826328
20
-13.1313269
10
46.3932444
20
-13.0697767
10
46.305271
20
-13.0101018
10
46.2187341
20
-12.9522793
10
46.1336554
20
-12.8962863
10
46.0500559
20
-12.8420994
10
45.9679568
20
-12.7896952
10
46.063986
20
-12.3854426
10
46.2014168
20
-11.8625076
10
46.3165486
20
-11.4632753
10
46.4138045
20
-11.4580068
10
46.5132433
20
-11.4519236
10
46.6148583
20
-11.4449949
10
46.7186425
20
-11.43719
10
46.8245883
20
-11.4284784
10
46.9326883
20
-11.4188294
10
47.0429342
20
-11.4082126
10
47.1553178
20
-11.3965976
10
47.2698304
20
-11.383954
10
47.3864629
20
-11.3702515
10
47.5052061
20
-11.35546
10
47.6260504
20
-11.3395492
10
47.7489858
20
-11.3224892
10
47.874002
20
-11.30425
10
48.0010885
20
-11.2848017
10
48.1302343
20
-11.2641146
10
48.2614283
20
-11.242159
10
48.3946589
20
-11.2189052
10
48.5299143
20
-11.1943238
10
48.6671823
20
-11.1683854
10
48.8064505
20
-11.1410608
10
48.9477061
20
-11.1123207
10
49.090936
20
-11.0821361
10
49.2361269
20
-11.050478
10
49.383265
20
-11.0173177
10
49.5323363
20
-10.9826264
10
49.6833265
20
-10.9463755
10
49.8362211
20
-10.9085366
10
49.991005
20
-10.8690813
10
50.1476631
20
-10.8279815
10
50.3061798
20
-10.7852091
10
50.4665393
20
-10.7407361
10
50.6287255
20
-10.6945348
10
50.792722
20
-10.6465775
10
50.8753939
20
-10.6219318
10
50.8961317
20
-10.6157003
10
50.9013205
20
-10.614138
10
50.9039155
20
-10.6133562
10
50.9052132
20
-10.6129652
10
50.9054744
20
-10.6128542
10
51.133709
20
-9.4521851
10
51.1335093
20
-9.4519835
10
51.1324563
20
-9.4511302
10
51.1303505
20
-9.449424
10
51.1261396
20
-9.4460133
10
51.1093053
20
-9.4323937
10
51.0421207
20
-9.3782801
10
50.9084933
20
-9.2717979
10
50.7758764
20
-9.1676263
10
50.6442959
20
-9.0657461
10
50.513777
20
-8.9661376
10
50.3843451
20
-8.8687809
10
50.2560251
20
-8.7736559
10
50.1288418
20
-8.6807423
10
50.0028198
20
-8.5900196
10
49.8779832
20
-8.5014669
10
49.7543563
20
-8.4150632
10
49.6319627
20
-8.3307872
10
49.5108262
20
-8.2486174
10
49.3909701
20
-8.1685322
10
49.2724174
20
-8.0905095
10
49.1551912
20
-8.0145272
10
49.0393138
20
-7.940563
10
48.9248079
20
-7.8685941
10
48.8116953
20
-7.7985979
10
48.6999982
20
-7.7305513
10
48.5897379
20
-7.6644311
10
48.480936
20
-7.6002137
10
48.3736135
20
-7.5378757
10
48.2677913
20
-7.4773931
10
48.1634899
20
-7.4187419
10
48.0607296
20
-7.3618979
10
47.9595306
20
-7.3068367
10
47.8599125
20
-7.2535336
10
47.761895
20
-7.2019638
10
47.6654972
20
-7.1521023
10
47.5707382
20
-7.1039239
10
47.4776366
20
-7.0574033
10
47.386211
20
-7.012515
10
47.2964793
20
-6.9692332
10
47.2084596
20
-6.927532
10
47.2530653
20
-6.5144314
10
47.3238713
20
-5.9783952
10
47.3880582
20
-5.5678812
10
47.4838868
20
-5.5504648
10
47.5817791
20
-5.5319666
10
47.6817244
20
-5.5123568
10
47.783712
20
-5.4916058
10
47.8877306
20
-5.4696843
10
47.9937688
20
-5.446563
10
48.1018148
20
-5.4222124
10
48.2118565
20
-5.3966036
10
48.3238814
20
-5.3697075
10
48.4378769
20
-5.3414951
10
48.5538299
20
-5.3119377
10
48.6717272
20
-5.2810066
10
48.791555
20
-5.2486732
10
48.9132994
20
-5.2149092
10
49.0369462
20
-5.1796861
10
49.1624809
20
-5.1429758
10
49.2898886
20
-5.1047503
10
49.4191542
20
-5.0649817
10
49.5502622
20
-5.0236421
10
49.6831969
20
-4.980704
10
49.8179422
20
-4.9361399
10
49.9544819
20
-4.8899224
10
50.0927993
20
-4.8420244
10
50.2328775
20
-4.7924187
10
50.3746992
20
-4.7410786
10
50.5182471
20
-4.6879772
10
50.6635033
20
-4.6330881
10
50.8104497
20
-4.5763848
10
50.9590681
20
-4.5178411
10
51.1093397
20
-4.4574309
10
51.2612456
20
-4.3951283
10
51.4147668
20
-4.3309076
10
51.5698835
20
-4.2647433
10
51.7265762
20
-4.19661
10
51.8055073
20
-4.161797
10
51.8253005
20
-4.1530156
10
51.8302526
20
-4.1508153
10
51.8327292
20
-4.1497144
10
51.8339677
20
-4.1491638
10
51.8342129
20
-4.1490209
10
51.9151774
20
-2.9688987
10
51.914954
20
-2.9687237
10
51.9138023
20
-2.9680091
10
51.9114993
20
-2.9665803
10
51.9068941
20
-2.9637243
10
51.8884856
20
-2.9523219
10
51.8150485
20
-2.9070555
10
51.669129
20
-2.8181609
10
51.5245017
20
-2.7314321
10
51.3811898
20
-2.6468466
10
51.2392158
20
-2.5643819
10
51.0986025
20
-2.484015
10
50.959372
20
-2.4057229
10
50.8215464
20
-2.3294822
10
50.6851475
20
-2.2552696
10
50.5501967
20
-2.1830614
10
50.4167154
20
-2.1128335
10
50.2847244
20
-2.0445621
10
50.1542445
20
-1.9782227
10
50.0252961
20
-1.9137909
10
49.8978994
20
-1.851242
10
49.7720744
20
-1.7905512
10
49.6478406
20
-1.7316935
10
49.5252175
20
-1.6746436
10
49.404224
20
-1.619376
10
49.2848791
20
-1.5658654
10
49.1672013
20
-1.5140858
10
49.0512087
20
-1.4640113
10
48.9369195
20
-1.4156159
10
48.8243512
20
-1.3688733
10
48.7135213
20
-1.323757
10
48.6044469
20
-1.2802405
10
48.4971448
20
-1.2382971
10
48.3916316
20
-1.1978997
10
48.2879236
20
-1.1590214
10
48.1860366
20
-1.1216349
10
48.0859865
20
-1.0857129
10
47.9877885
20
-1.0512279
10
47.8914577
20
-1.0181522
10
47.797009
20
-0.986458
10
47.7044568
20
-0.9561174
10
47.6969356
20
-0.5406837
8
gear
0
LWPOLYLINE
5
1004
100
AcDbEntity
100
AcDbPolyline
90
5
70
0
43
0
10
47.3422522
20
2.3390496
10
47.3407623
20
2.3690126
10
47.3392535
20
2.3989747
10
47.3377257
20
2.4289357
10
47.3361789
20
2.4588958
8
gear_texts
0
LWPOLYLINE
5
1005
100
AcDbEntity
100
AcDbPolyline
90
2
70
0
43
0
10
47.2793304
20
2.395938
10
47.3991766
20
2.4020113
8
gear_texts
0
LWPOLYLINE
5
1006
100
AcDbEntity
100
AcDbPolyline
90
5
70
0
43
0
10
47.4021791
20
2.3420105
10
47.3707249
20
2.370512
10
47.3392535
20
2.3989747
10
47.3077651
20
2.4273984
10
47.2762597
20
2.4557833
8
gear_texts
0
LWPOLYLINE
5
1007
100
AcDbEntity
100
AcDbPolyline
90
5
70
0
43
0
10
47.2823253
20
2.3360888
10
47.3107998
20
2.3675132
10
47.3392535
20
2.3989747
10
47.3676863
20
2.430473
10
47.3960981
20
2.4620083
8
gear_texts
0
LWPOLYLINE
5
1008
100
AcDbEntity
100
AcDbPolyline
90
3
70
0
43
0
10
47.4051057
20
2.2820058
10
47.4365068
20
2.2534257
10
47.2567095
20
2.2448846
8
gear_texts
0
LWPOLYLINE
5
1009
100
AcDbEntity
100
AcDbPolyline
90
3
70
0
43
0
10
47.2581209
20
2.2149748
10
47.2567095
20
2.2448846
10
47.2552792
20
2.2747934
8
gear_texts
0
LWPOLYLINE
5
1010
100
AcDbEntity
100
AcDbPolyline
90
7
70
0
43
0
10
47.4522531
20
1.8930869
10
47.2723961
20
1.8859116
10
47.3161562
20
1.9176527
10
47.3598949
20
1.94945
10
47.4036123
20
1.9813034
10
47.4473084
20
2.013213
10
47.2674702
20
2.0055823
8
gear_texts
0
LWPOLYLINE
5
1011
100
AcDbEntity
100
AcDbPolyline
90
5
70
0
43
0
10
47.3991389
20
1.7107111
10
47.3980467
20
1.7407103
10
47.3969355
20
1.7707087
10
47.3958053
20
1.8007064
10
47.3946561
20
1.8307034
8
gear_texts
0
LWPOLYLINE
5
1012
100
AcDbEntity
100
AcDbPolyline
90
5
70
0
43
0
10
47.3391779
20
1.7085471
10
47.3380871
20
1.7385082
10
47.3369773
20
1.7684687
10
47.3358485
20
1.7984284
10
47.3347008
20
1.8283875
8
gear_texts
0
LWPOLYLINE
5
1013
100
AcDbEntity
100
AcDbPolyline
90
15
70
0
43
0
10
47.4652622
20
1.5326389
10
47.4642827
20
1.5626799
10
47.4632841
20
1.5927203
10
47.4622666
20
1.62276
10
47.46123
20
1.6527991
10
47.4012664
20
1.6507109
10
47.4023016
20
1.6207098
10
47.4033179
20
1.590708
10
47.4043152
20
1.5607056
10
47.3753091
20
1.5297343
10
47.3153404
20
1.527798
10
47.2843802
20
1.5567569
10
47.2833854
20
1.5866834
10
47.2823717
20
1.6166093
10
47.3113209
20
1.6475786
8
gear_texts
0
LWPOLYLINE
5
1014
100
AcDbEntity
100
AcDbPolyline
90
9
70
0
43
0
10
47.3199382
20
1.3780585
10
47.2890698
20
1.4071152
10
47.2881698
20
1.4370448
10
47.3172364
20
1.4679039
10
47.4371787
20
1.4716248
10
47.4680867
20
1.4425123
10
47.4689902
20
1.4124689
10
47.4398874
20
1.3815516
10
47.3199382
20
1.3780585
8
gear_texts
0
LWPOLYLINE
5
1015
100
AcDbEntity
100
AcDbPolyline
90
11
70
0
43
0
10
47.3855609
20
1.1698812
10
47.3862918
20
1.1398901
10
47.3870038
20
1.1098986
10
47.3876967
20
1.0799066
10
47.4183634
20
1.0505786
10
47.448356
20
1.0512431
10
47.4776734
20
1.081957
10
47.4769791
20
1.112006
10
47.4762658
20
1.1420544
10
47.4755334
20
1.1721025
10
47.2955883
20
1.1676599
8
gear_texts
0
LWPOLYLINE
5
1016
100
AcDbEntity
100
AcDbPolyline
90
2
70
0
43
0
10
47.2996814
20
0.9880484
10
47.4196552
20
0.9905546
8
gear_texts
0
LWPOLYLINE
5
1017
100
AcDbEntity
100
AcDbPolyline
90
2
70
0
43
0
10
47.4496487
20
0.9911811
10
47.4796421
20
0.9918076
8
gear_texts
0
LWPOLYLINE
5
1018
100
AcDbEntity
100
AcDbPolyline
90
4
70
0
43
0
10
47.333088
20
0.8089353
10
47.3025713
20
0.8383612
10
47.3320262
20
0.8688499
10
47.4820009
20
0.871603
8
gear_texts
0
LWPOLYLINE
5
1019
100
AcDbEntity
100
AcDbPolyline
90
5
70
0
43
0
10
47.4230749
20
0.8104732
10
47.4225524
20
0.8404877
10
47.422011
20
0.8705018
10
47.4214505
20
0.9005155
10
47.4208711
20
0.9305289
8
gear_texts
0
LWPOLYLINE
5
1020
100
AcDbEntity
100
AcDbPolyline
90
10
70
0
43
0
10
47.3058213
20
0.6287853
10
47.3054139
20
0.6587255
10
47.3049875
20
0.6886656
10
47.3045421
20
0.7186053
10
47.3340741
20
0.7490194
10
47.3940666
20
0.7499687
10
47.4245283
20
0.720428
10
47.4249748
20
0.6904123
10
47.4254022
20
0.6603964
10
47.4258107
20
0.6303802
8
gear_texts
0
LWPOLYLINE
5
1021
100
AcDbEntity
100
AcDbPolyline
90
6
70
0
43
0
10
47.366575
20
0.5696255
10
47.3969241
20
0.5399883
10
47.4272546
20
0.5103129
10
47.4275681
20
0.4802956
10
47.3978639
20
0.4499932
10
47.307868
20
0.4491388
8
gear_texts
0
LWPOLYLINE
5
1022
100
AcDbEntity
100
AcDbPolyline
90
2
70
0
43
0
10
47.3065793
20
0.568904
10
47.4865663
20
0.5710685
8
gear_texts
0
LWPOLYLINE
5
1023
100
AcDbEntity
100
AcDbPolyline
90
10
70
0
43
0
10
47.3093936
20
0.2395433
10
47.3095357
20
0.2096006
10
47.3096589
20
0.1796578
10
47.3097631
20
0.1497149
10
47.3398483
20
0.119848
10
47.4598479
20
0.1201518
10
47.4897622
20
0.1502846
10
47.4896576
20
0.1803413
10
47.4895339
20
0.210398
10
47.4893913
20
0.2404547
8
gear_texts
0
LWPOLYLINE
5
1024
100
AcDbEntity
100
AcDbPolyline
90
2
70
0
43
0
10
47.4895339
20
0.210398
10
47.3095357
20
0.2096006
8
gear_texts
0
LWPOLYLINE
5
1025
100
AcDbEntity
100
AcDbPolyline
90
5
70
0
43
0
10
47.429962
20
-0.060038
10
47.4299905
20
-0.030019
10
47.43
20
0
10
47.4299905
20
0.030019
10
47.429962
20
0.060038
8
gear_texts
0
LWPOLYLINE
5
1026
100
AcDbEntity
100
AcDbPolyline
90
5
70
0
43
0
10
47.369962
20
-0.059962
10
47.3699905
20
-0.029981
10
47.37
20
0
10
47.3699905
20
0.029981
10
47.369962
20
0.059962
8
gear_texts
0
LWPOLYLINE
5
1027
100
AcDbEntity
100
AcDbPolyline
90
3
70
0
43
0
10
47.4598479
20
-0.1201518
10
47.4897622
20
-0.1502846
10
47.3097631
20
-0.1497149
8
gear_texts
0
LWPOLYLINE
5
1028
100
AcDbEntity
100
AcDbPolyline
90
3
70
0
43
0
10
47.3096589
20
-0.1796578
10
47.3097631
20
-0.1497149
10
47.3098484
20
-0.119772
8
gear_texts
0
LWPOLYLINE
5
1029
100
AcDbEntity
100
AcDbPolyline
90
9
70
0
43
0
10
47.3388527
20
-0.3295796
10
47.3090524
20
-0.2994284
10
47.3092325
20
-0.2694859
10
47.3393932
20
-0.2396952
10
47.4593916
20
-0.2403028
10
47.4892296
20
-0.2705112
10
47.4890488
20
-0.3005676
10
47.4588498
20
-0.3304151
10
47.3388527
20
-0.3295796
8
gear_texts
0
LWPOLYLINE
5
1030
100
AcDbEntity
100
AcDbPolyline
90
9
70
0
43
0
10
47.3375727
20
-0.4793842
10
47.307868
20
-0.4491388
10
47.3081428
20
-0.419197
10
47.3383976
20
-0.3895019
10
47.4583935
20
-0.3904893
10
47.4881357
20
-0.420792
10
47.4878599
20
-0.4508477
10
47.4575666
20
-0.4805994
10
47.3375727
20
-0.4793842
8
gear_texts
0
LWPOLYLINE
5
1031
100
AcDbEntity
100
AcDbPolyline
90
11
70
0
43
0
10
47.3949779
20
-0.6899756
10
47.3945318
20
-0.7199723
10
47.3940666
20
-0.7499687
10
47.3935824
20
-0.7799648
10
47.4230749
20
-0.8104732
10
47.4530705
20
-0.8109858
10
47.4835702
20
-0.7814457
10
47.4840553
20
-0.7513927
10
47.4845214
20
-0.7213393
10
47.4849684
20
-0.6912857
10
47.3049875
20
-0.6886656
8
gear_texts
0
LWPOLYLINE
5
1032
100
AcDbEntity
100
AcDbPolyline
90
5
70
0
43
0
10
47.4196552
20
-0.9905546
10
47.4202727
20
-0.9605419
10
47.4208711
20
-0.9305289
10
47.4214505
20
-0.9005155
10
47.422011
20
-0.8705018
8
gear_texts
0
LWPOLYLINE
5
1033
100
AcDbEntity
100
AcDbPolyline
90
5
70
0
43
0
10
47.3596683
20
-0.9893015
10
47.360285
20
-0.9593268
10
47.3608826
20
-0.9293518
10
47.3614614
20
-0.8993763
10
47.3620211
20
-0.8694006
8
gear_texts
0
LWPOLYLINE
5
1034
100
AcDbEntity
100
AcDbPolyline
90
9
70
0
43
0
10
47.3263092
20
-1.1384472
10
47.2970284
20
-1.1077911
10
47.2977201
20
-1.0778561
10
47.3283854
20
-1.0485851
10
47.448356
20
-1.0512431
10
47.4776734
20
-1.081957
10
47.4769791
20
-1.112006
10
47.4462744
20
-1.141333
10
47.3263092
20
-1.1384472
8
gear_texts
0
LWPOLYLINE
5
1035
100
AcDbEntity
100
AcDbPolyline
90
2
70
0
43
0
10
47.3248302
20
-1.198353
10
47.2948398
20
-1.1975936
8
gear_texts
0
LWPOLYLINE
5
1036
100
AcDbEntity
100
AcDbPolyline
90
15
70
0
43
0
10
47.4698747
20
-1.3824249
10
47.4707401
20
-1.3523804
10
47.4715865
20
-1.3223354
10
47.472414
20
-1.2922898
10
47.4732224
20
-1.2622437
10
47.4132436
20
-1.260649
10
47.4124362
20
-1.2906571
10
47.4116098
20
-1.3206647
10
47.4107644
20
-1.3506718
10
47.3799128
20
-1.3798051
10
47.3199382
20
-1.3780585
10
47.2908131
20
-1.3472545
10
47.2916563
20
-1.3173234
10
47.2924806
20
-1.2873917
10
47.3232753
20
-1.2582569
8
gear_texts
0
LWPOLYLINE
5
1037
100
AcDbEntity
100
AcDbPolyline
90
11
70
0
43
0
10
47.3733348
20
-1.5897018
10
47.3723192
20
-1.6196846
10
47.3712845
20
-1.6496668
10
47.370231
20
-1.6796483
10
47.3991389
20
-1.7107111
10
47.4291194
20
-1.7117932
10
47.4601744
20
-1.6828375
10
47.46123
20
-1.6527991
10
47.4622666
20
-1.62276
10
47.4632841
20
-1.5927203
10
47.2833854
20
-1.5866834
8
gear_texts
0
LWPOLYLINE
5
1038
100
AcDbEntity
100
AcDbPolyline
90
7
70
0
43
0
10
47.2770191
20
-1.7662287
10
47.3369773
20
-1.7684687
10
47.3958053
20
-1.8007064
10
47.4546114
20
-1.8330192
10
47.3934879
20
-1.8606996
10
47.3323485
20
-1.8883033
10
47.2723961
20
-1.8859116
8
gear_texts
0
LWPOLYLINE
5
1039
100
AcDbEntity
100
AcDbPolyline
90
5
70
0
43
0
10
47.3369773
20
-1.7684687
10
47.3358485
20
-1.7984284
10
47.3347008
20
-1.8283875
10
47.3335341
20
-1.8583458
10
47.3323485
20
-1.8883033
8
gear_texts
0
LWPOLYLINE
5
1040
100
AcDbEntity
100
AcDbPolyline
90
5
70
0
43
0
10
47.3847792
20
-2.0706518
10
47.3860803
20
-2.040661
10
47.3873623
20
-2.0106694
10
47.3886254
20
-1.980677
10
47.3898695
20
-1.9506838
8
gear_texts
0
LWPOLYLINE
5
1041
100
AcDbEntity
100
AcDbPolyline
90
5
70
0
43
0
10
47.3248364
20
-2.0680324
10
47.3261358
20
-2.0380795
10
47.3274163
20
-2.0081259
10
47.3286778
20
-1.9781714
10
47.3299203
20
-1.9482162
8
gear_texts
0
LWPOLYLINE
5
1042
100
AcDbEntity
100
AcDbPolyline
90
15
70
0
43
0
10
47.2567095
20
-2.2448846
10
47.2581209
20
-2.2149748
10
47.2595133
20
-2.1850642
10
47.2608868
20
-2.1551527
10
47.2622413
20
-2.1252403
10
47.3221807
20
-2.1279356
10
47.3507933
20
-2.1592525
10
47.3494172
20
-2.1892209
10
47.3480222
20
-2.2191885
10
47.3765743
20
-2.2505786
10
47.4065405
20
-2.2520022
10
47.4379235
20
-2.2234021
10
47.4393212
20
-2.1933777
10
47.4406999
20
-2.1633524
10
47.4120899
20
-2.1319785
8
gear_texts
0
LWPOLYLINE
5
1043
100
AcDbEntity
100
AcDbPolyline
90
9
70
0
43
0
10
47.3077651
20
-2.4273984
10
47.3092919
20
-2.3974563
10
47.3107998
20
-2.3675132
10
47.3122888
20
-2.3375692
10
47.3137588
20
-2.3076243
10
47.3522401
20
-2.3395431
10
47.3906999
20
-2.3715116
10
47.4291381
20
-2.4035297
10
47.2493688
20
-2.3944196
8
gear_texts
0
LINE
5
1001
100
AcDbEntity
100
AcDbLine
10
0.1
20
0
30
0
11
-0.1
21
0
31
0
8
gear_guides
0
LINE
5
1002
100
AcDbEntity
100
AcDbLine
10
0
20
0.1
30
0
11
0
21
-0.1
31
0
8
gear_guides
0
CIRCLE
5
1003
100
AcDbEntity
100
AcDbCircle
10
49.9183286
20
2.856653
30
0
40
0.785
8
gear_guides
0
CIRCLE
5
1044
100
AcDbEntity
100
AcDbCircle
10
0
20
0
30
0
40
50
8
gear_guides
0
CIRCLE
5
1045
100
AcDbEntity
100
AcDbCircle
10
0
20
0
30
0
40
52
8
gear_guides
0
CIRCLE
5
1046
100
AcDbEntity
100
AcDbCircle
10
0
20
0
30
0
40
45.6772729
8
gear_guides
0
ENDSEC
0
SECTION
2
OBJECTS
0
DICTIONARY
5
21D
330
0
100
AcDbDictionary
281
1
3
ACAD_CIP_PREVIOUS_PRODUCT_INFO
350
291
3
ACAD_COLOR
350
273
3
ACAD_DETAILVIEWSTYLE
350
27B
3
ACAD_GROUP
350
21E
3
ACAD_LAYOUT
350
272
3
ACAD_MATERIAL
350
221
3
ACAD_MLEADERSTYLE
350
276
3
ACAD_MLINESTYLE
350
26F
3
ACAD_PLOTSETTINGS
350
271
3
ACAD_PLOTSTYLENAME
350
21F
3
ACAD_SCALELIST
350
253
3
ACAD_SECTIONVIEWSTYLE
350
278
3
ACAD_TABLESTYLE
350
274
3
ACAD_VISUALSTYLE
350
23A
3
ACDB_RECOMPOSE_DATA
350
1057
3
AcDbVariableDictionary
350
29D
0
DICTIONARY
5
297
330
213
100
AcDbDictionary
280
1
281
1
3
ACAD_LAYERSTATES
360
298
0
DICTIONARY
5
292
330
265
100
AcDbDictionary
280
1
281
1
3
ADSK_XREC_LAYER_RECONCILED
360
293
0
XRECORD
5
291
102
{ACAD_REACTORS
330
21D
102
}
330
21D
100
AcDbXrecord
280
1
300
ACDMAC
300
2013
300
ACDMAC_F_S
0
DICTIONARY
5
273
102
{ACAD_REACTORS
330
21D
102
}
330
21D
100
AcDbDictionary
281
1
0
DICTIONARY
5
27B
102
{ACAD_REACTORS
330
21D
102
}
330
21D
100
AcDbDictionary
281
1
3
Imperial24
350
27C
0
DICTIONARY
5
21E
102
{ACAD_REACTORS
330
21D
102
}
330
21D
100
AcDbDictionary
281
1
0
DICTIONARY
5
272
102
{ACAD_REACTORS
330
21D
102
}
330
21D
100
AcDbDictionary
281
1
3
Layout1
350
280
3
Model
350
284
0
DICTIONARY
5
221
102
{ACAD_REACTORS
330
21D
102
}
330
21D
100
AcDbDictionary
281
1
3
ByBlock
350
22A
3
ByLayer
350
222
3
Global
350
232
0
DICTIONARY
5
276
102
{ACAD_REACTORS
330
21D
102
}
330
21D
100
AcDbDictionary
281
1
3
Standard
350
277
0
DICTIONARY
5
26F
102
{ACAD_REACTORS
330
21D
102
}
330
21D
100
AcDbDictionary
281
1
3
Standard
350
270
0
DICTIONARY
5
271
102
{ACAD_REACTORS
330
21D
102
}
330
21D
100
AcDbDictionary
281
1
0
ACDBDICTIONARYWDFLT
5
21F
102
{ACAD_REACTORS
330
21D
102
}
330
21D
100
AcDbDictionary
281
1
3
Normal
350
220
100
AcDbDictionaryWithDefault
340
220
0
DICTIONARY
5
253
102
{ACAD_REACTORS
330
21D
102
}
330
21D
100
AcDbDictionary
281
1
3
A0
350
254
3
A1
350
255
3
A2
350
256
3
A3
350
257
3
A4
350
258
3
A5
350
259
3
A6
350
25A
3
A7
350
25B
3
A8
350
25C
3
A9
350
25D
3
B0
350
25E
3
B1
350
25F
3
B2
350
260
3
B3
350
261
3
B4
350
262
3
B5
350
263
3
B6
350
264
0
DICTIONARY
5
278
102
{ACAD_REACTORS
330
21D
102
}
330
21D
100
AcDbDictionary
281
1
3
Imperial24
350
27A
0
DICTIONARY
5
274
102
{ACAD_REACTORS
330
21D
102
}
330
21D
100
AcDbDictionary
281
1
3
Standard
350
275
0
DICTIONARY
5
23A
102
{ACAD_REACTORS
330
21D
102
}
330
21D
100
AcDbDictionary
281
1
3
2dWireframe
350
240
3
Basic
350
23F
3
Brighten
350
246
3
ColorChange
350
24A
3
Conceptual
350
243
3
Dim
350
245
3
EdgeColorOff
350
252
3
Facepattern
350
249
3
Flat
350
23B
3
FlatWithEdges
350
23C
3
Gouraud
350
23D
3
GouraudWithEdges
350
23E
3
Hidden
350
242
3
JitterOff
350
250
3
Linepattern
350
248
3
OverhangOff
350
251
3
Realistic
350
244
3
Shaded
350
24F
3
Shaded with edges
350
24E
3
Shades of Gray
350
24B
3
Sketchy
350
24C
3
Thicken
350
247
3
Wireframe
350
241
3
X-Ray
350
24D
0
XRECORD
5
1057
102
{ACAD_REACTORS
330
21D
102
}
330
21D
100
AcDbXrecord
280
1
90
1
330
275
0
DICTIONARY
5
29D
102
{ACAD_REACTORS
330
21D
102
}
330
21D
100
AcDbDictionary
281
1
3
CANNOSCALE
350
2A3
3
CMLEADERSTYLE
350
29F
3
CTABLESTYLE
350
29E
3
CVIEWDETAILSTYLE
350
2A0
3
CVIEWSECTIONSTYLE
350
2A1
3
LAYEREVAL
350
2A5
3
LAYERNOTIFY
350
2A6
3
LIGHTINGUNITS
350
2A4
3
MSLTSCALE
350
2A2
0
DICTIONARY
5
298
102
{ACAD_REACTORS
330
297
102
}
330
297
100
AcDbDictionary
281
1
0
XRECORD
5
293
102
{ACAD_REACTORS
330
292
102
}
330
292
100
AcDbXrecord
280
1
290
1
0
ACDBDETAILVIEWSTYLE
5
27C
102
{ACAD_REACTORS
330
27B
102
}
330
27B
100
AcDbModelDocViewStyle
70
0
3
Imperial24
290
0
100
AcDbDetailViewStyle
70
0
71
0
90
3
71
1
340
266
62
256
40
0.24
340
0
62
256
40
0.24
300

40
0.36
280
3
71
2
340
26D
90
25
62
256
71
3
340
266
62
256
40
0.24
90
1
40
0.75
90
1
300
%<AcVar ViewType  "%tc1">% %<AcVar ViewDetailId>%PSCALE %<AcVar ViewScale  "%sn">%
71
4
340
26D
90
25
62
256
340
26D
90
25
62
256
280
0
0
LAYOUT
5
280
102
{ACAD_REACTORS
330
272
102
}
330
272
100
AcDbPlotSettings
1

2
HP_LaserJet_P1505
4

6

40
0.0
41
0.0
42
0.0
43
0.0
44
0.0
45
0.0
46
0.0
47
0.0
48
0.0
49
0.0
140
0.0
141
0.0
142
1.0
143
1.0
70
688
72
0
73
0
74
5
7

75
16
147
1.0
76
0
77
2
78
300
148
0.0
149
0.0
100
AcDbLayout
1
Layout1
70
1
71
1
10
0.0
20
0.0
11
12.0
21
9.0
12
0.0
22
0.0
32
0.0
14
0.0
24
0.0
34
0.0
15
0.0
25
0.0
35
0.0
146
0.0
13
0.0
23
0.0
33
0.0
16
1.0
26
0.0
36
0.0
17
0.0
27
1.0
37
0.0
76
0
330
27D
0
LAYOUT
5
284
102
{ACAD_REACTORS
330
272
102
}
330
272
100
AcDbPlotSettings
1

2
HP_LaserJet_P1505
4

6

40
0.0
41
0.0
42
0.0
43
0.0
44
0.0
45
0.0
46
0.0
47
0.0
48
0.0
49
0.0
140
0.0
141
0.0
142
1.0
143
1.0
70
1712
72
0
73
0
74
0
7

75
0
147
1.0
76
0
77
2
78
300
148
0.0
149
0.0
100
AcDbLayout
1
Model
70
1
71
0
10
0.0
20
0.0
11
12.0
21
9.0
12
0.0
22
0.0
32
0.0
14
0.0
24
0.0
34
0.0
15
0.0
25
0.0
35
0.0
146
0.0
13
0.0
23
0.0
33
0.0
16
1.0
26
0.0
36
0.0
17
0.0
27
1.0
37
0.0
76
0
330
281
331
285
0
MATERIAL
5
22A
102
{ACAD_XDICTIONARY
360
22B
102
}
102
{ACAD_REACTORS
330
221
102
}
330
221
100
AcDbMaterial
1
ByBlock
72
0
43
0.0208333333333333
43
0.0
43
0.0
43
0.0
43
0.0
43
0.0208333333333333
43
0.0
43
0.0
43
0.0
43
0.0
43
1.0
43
0.0
43
0.0
43
0.0
43
0.0
43
1.0
77
0
47
0.0208333333333333
47
0.0
47
0.0
47
0.0
47
0.0
47
0.0208333333333333
47
0.0
47
0.0
47
0.0
47
0.0
47
1.0
47
0.0
47
0.0
47
0.0
47
0.0
47
1.0
171
0
49
0.0208333333333333
49
0.0
49
0.0
49
0.0
49
0.0
49
0.0208333333333333
49
0.0
49
0.0
49
0.0
49
0.0
49
1.0
49
0.0
49
0.0
49
0.0
49
0.0
49
1.0
175
0
142
0.0208333333333333
142
0.0
142
0.0
142
0.0
142
0.0
142
0.0208333333333333
142
0.0
142
0.0
142
0.0
142
0.0
142
1.0
142
0.0
142
0.0
142
0.0
142
0.0
142
1.0
179
0
144
0.0208333333333333
144
0.0
144
0.0
144
0.0
144
0.0
144
0.0208333333333333
144
0.0
144
0.0
144
0.0
144
0.0
144
1.0
144
0.0
144
0.0
144
0.0
144
0.0
144
1.0
147
0.0208333333333333
147
0.0
147
0.0
147
0.0
147
0.0
147
0.0208333333333333
147
0.0
147
0.0
147
0.0
147
0.0
147
1.0
147
0.0
147
0.0
147
0.0
147
0.0
147
1.0
0
MATERIAL
5
222
102
{ACAD_XDICTIONARY
360
223
102
}
102
{ACAD_REACTORS
330
221
102
}
330
221
100
AcDbMaterial
1
ByLayer
72
0
43
0.0208333333333333
43
0.0
43
0.0
43
0.0
43
0.0
43
0.0208333333333333
43
0.0
43
0.0
43
0.0
43
0.0
43
1.0
43
0.0
43
0.0
43
0.0
43
0.0
43
1.0
77
0
47
0.0208333333333333
47
0.0
47
0.0
47
0.0
47
0.0
47
0.0208333333333333
47
0.0
47
0.0
47
0.0
47
0.0
47
1.0
47
0.0
47
0.0
47
0.0
47
0.0
47
1.0
171
0
49
0.0208333333333333
49
0.0
49
0.0
49
0.0
49
0.0
49
0.0208333333333333
49
0.0
49
0.0
49
0.0
49
0.0
49
1.0
49
0.0
49
0.0
49
0.0
49
0.0
49
1.0
175
0
142
0.0208333333333333
142
0.0
142
0.0
142
0.0
142
0.0
142
0.0208333333333333
142
0.0
142
0.0
142
0.0
142
0.0
142
1.0
142
0.0
142
0.0
142
0.0
142
0.0
142
1.0
179
0
144
0.0208333333333333
144
0.0
144
0.0
144
0.0
144
0.0
144
0.0208333333333333
144
0.0
144
0.0
144
0.0
144
0.0
144
1.0
144
0.0
144
0.0
144
0.0
144
0.0
144
1.0
147
0.0208333333333333
147
0.0
147
0.0
147
0.0
147
0.0
147
0.0208333333333333
147
0.0
147
0.0
147
0.0
147
0.0
147
1.0
147
0.0
147
0.0
147
0.0
147
0.0
147
1.0
0
MATERIAL
5
232
102
{ACAD_XDICTIONARY
360
233
102
}
102
{ACAD_REACTORS
330
221
102
}
330
221
100
AcDbMaterial
1
Global
72
0
43
0.0208333333333333
43
0.0
43
0.0
43
0.0
43
0.0
43
0.0208333333333333
43
0.0
43
0.0
43
0.0
43
0.0
43
1.0
43
0.0
43
0.0
43
0.0
43
0.0
43
1.0
77
0
47
0.0208333333333333
47
0.0
47
0.0
47
0.0
47
0.0
47
0.0208333333333333
47
0.0
47
0.0
47
0.0
47
0.0
47
1.0
47
0.0
47
0.0
47
0.0
47
0.0
47
1.0
171
0
49
0.0208333333333333
49
0.0
49
0.0
49
0.0
49
0.0
49
0.0208333333333333
49
0.0
49
0.0
49
0.0
49
0.0
49
1.0
49
0.0
49
0.0
49
0.0
49
0.0
49
1.0
175
0
142
0.0208333333333333
142
0.0
142
0.0
142
0.0
142
0.0
142
0.0208333333333333
142
0.0
142
0.0
142
0.0
142
0.0
142
1.0
142
0.0
142
0.0
142
0.0
142
0.0
142
1.0
179
0
144
0.0208333333333333
144
0.0
144
0.0
144
0.0
144
0.0
144
0.0208333333333333
144
0.0
144
0.0
144
0.0
144
0.0
144
1.0
144
0.0
144
0.0
144
0.0
144
0.0
144
1.0
147
0.0208333333333333
147
0.0
147
0.0
147
0.0
147
0.0
147
0.0208333333333333
147
0.0
147
0.0
147
0.0
147
0.0
147
1.0
147
0.0
147
0.0
147
0.0
147
0.0
147
1.0
0
MLEADERSTYLE
5
277
102
{ACAD_REACTORS
330
276
102
}
330
276
100
AcDbMLeaderStyle
179
2
170
2
171
1
172
0
90
2
40
0.0
41
0.0
173
1
91
-1056964608
340
26B
92
-2
290
1
42
0.09
291
1
43
0.36
3
Standard
44
0.18
300

342
266
174
1
178
6
175
1
176
0
93
-1056964608
45
0.18
292
0
297
0
46
0.18
94
-1056964608
47
1.0
49
1.0
140
1.0
293
1
141
0.0
294
1
177
0
142
1.0
295
0
296
0
143
0.125
271
0
272
9
273
9
298
0
0
MLINESTYLE
5
270
102
{ACAD_REACTORS
330
26F
102
}
330
26F
100
AcDbMlineStyle
2
STANDARD
70
0
3

62
256
51
90.0
52
90.0
71
2
49
0.5
62
256
6
BYLAYER
49
-0.5
62
256
6
BYLAYER
0
ACDBPLACEHOLDER
5
220
102
{ACAD_REACTORS
330
21F
102
}
330
21F
0
SCALE
5
254
102
{ACAD_REACTORS
330
253
102
}
330
253
100
AcDbScale
70
0
300
1:1
140
1.0
141
1.0
290
1
0
SCALE
5
255
102
{ACAD_REACTORS
330
253
102
}
330
253
100
AcDbScale
70
0
300
1/128" = 1'-0"
140
0.0078125
141
12.0
290
0
0
SCALE
5
256
102
{ACAD_REACTORS
330
253
102
}
330
253
100
AcDbScale
70
0
300
1/64" = 1'-0"
140
0.015625
141
12.0
290
0
0
SCALE
5
257
102
{ACAD_REACTORS
330
253
102
}
330
253
100
AcDbScale
70
0
300
1/32" = 1'-0"
140
0.03125
141
12.0
290
0
0
SCALE
5
258
102
{ACAD_REACTORS
330
253
102
}
330
253
100
AcDbScale
70
0
300
1/16" = 1'-0"
140
0.0625
141
12.0
290
0
0
SCALE
5
259
102
{ACAD_REACTORS
330
253
102
}
330
253
100
AcDbScale
70
0
300
3/32" = 1'-0"
140
0.09375
141
12.0
290
0
0
SCALE
5
25A
102
{ACAD_REACTORS
330
253
102
}
330
253
100
AcDbScale
70
0
300
1/8" = 1'-0"
140
0.125
141
12.0
290
0
0
SCALE
5
25B
102
{ACAD_REACTORS
330
253
102
}
330
253
100
AcDbScale
70
0
300
3/16" = 1'-0"
140
0.1875
141
12.0
290
0
0
SCALE
5
25C
102
{ACAD_REACTORS
330
253
102
}
330
253
100
AcDbScale
70
0
300
1/4" = 1'-0"
140
0.25
141
12.0
290
0
0
SCALE
5
25D
102
{ACAD_REACTORS
330
253
102
}
330
253
100
AcDbScale
70
0
300
3/8" = 1'-0"
140
0.375
141
12.0
290
0
0
SCALE
5
25E
102
{ACAD_REACTORS
330
253
102
}
330
253
100
AcDbScale
70
0
300
1/2" = 1'-0"
140
0.5
141
12.0
290
0
0
SCALE
5
25F
102
{ACAD_REACTORS
330
253
102
}
330
253
100
AcDbScale
70
0
300
3/4" = 1'-0"
140
0.75
141
12.0
290
0
0
SCALE
5
260
102
{ACAD_REACTORS
330
253
102
}
330
253
100
AcDbScale
70
0
300
1" = 1'-0"
140
1.0
141
12.0
290
0
0
SCALE
5
261
102
{ACAD_REACTORS
330
253
102
}
330
253
100
AcDbScale
70
0
300
1-1/2" = 1'-0"
140
1.5
141
12.0
290
0
0
SCALE
5
262
102
{ACAD_REACTORS
330
253
102
}
330
253
100
AcDbScale
70
0
300
3" = 1'-0"
140
3.0
141
12.0
290
0
0
SCALE
5
263
102
{ACAD_REACTORS
330
253
102
}
330
253
100
AcDbScale
70
0
300
6" = 1'-0"
140
6.0
141
12.0
290
0
0
SCALE
5
264
102
{ACAD_REACTORS
330
253
102
}
330
253
100
AcDbScale
70
0
300
1'-0" = 1'-0"
140
12.0
141
12.0
290
0
0
ACDBSECTIONVIEWSTYLE
5
27A
102
{ACAD_REACTORS
330
278
102
}
330
278
100
AcDbModelDocViewStyle
70
0
3
Imperial24
290
0
100
AcDbSectionViewStyle
70
0
71
0
90
78
71
1
340
266
62
256
40
0.24
340
0
340
0
62
256
40
0.24
300
I, O, Q, S, X, Z
40
0.48
90
3
40
0.18
90
1
71
2
340
279
90
25
62
256
340
26D
90
50
62
256
40
0.24
40
0.0
40
0.24
71
3
340
266
62
256
40
0.24
90
1
40
0.75
90
1
300
%<AcVar ViewType  "%tc1">% %<AcVar ViewSectionStartId>%-%<AcVar ViewSectionEndId>%PSCALE %<AcVar ViewScale  "%sn">%
71
4
62
256
62
257
300
ANSI31
40
1.0
90
0
290
0
290
0
90
6
40
0.0
40
1.570796326794896
40
0.2617993877991494
40
1.308996938995747
40
-0.2617993877991494
40
1.832595714594044
0
TABLESTYLE
5
275
102
{ACAD_XDICTIONARY
360
2A7
102
}
102
{ACAD_REACTORS
330
274
102
}
330
274
100
AcDbTableStyle
280
0
3
Standard
70
0
71
0
40
0.06
41
0.06
280
0
281
0
7
STANDARD
140
0.18
170
2
62
0
63
7
283
0
90
512
91
0
1

274
-2
284
1
64
0
275
-2
285
1
65
0
276
-2
286
1
66
0
277
-2
287
1
67
0
278
-2
288
1
68
0
279
-2
289
1
69
0
7
STANDARD
140
0.25
170
5
62
0
63
7
283
0
90
512
91
0
1

274
-2
284
1
64
0
275
-2
285
1
65
0
276
-2
286
1
66
0
277
-2
287
1
67
0
278
-2
288
1
68
0
279
-2
289
1
69
0
7
STANDARD
140
0.18
170
5
62
0
63
7
283
0
90
512
91
0
1

274
-2
284
1
64
0
275
-2
285
1
65
0
276
-2
286
1
66
0
277
-2
287
1
67
0
278
-2
288
1
68
0
279
-2
289
1
69
0
0
VISUALSTYLE
5
240
102
{ACAD_REACTORS
330
23A
102
}
330
23A
100
AcDbVisualStyle
2
2dWireframe
70
4
177
3
291
0
70
58
90
0
176
1
90
2
176
1
90
0
176
1
90
0
176
1
40
0.6
176
1
40
30.0
176
1
62
7
420
16777215
176
1
90
1
176
1
90
4
176
1
62
7
176
1
62
257
176
1
90
1
176
1
90
1
176
1
40
1.0
176
1
90
0
176
1
62
257
176
1
40
1.0
176
1
90
1
176
1
90
6
176
1
90
2
176
1
62
7
176
1
90
5
176
1
90
0
176
1
90
0
176
1
290
0
176
1
90
1
176
1
40
0.0
176
1
90
0
176
1
290
1
176
1
290
1
176
1
290
0
176
1
290
0
176
1
290
0
176
1
290
0
176
1
290
0
176
1
290
0
176
1
290
0
176
1
90
50
176
1
40
0.0
176
1
40
1.0
176
1
90
0
176
1
62
18
176
1
90
50
176
1
90
3
176
1
62
5
420
255
176
1
290
0
176
1
90
50
176
1
90
50
176
1
90
50
176
1
290
0
176
1
90
50
176
1
62
256
176
0
40
1.0
176
0
90
2
176
1
1
strokes_ogs.tif
176
1
290
0
176
1
40
1.0
176
1
40
1.0
176
1
1001
ACAD
1000
AcDbSavedByObjectVersion
1070
0
0
VISUALSTYLE
5
23F
102
{ACAD_REACTORS
330
23A
102
}
330
23A
100
AcDbVisualStyle
2
Basic
70
7
177
3
291
1
70
58
90
1
176
1
90
0
176
1
90
1
176
1
90
0
176
1
40
0.6
176
1
40
30.0
176
1
62
7
420
16777215
176
1
90
0
176
1
90
4
176
1
62
7
176
1
62
257
176
1
90
1
176
1
90
1
176
1
40
1.0
176
1
90
8
176
1
62
7
176
1
40
1.0
176
1
90
1
176
1
90
6
176
1
90
2
176
1
62
7
176
1
90
5
176
1
90
0
176
1
90
0
176
1
290
0
176
1
90
1
176
1
40
0.0
176
1
90
0
176
1
290
0
176
1
290
1
176
1
290
1
176
1
290
0
176
1
290
0
176
1
290
0
176
1
290
0
176
1
290
0
176
1
290
0
176
1
90
50
176
1
40
0.0
176
1
40
1.0
176
1
90
0
176
1
62
18
176
1
90
50
176
1
90
3
176
1
62
5
420
255
176
1
290
0
176
1
90
50
176
1
90
50
176
1
90
50
176
1
290
0
176
1
90
50
176
1
62
256
176
0
40
1.0
176
0
90
2
176
1
1
strokes_ogs.tif
176
1
290
0
176
1
40
1.0
176
1
40
1.0
176
1
1001
ACAD
1000
AcDbSavedByObjectVersion
1070
0
0
VISUALSTYLE
5
246
102
{ACAD_REACTORS
330
23A
102
}
330
23A
100
AcDbVisualStyle
2
Brighten
70
12
177
3
291
1
70
58
90
2
176
1
90
2
176
1
90
0
176
1
90
0
176
1
40
0.6
176
1
40
30.0
176
1
62
7
420
16777215
176
1
90
1
176
1
90
4
176
1
62
7
176
1
62
257
176
1
90
1
176
1
90
1
176
1
40
1.0
176
1
90
8
176
1
62
7
176
1
40
1.0
176
1
90
1
176
1
90
6
176
1
90
2
176
1
62
7
176
1
90
5
176
1
90
0
176
1
90
0
176
1
290
0
176
1
90
1
176
1
40
50.0
176
1
90
0
176
1
290
0
176
1
290
1
176
1
290
1
176
1
290
0
176
1
290
0
176
1
290
0
176
1
290
0
176
1
290
0
176
1
290
0
176
1
90
50
176
1
40
0.0
176
1
40
1.0
176
1
90
0
176
1
62
18
176
1
90
50
176
1
90
3
176
1
62
5
420
255
176
1
290
0
176
1
90
50
176
1
90
50
176
1
90
50
176
1
290
0
176
1
90
50
176
1
62
256
176
0
40
1.0
176
0
90
2
176
1
1
strokes_ogs.tif
176
1
290
0
176
1
40
1.0
176
1
40
1.0
176
1
1001
ACAD
1000
AcDbSavedByObjectVersion
1070
0
0
VISUALSTYLE
5
24A
102
{ACAD_REACTORS
330
23A
102
}
330
23A
100
AcDbVisualStyle
2
ColorChange
70
16
177
3
291
1
70
58
90
2
176
1
90
2
176
1
90
3
176
1
90
0
176
1
40
0.6
176
1
40
30.0
176
1
62
8
420
8421504
176
1
90
1
176
1
90
4
176
1
62
7
176
1
62
257
176
1
90
1
176
1
90
1
176
1
40
1.0
176
1
90
8
176
1
62
8
420
8421504
176
1
40
1.0
176
1
90
1
176
1
90
6
176
1
90
2
176
1
62
7
176
1
90
5
176
1
90
0
176
1
90
0
176
1
290
0
176
1
90
1
176
1
40
0.0
176
1
90
0
176
1
290
0
176
1
290
1
176
1
290
1
176
1
290
0
176
1
290
0
176
1
290
0
176
1
290
0
176
1
290
0
176
1
290
0
176
1
90
50
176
1
40
0.0
176
1
40
1.0
176
1
90
0
176
1
62
18
176
1
90
50
176
1
90
3
176
1
62
5
420
255
176
1
290
0
176
1
90
50
176
1
90
50
176
1
90
50
176
1
290
0
176
1
90
50
176
1
62
256
176
0
40
1.0
176
0
90
2
176
1
1
strokes_ogs.tif
176
1
290
0
176
1
40
1.0
176
1
40
1.0
176
1
1001
ACAD
1000
AcDbSavedByObjectVersion
1070
0
0
VISUALSTYLE
5
243
102
{ACAD_REACTORS
330
23A
102
}
330
23A
100
AcDbVisualStyle
2
Conceptual
70
9
177
3
291
0
70
58
90
3
176
1
90
2
176
1
90
0
176
1
90
0
176
1
40
0.6
176
1
40
30.0
176
1
62
7
420
16777215
176
1
90
2
176
1
90
2
176
1
62
7
176
1
62
257
176
1
90
1
176
1
90
1
176
1
40
179.0
176
1
90
8
176
1
62
7
176
1
40
1.0
176
1
90
1
176
1
90
6
176
1
90
2
176
1
62
7
176
1
90
3
176
1
90
0
176
1
90
0
176
1
290
0
176
1
90
1
176
1
40
0.0
176
1
90
0
176
1
290
0
176
1
290
1
176
1
290
1
176
1
290
0
176
1
290
0
176
1
290
0
176
1
290
0
176
1
290
0
176
1
290
0
176
1
90
50
176
1
40
0.0
176
1
40
1.0
176
1
90
0
176
1
62
18
176
1
90
50
176
1
90
3
176
1
62
5
420
255
176
1
290
0
176
1
90
50
176
1
90
50
176
1
90
50
176
1
290
0
176
1
90
50
176
1
62
256
176
0
40
1.0
176
0
90
2
176
1
1
strokes_ogs.tif
176
1
290
0
176
1
40
1.0
176
1
40
1.0
176
1
1001
ACAD
1000
AcDbSavedByObjectVersion
1070
0
0
VISUALSTYLE
5
245
102
{ACAD_REACTORS
330
23A
102
}
330
23A
100
AcDbVisualStyle
2
Dim
70
11
177
3
291
1
70
58
90
2
176
1
90
2
176
1
90
0
176
1
90
0
176
1
40
0.6
176
1
40
30.0
176
1
62
7
420
16777215
176
1
90
1
176
1
90
4
176
1
62
7
176
1
62
257
176
1
90
1
176
1
90
1
176
1
40
1.0
176
1
90
8
176
1
62
7
176
1
40
1.0
176
1
90
1
176
1
90
6
176
1
90
2
176
1
62
7
176
1
90
5
176
1
90
0
176
1
90
0
176
1
290
0
176
1
90
1
176
1
40
-50.0
176
1
90
0
176
1
290
0
176
1
290
1
176
1
290
1
176
1
290
0
176
1
290
0
176
1
290
0
176
1
290
0
176
1
290
0
176
1
290
0
176
1
90
50
176
1
40
0.0
176
1
40
1.0
176
1
90
0
176
1
62
18
176
1
90
50
176
1
90
3
176
1
62
5
420
255
176
1
290
0
176
1
90
50
176
1
90
50
176
1
90
50
176
1
290
0
176
1
90
50
176
1
62
256
176
0
40
1.0
176
0
90
2
176
1
1
strokes_ogs.tif
176
1
290
0
176
1
40
1.0
176
1
40
1.0
176
1
1001
ACAD
1000
AcDbSavedByObjectVersion
1070
0
0
VISUALSTYLE
5
252
102
{ACAD_REACTORS
330
23A
102
}
330
23A
100
AcDbVisualStyle
2
EdgeColorOff
70
22
177
3
291
1
70
58
90
2
176
0
90
2
176
0
90
0
176
0
90
0
176
0
40
0.6
176
0
40
30.0
176
0
62
7
420
16777215
176
0
90
1
176
0
90
4
176
0
62
7
176
0
62
257
176
0
90
1
176
0
90
1
176
0
40
1.0
176
0
90
8
176
2
62
7
176
0
40
1.0
176
0
90
1
176
0
90
6
176
0
90
2
176
0
62
7
176
0
90
5
176
0
90
0
176
0
90
0
176
0
290
0
176
0
90
1
176
0
40
0.0
176
0
90
0
176
0
290
0
176
1
290
1
176
1
290
1
176
1
290
0
176
1
290
0
176
1
290
0
176
1
290
0
176
1
290
0
176
1
290
0
176
1
90
50
176
0
40
0.0
176
0
40
1.0
176
0
90
0
176
0
62
18
176
0
90
50
176
0
90
3
176
0
62
5
420
255
176
0
290
0
176
1
90
50
176
0
90
50
176
0
90
50
176
0
290
0
176
1
90
50
176
0
62
256
176
0
40
1.0
176
0
90
2
176
0
1
strokes_ogs.tif
176
0
290
0
176
1
40
1.0
176
0
40
1.0
176
0
1001
ACAD
1000
AcDbSavedByObjectVersion
1070
0
0
VISUALSTYLE
5
249
102
{ACAD_REACTORS
330
23A
102
}
330
23A
100
AcDbVisualStyle
2
Facepattern
70
15
177
3
291
1
70
58
90
2
176
1
90
2
176
1
90
0
176
1
90
0
176
1
40
0.6
176
1
40
30.0
176
1
62
7
420
16777215
176
1
90
1
176
1
90
4
176
1
62
7
176
1
62
257
176
1
90
1
176
1
90
1
176
1
40
1.0
176
1
90
8
176
1
62
7
176
1
40
1.0
176
1
90
1
176
1
90
6
176
1
90
2
176
1
62
7
176
1
90
5
176
1
90
0
176
1
90
0
176
1
290
0
176
1
90
1
176
1
40
0.0
176
1
90
0
176
1
290
0
176
1
290
1
176
1
290
1
176
1
290
0
176
1
290
0
176
1
290
0
176
1
290
0
176
1
290
0
176
1
290
0
176
1
90
50
176
1
40
0.0
176
1
40
1.0
176
1
90
0
176
1
62
18
176
1
90
50
176
1
90
3
176
1
62
5
420
255
176
1
290
0
176
1
90
50
176
1
90
50
176
1
90
50
176
1
290
0
176
1
90
50
176
1
62
256
176
0
40
1.0
176
0
90
2
176
1
1
strokes_ogs.tif
176
1
290
0
176
1
40
1.0
176
1
40
1.0
176
1
1001
ACAD
1000
AcDbSavedByObjectVersion
1070
0
0
VISUALSTYLE
5
23B
102
{ACAD_REACTORS
330
23A
102
}
330
23A
100
AcDbVisualStyle
2
Flat
70
0
177
3
291
1
70
58
90
2
176
1
90
1
176
1
90
1
176
1
90
2
176
1
40
0.6
176
1
40
30.0
176
1
62
7
420
16777215
176
1
90
0
176
1
90
0
176
1
62
7
176
1
62
257
176
1
90
1
176
1
90
1
176
1
40
1.0
176
1
90
8
176
1
62
7
176
1
40
1.0
176
1
90
1
176
1
90
6
176
1
90
2
176
1
62
7
176
1
90
5
176
1
90
0
176
1
90
0
176
1
290
0
176
1
90
13
176
1
40
0.0
176
1
90
0
176
1
290
0
176
1
290
1
176
1
290
1
176
1
290
0
176
1
290
0
176
1
290
0
176
1
290
0
176
1
290
0
176
1
290
0
176
1
90
50
176
1
40
0.0
176
1
40
1.0
176
1
90
0
176
1
62
18
176
1
90
50
176
1
90
3
176
1
62
5
420
255
176
1
290
0
176
1
90
50
176
1
90
50
176
1
90
50
176
1
290
0
176
1
90
50
176
1
62
256
176
0
40
1.0
176
0
90
2
176
1
1
strokes_ogs.tif
176
1
290
0
176
1
40
1.0
176
1
40
1.0
176
1
1001
ACAD
1000
AcDbSavedByObjectVersion
1070
0
0
VISUALSTYLE
5
23C
102
{ACAD_REACTORS
330
23A
102
}
330
23A
100
AcDbVisualStyle
2
FlatWithEdges
70
1
177
3
291
1
70
58
90
2
176
1
90
1
176
1
90
1
176
1
90
2
176
1
40
0.6
176
1
40
30.0
176
1
62
7
420
16777215
176
1
90
1
176
1
90
0
176
1
62
7
176
1
62
257
176
1
90
1
176
1
90
1
176
1
40
1.0
176
1
90
0
176
1
62
257
176
1
40
1.0
176
1
90
1
176
1
90
6
176
1
90
2
176
1
62
7
176
1
90
5
176
1
90
0
176
1
90
0
176
1
290
0
176
1
90
13
176
1
40
0.0
176
1
90
0
176
1
290
0
176
1
290
1
176
1
290
1
176
1
290
0
176
1
290
0
176
1
290
0
176
1
290
0
176
1
290
0
176
1
290
0
176
1
90
50
176
1
40
0.0
176
1
40
1.0
176
1
90
0
176
1
62
18
176
1
90
50
176
1
90
3
176
1
62
5
420
255
176
1
290
0
176
1
90
50
176
1
90
50
176
1
90
50
176
1
290
0
176
1
90
50
176
1
62
256
176
0
40
1.0
176
0
90
2
176
1
1
strokes_ogs.tif
176
1
290
0
176
1
40
1.0
176
1
40
1.0
176
1
1001
ACAD
1000
AcDbSavedByObjectVersion
1070
0
0
VISUALSTYLE
5
23D
102
{ACAD_REACTORS
330
23A
102
}
330
23A
100
AcDbVisualStyle
2
Gouraud
70
2
177
3
291
1
70
58
90
2
176
1
90
2
176
1
90
1
176
1
90
2
176
1
40
0.6
176
1
40
30.0
176
1
62
7
420
16777215
176
1
90
0
176
1
90
0
176
1
62
7
176
1
62
257
176
1
90
1
176
1
90
1
176
1
40
1.0
176
1
90
0
176
1
62
7
176
1
40
1.0
176
1
90
1
176
1
90
6
176
1
90
2
176
1
62
7
176
1
90
5
176
1
90
0
176
1
90
0
176
1
290
0
176
1
90
13
176
1
40
0.0
176
1
90
0
176
1
290
0
176
1
290
1
176
1
290
1
176
1
290
0
176
1
290
0
176
1
290
0
176
1
290
0
176
1
290
0
176
1
290
0
176
1
90
50
176
1
40
0.0
176
1
40
1.0
176
1
90
0
176
1
62
18
176
1
90
50
176
1
90
3
176
1
62
5
420
255
176
1
290
0
176
1
90
50
176
1
90
50
176
1
90
50
176
1
290
0
176
1
90
50
176
1
62
256
176
0
40
1.0
176
0
90
2
176
1
1
strokes_ogs.tif
176
1
290
0
176
1
40
1.0
176
1
40
1.0
176
1
1001
ACAD
1000
AcDbSavedByObjectVersion
1070
0
0
VISUALSTYLE
5
23E
102
{ACAD_REACTORS
330
23A
102
}
330
23A
100
AcDbVisualStyle
2
GouraudWithEdges
70
3
177
3
291
1
70
58
90
2
176
1
90
2
176
1
90
1
176
1
90
2
176
1
40
0.6
176
1
40
30.0
176
1
62
7
420
16777215
176
1
90
1
176
1
90
0
176
1
62
7
176
1
62
257
176
1
90
1
176
1
90
1
176
1
40
1.0
176
1
90
0
176
1
62
257
176
1
40
1.0
176
1
90
1
176
1
90
6
176
1
90
2
176
1
62
7
176
1
90
5
176
1
90
0
176
1
90
0
176
1
290
0
176
1
90
13
176
1
40
0.0
176
1
90
0
176
1
290
0
176
1
290
1
176
1
290
1
176
1
290
0
176
1
290
0
176
1
290
0
176
1
290
0
176
1
290
0
176
1
290
0
176
1
90
50
176
1
40
0.0
176
1
40
1.0
176
1
90
0
176
1
62
18
176
1
90
50
176
1
90
3
176
1
62
5
420
255
176
1
290
0
176
1
90
50
176
1
90
50
176
1
90
50
176
1
290
0
176
1
90
50
176
1
62
256
176
0
40
1.0
176
0
90
2
176
1
1
strokes_ogs.tif
176
1
290
0
176
1
40
1.0
176
1
40
1.0
176
1
1001
ACAD
1000
AcDbSavedByObjectVersion
1070
0
0
VISUALSTYLE
5
242
102
{ACAD_REACTORS
330
23A
102
}
330
23A
100
AcDbVisualStyle
2
Hidden
70
6
177
3
291
0
70
58
90
1
176
1
90
2
176
1
90
2
176
1
90
0
176
1
40
0.6
176
1
40
30.0
176
1
62
7
420
16777215
176
1
90
2
176
1
90
2
176
1
62
7
176
1
62
257
176
1
90
2
176
1
90
1
176
1
40
40.0
176
1
90
0
176
1
62
257
176
1
40
1.0
176
1
90
1
176
1
90
6
176
1
90
2
176
1
62
7
176
1
90
3
176
1
90
0
176
1
90
0
176
1
290
0
176
1
90
1
176
1
40
0.0
176
1
90
0
176
1
290
0
176
1
290
1
176
1
290
1
176
1
290
0
176
1
290
0
176
1
290
0
176
1
290
0
176
1
290
0
176
1
290
0
176
1
90
50
176
1
40
0.0
176
1
40
1.0
176
1
90
0
176
1
62
18
176
1
90
50
176
1
90
3
176
1
62
5
420
255
176
1
290
0
176
1
90
50
176
1
90
50
176
1
90
50
176
1
290
0
176
1
90
50
176
1
62
256
176
0
40
1.0
176
0
90
2
176
1
1
strokes_ogs.tif
176
1
290
0
176
1
40
1.0
176
1
40
1.0
176
1
1001
ACAD
1000
AcDbSavedByObjectVersion
1070
0
0
VISUALSTYLE
5
250
102
{ACAD_REACTORS
330
23A
102
}
330
23A
100
AcDbVisualStyle
2
JitterOff
70
20
177
3
291
1
70
58
90
2
176
0
90
2
176
0
90
0
176
0
90
0
176
0
40
0.6
176
0
40
30.0
176
0
62
7
420
16777215
176
0
90
1
176
0
90
4
176
0
62
7
176
0
62
257
176
0
90
1
176
0
90
1
176
0
40
1.0
176
0
90
10
176
2
62
7
176
0
40
1.0
176
0
90
1
176
0
90
6
176
0
90
2
176
0
62
7
176
0
90
5
176
0
90
0
176
0
90
0
176
0
290
0
176
0
90
1
176
0
40
0.0
176
0
90
0
176
0
290
0
176
1
290
1
176
1
290
1
176
1
290
0
176
1
290
0
176
1
290
0
176
1
290
0
176
1
290
0
176
1
290
0
176
1
90
50
176
0
40
0.0
176
0
40
1.0
176
0
90
0
176
0
62
18
176
0
90
50
176
0
90
3
176
0
62
5
420
255
176
0
290
0
176
1
90
50
176
0
90
50
176
0
90
50
176
0
290
0
176
1
90
50
176
0
62
256
176
0
40
1.0
176
0
90
2
176
0
1
strokes_ogs.tif
176
0
290
0
176
1
40
1.0
176
0
40
1.0
176
0
1001
ACAD
1000
AcDbSavedByObjectVersion
1070
0
0
VISUALSTYLE
5
248
102
{ACAD_REACTORS
330
23A
102
}
330
23A
100
AcDbVisualStyle
2
Linepattern
70
14
177
3
291
1
70
58
90
2
176
1
90
2
176
1
90
0
176
1
90
0
176
1
40
0.6
176
1
40
30.0
176
1
62
7
420
16777215
176
1
90
1
176
1
90
4
176
1
62
7
176
1
62
257
176
1
90
7
176
1
90
7
176
1
40
1.0
176
1
90
8
176
1
62
7
176
1
40
1.0
176
1
90
1
176
1
90
6
176
1
90
2
176
1
62
7
176
1
90
5
176
1
90
0
176
1
90
0
176
1
290
0
176
1
90
1
176
1
40
0.0
176
1
90
0
176
1
290
0
176
1
290
1
176
1
290
1
176
1
290
0
176
1
290
0
176
1
290
0
176
1
290
0
176
1
290
0
176
1
290
0
176
1
90
50
176
1
40
0.0
176
1
40
1.0
176
1
90
0
176
1
62
18
176
1
90
50
176
1
90
3
176
1
62
5
420
255
176
1
290
0
176
1
90
50
176
1
90
50
176
1
90
50
176
1
290
0
176
1
90
50
176
1
62
256
176
0
40
1.0
176
0
90
2
176
1
1
strokes_ogs.tif
176
1
290
0
176
1
40
1.0
176
1
40
1.0
176
1
1001
ACAD
1000
AcDbSavedByObjectVersion
1070
0
0
VISUALSTYLE
5
251
102
{ACAD_REACTORS
330
23A
102
}
330
23A
100
AcDbVisualStyle
2
OverhangOff
70
21
177
3
291
1
70
58
90
2
176
0
90
2
176
0
90
0
176
0
90
0
176
0
40
0.6
176
0
40
30.0
176
0
62
7
420
16777215
176
0
90
1
176
0
90
4
176
0
62
7
176
0
62
257
176
0
90
1
176
0
90
1
176
0
40
1.0
176
0
90
9
176
2
62
7
176
0
40
1.0
176
0
90
1
176
0
90
6
176
0
90
2
176
0
62
7
176
0
90
5
176
0
90
0
176
0
90
0
176
0
290
0
176
0
90
1
176
0
40
0.0
176
0
90
0
176
0
290
0
176
1
290
1
176
1
290
1
176
1
290
0
176
1
290
0
176
1
290
0
176
1
290
0
176
1
290
0
176
1
290
0
176
1
90
50
176
0
40
0.0
176
0
40
1.0
176
0
90
0
176
0
62
18
176
0
90
50
176
0
90
3
176
0
62
5
420
255
176
0
290
0
176
1
90
50
176
0
90
50
176
0
90
50
176
0
290
0
176
1
90
50
176
0
62
256
176
0
40
1.0
176
0
90
2
176
0
1
strokes_ogs.tif
176
0
290
0
176
1
40
1.0
176
0
40
1.0
176
0
1001
ACAD
1000
AcDbSavedByObjectVersion
1070
0
0
VISUALSTYLE
5
244
102
{ACAD_REACTORS
330
23A
102
}
330
23A
100
AcDbVisualStyle
2
Realistic
70
8
177
3
291
0
70
58
90
2
176
1
90
3
176
1
90
0
176
1
90
2
176
1
40
0.6
176
1
40
30.0
176
1
62
7
420
16777215
176
1
90
0
176
1
90
0
176
1
62
7
176
1
62
257
176
1
90
1
176
1
90
1
176
1
40
1.0
176
1
90
8
176
1
62
257
176
1
40
1.0
176
1
90
1
176
1
90
6
176
1
90
2
176
1
62
7
176
1
90
3
176
1
90
0
176
1
90
0
176
1
290
0
176
1
90
13
176
1
40
0.0
176
1
90
0
176
1
290
0
176
1
290
1
176
1
290
1
176
1
290
0
176
1
290
0
176
1
290
0
176
1
290
0
176
1
290
0
176
1
290
0
176
1
90
50
176
1
40
0.0
176
1
40
1.0
176
1
90
0
176
1
62
18
176
1
90
50
176
1
90
3
176
1
62
5
420
255
176
1
290
0
176
1
90
50
176
1
90
50
176
1
90
50
176
1
290
0
176
1
90
50
176
1
62
256
176
0
40
1.0
176
0
90
2
176
1
1
strokes_ogs.tif
176
1
290
0
176
1
40
1.0
176
1
40
1.0
176
1
1001
ACAD
1000
AcDbSavedByObjectVersion
1070
0
0
VISUALSTYLE
5
24F
102
{ACAD_REACTORS
330
23A
102
}
330
23A
100
AcDbVisualStyle
2
Shaded
70
27
177
3
291
0
70
58
90
2
176
1
90
2
176
1
90
1
176
1
90
2
176
1
40
0.6
176
1
40
30.0
176
1
62
7
420
16777215
176
1
90
0
176
1
90
4
176
1
62
7
176
1
62
257
176
1
90
1
176
1
90
1
176
1
40
1.0
176
1
90
8
176
1
62
257
176
1
40
1.0
176
1
90
1
176
1
90
6
176
1
90
2
176
1
62
8
420
7895160
176
1
90
3
176
1
90
0
176
1
90
0
176
1
290
0
176
1
90
5
176
1
40
0.0
176
1
90
0
176
1
290
0
176
1
290
1
176
1
290
1
176
1
290
0
176
1
290
0
176
1
290
0
176
1
290
0
176
1
290
0
176
1
290
0
176
1
90
50
176
1
40
0.0
176
1
40
1.0
176
1
90
0
176
1
62
18
176
1
90
50
176
1
90
3
176
1
62
5
420
255
176
1
290
0
176
1
90
50
176
1
90
50
176
1
90
50
176
1
290
0
176
1
90
50
176
1
62
256
176
0
40
1.0
176
0
90
2
176
1
1
strokes_ogs.tif
176
1
290
0
176
1
40
1.0
176
1
40
1.0
176
1
1001
ACAD
1000
AcDbSavedByObjectVersion
1070
0
0
VISUALSTYLE
5
24E
102
{ACAD_REACTORS
330
23A
102
}
330
23A
100
AcDbVisualStyle
2
Shaded with edges
70
26
177
3
291
0
70
58
90
2
176
1
90
2
176
1
90
1
176
1
90
2
176
1
40
0.6
176
1
40
30.0
176
1
62
7
420
16777215
176
1
90
1
176
1
90
10
176
1
62
7
176
1
62
257
176
1
90
2
176
1
90
1
176
1
40
1.0
176
1
90
8
176
1
62
257
176
1
40
1.0
176
1
90
1
176
1
90
6
176
1
90
2
176
1
62
7
176
1
90
3
176
1
90
0
176
1
90
0
176
1
290
0
176
1
90
5
176
1
40
0.0
176
1
90
0
176
1
290
0
176
1
290
1
176
1
290
1
176
1
290
0
176
1
290
0
176
1
290
0
176
1
290
0
176
1
290
0
176
1
290
0
176
1
90
50
176
1
40
0.0
176
1
40
1.0
176
1
90
0
176
1
62
18
176
1
90
50
176
1
90
3
176
1
62
5
420
255
176
1
290
0
176
1
90
50
176
1
90
50
176
1
90
50
176
1
290
0
176
1
90
50
176
1
62
256
176
0
40
1.0
176
0
90
2
176
1
1
strokes_ogs.tif
176
1
290
0
176
1
40
1.0
176
1
40
1.0
176
1
1001
ACAD
1000
AcDbSavedByObjectVersion
1070
0
0
VISUALSTYLE
5
24B
102
{ACAD_REACTORS
330
23A
102
}
330
23A
100
AcDbVisualStyle
2
Shades of Gray
70
23
177
3
291
0
70
58
90
2
176
1
90
2
176
1
90
3
176
1
90
0
176
1
40
0.6
176
1
40
30.0
176
1
62
7
420
16777215
176
1
90
2
176
1
90
2
176
1
62
7
176
1
62
7
176
1
90
1
176
1
90
1
176
1
40
40.0
176
1
90
8
176
1
62
7
176
1
40
1.0
176
1
90
1
176
1
90
6
176
1
90
2
176
1
62
7
176
1
90
3
176
1
90
0
176
1
90
0
176
1
290
0
176
1
90
1
176
1
40
0.0
176
1
90
0
176
1
290
0
176
1
290
1
176
1
290
1
176
1
290
0
176
1
290
0
176
1
290
0
176
1
290
0
176
1
290
0
176
1
290
0
176
1
90
50
176
1
40
0.0
176
1
40
1.0
176
1
90
0
176
1
62
18
176
1
90
50
176
1
90
3
176
1
62
5
420
255
176
1
290
0
176
1
90
50
176
1
90
50
176
1
90
50
176
1
290
0
176
1
90
50
176
1
62
256
176
0
40
1.0
176
0
90
2
176
1
1
strokes_ogs.tif
176
1
290
0
176
1
40
1.0
176
1
40
1.0
176
1
1001
ACAD
1000
AcDbSavedByObjectVersion
1070
0
0
VISUALSTYLE
5
24C
102
{ACAD_REACTORS
330
23A
102
}
330
23A
100
AcDbVisualStyle
2
Sketchy
70
24
177
3
291
0
70
58
90
1
176
1
90
2
176
1
90
2
176
1
90
0
176
1
40
0.6
176
1
40
30.0
176
1
62
7
420
16777215
176
1
90
2
176
1
90
2
176
1
62
7
176
1
62
7
176
1
90
1
176
1
90
1
176
1
40
40.0
176
1
90
11
176
1
62
7
176
1
40
1.0
176
1
90
1
176
1
90
6
176
1
90
2
176
1
62
7
176
1
90
6
176
1
90
0
176
1
90
0
176
1
290
0
176
1
90
1
176
1
40
0.0
176
1
90
0
176
1
290
0
176
1
290
1
176
1
290
1
176
1
290
0
176
1
290
0
176
1
290
0
176
1
290
0
176
1
290
0
176
1
290
0
176
1
90
50
176
1
40
0.0
176
1
40
1.0
176
1
90
0
176
1
62
18
176
1
90
50
176
1
90
3
176
1
62
5
420
255
176
1
290
0
176
1
90
50
176
1
90
50
176
1
90
50
176
1
290
0
176
1
90
50
176
1
62
256
176
0
40
1.0
176
0
90
2
176
1
1
strokes_ogs.tif
176
1
290
0
176
1
40
1.0
176
1
40
1.0
176
1
1001
ACAD
1000
AcDbSavedByObjectVersion
1070
0
0
VISUALSTYLE
5
247
102
{ACAD_REACTORS
330
23A
102
}
330
23A
100
AcDbVisualStyle
2
Thicken
70
13
177
3
291
1
70
58
90
2
176
1
90
2
176
1
90
0
176
1
90
0
176
1
40
0.6
176
1
40
30.0
176
1
62
7
420
16777215
176
1
90
1
176
1
90
4
176
1
62
7
176
1
62
257
176
1
90
1
176
1
90
1
176
1
40
1.0
176
1
90
12
176
1
62
7
176
1
40
1.0
176
1
90
1
176
1
90
6
176
1
90
2
176
1
62
7
176
1
90
5
176
1
90
0
176
1
90
0
176
1
290
0
176
1
90
1
176
1
40
0.0
176
1
90
0
176
1
290
0
176
1
290
1
176
1
290
1
176
1
290
0
176
1
290
0
176
1
290
0
176
1
290
0
176
1
290
0
176
1
290
0
176
1
90
50
176
1
40
0.0
176
1
40
1.0
176
1
90
0
176
1
62
18
176
1
90
50
176
1
90
3
176
1
62
5
420
255
176
1
290
0
176
1
90
50
176
1
90
50
176
1
90
50
176
1
290
0
176
1
90
50
176
1
62
256
176
0
40
1.0
176
0
90
2
176
1
1
strokes_ogs.tif
176
1
290
0
176
1
40
1.0
176
1
40
1.0
176
1
1001
ACAD
1000
AcDbSavedByObjectVersion
1070
0
0
VISUALSTYLE
5
241
102
{ACAD_REACTORS
330
23A
102
}
330
23A
100
AcDbVisualStyle
2
Wireframe
70
5
177
3
291
0
70
58
90
0
176
1
90
2
176
1
90
0
176
1
90
0
176
1
40
0.6
176
1
40
30.0
176
1
62
7
420
16777215
176
1
90
1
176
1
90
4
176
1
62
7
176
1
62
257
176
1
90
1
176
1
90
1
176
1
40
1.0
176
1
90
0
176
1
62
257
176
1
40
1.0
176
1
90
1
176
1
90
6
176
1
90
2
176
1
62
7
176
1
90
3
176
1
90
0
176
1
90
0
176
1
290
0
176
1
90
1
176
1
40
0.0
176
1
90
0
176
1
290
0
176
1
290
1
176
1
290
1
176
1
290
0
176
1
290
0
176
1
290
0
176
1
290
0
176
1
290
0
176
1
290
0
176
1
90
50
176
1
40
0.0
176
1
40
1.0
176
1
90
0
176
1
62
18
176
1
90
50
176
1
90
3
176
1
62
5
420
255
176
1
290
0
176
1
90
50
176
1
90
50
176
1
90
50
176
1
290
0
176
1
90
50
176
1
62
256
176
0
40
1.0
176
0
90
2
176
1
1
strokes_ogs.tif
176
1
290
0
176
1
40
1.0
176
1
40
1.0
176
1
1001
ACAD
1000
AcDbSavedByObjectVersion
1070
0
0
VISUALSTYLE
5
24D
102
{ACAD_REACTORS
330
23A
102
}
330
23A
100
AcDbVisualStyle
2
X-Ray
70
25
177
3
291
0
70
58
90
2
176
1
90
2
176
1
90
1
176
1
90
1
176
1
40
0.5
176
1
40
30.0
176
1
62
7
420
16777215
176
1
90
1
176
1
90
0
176
1
62
7
176
1
62
257
176
1
90
1
176
1
90
1
176
1
40
1.0
176
1
90
8
176
1
62
7
176
1
40
1.0
176
1
90
1
176
1
90
6
176
1
90
2
176
1
62
7
176
1
90
3
176
1
90
0
176
1
90
0
176
1
290
0
176
1
90
13
176
1
40
0.0
176
1
90
0
176
1
290
0
176
1
290
1
176
1
290
1
176
1
290
0
176
1
290
0
176
1
290
0
176
1
290
0
176
1
290
0
176
1
290
0
176
1
90
50
176
1
40
0.0
176
1
40
1.0
176
1
90
0
176
1
62
18
176
1
90
50
176
1
90
3
176
1
62
5
420
255
176
1
290
0
176
1
90
50
176
1
90
50
176
1
90
50
176
1
290
0
176
1
90
50
176
1
62
256
176
0
40
1.0
176
0
90
2
176
1
1
strokes_ogs.tif
176
1
290
0
176
1
40
1.0
176
1
40
1.0
176
1
1001
ACAD
1000
AcDbSavedByObjectVersion
1070
0
0
DICTIONARYVAR
5
2A3
102
{ACAD_REACTORS
330
29D
102
}
330
29D
100
DictionaryVariables
280
0
1
1:1
0
DICTIONARYVAR
5
29F
102
{ACAD_REACTORS
330
29D
102
}
330
29D
100
DictionaryVariables
280
0
1
STANDARD
0
DICTIONARYVAR
5
29E
102
{ACAD_REACTORS
330
29D
102
}
330
29D
100
DictionaryVariables
280
0
1
STANDARD
0
DICTIONARYVAR
5
2A0
102
{ACAD_REACTORS
330
29D
102
}
330
29D
100
DictionaryVariables
280
0
1
Imperial24
0
DICTIONARYVAR
5
2A1
102
{ACAD_REACTORS
330
29D
102
}
330
29D
100
DictionaryVariables
280
0
1
Imperial24
0
DICTIONARYVAR
5
2A5
102
{ACAD_REACTORS
330
29D
102
}
330
29D
100
DictionaryVariables
280
0
1
1
0
DICTIONARYVAR
5
2A6
102
{ACAD_REACTORS
330
29D
102
}
330
29D
100
DictionaryVariables
280
0
1
15
0
DICTIONARYVAR
5
2A4
102
{ACAD_REACTORS
330
29D
102
}
330
29D
100
DictionaryVariables
280
0
1
0
0
DICTIONARYVAR
5
2A2
102
{ACAD_REACTORS
330
29D
102
}
330
29D
100
DictionaryVariables
280
0
1
0
0
DICTIONARY
5
22B
330
22A
100
AcDbDictionary
280
1
281
1
3
BUMPTILE
360
22D
3
DIFFUSETILE
360
22C
3
OPACITYTILE
360
230
3
REFLECTIONTILE
360
22F
3
REFRACTIONTILE
360
231
3
SPECULARTILE
360
22E
0
DICTIONARY
5
223
330
222
100
AcDbDictionary
280
1
281
1
3
BUMPTILE
360
225
3
DIFFUSETILE
360
224
3
OPACITYTILE
360
228
3
REFLECTIONTILE
360
227
3
REFRACTIONTILE
360
229
3
SPECULARTILE
360
226
0
DICTIONARY
5
233
330
232
100
AcDbDictionary
280
1
281
1
3
BUMPTILE
360
235
3
DIFFUSETILE
360
234
3
OPACITYTILE
360
238
3
REFLECTIONTILE
360
237
3
REFRACTIONTILE
360
239
3
SPECULARTILE
360
236
0
DICTIONARY
5
2A7
330
275
100
AcDbDictionary
280
1
281
1
3
ACAD_ROUNDTRIP_2008_TABLESTYLE_CELLSTYLEMAP
360
1056
0
XRECORD
5
22D
102
{ACAD_REACTORS
330
22B
102
}
330
22B
100
AcDbXrecord
280
1
270
1
271
1
0
XRECORD
5
22C
102
{ACAD_REACTORS
330
22B
102
}
330
22B
100
AcDbXrecord
280
1
270
1
271
1
0
XRECORD
5
230
102
{ACAD_REACTORS
330
22B
102
}
330
22B
100
AcDbXrecord
280
1
270
1
271
1
0
XRECORD
5
22F
102
{ACAD_REACTORS
330
22B
102
}
330
22B
100
AcDbXrecord
280
1
270
1
271
1
0
XRECORD
5
231
102
{ACAD_REACTORS
330
22B
102
}
330
22B
100
AcDbXrecord
280
1
270
1
271
1
0
XRECORD
5
22E
102
{ACAD_REACTORS
330
22B
102
}
330
22B
100
AcDbXrecord
280
1
270
1
271
1
0
XRECORD
5
225
102
{ACAD_REACTORS
330
223
102
}
330
223
100
AcDbXrecord
280
1
270
1
271
1
0
XRECORD
5
224
102
{ACAD_REACTORS
330
223
102
}
330
223
100
AcDbXrecord
280
1
270
1
271
1
0
XRECORD
5
228
102
{ACAD_REACTORS
330
223
102
}
330
223
100
AcDbXrecord
280
1
270
1
271
1
0
XRECORD
5
227
102
{ACAD_REACTORS
330
223
102
}
330
223
100
AcDbXrecord
280
1
270
1
271
1
0
XRECORD
5
229
102
{ACAD_REACTORS
330
223
102
}
330
223
100
AcDbXrecord
280
1
270
1
271
1
0
XRECORD
5
226
102
{ACAD_REACTORS
330
223
102
}
330
223
100
AcDbXrecord
280
1
270
1
271
1
0
XRECORD
5
235
102
{ACAD_REACTORS
330
233
102
}
330
233
100
AcDbXrecord
280
1
270
1
271
1
0
XRECORD
5
234
102
{ACAD_REACTORS
330
233
102
}
330
233
100
AcDbXrecord
280
1
270
1
271
1
0
XRECORD
5
238
102
{ACAD_REACTORS
330
233
102
}
330
233
100
AcDbXrecord
280
1
270
1
271
1
0
XRECORD
5
237
102
{ACAD_REACTORS
330
233
102
}
330
233
100
AcDbXrecord
280
1
270
1
271
1
0
XRECORD
5
239
102
{ACAD_REACTORS
330
233
102
}
330
233
100
AcDbXrecord
280
1
270
1
271
1
0
XRECORD
5
236
102
{ACAD_REACTORS
330
233
102
}
330
233
100
AcDbXrecord
280
1
270
1
271
1
0
CELLSTYLEMAP
5
1056
102
{ACAD_REACTORS
330
2A7
102
}
330
2A7
100
AcDbCellStyleMap
90
3
300
CELLSTYLE
1
TABLEFORMAT_BEGIN
90
5
170
1
91
0
92
32768
62
257
93
1
300
CONTENTFORMAT
1
CONTENTFORMAT_BEGIN
90
0
91
0
92
512
93
0
300

40
0.0
140
1.0
94
5
62
0
340
266
144
0.25
309
CONTENTFORMAT_END
171
1
301
MARGIN
1
CELLMARGIN_BEGIN
40
0.06
40
0.06
40
0.06
40
0.06
40
0.18
40
0.18
309
CELLMARGIN_END
94
6
95
1
302
GRIDFORMAT
1
GRIDFORMAT_BEGIN
90
0
91
1
62
0
92
-2
340
0
93
0
40
0.045
309
GRIDFORMAT_END
95
2
302
GRIDFORMAT
1
GRIDFORMAT_BEGIN
90
0
91
1
62
0
92
-2
340
0
93
0
40
0.045
309
GRIDFORMAT_END
95
4
302
GRIDFORMAT
1
GRIDFORMAT_BEGIN
90
0
91
1
62
0
92
-2
340
0
93
0
40
0.045
309
GRIDFORMAT_END
95
8
302
GRIDFORMAT
1
GRIDFORMAT_BEGIN
90
0
91
1
62
0
92
-2
340
0
93
0
40
0.045
309
GRIDFORMAT_END
95
16
302
GRIDFORMAT
1
GRIDFORMAT_BEGIN
90
0
91
1
62
0
92
-2
340
0
93
0
40
0.045
309
GRIDFORMAT_END
95
32
302
GRIDFORMAT
1
GRIDFORMAT_BEGIN
90
0
91
1
62
0
92
-2
340
0
93
0
40
0.045
309
GRIDFORMAT_END
309
TABLEFORMAT_END
1
CELLSTYLE_BEGIN
90
1
91
1
300
_TITLE
309
CELLSTYLE_END
300
CELLSTYLE
1
TABLEFORMAT_BEGIN
90
5
170
1
91
0
92
0
62
257
93
1
300
CONTENTFORMAT
1
CONTENTFORMAT_BEGIN
90
0
91
0
92
512
93
0
300

40
0.0
140
1.0
94
5
62
0
340
266
144
0.18
309
CONTENTFORMAT_END
171
1
301
MARGIN
1
CELLMARGIN_BEGIN
40
0.06
40
0.06
40
0.06
40
0.06
40
0.18
40
0.18
309
CELLMARGIN_END
94
6
95
1
302
GRIDFORMAT
1
GRIDFORMAT_BEGIN
90
0
91
1
62
0
92
-2
340
0
93
0
40
0.045
309
GRIDFORMAT_END
95
2
302
GRIDFORMAT
1
GRIDFORMAT_BEGIN
90
0
91
1
62
0
92
-2
340
0
93
0
40
0.045
309
GRIDFORMAT_END
95
4
302
GRIDFORMAT
1
GRIDFORMAT_BEGIN
90
0
91
1
62
0
92
-2
340
0
93
0
40
0.045
309
GRIDFORMAT_END
95
8
302
GRIDFORMAT
1
GRIDFORMAT_BEGIN
90
0
91
1
62
0
92
-2
340
0
93
0
40
0.045
309
GRIDFORMAT_END
95
16
302
GRIDFORMAT
1
GRIDFORMAT_BEGIN
90
0
91
1
62
0
92
-2
340
0
93
0
40
0.045
309
GRIDFORMAT_END
95
32
302
GRIDFORMAT
1
GRIDFORMAT_BEGIN
90
0
91
1
62
0
92
-2
340
0
93
0
40
0.045
309
GRIDFORMAT_END
309
TABLEFORMAT_END
1
CELLSTYLE_BEGIN
90
2
91
1
300
_HEADER
309
CELLSTYLE_END
300
CELLSTYLE
1
TABLEFORMAT_BEGIN
90
5
170
1
91
0
92
0
62
257
93
1
300
CONTENTFORMAT
1
CONTENTFORMAT_BEGIN
90
0
91
0
92
512
93
0
300

40
0.0
140
1.0
94
2
62
0
340
266
144
0.18
309
CONTENTFORMAT_END
171
1
301
MARGIN
1
CELLMARGIN_BEGIN
40
0.06
40
0.06
40
0.06
40
0.06
40
0.18
40
0.18
309
CELLMARGIN_END
94
6
95
1
302
GRIDFORMAT
1
GRIDFORMAT_BEGIN
90
0
91
1
62
0
92
-2
340
0
93
0
40
0.045
309
GRIDFORMAT_END
95
2
302
GRIDFORMAT
1
GRIDFORMAT_BEGIN
90
0
91
1
62
0
92
-2
340
0
93
0
40
0.045
309
GRIDFORMAT_END
95
4
302
GRIDFORMAT
1
GRIDFORMAT_BEGIN
90
0
91
1
62
0
92
-2
340
0
93
0
40
0.045
309
GRIDFORMAT_END
95
8
302
GRIDFORMAT
1
GRIDFORMAT_BEGIN
90
0
91
1
62
0
92
-2
340
0
93
0
40
0.045
309
GRIDFORMAT_END
95
16
302
GRIDFORMAT
1
GRIDFORMAT_BEGIN
90
0
91
1
62
0
92
-2
340
0
93
0
40
0.045
309
GRIDFORMAT_END
95
32
302
GRIDFORMAT
1
GRIDFORMAT_BEGIN
90
0
91
1
62
0
92
-2
340
0
93
0
40
0.045
309
GRIDFORMAT_END
309
TABLEFORMAT_END
1
CELLSTYLE_BEGIN
90
3
91
2
300
_DATA
309
CELLSTYLE_END
0
ENDSEC
0
SECTION
2
ACDSDATA
70
2
71
2
0
ACDSSCHEMA
90
0
1
AcDb_Thumbnail_Schema
2
AcDbDs::ID
280
10
91
8
2
Thumbnail_Data
280
15
91
0
101
ACDSRECORD
95
0
90
1
2
AcDbDs::TreatedAsObjectData
280
1
291
1
101
ACDSRECORD
95
0
90
2
2
AcDbDs::Legacy
280
1
291
1
101
ACDSRECORD
1
AcDbDs::ID
90
3
2
AcDs:Indexable
280
1
291
1
101
ACDSRECORD
1
AcDbDs::ID
90
4
2
AcDbDs::HandleAttribute
280
7
282
1
0
ACDSSCHEMA
90
1
1
AcDbDs::TreatedAsObjectDataSchema
2
AcDbDs::TreatedAsObjectData
280
1
91
0
0
ACDSSCHEMA
90
2
1
AcDbDs::LegacySchema
2
AcDbDs::Legacy
280
1
91
0
0
ACDSSCHEMA
90
3
1
AcDbDs::IndexedPropertySchema
2
AcDs:Indexable
280
1
91
0
0
ACDSSCHEMA
90
4
1
AcDbDs::HandleAttributeSchema
2
AcDbDs::HandleAttribute
280
7
91
1
284
1
0
ACDSRECORD
90
0
2
AcDbDs::ID
280
10
320
284
2
Thumbnail_Data
280
15
94
1130
310
89504E470D0A1A0A0000000D4948445200000100000000BB0803000000BDD6B05600000300504C54452128300000000000000000000000000000000000000000000000000000000000000000330000660000990000CC0000FF0033000033330033660033990033CC0033FF0066000066330066660066990066CC0066FF0099
310
000099330099660099990099CC0099FF00CC0000CC3300CC6600CC9900CCCC00CCFF00FF0000FF3300FF6600FF9900FFCC00FFFF3300003300333300663300993300CC3300FF3333003333333333663333993333CC3333FF3366003366333366663366993366CC3366FF3399003399333399663399993399CC3399FF33CC00
310
33CC3333CC6633CC9933CCCC33CCFF33FF0033FF3333FF6633FF9933FFCC33FFFF6600006600336600666600996600CC6600FF6633006633336633666633996633CC6633FF6666006666336666666666996666CC6666FF6699006699336699666699996699CC6699FF66CC0066CC3366CC6666CC9966CCCC66CCFF66FF0066
310
FF3366FF6666FF9966FFCC66FFFF9900009900339900669900999900CC9900FF9933009933339933669933999933CC9933FF9966009966339966669966999966CC9966FF9999009999339999669999999999CC9999FF99CC0099CC3399CC6699CC9999CCCC99CCFF99FF0099FF3399FF6699FF9999FFCC99FFFFCC0000CC00
310
33CC0066CC0099CC00CCCC00FFCC3300CC3333CC3366CC3399CC33CCCC33FFCC6600CC6633CC6666CC6699CC66CCCC66FFCC9900CC9933CC9966CC9999CC99CCCC99FFCCCC00CCCC33CCCC66CCCC99CCCCCCCCCCFFCCFF00CCFF33CCFF66CCFF99CCFFCCCCFFFFFF0000FF0033FF0066FF0099FF00CCFF00FFFF3300FF3333
310
FF3366FF3399FF33CCFF33FFFF6600FF6633FF6666FF6699FF66CCFF66FFFF9900FF9933FF9966FF9999FF99CCFF99FFFFCC00FFCC33FFCC66FFCC99FFCCCCFFCCFFFFFF00FFFF33FFFF66FFFF99FFFFCCFFFFFF0000000D0D0D1A1A1A2828283535354343435050505D5D5D6B6B6B787878868686939393A1A1A1AEAEAEBB
310
BBBBC9C9C9D6D6D6E4E4E4F1F1F1FFFFFF000000000000000000000000000000000000000000000000000000000000544354A80000004549444154789CEDC13101000000C2A0F54F6D094FA000000000000000000000000000000000000000000000000000000000000000000000000000000000000000000000E062BBBB00
310
01006808E50000000049454E44AE4260824BBACA0DB465ABDB4063B2B20534072BDA4047AC9A0DF4A42AD9407A015D99E20BA8D8407A019D89143066171752C0D0E513E84D54AE01050C5E7F7B0A18BA7C020A18BA7C02F105C4FF0C2920FE4024FE484C01F1C7E2F11723AEC65C8EBA1E372071982F7D48A87EFCC5989C41
310
49A3B22F9BB861E9DF3E73F299D3F25FC9D901000000000000000000000000000000000000000000E0344F3123803F1ED9B2780000000049454E44AE426082FADAD667F149BFC5000000000000000000000000000000000000000070A90F51C3A687E5D1137C0000000049454E44AE426082
0
ENDSEC
0
EOF
